<?xml version="1.0" encoding="iso-8859-1" standalone="no"?> 
<?xml-stylesheet href="main.css" type="text/css"?> 
<svg xmlns="http://www.w3.org/2000/svg" xmlns:xlink="http://www.w3.org/1999/xlink" width="143.06363pt" height="114.6109pt" viewBox="-0.4 -0.4 143.06363 114.6109 "> 
<g transform="translate(0, 114.2109 ) scale(1,-1) translate(0,0.4 )"> 
<g> 
 <g stroke="rgb(0.0%,0.0%,0.0%)"> 
 <g fill="rgb(0.0%,0.0%,0.0%)"> 
 <g stroke-width="0.4pt"> 
 <g> 
 <g> 
 <g> 
 <g transform="matrix(1.0,0.0,0.0,1.0,71.13182,71.13182)"> 
 <g fill="rgb(0.0%,0.0%,0.0%)"> 
 <text style="stroke:none" transform="scale(1,-1) translate(0.0,0)" text-anchor="middle"  font-size="10"> 
</text> 
</g> 
 </g> 
 </g> 
 </g> 
 <g> 
 <g stroke-width="0.8pt"> 
 <g stroke="rgb(0.0%,58.99963%,0.0%)"> 
 <g fill="rgb(0.0%,58.99963%,0.0%)"> 
 <g stroke-opacity="0.25"> 
 <g fill-opacity="0.25"> 
 <path d=" M  0.0 0.0 C  0.0 39.28552 31.8463 71.13182 71.13182 71.13182 C  110.41734 71.13182 142.26364 39.28552 142.26364 0.0  " /> 
 </g> 
 </g> 
 </g> 
 </g> 
 </g> 
 </g> 
 <g> 
 <g stroke-width="0.8pt"> 
 <g stroke="rgb(33.00018%,33.00018%,33.00018%)"> 
 <g fill="rgb(33.00018%,33.00018%,33.00018%)"> 
 <path d=" M  0.0 0.0 C  0.0 39.28552 31.8463 71.13182 71.13182 71.13182 C  110.41734 71.13182 142.26364 39.28552 142.26364 0.0  " style="fill:none"/> 
 </g> 
 </g> 
 </g> 
 </g> 
 <g> 
 <g stroke-width="0.8pt"> 
 <g stroke="rgb(100.0%,58.99963%,0.0%)"> 
 <g fill="rgb(100.0%,58.99963%,0.0%)"> 
 <g stroke-opacity="0.25"> 
 <g fill-opacity="0.25"> 
 <path d=" M  71.13182 71.13182 M  113.81091 71.13182 C  113.81091 94.70313 94.70313 113.81091 71.13182 113.81091 C  47.56052 113.81091 28.45273 94.70313 28.45273 71.13182 C  28.45273 47.56052 47.56052 28.45273 71.13182 28.45273 C  94.70313 28.45273 113.81091 47.56052 113.81091 71.13182 Z M  71.13182 71.13182  " /> 
 </g> 
 </g> 
 </g> 
 </g> 
 </g> 
 </g> 
 <g> 
 <g stroke-width="0.8pt"> 
 <g stroke="rgb(100.0%,58.99963%,0.0%)"> 
 <g fill="rgb(100.0%,58.99963%,0.0%)"> 
 <path d=" M  71.13182 71.13182 M  113.81091 71.13182 C  113.81091 94.70313 94.70313 113.81091 71.13182 113.81091 C  47.56052 113.81091 28.45273 94.70313 28.45273 71.13182 C  28.45273 47.56052 47.56052 28.45273 71.13182 28.45273 C  94.70313 28.45273 113.81091 47.56052 113.81091 71.13182 Z M  71.13182 71.13182  " style="fill:none"/> 
 </g> 
 </g> 
 </g> 
 </g> 
 <g> 
 <g stroke-width="0.8pt"> 
 <g stroke="rgb(100.0%,58.99963%,0.0%)"> 
 <g fill="rgb(100.0%,58.99963%,0.0%)"> 
 <g stroke-opacity="0.25"> 
 <g fill-opacity="0.25"> 
 <path d=" M  71.13182 71.13182 M  99.58455 71.13182 C  99.58455 86.84602 86.84602 99.58455 71.13182 99.58455 C  55.41762 99.58455 42.6791 86.84602 42.6791 71.13182 C  42.6791 55.41762 55.41762 42.6791 71.13182 42.6791 C  86.84602 42.6791 99.58455 55.41762 99.58455 71.13182 Z M  71.13182 71.13182  " /> 
 </g> 
 </g> 
 </g> 
 </g> 
 </g> 
 </g> 
 <g> 
 <g stroke-width="0.8pt"> 
 <g stroke="rgb(100.0%,58.99963%,0.0%)"> 
 <g fill="rgb(100.0%,58.99963%,0.0%)"> 
 <path d=" M  71.13182 71.13182 M  99.58455 71.13182 C  99.58455 86.84602 86.84602 99.58455 71.13182 99.58455 C  55.41762 99.58455 42.6791 86.84602 42.6791 71.13182 C  42.6791 55.41762 55.41762 42.6791 71.13182 42.6791 C  86.84602 42.6791 99.58455 55.41762 99.58455 71.13182 Z M  71.13182 71.13182  " style="fill:none"/> 
 </g> 
 </g> 
 </g> 
 </g> 
 <g> 
 <g stroke-width="0.8pt"> 
 <g stroke="rgb(100.0%,58.99963%,0.0%)"> 
 <g fill="rgb(100.0%,58.99963%,0.0%)"> 
 <g stroke-opacity="0.25"> 
 <g fill-opacity="0.25"> 
 <path d=" M  71.13182 71.13182 M  85.35818 71.13182 C  85.35818 78.98892 78.98892 85.35818 71.13182 85.35818 C  63.27472 85.35818 56.90546 78.98892 56.90546 71.13182 C  56.90546 63.27472 63.27472 56.90546 71.13182 56.90546 C  78.98892 56.90546 85.35818 63.27472 85.35818 71.13182 Z M  71.13182 71.13182  " /> 
 </g> 
 </g> 
 </g> 
 </g> 
 </g> 
 </g> 
 <g> 
 <g stroke-width="0.8pt"> 
 <g stroke="rgb(100.0%,58.99963%,0.0%)"> 
 <g fill="rgb(100.0%,58.99963%,0.0%)"> 
 <path d=" M  71.13182 71.13182 M  85.35818 71.13182 C  85.35818 78.98892 78.98892 85.35818 71.13182 85.35818 C  63.27472 85.35818 56.90546 78.98892 56.90546 71.13182 C  56.90546 63.27472 63.27472 56.90546 71.13182 56.90546 C  78.98892 56.90546 85.35818 63.27472 85.35818 71.13182 Z M  71.13182 71.13182  " style="fill:none"/> 
 </g> 
 </g> 
 </g> 
 </g> 
 <g> 
 <g> 
 <g transform="matrix(1.0,0.0,0.0,1.0,71.13182,64.01863)"> 
 <g fill="rgb(0.0%,0.0%,0.0%)"> 
 <text style="stroke:none" transform="scale(1,-1) translate(0.0,0)" text-anchor="middle"  font-size="10"> 
</text> 
</g> 
 </g> 
 </g> 
 </g> 
 <g> 
 <g> 
 <g transform="matrix(1.0,0.0,0.0,1.0,71.13182,58.32817)"> 
 <g fill="rgb(0.0%,0.0%,0.0%)"> 
 <text style="stroke:none" transform="scale(1,-1) translate(0.0,0)" text-anchor="middle"  font-size="10"> 
</text> 
</g> 
 </g> 
 </g> 
 </g> 
 <g> 
 <g> 
 <g transform="matrix(1.0,0.0,0.0,1.0,71.13182,45.5243)"> 
 <g fill="rgb(0.0%,0.0%,0.0%)"> 
 <text style="stroke:none" transform="scale(1,-1) translate(0.0,0)" text-anchor="middle"  font-size="10"> 
</text> 
</g> 
 </g> 
 </g> 
 </g> 
 <g> 
 <g stroke-width="0.8pt"> 
 <g stroke="rgb(58.99963%,0.0%,0.0%)"> 
 <g fill="rgb(58.99963%,0.0%,0.0%)"> 
 <path d=" M  71.13182 60.48566 L  71.13182 61.86115  " /> 
 </g> 
 </g> 
 </g> 
 </g> 
 <g> 
 <g stroke-width="0.8pt"> 
 <g stroke="rgb(58.99963%,0.0%,0.0%)"> 
 <g fill="rgb(58.99963%,0.0%,0.0%)"> 
 <path d=" M  71.13182 54.7952 L  71.13182 49.05728  " /> 
 </g> 
 </g> 
 </g> 
 </g> 
 <g> 
 <g stroke-width="0.8pt"> 
 <g stroke="rgb(33.00018%,33.00018%,33.00018%)"> 
 <g fill="rgb(33.00018%,33.00018%,33.00018%)"> 
 <path d=" M  71.13182 64.01863 M  71.84317 64.01863 C  71.84317 64.4115 71.52469 64.72998 71.13182 64.72998 C  70.73895 64.72998 70.42047 64.4115 70.42047 64.01863 C  70.42047 63.62576 70.73895 63.30728 71.13182 63.30728 C  71.52469 63.30728 71.84317 63.62576 71.84317 64.01863 Z M  71.13182 64.01863  " /> 
 </g> 
 </g> 
 </g> 
 </g> 
 <g> 
 <g stroke-width="0.8pt"> 
 <g stroke="rgb(33.00018%,33.00018%,33.00018%)"> 
 <g fill="rgb(33.00018%,33.00018%,33.00018%)"> 
 <path d=" M  71.13182 58.32817 M  71.84317 58.32817 C  71.84317 58.72104 71.52469 59.03952 71.13182 59.03952 C  70.73895 59.03952 70.42047 58.72104 70.42047 58.32817 C  70.42047 57.9353 70.73895 57.61682 71.13182 57.61682 C  71.52469 57.61682 71.84317 57.9353 71.84317 58.32817 Z M  71.13182 58.32817  " /> 
 </g> 
 </g> 
 </g> 
 </g> 
 <g> 
 <g stroke-width="0.8pt"> 
 <g stroke="rgb(33.00018%,33.00018%,33.00018%)"> 
 <g fill="rgb(33.00018%,33.00018%,33.00018%)"> 
 <path d=" M  71.13182 45.5243 M  71.84317 45.5243 C  71.84317 45.91718 71.52469 46.23566 71.13182 46.23566 C  70.73895 46.23566 70.42047 45.91718 70.42047 45.5243 C  70.42047 45.13144 70.73895 44.81296 71.13182 44.81296 C  71.52469 44.81296 71.84317 45.13144 71.84317 45.5243 Z M  71.13182 45.5243  " /> 
 </g> 
 </g> 
 </g> 
 </g> 
 </g> 
 </g> 
 </g> 
 </g> 
 </g> 
                                             </g> 
</svg> 
