<?xml version="1.0" encoding="iso-8859-1" standalone="no"?> 
<?xml-stylesheet href="main.css" type="text/css"?> 
<svg xmlns="http://www.w3.org/2000/svg" xmlns:xlink="http://www.w3.org/1999/xlink" width="142.76363pt" height="164.36742pt" viewBox="-0.09999 -22.00378 142.76363 164.36742 "> 
<g transform="translate(0, 142.36363 ) scale(1,-1) translate(0,22.00378 )"> 
<g> 
 <g stroke="rgb(0.0%,0.0%,0.0%)"> 
 <g fill="rgb(0.0%,0.0%,0.0%)"> 
 <g stroke-width="0.4pt"> 
 <g> 
 <g> 
 <g stroke="rgb(100.0%,69.9997%,69.9997%)"> 
 <g fill="rgb(100.0%,69.9997%,69.9997%)"> 
 <path d=" M  35.5659 120.92409 M  35.5659 120.92409 L  35.5659 135.15045 L  49.79227 135.15045 L  49.79227 120.92409 Z M  49.79227 135.15045  " /> 
 </g> 
 </g> 
 </g> 
 <g> 
 <g stroke="rgb(100.0%,69.9997%,69.9997%)"> 
 <g fill="rgb(100.0%,69.9997%,69.9997%)"> 
 <path d=" M  92.47136 7.11317 M  92.47136 7.11317 L  92.47136 21.33954 L  106.69772 21.33954 L  106.69772 7.11317 Z M  106.69772 21.33954  " /> 
 </g> 
 </g> 
 </g> 
 <g> 
 <g stroke="rgb(100.0%,69.9997%,69.9997%)"> 
 <g fill="rgb(100.0%,69.9997%,69.9997%)"> 
 <path d=" M  49.79227 120.92409 M  49.79227 120.92409 L  49.79227 135.15045 L  64.01863 135.15045 L  64.01863 120.92409 Z M  64.01863 135.15045  " /> 
 </g> 
 </g> 
 </g> 
 <g> 
 <g stroke="rgb(100.0%,69.9997%,69.9997%)"> 
 <g fill="rgb(100.0%,69.9997%,69.9997%)"> 
 <path d=" M  78.245 7.11317 M  78.245 7.11317 L  78.245 21.33954 L  92.47136 21.33954 L  92.47136 7.11317 Z M  92.47136 21.33954  " /> 
 </g> 
 </g> 
 </g> 
 <g> 
 <g stroke="rgb(100.0%,69.9997%,69.9997%)"> 
 <g fill="rgb(100.0%,69.9997%,69.9997%)"> 
 <path d=" M  64.01863 120.92409 M  64.01863 120.92409 L  64.01863 135.15045 L  78.245 135.15045 L  78.245 120.92409 Z M  78.245 135.15045  " /> 
 </g> 
 </g> 
 </g> 
 <g> 
 <g stroke="rgb(100.0%,69.9997%,69.9997%)"> 
 <g fill="rgb(100.0%,69.9997%,69.9997%)"> 
 <path d=" M  64.01863 7.11317 M  64.01863 7.11317 L  64.01863 21.33954 L  78.245 21.33954 L  78.245 7.11317 Z M  78.245 21.33954  " /> 
 </g> 
 </g> 
 </g> 
 <g> 
 <g stroke="rgb(100.0%,69.9997%,69.9997%)"> 
 <g fill="rgb(100.0%,69.9997%,69.9997%)"> 
 <path d=" M  78.245 120.92409 M  78.245 120.92409 L  78.245 135.15045 L  92.47136 135.15045 L  92.47136 120.92409 Z M  92.47136 135.15045  " /> 
 </g> 
 </g> 
 </g> 
 <g> 
 <g stroke="rgb(100.0%,69.9997%,69.9997%)"> 
 <g fill="rgb(100.0%,69.9997%,69.9997%)"> 
 <path d=" M  49.79227 7.11317 M  49.79227 7.11317 L  49.79227 21.33954 L  64.01863 21.33954 L  64.01863 7.11317 Z M  64.01863 21.33954  " /> 
 </g> 
 </g> 
 </g> 
 <g> 
 <g stroke="rgb(100.0%,69.9997%,69.9997%)"> 
 <g fill="rgb(100.0%,69.9997%,69.9997%)"> 
 <path d=" M  21.33954 106.69772 M  21.33954 106.69772 L  21.33954 120.92409 L  35.5659 120.92409 L  35.5659 106.69772 Z M  35.5659 120.92409  " /> 
 </g> 
 </g> 
 </g> 
 <g> 
 <g stroke="rgb(100.0%,69.9997%,69.9997%)"> 
 <g fill="rgb(100.0%,69.9997%,69.9997%)"> 
 <path d=" M  106.69772 21.33954 M  106.69772 21.33954 L  106.69772 35.5659 L  120.92409 35.5659 L  120.92409 21.33954 Z M  120.92409 35.5659  " /> 
 </g> 
 </g> 
 </g> 
 <g> 
 <g stroke="rgb(100.0%,69.9997%,69.9997%)"> 
 <g fill="rgb(100.0%,69.9997%,69.9997%)"> 
 <path d=" M  35.5659 106.69772 M  35.5659 106.69772 L  35.5659 120.92409 L  49.79227 120.92409 L  49.79227 106.69772 Z M  49.79227 120.92409  " /> 
 </g> 
 </g> 
 </g> 
 <g> 
 <g stroke="rgb(100.0%,69.9997%,69.9997%)"> 
 <g fill="rgb(100.0%,69.9997%,69.9997%)"> 
 <path d=" M  92.47136 21.33954 M  92.47136 21.33954 L  92.47136 35.5659 L  106.69772 35.5659 L  106.69772 21.33954 Z M  106.69772 35.5659  " /> 
 </g> 
 </g> 
 </g> 
 <g> 
 <g stroke="rgb(100.0%,69.9997%,69.9997%)"> 
 <g fill="rgb(100.0%,69.9997%,69.9997%)"> 
 <path d=" M  49.79227 106.69772 M  49.79227 106.69772 L  49.79227 120.92409 L  64.01863 120.92409 L  64.01863 106.69772 Z M  64.01863 120.92409  " /> 
 </g> 
 </g> 
 </g> 
 <g> 
 <g stroke="rgb(100.0%,69.9997%,69.9997%)"> 
 <g fill="rgb(100.0%,69.9997%,69.9997%)"> 
 <path d=" M  78.245 21.33954 M  78.245 21.33954 L  78.245 35.5659 L  92.47136 35.5659 L  92.47136 21.33954 Z M  92.47136 35.5659  " /> 
 </g> 
 </g> 
 </g> 
 <g> 
 <g stroke="rgb(100.0%,69.9997%,69.9997%)"> 
 <g fill="rgb(100.0%,69.9997%,69.9997%)"> 
 <path d=" M  64.01863 106.69772 M  64.01863 106.69772 L  64.01863 120.92409 L  78.245 120.92409 L  78.245 106.69772 Z M  78.245 120.92409  " /> 
 </g> 
 </g> 
 </g> 
 <g> 
 <g stroke="rgb(100.0%,69.9997%,69.9997%)"> 
 <g fill="rgb(100.0%,69.9997%,69.9997%)"> 
 <path d=" M  64.01863 21.33954 M  64.01863 21.33954 L  64.01863 35.5659 L  78.245 35.5659 L  78.245 21.33954 Z M  78.245 35.5659  " /> 
 </g> 
 </g> 
 </g> 
 <g> 
 <g stroke="rgb(100.0%,69.9997%,69.9997%)"> 
 <g fill="rgb(100.0%,69.9997%,69.9997%)"> 
 <path d=" M  78.245 106.69772 M  78.245 106.69772 L  78.245 120.92409 L  92.47136 120.92409 L  92.47136 106.69772 Z M  92.47136 120.92409  " /> 
 </g> 
 </g> 
 </g> 
 <g> 
 <g stroke="rgb(100.0%,69.9997%,69.9997%)"> 
 <g fill="rgb(100.0%,69.9997%,69.9997%)"> 
 <path d=" M  49.79227 21.33954 M  49.79227 21.33954 L  49.79227 35.5659 L  64.01863 35.5659 L  64.01863 21.33954 Z M  64.01863 35.5659  " /> 
 </g> 
 </g> 
 </g> 
 <g> 
 <g stroke="rgb(100.0%,69.9997%,69.9997%)"> 
 <g fill="rgb(100.0%,69.9997%,69.9997%)"> 
 <path d=" M  92.47136 106.69772 M  92.47136 106.69772 L  92.47136 120.92409 L  106.69772 120.92409 L  106.69772 106.69772 Z M  106.69772 120.92409  " /> 
 </g> 
 </g> 
 </g> 
 <g> 
 <g stroke="rgb(100.0%,69.9997%,69.9997%)"> 
 <g fill="rgb(100.0%,69.9997%,69.9997%)"> 
 <path d=" M  35.5659 21.33954 M  35.5659 21.33954 L  35.5659 35.5659 L  49.79227 35.5659 L  49.79227 21.33954 Z M  49.79227 35.5659  " /> 
 </g> 
 </g> 
 </g> 
 <g> 
 <g stroke="rgb(100.0%,69.9997%,69.9997%)"> 
 <g fill="rgb(100.0%,69.9997%,69.9997%)"> 
 <path d=" M  106.69772 106.69772 M  106.69772 106.69772 L  106.69772 120.92409 L  120.92409 120.92409 L  120.92409 106.69772 Z M  120.92409 120.92409  " /> 
 </g> 
 </g> 
 </g> 
 <g> 
 <g stroke="rgb(100.0%,69.9997%,69.9997%)"> 
 <g fill="rgb(100.0%,69.9997%,69.9997%)"> 
 <path d=" M  21.33954 21.33954 M  21.33954 21.33954 L  21.33954 35.5659 L  35.5659 35.5659 L  35.5659 21.33954 Z M  35.5659 35.5659  " /> 
 </g> 
 </g> 
 </g> 
 <g> 
 <g stroke="rgb(100.0%,69.9997%,69.9997%)"> 
 <g fill="rgb(100.0%,69.9997%,69.9997%)"> 
 <path d=" M  21.33954 92.47136 M  21.33954 92.47136 L  21.33954 106.69772 L  35.5659 106.69772 L  35.5659 92.47136 Z M  35.5659 106.69772  " /> 
 </g> 
 </g> 
 </g> 
 <g> 
 <g stroke="rgb(100.0%,69.9997%,69.9997%)"> 
 <g fill="rgb(100.0%,69.9997%,69.9997%)"> 
 <path d=" M  106.69772 35.5659 M  106.69772 35.5659 L  106.69772 49.79227 L  120.92409 49.79227 L  120.92409 35.5659 Z M  120.92409 49.79227  " /> 
 </g> 
 </g> 
 </g> 
 <g> 
 <g stroke="rgb(100.0%,69.9997%,69.9997%)"> 
 <g fill="rgb(100.0%,69.9997%,69.9997%)"> 
 <path d=" M  35.5659 92.47136 M  35.5659 92.47136 L  35.5659 106.69772 L  49.79227 106.69772 L  49.79227 92.47136 Z M  49.79227 106.69772  " /> 
 </g> 
 </g> 
 </g> 
 <g> 
 <g stroke="rgb(100.0%,69.9997%,69.9997%)"> 
 <g fill="rgb(100.0%,69.9997%,69.9997%)"> 
 <path d=" M  92.47136 35.5659 M  92.47136 35.5659 L  92.47136 49.79227 L  106.69772 49.79227 L  106.69772 35.5659 Z M  106.69772 49.79227  " /> 
 </g> 
 </g> 
 </g> 
 <g> 
 <g stroke="rgb(100.0%,69.9997%,69.9997%)"> 
 <g fill="rgb(100.0%,69.9997%,69.9997%)"> 
 <path d=" M  49.79227 92.47136 M  49.79227 92.47136 L  49.79227 106.69772 L  64.01863 106.69772 L  64.01863 92.47136 Z M  64.01863 106.69772  " /> 
 </g> 
 </g> 
 </g> 
 <g> 
 <g stroke="rgb(100.0%,69.9997%,69.9997%)"> 
 <g fill="rgb(100.0%,69.9997%,69.9997%)"> 
 <path d=" M  78.245 35.5659 M  78.245 35.5659 L  78.245 49.79227 L  92.47136 49.79227 L  92.47136 35.5659 Z M  92.47136 49.79227  " /> 
 </g> 
 </g> 
 </g> 
 <g> 
 <g stroke="rgb(100.0%,69.9997%,69.9997%)"> 
 <g fill="rgb(100.0%,69.9997%,69.9997%)"> 
 <path d=" M  92.47136 92.47136 M  92.47136 92.47136 L  92.47136 106.69772 L  106.69772 106.69772 L  106.69772 92.47136 Z M  106.69772 106.69772  " /> 
 </g> 
 </g> 
 </g> 
 <g> 
 <g stroke="rgb(100.0%,69.9997%,69.9997%)"> 
 <g fill="rgb(100.0%,69.9997%,69.9997%)"> 
 <path d=" M  35.5659 35.5659 M  35.5659 35.5659 L  35.5659 49.79227 L  49.79227 49.79227 L  49.79227 35.5659 Z M  49.79227 49.79227  " /> 
 </g> 
 </g> 
 </g> 
 <g> 
 <g stroke="rgb(100.0%,69.9997%,69.9997%)"> 
 <g fill="rgb(100.0%,69.9997%,69.9997%)"> 
 <path d=" M  106.69772 92.47136 M  106.69772 92.47136 L  106.69772 106.69772 L  120.92409 106.69772 L  120.92409 92.47136 Z M  120.92409 106.69772  " /> 
 </g> 
 </g> 
 </g> 
 <g> 
 <g stroke="rgb(100.0%,69.9997%,69.9997%)"> 
 <g fill="rgb(100.0%,69.9997%,69.9997%)"> 
 <path d=" M  21.33954 35.5659 M  21.33954 35.5659 L  21.33954 49.79227 L  35.5659 49.79227 L  35.5659 35.5659 Z M  35.5659 49.79227  " /> 
 </g> 
 </g> 
 </g> 
 <g> 
 <g stroke="rgb(100.0%,69.9997%,69.9997%)"> 
 <g fill="rgb(100.0%,69.9997%,69.9997%)"> 
 <path d=" M  21.33954 78.245 M  21.33954 78.245 L  21.33954 92.47136 L  35.5659 92.47136 L  35.5659 78.245 Z M  35.5659 92.47136  " /> 
 </g> 
 </g> 
 </g> 
 <g> 
 <g stroke="rgb(100.0%,69.9997%,69.9997%)"> 
 <g fill="rgb(100.0%,69.9997%,69.9997%)"> 
 <path d=" M  106.69772 49.79227 M  106.69772 49.79227 L  106.69772 64.01863 L  120.92409 64.01863 L  120.92409 49.79227 Z M  120.92409 64.01863  " /> 
 </g> 
 </g> 
 </g> 
 <g> 
 <g stroke="rgb(100.0%,69.9997%,69.9997%)"> 
 <g fill="rgb(100.0%,69.9997%,69.9997%)"> 
 <path d=" M  35.5659 78.245 M  35.5659 78.245 L  35.5659 92.47136 L  49.79227 92.47136 L  49.79227 78.245 Z M  49.79227 92.47136  " /> 
 </g> 
 </g> 
 </g> 
 <g> 
 <g stroke="rgb(100.0%,69.9997%,69.9997%)"> 
 <g fill="rgb(100.0%,69.9997%,69.9997%)"> 
 <path d=" M  92.47136 49.79227 M  92.47136 49.79227 L  92.47136 64.01863 L  106.69772 64.01863 L  106.69772 49.79227 Z M  106.69772 64.01863  " /> 
 </g> 
 </g> 
 </g> 
 <g> 
 <g stroke="rgb(100.0%,69.9997%,69.9997%)"> 
 <g fill="rgb(100.0%,69.9997%,69.9997%)"> 
 <path d=" M  49.79227 78.245 M  49.79227 78.245 L  49.79227 92.47136 L  64.01863 92.47136 L  64.01863 78.245 Z M  64.01863 92.47136  " /> 
 </g> 
 </g> 
 </g> 
 <g> 
 <g stroke="rgb(100.0%,69.9997%,69.9997%)"> 
 <g fill="rgb(100.0%,69.9997%,69.9997%)"> 
 <path d=" M  78.245 49.79227 M  78.245 49.79227 L  78.245 64.01863 L  92.47136 64.01863 L  92.47136 49.79227 Z M  92.47136 64.01863  " /> 
 </g> 
 </g> 
 </g> 
 <g> 
 <g stroke="rgb(100.0%,69.9997%,69.9997%)"> 
 <g fill="rgb(100.0%,69.9997%,69.9997%)"> 
 <path d=" M  64.01863 78.245 M  64.01863 78.245 L  64.01863 92.47136 L  78.245 92.47136 L  78.245 78.245 Z M  78.245 92.47136  " /> 
 </g> 
 </g> 
 </g> 
 <g> 
 <g stroke="rgb(100.0%,69.9997%,69.9997%)"> 
 <g fill="rgb(100.0%,69.9997%,69.9997%)"> 
 <path d=" M  64.01863 49.79227 M  64.01863 49.79227 L  64.01863 64.01863 L  78.245 64.01863 L  78.245 49.79227 Z M  78.245 64.01863  " /> 
 </g> 
 </g> 
 </g> 
 <g> 
 <g stroke="rgb(100.0%,69.9997%,69.9997%)"> 
 <g fill="rgb(100.0%,69.9997%,69.9997%)"> 
 <path d=" M  35.5659 64.01863 M  35.5659 64.01863 L  35.5659 78.245 L  49.79227 78.245 L  49.79227 64.01863 Z M  49.79227 78.245  " /> 
 </g> 
 </g> 
 </g> 
 <g> 
 <g stroke="rgb(100.0%,69.9997%,69.9997%)"> 
 <g fill="rgb(100.0%,69.9997%,69.9997%)"> 
 <path d=" M  92.47136 64.01863 M  92.47136 64.01863 L  92.47136 78.245 L  106.69772 78.245 L  106.69772 64.01863 Z M  106.69772 78.245  " /> 
 </g> 
 </g> 
 </g> 
 <g> 
 <g stroke="rgb(100.0%,69.9997%,69.9997%)"> 
 <g fill="rgb(100.0%,69.9997%,69.9997%)"> 
 <path d=" M  49.79227 64.01863 M  49.79227 64.01863 L  49.79227 78.245 L  64.01863 78.245 L  64.01863 64.01863 Z M  64.01863 78.245  " /> 
 </g> 
 </g> 
 </g> 
 <g> 
 <g stroke="rgb(100.0%,69.9997%,69.9997%)"> 
 <g fill="rgb(100.0%,69.9997%,69.9997%)"> 
 <path d=" M  78.245 64.01863 M  78.245 64.01863 L  78.245 78.245 L  92.47136 78.245 L  92.47136 64.01863 Z M  92.47136 78.245  " /> 
 </g> 
 </g> 
 </g> 
 <g> 
 <g stroke="rgb(100.0%,69.9997%,69.9997%)"> 
 <g fill="rgb(100.0%,69.9997%,69.9997%)"> 
 <path d=" M  64.01863 64.01863 M  64.01863 64.01863 L  64.01863 78.245 L  78.245 78.245 L  78.245 64.01863 Z M  78.245 78.245  " /> 
 </g> 
 </g> 
 </g> 
 <g> 
 <g stroke="rgb(100.0%,69.9997%,69.9997%)"> 
 <g fill="rgb(100.0%,69.9997%,69.9997%)"> 
 <path d=" M  64.01863 64.01863 M  64.01863 64.01863 L  64.01863 78.245 L  78.245 78.245 L  78.245 64.01863 Z M  78.245 78.245  " /> 
 </g> 
 </g> 
 </g> 
 <g> 
 <g stroke="rgb(100.0%,0.0%,0.0%)"> 
 <g fill="rgb(100.0%,0.0%,0.0%)"> 
 <path d=" M  21.33954 21.33954 M  22.76216 21.33954 C  22.76216 22.12523 22.12523 22.76216 21.33954 22.76216 C  20.55385 22.76216 19.91692 22.12523 19.91692 21.33954 C  19.91692 20.55385 20.55385 19.91692 21.33954 19.91692 C  22.12523 19.91692 22.76216 20.55385 22.76216 21.33954 Z M  21.33954 21.33954  " /> 
 </g> 
 </g> 
 </g> 
 <g> 
 <g stroke="rgb(100.0%,0.0%,0.0%)"> 
 <g fill="rgb(100.0%,0.0%,0.0%)"> 
 <path d=" M  120.92409 120.92409 M  122.34671 120.92409 C  122.34671 121.70978 121.70978 122.34671 120.92409 122.34671 C  120.1384 122.34671 119.50146 121.70978 119.50146 120.92409 C  119.50146 120.1384 120.1384 119.50146 120.92409 119.50146 C  121.70978 119.50146 122.34671 120.1384 122.34671 120.92409 Z M  120.92409 120.92409  " /> 
 </g> 
 </g> 
 </g> 
 <g> 
 <g stroke="rgb(100.0%,0.0%,0.0%)"> 
 <g fill="rgb(100.0%,0.0%,0.0%)"> 
 <path d=" M  21.33954 35.5659 M  22.76216 35.5659 C  22.76216 36.3516 22.12523 36.98853 21.33954 36.98853 C  20.55385 36.98853 19.91692 36.3516 19.91692 35.5659 C  19.91692 34.78021 20.55385 34.14328 21.33954 34.14328 C  22.12523 34.14328 22.76216 34.78021 22.76216 35.5659 Z M  21.33954 35.5659  " /> 
 </g> 
 </g> 
 </g> 
 <g> 
 <g stroke="rgb(100.0%,0.0%,0.0%)"> 
 <g fill="rgb(100.0%,0.0%,0.0%)"> 
 <path d=" M  120.92409 106.69772 M  122.34671 106.69772 C  122.34671 107.48341 121.70978 108.12035 120.92409 108.12035 C  120.1384 108.12035 119.50146 107.48341 119.50146 106.69772 C  119.50146 105.91203 120.1384 105.2751 120.92409 105.2751 C  121.70978 105.2751 122.34671 105.91203 122.34671 106.69772 Z M  120.92409 106.69772  " /> 
 </g> 
 </g> 
 </g> 
 <g> 
 <g stroke="rgb(100.0%,0.0%,0.0%)"> 
 <g fill="rgb(100.0%,0.0%,0.0%)"> 
 <path d=" M  21.33954 49.79227 M  22.76216 49.79227 C  22.76216 50.57796 22.12523 51.21489 21.33954 51.21489 C  20.55385 51.21489 19.91692 50.57796 19.91692 49.79227 C  19.91692 49.00658 20.55385 48.36964 21.33954 48.36964 C  22.12523 48.36964 22.76216 49.00658 22.76216 49.79227 Z M  21.33954 49.79227  " /> 
 </g> 
 </g> 
 </g> 
 <g> 
 <g stroke="rgb(100.0%,0.0%,0.0%)"> 
 <g fill="rgb(100.0%,0.0%,0.0%)"> 
 <path d=" M  120.92409 92.47136 M  122.34671 92.47136 C  122.34671 93.25705 121.70978 93.89398 120.92409 93.89398 C  120.1384 93.89398 119.50146 93.25705 119.50146 92.47136 C  119.50146 91.68567 120.1384 91.04874 120.92409 91.04874 C  121.70978 91.04874 122.34671 91.68567 122.34671 92.47136 Z M  120.92409 92.47136  " /> 
 </g> 
 </g> 
 </g> 
 <g> 
 <g stroke="rgb(100.0%,0.0%,0.0%)"> 
 <g fill="rgb(100.0%,0.0%,0.0%)"> 
 <path d=" M  21.33954 78.245 M  22.76216 78.245 C  22.76216 79.03069 22.12523 79.66762 21.33954 79.66762 C  20.55385 79.66762 19.91692 79.03069 19.91692 78.245 C  19.91692 77.4593 20.55385 76.82237 21.33954 76.82237 C  22.12523 76.82237 22.76216 77.4593 22.76216 78.245 Z M  21.33954 78.245  " /> 
 </g> 
 </g> 
 </g> 
 <g> 
 <g stroke="rgb(100.0%,0.0%,0.0%)"> 
 <g fill="rgb(100.0%,0.0%,0.0%)"> 
 <path d=" M  120.92409 64.01863 M  122.34671 64.01863 C  122.34671 64.80432 121.70978 65.44125 120.92409 65.44125 C  120.1384 65.44125 119.50146 64.80432 119.50146 64.01863 C  119.50146 63.23294 120.1384 62.59601 120.92409 62.59601 C  121.70978 62.59601 122.34671 63.23294 122.34671 64.01863 Z M  120.92409 64.01863  " /> 
 </g> 
 </g> 
 </g> 
 <g> 
 <g stroke="rgb(100.0%,0.0%,0.0%)"> 
 <g fill="rgb(100.0%,0.0%,0.0%)"> 
 <path d=" M  21.33954 92.47136 M  22.76216 92.47136 C  22.76216 93.25705 22.12523 93.89398 21.33954 93.89398 C  20.55385 93.89398 19.91692 93.25705 19.91692 92.47136 C  19.91692 91.68567 20.55385 91.04874 21.33954 91.04874 C  22.12523 91.04874 22.76216 91.68567 22.76216 92.47136 Z M  21.33954 92.47136  " /> 
 </g> 
 </g> 
 </g> 
 <g> 
 <g stroke="rgb(100.0%,0.0%,0.0%)"> 
 <g fill="rgb(100.0%,0.0%,0.0%)"> 
 <path d=" M  120.92409 49.79227 M  122.34671 49.79227 C  122.34671 50.57796 121.70978 51.21489 120.92409 51.21489 C  120.1384 51.21489 119.50146 50.57796 119.50146 49.79227 C  119.50146 49.00658 120.1384 48.36964 120.92409 48.36964 C  121.70978 48.36964 122.34671 49.00658 122.34671 49.79227 Z M  120.92409 49.79227  " /> 
 </g> 
 </g> 
 </g> 
 <g> 
 <g stroke="rgb(100.0%,0.0%,0.0%)"> 
 <g fill="rgb(100.0%,0.0%,0.0%)"> 
 <path d=" M  21.33954 106.69772 M  22.76216 106.69772 C  22.76216 107.48341 22.12523 108.12035 21.33954 108.12035 C  20.55385 108.12035 19.91692 107.48341 19.91692 106.69772 C  19.91692 105.91203 20.55385 105.2751 21.33954 105.2751 C  22.12523 105.2751 22.76216 105.91203 22.76216 106.69772 Z M  21.33954 106.69772  " /> 
 </g> 
 </g> 
 </g> 
 <g> 
 <g stroke="rgb(100.0%,0.0%,0.0%)"> 
 <g fill="rgb(100.0%,0.0%,0.0%)"> 
 <path d=" M  120.92409 35.5659 M  122.34671 35.5659 C  122.34671 36.3516 121.70978 36.98853 120.92409 36.98853 C  120.1384 36.98853 119.50146 36.3516 119.50146 35.5659 C  119.50146 34.78021 120.1384 34.14328 120.92409 34.14328 C  121.70978 34.14328 122.34671 34.78021 122.34671 35.5659 Z M  120.92409 35.5659  " /> 
 </g> 
 </g> 
 </g> 
 <g> 
 <g stroke="rgb(100.0%,0.0%,0.0%)"> 
 <g fill="rgb(100.0%,0.0%,0.0%)"> 
 <path d=" M  21.33954 120.92409 M  22.76216 120.92409 C  22.76216 121.70978 22.12523 122.34671 21.33954 122.34671 C  20.55385 122.34671 19.91692 121.70978 19.91692 120.92409 C  19.91692 120.1384 20.55385 119.50146 21.33954 119.50146 C  22.12523 119.50146 22.76216 120.1384 22.76216 120.92409 Z M  21.33954 120.92409  " /> 
 </g> 
 </g> 
 </g> 
 <g> 
 <g stroke="rgb(100.0%,0.0%,0.0%)"> 
 <g fill="rgb(100.0%,0.0%,0.0%)"> 
 <path d=" M  120.92409 21.33954 M  122.34671 21.33954 C  122.34671 22.12523 121.70978 22.76216 120.92409 22.76216 C  120.1384 22.76216 119.50146 22.12523 119.50146 21.33954 C  119.50146 20.55385 120.1384 19.91692 120.92409 19.91692 C  121.70978 19.91692 122.34671 20.55385 122.34671 21.33954 Z M  120.92409 21.33954  " /> 
 </g> 
 </g> 
 </g> 
 <g> 
 <g stroke="rgb(100.0%,0.0%,0.0%)"> 
 <g fill="rgb(100.0%,0.0%,0.0%)"> 
 <path d=" M  35.5659 21.33954 M  36.98853 21.33954 C  36.98853 22.12523 36.3516 22.76216 35.5659 22.76216 C  34.78021 22.76216 34.14328 22.12523 34.14328 21.33954 C  34.14328 20.55385 34.78021 19.91692 35.5659 19.91692 C  36.3516 19.91692 36.98853 20.55385 36.98853 21.33954 Z M  35.5659 21.33954  " /> 
 </g> 
 </g> 
 </g> 
 <g> 
 <g stroke="rgb(100.0%,0.0%,0.0%)"> 
 <g fill="rgb(100.0%,0.0%,0.0%)"> 
 <path d=" M  106.69772 120.92409 M  108.12035 120.92409 C  108.12035 121.70978 107.48341 122.34671 106.69772 122.34671 C  105.91203 122.34671 105.2751 121.70978 105.2751 120.92409 C  105.2751 120.1384 105.91203 119.50146 106.69772 119.50146 C  107.48341 119.50146 108.12035 120.1384 108.12035 120.92409 Z M  106.69772 120.92409  " /> 
 </g> 
 </g> 
 </g> 
 <g> 
 <g stroke="rgb(100.0%,0.0%,0.0%)"> 
 <g fill="rgb(100.0%,0.0%,0.0%)"> 
 <path d=" M  35.5659 49.79227 M  36.98853 49.79227 C  36.98853 50.57796 36.3516 51.21489 35.5659 51.21489 C  34.78021 51.21489 34.14328 50.57796 34.14328 49.79227 C  34.14328 49.00658 34.78021 48.36964 35.5659 48.36964 C  36.3516 48.36964 36.98853 49.00658 36.98853 49.79227 Z M  35.5659 49.79227  " /> 
 </g> 
 </g> 
 </g> 
 <g> 
 <g stroke="rgb(100.0%,0.0%,0.0%)"> 
 <g fill="rgb(100.0%,0.0%,0.0%)"> 
 <path d=" M  106.69772 92.47136 M  108.12035 92.47136 C  108.12035 93.25705 107.48341 93.89398 106.69772 93.89398 C  105.91203 93.89398 105.2751 93.25705 105.2751 92.47136 C  105.2751 91.68567 105.91203 91.04874 106.69772 91.04874 C  107.48341 91.04874 108.12035 91.68567 108.12035 92.47136 Z M  106.69772 92.47136  " /> 
 </g> 
 </g> 
 </g> 
 <g> 
 <g stroke="rgb(100.0%,0.0%,0.0%)"> 
 <g fill="rgb(100.0%,0.0%,0.0%)"> 
 <path d=" M  35.5659 64.01863 M  36.98853 64.01863 C  36.98853 64.80432 36.3516 65.44125 35.5659 65.44125 C  34.78021 65.44125 34.14328 64.80432 34.14328 64.01863 C  34.14328 63.23294 34.78021 62.59601 35.5659 62.59601 C  36.3516 62.59601 36.98853 63.23294 36.98853 64.01863 Z M  35.5659 64.01863  " /> 
 </g> 
 </g> 
 </g> 
 <g> 
 <g stroke="rgb(100.0%,0.0%,0.0%)"> 
 <g fill="rgb(100.0%,0.0%,0.0%)"> 
 <path d=" M  106.69772 78.245 M  108.12035 78.245 C  108.12035 79.03069 107.48341 79.66762 106.69772 79.66762 C  105.91203 79.66762 105.2751 79.03069 105.2751 78.245 C  105.2751 77.4593 105.91203 76.82237 106.69772 76.82237 C  107.48341 76.82237 108.12035 77.4593 108.12035 78.245 Z M  106.69772 78.245  " /> 
 </g> 
 </g> 
 </g> 
 <g> 
 <g stroke="rgb(100.0%,0.0%,0.0%)"> 
 <g fill="rgb(100.0%,0.0%,0.0%)"> 
 <path d=" M  35.5659 78.245 M  36.98853 78.245 C  36.98853 79.03069 36.3516 79.66762 35.5659 79.66762 C  34.78021 79.66762 34.14328 79.03069 34.14328 78.245 C  34.14328 77.4593 34.78021 76.82237 35.5659 76.82237 C  36.3516 76.82237 36.98853 77.4593 36.98853 78.245 Z M  35.5659 78.245  " /> 
 </g> 
 </g> 
 </g> 
 <g> 
 <g stroke="rgb(100.0%,0.0%,0.0%)"> 
 <g fill="rgb(100.0%,0.0%,0.0%)"> 
 <path d=" M  106.69772 64.01863 M  108.12035 64.01863 C  108.12035 64.80432 107.48341 65.44125 106.69772 65.44125 C  105.91203 65.44125 105.2751 64.80432 105.2751 64.01863 C  105.2751 63.23294 105.91203 62.59601 106.69772 62.59601 C  107.48341 62.59601 108.12035 63.23294 108.12035 64.01863 Z M  106.69772 64.01863  " /> 
 </g> 
 </g> 
 </g> 
 <g> 
 <g stroke="rgb(100.0%,0.0%,0.0%)"> 
 <g fill="rgb(100.0%,0.0%,0.0%)"> 
 <path d=" M  35.5659 120.92409 M  36.98853 120.92409 C  36.98853 121.70978 36.3516 122.34671 35.5659 122.34671 C  34.78021 122.34671 34.14328 121.70978 34.14328 120.92409 C  34.14328 120.1384 34.78021 119.50146 35.5659 119.50146 C  36.3516 119.50146 36.98853 120.1384 36.98853 120.92409 Z M  35.5659 120.92409  " /> 
 </g> 
 </g> 
 </g> 
 <g> 
 <g stroke="rgb(100.0%,0.0%,0.0%)"> 
 <g fill="rgb(100.0%,0.0%,0.0%)"> 
 <path d=" M  106.69772 21.33954 M  108.12035 21.33954 C  108.12035 22.12523 107.48341 22.76216 106.69772 22.76216 C  105.91203 22.76216 105.2751 22.12523 105.2751 21.33954 C  105.2751 20.55385 105.91203 19.91692 106.69772 19.91692 C  107.48341 19.91692 108.12035 20.55385 108.12035 21.33954 Z M  106.69772 21.33954  " /> 
 </g> 
 </g> 
 </g> 
 <g> 
 <g stroke="rgb(100.0%,0.0%,0.0%)"> 
 <g fill="rgb(100.0%,0.0%,0.0%)"> 
 <path d=" M  35.5659 135.15045 M  36.98853 135.15045 C  36.98853 135.93614 36.3516 136.57307 35.5659 136.57307 C  34.78021 136.57307 34.14328 135.93614 34.14328 135.15045 C  34.14328 134.36476 34.78021 133.72783 35.5659 133.72783 C  36.3516 133.72783 36.98853 134.36476 36.98853 135.15045 Z M  35.5659 135.15045  " /> 
 </g> 
 </g> 
 </g> 
 <g> 
 <g stroke="rgb(100.0%,0.0%,0.0%)"> 
 <g fill="rgb(100.0%,0.0%,0.0%)"> 
 <path d=" M  106.69772 7.11317 M  108.12035 7.11317 C  108.12035 7.89886 107.48341 8.5358 106.69772 8.5358 C  105.91203 8.5358 105.2751 7.89886 105.2751 7.11317 C  105.2751 6.32748 105.91203 5.69055 106.69772 5.69055 C  107.48341 5.69055 108.12035 6.32748 108.12035 7.11317 Z M  106.69772 7.11317  " /> 
 </g> 
 </g> 
 </g> 
 <g> 
 <g stroke="rgb(100.0%,0.0%,0.0%)"> 
 <g fill="rgb(100.0%,0.0%,0.0%)"> 
 <path d=" M  49.79227 7.11317 M  51.21489 7.11317 C  51.21489 7.89886 50.57796 8.5358 49.79227 8.5358 C  49.00658 8.5358 48.36964 7.89886 48.36964 7.11317 C  48.36964 6.32748 49.00658 5.69055 49.79227 5.69055 C  50.57796 5.69055 51.21489 6.32748 51.21489 7.11317 Z M  49.79227 7.11317  " /> 
 </g> 
 </g> 
 </g> 
 <g> 
 <g stroke="rgb(100.0%,0.0%,0.0%)"> 
 <g fill="rgb(100.0%,0.0%,0.0%)"> 
 <path d=" M  92.47136 135.15045 M  93.89398 135.15045 C  93.89398 135.93614 93.25705 136.57307 92.47136 136.57307 C  91.68567 136.57307 91.04874 135.93614 91.04874 135.15045 C  91.04874 134.36476 91.68567 133.72783 92.47136 133.72783 C  93.25705 133.72783 93.89398 134.36476 93.89398 135.15045 Z M  92.47136 135.15045  " /> 
 </g> 
 </g> 
 </g> 
 <g> 
 <g stroke="rgb(100.0%,0.0%,0.0%)"> 
 <g fill="rgb(100.0%,0.0%,0.0%)"> 
 <path d=" M  49.79227 21.33954 M  51.21489 21.33954 C  51.21489 22.12523 50.57796 22.76216 49.79227 22.76216 C  49.00658 22.76216 48.36964 22.12523 48.36964 21.33954 C  48.36964 20.55385 49.00658 19.91692 49.79227 19.91692 C  50.57796 19.91692 51.21489 20.55385 51.21489 21.33954 Z M  49.79227 21.33954  " /> 
 </g> 
 </g> 
 </g> 
 <g> 
 <g stroke="rgb(100.0%,0.0%,0.0%)"> 
 <g fill="rgb(100.0%,0.0%,0.0%)"> 
 <path d=" M  92.47136 120.92409 M  93.89398 120.92409 C  93.89398 121.70978 93.25705 122.34671 92.47136 122.34671 C  91.68567 122.34671 91.04874 121.70978 91.04874 120.92409 C  91.04874 120.1384 91.68567 119.50146 92.47136 119.50146 C  93.25705 119.50146 93.89398 120.1384 93.89398 120.92409 Z M  92.47136 120.92409  " /> 
 </g> 
 </g> 
 </g> 
 <g> 
 <g stroke="rgb(100.0%,0.0%,0.0%)"> 
 <g fill="rgb(100.0%,0.0%,0.0%)"> 
 <path d=" M  49.79227 35.5659 M  51.21489 35.5659 C  51.21489 36.3516 50.57796 36.98853 49.79227 36.98853 C  49.00658 36.98853 48.36964 36.3516 48.36964 35.5659 C  48.36964 34.78021 49.00658 34.14328 49.79227 34.14328 C  50.57796 34.14328 51.21489 34.78021 51.21489 35.5659 Z M  49.79227 35.5659  " /> 
 </g> 
 </g> 
 </g> 
 <g> 
 <g stroke="rgb(100.0%,0.0%,0.0%)"> 
 <g fill="rgb(100.0%,0.0%,0.0%)"> 
 <path d=" M  92.47136 106.69772 M  93.89398 106.69772 C  93.89398 107.48341 93.25705 108.12035 92.47136 108.12035 C  91.68567 108.12035 91.04874 107.48341 91.04874 106.69772 C  91.04874 105.91203 91.68567 105.2751 92.47136 105.2751 C  93.25705 105.2751 93.89398 105.91203 93.89398 106.69772 Z M  92.47136 106.69772  " /> 
 </g> 
 </g> 
 </g> 
 <g> 
 <g stroke="rgb(100.0%,0.0%,0.0%)"> 
 <g fill="rgb(100.0%,0.0%,0.0%)"> 
 <path d=" M  49.79227 49.79227 M  51.21489 49.79227 C  51.21489 50.57796 50.57796 51.21489 49.79227 51.21489 C  49.00658 51.21489 48.36964 50.57796 48.36964 49.79227 C  48.36964 49.00658 49.00658 48.36964 49.79227 48.36964 C  50.57796 48.36964 51.21489 49.00658 51.21489 49.79227 Z M  49.79227 49.79227  " /> 
 </g> 
 </g> 
 </g> 
 <g> 
 <g stroke="rgb(100.0%,0.0%,0.0%)"> 
 <g fill="rgb(100.0%,0.0%,0.0%)"> 
 <path d=" M  92.47136 92.47136 M  93.89398 92.47136 C  93.89398 93.25705 93.25705 93.89398 92.47136 93.89398 C  91.68567 93.89398 91.04874 93.25705 91.04874 92.47136 C  91.04874 91.68567 91.68567 91.04874 92.47136 91.04874 C  93.25705 91.04874 93.89398 91.68567 93.89398 92.47136 Z M  92.47136 92.47136  " /> 
 </g> 
 </g> 
 </g> 
 <g> 
 <g stroke="rgb(100.0%,0.0%,0.0%)"> 
 <g fill="rgb(100.0%,0.0%,0.0%)"> 
 <path d=" M  49.79227 64.01863 M  51.21489 64.01863 C  51.21489 64.80432 50.57796 65.44125 49.79227 65.44125 C  49.00658 65.44125 48.36964 64.80432 48.36964 64.01863 C  48.36964 63.23294 49.00658 62.59601 49.79227 62.59601 C  50.57796 62.59601 51.21489 63.23294 51.21489 64.01863 Z M  49.79227 64.01863  " /> 
 </g> 
 </g> 
 </g> 
 <g> 
 <g stroke="rgb(100.0%,0.0%,0.0%)"> 
 <g fill="rgb(100.0%,0.0%,0.0%)"> 
 <path d=" M  92.47136 78.245 M  93.89398 78.245 C  93.89398 79.03069 93.25705 79.66762 92.47136 79.66762 C  91.68567 79.66762 91.04874 79.03069 91.04874 78.245 C  91.04874 77.4593 91.68567 76.82237 92.47136 76.82237 C  93.25705 76.82237 93.89398 77.4593 93.89398 78.245 Z M  92.47136 78.245  " /> 
 </g> 
 </g> 
 </g> 
 <g> 
 <g stroke="rgb(100.0%,0.0%,0.0%)"> 
 <g fill="rgb(100.0%,0.0%,0.0%)"> 
 <path d=" M  49.79227 135.15045 M  51.21489 135.15045 C  51.21489 135.93614 50.57796 136.57307 49.79227 136.57307 C  49.00658 136.57307 48.36964 135.93614 48.36964 135.15045 C  48.36964 134.36476 49.00658 133.72783 49.79227 133.72783 C  50.57796 133.72783 51.21489 134.36476 51.21489 135.15045 Z M  49.79227 135.15045  " /> 
 </g> 
 </g> 
 </g> 
 <g> 
 <g stroke="rgb(100.0%,0.0%,0.0%)"> 
 <g fill="rgb(100.0%,0.0%,0.0%)"> 
 <path d=" M  92.47136 7.11317 M  93.89398 7.11317 C  93.89398 7.89886 93.25705 8.5358 92.47136 8.5358 C  91.68567 8.5358 91.04874 7.89886 91.04874 7.11317 C  91.04874 6.32748 91.68567 5.69055 92.47136 5.69055 C  93.25705 5.69055 93.89398 6.32748 93.89398 7.11317 Z M  92.47136 7.11317  " /> 
 </g> 
 </g> 
 </g> 
 <g> 
 <g stroke="rgb(100.0%,0.0%,0.0%)"> 
 <g fill="rgb(100.0%,0.0%,0.0%)"> 
 <path d=" M  64.01863 7.11317 M  65.44125 7.11317 C  65.44125 7.89886 64.80432 8.5358 64.01863 8.5358 C  63.23294 8.5358 62.59601 7.89886 62.59601 7.11317 C  62.59601 6.32748 63.23294 5.69055 64.01863 5.69055 C  64.80432 5.69055 65.44125 6.32748 65.44125 7.11317 Z M  64.01863 7.11317  " /> 
 </g> 
 </g> 
 </g> 
 <g> 
 <g stroke="rgb(100.0%,0.0%,0.0%)"> 
 <g fill="rgb(100.0%,0.0%,0.0%)"> 
 <path d=" M  78.245 135.15045 M  79.66762 135.15045 C  79.66762 135.93614 79.03069 136.57307 78.245 136.57307 C  77.4593 136.57307 76.82237 135.93614 76.82237 135.15045 C  76.82237 134.36476 77.4593 133.72783 78.245 133.72783 C  79.03069 133.72783 79.66762 134.36476 79.66762 135.15045 Z M  78.245 135.15045  " /> 
 </g> 
 </g> 
 </g> 
 <g> 
 <g stroke="rgb(100.0%,0.0%,0.0%)"> 
 <g fill="rgb(100.0%,0.0%,0.0%)"> 
 <path d=" M  64.01863 35.5659 M  65.44125 35.5659 C  65.44125 36.3516 64.80432 36.98853 64.01863 36.98853 C  63.23294 36.98853 62.59601 36.3516 62.59601 35.5659 C  62.59601 34.78021 63.23294 34.14328 64.01863 34.14328 C  64.80432 34.14328 65.44125 34.78021 65.44125 35.5659 Z M  64.01863 35.5659  " /> 
 </g> 
 </g> 
 </g> 
 <g> 
 <g stroke="rgb(100.0%,0.0%,0.0%)"> 
 <g fill="rgb(100.0%,0.0%,0.0%)"> 
 <path d=" M  78.245 106.69772 M  79.66762 106.69772 C  79.66762 107.48341 79.03069 108.12035 78.245 108.12035 C  77.4593 108.12035 76.82237 107.48341 76.82237 106.69772 C  76.82237 105.91203 77.4593 105.2751 78.245 105.2751 C  79.03069 105.2751 79.66762 105.91203 79.66762 106.69772 Z M  78.245 106.69772  " /> 
 </g> 
 </g> 
 </g> 
 <g> 
 <g stroke="rgb(100.0%,0.0%,0.0%)"> 
 <g fill="rgb(100.0%,0.0%,0.0%)"> 
 <path d=" M  64.01863 49.79227 M  65.44125 49.79227 C  65.44125 50.57796 64.80432 51.21489 64.01863 51.21489 C  63.23294 51.21489 62.59601 50.57796 62.59601 49.79227 C  62.59601 49.00658 63.23294 48.36964 64.01863 48.36964 C  64.80432 48.36964 65.44125 49.00658 65.44125 49.79227 Z M  64.01863 49.79227  " /> 
 </g> 
 </g> 
 </g> 
 <g> 
 <g stroke="rgb(100.0%,0.0%,0.0%)"> 
 <g fill="rgb(100.0%,0.0%,0.0%)"> 
 <path d=" M  78.245 92.47136 M  79.66762 92.47136 C  79.66762 93.25705 79.03069 93.89398 78.245 93.89398 C  77.4593 93.89398 76.82237 93.25705 76.82237 92.47136 C  76.82237 91.68567 77.4593 91.04874 78.245 91.04874 C  79.03069 91.04874 79.66762 91.68567 79.66762 92.47136 Z M  78.245 92.47136  " /> 
 </g> 
 </g> 
 </g> 
 <g> 
 <g stroke="rgb(100.0%,0.0%,0.0%)"> 
 <g fill="rgb(100.0%,0.0%,0.0%)"> 
 <path d=" M  64.01863 64.01863 M  65.44125 64.01863 C  65.44125 64.80432 64.80432 65.44125 64.01863 65.44125 C  63.23294 65.44125 62.59601 64.80432 62.59601 64.01863 C  62.59601 63.23294 63.23294 62.59601 64.01863 62.59601 C  64.80432 62.59601 65.44125 63.23294 65.44125 64.01863 Z M  64.01863 64.01863  " /> 
 </g> 
 </g> 
 </g> 
 <g> 
 <g stroke="rgb(100.0%,0.0%,0.0%)"> 
 <g fill="rgb(100.0%,0.0%,0.0%)"> 
 <path d=" M  78.245 78.245 M  79.66762 78.245 C  79.66762 79.03069 79.03069 79.66762 78.245 79.66762 C  77.4593 79.66762 76.82237 79.03069 76.82237 78.245 C  76.82237 77.4593 77.4593 76.82237 78.245 76.82237 C  79.03069 76.82237 79.66762 77.4593 79.66762 78.245 Z M  78.245 78.245  " /> 
 </g> 
 </g> 
 </g> 
 <g> 
 <g stroke="rgb(100.0%,0.0%,0.0%)"> 
 <g fill="rgb(100.0%,0.0%,0.0%)"> 
 <path d=" M  64.01863 92.47136 M  65.44125 92.47136 C  65.44125 93.25705 64.80432 93.89398 64.01863 93.89398 C  63.23294 93.89398 62.59601 93.25705 62.59601 92.47136 C  62.59601 91.68567 63.23294 91.04874 64.01863 91.04874 C  64.80432 91.04874 65.44125 91.68567 65.44125 92.47136 Z M  64.01863 92.47136  " /> 
 </g> 
 </g> 
 </g> 
 <g> 
 <g stroke="rgb(100.0%,0.0%,0.0%)"> 
 <g fill="rgb(100.0%,0.0%,0.0%)"> 
 <path d=" M  78.245 49.79227 M  79.66762 49.79227 C  79.66762 50.57796 79.03069 51.21489 78.245 51.21489 C  77.4593 51.21489 76.82237 50.57796 76.82237 49.79227 C  76.82237 49.00658 77.4593 48.36964 78.245 48.36964 C  79.03069 48.36964 79.66762 49.00658 79.66762 49.79227 Z M  78.245 49.79227  " /> 
 </g> 
 </g> 
 </g> 
 <g> 
 <g stroke="rgb(100.0%,0.0%,0.0%)"> 
 <g fill="rgb(100.0%,0.0%,0.0%)"> 
 <path d=" M  64.01863 106.69772 M  65.44125 106.69772 C  65.44125 107.48341 64.80432 108.12035 64.01863 108.12035 C  63.23294 108.12035 62.59601 107.48341 62.59601 106.69772 C  62.59601 105.91203 63.23294 105.2751 64.01863 105.2751 C  64.80432 105.2751 65.44125 105.91203 65.44125 106.69772 Z M  64.01863 106.69772  " /> 
 </g> 
 </g> 
 </g> 
 <g> 
 <g stroke="rgb(100.0%,0.0%,0.0%)"> 
 <g fill="rgb(100.0%,0.0%,0.0%)"> 
 <path d=" M  78.245 35.5659 M  79.66762 35.5659 C  79.66762 36.3516 79.03069 36.98853 78.245 36.98853 C  77.4593 36.98853 76.82237 36.3516 76.82237 35.5659 C  76.82237 34.78021 77.4593 34.14328 78.245 34.14328 C  79.03069 34.14328 79.66762 34.78021 79.66762 35.5659 Z M  78.245 35.5659  " /> 
 </g> 
 </g> 
 </g> 
 <g> 
 <g stroke="rgb(100.0%,0.0%,0.0%)"> 
 <g fill="rgb(100.0%,0.0%,0.0%)"> 
 <path d=" M  64.01863 135.15045 M  65.44125 135.15045 C  65.44125 135.93614 64.80432 136.57307 64.01863 136.57307 C  63.23294 136.57307 62.59601 135.93614 62.59601 135.15045 C  62.59601 134.36476 63.23294 133.72783 64.01863 133.72783 C  64.80432 133.72783 65.44125 134.36476 65.44125 135.15045 Z M  64.01863 135.15045  " /> 
 </g> 
 </g> 
 </g> 
 <g> 
 <g stroke="rgb(100.0%,0.0%,0.0%)"> 
 <g fill="rgb(100.0%,0.0%,0.0%)"> 
 <path d=" M  78.245 7.11317 M  79.66762 7.11317 C  79.66762 7.89886 79.03069 8.5358 78.245 8.5358 C  77.4593 8.5358 76.82237 7.89886 76.82237 7.11317 C  76.82237 6.32748 77.4593 5.69055 78.245 5.69055 C  79.03069 5.69055 79.66762 6.32748 79.66762 7.11317 Z M  78.245 7.11317  " /> 
 </g> 
 </g> 
 </g> 
 <g> 
 <g stroke="rgb(100.0%,0.0%,0.0%)"> 
 <g fill="rgb(100.0%,0.0%,0.0%)"> 
 <g stroke-width="0.8pt"> 
 <path d=" M  35.5659 135.15045 L  92.47136 135.15045 L  92.47136 120.92409 L  120.92409 120.92409 L  120.92409 92.47136 L  92.47136 92.47136 L  92.47136 106.69772 L  64.01863 106.69772 L  64.01863 92.47136 L  78.245 92.47136 L  78.245 78.245 L  106.69772 78.245 L  106.69772 64.01863 L  120.92409 64.01863 L  120.92409 21.33954 L  106.69772 21.33954 L  106.69772 7.11317 L  49.79227 7.11317 L  49.79227 21.33954 L  21.33954 21.33954 L  21.33954 49.79227 L  49.79227 49.79227 L  49.79227 35.5659 L  78.245 35.5659 L  78.245 49.79227 L  64.01863 49.79227 L  64.01863 64.01863 L  35.5659 64.01863 L  35.5659 78.245 L  21.33954 78.245 L  21.33954 120.92409 L  35.5659 120.92409 Z  " style="fill:none"/> 
 </g> 
 </g> 
 </g> 
 </g> 
 <g> 
 <g stroke="rgb(50.0%,50.0%,50.0%)"> 
 <g fill="rgb(50.0%,50.0%,50.0%)"> 
 <g stroke-width="0.2pt"> 
 <path d=" M  0.0 0.0 M  0.0 0.0 L  142.26364 0.0 M  0.0 14.22636 L  142.26364 14.22636 M  0.0 28.45273 L  142.26364 28.45273 M  0.0 42.6791 L  142.26364 42.6791 M  0.0 56.90546 L  142.26364 56.90546 M  0.0 71.13182 L  142.26364 71.13182 M  0.0 85.35818 L  142.26364 85.35818 M  0.0 99.58455 L  142.26364 99.58455 M  0.0 113.81091 L  142.26364 113.81091 M  0.0 128.03728 L  142.26364 128.03728 M  0.0 142.25365 L  142.26364 142.25365 M  0.0 0.0 L  0.0 142.26364 M  14.22636 0.0 L  14.22636 142.26364 M  28.45273 0.0 L  28.45273 142.26364 M  42.6791 0.0 L  42.6791 142.26364 M  56.90546 0.0 L  56.90546 142.26364 M  71.13182 0.0 L  71.13182 142.26364 M  85.35818 0.0 L  85.35818 142.26364 M  99.58455 0.0 L  99.58455 142.26364 M  113.81091 0.0 L  113.81091 142.26364 M  128.03728 0.0 L  128.03728 142.26364 M  142.25365 0.0 L  142.25365 142.26364  " style="fill:none"/> 
 </g> 
 </g> 
 </g> 
 </g> 
 <g> 
 <g> 
 <g transform="matrix(1.0,0.0,0.0,1.0,15.28807,-16.72636)"> 
 <g fill="rgb(0.0%,0.0%,0.0%)"> 
 <text style="stroke:none" transform="scale(1,-1) translate(20.27783,0)" text-anchor="middle"  font-size="10"> 
pointel&#x00A0;&#x00A0;</text> 
</g> 
 </g> 
 </g> 
 </g> 
 <g> 
 <g stroke="rgb(100.0%,0.0%,0.0%)"> 
 <g fill="rgb(100.0%,0.0%,0.0%)"> 
 <path d=" M  64.01863 -14.22636 M  65.44125 -14.22636 C  65.44125 -13.44067 64.80432 -12.80374 64.01863 -12.80374 C  63.23294 -12.80374 62.59601 -13.44067 62.59601 -14.22636 C  62.59601 -15.01205 63.23294 -15.64899 64.01863 -15.64899 C  64.80432 -15.64899 65.44125 -15.01205 65.44125 -14.22636 Z M  64.01863 -14.22636  " /> 
 </g> 
 </g> 
 </g> 
 <g> 
 <g> 
 <g transform="matrix(1.0,0.0,0.0,1.0,90.76308,-16.72636)"> 
 <g fill="rgb(0.0%,0.0%,0.0%)"> 
 <text style="stroke:none" transform="scale(1,-1) translate(11.66669,0)" text-anchor="middle"  font-size="10"> 
lignel</text> 
</g> 
 </g> 
 </g> 
 </g> 
 <g> 
 <g stroke="rgb(100.0%,0.0%,0.0%)"> 
 <g fill="rgb(100.0%,0.0%,0.0%)"> 
 <g stroke-width="0.8pt"> 
 <path d=" M  128.03728 -14.22636 L  142.26364 -14.22636  " style="fill:none"/> 
 </g> 
 </g> 
 </g> 
 </g> 
 </g> 
 </g> 
 </g> 
 </g> 
 </g> 
 
                                           </g> 
</svg> 
