<?xml version="1.0" encoding="iso-8859-1" standalone="no"?> 
<?xml-stylesheet href="main.css" type="text/css"?> 
<svg xmlns="http://www.w3.org/2000/svg" xmlns:xlink="http://www.w3.org/1999/xlink" width="86.15903pt" height="86.15903pt" viewBox="-0.4 -0.4 86.15903 86.15903 "> 
<g transform="translate(0, 85.75903 ) scale(1,-1) translate(0,0.4 )"> 
<g> 
 <g stroke="rgb(0.0%,0.0%,0.0%)"> 
 <g fill="rgb(0.0%,0.0%,0.0%)"> 
 <g stroke-width="0.4pt"> 
 <g> 
 <g> 
 <g stroke="rgb(33.00018%,33.00018%,33.00018%)"> 
 <g fill="rgb(33.00018%,33.00018%,33.00018%)"> 
 <g stroke-width="0.8pt"> 
 <path d=" M  0.0 0.0 L  8.5359 0.0 L  8.5359 8.5359 L  0.0 8.5359 Z  " style="fill:none"/> 
 </g> 
 </g> 
 </g> 
 </g> 
 <g> 
 <g stroke="rgb(33.00018%,33.00018%,33.00018%)"> 
 <g fill="rgb(33.00018%,33.00018%,33.00018%)"> 
 <g stroke-width="0.8pt"> 
 <path d=" M  0.0 8.5359 L  8.5359 8.5359 L  8.5359 17.07181 L  0.0 17.07181 Z  " style="fill:none"/> 
 </g> 
 </g> 
 </g> 
 </g> 
 <g> 
 <g stroke="rgb(33.00018%,33.00018%,33.00018%)"> 
 <g fill="rgb(33.00018%,33.00018%,33.00018%)"> 
 <g stroke-width="0.8pt"> 
 <path d=" M  8.5359 0.0 L  17.07181 0.0 L  17.07181 8.5359 L  8.5359 8.5359 Z  " style="fill:none"/> 
 </g> 
 </g> 
 </g> 
 </g> 
 <g> 
 <g stroke="rgb(33.00018%,33.00018%,33.00018%)"> 
 <g fill="rgb(33.00018%,33.00018%,33.00018%)"> 
 <g stroke-width="0.8pt"> 
 <path d=" M  8.5359 8.5359 L  17.07181 8.5359 L  17.07181 17.07181 L  8.5359 17.07181 Z  " style="fill:none"/> 
 </g> 
 </g> 
 </g> 
 </g> 
 <g> 
 <g stroke="rgb(33.00018%,33.00018%,33.00018%)"> 
 <g fill="rgb(33.00018%,33.00018%,33.00018%)"> 
 <g stroke-width="0.8pt"> 
 <path d=" M  17.07181 0.0 L  25.60771 0.0 L  25.60771 8.5359 L  17.07181 8.5359 Z  " style="fill:none"/> 
 </g> 
 </g> 
 </g> 
 </g> 
 <g> 
 <g stroke="rgb(33.00018%,33.00018%,33.00018%)"> 
 <g fill="rgb(33.00018%,33.00018%,33.00018%)"> 
 <g stroke-width="0.8pt"> 
 <path d=" M  17.07181 8.5359 L  25.60771 8.5359 L  25.60771 17.07181 L  17.07181 17.07181 Z  " style="fill:none"/> 
 </g> 
 </g> 
 </g> 
 </g> 
 <g> 
 <g stroke="rgb(33.00018%,33.00018%,33.00018%)"> 
 <g fill="rgb(33.00018%,33.00018%,33.00018%)"> 
 <g stroke-width="0.8pt"> 
 <path d=" M  25.60771 0.0 L  34.14362 0.0 L  34.14362 8.5359 L  25.60771 8.5359 Z  " style="fill:none"/> 
 </g> 
 </g> 
 </g> 
 </g> 
 <g> 
 <g stroke="rgb(33.00018%,33.00018%,33.00018%)"> 
 <g fill="rgb(33.00018%,33.00018%,33.00018%)"> 
 <g stroke-width="0.8pt"> 
 <path d=" M  25.60771 8.5359 L  34.14362 8.5359 L  34.14362 17.07181 L  25.60771 17.07181 Z  " style="fill:none"/> 
 </g> 
 </g> 
 </g> 
 </g> 
 <g> 
 <g stroke="rgb(33.00018%,33.00018%,33.00018%)"> 
 <g fill="rgb(33.00018%,33.00018%,33.00018%)"> 
 <g stroke-width="0.8pt"> 
 <path d=" M  34.14362 0.0 L  42.67952 0.0 L  42.67952 8.5359 L  34.14362 8.5359 Z  " style="fill:none"/> 
 </g> 
 </g> 
 </g> 
 </g> 
 <g> 
 <g stroke="rgb(33.00018%,33.00018%,33.00018%)"> 
 <g fill="rgb(33.00018%,33.00018%,33.00018%)"> 
 <g stroke-width="0.8pt"> 
 <path d=" M  34.14362 8.5359 L  42.67952 8.5359 L  42.67952 17.07181 L  34.14362 17.07181 Z  " style="fill:none"/> 
 </g> 
 </g> 
 </g> 
 </g> 
 <g> 
 <g stroke="rgb(33.00018%,33.00018%,33.00018%)"> 
 <g fill="rgb(33.00018%,33.00018%,33.00018%)"> 
 <g stroke-width="0.8pt"> 
 <path d=" M  42.67952 0.0 L  51.21542 0.0 L  51.21542 8.5359 L  42.67952 8.5359 Z  " style="fill:none"/> 
 </g> 
 </g> 
 </g> 
 </g> 
 <g> 
 <g stroke="rgb(33.00018%,33.00018%,33.00018%)"> 
 <g fill="rgb(33.00018%,33.00018%,33.00018%)"> 
 <g stroke-width="0.8pt"> 
 <path d=" M  42.67952 8.5359 L  51.21542 8.5359 L  51.21542 17.07181 L  42.67952 17.07181 Z  " style="fill:none"/> 
 </g> 
 </g> 
 </g> 
 </g> 
 <g> 
 <g stroke="rgb(33.00018%,33.00018%,33.00018%)"> 
 <g fill="rgb(33.00018%,33.00018%,33.00018%)"> 
 <g stroke-width="0.8pt"> 
 <path d=" M  51.21542 0.0 L  59.75133 0.0 L  59.75133 8.5359 L  51.21542 8.5359 Z  " style="fill:none"/> 
 </g> 
 </g> 
 </g> 
 </g> 
 <g> 
 <g stroke="rgb(33.00018%,33.00018%,33.00018%)"> 
 <g fill="rgb(33.00018%,33.00018%,33.00018%)"> 
 <g stroke-width="0.8pt"> 
 <path d=" M  51.21542 8.5359 L  59.75133 8.5359 L  59.75133 17.07181 L  51.21542 17.07181 Z  " style="fill:none"/> 
 </g> 
 </g> 
 </g> 
 </g> 
 <g> 
 <g stroke="rgb(33.00018%,33.00018%,33.00018%)"> 
 <g fill="rgb(33.00018%,33.00018%,33.00018%)"> 
 <g stroke-width="0.8pt"> 
 <path d=" M  59.75133 0.0 L  68.28723 0.0 L  68.28723 8.5359 L  59.75133 8.5359 Z  " style="fill:none"/> 
 </g> 
 </g> 
 </g> 
 </g> 
 <g> 
 <g stroke="rgb(33.00018%,33.00018%,33.00018%)"> 
 <g fill="rgb(33.00018%,33.00018%,33.00018%)"> 
 <g stroke-width="0.8pt"> 
 <path d=" M  59.75133 8.5359 L  68.28723 8.5359 L  68.28723 17.07181 L  59.75133 17.07181 Z  " style="fill:none"/> 
 </g> 
 </g> 
 </g> 
 </g> 
 <g> 
 <g stroke="rgb(33.00018%,33.00018%,33.00018%)"> 
 <g fill="rgb(33.00018%,33.00018%,33.00018%)"> 
 <g stroke-width="0.8pt"> 
 <path d=" M  68.28723 0.0 L  76.82314 0.0 L  76.82314 8.5359 L  68.28723 8.5359 Z  " style="fill:none"/> 
 </g> 
 </g> 
 </g> 
 </g> 
 <g> 
 <g stroke="rgb(33.00018%,33.00018%,33.00018%)"> 
 <g fill="rgb(33.00018%,33.00018%,33.00018%)"> 
 <g stroke-width="0.8pt"> 
 <path d=" M  68.28723 8.5359 L  76.82314 8.5359 L  76.82314 17.07181 L  68.28723 17.07181 Z  " style="fill:none"/> 
 </g> 
 </g> 
 </g> 
 </g> 
 <g> 
 <g stroke="rgb(33.00018%,33.00018%,33.00018%)"> 
 <g fill="rgb(33.00018%,33.00018%,33.00018%)"> 
 <g stroke-width="0.8pt"> 
 <path d=" M  76.82314 0.0 L  85.35904 0.0 L  85.35904 8.5359 L  76.82314 8.5359 Z  " style="fill:none"/> 
 </g> 
 </g> 
 </g> 
 </g> 
 <g> 
 <g stroke="rgb(33.00018%,33.00018%,33.00018%)"> 
 <g fill="rgb(33.00018%,33.00018%,33.00018%)"> 
 <g stroke-width="0.8pt"> 
 <path d=" M  76.82314 8.5359 L  85.35904 8.5359 L  85.35904 17.07181 L  76.82314 17.07181 Z  " style="fill:none"/> 
 </g> 
 </g> 
 </g> 
 </g> 
 <g> 
 <g stroke="rgb(33.00018%,33.00018%,33.00018%)"> 
 <g fill="rgb(33.00018%,33.00018%,33.00018%)"> 
 <g stroke-width="0.8pt"> 
 <path d=" M  0.0 17.07181 L  8.5359 17.07181 L  8.5359 25.60771 L  0.0 25.60771 Z  " style="fill:none"/> 
 </g> 
 </g> 
 </g> 
 </g> 
 <g> 
 <g stroke="rgb(33.00018%,33.00018%,33.00018%)"> 
 <g fill="rgb(33.00018%,33.00018%,33.00018%)"> 
 <g stroke-width="0.8pt"> 
 <path d=" M  0.0 25.60771 L  8.5359 25.60771 L  8.5359 34.14362 L  0.0 34.14362 Z  " style="fill:none"/> 
 </g> 
 </g> 
 </g> 
 </g> 
 <g> 
 <g stroke="rgb(33.00018%,33.00018%,33.00018%)"> 
 <g fill="rgb(33.00018%,33.00018%,33.00018%)"> 
 <g stroke-width="0.8pt"> 
 <path d=" M  8.5359 17.07181 L  17.07181 17.07181 L  17.07181 25.60771 L  8.5359 25.60771 Z  " style="fill:none"/> 
 </g> 
 </g> 
 </g> 
 </g> 
 <g> 
 <g stroke="rgb(33.00018%,33.00018%,33.00018%)"> 
 <g fill="rgb(33.00018%,33.00018%,33.00018%)"> 
 <g stroke-width="0.8pt"> 
 <path d=" M  8.5359 25.60771 L  17.07181 25.60771 L  17.07181 34.14362 L  8.5359 34.14362 Z  " style="fill:none"/> 
 </g> 
 </g> 
 </g> 
 </g> 
 <g> 
 <g stroke="rgb(33.00018%,33.00018%,33.00018%)"> 
 <g fill="rgb(33.00018%,33.00018%,33.00018%)"> 
 <g stroke-width="0.8pt"> 
 <path d=" M  17.07181 17.07181 L  25.60771 17.07181 L  25.60771 25.60771 L  17.07181 25.60771 Z  " style="fill:none"/> 
 </g> 
 </g> 
 </g> 
 </g> 
 <g> 
 <g stroke="rgb(33.00018%,33.00018%,33.00018%)"> 
 <g fill="rgb(33.00018%,33.00018%,33.00018%)"> 
 <g stroke-width="0.8pt"> 
 <path d=" M  17.07181 25.60771 L  25.60771 25.60771 L  25.60771 34.14362 L  17.07181 34.14362 Z  " style="fill:none"/> 
 </g> 
 </g> 
 </g> 
 </g> 
 <g> 
 <g stroke="rgb(33.00018%,33.00018%,33.00018%)"> 
 <g fill="rgb(33.00018%,33.00018%,33.00018%)"> 
 <g stroke-width="0.8pt"> 
 <path d=" M  25.60771 17.07181 L  34.14362 17.07181 L  34.14362 25.60771 L  25.60771 25.60771 Z  " style="fill:none"/> 
 </g> 
 </g> 
 </g> 
 </g> 
 <g> 
 <g stroke="rgb(33.00018%,33.00018%,33.00018%)"> 
 <g fill="rgb(33.00018%,33.00018%,33.00018%)"> 
 <g stroke-width="0.8pt"> 
 <path d=" M  25.60771 25.60771 L  34.14362 25.60771 L  34.14362 34.14362 L  25.60771 34.14362 Z  " style="fill:none"/> 
 </g> 
 </g> 
 </g> 
 </g> 
 <g> 
 <g stroke="rgb(33.00018%,33.00018%,33.00018%)"> 
 <g fill="rgb(33.00018%,33.00018%,33.00018%)"> 
 <g stroke-width="0.8pt"> 
 <path d=" M  34.14362 17.07181 L  42.67952 17.07181 L  42.67952 25.60771 L  34.14362 25.60771 Z  " style="fill:none"/> 
 </g> 
 </g> 
 </g> 
 </g> 
 <g> 
 <g stroke="rgb(33.00018%,33.00018%,33.00018%)"> 
 <g fill="rgb(33.00018%,33.00018%,33.00018%)"> 
 <g stroke-width="0.8pt"> 
 <path d=" M  34.14362 25.60771 L  42.67952 25.60771 L  42.67952 34.14362 L  34.14362 34.14362 Z  " style="fill:none"/> 
 </g> 
 </g> 
 </g> 
 </g> 
 <g> 
 <g stroke="rgb(33.00018%,33.00018%,33.00018%)"> 
 <g fill="rgb(33.00018%,33.00018%,33.00018%)"> 
 <g stroke-width="0.8pt"> 
 <path d=" M  42.67952 17.07181 L  51.21542 17.07181 L  51.21542 25.60771 L  42.67952 25.60771 Z  " style="fill:none"/> 
 </g> 
 </g> 
 </g> 
 </g> 
 <g> 
 <g stroke="rgb(33.00018%,33.00018%,33.00018%)"> 
 <g fill="rgb(33.00018%,33.00018%,33.00018%)"> 
 <g stroke-width="0.8pt"> 
 <path d=" M  42.67952 25.60771 L  51.21542 25.60771 L  51.21542 34.14362 L  42.67952 34.14362 Z  " style="fill:none"/> 
 </g> 
 </g> 
 </g> 
 </g> 
 <g> 
 <g stroke="rgb(33.00018%,33.00018%,33.00018%)"> 
 <g fill="rgb(33.00018%,33.00018%,33.00018%)"> 
 <g stroke-width="0.8pt"> 
 <path d=" M  51.21542 17.07181 L  59.75133 17.07181 L  59.75133 25.60771 L  51.21542 25.60771 Z  " style="fill:none"/> 
 </g> 
 </g> 
 </g> 
 </g> 
 <g> 
 <g stroke="rgb(33.00018%,33.00018%,33.00018%)"> 
 <g fill="rgb(33.00018%,33.00018%,33.00018%)"> 
 <g stroke-width="0.8pt"> 
 <path d=" M  51.21542 25.60771 L  59.75133 25.60771 L  59.75133 34.14362 L  51.21542 34.14362 Z  " style="fill:none"/> 
 </g> 
 </g> 
 </g> 
 </g> 
 <g> 
 <g stroke="rgb(33.00018%,33.00018%,33.00018%)"> 
 <g fill="rgb(33.00018%,33.00018%,33.00018%)"> 
 <g stroke-width="0.8pt"> 
 <path d=" M  59.75133 17.07181 L  68.28723 17.07181 L  68.28723 25.60771 L  59.75133 25.60771 Z  " style="fill:none"/> 
 </g> 
 </g> 
 </g> 
 </g> 
 <g> 
 <g stroke="rgb(33.00018%,33.00018%,33.00018%)"> 
 <g fill="rgb(33.00018%,33.00018%,33.00018%)"> 
 <g stroke-width="0.8pt"> 
 <path d=" M  59.75133 25.60771 L  68.28723 25.60771 L  68.28723 34.14362 L  59.75133 34.14362 Z  " style="fill:none"/> 
 </g> 
 </g> 
 </g> 
 </g> 
 <g> 
 <g stroke="rgb(33.00018%,33.00018%,33.00018%)"> 
 <g fill="rgb(33.00018%,33.00018%,33.00018%)"> 
 <g stroke-width="0.8pt"> 
 <path d=" M  68.28723 17.07181 L  76.82314 17.07181 L  76.82314 25.60771 L  68.28723 25.60771 Z  " style="fill:none"/> 
 </g> 
 </g> 
 </g> 
 </g> 
 <g> 
 <g stroke="rgb(33.00018%,33.00018%,33.00018%)"> 
 <g fill="rgb(33.00018%,33.00018%,33.00018%)"> 
 <g stroke-width="0.8pt"> 
 <path d=" M  68.28723 25.60771 L  76.82314 25.60771 L  76.82314 34.14362 L  68.28723 34.14362 Z  " style="fill:none"/> 
 </g> 
 </g> 
 </g> 
 </g> 
 <g> 
 <g stroke="rgb(33.00018%,33.00018%,33.00018%)"> 
 <g fill="rgb(33.00018%,33.00018%,33.00018%)"> 
 <g stroke-width="0.8pt"> 
 <path d=" M  76.82314 17.07181 L  85.35904 17.07181 L  85.35904 25.60771 L  76.82314 25.60771 Z  " style="fill:none"/> 
 </g> 
 </g> 
 </g> 
 </g> 
 <g> 
 <g stroke="rgb(33.00018%,33.00018%,33.00018%)"> 
 <g fill="rgb(33.00018%,33.00018%,33.00018%)"> 
 <g stroke-width="0.8pt"> 
 <path d=" M  76.82314 25.60771 L  85.35904 25.60771 L  85.35904 34.14362 L  76.82314 34.14362 Z  " style="fill:none"/> 
 </g> 
 </g> 
 </g> 
 </g> 
 <g> 
 <g stroke="rgb(33.00018%,33.00018%,33.00018%)"> 
 <g fill="rgb(33.00018%,33.00018%,33.00018%)"> 
 <g stroke-width="0.8pt"> 
 <path d=" M  0.0 34.14362 L  8.5359 34.14362 L  8.5359 42.67952 L  0.0 42.67952 Z  " style="fill:none"/> 
 </g> 
 </g> 
 </g> 
 </g> 
 <g> 
 <g stroke="rgb(33.00018%,33.00018%,33.00018%)"> 
 <g fill="rgb(33.00018%,33.00018%,33.00018%)"> 
 <g stroke-width="0.8pt"> 
 <path d=" M  0.0 42.67952 L  8.5359 42.67952 L  8.5359 51.21542 L  0.0 51.21542 Z  " style="fill:none"/> 
 </g> 
 </g> 
 </g> 
 </g> 
 <g> 
 <g stroke="rgb(33.00018%,33.00018%,33.00018%)"> 
 <g fill="rgb(33.00018%,33.00018%,33.00018%)"> 
 <g stroke-width="0.8pt"> 
 <path d=" M  8.5359 34.14362 L  17.07181 34.14362 L  17.07181 42.67952 L  8.5359 42.67952 Z  " style="fill:none"/> 
 </g> 
 </g> 
 </g> 
 </g> 
 <g> 
 <g stroke="rgb(33.00018%,33.00018%,33.00018%)"> 
 <g fill="rgb(33.00018%,33.00018%,33.00018%)"> 
 <g stroke-width="0.8pt"> 
 <path d=" M  8.5359 42.67952 L  17.07181 42.67952 L  17.07181 51.21542 L  8.5359 51.21542 Z  " style="fill:none"/> 
 </g> 
 </g> 
 </g> 
 </g> 
 <g> 
 <g stroke="rgb(33.00018%,33.00018%,33.00018%)"> 
 <g fill="rgb(33.00018%,33.00018%,33.00018%)"> 
 <g stroke-width="0.8pt"> 
 <path d=" M  17.07181 34.14362 L  25.60771 34.14362 L  25.60771 42.67952 L  17.07181 42.67952 Z  " style="fill:none"/> 
 </g> 
 </g> 
 </g> 
 </g> 
 <g> 
 <g stroke="rgb(33.00018%,33.00018%,33.00018%)"> 
 <g fill="rgb(33.00018%,33.00018%,33.00018%)"> 
 <g stroke-width="0.8pt"> 
 <path d=" M  17.07181 42.67952 L  25.60771 42.67952 L  25.60771 51.21542 L  17.07181 51.21542 Z  " style="fill:none"/> 
 </g> 
 </g> 
 </g> 
 </g> 
 <g> 
 <g stroke="rgb(33.00018%,33.00018%,33.00018%)"> 
 <g fill="rgb(33.00018%,33.00018%,33.00018%)"> 
 <g stroke-width="0.8pt"> 
 <path d=" M  25.60771 34.14362 L  34.14362 34.14362 L  34.14362 42.67952 L  25.60771 42.67952 Z  " style="fill:none"/> 
 </g> 
 </g> 
 </g> 
 </g> 
 <g> 
 <g stroke="rgb(33.00018%,33.00018%,33.00018%)"> 
 <g fill="rgb(33.00018%,33.00018%,33.00018%)"> 
 <g stroke-width="0.8pt"> 
 <path d=" M  25.60771 42.67952 L  34.14362 42.67952 L  34.14362 51.21542 L  25.60771 51.21542 Z  " style="fill:none"/> 
 </g> 
 </g> 
 </g> 
 </g> 
 <g> 
 <g stroke="rgb(33.00018%,33.00018%,33.00018%)"> 
 <g fill="rgb(33.00018%,33.00018%,33.00018%)"> 
 <g stroke-width="0.8pt"> 
 <path d=" M  34.14362 34.14362 L  42.67952 34.14362 L  42.67952 42.67952 L  34.14362 42.67952 Z  " style="fill:none"/> 
 </g> 
 </g> 
 </g> 
 </g> 
 <g> 
 <g stroke="rgb(33.00018%,33.00018%,33.00018%)"> 
 <g fill="rgb(33.00018%,33.00018%,33.00018%)"> 
 <g stroke-width="0.8pt"> 
 <path d=" M  34.14362 42.67952 L  42.67952 42.67952 L  42.67952 51.21542 L  34.14362 51.21542 Z  " style="fill:none"/> 
 </g> 
 </g> 
 </g> 
 </g> 
 <g> 
 <g stroke="rgb(33.00018%,33.00018%,33.00018%)"> 
 <g fill="rgb(33.00018%,33.00018%,33.00018%)"> 
 <g stroke-width="0.8pt"> 
 <path d=" M  42.67952 34.14362 L  51.21542 34.14362 L  51.21542 42.67952 L  42.67952 42.67952 Z  " style="fill:none"/> 
 </g> 
 </g> 
 </g> 
 </g> 
 <g> 
 <g stroke="rgb(33.00018%,33.00018%,33.00018%)"> 
 <g fill="rgb(33.00018%,33.00018%,33.00018%)"> 
 <g stroke-width="0.8pt"> 
 <path d=" M  42.67952 42.67952 L  51.21542 42.67952 L  51.21542 51.21542 L  42.67952 51.21542 Z  " style="fill:none"/> 
 </g> 
 </g> 
 </g> 
 </g> 
 <g> 
 <g stroke="rgb(33.00018%,33.00018%,33.00018%)"> 
 <g fill="rgb(33.00018%,33.00018%,33.00018%)"> 
 <g stroke-width="0.8pt"> 
 <path d=" M  51.21542 34.14362 L  59.75133 34.14362 L  59.75133 42.67952 L  51.21542 42.67952 Z  " style="fill:none"/> 
 </g> 
 </g> 
 </g> 
 </g> 
 <g> 
 <g stroke="rgb(33.00018%,33.00018%,33.00018%)"> 
 <g fill="rgb(33.00018%,33.00018%,33.00018%)"> 
 <g stroke-width="0.8pt"> 
 <path d=" M  51.21542 42.67952 L  59.75133 42.67952 L  59.75133 51.21542 L  51.21542 51.21542 Z  " style="fill:none"/> 
 </g> 
 </g> 
 </g> 
 </g> 
 <g> 
 <g stroke="rgb(33.00018%,33.00018%,33.00018%)"> 
 <g fill="rgb(33.00018%,33.00018%,33.00018%)"> 
 <g stroke-width="0.8pt"> 
 <path d=" M  59.75133 34.14362 L  68.28723 34.14362 L  68.28723 42.67952 L  59.75133 42.67952 Z  " style="fill:none"/> 
 </g> 
 </g> 
 </g> 
 </g> 
 <g> 
 <g stroke="rgb(33.00018%,33.00018%,33.00018%)"> 
 <g fill="rgb(33.00018%,33.00018%,33.00018%)"> 
 <g stroke-width="0.8pt"> 
 <path d=" M  59.75133 42.67952 L  68.28723 42.67952 L  68.28723 51.21542 L  59.75133 51.21542 Z  " style="fill:none"/> 
 </g> 
 </g> 
 </g> 
 </g> 
 <g> 
 <g stroke="rgb(33.00018%,33.00018%,33.00018%)"> 
 <g fill="rgb(33.00018%,33.00018%,33.00018%)"> 
 <g stroke-width="0.8pt"> 
 <path d=" M  68.28723 34.14362 L  76.82314 34.14362 L  76.82314 42.67952 L  68.28723 42.67952 Z  " style="fill:none"/> 
 </g> 
 </g> 
 </g> 
 </g> 
 <g> 
 <g stroke="rgb(33.00018%,33.00018%,33.00018%)"> 
 <g fill="rgb(33.00018%,33.00018%,33.00018%)"> 
 <g stroke-width="0.8pt"> 
 <path d=" M  68.28723 42.67952 L  76.82314 42.67952 L  76.82314 51.21542 L  68.28723 51.21542 Z  " style="fill:none"/> 
 </g> 
 </g> 
 </g> 
 </g> 
 <g> 
 <g stroke="rgb(33.00018%,33.00018%,33.00018%)"> 
 <g fill="rgb(33.00018%,33.00018%,33.00018%)"> 
 <g stroke-width="0.8pt"> 
 <path d=" M  76.82314 34.14362 L  85.35904 34.14362 L  85.35904 42.67952 L  76.82314 42.67952 Z  " style="fill:none"/> 
 </g> 
 </g> 
 </g> 
 </g> 
 <g> 
 <g stroke="rgb(33.00018%,33.00018%,33.00018%)"> 
 <g fill="rgb(33.00018%,33.00018%,33.00018%)"> 
 <g stroke-width="0.8pt"> 
 <path d=" M  76.82314 42.67952 L  85.35904 42.67952 L  85.35904 51.21542 L  76.82314 51.21542 Z  " style="fill:none"/> 
 </g> 
 </g> 
 </g> 
 </g> 
 <g> 
 <g stroke="rgb(33.00018%,33.00018%,33.00018%)"> 
 <g fill="rgb(33.00018%,33.00018%,33.00018%)"> 
 <g stroke-width="0.8pt"> 
 <path d=" M  0.0 51.21542 L  8.5359 51.21542 L  8.5359 59.75133 L  0.0 59.75133 Z  " style="fill:none"/> 
 </g> 
 </g> 
 </g> 
 </g> 
 <g> 
 <g stroke="rgb(33.00018%,33.00018%,33.00018%)"> 
 <g fill="rgb(33.00018%,33.00018%,33.00018%)"> 
 <g stroke-width="0.8pt"> 
 <path d=" M  0.0 59.75133 L  8.5359 59.75133 L  8.5359 68.28723 L  0.0 68.28723 Z  " style="fill:none"/> 
 </g> 
 </g> 
 </g> 
 </g> 
 <g> 
 <g stroke="rgb(33.00018%,33.00018%,33.00018%)"> 
 <g fill="rgb(33.00018%,33.00018%,33.00018%)"> 
 <g stroke-width="0.8pt"> 
 <path d=" M  8.5359 51.21542 L  17.07181 51.21542 L  17.07181 59.75133 L  8.5359 59.75133 Z  " style="fill:none"/> 
 </g> 
 </g> 
 </g> 
 </g> 
 <g> 
 <g stroke="rgb(33.00018%,33.00018%,33.00018%)"> 
 <g fill="rgb(33.00018%,33.00018%,33.00018%)"> 
 <g stroke-width="0.8pt"> 
 <path d=" M  8.5359 59.75133 L  17.07181 59.75133 L  17.07181 68.28723 L  8.5359 68.28723 Z  " style="fill:none"/> 
 </g> 
 </g> 
 </g> 
 </g> 
 <g> 
 <g stroke="rgb(33.00018%,33.00018%,33.00018%)"> 
 <g fill="rgb(33.00018%,33.00018%,33.00018%)"> 
 <g stroke-width="0.8pt"> 
 <path d=" M  17.07181 51.21542 L  25.60771 51.21542 L  25.60771 59.75133 L  17.07181 59.75133 Z  " style="fill:none"/> 
 </g> 
 </g> 
 </g> 
 </g> 
 <g> 
 <g stroke="rgb(33.00018%,33.00018%,33.00018%)"> 
 <g fill="rgb(33.00018%,33.00018%,33.00018%)"> 
 <g stroke-width="0.8pt"> 
 <path d=" M  17.07181 59.75133 L  25.60771 59.75133 L  25.60771 68.28723 L  17.07181 68.28723 Z  " style="fill:none"/> 
 </g> 
 </g> 
 </g> 
 </g> 
 <g> 
 <g stroke="rgb(33.00018%,33.00018%,33.00018%)"> 
 <g fill="rgb(33.00018%,33.00018%,33.00018%)"> 
 <g stroke-width="0.8pt"> 
 <path d=" M  25.60771 51.21542 L  34.14362 51.21542 L  34.14362 59.75133 L  25.60771 59.75133 Z  " style="fill:none"/> 
 </g> 
 </g> 
 </g> 
 </g> 
 <g> 
 <g stroke="rgb(33.00018%,33.00018%,33.00018%)"> 
 <g fill="rgb(33.00018%,33.00018%,33.00018%)"> 
 <g stroke-width="0.8pt"> 
 <path d=" M  25.60771 59.75133 L  34.14362 59.75133 L  34.14362 68.28723 L  25.60771 68.28723 Z  " style="fill:none"/> 
 </g> 
 </g> 
 </g> 
 </g> 
 <g> 
 <g stroke="rgb(33.00018%,33.00018%,33.00018%)"> 
 <g fill="rgb(33.00018%,33.00018%,33.00018%)"> 
 <g stroke-width="0.8pt"> 
 <path d=" M  34.14362 51.21542 L  42.67952 51.21542 L  42.67952 59.75133 L  34.14362 59.75133 Z  " style="fill:none"/> 
 </g> 
 </g> 
 </g> 
 </g> 
 <g> 
 <g stroke="rgb(33.00018%,33.00018%,33.00018%)"> 
 <g fill="rgb(33.00018%,33.00018%,33.00018%)"> 
 <g stroke-width="0.8pt"> 
 <path d=" M  34.14362 59.75133 L  42.67952 59.75133 L  42.67952 68.28723 L  34.14362 68.28723 Z  " style="fill:none"/> 
 </g> 
 </g> 
 </g> 
 </g> 
 <g> 
 <g stroke="rgb(33.00018%,33.00018%,33.00018%)"> 
 <g fill="rgb(33.00018%,33.00018%,33.00018%)"> 
 <g stroke-width="0.8pt"> 
 <path d=" M  42.67952 51.21542 L  51.21542 51.21542 L  51.21542 59.75133 L  42.67952 59.75133 Z  " style="fill:none"/> 
 </g> 
 </g> 
 </g> 
 </g> 
 <g> 
 <g stroke="rgb(33.00018%,33.00018%,33.00018%)"> 
 <g fill="rgb(33.00018%,33.00018%,33.00018%)"> 
 <g stroke-width="0.8pt"> 
 <path d=" M  42.67952 59.75133 L  51.21542 59.75133 L  51.21542 68.28723 L  42.67952 68.28723 Z  " style="fill:none"/> 
 </g> 
 </g> 
 </g> 
 </g> 
 <g> 
 <g stroke="rgb(33.00018%,33.00018%,33.00018%)"> 
 <g fill="rgb(33.00018%,33.00018%,33.00018%)"> 
 <g stroke-width="0.8pt"> 
 <path d=" M  51.21542 51.21542 L  59.75133 51.21542 L  59.75133 59.75133 L  51.21542 59.75133 Z  " style="fill:none"/> 
 </g> 
 </g> 
 </g> 
 </g> 
 <g> 
 <g stroke="rgb(33.00018%,33.00018%,33.00018%)"> 
 <g fill="rgb(33.00018%,33.00018%,33.00018%)"> 
 <g stroke-width="0.8pt"> 
 <path d=" M  51.21542 59.75133 L  59.75133 59.75133 L  59.75133 68.28723 L  51.21542 68.28723 Z  " style="fill:none"/> 
 </g> 
 </g> 
 </g> 
 </g> 
 <g> 
 <g stroke="rgb(33.00018%,33.00018%,33.00018%)"> 
 <g fill="rgb(33.00018%,33.00018%,33.00018%)"> 
 <g stroke-width="0.8pt"> 
 <path d=" M  59.75133 51.21542 L  68.28723 51.21542 L  68.28723 59.75133 L  59.75133 59.75133 Z  " style="fill:none"/> 
 </g> 
 </g> 
 </g> 
 </g> 
 <g> 
 <g stroke="rgb(33.00018%,33.00018%,33.00018%)"> 
 <g fill="rgb(33.00018%,33.00018%,33.00018%)"> 
 <g stroke-width="0.8pt"> 
 <path d=" M  59.75133 59.75133 L  68.28723 59.75133 L  68.28723 68.28723 L  59.75133 68.28723 Z  " style="fill:none"/> 
 </g> 
 </g> 
 </g> 
 </g> 
 <g> 
 <g stroke="rgb(33.00018%,33.00018%,33.00018%)"> 
 <g fill="rgb(33.00018%,33.00018%,33.00018%)"> 
 <g stroke-width="0.8pt"> 
 <path d=" M  68.28723 51.21542 L  76.82314 51.21542 L  76.82314 59.75133 L  68.28723 59.75133 Z  " style="fill:none"/> 
 </g> 
 </g> 
 </g> 
 </g> 
 <g> 
 <g stroke="rgb(33.00018%,33.00018%,33.00018%)"> 
 <g fill="rgb(33.00018%,33.00018%,33.00018%)"> 
 <g stroke-width="0.8pt"> 
 <path d=" M  68.28723 59.75133 L  76.82314 59.75133 L  76.82314 68.28723 L  68.28723 68.28723 Z  " style="fill:none"/> 
 </g> 
 </g> 
 </g> 
 </g> 
 <g> 
 <g stroke="rgb(33.00018%,33.00018%,33.00018%)"> 
 <g fill="rgb(33.00018%,33.00018%,33.00018%)"> 
 <g stroke-width="0.8pt"> 
 <path d=" M  76.82314 51.21542 L  85.35904 51.21542 L  85.35904 59.75133 L  76.82314 59.75133 Z  " style="fill:none"/> 
 </g> 
 </g> 
 </g> 
 </g> 
 <g> 
 <g stroke="rgb(33.00018%,33.00018%,33.00018%)"> 
 <g fill="rgb(33.00018%,33.00018%,33.00018%)"> 
 <g stroke-width="0.8pt"> 
 <path d=" M  76.82314 59.75133 L  85.35904 59.75133 L  85.35904 68.28723 L  76.82314 68.28723 Z  " style="fill:none"/> 
 </g> 
 </g> 
 </g> 
 </g> 
 <g> 
 <g stroke="rgb(33.00018%,33.00018%,33.00018%)"> 
 <g fill="rgb(33.00018%,33.00018%,33.00018%)"> 
 <g stroke-width="0.8pt"> 
 <path d=" M  0.0 68.28723 L  8.5359 68.28723 L  8.5359 76.82314 L  0.0 76.82314 Z  " style="fill:none"/> 
 </g> 
 </g> 
 </g> 
 </g> 
 <g> 
 <g stroke="rgb(33.00018%,33.00018%,33.00018%)"> 
 <g fill="rgb(33.00018%,33.00018%,33.00018%)"> 
 <g stroke-width="0.8pt"> 
 <path d=" M  0.0 76.82314 L  8.5359 76.82314 L  8.5359 85.35904 L  0.0 85.35904 Z  " style="fill:none"/> 
 </g> 
 </g> 
 </g> 
 </g> 
 <g> 
 <g stroke="rgb(33.00018%,33.00018%,33.00018%)"> 
 <g fill="rgb(33.00018%,33.00018%,33.00018%)"> 
 <g stroke-width="0.8pt"> 
 <path d=" M  8.5359 68.28723 L  17.07181 68.28723 L  17.07181 76.82314 L  8.5359 76.82314 Z  " style="fill:none"/> 
 </g> 
 </g> 
 </g> 
 </g> 
 <g> 
 <g stroke="rgb(33.00018%,33.00018%,33.00018%)"> 
 <g fill="rgb(33.00018%,33.00018%,33.00018%)"> 
 <g stroke-width="0.8pt"> 
 <path d=" M  8.5359 76.82314 L  17.07181 76.82314 L  17.07181 85.35904 L  8.5359 85.35904 Z  " style="fill:none"/> 
 </g> 
 </g> 
 </g> 
 </g> 
 <g> 
 <g stroke="rgb(33.00018%,33.00018%,33.00018%)"> 
 <g fill="rgb(33.00018%,33.00018%,33.00018%)"> 
 <g stroke-width="0.8pt"> 
 <path d=" M  17.07181 68.28723 L  25.60771 68.28723 L  25.60771 76.82314 L  17.07181 76.82314 Z  " style="fill:none"/> 
 </g> 
 </g> 
 </g> 
 </g> 
 <g> 
 <g stroke="rgb(33.00018%,33.00018%,33.00018%)"> 
 <g fill="rgb(33.00018%,33.00018%,33.00018%)"> 
 <g stroke-width="0.8pt"> 
 <path d=" M  17.07181 76.82314 L  25.60771 76.82314 L  25.60771 85.35904 L  17.07181 85.35904 Z  " style="fill:none"/> 
 </g> 
 </g> 
 </g> 
 </g> 
 <g> 
 <g stroke="rgb(33.00018%,33.00018%,33.00018%)"> 
 <g fill="rgb(33.00018%,33.00018%,33.00018%)"> 
 <g stroke-width="0.8pt"> 
 <path d=" M  25.60771 68.28723 L  34.14362 68.28723 L  34.14362 76.82314 L  25.60771 76.82314 Z  " style="fill:none"/> 
 </g> 
 </g> 
 </g> 
 </g> 
 <g> 
 <g stroke="rgb(33.00018%,33.00018%,33.00018%)"> 
 <g fill="rgb(33.00018%,33.00018%,33.00018%)"> 
 <g stroke-width="0.8pt"> 
 <path d=" M  25.60771 76.82314 L  34.14362 76.82314 L  34.14362 85.35904 L  25.60771 85.35904 Z  " style="fill:none"/> 
 </g> 
 </g> 
 </g> 
 </g> 
 <g> 
 <g stroke="rgb(33.00018%,33.00018%,33.00018%)"> 
 <g fill="rgb(33.00018%,33.00018%,33.00018%)"> 
 <g stroke-width="0.8pt"> 
 <path d=" M  34.14362 68.28723 L  42.67952 68.28723 L  42.67952 76.82314 L  34.14362 76.82314 Z  " style="fill:none"/> 
 </g> 
 </g> 
 </g> 
 </g> 
 <g> 
 <g stroke="rgb(33.00018%,33.00018%,33.00018%)"> 
 <g fill="rgb(33.00018%,33.00018%,33.00018%)"> 
 <g stroke-width="0.8pt"> 
 <path d=" M  34.14362 76.82314 L  42.67952 76.82314 L  42.67952 85.35904 L  34.14362 85.35904 Z  " style="fill:none"/> 
 </g> 
 </g> 
 </g> 
 </g> 
 <g> 
 <g stroke="rgb(33.00018%,33.00018%,33.00018%)"> 
 <g fill="rgb(33.00018%,33.00018%,33.00018%)"> 
 <g stroke-width="0.8pt"> 
 <path d=" M  42.67952 68.28723 L  51.21542 68.28723 L  51.21542 76.82314 L  42.67952 76.82314 Z  " style="fill:none"/> 
 </g> 
 </g> 
 </g> 
 </g> 
 <g> 
 <g stroke="rgb(33.00018%,33.00018%,33.00018%)"> 
 <g fill="rgb(33.00018%,33.00018%,33.00018%)"> 
 <g stroke-width="0.8pt"> 
 <path d=" M  42.67952 76.82314 L  51.21542 76.82314 L  51.21542 85.35904 L  42.67952 85.35904 Z  " style="fill:none"/> 
 </g> 
 </g> 
 </g> 
 </g> 
 <g> 
 <g stroke="rgb(33.00018%,33.00018%,33.00018%)"> 
 <g fill="rgb(33.00018%,33.00018%,33.00018%)"> 
 <g stroke-width="0.8pt"> 
 <path d=" M  51.21542 68.28723 L  59.75133 68.28723 L  59.75133 76.82314 L  51.21542 76.82314 Z  " style="fill:none"/> 
 </g> 
 </g> 
 </g> 
 </g> 
 <g> 
 <g stroke="rgb(33.00018%,33.00018%,33.00018%)"> 
 <g fill="rgb(33.00018%,33.00018%,33.00018%)"> 
 <g stroke-width="0.8pt"> 
 <path d=" M  51.21542 76.82314 L  59.75133 76.82314 L  59.75133 85.35904 L  51.21542 85.35904 Z  " style="fill:none"/> 
 </g> 
 </g> 
 </g> 
 </g> 
 <g> 
 <g stroke="rgb(33.00018%,33.00018%,33.00018%)"> 
 <g fill="rgb(33.00018%,33.00018%,33.00018%)"> 
 <g stroke-width="0.8pt"> 
 <path d=" M  59.75133 68.28723 L  68.28723 68.28723 L  68.28723 76.82314 L  59.75133 76.82314 Z  " style="fill:none"/> 
 </g> 
 </g> 
 </g> 
 </g> 
 <g> 
 <g stroke="rgb(33.00018%,33.00018%,33.00018%)"> 
 <g fill="rgb(33.00018%,33.00018%,33.00018%)"> 
 <g stroke-width="0.8pt"> 
 <path d=" M  59.75133 76.82314 L  68.28723 76.82314 L  68.28723 85.35904 L  59.75133 85.35904 Z  " style="fill:none"/> 
 </g> 
 </g> 
 </g> 
 </g> 
 <g> 
 <g stroke="rgb(33.00018%,33.00018%,33.00018%)"> 
 <g fill="rgb(33.00018%,33.00018%,33.00018%)"> 
 <g stroke-width="0.8pt"> 
 <path d=" M  68.28723 68.28723 L  76.82314 68.28723 L  76.82314 76.82314 L  68.28723 76.82314 Z  " style="fill:none"/> 
 </g> 
 </g> 
 </g> 
 </g> 
 <g> 
 <g stroke="rgb(33.00018%,33.00018%,33.00018%)"> 
 <g fill="rgb(33.00018%,33.00018%,33.00018%)"> 
 <g stroke-width="0.8pt"> 
 <path d=" M  68.28723 76.82314 L  76.82314 76.82314 L  76.82314 85.35904 L  68.28723 85.35904 Z  " style="fill:none"/> 
 </g> 
 </g> 
 </g> 
 </g> 
 <g> 
 <g stroke="rgb(33.00018%,33.00018%,33.00018%)"> 
 <g fill="rgb(33.00018%,33.00018%,33.00018%)"> 
 <g stroke-width="0.8pt"> 
 <path d=" M  76.82314 68.28723 L  85.35904 68.28723 L  85.35904 76.82314 L  76.82314 76.82314 Z  " style="fill:none"/> 
 </g> 
 </g> 
 </g> 
 </g> 
 <g> 
 <g stroke="rgb(33.00018%,33.00018%,33.00018%)"> 
 <g fill="rgb(33.00018%,33.00018%,33.00018%)"> 
 <g stroke-width="0.8pt"> 
 <path d=" M  76.82314 76.82314 L  85.35904 76.82314 L  85.35904 85.35904 L  76.82314 85.35904 Z  " style="fill:none"/> 
 </g> 
 </g> 
 </g> 
 </g> 
 </g> 
 </g> 
 </g> 
 </g> 
 </g> 
                           </g> 
</svg> 
