<?xml version="1.0" encoding="iso-8859-1" standalone="no"?> 
<?xml-stylesheet href="main.css" type="text/css"?> 
<svg xmlns="http://www.w3.org/2000/svg" xmlns:xlink="http://www.w3.org/1999/xlink" width="159.5347pt" height="80.16734pt" viewBox="-0.09999 -0.4 159.5347 80.16734 "> 
<g transform="translate(0, 79.76735 ) scale(1,-1) translate(0,0.4 )"> 
<g> 
 <g stroke="rgb(0.0%,0.0%,0.0%)"> 
 <g fill="rgb(0.0%,0.0%,0.0%)"> 
 <g stroke-width="0.4pt"> 
 <g> 
 <g> 
 <g stroke="rgb(50.0%,50.0%,50.0%)"> 
 <g fill="rgb(50.0%,50.0%,50.0%)"> 
 <g stroke-width="0.2pt"> 
 <path d=" M  0.0 0.0 M  0.0 0.0 L  159.33472 0.0 M  0.0 3.98337 L  159.33472 3.98337 M  0.0 7.96674 L  159.33472 7.96674 M  0.0 11.9501 L  159.33472 11.9501 M  0.0 15.93347 L  159.33472 15.93347 M  0.0 19.91684 L  159.33472 19.91684 M  0.0 23.9002 L  159.33472 23.9002 M  0.0 27.88358 L  159.33472 27.88358 M  0.0 31.86694 L  159.33472 31.86694 M  0.0 35.85031 L  159.33472 35.85031 M  0.0 39.83368 L  159.33472 39.83368 M  0.0 43.81705 L  159.33472 43.81705 M  0.0 47.80042 L  159.33472 47.80042 M  0.0 51.78378 L  159.33472 51.78378 M  0.0 55.76715 L  159.33472 55.76715 M  0.0 59.75052 L  159.33472 59.75052 M  0.0 63.73389 L  159.33472 63.73389 M  0.0 67.71725 L  159.33472 67.71725 M  0.0 71.70062 L  159.33472 71.70062 M  0.0 75.68399 L  159.33472 75.68399 M  0.0 79.65736 L  159.33472 79.65736 M  0.0 0.0 L  0.0 79.66736 M  3.98337 0.0 L  3.98337 79.66736 M  7.96674 0.0 L  7.96674 79.66736 M  11.9501 0.0 L  11.9501 79.66736 M  15.93347 0.0 L  15.93347 79.66736 M  19.91684 0.0 L  19.91684 79.66736 M  23.9002 0.0 L  23.9002 79.66736 M  27.88358 0.0 L  27.88358 79.66736 M  31.86694 0.0 L  31.86694 79.66736 M  35.85031 0.0 L  35.85031 79.66736 M  39.83368 0.0 L  39.83368 79.66736 M  43.81705 0.0 L  43.81705 79.66736 M  47.80042 0.0 L  47.80042 79.66736 M  51.78378 0.0 L  51.78378 79.66736 M  55.76715 0.0 L  55.76715 79.66736 M  59.75052 0.0 L  59.75052 79.66736 M  63.73389 0.0 L  63.73389 79.66736 M  67.71725 0.0 L  67.71725 79.66736 M  71.70062 0.0 L  71.70062 79.66736 M  75.68399 0.0 L  75.68399 79.66736 M  79.66736 0.0 L  79.66736 79.66736 M  83.65073 0.0 L  83.65073 79.66736 M  87.6341 0.0 L  87.6341 79.66736 M  91.61746 0.0 L  91.61746 79.66736 M  95.60083 0.0 L  95.60083 79.66736 M  99.5842 0.0 L  99.5842 79.66736 M  103.56757 0.0 L  103.56757 79.66736 M  107.55093 0.0 L  107.55093 79.66736 M  111.5343 0.0 L  111.5343 79.66736 M  115.51767 0.0 L  115.51767 79.66736 M  119.50104 0.0 L  119.50104 79.66736 M  123.4844 0.0 L  123.4844 79.66736 M  127.46777 0.0 L  127.46777 79.66736 M  131.45114 0.0 L  131.45114 79.66736 M  135.43451 0.0 L  135.43451 79.66736 M  139.41788 0.0 L  139.41788 79.66736 M  143.40125 0.0 L  143.40125 79.66736 M  147.38461 0.0 L  147.38461 79.66736 M  151.36798 0.0 L  151.36798 79.66736 M  155.35135 0.0 L  155.35135 79.66736 M  159.32472 0.0 L  159.32472 79.66736  " style="fill:none"/> 
 </g> 
 </g> 
 </g> 
 </g> 
 <g> 
 <g stroke-width="0.8pt"> 
 <g stroke="rgb(0.0%,58.99963%,0.0%)"> 
 <g fill="rgb(0.0%,58.99963%,0.0%)"> 
 <g stroke-opacity="0.25"> 
 <g fill-opacity="0.25"> 
 <path d=" M  19.91684 0.0 C  19.91684 32.99973 46.66763 59.75052 79.66736 59.75052 C  112.66708 59.75052 139.41788 32.99973 139.41788 0.0  " /> 
 </g> 
 </g> 
 </g> 
 </g> 
 </g> 
 </g> 
 <g> 
 <g stroke-width="0.8pt"> 
 <g stroke="rgb(33.00018%,33.00018%,33.00018%)"> 
 <g fill="rgb(33.00018%,33.00018%,33.00018%)"> 
 <path d=" M  19.91684 0.0 C  19.91684 32.99973 46.66763 59.75052 79.66736 59.75052 C  112.66708 59.75052 139.41788 32.99973 139.41788 0.0  " style="fill:none"/> 
 </g> 
 </g> 
 </g> 
 </g> 
 <g> 
 <g> 
 <g transform="matrix(1.0,0.0,0.0,1.0,43.81705,47.80042)"> 
 <g fill="rgb(0.0%,0.0%,0.0%)"> 
 <text style="stroke:none" transform="scale(1,-1) translate(0.0,0)" text-anchor="middle"  font-size="10"> 
</text> 
</g> 
 </g> 
 </g> 
 </g> 
 <g> 
 <g stroke-width="0.8pt"> 
 <g stroke="rgb(0.0%,0.0%,0.0%)"> 
 <g fill="rgb(0.0%,0.0%,0.0%)"> 
 <path d=" M  43.81705 47.80042 M  44.61375 47.80042 C  44.61375 48.24042 44.25705 48.59712 43.81705 48.59712 C  43.37704 48.59712 43.02034 48.24042 43.02034 47.80042 C  43.02034 47.36041 43.37704 47.00371 43.81705 47.00371 C  44.25705 47.00371 44.61375 47.36041 44.61375 47.80042 Z M  43.81705 47.80042  " /> 
 </g> 
 </g> 
 </g> 
 </g> 
 <g> 
 <g stroke-width="0.8pt"> 
 <g stroke="rgb(100.0%,58.99963%,0.0%)"> 
 <g fill="rgb(100.0%,58.99963%,0.0%)"> 
 <g stroke-opacity="0.25"> 
 <g fill-opacity="0.25"> 
 <path d=" M  43.81705 47.80042 M  67.71725 47.80042 C  67.71725 61.0003 57.01694 71.70062 43.81705 71.70062 C  30.61716 71.70062 19.91684 61.0003 19.91684 47.80042 C  19.91684 34.60052 30.61716 23.9002 43.81705 23.9002 C  57.01694 23.9002 67.71725 34.60052 67.71725 47.80042 Z M  43.81705 47.80042  " /> 
 </g> 
 </g> 
 </g> 
 </g> 
 </g> 
 </g> 
 <g> 
 <g stroke-width="0.8pt"> 
 <g stroke="rgb(100.0%,58.99963%,0.0%)"> 
 <g fill="rgb(100.0%,58.99963%,0.0%)"> 
 <path d=" M  43.81705 47.80042 M  67.71725 47.80042 C  67.71725 61.0003 57.01694 71.70062 43.81705 71.70062 C  30.61716 71.70062 19.91684 61.0003 19.91684 47.80042 C  19.91684 34.60052 30.61716 23.9002 43.81705 23.9002 C  57.01694 23.9002 67.71725 34.60052 67.71725 47.80042 Z M  43.81705 47.80042  " style="fill:none"/> 
 </g> 
 </g> 
 </g> 
 </g> 
 <path d="  " style="fill:none"/> 
 <g> 
 <g> 
 <g transform="matrix(1.0,0.0,0.0,1.0,40.78235,51.33339)"> 
 <g fill="rgb(0.0%,0.0%,0.0%)"> 
 <text style="stroke:none" transform="scale(1,-1) translate(3.0347,0)" text-anchor="middle"  font-size="10"> 
<tspan font-family="cmbx" font-size="10">x</tspan></text> 
</g> 
 </g> 
 </g> 
 </g> 
 <g> 
 <g stroke-width="0.8pt"> 
 <g stroke="rgb(100.0%,58.99963%,0.0%)"> 
 <g fill="rgb(100.0%,58.99963%,0.0%)"> 
 <path d=" M  31.86694 27.88358 M  32.66365 27.88358 C  32.66365 28.32358 32.30695 28.68028 31.86694 28.68028 C  31.42694 28.68028 31.07024 28.32358 31.07024 27.88358 C  31.07024 27.44357 31.42694 27.08687 31.86694 27.08687 C  32.30695 27.08687 32.66365 27.44357 32.66365 27.88358 Z M  31.86694 27.88358  " /> 
 </g> 
 </g> 
 </g> 
 </g> 
 <g> 
 <g stroke-width="0.8pt"> 
 <g stroke="rgb(100.0%,58.99963%,0.0%)"> 
 <g fill="rgb(100.0%,58.99963%,0.0%)"> 
 <path d=" M  35.85031 27.88358 M  36.64702 27.88358 C  36.64702 28.32358 36.29031 28.68028 35.85031 28.68028 C  35.41031 28.68028 35.0536 28.32358 35.0536 27.88358 C  35.0536 27.44357 35.41031 27.08687 35.85031 27.08687 C  36.29031 27.08687 36.64702 27.44357 36.64702 27.88358 Z M  35.85031 27.88358  " /> 
 </g> 
 </g> 
 </g> 
 </g> 
 <g> 
 <g stroke-width="0.8pt"> 
 <g stroke="rgb(100.0%,58.99963%,0.0%)"> 
 <g fill="rgb(100.0%,58.99963%,0.0%)"> 
 <path d=" M  39.83368 27.88358 M  40.63039 27.88358 C  40.63039 28.32358 40.27368 28.68028 39.83368 28.68028 C  39.39368 28.68028 39.03697 28.32358 39.03697 27.88358 C  39.03697 27.44357 39.39368 27.08687 39.83368 27.08687 C  40.27368 27.08687 40.63039 27.44357 40.63039 27.88358 Z M  39.83368 27.88358  " /> 
 </g> 
 </g> 
 </g> 
 </g> 
 <g> 
 <g stroke-width="0.8pt"> 
 <g stroke="rgb(100.0%,58.99963%,0.0%)"> 
 <g fill="rgb(100.0%,58.99963%,0.0%)"> 
 <path d=" M  43.81705 27.88358 M  44.61375 27.88358 C  44.61375 28.32358 44.25705 28.68028 43.81705 28.68028 C  43.37704 28.68028 43.02034 28.32358 43.02034 27.88358 C  43.02034 27.44357 43.37704 27.08687 43.81705 27.08687 C  44.25705 27.08687 44.61375 27.44357 44.61375 27.88358 Z M  43.81705 27.88358  " /> 
 </g> 
 </g> 
 </g> 
 </g> 
 <g> 
 <g stroke-width="0.8pt"> 
 <g stroke="rgb(100.0%,58.99963%,0.0%)"> 
 <g fill="rgb(100.0%,58.99963%,0.0%)"> 
 <path d=" M  47.80042 27.88358 M  48.59712 27.88358 C  48.59712 28.32358 48.24042 28.68028 47.80042 28.68028 C  47.36041 28.68028 47.00371 28.32358 47.00371 27.88358 C  47.00371 27.44357 47.36041 27.08687 47.80042 27.08687 C  48.24042 27.08687 48.59712 27.44357 48.59712 27.88358 Z M  47.80042 27.88358  " /> 
 </g> 
 </g> 
 </g> 
 </g> 
 <g> 
 <g stroke-width="0.8pt"> 
 <g stroke="rgb(100.0%,58.99963%,0.0%)"> 
 <g fill="rgb(100.0%,58.99963%,0.0%)"> 
 <path d=" M  51.78378 27.88358 M  52.58049 27.88358 C  52.58049 28.32358 52.22379 28.68028 51.78378 28.68028 C  51.34378 28.68028 50.98708 28.32358 50.98708 27.88358 C  50.98708 27.44357 51.34378 27.08687 51.78378 27.08687 C  52.22379 27.08687 52.58049 27.44357 52.58049 27.88358 Z M  51.78378 27.88358  " /> 
 </g> 
 </g> 
 </g> 
 </g> 
 <g> 
 <g stroke-width="0.8pt"> 
 <g stroke="rgb(100.0%,58.99963%,0.0%)"> 
 <g fill="rgb(100.0%,58.99963%,0.0%)"> 
 <path d=" M  55.76715 27.88358 M  56.56386 27.88358 C  56.56386 28.32358 56.20715 28.68028 55.76715 28.68028 C  55.32715 28.68028 54.97044 28.32358 54.97044 27.88358 C  54.97044 27.44357 55.32715 27.08687 55.76715 27.08687 C  56.20715 27.08687 56.56386 27.44357 56.56386 27.88358 Z M  55.76715 27.88358  " /> 
 </g> 
 </g> 
 </g> 
 </g> 
 <g> 
 <g stroke-width="0.8pt"> 
 <g stroke="rgb(100.0%,58.99963%,0.0%)"> 
 <g fill="rgb(100.0%,58.99963%,0.0%)"> 
 <path d=" M  31.86694 31.86694 M  32.66365 31.86694 C  32.66365 32.30695 32.30695 32.66365 31.86694 32.66365 C  31.42694 32.66365 31.07024 32.30695 31.07024 31.86694 C  31.07024 31.42694 31.42694 31.07024 31.86694 31.07024 C  32.30695 31.07024 32.66365 31.42694 32.66365 31.86694 Z M  31.86694 31.86694  " /> 
 </g> 
 </g> 
 </g> 
 </g> 
 <g> 
 <g stroke-width="0.8pt"> 
 <g stroke="rgb(100.0%,58.99963%,0.0%)"> 
 <g fill="rgb(100.0%,58.99963%,0.0%)"> 
 <path d=" M  35.85031 31.86694 M  36.64702 31.86694 C  36.64702 32.30695 36.29031 32.66365 35.85031 32.66365 C  35.41031 32.66365 35.0536 32.30695 35.0536 31.86694 C  35.0536 31.42694 35.41031 31.07024 35.85031 31.07024 C  36.29031 31.07024 36.64702 31.42694 36.64702 31.86694 Z M  35.85031 31.86694  " /> 
 </g> 
 </g> 
 </g> 
 </g> 
 <g> 
 <g stroke-width="0.8pt"> 
 <g stroke="rgb(100.0%,58.99963%,0.0%)"> 
 <g fill="rgb(100.0%,58.99963%,0.0%)"> 
 <path d=" M  39.83368 31.86694 M  40.63039 31.86694 C  40.63039 32.30695 40.27368 32.66365 39.83368 32.66365 C  39.39368 32.66365 39.03697 32.30695 39.03697 31.86694 C  39.03697 31.42694 39.39368 31.07024 39.83368 31.07024 C  40.27368 31.07024 40.63039 31.42694 40.63039 31.86694 Z M  39.83368 31.86694  " /> 
 </g> 
 </g> 
 </g> 
 </g> 
 <g> 
 <g stroke-width="0.8pt"> 
 <g stroke="rgb(100.0%,58.99963%,0.0%)"> 
 <g fill="rgb(100.0%,58.99963%,0.0%)"> 
 <path d=" M  43.81705 31.86694 M  44.61375 31.86694 C  44.61375 32.30695 44.25705 32.66365 43.81705 32.66365 C  43.37704 32.66365 43.02034 32.30695 43.02034 31.86694 C  43.02034 31.42694 43.37704 31.07024 43.81705 31.07024 C  44.25705 31.07024 44.61375 31.42694 44.61375 31.86694 Z M  43.81705 31.86694  " /> 
 </g> 
 </g> 
 </g> 
 </g> 
 <g> 
 <g stroke-width="0.8pt"> 
 <g stroke="rgb(100.0%,58.99963%,0.0%)"> 
 <g fill="rgb(100.0%,58.99963%,0.0%)"> 
 <path d=" M  47.80042 31.86694 M  48.59712 31.86694 C  48.59712 32.30695 48.24042 32.66365 47.80042 32.66365 C  47.36041 32.66365 47.00371 32.30695 47.00371 31.86694 C  47.00371 31.42694 47.36041 31.07024 47.80042 31.07024 C  48.24042 31.07024 48.59712 31.42694 48.59712 31.86694 Z M  47.80042 31.86694  " /> 
 </g> 
 </g> 
 </g> 
 </g> 
 <g> 
 <g stroke-width="0.8pt"> 
 <g stroke="rgb(100.0%,58.99963%,0.0%)"> 
 <g fill="rgb(100.0%,58.99963%,0.0%)"> 
 <path d=" M  51.78378 31.86694 M  52.58049 31.86694 C  52.58049 32.30695 52.22379 32.66365 51.78378 32.66365 C  51.34378 32.66365 50.98708 32.30695 50.98708 31.86694 C  50.98708 31.42694 51.34378 31.07024 51.78378 31.07024 C  52.22379 31.07024 52.58049 31.42694 52.58049 31.86694 Z M  51.78378 31.86694  " /> 
 </g> 
 </g> 
 </g> 
 </g> 
 <g> 
 <g stroke-width="0.8pt"> 
 <g stroke="rgb(100.0%,58.99963%,0.0%)"> 
 <g fill="rgb(100.0%,58.99963%,0.0%)"> 
 <path d=" M  55.76715 31.86694 M  56.56386 31.86694 C  56.56386 32.30695 56.20715 32.66365 55.76715 32.66365 C  55.32715 32.66365 54.97044 32.30695 54.97044 31.86694 C  54.97044 31.42694 55.32715 31.07024 55.76715 31.07024 C  56.20715 31.07024 56.56386 31.42694 56.56386 31.86694 Z M  55.76715 31.86694  " /> 
 </g> 
 </g> 
 </g> 
 </g> 
 <g> 
 <g stroke-width="0.8pt"> 
 <g stroke="rgb(100.0%,58.99963%,0.0%)"> 
 <g fill="rgb(100.0%,58.99963%,0.0%)"> 
 <path d=" M  59.75052 31.86694 M  60.54723 31.86694 C  60.54723 32.30695 60.19052 32.66365 59.75052 32.66365 C  59.31052 32.66365 58.95381 32.30695 58.95381 31.86694 C  58.95381 31.42694 59.31052 31.07024 59.75052 31.07024 C  60.19052 31.07024 60.54723 31.42694 60.54723 31.86694 Z M  59.75052 31.86694  " /> 
 </g> 
 </g> 
 </g> 
 </g> 
 <g> 
 <g stroke-width="0.8pt"> 
 <g stroke="rgb(100.0%,58.99963%,0.0%)"> 
 <g fill="rgb(100.0%,58.99963%,0.0%)"> 
 <path d=" M  35.85031 35.85031 M  36.64702 35.85031 C  36.64702 36.29031 36.29031 36.64702 35.85031 36.64702 C  35.41031 36.64702 35.0536 36.29031 35.0536 35.85031 C  35.0536 35.41031 35.41031 35.0536 35.85031 35.0536 C  36.29031 35.0536 36.64702 35.41031 36.64702 35.85031 Z M  35.85031 35.85031  " /> 
 </g> 
 </g> 
 </g> 
 </g> 
 <g> 
 <g stroke-width="0.8pt"> 
 <g stroke="rgb(100.0%,58.99963%,0.0%)"> 
 <g fill="rgb(100.0%,58.99963%,0.0%)"> 
 <path d=" M  39.83368 35.85031 M  40.63039 35.85031 C  40.63039 36.29031 40.27368 36.64702 39.83368 36.64702 C  39.39368 36.64702 39.03697 36.29031 39.03697 35.85031 C  39.03697 35.41031 39.39368 35.0536 39.83368 35.0536 C  40.27368 35.0536 40.63039 35.41031 40.63039 35.85031 Z M  39.83368 35.85031  " /> 
 </g> 
 </g> 
 </g> 
 </g> 
 <g> 
 <g stroke-width="0.8pt"> 
 <g stroke="rgb(100.0%,58.99963%,0.0%)"> 
 <g fill="rgb(100.0%,58.99963%,0.0%)"> 
 <path d=" M  43.81705 35.85031 M  44.61375 35.85031 C  44.61375 36.29031 44.25705 36.64702 43.81705 36.64702 C  43.37704 36.64702 43.02034 36.29031 43.02034 35.85031 C  43.02034 35.41031 43.37704 35.0536 43.81705 35.0536 C  44.25705 35.0536 44.61375 35.41031 44.61375 35.85031 Z M  43.81705 35.85031  " /> 
 </g> 
 </g> 
 </g> 
 </g> 
 <g> 
 <g stroke-width="0.8pt"> 
 <g stroke="rgb(100.0%,58.99963%,0.0%)"> 
 <g fill="rgb(100.0%,58.99963%,0.0%)"> 
 <path d=" M  47.80042 35.85031 M  48.59712 35.85031 C  48.59712 36.29031 48.24042 36.64702 47.80042 36.64702 C  47.36041 36.64702 47.00371 36.29031 47.00371 35.85031 C  47.00371 35.41031 47.36041 35.0536 47.80042 35.0536 C  48.24042 35.0536 48.59712 35.41031 48.59712 35.85031 Z M  47.80042 35.85031  " /> 
 </g> 
 </g> 
 </g> 
 </g> 
 <g> 
 <g stroke-width="0.8pt"> 
 <g stroke="rgb(100.0%,58.99963%,0.0%)"> 
 <g fill="rgb(100.0%,58.99963%,0.0%)"> 
 <path d=" M  51.78378 35.85031 M  52.58049 35.85031 C  52.58049 36.29031 52.22379 36.64702 51.78378 36.64702 C  51.34378 36.64702 50.98708 36.29031 50.98708 35.85031 C  50.98708 35.41031 51.34378 35.0536 51.78378 35.0536 C  52.22379 35.0536 52.58049 35.41031 52.58049 35.85031 Z M  51.78378 35.85031  " /> 
 </g> 
 </g> 
 </g> 
 </g> 
 <g> 
 <g stroke-width="0.8pt"> 
 <g stroke="rgb(100.0%,58.99963%,0.0%)"> 
 <g fill="rgb(100.0%,58.99963%,0.0%)"> 
 <path d=" M  55.76715 35.85031 M  56.56386 35.85031 C  56.56386 36.29031 56.20715 36.64702 55.76715 36.64702 C  55.32715 36.64702 54.97044 36.29031 54.97044 35.85031 C  54.97044 35.41031 55.32715 35.0536 55.76715 35.0536 C  56.20715 35.0536 56.56386 35.41031 56.56386 35.85031 Z M  55.76715 35.85031  " /> 
 </g> 
 </g> 
 </g> 
 </g> 
 <g> 
 <g stroke-width="0.8pt"> 
 <g stroke="rgb(100.0%,58.99963%,0.0%)"> 
 <g fill="rgb(100.0%,58.99963%,0.0%)"> 
 <path d=" M  59.75052 35.85031 M  60.54723 35.85031 C  60.54723 36.29031 60.19052 36.64702 59.75052 36.64702 C  59.31052 36.64702 58.95381 36.29031 58.95381 35.85031 C  58.95381 35.41031 59.31052 35.0536 59.75052 35.0536 C  60.19052 35.0536 60.54723 35.41031 60.54723 35.85031 Z M  59.75052 35.85031  " /> 
 </g> 
 </g> 
 </g> 
 </g> 
 <g> 
 <g stroke-width="0.8pt"> 
 <g stroke="rgb(100.0%,58.99963%,0.0%)"> 
 <g fill="rgb(100.0%,58.99963%,0.0%)"> 
 <path d=" M  63.73389 35.85031 M  64.5306 35.85031 C  64.5306 36.29031 64.17389 36.64702 63.73389 36.64702 C  63.29388 36.64702 62.93718 36.29031 62.93718 35.85031 C  62.93718 35.41031 63.29388 35.0536 63.73389 35.0536 C  64.17389 35.0536 64.5306 35.41031 64.5306 35.85031 Z M  63.73389 35.85031  " /> 
 </g> 
 </g> 
 </g> 
 </g> 
 <g> 
 <g stroke-width="0.8pt"> 
 <g stroke="rgb(100.0%,58.99963%,0.0%)"> 
 <g fill="rgb(100.0%,58.99963%,0.0%)"> 
 <path d=" M  35.85031 39.83368 M  36.64702 39.83368 C  36.64702 40.27368 36.29031 40.63039 35.85031 40.63039 C  35.41031 40.63039 35.0536 40.27368 35.0536 39.83368 C  35.0536 39.39368 35.41031 39.03697 35.85031 39.03697 C  36.29031 39.03697 36.64702 39.39368 36.64702 39.83368 Z M  35.85031 39.83368  " /> 
 </g> 
 </g> 
 </g> 
 </g> 
 <g> 
 <g stroke-width="0.8pt"> 
 <g stroke="rgb(100.0%,58.99963%,0.0%)"> 
 <g fill="rgb(100.0%,58.99963%,0.0%)"> 
 <path d=" M  39.83368 39.83368 M  40.63039 39.83368 C  40.63039 40.27368 40.27368 40.63039 39.83368 40.63039 C  39.39368 40.63039 39.03697 40.27368 39.03697 39.83368 C  39.03697 39.39368 39.39368 39.03697 39.83368 39.03697 C  40.27368 39.03697 40.63039 39.39368 40.63039 39.83368 Z M  39.83368 39.83368  " /> 
 </g> 
 </g> 
 </g> 
 </g> 
 <g> 
 <g stroke-width="0.8pt"> 
 <g stroke="rgb(100.0%,58.99963%,0.0%)"> 
 <g fill="rgb(100.0%,58.99963%,0.0%)"> 
 <path d=" M  43.81705 39.83368 M  44.61375 39.83368 C  44.61375 40.27368 44.25705 40.63039 43.81705 40.63039 C  43.37704 40.63039 43.02034 40.27368 43.02034 39.83368 C  43.02034 39.39368 43.37704 39.03697 43.81705 39.03697 C  44.25705 39.03697 44.61375 39.39368 44.61375 39.83368 Z M  43.81705 39.83368  " /> 
 </g> 
 </g> 
 </g> 
 </g> 
 <g> 
 <g stroke-width="0.8pt"> 
 <g stroke="rgb(100.0%,58.99963%,0.0%)"> 
 <g fill="rgb(100.0%,58.99963%,0.0%)"> 
 <path d=" M  47.80042 39.83368 M  48.59712 39.83368 C  48.59712 40.27368 48.24042 40.63039 47.80042 40.63039 C  47.36041 40.63039 47.00371 40.27368 47.00371 39.83368 C  47.00371 39.39368 47.36041 39.03697 47.80042 39.03697 C  48.24042 39.03697 48.59712 39.39368 48.59712 39.83368 Z M  47.80042 39.83368  " /> 
 </g> 
 </g> 
 </g> 
 </g> 
 <g> 
 <g stroke-width="0.8pt"> 
 <g stroke="rgb(100.0%,58.99963%,0.0%)"> 
 <g fill="rgb(100.0%,58.99963%,0.0%)"> 
 <path d=" M  51.78378 39.83368 M  52.58049 39.83368 C  52.58049 40.27368 52.22379 40.63039 51.78378 40.63039 C  51.34378 40.63039 50.98708 40.27368 50.98708 39.83368 C  50.98708 39.39368 51.34378 39.03697 51.78378 39.03697 C  52.22379 39.03697 52.58049 39.39368 52.58049 39.83368 Z M  51.78378 39.83368  " /> 
 </g> 
 </g> 
 </g> 
 </g> 
 <g> 
 <g stroke-width="0.8pt"> 
 <g stroke="rgb(100.0%,58.99963%,0.0%)"> 
 <g fill="rgb(100.0%,58.99963%,0.0%)"> 
 <path d=" M  55.76715 39.83368 M  56.56386 39.83368 C  56.56386 40.27368 56.20715 40.63039 55.76715 40.63039 C  55.32715 40.63039 54.97044 40.27368 54.97044 39.83368 C  54.97044 39.39368 55.32715 39.03697 55.76715 39.03697 C  56.20715 39.03697 56.56386 39.39368 56.56386 39.83368 Z M  55.76715 39.83368  " /> 
 </g> 
 </g> 
 </g> 
 </g> 
 <g> 
 <g stroke-width="0.8pt"> 
 <g stroke="rgb(100.0%,58.99963%,0.0%)"> 
 <g fill="rgb(100.0%,58.99963%,0.0%)"> 
 <path d=" M  59.75052 39.83368 M  60.54723 39.83368 C  60.54723 40.27368 60.19052 40.63039 59.75052 40.63039 C  59.31052 40.63039 58.95381 40.27368 58.95381 39.83368 C  58.95381 39.39368 59.31052 39.03697 59.75052 39.03697 C  60.19052 39.03697 60.54723 39.39368 60.54723 39.83368 Z M  59.75052 39.83368  " /> 
 </g> 
 </g> 
 </g> 
 </g> 
 <g> 
 <g stroke-width="0.8pt"> 
 <g stroke="rgb(100.0%,58.99963%,0.0%)"> 
 <g fill="rgb(100.0%,58.99963%,0.0%)"> 
 <path d=" M  63.73389 39.83368 M  64.5306 39.83368 C  64.5306 40.27368 64.17389 40.63039 63.73389 40.63039 C  63.29388 40.63039 62.93718 40.27368 62.93718 39.83368 C  62.93718 39.39368 63.29388 39.03697 63.73389 39.03697 C  64.17389 39.03697 64.5306 39.39368 64.5306 39.83368 Z M  63.73389 39.83368  " /> 
 </g> 
 </g> 
 </g> 
 </g> 
 <g> 
 <g stroke-width="0.8pt"> 
 <g stroke="rgb(100.0%,58.99963%,0.0%)"> 
 <g fill="rgb(100.0%,58.99963%,0.0%)"> 
 <path d=" M  39.83368 43.81705 M  40.63039 43.81705 C  40.63039 44.25705 40.27368 44.61375 39.83368 44.61375 C  39.39368 44.61375 39.03697 44.25705 39.03697 43.81705 C  39.03697 43.37704 39.39368 43.02034 39.83368 43.02034 C  40.27368 43.02034 40.63039 43.37704 40.63039 43.81705 Z M  39.83368 43.81705  " /> 
 </g> 
 </g> 
 </g> 
 </g> 
 <g> 
 <g stroke-width="0.8pt"> 
 <g stroke="rgb(100.0%,58.99963%,0.0%)"> 
 <g fill="rgb(100.0%,58.99963%,0.0%)"> 
 <path d=" M  43.81705 43.81705 M  44.61375 43.81705 C  44.61375 44.25705 44.25705 44.61375 43.81705 44.61375 C  43.37704 44.61375 43.02034 44.25705 43.02034 43.81705 C  43.02034 43.37704 43.37704 43.02034 43.81705 43.02034 C  44.25705 43.02034 44.61375 43.37704 44.61375 43.81705 Z M  43.81705 43.81705  " /> 
 </g> 
 </g> 
 </g> 
 </g> 
 <g> 
 <g stroke-width="0.8pt"> 
 <g stroke="rgb(100.0%,58.99963%,0.0%)"> 
 <g fill="rgb(100.0%,58.99963%,0.0%)"> 
 <path d=" M  47.80042 43.81705 M  48.59712 43.81705 C  48.59712 44.25705 48.24042 44.61375 47.80042 44.61375 C  47.36041 44.61375 47.00371 44.25705 47.00371 43.81705 C  47.00371 43.37704 47.36041 43.02034 47.80042 43.02034 C  48.24042 43.02034 48.59712 43.37704 48.59712 43.81705 Z M  47.80042 43.81705  " /> 
 </g> 
 </g> 
 </g> 
 </g> 
 <g> 
 <g stroke-width="0.8pt"> 
 <g stroke="rgb(100.0%,58.99963%,0.0%)"> 
 <g fill="rgb(100.0%,58.99963%,0.0%)"> 
 <path d=" M  51.78378 43.81705 M  52.58049 43.81705 C  52.58049 44.25705 52.22379 44.61375 51.78378 44.61375 C  51.34378 44.61375 50.98708 44.25705 50.98708 43.81705 C  50.98708 43.37704 51.34378 43.02034 51.78378 43.02034 C  52.22379 43.02034 52.58049 43.37704 52.58049 43.81705 Z M  51.78378 43.81705  " /> 
 </g> 
 </g> 
 </g> 
 </g> 
 <g> 
 <g stroke-width="0.8pt"> 
 <g stroke="rgb(100.0%,58.99963%,0.0%)"> 
 <g fill="rgb(100.0%,58.99963%,0.0%)"> 
 <path d=" M  55.76715 43.81705 M  56.56386 43.81705 C  56.56386 44.25705 56.20715 44.61375 55.76715 44.61375 C  55.32715 44.61375 54.97044 44.25705 54.97044 43.81705 C  54.97044 43.37704 55.32715 43.02034 55.76715 43.02034 C  56.20715 43.02034 56.56386 43.37704 56.56386 43.81705 Z M  55.76715 43.81705  " /> 
 </g> 
 </g> 
 </g> 
 </g> 
 <g> 
 <g stroke-width="0.8pt"> 
 <g stroke="rgb(100.0%,58.99963%,0.0%)"> 
 <g fill="rgb(100.0%,58.99963%,0.0%)"> 
 <path d=" M  59.75052 43.81705 M  60.54723 43.81705 C  60.54723 44.25705 60.19052 44.61375 59.75052 44.61375 C  59.31052 44.61375 58.95381 44.25705 58.95381 43.81705 C  58.95381 43.37704 59.31052 43.02034 59.75052 43.02034 C  60.19052 43.02034 60.54723 43.37704 60.54723 43.81705 Z M  59.75052 43.81705  " /> 
 </g> 
 </g> 
 </g> 
 </g> 
 <g> 
 <g stroke-width="0.8pt"> 
 <g stroke="rgb(100.0%,58.99963%,0.0%)"> 
 <g fill="rgb(100.0%,58.99963%,0.0%)"> 
 <path d=" M  63.73389 43.81705 M  64.5306 43.81705 C  64.5306 44.25705 64.17389 44.61375 63.73389 44.61375 C  63.29388 44.61375 62.93718 44.25705 62.93718 43.81705 C  62.93718 43.37704 63.29388 43.02034 63.73389 43.02034 C  64.17389 43.02034 64.5306 43.37704 64.5306 43.81705 Z M  63.73389 43.81705  " /> 
 </g> 
 </g> 
 </g> 
 </g> 
 <g> 
 <g stroke-width="0.8pt"> 
 <g stroke="rgb(100.0%,58.99963%,0.0%)"> 
 <g fill="rgb(100.0%,58.99963%,0.0%)"> 
 <path d=" M  47.80042 47.80042 M  48.59712 47.80042 C  48.59712 48.24042 48.24042 48.59712 47.80042 48.59712 C  47.36041 48.59712 47.00371 48.24042 47.00371 47.80042 C  47.00371 47.36041 47.36041 47.00371 47.80042 47.00371 C  48.24042 47.00371 48.59712 47.36041 48.59712 47.80042 Z M  47.80042 47.80042  " /> 
 </g> 
 </g> 
 </g> 
 </g> 
 <g> 
 <g stroke-width="0.8pt"> 
 <g stroke="rgb(100.0%,58.99963%,0.0%)"> 
 <g fill="rgb(100.0%,58.99963%,0.0%)"> 
 <path d=" M  51.78378 47.80042 M  52.58049 47.80042 C  52.58049 48.24042 52.22379 48.59712 51.78378 48.59712 C  51.34378 48.59712 50.98708 48.24042 50.98708 47.80042 C  50.98708 47.36041 51.34378 47.00371 51.78378 47.00371 C  52.22379 47.00371 52.58049 47.36041 52.58049 47.80042 Z M  51.78378 47.80042  " /> 
 </g> 
 </g> 
 </g> 
 </g> 
 <g> 
 <g stroke-width="0.8pt"> 
 <g stroke="rgb(100.0%,58.99963%,0.0%)"> 
 <g fill="rgb(100.0%,58.99963%,0.0%)"> 
 <path d=" M  55.76715 47.80042 M  56.56386 47.80042 C  56.56386 48.24042 56.20715 48.59712 55.76715 48.59712 C  55.32715 48.59712 54.97044 48.24042 54.97044 47.80042 C  54.97044 47.36041 55.32715 47.00371 55.76715 47.00371 C  56.20715 47.00371 56.56386 47.36041 56.56386 47.80042 Z M  55.76715 47.80042  " /> 
 </g> 
 </g> 
 </g> 
 </g> 
 <g> 
 <g stroke-width="0.8pt"> 
 <g stroke="rgb(100.0%,58.99963%,0.0%)"> 
 <g fill="rgb(100.0%,58.99963%,0.0%)"> 
 <path d=" M  59.75052 47.80042 M  60.54723 47.80042 C  60.54723 48.24042 60.19052 48.59712 59.75052 48.59712 C  59.31052 48.59712 58.95381 48.24042 58.95381 47.80042 C  58.95381 47.36041 59.31052 47.00371 59.75052 47.00371 C  60.19052 47.00371 60.54723 47.36041 60.54723 47.80042 Z M  59.75052 47.80042  " /> 
 </g> 
 </g> 
 </g> 
 </g> 
 <g> 
 <g stroke-width="0.8pt"> 
 <g stroke="rgb(100.0%,58.99963%,0.0%)"> 
 <g fill="rgb(100.0%,58.99963%,0.0%)"> 
 <path d=" M  63.73389 47.80042 M  64.5306 47.80042 C  64.5306 48.24042 64.17389 48.59712 63.73389 48.59712 C  63.29388 48.59712 62.93718 48.24042 62.93718 47.80042 C  62.93718 47.36041 63.29388 47.00371 63.73389 47.00371 C  64.17389 47.00371 64.5306 47.36041 64.5306 47.80042 Z M  63.73389 47.80042  " /> 
 </g> 
 </g> 
 </g> 
 </g> 
 <g> 
 <g stroke-width="0.8pt"> 
 <g stroke="rgb(100.0%,58.99963%,0.0%)"> 
 <g fill="rgb(100.0%,58.99963%,0.0%)"> 
 <path d=" M  51.78378 51.78378 M  52.58049 51.78378 C  52.58049 52.22379 52.22379 52.58049 51.78378 52.58049 C  51.34378 52.58049 50.98708 52.22379 50.98708 51.78378 C  50.98708 51.34378 51.34378 50.98708 51.78378 50.98708 C  52.22379 50.98708 52.58049 51.34378 52.58049 51.78378 Z M  51.78378 51.78378  " /> 
 </g> 
 </g> 
 </g> 
 </g> 
 <g> 
 <g stroke-width="0.8pt"> 
 <g stroke="rgb(100.0%,58.99963%,0.0%)"> 
 <g fill="rgb(100.0%,58.99963%,0.0%)"> 
 <path d=" M  55.76715 51.78378 M  56.56386 51.78378 C  56.56386 52.22379 56.20715 52.58049 55.76715 52.58049 C  55.32715 52.58049 54.97044 52.22379 54.97044 51.78378 C  54.97044 51.34378 55.32715 50.98708 55.76715 50.98708 C  56.20715 50.98708 56.56386 51.34378 56.56386 51.78378 Z M  55.76715 51.78378  " /> 
 </g> 
 </g> 
 </g> 
 </g> 
 <g> 
 <g stroke-width="0.8pt"> 
 <g stroke="rgb(100.0%,58.99963%,0.0%)"> 
 <g fill="rgb(100.0%,58.99963%,0.0%)"> 
 <path d=" M  59.75052 51.78378 M  60.54723 51.78378 C  60.54723 52.22379 60.19052 52.58049 59.75052 52.58049 C  59.31052 52.58049 58.95381 52.22379 58.95381 51.78378 C  58.95381 51.34378 59.31052 50.98708 59.75052 50.98708 C  60.19052 50.98708 60.54723 51.34378 60.54723 51.78378 Z M  59.75052 51.78378  " /> 
 </g> 
 </g> 
 </g> 
 </g> 
 <g> 
 <g stroke-width="0.8pt"> 
 <g stroke="rgb(100.0%,58.99963%,0.0%)"> 
 <g fill="rgb(100.0%,58.99963%,0.0%)"> 
 <path d=" M  63.73389 51.78378 M  64.5306 51.78378 C  64.5306 52.22379 64.17389 52.58049 63.73389 52.58049 C  63.29388 52.58049 62.93718 52.22379 62.93718 51.78378 C  62.93718 51.34378 63.29388 50.98708 63.73389 50.98708 C  64.17389 50.98708 64.5306 51.34378 64.5306 51.78378 Z M  63.73389 51.78378  " /> 
 </g> 
 </g> 
 </g> 
 </g> 
 <g> 
 <g stroke-width="0.8pt"> 
 <g stroke="rgb(100.0%,58.99963%,0.0%)"> 
 <g fill="rgb(100.0%,58.99963%,0.0%)"> 
 <path d=" M  59.75052 55.76715 M  60.54723 55.76715 C  60.54723 56.20715 60.19052 56.56386 59.75052 56.56386 C  59.31052 56.56386 58.95381 56.20715 58.95381 55.76715 C  58.95381 55.32715 59.31052 54.97044 59.75052 54.97044 C  60.19052 54.97044 60.54723 55.32715 60.54723 55.76715 Z M  59.75052 55.76715  " /> 
 </g> 
 </g> 
 </g> 
 </g> 
 <g> 
 <g stroke-width="0.8pt"> 
 <g stroke="rgb(100.0%,58.99963%,0.0%)"> 
 <g fill="rgb(100.0%,58.99963%,0.0%)"> 
 <path d=" M  63.73389 55.76715 M  64.5306 55.76715 C  64.5306 56.20715 64.17389 56.56386 63.73389 56.56386 C  63.29388 56.56386 62.93718 56.20715 62.93718 55.76715 C  62.93718 55.32715 63.29388 54.97044 63.73389 54.97044 C  64.17389 54.97044 64.5306 55.32715 64.5306 55.76715 Z M  63.73389 55.76715  " /> 
 </g> 
 </g> 
 </g> 
 </g> 
 </g> 
 </g> 
 </g> 
 </g> 
 </g> 
                                         </g> 
</svg> 
