<?xml version="1.0" encoding="iso-8859-1" standalone="no"?> 
<?xml-stylesheet href="main.css" type="text/css"?> 
<svg xmlns="http://www.w3.org/2000/svg" xmlns:xlink="http://www.w3.org/1999/xlink" width="143.06363pt" height="114.6109pt" viewBox="-0.4 -0.4 143.06363 114.6109 "> 
<g transform="translate(0, 114.2109 ) scale(1,-1) translate(0,0.4 )"> 
<g> 
 <g stroke="rgb(0.0%,0.0%,0.0%)"> 
 <g fill="rgb(0.0%,0.0%,0.0%)"> 
 <g stroke-width="0.4pt"> 
 <g> 
 <g> 
 <g> 
 <g transform="matrix(1.0,0.0,0.0,1.0,71.13182,71.13182)"> 
 <g fill="rgb(0.0%,0.0%,0.0%)"> 
 <text style="stroke:none" transform="scale(1,-1) translate(0.0,0)" text-anchor="middle"  font-size="10"> 
</text> 
</g> 
 </g> 
 </g> 
 </g> 
 <g> 
 <g stroke-width="0.8pt"> 
 <g stroke="rgb(0.0%,58.99963%,0.0%)"> 
 <g fill="rgb(0.0%,58.99963%,0.0%)"> 
 <g stroke-opacity="0.25"> 
 <g fill-opacity="0.25"> 
 <path d=" M  0.0 0.0 L  71.13182 71.13182 L  142.26364 0.0  " /> 
 </g> 
 </g> 
 </g> 
 </g> 
 </g> 
 </g> 
 <g> 
 <g stroke-width="0.8pt"> 
 <g stroke="rgb(33.00018%,33.00018%,33.00018%)"> 
 <g fill="rgb(33.00018%,33.00018%,33.00018%)"> 
 <path d=" M  0.0 0.0 L  71.13182 71.13182 L  142.26364 0.0  " style="fill:none"/> 
 </g> 
 </g> 
 </g> 
 </g> 
 <g> 
 <g stroke-width="0.8pt"> 
 <g stroke="rgb(100.0%,58.99963%,0.0%)"> 
 <g fill="rgb(100.0%,58.99963%,0.0%)"> 
 <g stroke-opacity="0.25"> 
 <g fill-opacity="0.25"> 
 <path d=" M  71.13182 71.13182 M  113.81091 71.13182 C  113.81091 94.70313 94.70313 113.81091 71.13182 113.81091 C  47.56052 113.81091 28.45273 94.70313 28.45273 71.13182 C  28.45273 47.56052 47.56052 28.45273 71.13182 28.45273 C  94.70313 28.45273 113.81091 47.56052 113.81091 71.13182 Z M  71.13182 71.13182  " /> 
 </g> 
 </g> 
 </g> 
 </g> 
 </g> 
 </g> 
 <g> 
 <g stroke-width="0.8pt"> 
 <g stroke="rgb(100.0%,58.99963%,0.0%)"> 
 <g fill="rgb(100.0%,58.99963%,0.0%)"> 
 <path d=" M  71.13182 71.13182 M  113.81091 71.13182 C  113.81091 94.70313 94.70313 113.81091 71.13182 113.81091 C  47.56052 113.81091 28.45273 94.70313 28.45273 71.13182 C  28.45273 47.56052 47.56052 28.45273 71.13182 28.45273 C  94.70313 28.45273 113.81091 47.56052 113.81091 71.13182 Z M  71.13182 71.13182  " style="fill:none"/> 
 </g> 
 </g> 
 </g> 
 </g> 
 <g> 
 <g stroke-width="0.8pt"> 
 <g stroke="rgb(100.0%,58.99963%,0.0%)"> 
 <g fill="rgb(100.0%,58.99963%,0.0%)"> 
 <g stroke-opacity="0.25"> 
 <g fill-opacity="0.25"> 
 <path d=" M  71.13182 71.13182 M  99.58455 71.13182 C  99.58455 86.84602 86.84602 99.58455 71.13182 99.58455 C  55.41762 99.58455 42.6791 86.84602 42.6791 71.13182 C  42.6791 55.41762 55.41762 42.6791 71.13182 42.6791 C  86.84602 42.6791 99.58455 55.41762 99.58455 71.13182 Z M  71.13182 71.13182  " /> 
 </g> 
 </g> 
 </g> 
 </g> 
 </g> 
 </g> 
 <g> 
 <g stroke-width="0.8pt"> 
 <g stroke="rgb(100.0%,58.99963%,0.0%)"> 
 <g fill="rgb(100.0%,58.99963%,0.0%)"> 
 <path d=" M  71.13182 71.13182 M  99.58455 71.13182 C  99.58455 86.84602 86.84602 99.58455 71.13182 99.58455 C  55.41762 99.58455 42.6791 86.84602 42.6791 71.13182 C  42.6791 55.41762 55.41762 42.6791 71.13182 42.6791 C  86.84602 42.6791 99.58455 55.41762 99.58455 71.13182 Z M  71.13182 71.13182  " style="fill:none"/> 
 </g> 
 </g> 
 </g> 
 </g> 
 <g> 
 <g stroke-width="0.8pt"> 
 <g stroke="rgb(100.0%,58.99963%,0.0%)"> 
 <g fill="rgb(100.0%,58.99963%,0.0%)"> 
 <g stroke-opacity="0.25"> 
 <g fill-opacity="0.25"> 
 <path d=" M  71.13182 71.13182 M  85.35818 71.13182 C  85.35818 78.98892 78.98892 85.35818 71.13182 85.35818 C  63.27472 85.35818 56.90546 78.98892 56.90546 71.13182 C  56.90546 63.27472 63.27472 56.90546 71.13182 56.90546 C  78.98892 56.90546 85.35818 63.27472 85.35818 71.13182 Z M  71.13182 71.13182  " /> 
 </g> 
 </g> 
 </g> 
 </g> 
 </g> 
 </g> 
 <g> 
 <g stroke-width="0.8pt"> 
 <g stroke="rgb(100.0%,58.99963%,0.0%)"> 
 <g fill="rgb(100.0%,58.99963%,0.0%)"> 
 <path d=" M  71.13182 71.13182 M  85.35818 71.13182 C  85.35818 78.98892 78.98892 85.35818 71.13182 85.35818 C  63.27472 85.35818 56.90546 78.98892 56.90546 71.13182 C  56.90546 63.27472 63.27472 56.90546 71.13182 56.90546 C  78.98892 56.90546 85.35818 63.27472 85.35818 71.13182 Z M  71.13182 71.13182  " style="fill:none"/> 
 </g> 
 </g> 
 </g> 
 </g> 
 <g> 
 <g> 
 <g transform="matrix(1.0,0.0,0.0,1.0,71.13182,64.01863)"> 
 <g fill="rgb(0.0%,0.0%,0.0%)"> 
 <text style="stroke:none" transform="scale(1,-1) translate(0.0,0)" text-anchor="middle"  font-size="10"> 
</text> 
</g> 
 </g> 
 </g> 
 </g> 
 <g> 
 <g> 
 <g transform="matrix(1.0,0.0,0.0,1.0,71.13182,55.48273)"> 
 <g fill="rgb(0.0%,0.0%,0.0%)"> 
 <text style="stroke:none" transform="scale(1,-1) translate(0.0,0)" text-anchor="middle"  font-size="10"> 
</text> 
</g> 
 </g> 
 </g> 
 </g> 
 <g> 
 <g> 
 <g transform="matrix(1.0,0.0,0.0,1.0,71.13182,46.94704)"> 
 <g fill="rgb(0.0%,0.0%,0.0%)"> 
 <text style="stroke:none" transform="scale(1,-1) translate(0.0,0)" text-anchor="middle"  font-size="10"> 
</text> 
</g> 
 </g> 
 </g> 
 </g> 
 <g> 
 <g stroke-width="0.8pt"> 
 <g stroke="rgb(58.99963%,0.0%,0.0%)"> 
 <g fill="rgb(58.99963%,0.0%,0.0%)"> 
 <path d=" M  71.13182 60.48566 L  71.13182 59.0157  " /> 
 </g> 
 </g> 
 </g> 
 </g> 
 <g> 
 <g stroke-width="0.8pt"> 
 <g stroke="rgb(58.99963%,0.0%,0.0%)"> 
 <g fill="rgb(58.99963%,0.0%,0.0%)"> 
 <path d=" M  71.13182 51.94975 L  71.13182 50.48001  " /> 
 </g> 
 </g> 
 </g> 
 </g> 
 <g> 
 <g stroke-width="0.8pt"> 
 <g stroke="rgb(33.00018%,33.00018%,33.00018%)"> 
 <g fill="rgb(33.00018%,33.00018%,33.00018%)"> 
 <path d=" M  71.13182 64.01863 M  71.84317 64.01863 C  71.84317 64.4115 71.52469 64.72998 71.13182 64.72998 C  70.73895 64.72998 70.42047 64.4115 70.42047 64.01863 C  70.42047 63.62576 70.73895 63.30728 71.13182 63.30728 C  71.52469 63.30728 71.84317 63.62576 71.84317 64.01863 Z M  71.13182 64.01863  " /> 
 </g> 
 </g> 
 </g> 
 </g> 
 <g> 
 <g stroke-width="0.8pt"> 
 <g stroke="rgb(33.00018%,33.00018%,33.00018%)"> 
 <g fill="rgb(33.00018%,33.00018%,33.00018%)"> 
 <path d=" M  71.13182 55.48273 M  71.84317 55.48273 C  71.84317 55.8756 71.52469 56.19408 71.13182 56.19408 C  70.73895 56.19408 70.42047 55.8756 70.42047 55.48273 C  70.42047 55.08986 70.73895 54.77138 71.13182 54.77138 C  71.52469 54.77138 71.84317 55.08986 71.84317 55.48273 Z M  71.13182 55.48273  " /> 
 </g> 
 </g> 
 </g> 
 </g> 
 <g> 
 <g stroke-width="0.8pt"> 
 <g stroke="rgb(33.00018%,33.00018%,33.00018%)"> 
 <g fill="rgb(33.00018%,33.00018%,33.00018%)"> 
 <path d=" M  71.13182 46.94704 M  71.84317 46.94704 C  71.84317 47.3399 71.52469 47.65839 71.13182 47.65839 C  70.73895 47.65839 70.42047 47.3399 70.42047 46.94704 C  70.42047 46.55417 70.73895 46.23569 71.13182 46.23569 C  71.52469 46.23569 71.84317 46.55417 71.84317 46.94704 Z M  71.13182 46.94704  " /> 
 </g> 
 </g> 
 </g> 
 </g> 
 </g> 
 </g> 
 </g> 
 </g> 
 </g> 
                                             </g> 
</svg> 
