<?xml version="1.0" encoding="iso-8859-1" standalone="no"?> 
<?xml-stylesheet href="main.css" type="text/css"?> 
<svg xmlns="http://www.w3.org/2000/svg" xmlns:xlink="http://www.w3.org/1999/xlink" width="90.42697pt" height="88.71967pt" viewBox="-0.4 -1.68031 90.42697 88.71967 "> 
<g transform="translate(0, 87.03935 ) scale(1,-1) translate(0,1.68031 )"> 
<g> 
 <g stroke="rgb(0.0%,0.0%,0.0%)"> 
 <g fill="rgb(0.0%,0.0%,0.0%)"> 
 <g stroke-width="0.4pt"> 
 <g> 
 <g> 
 <g stroke="rgb(33.00018%,33.00018%,33.00018%)"> 
 <g fill="rgb(33.00018%,33.00018%,33.00018%)"> 
 <g stroke-width="0.8pt"> 
 <path d=" M  4.26794 -1.28032 L  8.5359 1.28032 L  8.5359 7.25557 L  4.26794 9.81622 L  0.0 7.25557 L  0.0 1.28032 Z  " style="fill:none"/> 
 </g> 
 </g> 
 </g> 
 </g> 
 <g> 
 <g stroke="rgb(33.00018%,33.00018%,33.00018%)"> 
 <g fill="rgb(33.00018%,33.00018%,33.00018%)"> 
 <g stroke-width="0.8pt"> 
 <path d=" M  8.5359 7.25557 L  12.80385 9.81622 L  12.80385 15.79147 L  8.5359 18.35213 L  4.26794 15.79147 L  4.26794 9.81622 Z  " style="fill:none"/> 
 </g> 
 </g> 
 </g> 
 </g> 
 <g> 
 <g stroke="rgb(33.00018%,33.00018%,33.00018%)"> 
 <g fill="rgb(33.00018%,33.00018%,33.00018%)"> 
 <g stroke-width="0.8pt"> 
 <path d=" M  12.80385 -1.28032 L  17.07181 1.28032 L  17.07181 7.25557 L  12.80385 9.81622 L  8.5359 7.25557 L  8.5359 1.28032 Z  " style="fill:none"/> 
 </g> 
 </g> 
 </g> 
 </g> 
 <g> 
 <g stroke="rgb(33.00018%,33.00018%,33.00018%)"> 
 <g fill="rgb(33.00018%,33.00018%,33.00018%)"> 
 <g stroke-width="0.8pt"> 
 <path d=" M  17.07181 7.25557 L  21.33975 9.81622 L  21.33975 15.79147 L  17.07181 18.35213 L  12.80385 15.79147 L  12.80385 9.81622 Z  " style="fill:none"/> 
 </g> 
 </g> 
 </g> 
 </g> 
 <g> 
 <g stroke="rgb(33.00018%,33.00018%,33.00018%)"> 
 <g fill="rgb(33.00018%,33.00018%,33.00018%)"> 
 <g stroke-width="0.8pt"> 
 <path d=" M  21.33975 -1.28032 L  25.60771 1.28032 L  25.60771 7.25557 L  21.33975 9.81622 L  17.07181 7.25557 L  17.07181 1.28032 Z  " style="fill:none"/> 
 </g> 
 </g> 
 </g> 
 </g> 
 <g> 
 <g stroke="rgb(33.00018%,33.00018%,33.00018%)"> 
 <g fill="rgb(33.00018%,33.00018%,33.00018%)"> 
 <g stroke-width="0.8pt"> 
 <path d=" M  25.60771 7.25557 L  29.87566 9.81622 L  29.87566 15.79147 L  25.60771 18.35213 L  21.33975 15.79147 L  21.33975 9.81622 Z  " style="fill:none"/> 
 </g> 
 </g> 
 </g> 
 </g> 
 <g> 
 <g stroke="rgb(33.00018%,33.00018%,33.00018%)"> 
 <g fill="rgb(33.00018%,33.00018%,33.00018%)"> 
 <g stroke-width="0.8pt"> 
 <path d=" M  29.87566 -1.28032 L  34.14362 1.28032 L  34.14362 7.25557 L  29.87566 9.81622 L  25.60771 7.25557 L  25.60771 1.28032 Z  " style="fill:none"/> 
 </g> 
 </g> 
 </g> 
 </g> 
 <g> 
 <g stroke="rgb(33.00018%,33.00018%,33.00018%)"> 
 <g fill="rgb(33.00018%,33.00018%,33.00018%)"> 
 <g stroke-width="0.8pt"> 
 <path d=" M  34.14362 7.25557 L  38.41156 9.81622 L  38.41156 15.79147 L  34.14362 18.35213 L  29.87566 15.79147 L  29.87566 9.81622 Z  " style="fill:none"/> 
 </g> 
 </g> 
 </g> 
 </g> 
 <g> 
 <g stroke="rgb(33.00018%,33.00018%,33.00018%)"> 
 <g fill="rgb(33.00018%,33.00018%,33.00018%)"> 
 <g stroke-width="0.8pt"> 
 <path d=" M  38.41156 -1.28032 L  42.67952 1.28032 L  42.67952 7.25557 L  38.41156 9.81622 L  34.14362 7.25557 L  34.14362 1.28032 Z  " style="fill:none"/> 
 </g> 
 </g> 
 </g> 
 </g> 
 <g> 
 <g stroke="rgb(33.00018%,33.00018%,33.00018%)"> 
 <g fill="rgb(33.00018%,33.00018%,33.00018%)"> 
 <g stroke-width="0.8pt"> 
 <path d=" M  42.67952 7.25557 L  46.94746 9.81622 L  46.94746 15.79147 L  42.67952 18.35213 L  38.41156 15.79147 L  38.41156 9.81622 Z  " style="fill:none"/> 
 </g> 
 </g> 
 </g> 
 </g> 
 <g> 
 <g stroke="rgb(33.00018%,33.00018%,33.00018%)"> 
 <g fill="rgb(33.00018%,33.00018%,33.00018%)"> 
 <g stroke-width="0.8pt"> 
 <path d=" M  46.94746 -1.28032 L  51.21542 1.28032 L  51.21542 7.25557 L  46.94746 9.81622 L  42.67952 7.25557 L  42.67952 1.28032 Z  " style="fill:none"/> 
 </g> 
 </g> 
 </g> 
 </g> 
 <g> 
 <g stroke="rgb(33.00018%,33.00018%,33.00018%)"> 
 <g fill="rgb(33.00018%,33.00018%,33.00018%)"> 
 <g stroke-width="0.8pt"> 
 <path d=" M  51.21542 7.25557 L  55.48337 9.81622 L  55.48337 15.79147 L  51.21542 18.35213 L  46.94746 15.79147 L  46.94746 9.81622 Z  " style="fill:none"/> 
 </g> 
 </g> 
 </g> 
 </g> 
 <g> 
 <g stroke="rgb(33.00018%,33.00018%,33.00018%)"> 
 <g fill="rgb(33.00018%,33.00018%,33.00018%)"> 
 <g stroke-width="0.8pt"> 
 <path d=" M  55.48337 -1.28032 L  59.75133 1.28032 L  59.75133 7.25557 L  55.48337 9.81622 L  51.21542 7.25557 L  51.21542 1.28032 Z  " style="fill:none"/> 
 </g> 
 </g> 
 </g> 
 </g> 
 <g> 
 <g stroke="rgb(33.00018%,33.00018%,33.00018%)"> 
 <g fill="rgb(33.00018%,33.00018%,33.00018%)"> 
 <g stroke-width="0.8pt"> 
 <path d=" M  59.75133 7.25557 L  64.01927 9.81622 L  64.01927 15.79147 L  59.75133 18.35213 L  55.48337 15.79147 L  55.48337 9.81622 Z  " style="fill:none"/> 
 </g> 
 </g> 
 </g> 
 </g> 
 <g> 
 <g stroke="rgb(33.00018%,33.00018%,33.00018%)"> 
 <g fill="rgb(33.00018%,33.00018%,33.00018%)"> 
 <g stroke-width="0.8pt"> 
 <path d=" M  64.01927 -1.28032 L  68.28723 1.28032 L  68.28723 7.25557 L  64.01927 9.81622 L  59.75133 7.25557 L  59.75133 1.28032 Z  " style="fill:none"/> 
 </g> 
 </g> 
 </g> 
 </g> 
 <g> 
 <g stroke="rgb(33.00018%,33.00018%,33.00018%)"> 
 <g fill="rgb(33.00018%,33.00018%,33.00018%)"> 
 <g stroke-width="0.8pt"> 
 <path d=" M  68.28723 7.25557 L  72.55518 9.81622 L  72.55518 15.79147 L  68.28723 18.35213 L  64.01927 15.79147 L  64.01927 9.81622 Z  " style="fill:none"/> 
 </g> 
 </g> 
 </g> 
 </g> 
 <g> 
 <g stroke="rgb(33.00018%,33.00018%,33.00018%)"> 
 <g fill="rgb(33.00018%,33.00018%,33.00018%)"> 
 <g stroke-width="0.8pt"> 
 <path d=" M  72.55518 -1.28032 L  76.82314 1.28032 L  76.82314 7.25557 L  72.55518 9.81622 L  68.28723 7.25557 L  68.28723 1.28032 Z  " style="fill:none"/> 
 </g> 
 </g> 
 </g> 
 </g> 
 <g> 
 <g stroke="rgb(33.00018%,33.00018%,33.00018%)"> 
 <g fill="rgb(33.00018%,33.00018%,33.00018%)"> 
 <g stroke-width="0.8pt"> 
 <path d=" M  76.82314 7.25557 L  81.09108 9.81622 L  81.09108 15.79147 L  76.82314 18.35213 L  72.55518 15.79147 L  72.55518 9.81622 Z  " style="fill:none"/> 
 </g> 
 </g> 
 </g> 
 </g> 
 <g> 
 <g stroke="rgb(33.00018%,33.00018%,33.00018%)"> 
 <g fill="rgb(33.00018%,33.00018%,33.00018%)"> 
 <g stroke-width="0.8pt"> 
 <path d=" M  81.09108 -1.28032 L  85.35904 1.28032 L  85.35904 7.25557 L  81.09108 9.81622 L  76.82314 7.25557 L  76.82314 1.28032 Z  " style="fill:none"/> 
 </g> 
 </g> 
 </g> 
 </g> 
 <g> 
 <g stroke="rgb(33.00018%,33.00018%,33.00018%)"> 
 <g fill="rgb(33.00018%,33.00018%,33.00018%)"> 
 <g stroke-width="0.8pt"> 
 <path d=" M  85.35904 7.25557 L  89.62698 9.81622 L  89.62698 15.79147 L  85.35904 18.35213 L  81.09108 15.79147 L  81.09108 9.81622 Z  " style="fill:none"/> 
 </g> 
 </g> 
 </g> 
 </g> 
 <g> 
 <g stroke="rgb(33.00018%,33.00018%,33.00018%)"> 
 <g fill="rgb(33.00018%,33.00018%,33.00018%)"> 
 <g stroke-width="0.8pt"> 
 <path d=" M  4.26794 15.79147 L  8.5359 18.35213 L  8.5359 24.32738 L  4.26794 26.88803 L  0.0 24.32738 L  0.0 18.35213 Z  " style="fill:none"/> 
 </g> 
 </g> 
 </g> 
 </g> 
 <g> 
 <g stroke="rgb(33.00018%,33.00018%,33.00018%)"> 
 <g fill="rgb(33.00018%,33.00018%,33.00018%)"> 
 <g stroke-width="0.8pt"> 
 <path d=" M  8.5359 24.32738 L  12.80385 26.88803 L  12.80385 32.86328 L  8.5359 35.42393 L  4.26794 32.86328 L  4.26794 26.88803 Z  " style="fill:none"/> 
 </g> 
 </g> 
 </g> 
 </g> 
 <g> 
 <g stroke="rgb(33.00018%,33.00018%,33.00018%)"> 
 <g fill="rgb(33.00018%,33.00018%,33.00018%)"> 
 <g stroke-width="0.8pt"> 
 <path d=" M  12.80385 15.79147 L  17.07181 18.35213 L  17.07181 24.32738 L  12.80385 26.88803 L  8.5359 24.32738 L  8.5359 18.35213 Z  " style="fill:none"/> 
 </g> 
 </g> 
 </g> 
 </g> 
 <g> 
 <g stroke="rgb(33.00018%,33.00018%,33.00018%)"> 
 <g fill="rgb(33.00018%,33.00018%,33.00018%)"> 
 <g stroke-width="0.8pt"> 
 <path d=" M  17.07181 24.32738 L  21.33975 26.88803 L  21.33975 32.86328 L  17.07181 35.42393 L  12.80385 32.86328 L  12.80385 26.88803 Z  " style="fill:none"/> 
 </g> 
 </g> 
 </g> 
 </g> 
 <g> 
 <g stroke="rgb(33.00018%,33.00018%,33.00018%)"> 
 <g fill="rgb(33.00018%,33.00018%,33.00018%)"> 
 <g stroke-width="0.8pt"> 
 <path d=" M  21.33975 15.79147 L  25.60771 18.35213 L  25.60771 24.32738 L  21.33975 26.88803 L  17.07181 24.32738 L  17.07181 18.35213 Z  " style="fill:none"/> 
 </g> 
 </g> 
 </g> 
 </g> 
 <g> 
 <g stroke="rgb(33.00018%,33.00018%,33.00018%)"> 
 <g fill="rgb(33.00018%,33.00018%,33.00018%)"> 
 <g stroke-width="0.8pt"> 
 <path d=" M  25.60771 24.32738 L  29.87566 26.88803 L  29.87566 32.86328 L  25.60771 35.42393 L  21.33975 32.86328 L  21.33975 26.88803 Z  " style="fill:none"/> 
 </g> 
 </g> 
 </g> 
 </g> 
 <g> 
 <g stroke="rgb(33.00018%,33.00018%,33.00018%)"> 
 <g fill="rgb(33.00018%,33.00018%,33.00018%)"> 
 <g stroke-width="0.8pt"> 
 <path d=" M  29.87566 15.79147 L  34.14362 18.35213 L  34.14362 24.32738 L  29.87566 26.88803 L  25.60771 24.32738 L  25.60771 18.35213 Z  " style="fill:none"/> 
 </g> 
 </g> 
 </g> 
 </g> 
 <g> 
 <g stroke="rgb(33.00018%,33.00018%,33.00018%)"> 
 <g fill="rgb(33.00018%,33.00018%,33.00018%)"> 
 <g stroke-width="0.8pt"> 
 <path d=" M  34.14362 24.32738 L  38.41156 26.88803 L  38.41156 32.86328 L  34.14362 35.42393 L  29.87566 32.86328 L  29.87566 26.88803 Z  " style="fill:none"/> 
 </g> 
 </g> 
 </g> 
 </g> 
 <g> 
 <g stroke="rgb(33.00018%,33.00018%,33.00018%)"> 
 <g fill="rgb(33.00018%,33.00018%,33.00018%)"> 
 <g stroke-width="0.8pt"> 
 <path d=" M  38.41156 15.79147 L  42.67952 18.35213 L  42.67952 24.32738 L  38.41156 26.88803 L  34.14362 24.32738 L  34.14362 18.35213 Z  " style="fill:none"/> 
 </g> 
 </g> 
 </g> 
 </g> 
 <g> 
 <g stroke="rgb(33.00018%,33.00018%,33.00018%)"> 
 <g fill="rgb(33.00018%,33.00018%,33.00018%)"> 
 <g stroke-width="0.8pt"> 
 <path d=" M  42.67952 24.32738 L  46.94746 26.88803 L  46.94746 32.86328 L  42.67952 35.42393 L  38.41156 32.86328 L  38.41156 26.88803 Z  " style="fill:none"/> 
 </g> 
 </g> 
 </g> 
 </g> 
 <g> 
 <g stroke="rgb(33.00018%,33.00018%,33.00018%)"> 
 <g fill="rgb(33.00018%,33.00018%,33.00018%)"> 
 <g stroke-width="0.8pt"> 
 <path d=" M  46.94746 15.79147 L  51.21542 18.35213 L  51.21542 24.32738 L  46.94746 26.88803 L  42.67952 24.32738 L  42.67952 18.35213 Z  " style="fill:none"/> 
 </g> 
 </g> 
 </g> 
 </g> 
 <g> 
 <g stroke="rgb(33.00018%,33.00018%,33.00018%)"> 
 <g fill="rgb(33.00018%,33.00018%,33.00018%)"> 
 <g stroke-width="0.8pt"> 
 <path d=" M  51.21542 24.32738 L  55.48337 26.88803 L  55.48337 32.86328 L  51.21542 35.42393 L  46.94746 32.86328 L  46.94746 26.88803 Z  " style="fill:none"/> 
 </g> 
 </g> 
 </g> 
 </g> 
 <g> 
 <g stroke="rgb(33.00018%,33.00018%,33.00018%)"> 
 <g fill="rgb(33.00018%,33.00018%,33.00018%)"> 
 <g stroke-width="0.8pt"> 
 <path d=" M  55.48337 15.79147 L  59.75133 18.35213 L  59.75133 24.32738 L  55.48337 26.88803 L  51.21542 24.32738 L  51.21542 18.35213 Z  " style="fill:none"/> 
 </g> 
 </g> 
 </g> 
 </g> 
 <g> 
 <g stroke="rgb(33.00018%,33.00018%,33.00018%)"> 
 <g fill="rgb(33.00018%,33.00018%,33.00018%)"> 
 <g stroke-width="0.8pt"> 
 <path d=" M  59.75133 24.32738 L  64.01927 26.88803 L  64.01927 32.86328 L  59.75133 35.42393 L  55.48337 32.86328 L  55.48337 26.88803 Z  " style="fill:none"/> 
 </g> 
 </g> 
 </g> 
 </g> 
 <g> 
 <g stroke="rgb(33.00018%,33.00018%,33.00018%)"> 
 <g fill="rgb(33.00018%,33.00018%,33.00018%)"> 
 <g stroke-width="0.8pt"> 
 <path d=" M  64.01927 15.79147 L  68.28723 18.35213 L  68.28723 24.32738 L  64.01927 26.88803 L  59.75133 24.32738 L  59.75133 18.35213 Z  " style="fill:none"/> 
 </g> 
 </g> 
 </g> 
 </g> 
 <g> 
 <g stroke="rgb(33.00018%,33.00018%,33.00018%)"> 
 <g fill="rgb(33.00018%,33.00018%,33.00018%)"> 
 <g stroke-width="0.8pt"> 
 <path d=" M  68.28723 24.32738 L  72.55518 26.88803 L  72.55518 32.86328 L  68.28723 35.42393 L  64.01927 32.86328 L  64.01927 26.88803 Z  " style="fill:none"/> 
 </g> 
 </g> 
 </g> 
 </g> 
 <g> 
 <g stroke="rgb(33.00018%,33.00018%,33.00018%)"> 
 <g fill="rgb(33.00018%,33.00018%,33.00018%)"> 
 <g stroke-width="0.8pt"> 
 <path d=" M  72.55518 15.79147 L  76.82314 18.35213 L  76.82314 24.32738 L  72.55518 26.88803 L  68.28723 24.32738 L  68.28723 18.35213 Z  " style="fill:none"/> 
 </g> 
 </g> 
 </g> 
 </g> 
 <g> 
 <g stroke="rgb(33.00018%,33.00018%,33.00018%)"> 
 <g fill="rgb(33.00018%,33.00018%,33.00018%)"> 
 <g stroke-width="0.8pt"> 
 <path d=" M  76.82314 24.32738 L  81.09108 26.88803 L  81.09108 32.86328 L  76.82314 35.42393 L  72.55518 32.86328 L  72.55518 26.88803 Z  " style="fill:none"/> 
 </g> 
 </g> 
 </g> 
 </g> 
 <g> 
 <g stroke="rgb(33.00018%,33.00018%,33.00018%)"> 
 <g fill="rgb(33.00018%,33.00018%,33.00018%)"> 
 <g stroke-width="0.8pt"> 
 <path d=" M  81.09108 15.79147 L  85.35904 18.35213 L  85.35904 24.32738 L  81.09108 26.88803 L  76.82314 24.32738 L  76.82314 18.35213 Z  " style="fill:none"/> 
 </g> 
 </g> 
 </g> 
 </g> 
 <g> 
 <g stroke="rgb(33.00018%,33.00018%,33.00018%)"> 
 <g fill="rgb(33.00018%,33.00018%,33.00018%)"> 
 <g stroke-width="0.8pt"> 
 <path d=" M  85.35904 24.32738 L  89.62698 26.88803 L  89.62698 32.86328 L  85.35904 35.42393 L  81.09108 32.86328 L  81.09108 26.88803 Z  " style="fill:none"/> 
 </g> 
 </g> 
 </g> 
 </g> 
 <g> 
 <g stroke="rgb(33.00018%,33.00018%,33.00018%)"> 
 <g fill="rgb(33.00018%,33.00018%,33.00018%)"> 
 <g stroke-width="0.8pt"> 
 <path d=" M  4.26794 32.86328 L  8.5359 35.42393 L  8.5359 41.39919 L  4.26794 43.95984 L  0.0 41.39919 L  0.0 35.42393 Z  " style="fill:none"/> 
 </g> 
 </g> 
 </g> 
 </g> 
 <g> 
 <g stroke="rgb(33.00018%,33.00018%,33.00018%)"> 
 <g fill="rgb(33.00018%,33.00018%,33.00018%)"> 
 <g stroke-width="0.8pt"> 
 <path d=" M  8.5359 41.39919 L  12.80385 43.95984 L  12.80385 49.93509 L  8.5359 52.49574 L  4.26794 49.93509 L  4.26794 43.95984 Z  " style="fill:none"/> 
 </g> 
 </g> 
 </g> 
 </g> 
 <g> 
 <g stroke="rgb(33.00018%,33.00018%,33.00018%)"> 
 <g fill="rgb(33.00018%,33.00018%,33.00018%)"> 
 <g stroke-width="0.8pt"> 
 <path d=" M  12.80385 32.86328 L  17.07181 35.42393 L  17.07181 41.39919 L  12.80385 43.95984 L  8.5359 41.39919 L  8.5359 35.42393 Z  " style="fill:none"/> 
 </g> 
 </g> 
 </g> 
 </g> 
 <g> 
 <g stroke="rgb(33.00018%,33.00018%,33.00018%)"> 
 <g fill="rgb(33.00018%,33.00018%,33.00018%)"> 
 <g stroke-width="0.8pt"> 
 <path d=" M  17.07181 41.39919 L  21.33975 43.95984 L  21.33975 49.93509 L  17.07181 52.49574 L  12.80385 49.93509 L  12.80385 43.95984 Z  " style="fill:none"/> 
 </g> 
 </g> 
 </g> 
 </g> 
 <g> 
 <g stroke="rgb(33.00018%,33.00018%,33.00018%)"> 
 <g fill="rgb(33.00018%,33.00018%,33.00018%)"> 
 <g stroke-width="0.8pt"> 
 <path d=" M  21.33975 32.86328 L  25.60771 35.42393 L  25.60771 41.39919 L  21.33975 43.95984 L  17.07181 41.39919 L  17.07181 35.42393 Z  " style="fill:none"/> 
 </g> 
 </g> 
 </g> 
 </g> 
 <g> 
 <g stroke="rgb(33.00018%,33.00018%,33.00018%)"> 
 <g fill="rgb(33.00018%,33.00018%,33.00018%)"> 
 <g stroke-width="0.8pt"> 
 <path d=" M  25.60771 41.39919 L  29.87566 43.95984 L  29.87566 49.93509 L  25.60771 52.49574 L  21.33975 49.93509 L  21.33975 43.95984 Z  " style="fill:none"/> 
 </g> 
 </g> 
 </g> 
 </g> 
 <g> 
 <g stroke="rgb(33.00018%,33.00018%,33.00018%)"> 
 <g fill="rgb(33.00018%,33.00018%,33.00018%)"> 
 <g stroke-width="0.8pt"> 
 <path d=" M  29.87566 32.86328 L  34.14362 35.42393 L  34.14362 41.39919 L  29.87566 43.95984 L  25.60771 41.39919 L  25.60771 35.42393 Z  " style="fill:none"/> 
 </g> 
 </g> 
 </g> 
 </g> 
 <g> 
 <g stroke="rgb(33.00018%,33.00018%,33.00018%)"> 
 <g fill="rgb(33.00018%,33.00018%,33.00018%)"> 
 <g stroke-width="0.8pt"> 
 <path d=" M  34.14362 41.39919 L  38.41156 43.95984 L  38.41156 49.93509 L  34.14362 52.49574 L  29.87566 49.93509 L  29.87566 43.95984 Z  " style="fill:none"/> 
 </g> 
 </g> 
 </g> 
 </g> 
 <g> 
 <g stroke="rgb(33.00018%,33.00018%,33.00018%)"> 
 <g fill="rgb(33.00018%,33.00018%,33.00018%)"> 
 <g stroke-width="0.8pt"> 
 <path d=" M  38.41156 32.86328 L  42.67952 35.42393 L  42.67952 41.39919 L  38.41156 43.95984 L  34.14362 41.39919 L  34.14362 35.42393 Z  " style="fill:none"/> 
 </g> 
 </g> 
 </g> 
 </g> 
 <g> 
 <g stroke="rgb(33.00018%,33.00018%,33.00018%)"> 
 <g fill="rgb(33.00018%,33.00018%,33.00018%)"> 
 <g stroke-width="0.8pt"> 
 <path d=" M  42.67952 41.39919 L  46.94746 43.95984 L  46.94746 49.93509 L  42.67952 52.49574 L  38.41156 49.93509 L  38.41156 43.95984 Z  " style="fill:none"/> 
 </g> 
 </g> 
 </g> 
 </g> 
 <g> 
 <g stroke="rgb(33.00018%,33.00018%,33.00018%)"> 
 <g fill="rgb(33.00018%,33.00018%,33.00018%)"> 
 <g stroke-width="0.8pt"> 
 <path d=" M  46.94746 32.86328 L  51.21542 35.42393 L  51.21542 41.39919 L  46.94746 43.95984 L  42.67952 41.39919 L  42.67952 35.42393 Z  " style="fill:none"/> 
 </g> 
 </g> 
 </g> 
 </g> 
 <g> 
 <g stroke="rgb(33.00018%,33.00018%,33.00018%)"> 
 <g fill="rgb(33.00018%,33.00018%,33.00018%)"> 
 <g stroke-width="0.8pt"> 
 <path d=" M  51.21542 41.39919 L  55.48337 43.95984 L  55.48337 49.93509 L  51.21542 52.49574 L  46.94746 49.93509 L  46.94746 43.95984 Z  " style="fill:none"/> 
 </g> 
 </g> 
 </g> 
 </g> 
 <g> 
 <g stroke="rgb(33.00018%,33.00018%,33.00018%)"> 
 <g fill="rgb(33.00018%,33.00018%,33.00018%)"> 
 <g stroke-width="0.8pt"> 
 <path d=" M  55.48337 32.86328 L  59.75133 35.42393 L  59.75133 41.39919 L  55.48337 43.95984 L  51.21542 41.39919 L  51.21542 35.42393 Z  " style="fill:none"/> 
 </g> 
 </g> 
 </g> 
 </g> 
 <g> 
 <g stroke="rgb(33.00018%,33.00018%,33.00018%)"> 
 <g fill="rgb(33.00018%,33.00018%,33.00018%)"> 
 <g stroke-width="0.8pt"> 
 <path d=" M  59.75133 41.39919 L  64.01927 43.95984 L  64.01927 49.93509 L  59.75133 52.49574 L  55.48337 49.93509 L  55.48337 43.95984 Z  " style="fill:none"/> 
 </g> 
 </g> 
 </g> 
 </g> 
 <g> 
 <g stroke="rgb(33.00018%,33.00018%,33.00018%)"> 
 <g fill="rgb(33.00018%,33.00018%,33.00018%)"> 
 <g stroke-width="0.8pt"> 
 <path d=" M  64.01927 32.86328 L  68.28723 35.42393 L  68.28723 41.39919 L  64.01927 43.95984 L  59.75133 41.39919 L  59.75133 35.42393 Z  " style="fill:none"/> 
 </g> 
 </g> 
 </g> 
 </g> 
 <g> 
 <g stroke="rgb(33.00018%,33.00018%,33.00018%)"> 
 <g fill="rgb(33.00018%,33.00018%,33.00018%)"> 
 <g stroke-width="0.8pt"> 
 <path d=" M  68.28723 41.39919 L  72.55518 43.95984 L  72.55518 49.93509 L  68.28723 52.49574 L  64.01927 49.93509 L  64.01927 43.95984 Z  " style="fill:none"/> 
 </g> 
 </g> 
 </g> 
 </g> 
 <g> 
 <g stroke="rgb(33.00018%,33.00018%,33.00018%)"> 
 <g fill="rgb(33.00018%,33.00018%,33.00018%)"> 
 <g stroke-width="0.8pt"> 
 <path d=" M  72.55518 32.86328 L  76.82314 35.42393 L  76.82314 41.39919 L  72.55518 43.95984 L  68.28723 41.39919 L  68.28723 35.42393 Z  " style="fill:none"/> 
 </g> 
 </g> 
 </g> 
 </g> 
 <g> 
 <g stroke="rgb(33.00018%,33.00018%,33.00018%)"> 
 <g fill="rgb(33.00018%,33.00018%,33.00018%)"> 
 <g stroke-width="0.8pt"> 
 <path d=" M  76.82314 41.39919 L  81.09108 43.95984 L  81.09108 49.93509 L  76.82314 52.49574 L  72.55518 49.93509 L  72.55518 43.95984 Z  " style="fill:none"/> 
 </g> 
 </g> 
 </g> 
 </g> 
 <g> 
 <g stroke="rgb(33.00018%,33.00018%,33.00018%)"> 
 <g fill="rgb(33.00018%,33.00018%,33.00018%)"> 
 <g stroke-width="0.8pt"> 
 <path d=" M  81.09108 32.86328 L  85.35904 35.42393 L  85.35904 41.39919 L  81.09108 43.95984 L  76.82314 41.39919 L  76.82314 35.42393 Z  " style="fill:none"/> 
 </g> 
 </g> 
 </g> 
 </g> 
 <g> 
 <g stroke="rgb(33.00018%,33.00018%,33.00018%)"> 
 <g fill="rgb(33.00018%,33.00018%,33.00018%)"> 
 <g stroke-width="0.8pt"> 
 <path d=" M  85.35904 41.39919 L  89.62698 43.95984 L  89.62698 49.93509 L  85.35904 52.49574 L  81.09108 49.93509 L  81.09108 43.95984 Z  " style="fill:none"/> 
 </g> 
 </g> 
 </g> 
 </g> 
 <g> 
 <g stroke="rgb(33.00018%,33.00018%,33.00018%)"> 
 <g fill="rgb(33.00018%,33.00018%,33.00018%)"> 
 <g stroke-width="0.8pt"> 
 <path d=" M  4.26794 49.93509 L  8.5359 52.49574 L  8.5359 58.471 L  4.26794 61.03165 L  0.0 58.471 L  0.0 52.49574 Z  " style="fill:none"/> 
 </g> 
 </g> 
 </g> 
 </g> 
 <g> 
 <g stroke="rgb(33.00018%,33.00018%,33.00018%)"> 
 <g fill="rgb(33.00018%,33.00018%,33.00018%)"> 
 <g stroke-width="0.8pt"> 
 <path d=" M  8.5359 58.471 L  12.80385 61.03165 L  12.80385 67.0069 L  8.5359 69.56755 L  4.26794 67.0069 L  4.26794 61.03165 Z  " style="fill:none"/> 
 </g> 
 </g> 
 </g> 
 </g> 
 <g> 
 <g stroke="rgb(33.00018%,33.00018%,33.00018%)"> 
 <g fill="rgb(33.00018%,33.00018%,33.00018%)"> 
 <g stroke-width="0.8pt"> 
 <path d=" M  12.80385 49.93509 L  17.07181 52.49574 L  17.07181 58.471 L  12.80385 61.03165 L  8.5359 58.471 L  8.5359 52.49574 Z  " style="fill:none"/> 
 </g> 
 </g> 
 </g> 
 </g> 
 <g> 
 <g stroke="rgb(33.00018%,33.00018%,33.00018%)"> 
 <g fill="rgb(33.00018%,33.00018%,33.00018%)"> 
 <g stroke-width="0.8pt"> 
 <path d=" M  17.07181 58.471 L  21.33975 61.03165 L  21.33975 67.0069 L  17.07181 69.56755 L  12.80385 67.0069 L  12.80385 61.03165 Z  " style="fill:none"/> 
 </g> 
 </g> 
 </g> 
 </g> 
 <g> 
 <g stroke="rgb(33.00018%,33.00018%,33.00018%)"> 
 <g fill="rgb(33.00018%,33.00018%,33.00018%)"> 
 <g stroke-width="0.8pt"> 
 <path d=" M  21.33975 49.93509 L  25.60771 52.49574 L  25.60771 58.471 L  21.33975 61.03165 L  17.07181 58.471 L  17.07181 52.49574 Z  " style="fill:none"/> 
 </g> 
 </g> 
 </g> 
 </g> 
 <g> 
 <g stroke="rgb(33.00018%,33.00018%,33.00018%)"> 
 <g fill="rgb(33.00018%,33.00018%,33.00018%)"> 
 <g stroke-width="0.8pt"> 
 <path d=" M  25.60771 58.471 L  29.87566 61.03165 L  29.87566 67.0069 L  25.60771 69.56755 L  21.33975 67.0069 L  21.33975 61.03165 Z  " style="fill:none"/> 
 </g> 
 </g> 
 </g> 
 </g> 
 <g> 
 <g stroke="rgb(33.00018%,33.00018%,33.00018%)"> 
 <g fill="rgb(33.00018%,33.00018%,33.00018%)"> 
 <g stroke-width="0.8pt"> 
 <path d=" M  29.87566 49.93509 L  34.14362 52.49574 L  34.14362 58.471 L  29.87566 61.03165 L  25.60771 58.471 L  25.60771 52.49574 Z  " style="fill:none"/> 
 </g> 
 </g> 
 </g> 
 </g> 
 <g> 
 <g stroke="rgb(33.00018%,33.00018%,33.00018%)"> 
 <g fill="rgb(33.00018%,33.00018%,33.00018%)"> 
 <g stroke-width="0.8pt"> 
 <path d=" M  34.14362 58.471 L  38.41156 61.03165 L  38.41156 67.0069 L  34.14362 69.56755 L  29.87566 67.0069 L  29.87566 61.03165 Z  " style="fill:none"/> 
 </g> 
 </g> 
 </g> 
 </g> 
 <g> 
 <g stroke="rgb(33.00018%,33.00018%,33.00018%)"> 
 <g fill="rgb(33.00018%,33.00018%,33.00018%)"> 
 <g stroke-width="0.8pt"> 
 <path d=" M  38.41156 49.93509 L  42.67952 52.49574 L  42.67952 58.471 L  38.41156 61.03165 L  34.14362 58.471 L  34.14362 52.49574 Z  " style="fill:none"/> 
 </g> 
 </g> 
 </g> 
 </g> 
 <g> 
 <g stroke="rgb(33.00018%,33.00018%,33.00018%)"> 
 <g fill="rgb(33.00018%,33.00018%,33.00018%)"> 
 <g stroke-width="0.8pt"> 
 <path d=" M  42.67952 58.471 L  46.94746 61.03165 L  46.94746 67.0069 L  42.67952 69.56755 L  38.41156 67.0069 L  38.41156 61.03165 Z  " style="fill:none"/> 
 </g> 
 </g> 
 </g> 
 </g> 
 <g> 
 <g stroke="rgb(33.00018%,33.00018%,33.00018%)"> 
 <g fill="rgb(33.00018%,33.00018%,33.00018%)"> 
 <g stroke-width="0.8pt"> 
 <path d=" M  46.94746 49.93509 L  51.21542 52.49574 L  51.21542 58.471 L  46.94746 61.03165 L  42.67952 58.471 L  42.67952 52.49574 Z  " style="fill:none"/> 
 </g> 
 </g> 
 </g> 
 </g> 
 <g> 
 <g stroke="rgb(33.00018%,33.00018%,33.00018%)"> 
 <g fill="rgb(33.00018%,33.00018%,33.00018%)"> 
 <g stroke-width="0.8pt"> 
 <path d=" M  51.21542 58.471 L  55.48337 61.03165 L  55.48337 67.0069 L  51.21542 69.56755 L  46.94746 67.0069 L  46.94746 61.03165 Z  " style="fill:none"/> 
 </g> 
 </g> 
 </g> 
 </g> 
 <g> 
 <g stroke="rgb(33.00018%,33.00018%,33.00018%)"> 
 <g fill="rgb(33.00018%,33.00018%,33.00018%)"> 
 <g stroke-width="0.8pt"> 
 <path d=" M  55.48337 49.93509 L  59.75133 52.49574 L  59.75133 58.471 L  55.48337 61.03165 L  51.21542 58.471 L  51.21542 52.49574 Z  " style="fill:none"/> 
 </g> 
 </g> 
 </g> 
 </g> 
 <g> 
 <g stroke="rgb(33.00018%,33.00018%,33.00018%)"> 
 <g fill="rgb(33.00018%,33.00018%,33.00018%)"> 
 <g stroke-width="0.8pt"> 
 <path d=" M  59.75133 58.471 L  64.01927 61.03165 L  64.01927 67.0069 L  59.75133 69.56755 L  55.48337 67.0069 L  55.48337 61.03165 Z  " style="fill:none"/> 
 </g> 
 </g> 
 </g> 
 </g> 
 <g> 
 <g stroke="rgb(33.00018%,33.00018%,33.00018%)"> 
 <g fill="rgb(33.00018%,33.00018%,33.00018%)"> 
 <g stroke-width="0.8pt"> 
 <path d=" M  64.01927 49.93509 L  68.28723 52.49574 L  68.28723 58.471 L  64.01927 61.03165 L  59.75133 58.471 L  59.75133 52.49574 Z  " style="fill:none"/> 
 </g> 
 </g> 
 </g> 
 </g> 
 <g> 
 <g stroke="rgb(33.00018%,33.00018%,33.00018%)"> 
 <g fill="rgb(33.00018%,33.00018%,33.00018%)"> 
 <g stroke-width="0.8pt"> 
 <path d=" M  68.28723 58.471 L  72.55518 61.03165 L  72.55518 67.0069 L  68.28723 69.56755 L  64.01927 67.0069 L  64.01927 61.03165 Z  " style="fill:none"/> 
 </g> 
 </g> 
 </g> 
 </g> 
 <g> 
 <g stroke="rgb(33.00018%,33.00018%,33.00018%)"> 
 <g fill="rgb(33.00018%,33.00018%,33.00018%)"> 
 <g stroke-width="0.8pt"> 
 <path d=" M  72.55518 49.93509 L  76.82314 52.49574 L  76.82314 58.471 L  72.55518 61.03165 L  68.28723 58.471 L  68.28723 52.49574 Z  " style="fill:none"/> 
 </g> 
 </g> 
 </g> 
 </g> 
 <g> 
 <g stroke="rgb(33.00018%,33.00018%,33.00018%)"> 
 <g fill="rgb(33.00018%,33.00018%,33.00018%)"> 
 <g stroke-width="0.8pt"> 
 <path d=" M  76.82314 58.471 L  81.09108 61.03165 L  81.09108 67.0069 L  76.82314 69.56755 L  72.55518 67.0069 L  72.55518 61.03165 Z  " style="fill:none"/> 
 </g> 
 </g> 
 </g> 
 </g> 
 <g> 
 <g stroke="rgb(33.00018%,33.00018%,33.00018%)"> 
 <g fill="rgb(33.00018%,33.00018%,33.00018%)"> 
 <g stroke-width="0.8pt"> 
 <path d=" M  81.09108 49.93509 L  85.35904 52.49574 L  85.35904 58.471 L  81.09108 61.03165 L  76.82314 58.471 L  76.82314 52.49574 Z  " style="fill:none"/> 
 </g> 
 </g> 
 </g> 
 </g> 
 <g> 
 <g stroke="rgb(33.00018%,33.00018%,33.00018%)"> 
 <g fill="rgb(33.00018%,33.00018%,33.00018%)"> 
 <g stroke-width="0.8pt"> 
 <path d=" M  85.35904 58.471 L  89.62698 61.03165 L  89.62698 67.0069 L  85.35904 69.56755 L  81.09108 67.0069 L  81.09108 61.03165 Z  " style="fill:none"/> 
 </g> 
 </g> 
 </g> 
 </g> 
 <g> 
 <g stroke="rgb(33.00018%,33.00018%,33.00018%)"> 
 <g fill="rgb(33.00018%,33.00018%,33.00018%)"> 
 <g stroke-width="0.8pt"> 
 <path d=" M  4.26794 67.0069 L  8.5359 69.56755 L  8.5359 75.5428 L  4.26794 78.10345 L  0.0 75.5428 L  0.0 69.56755 Z  " style="fill:none"/> 
 </g> 
 </g> 
 </g> 
 </g> 
 <g> 
 <g stroke="rgb(33.00018%,33.00018%,33.00018%)"> 
 <g fill="rgb(33.00018%,33.00018%,33.00018%)"> 
 <g stroke-width="0.8pt"> 
 <path d=" M  8.5359 75.5428 L  12.80385 78.10345 L  12.80385 84.0787 L  8.5359 86.63936 L  4.26794 84.0787 L  4.26794 78.10345 Z  " style="fill:none"/> 
 </g> 
 </g> 
 </g> 
 </g> 
 <g> 
 <g stroke="rgb(33.00018%,33.00018%,33.00018%)"> 
 <g fill="rgb(33.00018%,33.00018%,33.00018%)"> 
 <g stroke-width="0.8pt"> 
 <path d=" M  12.80385 67.0069 L  17.07181 69.56755 L  17.07181 75.5428 L  12.80385 78.10345 L  8.5359 75.5428 L  8.5359 69.56755 Z  " style="fill:none"/> 
 </g> 
 </g> 
 </g> 
 </g> 
 <g> 
 <g stroke="rgb(33.00018%,33.00018%,33.00018%)"> 
 <g fill="rgb(33.00018%,33.00018%,33.00018%)"> 
 <g stroke-width="0.8pt"> 
 <path d=" M  17.07181 75.5428 L  21.33975 78.10345 L  21.33975 84.0787 L  17.07181 86.63936 L  12.80385 84.0787 L  12.80385 78.10345 Z  " style="fill:none"/> 
 </g> 
 </g> 
 </g> 
 </g> 
 <g> 
 <g stroke="rgb(33.00018%,33.00018%,33.00018%)"> 
 <g fill="rgb(33.00018%,33.00018%,33.00018%)"> 
 <g stroke-width="0.8pt"> 
 <path d=" M  21.33975 67.0069 L  25.60771 69.56755 L  25.60771 75.5428 L  21.33975 78.10345 L  17.07181 75.5428 L  17.07181 69.56755 Z  " style="fill:none"/> 
 </g> 
 </g> 
 </g> 
 </g> 
 <g> 
 <g stroke="rgb(33.00018%,33.00018%,33.00018%)"> 
 <g fill="rgb(33.00018%,33.00018%,33.00018%)"> 
 <g stroke-width="0.8pt"> 
 <path d=" M  25.60771 75.5428 L  29.87566 78.10345 L  29.87566 84.0787 L  25.60771 86.63936 L  21.33975 84.0787 L  21.33975 78.10345 Z  " style="fill:none"/> 
 </g> 
 </g> 
 </g> 
 </g> 
 <g> 
 <g stroke="rgb(33.00018%,33.00018%,33.00018%)"> 
 <g fill="rgb(33.00018%,33.00018%,33.00018%)"> 
 <g stroke-width="0.8pt"> 
 <path d=" M  29.87566 67.0069 L  34.14362 69.56755 L  34.14362 75.5428 L  29.87566 78.10345 L  25.60771 75.5428 L  25.60771 69.56755 Z  " style="fill:none"/> 
 </g> 
 </g> 
 </g> 
 </g> 
 <g> 
 <g stroke="rgb(33.00018%,33.00018%,33.00018%)"> 
 <g fill="rgb(33.00018%,33.00018%,33.00018%)"> 
 <g stroke-width="0.8pt"> 
 <path d=" M  34.14362 75.5428 L  38.41156 78.10345 L  38.41156 84.0787 L  34.14362 86.63936 L  29.87566 84.0787 L  29.87566 78.10345 Z  " style="fill:none"/> 
 </g> 
 </g> 
 </g> 
 </g> 
 <g> 
 <g stroke="rgb(33.00018%,33.00018%,33.00018%)"> 
 <g fill="rgb(33.00018%,33.00018%,33.00018%)"> 
 <g stroke-width="0.8pt"> 
 <path d=" M  38.41156 67.0069 L  42.67952 69.56755 L  42.67952 75.5428 L  38.41156 78.10345 L  34.14362 75.5428 L  34.14362 69.56755 Z  " style="fill:none"/> 
 </g> 
 </g> 
 </g> 
 </g> 
 <g> 
 <g stroke="rgb(33.00018%,33.00018%,33.00018%)"> 
 <g fill="rgb(33.00018%,33.00018%,33.00018%)"> 
 <g stroke-width="0.8pt"> 
 <path d=" M  42.67952 75.5428 L  46.94746 78.10345 L  46.94746 84.0787 L  42.67952 86.63936 L  38.41156 84.0787 L  38.41156 78.10345 Z  " style="fill:none"/> 
 </g> 
 </g> 
 </g> 
 </g> 
 <g> 
 <g stroke="rgb(33.00018%,33.00018%,33.00018%)"> 
 <g fill="rgb(33.00018%,33.00018%,33.00018%)"> 
 <g stroke-width="0.8pt"> 
 <path d=" M  46.94746 67.0069 L  51.21542 69.56755 L  51.21542 75.5428 L  46.94746 78.10345 L  42.67952 75.5428 L  42.67952 69.56755 Z  " style="fill:none"/> 
 </g> 
 </g> 
 </g> 
 </g> 
 <g> 
 <g stroke="rgb(33.00018%,33.00018%,33.00018%)"> 
 <g fill="rgb(33.00018%,33.00018%,33.00018%)"> 
 <g stroke-width="0.8pt"> 
 <path d=" M  51.21542 75.5428 L  55.48337 78.10345 L  55.48337 84.0787 L  51.21542 86.63936 L  46.94746 84.0787 L  46.94746 78.10345 Z  " style="fill:none"/> 
 </g> 
 </g> 
 </g> 
 </g> 
 <g> 
 <g stroke="rgb(33.00018%,33.00018%,33.00018%)"> 
 <g fill="rgb(33.00018%,33.00018%,33.00018%)"> 
 <g stroke-width="0.8pt"> 
 <path d=" M  55.48337 67.0069 L  59.75133 69.56755 L  59.75133 75.5428 L  55.48337 78.10345 L  51.21542 75.5428 L  51.21542 69.56755 Z  " style="fill:none"/> 
 </g> 
 </g> 
 </g> 
 </g> 
 <g> 
 <g stroke="rgb(33.00018%,33.00018%,33.00018%)"> 
 <g fill="rgb(33.00018%,33.00018%,33.00018%)"> 
 <g stroke-width="0.8pt"> 
 <path d=" M  59.75133 75.5428 L  64.01927 78.10345 L  64.01927 84.0787 L  59.75133 86.63936 L  55.48337 84.0787 L  55.48337 78.10345 Z  " style="fill:none"/> 
 </g> 
 </g> 
 </g> 
 </g> 
 <g> 
 <g stroke="rgb(33.00018%,33.00018%,33.00018%)"> 
 <g fill="rgb(33.00018%,33.00018%,33.00018%)"> 
 <g stroke-width="0.8pt"> 
 <path d=" M  64.01927 67.0069 L  68.28723 69.56755 L  68.28723 75.5428 L  64.01927 78.10345 L  59.75133 75.5428 L  59.75133 69.56755 Z  " style="fill:none"/> 
 </g> 
 </g> 
 </g> 
 </g> 
 <g> 
 <g stroke="rgb(33.00018%,33.00018%,33.00018%)"> 
 <g fill="rgb(33.00018%,33.00018%,33.00018%)"> 
 <g stroke-width="0.8pt"> 
 <path d=" M  68.28723 75.5428 L  72.55518 78.10345 L  72.55518 84.0787 L  68.28723 86.63936 L  64.01927 84.0787 L  64.01927 78.10345 Z  " style="fill:none"/> 
 </g> 
 </g> 
 </g> 
 </g> 
 <g> 
 <g stroke="rgb(33.00018%,33.00018%,33.00018%)"> 
 <g fill="rgb(33.00018%,33.00018%,33.00018%)"> 
 <g stroke-width="0.8pt"> 
 <path d=" M  72.55518 67.0069 L  76.82314 69.56755 L  76.82314 75.5428 L  72.55518 78.10345 L  68.28723 75.5428 L  68.28723 69.56755 Z  " style="fill:none"/> 
 </g> 
 </g> 
 </g> 
 </g> 
 <g> 
 <g stroke="rgb(33.00018%,33.00018%,33.00018%)"> 
 <g fill="rgb(33.00018%,33.00018%,33.00018%)"> 
 <g stroke-width="0.8pt"> 
 <path d=" M  76.82314 75.5428 L  81.09108 78.10345 L  81.09108 84.0787 L  76.82314 86.63936 L  72.55518 84.0787 L  72.55518 78.10345 Z  " style="fill:none"/> 
 </g> 
 </g> 
 </g> 
 </g> 
 <g> 
 <g stroke="rgb(33.00018%,33.00018%,33.00018%)"> 
 <g fill="rgb(33.00018%,33.00018%,33.00018%)"> 
 <g stroke-width="0.8pt"> 
 <path d=" M  81.09108 67.0069 L  85.35904 69.56755 L  85.35904 75.5428 L  81.09108 78.10345 L  76.82314 75.5428 L  76.82314 69.56755 Z  " style="fill:none"/> 
 </g> 
 </g> 
 </g> 
 </g> 
 <g> 
 <g stroke="rgb(33.00018%,33.00018%,33.00018%)"> 
 <g fill="rgb(33.00018%,33.00018%,33.00018%)"> 
 <g stroke-width="0.8pt"> 
 <path d=" M  85.35904 75.5428 L  89.62698 78.10345 L  89.62698 84.0787 L  85.35904 86.63936 L  81.09108 84.0787 L  81.09108 78.10345 Z  " style="fill:none"/> 
 </g> 
 </g> 
 </g> 
 </g> 
 </g> 
 </g> 
 </g> 
 </g> 
 </g> 
                            </g> 
</svg> 
