<?xml version="1.0" encoding="iso-8859-1" standalone="no"?> 
<?xml-stylesheet href="main.css" type="text/css"?> 
<svg xmlns="http://www.w3.org/2000/svg" xmlns:xlink="http://www.w3.org/1999/xlink" width="146.19873pt" height="196.68423pt" viewBox="-3.8351 -37.55363 146.19873 196.68423 "> 
<g transform="translate(0, 159.1306 ) scale(1,-1) translate(0,37.55363 )"> 
 <g> 
 <g stroke="rgb(0.0%,0.0%,0.0%)"> 
 <g fill="rgb(0.0%,0.0%,0.0%)"> 
 <g stroke-width="0.4pt"> 
 <g> 
 <g> 
 <g stroke="rgb(50.0%,50.0%,50.0%)"> 
 <g fill="rgb(50.0%,50.0%,50.0%)"> 
 <g stroke-width="0.2pt"> 
 <path d=" M  0.0 0.0 M  0.0 0.0 L  142.26364 0.0 M  0.0 14.22636 L  142.26364 14.22636 M  0.0 28.45273 L  142.26364 28.45273 M  0.0 42.6791 L  142.26364 42.6791 M  0.0 56.90546 L  142.26364 56.90546 M  0.0 71.13182 L  142.26364 71.13182 M  0.0 85.35818 L  142.26364 85.35818 M  0.0 99.58455 L  142.26364 99.58455 M  0.0 113.81091 L  142.26364 113.81091 M  0.0 128.03728 L  142.26364 128.03728 M  0.0 142.25365 L  142.26364 142.25365 M  0.0 0.0 L  0.0 142.26364 M  14.22636 0.0 L  14.22636 142.26364 M  28.45273 0.0 L  28.45273 142.26364 M  42.6791 0.0 L  42.6791 142.26364 M  56.90546 0.0 L  56.90546 142.26364 M  71.13182 0.0 L  71.13182 142.26364 M  85.35818 0.0 L  85.35818 142.26364 M  99.58455 0.0 L  99.58455 142.26364 M  113.81091 0.0 L  113.81091 142.26364 M  128.03728 0.0 L  128.03728 142.26364 M  142.25365 0.0 L  142.25365 142.26364  " style="fill:none"/> 
 </g> 
 </g> 
 </g> 
 </g> 
 <g> 
 <g stroke="rgb(0.0%,0.0%,100.0%)"> 
 <g fill="rgb(0.0%,0.0%,100.0%)"> 
 <g stroke-width="0.8pt"> 
 <path d=" M  35.5659 135.15045 L  92.47136 135.15045 L  92.47136 120.92409 L  120.92409 120.92409 L  120.92409 92.47136 L  92.47136 92.47136 L  92.47136 106.69772 L  64.01863 106.69772 L  64.01863 92.47136 L  78.245 92.47136 L  78.245 78.245 L  106.69772 78.245 L  106.69772 64.01863 L  120.92409 64.01863 L  120.92409 21.33954 L  106.69772 21.33954 L  106.69772 7.11317 L  49.79227 7.11317 L  49.79227 21.33954 L  21.33954 21.33954 L  21.33954 49.79227 L  49.79227 49.79227 L  49.79227 35.5659 L  78.245 35.5659 L  78.245 49.79227 L  64.01863 49.79227 L  64.01863 64.01863 L  35.5659 64.01863 L  35.5659 78.245 L  21.33954 78.245 L  21.33954 120.92409 L  35.5659 120.92409 Z  " style="fill:none"/> 
 </g> 
 </g> 
 </g> 
 </g> 
 <g> 
 <g stroke="rgb(100.0%,100.0%,100.0%)"> 
 <g fill="rgb(100.0%,100.0%,100.0%)"> 
 <path d=" M  21.33954 21.33954 M  23.33122 21.33954 C  23.33122 22.43953 22.43953 23.33122 21.33954 23.33122 C  20.23955 23.33122 19.34785 22.43953 19.34785 21.33954 C  19.34785 20.23955 20.23955 19.34785 21.33954 19.34785 C  22.43953 19.34785 23.33122 20.23955 23.33122 21.33954 Z M  21.33954 21.33954  " /> 
 </g> 
 </g> 
 </g> 
 <g> 
 <g stroke="rgb(100.0%,100.0%,100.0%)"> 
 <g fill="rgb(100.0%,100.0%,100.0%)"> 
 <path d=" M  120.92409 120.92409 M  122.91577 120.92409 C  122.91577 122.02408 122.02408 122.91577 120.92409 122.91577 C  119.8241 122.91577 118.9324 122.02408 118.9324 120.92409 C  118.9324 119.8241 119.8241 118.9324 120.92409 118.9324 C  122.02408 118.9324 122.91577 119.8241 122.91577 120.92409 Z M  120.92409 120.92409  " /> 
 </g> 
 </g> 
 </g> 
 <g> 
 <g stroke="rgb(0.0%,0.0%,100.0%)"> 
 <g fill="rgb(0.0%,0.0%,100.0%)"> 
 <path d=" M  21.33954 21.33954 M  22.76216 21.33954 C  22.76216 22.12523 22.12523 22.76216 21.33954 22.76216 C  20.55385 22.76216 19.91692 22.12523 19.91692 21.33954 C  19.91692 20.55385 20.55385 19.91692 21.33954 19.91692 C  22.12523 19.91692 22.76216 20.55385 22.76216 21.33954 Z M  21.33954 21.33954  " /> 
 </g> 
 </g> 
 </g> 
 <g> 
 <g stroke="rgb(0.0%,0.0%,100.0%)"> 
 <g fill="rgb(0.0%,0.0%,100.0%)"> 
 <path d=" M  120.92409 120.92409 M  122.34671 120.92409 C  122.34671 121.70978 121.70978 122.34671 120.92409 122.34671 C  120.1384 122.34671 119.50146 121.70978 119.50146 120.92409 C  119.50146 120.1384 120.1384 119.50146 120.92409 119.50146 C  121.70978 119.50146 122.34671 120.1384 122.34671 120.92409 Z M  120.92409 120.92409  " /> 
 </g> 
 </g> 
 </g> 
 <g> 
 <g stroke="rgb(100.0%,100.0%,100.0%)"> 
 <g fill="rgb(100.0%,100.0%,100.0%)"> 
 <path d=" M  21.33954 35.5659 M  23.33122 35.5659 C  23.33122 36.6659 22.43953 37.55759 21.33954 37.55759 C  20.23955 37.55759 19.34785 36.6659 19.34785 35.5659 C  19.34785 34.46591 20.23955 33.57422 21.33954 33.57422 C  22.43953 33.57422 23.33122 34.46591 23.33122 35.5659 Z M  21.33954 35.5659  " /> 
 </g> 
 </g> 
 </g> 
 <g> 
 <g stroke="rgb(100.0%,100.0%,100.0%)"> 
 <g fill="rgb(100.0%,100.0%,100.0%)"> 
 <path d=" M  120.92409 106.69772 M  122.91577 106.69772 C  122.91577 107.79771 122.02408 108.6894 120.92409 108.6894 C  119.8241 108.6894 118.9324 107.79771 118.9324 106.69772 C  118.9324 105.59773 119.8241 104.70604 120.92409 104.70604 C  122.02408 104.70604 122.91577 105.59773 122.91577 106.69772 Z M  120.92409 106.69772  " /> 
 </g> 
 </g> 
 </g> 
 <g> 
 <g stroke="rgb(0.0%,0.0%,100.0%)"> 
 <g fill="rgb(0.0%,0.0%,100.0%)"> 
 <path d=" M  21.33954 35.5659 M  22.76216 35.5659 C  22.76216 36.3516 22.12523 36.98853 21.33954 36.98853 C  20.55385 36.98853 19.91692 36.3516 19.91692 35.5659 C  19.91692 34.78021 20.55385 34.14328 21.33954 34.14328 C  22.12523 34.14328 22.76216 34.78021 22.76216 35.5659 Z M  21.33954 35.5659  " /> 
 </g> 
 </g> 
 </g> 
 <g> 
 <g stroke="rgb(0.0%,0.0%,100.0%)"> 
 <g fill="rgb(0.0%,0.0%,100.0%)"> 
 <path d=" M  120.92409 106.69772 M  122.34671 106.69772 C  122.34671 107.48341 121.70978 108.12035 120.92409 108.12035 C  120.1384 108.12035 119.50146 107.48341 119.50146 106.69772 C  119.50146 105.91203 120.1384 105.2751 120.92409 105.2751 C  121.70978 105.2751 122.34671 105.91203 122.34671 106.69772 Z M  120.92409 106.69772  " /> 
 </g> 
 </g> 
 </g> 
 <g> 
 <g stroke="rgb(100.0%,100.0%,100.0%)"> 
 <g fill="rgb(100.0%,100.0%,100.0%)"> 
 <path d=" M  21.33954 49.79227 M  23.33122 49.79227 C  23.33122 50.89226 22.43953 51.78395 21.33954 51.78395 C  20.23955 51.78395 19.34785 50.89226 19.34785 49.79227 C  19.34785 48.69228 20.23955 47.80058 21.33954 47.80058 C  22.43953 47.80058 23.33122 48.69228 23.33122 49.79227 Z M  21.33954 49.79227  " /> 
 </g> 
 </g> 
 </g> 
 <g> 
 <g stroke="rgb(100.0%,100.0%,100.0%)"> 
 <g fill="rgb(100.0%,100.0%,100.0%)"> 
 <path d=" M  120.92409 92.47136 M  122.91577 92.47136 C  122.91577 93.57135 122.02408 94.46304 120.92409 94.46304 C  119.8241 94.46304 118.9324 93.57135 118.9324 92.47136 C  118.9324 91.37137 119.8241 90.47968 120.92409 90.47968 C  122.02408 90.47968 122.91577 91.37137 122.91577 92.47136 Z M  120.92409 92.47136  " /> 
 </g> 
 </g> 
 </g> 
 <g> 
 <g stroke="rgb(0.0%,0.0%,100.0%)"> 
 <g fill="rgb(0.0%,0.0%,100.0%)"> 
 <path d=" M  21.33954 49.79227 M  22.76216 49.79227 C  22.76216 50.57796 22.12523 51.21489 21.33954 51.21489 C  20.55385 51.21489 19.91692 50.57796 19.91692 49.79227 C  19.91692 49.00658 20.55385 48.36964 21.33954 48.36964 C  22.12523 48.36964 22.76216 49.00658 22.76216 49.79227 Z M  21.33954 49.79227  " /> 
 </g> 
 </g> 
 </g> 
 <g> 
 <g stroke="rgb(0.0%,0.0%,100.0%)"> 
 <g fill="rgb(0.0%,0.0%,100.0%)"> 
 <path d=" M  120.92409 92.47136 M  122.34671 92.47136 C  122.34671 93.25705 121.70978 93.89398 120.92409 93.89398 C  120.1384 93.89398 119.50146 93.25705 119.50146 92.47136 C  119.50146 91.68567 120.1384 91.04874 120.92409 91.04874 C  121.70978 91.04874 122.34671 91.68567 122.34671 92.47136 Z M  120.92409 92.47136  " /> 
 </g> 
 </g> 
 </g> 
 <g> 
 <g stroke="rgb(100.0%,100.0%,100.0%)"> 
 <g fill="rgb(100.0%,100.0%,100.0%)"> 
 <path d=" M  21.33954 78.245 M  23.33122 78.245 C  23.33122 79.34499 22.43953 80.23668 21.33954 80.23668 C  20.23955 80.23668 19.34785 79.34499 19.34785 78.245 C  19.34785 77.145 20.23955 76.25331 21.33954 76.25331 C  22.43953 76.25331 23.33122 77.145 23.33122 78.245 Z M  21.33954 78.245  " /> 
 </g> 
 </g> 
 </g> 
 <g> 
 <g stroke="rgb(100.0%,100.0%,100.0%)"> 
 <g fill="rgb(100.0%,100.0%,100.0%)"> 
 <path d=" M  120.92409 64.01863 M  122.91577 64.01863 C  122.91577 65.11862 122.02408 66.01031 120.92409 66.01031 C  119.8241 66.01031 118.9324 65.11862 118.9324 64.01863 C  118.9324 62.91864 119.8241 62.02695 120.92409 62.02695 C  122.02408 62.02695 122.91577 62.91864 122.91577 64.01863 Z M  120.92409 64.01863  " /> 
 </g> 
 </g> 
 </g> 
 <g> 
 <g stroke="rgb(0.0%,0.0%,100.0%)"> 
 <g fill="rgb(0.0%,0.0%,100.0%)"> 
 <path d=" M  21.33954 78.245 M  22.76216 78.245 C  22.76216 79.03069 22.12523 79.66762 21.33954 79.66762 C  20.55385 79.66762 19.91692 79.03069 19.91692 78.245 C  19.91692 77.4593 20.55385 76.82237 21.33954 76.82237 C  22.12523 76.82237 22.76216 77.4593 22.76216 78.245 Z M  21.33954 78.245  " /> 
 </g> 
 </g> 
 </g> 
 <g> 
 <g stroke="rgb(0.0%,0.0%,100.0%)"> 
 <g fill="rgb(0.0%,0.0%,100.0%)"> 
 <path d=" M  120.92409 64.01863 M  122.34671 64.01863 C  122.34671 64.80432 121.70978 65.44125 120.92409 65.44125 C  120.1384 65.44125 119.50146 64.80432 119.50146 64.01863 C  119.50146 63.23294 120.1384 62.59601 120.92409 62.59601 C  121.70978 62.59601 122.34671 63.23294 122.34671 64.01863 Z M  120.92409 64.01863  " /> 
 </g> 
 </g> 
 </g> 
 <g> 
 <g stroke="rgb(100.0%,100.0%,100.0%)"> 
 <g fill="rgb(100.0%,100.0%,100.0%)"> 
 <path d=" M  21.33954 92.47136 M  23.33122 92.47136 C  23.33122 93.57135 22.43953 94.46304 21.33954 94.46304 C  20.23955 94.46304 19.34785 93.57135 19.34785 92.47136 C  19.34785 91.37137 20.23955 90.47968 21.33954 90.47968 C  22.43953 90.47968 23.33122 91.37137 23.33122 92.47136 Z M  21.33954 92.47136  " /> 
 </g> 
 </g> 
 </g> 
 <g> 
 <g stroke="rgb(100.0%,100.0%,100.0%)"> 
 <g fill="rgb(100.0%,100.0%,100.0%)"> 
 <path d=" M  120.92409 49.79227 M  122.91577 49.79227 C  122.91577 50.89226 122.02408 51.78395 120.92409 51.78395 C  119.8241 51.78395 118.9324 50.89226 118.9324 49.79227 C  118.9324 48.69228 119.8241 47.80058 120.92409 47.80058 C  122.02408 47.80058 122.91577 48.69228 122.91577 49.79227 Z M  120.92409 49.79227  " /> 
 </g> 
 </g> 
 </g> 
 <g> 
 <g stroke="rgb(0.0%,0.0%,100.0%)"> 
 <g fill="rgb(0.0%,0.0%,100.0%)"> 
 <path d=" M  21.33954 92.47136 M  22.76216 92.47136 C  22.76216 93.25705 22.12523 93.89398 21.33954 93.89398 C  20.55385 93.89398 19.91692 93.25705 19.91692 92.47136 C  19.91692 91.68567 20.55385 91.04874 21.33954 91.04874 C  22.12523 91.04874 22.76216 91.68567 22.76216 92.47136 Z M  21.33954 92.47136  " /> 
 </g> 
 </g> 
 </g> 
 <g> 
 <g stroke="rgb(0.0%,0.0%,100.0%)"> 
 <g fill="rgb(0.0%,0.0%,100.0%)"> 
 <path d=" M  120.92409 49.79227 M  122.34671 49.79227 C  122.34671 50.57796 121.70978 51.21489 120.92409 51.21489 C  120.1384 51.21489 119.50146 50.57796 119.50146 49.79227 C  119.50146 49.00658 120.1384 48.36964 120.92409 48.36964 C  121.70978 48.36964 122.34671 49.00658 122.34671 49.79227 Z M  120.92409 49.79227  " /> 
 </g> 
 </g> 
 </g> 
 <g> 
 <g stroke="rgb(100.0%,100.0%,100.0%)"> 
 <g fill="rgb(100.0%,100.0%,100.0%)"> 
 <path d=" M  21.33954 106.69772 M  23.33122 106.69772 C  23.33122 107.79771 22.43953 108.6894 21.33954 108.6894 C  20.23955 108.6894 19.34785 107.79771 19.34785 106.69772 C  19.34785 105.59773 20.23955 104.70604 21.33954 104.70604 C  22.43953 104.70604 23.33122 105.59773 23.33122 106.69772 Z M  21.33954 106.69772  " /> 
 </g> 
 </g> 
 </g> 
 <g> 
 <g stroke="rgb(100.0%,100.0%,100.0%)"> 
 <g fill="rgb(100.0%,100.0%,100.0%)"> 
 <path d=" M  120.92409 35.5659 M  122.91577 35.5659 C  122.91577 36.6659 122.02408 37.55759 120.92409 37.55759 C  119.8241 37.55759 118.9324 36.6659 118.9324 35.5659 C  118.9324 34.46591 119.8241 33.57422 120.92409 33.57422 C  122.02408 33.57422 122.91577 34.46591 122.91577 35.5659 Z M  120.92409 35.5659  " /> 
 </g> 
 </g> 
 </g> 
 <g> 
 <g stroke="rgb(0.0%,0.0%,100.0%)"> 
 <g fill="rgb(0.0%,0.0%,100.0%)"> 
 <path d=" M  21.33954 106.69772 M  22.76216 106.69772 C  22.76216 107.48341 22.12523 108.12035 21.33954 108.12035 C  20.55385 108.12035 19.91692 107.48341 19.91692 106.69772 C  19.91692 105.91203 20.55385 105.2751 21.33954 105.2751 C  22.12523 105.2751 22.76216 105.91203 22.76216 106.69772 Z M  21.33954 106.69772  " /> 
 </g> 
 </g> 
 </g> 
 <g> 
 <g stroke="rgb(0.0%,0.0%,100.0%)"> 
 <g fill="rgb(0.0%,0.0%,100.0%)"> 
 <path d=" M  120.92409 35.5659 M  122.34671 35.5659 C  122.34671 36.3516 121.70978 36.98853 120.92409 36.98853 C  120.1384 36.98853 119.50146 36.3516 119.50146 35.5659 C  119.50146 34.78021 120.1384 34.14328 120.92409 34.14328 C  121.70978 34.14328 122.34671 34.78021 122.34671 35.5659 Z M  120.92409 35.5659  " /> 
 </g> 
 </g> 
 </g> 
 <g> 
 <g stroke="rgb(100.0%,100.0%,100.0%)"> 
 <g fill="rgb(100.0%,100.0%,100.0%)"> 
 <path d=" M  21.33954 120.92409 M  23.33122 120.92409 C  23.33122 122.02408 22.43953 122.91577 21.33954 122.91577 C  20.23955 122.91577 19.34785 122.02408 19.34785 120.92409 C  19.34785 119.8241 20.23955 118.9324 21.33954 118.9324 C  22.43953 118.9324 23.33122 119.8241 23.33122 120.92409 Z M  21.33954 120.92409  " /> 
 </g> 
 </g> 
 </g> 
 <g> 
 <g stroke="rgb(100.0%,100.0%,100.0%)"> 
 <g fill="rgb(100.0%,100.0%,100.0%)"> 
 <path d=" M  120.92409 21.33954 M  122.91577 21.33954 C  122.91577 22.43953 122.02408 23.33122 120.92409 23.33122 C  119.8241 23.33122 118.9324 22.43953 118.9324 21.33954 C  118.9324 20.23955 119.8241 19.34785 120.92409 19.34785 C  122.02408 19.34785 122.91577 20.23955 122.91577 21.33954 Z M  120.92409 21.33954  " /> 
 </g> 
 </g> 
 </g> 
 <g> 
 <g stroke="rgb(0.0%,0.0%,100.0%)"> 
 <g fill="rgb(0.0%,0.0%,100.0%)"> 
 <path d=" M  21.33954 120.92409 M  22.76216 120.92409 C  22.76216 121.70978 22.12523 122.34671 21.33954 122.34671 C  20.55385 122.34671 19.91692 121.70978 19.91692 120.92409 C  19.91692 120.1384 20.55385 119.50146 21.33954 119.50146 C  22.12523 119.50146 22.76216 120.1384 22.76216 120.92409 Z M  21.33954 120.92409  " /> 
 </g> 
 </g> 
 </g> 
 <g> 
 <g stroke="rgb(0.0%,0.0%,100.0%)"> 
 <g fill="rgb(0.0%,0.0%,100.0%)"> 
 <path d=" M  120.92409 21.33954 M  122.34671 21.33954 C  122.34671 22.12523 121.70978 22.76216 120.92409 22.76216 C  120.1384 22.76216 119.50146 22.12523 119.50146 21.33954 C  119.50146 20.55385 120.1384 19.91692 120.92409 19.91692 C  121.70978 19.91692 122.34671 20.55385 122.34671 21.33954 Z M  120.92409 21.33954  " /> 
 </g> 
 </g> 
 </g> 
 <g> 
 <g stroke="rgb(100.0%,100.0%,100.0%)"> 
 <g fill="rgb(100.0%,100.0%,100.0%)"> 
 <path d=" M  35.5659 21.33954 M  37.55759 21.33954 C  37.55759 22.43953 36.6659 23.33122 35.5659 23.33122 C  34.46591 23.33122 33.57422 22.43953 33.57422 21.33954 C  33.57422 20.23955 34.46591 19.34785 35.5659 19.34785 C  36.6659 19.34785 37.55759 20.23955 37.55759 21.33954 Z M  35.5659 21.33954  " /> 
 </g> 
 </g> 
 </g> 
 <g> 
 <g stroke="rgb(100.0%,100.0%,100.0%)"> 
 <g fill="rgb(100.0%,100.0%,100.0%)"> 
 <path d=" M  106.69772 120.92409 M  108.6894 120.92409 C  108.6894 122.02408 107.79771 122.91577 106.69772 122.91577 C  105.59773 122.91577 104.70604 122.02408 104.70604 120.92409 C  104.70604 119.8241 105.59773 118.9324 106.69772 118.9324 C  107.79771 118.9324 108.6894 119.8241 108.6894 120.92409 Z M  106.69772 120.92409  " /> 
 </g> 
 </g> 
 </g> 
 <g> 
 <g stroke="rgb(0.0%,0.0%,100.0%)"> 
 <g fill="rgb(0.0%,0.0%,100.0%)"> 
 <path d=" M  35.5659 21.33954 M  36.98853 21.33954 C  36.98853 22.12523 36.3516 22.76216 35.5659 22.76216 C  34.78021 22.76216 34.14328 22.12523 34.14328 21.33954 C  34.14328 20.55385 34.78021 19.91692 35.5659 19.91692 C  36.3516 19.91692 36.98853 20.55385 36.98853 21.33954 Z M  35.5659 21.33954  " /> 
 </g> 
 </g> 
 </g> 
 <g> 
 <g stroke="rgb(0.0%,0.0%,100.0%)"> 
 <g fill="rgb(0.0%,0.0%,100.0%)"> 
 <path d=" M  106.69772 120.92409 M  108.12035 120.92409 C  108.12035 121.70978 107.48341 122.34671 106.69772 122.34671 C  105.91203 122.34671 105.2751 121.70978 105.2751 120.92409 C  105.2751 120.1384 105.91203 119.50146 106.69772 119.50146 C  107.48341 119.50146 108.12035 120.1384 108.12035 120.92409 Z M  106.69772 120.92409  " /> 
 </g> 
 </g> 
 </g> 
 <g> 
 <g stroke="rgb(100.0%,100.0%,100.0%)"> 
 <g fill="rgb(100.0%,100.0%,100.0%)"> 
 <path d=" M  35.5659 49.79227 M  37.55759 49.79227 C  37.55759 50.89226 36.6659 51.78395 35.5659 51.78395 C  34.46591 51.78395 33.57422 50.89226 33.57422 49.79227 C  33.57422 48.69228 34.46591 47.80058 35.5659 47.80058 C  36.6659 47.80058 37.55759 48.69228 37.55759 49.79227 Z M  35.5659 49.79227  " /> 
 </g> 
 </g> 
 </g> 
 <g> 
 <g stroke="rgb(100.0%,100.0%,100.0%)"> 
 <g fill="rgb(100.0%,100.0%,100.0%)"> 
 <path d=" M  106.69772 92.47136 M  108.6894 92.47136 C  108.6894 93.57135 107.79771 94.46304 106.69772 94.46304 C  105.59773 94.46304 104.70604 93.57135 104.70604 92.47136 C  104.70604 91.37137 105.59773 90.47968 106.69772 90.47968 C  107.79771 90.47968 108.6894 91.37137 108.6894 92.47136 Z M  106.69772 92.47136  " /> 
 </g> 
 </g> 
 </g> 
 <g> 
 <g stroke="rgb(0.0%,0.0%,100.0%)"> 
 <g fill="rgb(0.0%,0.0%,100.0%)"> 
 <path d=" M  35.5659 49.79227 M  36.98853 49.79227 C  36.98853 50.57796 36.3516 51.21489 35.5659 51.21489 C  34.78021 51.21489 34.14328 50.57796 34.14328 49.79227 C  34.14328 49.00658 34.78021 48.36964 35.5659 48.36964 C  36.3516 48.36964 36.98853 49.00658 36.98853 49.79227 Z M  35.5659 49.79227  " /> 
 </g> 
 </g> 
 </g> 
 <g> 
 <g stroke="rgb(0.0%,0.0%,100.0%)"> 
 <g fill="rgb(0.0%,0.0%,100.0%)"> 
 <path d=" M  106.69772 92.47136 M  108.12035 92.47136 C  108.12035 93.25705 107.48341 93.89398 106.69772 93.89398 C  105.91203 93.89398 105.2751 93.25705 105.2751 92.47136 C  105.2751 91.68567 105.91203 91.04874 106.69772 91.04874 C  107.48341 91.04874 108.12035 91.68567 108.12035 92.47136 Z M  106.69772 92.47136  " /> 
 </g> 
 </g> 
 </g> 
 <g> 
 <g stroke="rgb(100.0%,100.0%,100.0%)"> 
 <g fill="rgb(100.0%,100.0%,100.0%)"> 
 <path d=" M  35.5659 64.01863 M  37.55759 64.01863 C  37.55759 65.11862 36.6659 66.01031 35.5659 66.01031 C  34.46591 66.01031 33.57422 65.11862 33.57422 64.01863 C  33.57422 62.91864 34.46591 62.02695 35.5659 62.02695 C  36.6659 62.02695 37.55759 62.91864 37.55759 64.01863 Z M  35.5659 64.01863  " /> 
 </g> 
 </g> 
 </g> 
 <g> 
 <g stroke="rgb(100.0%,100.0%,100.0%)"> 
 <g fill="rgb(100.0%,100.0%,100.0%)"> 
 <path d=" M  106.69772 78.245 M  108.6894 78.245 C  108.6894 79.34499 107.79771 80.23668 106.69772 80.23668 C  105.59773 80.23668 104.70604 79.34499 104.70604 78.245 C  104.70604 77.145 105.59773 76.25331 106.69772 76.25331 C  107.79771 76.25331 108.6894 77.145 108.6894 78.245 Z M  106.69772 78.245  " /> 
 </g> 
 </g> 
 </g> 
 <g> 
 <g stroke="rgb(0.0%,0.0%,100.0%)"> 
 <g fill="rgb(0.0%,0.0%,100.0%)"> 
 <path d=" M  35.5659 64.01863 M  36.98853 64.01863 C  36.98853 64.80432 36.3516 65.44125 35.5659 65.44125 C  34.78021 65.44125 34.14328 64.80432 34.14328 64.01863 C  34.14328 63.23294 34.78021 62.59601 35.5659 62.59601 C  36.3516 62.59601 36.98853 63.23294 36.98853 64.01863 Z M  35.5659 64.01863  " /> 
 </g> 
 </g> 
 </g> 
 <g> 
 <g stroke="rgb(0.0%,0.0%,100.0%)"> 
 <g fill="rgb(0.0%,0.0%,100.0%)"> 
 <path d=" M  106.69772 78.245 M  108.12035 78.245 C  108.12035 79.03069 107.48341 79.66762 106.69772 79.66762 C  105.91203 79.66762 105.2751 79.03069 105.2751 78.245 C  105.2751 77.4593 105.91203 76.82237 106.69772 76.82237 C  107.48341 76.82237 108.12035 77.4593 108.12035 78.245 Z M  106.69772 78.245  " /> 
 </g> 
 </g> 
 </g> 
 <g> 
 <g stroke="rgb(100.0%,100.0%,100.0%)"> 
 <g fill="rgb(100.0%,100.0%,100.0%)"> 
 <path d=" M  35.5659 78.245 M  37.55759 78.245 C  37.55759 79.34499 36.6659 80.23668 35.5659 80.23668 C  34.46591 80.23668 33.57422 79.34499 33.57422 78.245 C  33.57422 77.145 34.46591 76.25331 35.5659 76.25331 C  36.6659 76.25331 37.55759 77.145 37.55759 78.245 Z M  35.5659 78.245  " /> 
 </g> 
 </g> 
 </g> 
 <g> 
 <g stroke="rgb(100.0%,100.0%,100.0%)"> 
 <g fill="rgb(100.0%,100.0%,100.0%)"> 
 <path d=" M  106.69772 64.01863 M  108.6894 64.01863 C  108.6894 65.11862 107.79771 66.01031 106.69772 66.01031 C  105.59773 66.01031 104.70604 65.11862 104.70604 64.01863 C  104.70604 62.91864 105.59773 62.02695 106.69772 62.02695 C  107.79771 62.02695 108.6894 62.91864 108.6894 64.01863 Z M  106.69772 64.01863  " /> 
 </g> 
 </g> 
 </g> 
 <g> 
 <g stroke="rgb(0.0%,0.0%,100.0%)"> 
 <g fill="rgb(0.0%,0.0%,100.0%)"> 
 <path d=" M  35.5659 78.245 M  36.98853 78.245 C  36.98853 79.03069 36.3516 79.66762 35.5659 79.66762 C  34.78021 79.66762 34.14328 79.03069 34.14328 78.245 C  34.14328 77.4593 34.78021 76.82237 35.5659 76.82237 C  36.3516 76.82237 36.98853 77.4593 36.98853 78.245 Z M  35.5659 78.245  " /> 
 </g> 
 </g> 
 </g> 
 <g> 
 <g stroke="rgb(0.0%,0.0%,100.0%)"> 
 <g fill="rgb(0.0%,0.0%,100.0%)"> 
 <path d=" M  106.69772 64.01863 M  108.12035 64.01863 C  108.12035 64.80432 107.48341 65.44125 106.69772 65.44125 C  105.91203 65.44125 105.2751 64.80432 105.2751 64.01863 C  105.2751 63.23294 105.91203 62.59601 106.69772 62.59601 C  107.48341 62.59601 108.12035 63.23294 108.12035 64.01863 Z M  106.69772 64.01863  " /> 
 </g> 
 </g> 
 </g> 
 <g> 
 <g stroke="rgb(100.0%,100.0%,100.0%)"> 
 <g fill="rgb(100.0%,100.0%,100.0%)"> 
 <path d=" M  35.5659 120.92409 M  37.55759 120.92409 C  37.55759 122.02408 36.6659 122.91577 35.5659 122.91577 C  34.46591 122.91577 33.57422 122.02408 33.57422 120.92409 C  33.57422 119.8241 34.46591 118.9324 35.5659 118.9324 C  36.6659 118.9324 37.55759 119.8241 37.55759 120.92409 Z M  35.5659 120.92409  " /> 
 </g> 
 </g> 
 </g> 
 <g> 
 <g stroke="rgb(100.0%,100.0%,100.0%)"> 
 <g fill="rgb(100.0%,100.0%,100.0%)"> 
 <path d=" M  106.69772 21.33954 M  108.6894 21.33954 C  108.6894 22.43953 107.79771 23.33122 106.69772 23.33122 C  105.59773 23.33122 104.70604 22.43953 104.70604 21.33954 C  104.70604 20.23955 105.59773 19.34785 106.69772 19.34785 C  107.79771 19.34785 108.6894 20.23955 108.6894 21.33954 Z M  106.69772 21.33954  " /> 
 </g> 
 </g> 
 </g> 
 <g> 
 <g stroke="rgb(0.0%,0.0%,100.0%)"> 
 <g fill="rgb(0.0%,0.0%,100.0%)"> 
 <path d=" M  35.5659 120.92409 M  36.98853 120.92409 C  36.98853 121.70978 36.3516 122.34671 35.5659 122.34671 C  34.78021 122.34671 34.14328 121.70978 34.14328 120.92409 C  34.14328 120.1384 34.78021 119.50146 35.5659 119.50146 C  36.3516 119.50146 36.98853 120.1384 36.98853 120.92409 Z M  35.5659 120.92409  " /> 
 </g> 
 </g> 
 </g> 
 <g> 
 <g stroke="rgb(0.0%,0.0%,100.0%)"> 
 <g fill="rgb(0.0%,0.0%,100.0%)"> 
 <path d=" M  106.69772 21.33954 M  108.12035 21.33954 C  108.12035 22.12523 107.48341 22.76216 106.69772 22.76216 C  105.91203 22.76216 105.2751 22.12523 105.2751 21.33954 C  105.2751 20.55385 105.91203 19.91692 106.69772 19.91692 C  107.48341 19.91692 108.12035 20.55385 108.12035 21.33954 Z M  106.69772 21.33954  " /> 
 </g> 
 </g> 
 </g> 
 <g> 
 <g stroke="rgb(100.0%,100.0%,100.0%)"> 
 <g fill="rgb(100.0%,100.0%,100.0%)"> 
 <path d=" M  35.5659 135.15045 M  37.55759 135.15045 C  37.55759 136.25044 36.6659 137.14214 35.5659 137.14214 C  34.46591 137.14214 33.57422 136.25044 33.57422 135.15045 C  33.57422 134.05046 34.46591 133.15877 35.5659 133.15877 C  36.6659 133.15877 37.55759 134.05046 37.55759 135.15045 Z M  35.5659 135.15045  " /> 
 </g> 
 </g> 
 </g> 
 <g> 
 <g stroke="rgb(100.0%,100.0%,100.0%)"> 
 <g fill="rgb(100.0%,100.0%,100.0%)"> 
 <path d=" M  106.69772 7.11317 M  108.6894 7.11317 C  108.6894 8.21317 107.79771 9.10486 106.69772 9.10486 C  105.59773 9.10486 104.70604 8.21317 104.70604 7.11317 C  104.70604 6.01318 105.59773 5.12149 106.69772 5.12149 C  107.79771 5.12149 108.6894 6.01318 108.6894 7.11317 Z M  106.69772 7.11317  " /> 
 </g> 
 </g> 
 </g> 
 <g> 
 <g stroke="rgb(0.0%,0.0%,100.0%)"> 
 <g fill="rgb(0.0%,0.0%,100.0%)"> 
 <path d=" M  35.5659 135.15045 M  36.98853 135.15045 C  36.98853 135.93614 36.3516 136.57307 35.5659 136.57307 C  34.78021 136.57307 34.14328 135.93614 34.14328 135.15045 C  34.14328 134.36476 34.78021 133.72783 35.5659 133.72783 C  36.3516 133.72783 36.98853 134.36476 36.98853 135.15045 Z M  35.5659 135.15045  " /> 
 </g> 
 </g> 
 </g> 
 <g> 
 <g stroke="rgb(0.0%,0.0%,100.0%)"> 
 <g fill="rgb(0.0%,0.0%,100.0%)"> 
 <path d=" M  106.69772 7.11317 M  108.12035 7.11317 C  108.12035 7.89886 107.48341 8.5358 106.69772 8.5358 C  105.91203 8.5358 105.2751 7.89886 105.2751 7.11317 C  105.2751 6.32748 105.91203 5.69055 106.69772 5.69055 C  107.48341 5.69055 108.12035 6.32748 108.12035 7.11317 Z M  106.69772 7.11317  " /> 
 </g> 
 </g> 
 </g> 
 <g> 
 <g stroke="rgb(100.0%,100.0%,100.0%)"> 
 <g fill="rgb(100.0%,100.0%,100.0%)"> 
 <path d=" M  49.79227 7.11317 M  51.78395 7.11317 C  51.78395 8.21317 50.89226 9.10486 49.79227 9.10486 C  48.69228 9.10486 47.80058 8.21317 47.80058 7.11317 C  47.80058 6.01318 48.69228 5.12149 49.79227 5.12149 C  50.89226 5.12149 51.78395 6.01318 51.78395 7.11317 Z M  49.79227 7.11317  " /> 
 </g> 
 </g> 
 </g> 
 <g> 
 <g stroke="rgb(100.0%,100.0%,100.0%)"> 
 <g fill="rgb(100.0%,100.0%,100.0%)"> 
 <path d=" M  92.47136 135.15045 M  94.46304 135.15045 C  94.46304 136.25044 93.57135 137.14214 92.47136 137.14214 C  91.37137 137.14214 90.47968 136.25044 90.47968 135.15045 C  90.47968 134.05046 91.37137 133.15877 92.47136 133.15877 C  93.57135 133.15877 94.46304 134.05046 94.46304 135.15045 Z M  92.47136 135.15045  " /> 
 </g> 
 </g> 
 </g> 
 <g> 
 <g stroke="rgb(0.0%,0.0%,100.0%)"> 
 <g fill="rgb(0.0%,0.0%,100.0%)"> 
 <path d=" M  49.79227 7.11317 M  51.21489 7.11317 C  51.21489 7.89886 50.57796 8.5358 49.79227 8.5358 C  49.00658 8.5358 48.36964 7.89886 48.36964 7.11317 C  48.36964 6.32748 49.00658 5.69055 49.79227 5.69055 C  50.57796 5.69055 51.21489 6.32748 51.21489 7.11317 Z M  49.79227 7.11317  " /> 
 </g> 
 </g> 
 </g> 
 <g> 
 <g stroke="rgb(0.0%,0.0%,100.0%)"> 
 <g fill="rgb(0.0%,0.0%,100.0%)"> 
 <path d=" M  92.47136 135.15045 M  93.89398 135.15045 C  93.89398 135.93614 93.25705 136.57307 92.47136 136.57307 C  91.68567 136.57307 91.04874 135.93614 91.04874 135.15045 C  91.04874 134.36476 91.68567 133.72783 92.47136 133.72783 C  93.25705 133.72783 93.89398 134.36476 93.89398 135.15045 Z M  92.47136 135.15045  " /> 
 </g> 
 </g> 
 </g> 
 <g> 
 <g stroke="rgb(100.0%,100.0%,100.0%)"> 
 <g fill="rgb(100.0%,100.0%,100.0%)"> 
 <path d=" M  49.79227 21.33954 M  51.78395 21.33954 C  51.78395 22.43953 50.89226 23.33122 49.79227 23.33122 C  48.69228 23.33122 47.80058 22.43953 47.80058 21.33954 C  47.80058 20.23955 48.69228 19.34785 49.79227 19.34785 C  50.89226 19.34785 51.78395 20.23955 51.78395 21.33954 Z M  49.79227 21.33954  " /> 
 </g> 
 </g> 
 </g> 
 <g> 
 <g stroke="rgb(100.0%,100.0%,100.0%)"> 
 <g fill="rgb(100.0%,100.0%,100.0%)"> 
 <path d=" M  92.47136 120.92409 M  94.46304 120.92409 C  94.46304 122.02408 93.57135 122.91577 92.47136 122.91577 C  91.37137 122.91577 90.47968 122.02408 90.47968 120.92409 C  90.47968 119.8241 91.37137 118.9324 92.47136 118.9324 C  93.57135 118.9324 94.46304 119.8241 94.46304 120.92409 Z M  92.47136 120.92409  " /> 
 </g> 
 </g> 
 </g> 
 <g> 
 <g stroke="rgb(0.0%,0.0%,100.0%)"> 
 <g fill="rgb(0.0%,0.0%,100.0%)"> 
 <path d=" M  49.79227 21.33954 M  51.21489 21.33954 C  51.21489 22.12523 50.57796 22.76216 49.79227 22.76216 C  49.00658 22.76216 48.36964 22.12523 48.36964 21.33954 C  48.36964 20.55385 49.00658 19.91692 49.79227 19.91692 C  50.57796 19.91692 51.21489 20.55385 51.21489 21.33954 Z M  49.79227 21.33954  " /> 
 </g> 
 </g> 
 </g> 
 <g> 
 <g stroke="rgb(0.0%,0.0%,100.0%)"> 
 <g fill="rgb(0.0%,0.0%,100.0%)"> 
 <path d=" M  92.47136 120.92409 M  93.89398 120.92409 C  93.89398 121.70978 93.25705 122.34671 92.47136 122.34671 C  91.68567 122.34671 91.04874 121.70978 91.04874 120.92409 C  91.04874 120.1384 91.68567 119.50146 92.47136 119.50146 C  93.25705 119.50146 93.89398 120.1384 93.89398 120.92409 Z M  92.47136 120.92409  " /> 
 </g> 
 </g> 
 </g> 
 <g> 
 <g stroke="rgb(100.0%,100.0%,100.0%)"> 
 <g fill="rgb(100.0%,100.0%,100.0%)"> 
 <path d=" M  49.79227 35.5659 M  51.78395 35.5659 C  51.78395 36.6659 50.89226 37.55759 49.79227 37.55759 C  48.69228 37.55759 47.80058 36.6659 47.80058 35.5659 C  47.80058 34.46591 48.69228 33.57422 49.79227 33.57422 C  50.89226 33.57422 51.78395 34.46591 51.78395 35.5659 Z M  49.79227 35.5659  " /> 
 </g> 
 </g> 
 </g> 
 <g> 
 <g stroke="rgb(100.0%,100.0%,100.0%)"> 
 <g fill="rgb(100.0%,100.0%,100.0%)"> 
 <path d=" M  92.47136 106.69772 M  94.46304 106.69772 C  94.46304 107.79771 93.57135 108.6894 92.47136 108.6894 C  91.37137 108.6894 90.47968 107.79771 90.47968 106.69772 C  90.47968 105.59773 91.37137 104.70604 92.47136 104.70604 C  93.57135 104.70604 94.46304 105.59773 94.46304 106.69772 Z M  92.47136 106.69772  " /> 
 </g> 
 </g> 
 </g> 
 <g> 
 <g stroke="rgb(0.0%,0.0%,100.0%)"> 
 <g fill="rgb(0.0%,0.0%,100.0%)"> 
 <path d=" M  49.79227 35.5659 M  51.21489 35.5659 C  51.21489 36.3516 50.57796 36.98853 49.79227 36.98853 C  49.00658 36.98853 48.36964 36.3516 48.36964 35.5659 C  48.36964 34.78021 49.00658 34.14328 49.79227 34.14328 C  50.57796 34.14328 51.21489 34.78021 51.21489 35.5659 Z M  49.79227 35.5659  " /> 
 </g> 
 </g> 
 </g> 
 <g> 
 <g stroke="rgb(0.0%,0.0%,100.0%)"> 
 <g fill="rgb(0.0%,0.0%,100.0%)"> 
 <path d=" M  92.47136 106.69772 M  93.89398 106.69772 C  93.89398 107.48341 93.25705 108.12035 92.47136 108.12035 C  91.68567 108.12035 91.04874 107.48341 91.04874 106.69772 C  91.04874 105.91203 91.68567 105.2751 92.47136 105.2751 C  93.25705 105.2751 93.89398 105.91203 93.89398 106.69772 Z M  92.47136 106.69772  " /> 
 </g> 
 </g> 
 </g> 
 <g> 
 <g stroke="rgb(100.0%,100.0%,100.0%)"> 
 <g fill="rgb(100.0%,100.0%,100.0%)"> 
 <path d=" M  49.79227 49.79227 M  51.78395 49.79227 C  51.78395 50.89226 50.89226 51.78395 49.79227 51.78395 C  48.69228 51.78395 47.80058 50.89226 47.80058 49.79227 C  47.80058 48.69228 48.69228 47.80058 49.79227 47.80058 C  50.89226 47.80058 51.78395 48.69228 51.78395 49.79227 Z M  49.79227 49.79227  " /> 
 </g> 
 </g> 
 </g> 
 <g> 
 <g stroke="rgb(100.0%,100.0%,100.0%)"> 
 <g fill="rgb(100.0%,100.0%,100.0%)"> 
 <path d=" M  92.47136 92.47136 M  94.46304 92.47136 C  94.46304 93.57135 93.57135 94.46304 92.47136 94.46304 C  91.37137 94.46304 90.47968 93.57135 90.47968 92.47136 C  90.47968 91.37137 91.37137 90.47968 92.47136 90.47968 C  93.57135 90.47968 94.46304 91.37137 94.46304 92.47136 Z M  92.47136 92.47136  " /> 
 </g> 
 </g> 
 </g> 
 <g> 
 <g stroke="rgb(0.0%,0.0%,100.0%)"> 
 <g fill="rgb(0.0%,0.0%,100.0%)"> 
 <path d=" M  49.79227 49.79227 M  51.21489 49.79227 C  51.21489 50.57796 50.57796 51.21489 49.79227 51.21489 C  49.00658 51.21489 48.36964 50.57796 48.36964 49.79227 C  48.36964 49.00658 49.00658 48.36964 49.79227 48.36964 C  50.57796 48.36964 51.21489 49.00658 51.21489 49.79227 Z M  49.79227 49.79227  " /> 
 </g> 
 </g> 
 </g> 
 <g> 
 <g stroke="rgb(0.0%,0.0%,100.0%)"> 
 <g fill="rgb(0.0%,0.0%,100.0%)"> 
 <path d=" M  92.47136 92.47136 M  93.89398 92.47136 C  93.89398 93.25705 93.25705 93.89398 92.47136 93.89398 C  91.68567 93.89398 91.04874 93.25705 91.04874 92.47136 C  91.04874 91.68567 91.68567 91.04874 92.47136 91.04874 C  93.25705 91.04874 93.89398 91.68567 93.89398 92.47136 Z M  92.47136 92.47136  " /> 
 </g> 
 </g> 
 </g> 
 <g> 
 <g stroke="rgb(100.0%,100.0%,100.0%)"> 
 <g fill="rgb(100.0%,100.0%,100.0%)"> 
 <path d=" M  49.79227 64.01863 M  51.78395 64.01863 C  51.78395 65.11862 50.89226 66.01031 49.79227 66.01031 C  48.69228 66.01031 47.80058 65.11862 47.80058 64.01863 C  47.80058 62.91864 48.69228 62.02695 49.79227 62.02695 C  50.89226 62.02695 51.78395 62.91864 51.78395 64.01863 Z M  49.79227 64.01863  " /> 
 </g> 
 </g> 
 </g> 
 <g> 
 <g stroke="rgb(100.0%,100.0%,100.0%)"> 
 <g fill="rgb(100.0%,100.0%,100.0%)"> 
 <path d=" M  92.47136 78.245 M  94.46304 78.245 C  94.46304 79.34499 93.57135 80.23668 92.47136 80.23668 C  91.37137 80.23668 90.47968 79.34499 90.47968 78.245 C  90.47968 77.145 91.37137 76.25331 92.47136 76.25331 C  93.57135 76.25331 94.46304 77.145 94.46304 78.245 Z M  92.47136 78.245  " /> 
 </g> 
 </g> 
 </g> 
 <g> 
 <g stroke="rgb(0.0%,0.0%,100.0%)"> 
 <g fill="rgb(0.0%,0.0%,100.0%)"> 
 <path d=" M  49.79227 64.01863 M  51.21489 64.01863 C  51.21489 64.80432 50.57796 65.44125 49.79227 65.44125 C  49.00658 65.44125 48.36964 64.80432 48.36964 64.01863 C  48.36964 63.23294 49.00658 62.59601 49.79227 62.59601 C  50.57796 62.59601 51.21489 63.23294 51.21489 64.01863 Z M  49.79227 64.01863  " /> 
 </g> 
 </g> 
 </g> 
 <g> 
 <g stroke="rgb(0.0%,0.0%,100.0%)"> 
 <g fill="rgb(0.0%,0.0%,100.0%)"> 
 <path d=" M  92.47136 78.245 M  93.89398 78.245 C  93.89398 79.03069 93.25705 79.66762 92.47136 79.66762 C  91.68567 79.66762 91.04874 79.03069 91.04874 78.245 C  91.04874 77.4593 91.68567 76.82237 92.47136 76.82237 C  93.25705 76.82237 93.89398 77.4593 93.89398 78.245 Z M  92.47136 78.245  " /> 
 </g> 
 </g> 
 </g> 
 <g> 
 <g stroke="rgb(100.0%,100.0%,100.0%)"> 
 <g fill="rgb(100.0%,100.0%,100.0%)"> 
 <path d=" M  49.79227 135.15045 M  51.78395 135.15045 C  51.78395 136.25044 50.89226 137.14214 49.79227 137.14214 C  48.69228 137.14214 47.80058 136.25044 47.80058 135.15045 C  47.80058 134.05046 48.69228 133.15877 49.79227 133.15877 C  50.89226 133.15877 51.78395 134.05046 51.78395 135.15045 Z M  49.79227 135.15045  " /> 
 </g> 
 </g> 
 </g> 
 <g> 
 <g stroke="rgb(100.0%,100.0%,100.0%)"> 
 <g fill="rgb(100.0%,100.0%,100.0%)"> 
 <path d=" M  92.47136 7.11317 M  94.46304 7.11317 C  94.46304 8.21317 93.57135 9.10486 92.47136 9.10486 C  91.37137 9.10486 90.47968 8.21317 90.47968 7.11317 C  90.47968 6.01318 91.37137 5.12149 92.47136 5.12149 C  93.57135 5.12149 94.46304 6.01318 94.46304 7.11317 Z M  92.47136 7.11317  " /> 
 </g> 
 </g> 
 </g> 
 <g> 
 <g stroke="rgb(0.0%,0.0%,100.0%)"> 
 <g fill="rgb(0.0%,0.0%,100.0%)"> 
 <path d=" M  49.79227 135.15045 M  51.21489 135.15045 C  51.21489 135.93614 50.57796 136.57307 49.79227 136.57307 C  49.00658 136.57307 48.36964 135.93614 48.36964 135.15045 C  48.36964 134.36476 49.00658 133.72783 49.79227 133.72783 C  50.57796 133.72783 51.21489 134.36476 51.21489 135.15045 Z M  49.79227 135.15045  " /> 
 </g> 
 </g> 
 </g> 
 <g> 
 <g stroke="rgb(0.0%,0.0%,100.0%)"> 
 <g fill="rgb(0.0%,0.0%,100.0%)"> 
 <path d=" M  92.47136 7.11317 M  93.89398 7.11317 C  93.89398 7.89886 93.25705 8.5358 92.47136 8.5358 C  91.68567 8.5358 91.04874 7.89886 91.04874 7.11317 C  91.04874 6.32748 91.68567 5.69055 92.47136 5.69055 C  93.25705 5.69055 93.89398 6.32748 93.89398 7.11317 Z M  92.47136 7.11317  " /> 
 </g> 
 </g> 
 </g> 
 <g> 
 <g stroke="rgb(100.0%,100.0%,100.0%)"> 
 <g fill="rgb(100.0%,100.0%,100.0%)"> 
 <path d=" M  64.01863 7.11317 M  66.01031 7.11317 C  66.01031 8.21317 65.11862 9.10486 64.01863 9.10486 C  62.91864 9.10486 62.02695 8.21317 62.02695 7.11317 C  62.02695 6.01318 62.91864 5.12149 64.01863 5.12149 C  65.11862 5.12149 66.01031 6.01318 66.01031 7.11317 Z M  64.01863 7.11317  " /> 
 </g> 
 </g> 
 </g> 
 <g> 
 <g stroke="rgb(100.0%,100.0%,100.0%)"> 
 <g fill="rgb(100.0%,100.0%,100.0%)"> 
 <path d=" M  78.245 135.15045 M  80.23668 135.15045 C  80.23668 136.25044 79.34499 137.14214 78.245 137.14214 C  77.145 137.14214 76.25331 136.25044 76.25331 135.15045 C  76.25331 134.05046 77.145 133.15877 78.245 133.15877 C  79.34499 133.15877 80.23668 134.05046 80.23668 135.15045 Z M  78.245 135.15045  " /> 
 </g> 
 </g> 
 </g> 
 <g> 
 <g stroke="rgb(0.0%,0.0%,100.0%)"> 
 <g fill="rgb(0.0%,0.0%,100.0%)"> 
 <path d=" M  64.01863 7.11317 M  65.44125 7.11317 C  65.44125 7.89886 64.80432 8.5358 64.01863 8.5358 C  63.23294 8.5358 62.59601 7.89886 62.59601 7.11317 C  62.59601 6.32748 63.23294 5.69055 64.01863 5.69055 C  64.80432 5.69055 65.44125 6.32748 65.44125 7.11317 Z M  64.01863 7.11317  " /> 
 </g> 
 </g> 
 </g> 
 <g> 
 <g stroke="rgb(0.0%,0.0%,100.0%)"> 
 <g fill="rgb(0.0%,0.0%,100.0%)"> 
 <path d=" M  78.245 135.15045 M  79.66762 135.15045 C  79.66762 135.93614 79.03069 136.57307 78.245 136.57307 C  77.4593 136.57307 76.82237 135.93614 76.82237 135.15045 C  76.82237 134.36476 77.4593 133.72783 78.245 133.72783 C  79.03069 133.72783 79.66762 134.36476 79.66762 135.15045 Z M  78.245 135.15045  " /> 
 </g> 
 </g> 
 </g> 
 <g> 
 <g stroke="rgb(100.0%,100.0%,100.0%)"> 
 <g fill="rgb(100.0%,100.0%,100.0%)"> 
 <path d=" M  64.01863 35.5659 M  66.01031 35.5659 C  66.01031 36.6659 65.11862 37.55759 64.01863 37.55759 C  62.91864 37.55759 62.02695 36.6659 62.02695 35.5659 C  62.02695 34.46591 62.91864 33.57422 64.01863 33.57422 C  65.11862 33.57422 66.01031 34.46591 66.01031 35.5659 Z M  64.01863 35.5659  " /> 
 </g> 
 </g> 
 </g> 
 <g> 
 <g stroke="rgb(100.0%,100.0%,100.0%)"> 
 <g fill="rgb(100.0%,100.0%,100.0%)"> 
 <path d=" M  78.245 106.69772 M  80.23668 106.69772 C  80.23668 107.79771 79.34499 108.6894 78.245 108.6894 C  77.145 108.6894 76.25331 107.79771 76.25331 106.69772 C  76.25331 105.59773 77.145 104.70604 78.245 104.70604 C  79.34499 104.70604 80.23668 105.59773 80.23668 106.69772 Z M  78.245 106.69772  " /> 
 </g> 
 </g> 
 </g> 
 <g> 
 <g stroke="rgb(0.0%,0.0%,100.0%)"> 
 <g fill="rgb(0.0%,0.0%,100.0%)"> 
 <path d=" M  64.01863 35.5659 M  65.44125 35.5659 C  65.44125 36.3516 64.80432 36.98853 64.01863 36.98853 C  63.23294 36.98853 62.59601 36.3516 62.59601 35.5659 C  62.59601 34.78021 63.23294 34.14328 64.01863 34.14328 C  64.80432 34.14328 65.44125 34.78021 65.44125 35.5659 Z M  64.01863 35.5659  " /> 
 </g> 
 </g> 
 </g> 
 <g> 
 <g stroke="rgb(0.0%,0.0%,100.0%)"> 
 <g fill="rgb(0.0%,0.0%,100.0%)"> 
 <path d=" M  78.245 106.69772 M  79.66762 106.69772 C  79.66762 107.48341 79.03069 108.12035 78.245 108.12035 C  77.4593 108.12035 76.82237 107.48341 76.82237 106.69772 C  76.82237 105.91203 77.4593 105.2751 78.245 105.2751 C  79.03069 105.2751 79.66762 105.91203 79.66762 106.69772 Z M  78.245 106.69772  " /> 
 </g> 
 </g> 
 </g> 
 <g> 
 <g stroke="rgb(100.0%,100.0%,100.0%)"> 
 <g fill="rgb(100.0%,100.0%,100.0%)"> 
 <path d=" M  64.01863 49.79227 M  66.01031 49.79227 C  66.01031 50.89226 65.11862 51.78395 64.01863 51.78395 C  62.91864 51.78395 62.02695 50.89226 62.02695 49.79227 C  62.02695 48.69228 62.91864 47.80058 64.01863 47.80058 C  65.11862 47.80058 66.01031 48.69228 66.01031 49.79227 Z M  64.01863 49.79227  " /> 
 </g> 
 </g> 
 </g> 
 <g> 
 <g stroke="rgb(100.0%,100.0%,100.0%)"> 
 <g fill="rgb(100.0%,100.0%,100.0%)"> 
 <path d=" M  78.245 92.47136 M  80.23668 92.47136 C  80.23668 93.57135 79.34499 94.46304 78.245 94.46304 C  77.145 94.46304 76.25331 93.57135 76.25331 92.47136 C  76.25331 91.37137 77.145 90.47968 78.245 90.47968 C  79.34499 90.47968 80.23668 91.37137 80.23668 92.47136 Z M  78.245 92.47136  " /> 
 </g> 
 </g> 
 </g> 
 <g> 
 <g stroke="rgb(0.0%,0.0%,100.0%)"> 
 <g fill="rgb(0.0%,0.0%,100.0%)"> 
 <path d=" M  64.01863 49.79227 M  65.44125 49.79227 C  65.44125 50.57796 64.80432 51.21489 64.01863 51.21489 C  63.23294 51.21489 62.59601 50.57796 62.59601 49.79227 C  62.59601 49.00658 63.23294 48.36964 64.01863 48.36964 C  64.80432 48.36964 65.44125 49.00658 65.44125 49.79227 Z M  64.01863 49.79227  " /> 
 </g> 
 </g> 
 </g> 
 <g> 
 <g stroke="rgb(0.0%,0.0%,100.0%)"> 
 <g fill="rgb(0.0%,0.0%,100.0%)"> 
 <path d=" M  78.245 92.47136 M  79.66762 92.47136 C  79.66762 93.25705 79.03069 93.89398 78.245 93.89398 C  77.4593 93.89398 76.82237 93.25705 76.82237 92.47136 C  76.82237 91.68567 77.4593 91.04874 78.245 91.04874 C  79.03069 91.04874 79.66762 91.68567 79.66762 92.47136 Z M  78.245 92.47136  " /> 
 </g> 
 </g> 
 </g> 
 <g> 
 <g stroke="rgb(100.0%,100.0%,100.0%)"> 
 <g fill="rgb(100.0%,100.0%,100.0%)"> 
 <path d=" M  64.01863 64.01863 M  66.01031 64.01863 C  66.01031 65.11862 65.11862 66.01031 64.01863 66.01031 C  62.91864 66.01031 62.02695 65.11862 62.02695 64.01863 C  62.02695 62.91864 62.91864 62.02695 64.01863 62.02695 C  65.11862 62.02695 66.01031 62.91864 66.01031 64.01863 Z M  64.01863 64.01863  " /> 
 </g> 
 </g> 
 </g> 
 <g> 
 <g stroke="rgb(100.0%,100.0%,100.0%)"> 
 <g fill="rgb(100.0%,100.0%,100.0%)"> 
 <path d=" M  78.245 78.245 M  80.23668 78.245 C  80.23668 79.34499 79.34499 80.23668 78.245 80.23668 C  77.145 80.23668 76.25331 79.34499 76.25331 78.245 C  76.25331 77.145 77.145 76.25331 78.245 76.25331 C  79.34499 76.25331 80.23668 77.145 80.23668 78.245 Z M  78.245 78.245  " /> 
 </g> 
 </g> 
 </g> 
 <g> 
 <g stroke="rgb(0.0%,0.0%,100.0%)"> 
 <g fill="rgb(0.0%,0.0%,100.0%)"> 
 <path d=" M  64.01863 64.01863 M  65.44125 64.01863 C  65.44125 64.80432 64.80432 65.44125 64.01863 65.44125 C  63.23294 65.44125 62.59601 64.80432 62.59601 64.01863 C  62.59601 63.23294 63.23294 62.59601 64.01863 62.59601 C  64.80432 62.59601 65.44125 63.23294 65.44125 64.01863 Z M  64.01863 64.01863  " /> 
 </g> 
 </g> 
 </g> 
 <g> 
 <g stroke="rgb(0.0%,0.0%,100.0%)"> 
 <g fill="rgb(0.0%,0.0%,100.0%)"> 
 <path d=" M  78.245 78.245 M  79.66762 78.245 C  79.66762 79.03069 79.03069 79.66762 78.245 79.66762 C  77.4593 79.66762 76.82237 79.03069 76.82237 78.245 C  76.82237 77.4593 77.4593 76.82237 78.245 76.82237 C  79.03069 76.82237 79.66762 77.4593 79.66762 78.245 Z M  78.245 78.245  " /> 
 </g> 
 </g> 
 </g> 
 <g> 
 <g stroke="rgb(100.0%,100.0%,100.0%)"> 
 <g fill="rgb(100.0%,100.0%,100.0%)"> 
 <path d=" M  64.01863 92.47136 M  66.01031 92.47136 C  66.01031 93.57135 65.11862 94.46304 64.01863 94.46304 C  62.91864 94.46304 62.02695 93.57135 62.02695 92.47136 C  62.02695 91.37137 62.91864 90.47968 64.01863 90.47968 C  65.11862 90.47968 66.01031 91.37137 66.01031 92.47136 Z M  64.01863 92.47136  " /> 
 </g> 
 </g> 
 </g> 
 <g> 
 <g stroke="rgb(100.0%,100.0%,100.0%)"> 
 <g fill="rgb(100.0%,100.0%,100.0%)"> 
 <path d=" M  78.245 49.79227 M  80.23668 49.79227 C  80.23668 50.89226 79.34499 51.78395 78.245 51.78395 C  77.145 51.78395 76.25331 50.89226 76.25331 49.79227 C  76.25331 48.69228 77.145 47.80058 78.245 47.80058 C  79.34499 47.80058 80.23668 48.69228 80.23668 49.79227 Z M  78.245 49.79227  " /> 
 </g> 
 </g> 
 </g> 
 <g> 
 <g stroke="rgb(0.0%,0.0%,100.0%)"> 
 <g fill="rgb(0.0%,0.0%,100.0%)"> 
 <path d=" M  64.01863 92.47136 M  65.44125 92.47136 C  65.44125 93.25705 64.80432 93.89398 64.01863 93.89398 C  63.23294 93.89398 62.59601 93.25705 62.59601 92.47136 C  62.59601 91.68567 63.23294 91.04874 64.01863 91.04874 C  64.80432 91.04874 65.44125 91.68567 65.44125 92.47136 Z M  64.01863 92.47136  " /> 
 </g> 
 </g> 
 </g> 
 <g> 
 <g stroke="rgb(0.0%,0.0%,100.0%)"> 
 <g fill="rgb(0.0%,0.0%,100.0%)"> 
 <path d=" M  78.245 49.79227 M  79.66762 49.79227 C  79.66762 50.57796 79.03069 51.21489 78.245 51.21489 C  77.4593 51.21489 76.82237 50.57796 76.82237 49.79227 C  76.82237 49.00658 77.4593 48.36964 78.245 48.36964 C  79.03069 48.36964 79.66762 49.00658 79.66762 49.79227 Z M  78.245 49.79227  " /> 
 </g> 
 </g> 
 </g> 
 <g> 
 <g stroke="rgb(100.0%,100.0%,100.0%)"> 
 <g fill="rgb(100.0%,100.0%,100.0%)"> 
 <path d=" M  64.01863 106.69772 M  66.01031 106.69772 C  66.01031 107.79771 65.11862 108.6894 64.01863 108.6894 C  62.91864 108.6894 62.02695 107.79771 62.02695 106.69772 C  62.02695 105.59773 62.91864 104.70604 64.01863 104.70604 C  65.11862 104.70604 66.01031 105.59773 66.01031 106.69772 Z M  64.01863 106.69772  " /> 
 </g> 
 </g> 
 </g> 
 <g> 
 <g stroke="rgb(100.0%,100.0%,100.0%)"> 
 <g fill="rgb(100.0%,100.0%,100.0%)"> 
 <path d=" M  78.245 35.5659 M  80.23668 35.5659 C  80.23668 36.6659 79.34499 37.55759 78.245 37.55759 C  77.145 37.55759 76.25331 36.6659 76.25331 35.5659 C  76.25331 34.46591 77.145 33.57422 78.245 33.57422 C  79.34499 33.57422 80.23668 34.46591 80.23668 35.5659 Z M  78.245 35.5659  " /> 
 </g> 
 </g> 
 </g> 
 <g> 
 <g stroke="rgb(0.0%,0.0%,100.0%)"> 
 <g fill="rgb(0.0%,0.0%,100.0%)"> 
 <path d=" M  64.01863 106.69772 M  65.44125 106.69772 C  65.44125 107.48341 64.80432 108.12035 64.01863 108.12035 C  63.23294 108.12035 62.59601 107.48341 62.59601 106.69772 C  62.59601 105.91203 63.23294 105.2751 64.01863 105.2751 C  64.80432 105.2751 65.44125 105.91203 65.44125 106.69772 Z M  64.01863 106.69772  " /> 
 </g> 
 </g> 
 </g> 
 <g> 
 <g stroke="rgb(0.0%,0.0%,100.0%)"> 
 <g fill="rgb(0.0%,0.0%,100.0%)"> 
 <path d=" M  78.245 35.5659 M  79.66762 35.5659 C  79.66762 36.3516 79.03069 36.98853 78.245 36.98853 C  77.4593 36.98853 76.82237 36.3516 76.82237 35.5659 C  76.82237 34.78021 77.4593 34.14328 78.245 34.14328 C  79.03069 34.14328 79.66762 34.78021 79.66762 35.5659 Z M  78.245 35.5659  " /> 
 </g> 
 </g> 
 </g> 
 <g> 
 <g stroke="rgb(100.0%,100.0%,100.0%)"> 
 <g fill="rgb(100.0%,100.0%,100.0%)"> 
 <path d=" M  64.01863 135.15045 M  66.01031 135.15045 C  66.01031 136.25044 65.11862 137.14214 64.01863 137.14214 C  62.91864 137.14214 62.02695 136.25044 62.02695 135.15045 C  62.02695 134.05046 62.91864 133.15877 64.01863 133.15877 C  65.11862 133.15877 66.01031 134.05046 66.01031 135.15045 Z M  64.01863 135.15045  " /> 
 </g> 
 </g> 
 </g> 
 <g> 
 <g stroke="rgb(100.0%,100.0%,100.0%)"> 
 <g fill="rgb(100.0%,100.0%,100.0%)"> 
 <path d=" M  78.245 7.11317 M  80.23668 7.11317 C  80.23668 8.21317 79.34499 9.10486 78.245 9.10486 C  77.145 9.10486 76.25331 8.21317 76.25331 7.11317 C  76.25331 6.01318 77.145 5.12149 78.245 5.12149 C  79.34499 5.12149 80.23668 6.01318 80.23668 7.11317 Z M  78.245 7.11317  " /> 
 </g> 
 </g> 
 </g> 
 <g> 
 <g stroke="rgb(0.0%,0.0%,100.0%)"> 
 <g fill="rgb(0.0%,0.0%,100.0%)"> 
 <path d=" M  64.01863 135.15045 M  65.44125 135.15045 C  65.44125 135.93614 64.80432 136.57307 64.01863 136.57307 C  63.23294 136.57307 62.59601 135.93614 62.59601 135.15045 C  62.59601 134.36476 63.23294 133.72783 64.01863 133.72783 C  64.80432 133.72783 65.44125 134.36476 65.44125 135.15045 Z M  64.01863 135.15045  " /> 
 </g> 
 </g> 
 </g> 
 <g> 
 <g stroke="rgb(0.0%,0.0%,100.0%)"> 
 <g fill="rgb(0.0%,0.0%,100.0%)"> 
 <path d=" M  78.245 7.11317 M  79.66762 7.11317 C  79.66762 7.89886 79.03069 8.5358 78.245 8.5358 C  77.4593 8.5358 76.82237 7.89886 76.82237 7.11317 C  76.82237 6.32748 77.4593 5.69055 78.245 5.69055 C  79.03069 5.69055 79.66762 6.32748 79.66762 7.11317 Z M  78.245 7.11317  " /> 
 </g> 
 </g> 
 </g> 
 <g> 
 <g stroke="rgb(33.00018%,33.00018%,33.00018%)"> 
 <g fill="rgb(33.00018%,33.00018%,33.00018%)"> 
 <path d=" M  42.6791 128.03728 M  44.10172 128.03728 C  44.10172 128.82297 43.46478 129.4599 42.6791 129.4599 C  41.8934 129.4599 41.25647 128.82297 41.25647 128.03728 C  41.25647 127.25159 41.8934 126.61465 42.6791 126.61465 C  43.46478 126.61465 44.10172 127.25159 44.10172 128.03728 Z M  42.6791 128.03728  " /> 
 </g> 
 </g> 
 </g> 
 <g> 
 <g stroke="rgb(33.00018%,33.00018%,33.00018%)"> 
 <g fill="rgb(33.00018%,33.00018%,33.00018%)"> 
 <path d=" M  99.58455 14.22636 M  101.00717 14.22636 C  101.00717 15.01205 100.37024 15.64899 99.58455 15.64899 C  98.79886 15.64899 98.16193 15.01205 98.16193 14.22636 C  98.16193 13.44067 98.79886 12.80374 99.58455 12.80374 C  100.37024 12.80374 101.00717 13.44067 101.00717 14.22636 Z M  99.58455 14.22636  " /> 
 </g> 
 </g> 
 </g> 
 <g> 
 <g stroke="rgb(33.00018%,33.00018%,33.00018%)"> 
 <g fill="rgb(33.00018%,33.00018%,33.00018%)"> 
 <path d=" M  56.90546 128.03728 M  58.32808 128.03728 C  58.32808 128.82297 57.69115 129.4599 56.90546 129.4599 C  56.11977 129.4599 55.48283 128.82297 55.48283 128.03728 C  55.48283 127.25159 56.11977 126.61465 56.90546 126.61465 C  57.69115 126.61465 58.32808 127.25159 58.32808 128.03728 Z M  56.90546 128.03728  " /> 
 </g> 
 </g> 
 </g> 
 <g> 
 <g stroke="rgb(33.00018%,33.00018%,33.00018%)"> 
 <g fill="rgb(33.00018%,33.00018%,33.00018%)"> 
 <path d=" M  85.35818 14.22636 M  86.7808 14.22636 C  86.7808 15.01205 86.14388 15.64899 85.35818 15.64899 C  84.5725 15.64899 83.93556 15.01205 83.93556 14.22636 C  83.93556 13.44067 84.5725 12.80374 85.35818 12.80374 C  86.14388 12.80374 86.7808 13.44067 86.7808 14.22636 Z M  85.35818 14.22636  " /> 
 </g> 
 </g> 
 </g> 
 <g> 
 <g stroke="rgb(33.00018%,33.00018%,33.00018%)"> 
 <g fill="rgb(33.00018%,33.00018%,33.00018%)"> 
 <path d=" M  71.13182 128.03728 M  72.55444 128.03728 C  72.55444 128.82297 71.91751 129.4599 71.13182 129.4599 C  70.34613 129.4599 69.7092 128.82297 69.7092 128.03728 C  69.7092 127.25159 70.34613 126.61465 71.13182 126.61465 C  71.91751 126.61465 72.55444 127.25159 72.55444 128.03728 Z M  71.13182 128.03728  " /> 
 </g> 
 </g> 
 </g> 
 <g> 
 <g stroke="rgb(33.00018%,33.00018%,33.00018%)"> 
 <g fill="rgb(33.00018%,33.00018%,33.00018%)"> 
 <path d=" M  71.13182 14.22636 M  72.55444 14.22636 C  72.55444 15.01205 71.91751 15.64899 71.13182 15.64899 C  70.34613 15.64899 69.7092 15.01205 69.7092 14.22636 C  69.7092 13.44067 70.34613 12.80374 71.13182 12.80374 C  71.91751 12.80374 72.55444 13.44067 72.55444 14.22636 Z M  71.13182 14.22636  " /> 
 </g> 
 </g> 
 </g> 
 <g> 
 <g stroke="rgb(33.00018%,33.00018%,33.00018%)"> 
 <g fill="rgb(33.00018%,33.00018%,33.00018%)"> 
 <path d=" M  85.35818 128.03728 M  86.7808 128.03728 C  86.7808 128.82297 86.14388 129.4599 85.35818 129.4599 C  84.5725 129.4599 83.93556 128.82297 83.93556 128.03728 C  83.93556 127.25159 84.5725 126.61465 85.35818 126.61465 C  86.14388 126.61465 86.7808 127.25159 86.7808 128.03728 Z M  85.35818 128.03728  " /> 
 </g> 
 </g> 
 </g> 
 <g> 
 <g stroke="rgb(33.00018%,33.00018%,33.00018%)"> 
 <g fill="rgb(33.00018%,33.00018%,33.00018%)"> 
 <path d=" M  56.90546 14.22636 M  58.32808 14.22636 C  58.32808 15.01205 57.69115 15.64899 56.90546 15.64899 C  56.11977 15.64899 55.48283 15.01205 55.48283 14.22636 C  55.48283 13.44067 56.11977 12.80374 56.90546 12.80374 C  57.69115 12.80374 58.32808 13.44067 58.32808 14.22636 Z M  56.90546 14.22636  " /> 
 </g> 
 </g> 
 </g> 
 <g> 
 <g stroke="rgb(33.00018%,33.00018%,33.00018%)"> 
 <g fill="rgb(33.00018%,33.00018%,33.00018%)"> 
 <path d=" M  28.45273 113.81091 M  29.87535 113.81091 C  29.87535 114.5966 29.23842 115.23354 28.45273 115.23354 C  27.66704 115.23354 27.0301 114.5966 27.0301 113.81091 C  27.0301 113.02522 27.66704 112.38829 28.45273 112.38829 C  29.23842 112.38829 29.87535 113.02522 29.87535 113.81091 Z M  28.45273 113.81091  " /> 
 </g> 
 </g> 
 </g> 
 <g> 
 <g stroke="rgb(33.00018%,33.00018%,33.00018%)"> 
 <g fill="rgb(33.00018%,33.00018%,33.00018%)"> 
 <path d=" M  113.81091 28.45273 M  115.23354 28.45273 C  115.23354 29.23842 114.5966 29.87535 113.81091 29.87535 C  113.02522 29.87535 112.38829 29.23842 112.38829 28.45273 C  112.38829 27.66704 113.02522 27.0301 113.81091 27.0301 C  114.5966 27.0301 115.23354 27.66704 115.23354 28.45273 Z M  113.81091 28.45273  " /> 
 </g> 
 </g> 
 </g> 
 <g> 
 <g stroke="rgb(33.00018%,33.00018%,33.00018%)"> 
 <g fill="rgb(33.00018%,33.00018%,33.00018%)"> 
 <path d=" M  42.6791 113.81091 M  44.10172 113.81091 C  44.10172 114.5966 43.46478 115.23354 42.6791 115.23354 C  41.8934 115.23354 41.25647 114.5966 41.25647 113.81091 C  41.25647 113.02522 41.8934 112.38829 42.6791 112.38829 C  43.46478 112.38829 44.10172 113.02522 44.10172 113.81091 Z M  42.6791 113.81091  " /> 
 </g> 
 </g> 
 </g> 
 <g> 
 <g stroke="rgb(33.00018%,33.00018%,33.00018%)"> 
 <g fill="rgb(33.00018%,33.00018%,33.00018%)"> 
 <path d=" M  99.58455 28.45273 M  101.00717 28.45273 C  101.00717 29.23842 100.37024 29.87535 99.58455 29.87535 C  98.79886 29.87535 98.16193 29.23842 98.16193 28.45273 C  98.16193 27.66704 98.79886 27.0301 99.58455 27.0301 C  100.37024 27.0301 101.00717 27.66704 101.00717 28.45273 Z M  99.58455 28.45273  " /> 
 </g> 
 </g> 
 </g> 
 <g> 
 <g stroke="rgb(33.00018%,33.00018%,33.00018%)"> 
 <g fill="rgb(33.00018%,33.00018%,33.00018%)"> 
 <path d=" M  56.90546 113.81091 M  58.32808 113.81091 C  58.32808 114.5966 57.69115 115.23354 56.90546 115.23354 C  56.11977 115.23354 55.48283 114.5966 55.48283 113.81091 C  55.48283 113.02522 56.11977 112.38829 56.90546 112.38829 C  57.69115 112.38829 58.32808 113.02522 58.32808 113.81091 Z M  56.90546 113.81091  " /> 
 </g> 
 </g> 
 </g> 
 <g> 
 <g stroke="rgb(33.00018%,33.00018%,33.00018%)"> 
 <g fill="rgb(33.00018%,33.00018%,33.00018%)"> 
 <path d=" M  85.35818 28.45273 M  86.7808 28.45273 C  86.7808 29.23842 86.14388 29.87535 85.35818 29.87535 C  84.5725 29.87535 83.93556 29.23842 83.93556 28.45273 C  83.93556 27.66704 84.5725 27.0301 85.35818 27.0301 C  86.14388 27.0301 86.7808 27.66704 86.7808 28.45273 Z M  85.35818 28.45273  " /> 
 </g> 
 </g> 
 </g> 
 <g> 
 <g stroke="rgb(33.00018%,33.00018%,33.00018%)"> 
 <g fill="rgb(33.00018%,33.00018%,33.00018%)"> 
 <path d=" M  71.13182 113.81091 M  72.55444 113.81091 C  72.55444 114.5966 71.91751 115.23354 71.13182 115.23354 C  70.34613 115.23354 69.7092 114.5966 69.7092 113.81091 C  69.7092 113.02522 70.34613 112.38829 71.13182 112.38829 C  71.91751 112.38829 72.55444 113.02522 72.55444 113.81091 Z M  71.13182 113.81091  " /> 
 </g> 
 </g> 
 </g> 
 <g> 
 <g stroke="rgb(33.00018%,33.00018%,33.00018%)"> 
 <g fill="rgb(33.00018%,33.00018%,33.00018%)"> 
 <path d=" M  71.13182 28.45273 M  72.55444 28.45273 C  72.55444 29.23842 71.91751 29.87535 71.13182 29.87535 C  70.34613 29.87535 69.7092 29.23842 69.7092 28.45273 C  69.7092 27.66704 70.34613 27.0301 71.13182 27.0301 C  71.91751 27.0301 72.55444 27.66704 72.55444 28.45273 Z M  71.13182 28.45273  " /> 
 </g> 
 </g> 
 </g> 
 <g> 
 <g stroke="rgb(33.00018%,33.00018%,33.00018%)"> 
 <g fill="rgb(33.00018%,33.00018%,33.00018%)"> 
 <path d=" M  85.35818 113.81091 M  86.7808 113.81091 C  86.7808 114.5966 86.14388 115.23354 85.35818 115.23354 C  84.5725 115.23354 83.93556 114.5966 83.93556 113.81091 C  83.93556 113.02522 84.5725 112.38829 85.35818 112.38829 C  86.14388 112.38829 86.7808 113.02522 86.7808 113.81091 Z M  85.35818 113.81091  " /> 
 </g> 
 </g> 
 </g> 
 <g> 
 <g stroke="rgb(33.00018%,33.00018%,33.00018%)"> 
 <g fill="rgb(33.00018%,33.00018%,33.00018%)"> 
 <path d=" M  56.90546 28.45273 M  58.32808 28.45273 C  58.32808 29.23842 57.69115 29.87535 56.90546 29.87535 C  56.11977 29.87535 55.48283 29.23842 55.48283 28.45273 C  55.48283 27.66704 56.11977 27.0301 56.90546 27.0301 C  57.69115 27.0301 58.32808 27.66704 58.32808 28.45273 Z M  56.90546 28.45273  " /> 
 </g> 
 </g> 
 </g> 
 <g> 
 <g stroke="rgb(33.00018%,33.00018%,33.00018%)"> 
 <g fill="rgb(33.00018%,33.00018%,33.00018%)"> 
 <path d=" M  99.58455 113.81091 M  101.00717 113.81091 C  101.00717 114.5966 100.37024 115.23354 99.58455 115.23354 C  98.79886 115.23354 98.16193 114.5966 98.16193 113.81091 C  98.16193 113.02522 98.79886 112.38829 99.58455 112.38829 C  100.37024 112.38829 101.00717 113.02522 101.00717 113.81091 Z M  99.58455 113.81091  " /> 
 </g> 
 </g> 
 </g> 
 <g> 
 <g stroke="rgb(33.00018%,33.00018%,33.00018%)"> 
 <g fill="rgb(33.00018%,33.00018%,33.00018%)"> 
 <path d=" M  42.6791 28.45273 M  44.10172 28.45273 C  44.10172 29.23842 43.46478 29.87535 42.6791 29.87535 C  41.8934 29.87535 41.25647 29.23842 41.25647 28.45273 C  41.25647 27.66704 41.8934 27.0301 42.6791 27.0301 C  43.46478 27.0301 44.10172 27.66704 44.10172 28.45273 Z M  42.6791 28.45273  " /> 
 </g> 
 </g> 
 </g> 
 <g> 
 <g stroke="rgb(33.00018%,33.00018%,33.00018%)"> 
 <g fill="rgb(33.00018%,33.00018%,33.00018%)"> 
 <path d=" M  113.81091 113.81091 M  115.23354 113.81091 C  115.23354 114.5966 114.5966 115.23354 113.81091 115.23354 C  113.02522 115.23354 112.38829 114.5966 112.38829 113.81091 C  112.38829 113.02522 113.02522 112.38829 113.81091 112.38829 C  114.5966 112.38829 115.23354 113.02522 115.23354 113.81091 Z M  113.81091 113.81091  " /> 
 </g> 
 </g> 
 </g> 
 <g> 
 <g stroke="rgb(33.00018%,33.00018%,33.00018%)"> 
 <g fill="rgb(33.00018%,33.00018%,33.00018%)"> 
 <path d=" M  28.45273 28.45273 M  29.87535 28.45273 C  29.87535 29.23842 29.23842 29.87535 28.45273 29.87535 C  27.66704 29.87535 27.0301 29.23842 27.0301 28.45273 C  27.0301 27.66704 27.66704 27.0301 28.45273 27.0301 C  29.23842 27.0301 29.87535 27.66704 29.87535 28.45273 Z M  28.45273 28.45273  " /> 
 </g> 
 </g> 
 </g> 
 <g> 
 <g stroke="rgb(33.00018%,33.00018%,33.00018%)"> 
 <g fill="rgb(33.00018%,33.00018%,33.00018%)"> 
 <path d=" M  28.45273 99.58455 M  29.87535 99.58455 C  29.87535 100.37024 29.23842 101.00717 28.45273 101.00717 C  27.66704 101.00717 27.0301 100.37024 27.0301 99.58455 C  27.0301 98.79886 27.66704 98.16193 28.45273 98.16193 C  29.23842 98.16193 29.87535 98.79886 29.87535 99.58455 Z M  28.45273 99.58455  " /> 
 </g> 
 </g> 
 </g> 
 <g> 
 <g stroke="rgb(33.00018%,33.00018%,33.00018%)"> 
 <g fill="rgb(33.00018%,33.00018%,33.00018%)"> 
 <path d=" M  113.81091 42.6791 M  115.23354 42.6791 C  115.23354 43.46478 114.5966 44.10172 113.81091 44.10172 C  113.02522 44.10172 112.38829 43.46478 112.38829 42.6791 C  112.38829 41.8934 113.02522 41.25647 113.81091 41.25647 C  114.5966 41.25647 115.23354 41.8934 115.23354 42.6791 Z M  113.81091 42.6791  " /> 
 </g> 
 </g> 
 </g> 
 <g> 
 <g stroke="rgb(33.00018%,33.00018%,33.00018%)"> 
 <g fill="rgb(33.00018%,33.00018%,33.00018%)"> 
 <path d=" M  42.6791 99.58455 M  44.10172 99.58455 C  44.10172 100.37024 43.46478 101.00717 42.6791 101.00717 C  41.8934 101.00717 41.25647 100.37024 41.25647 99.58455 C  41.25647 98.79886 41.8934 98.16193 42.6791 98.16193 C  43.46478 98.16193 44.10172 98.79886 44.10172 99.58455 Z M  42.6791 99.58455  " /> 
 </g> 
 </g> 
 </g> 
 <g> 
 <g stroke="rgb(33.00018%,33.00018%,33.00018%)"> 
 <g fill="rgb(33.00018%,33.00018%,33.00018%)"> 
 <path d=" M  99.58455 42.6791 M  101.00717 42.6791 C  101.00717 43.46478 100.37024 44.10172 99.58455 44.10172 C  98.79886 44.10172 98.16193 43.46478 98.16193 42.6791 C  98.16193 41.8934 98.79886 41.25647 99.58455 41.25647 C  100.37024 41.25647 101.00717 41.8934 101.00717 42.6791 Z M  99.58455 42.6791  " /> 
 </g> 
 </g> 
 </g> 
 <g> 
 <g stroke="rgb(33.00018%,33.00018%,33.00018%)"> 
 <g fill="rgb(33.00018%,33.00018%,33.00018%)"> 
 <path d=" M  56.90546 99.58455 M  58.32808 99.58455 C  58.32808 100.37024 57.69115 101.00717 56.90546 101.00717 C  56.11977 101.00717 55.48283 100.37024 55.48283 99.58455 C  55.48283 98.79886 56.11977 98.16193 56.90546 98.16193 C  57.69115 98.16193 58.32808 98.79886 58.32808 99.58455 Z M  56.90546 99.58455  " /> 
 </g> 
 </g> 
 </g> 
 <g> 
 <g stroke="rgb(33.00018%,33.00018%,33.00018%)"> 
 <g fill="rgb(33.00018%,33.00018%,33.00018%)"> 
 <path d=" M  85.35818 42.6791 M  86.7808 42.6791 C  86.7808 43.46478 86.14388 44.10172 85.35818 44.10172 C  84.5725 44.10172 83.93556 43.46478 83.93556 42.6791 C  83.93556 41.8934 84.5725 41.25647 85.35818 41.25647 C  86.14388 41.25647 86.7808 41.8934 86.7808 42.6791 Z M  85.35818 42.6791  " /> 
 </g> 
 </g> 
 </g> 
 <g> 
 <g stroke="rgb(33.00018%,33.00018%,33.00018%)"> 
 <g fill="rgb(33.00018%,33.00018%,33.00018%)"> 
 <path d=" M  99.58455 99.58455 M  101.00717 99.58455 C  101.00717 100.37024 100.37024 101.00717 99.58455 101.00717 C  98.79886 101.00717 98.16193 100.37024 98.16193 99.58455 C  98.16193 98.79886 98.79886 98.16193 99.58455 98.16193 C  100.37024 98.16193 101.00717 98.79886 101.00717 99.58455 Z M  99.58455 99.58455  " /> 
 </g> 
 </g> 
 </g> 
 <g> 
 <g stroke="rgb(33.00018%,33.00018%,33.00018%)"> 
 <g fill="rgb(33.00018%,33.00018%,33.00018%)"> 
 <path d=" M  42.6791 42.6791 M  44.10172 42.6791 C  44.10172 43.46478 43.46478 44.10172 42.6791 44.10172 C  41.8934 44.10172 41.25647 43.46478 41.25647 42.6791 C  41.25647 41.8934 41.8934 41.25647 42.6791 41.25647 C  43.46478 41.25647 44.10172 41.8934 44.10172 42.6791 Z M  42.6791 42.6791  " /> 
 </g> 
 </g> 
 </g> 
 <g> 
 <g stroke="rgb(33.00018%,33.00018%,33.00018%)"> 
 <g fill="rgb(33.00018%,33.00018%,33.00018%)"> 
 <path d=" M  113.81091 99.58455 M  115.23354 99.58455 C  115.23354 100.37024 114.5966 101.00717 113.81091 101.00717 C  113.02522 101.00717 112.38829 100.37024 112.38829 99.58455 C  112.38829 98.79886 113.02522 98.16193 113.81091 98.16193 C  114.5966 98.16193 115.23354 98.79886 115.23354 99.58455 Z M  113.81091 99.58455  " /> 
 </g> 
 </g> 
 </g> 
 <g> 
 <g stroke="rgb(33.00018%,33.00018%,33.00018%)"> 
 <g fill="rgb(33.00018%,33.00018%,33.00018%)"> 
 <path d=" M  28.45273 42.6791 M  29.87535 42.6791 C  29.87535 43.46478 29.23842 44.10172 28.45273 44.10172 C  27.66704 44.10172 27.0301 43.46478 27.0301 42.6791 C  27.0301 41.8934 27.66704 41.25647 28.45273 41.25647 C  29.23842 41.25647 29.87535 41.8934 29.87535 42.6791 Z M  28.45273 42.6791  " /> 
 </g> 
 </g> 
 </g> 
 <g> 
 <g stroke="rgb(33.00018%,33.00018%,33.00018%)"> 
 <g fill="rgb(33.00018%,33.00018%,33.00018%)"> 
 <path d=" M  28.45273 85.35818 M  29.87535 85.35818 C  29.87535 86.14388 29.23842 86.7808 28.45273 86.7808 C  27.66704 86.7808 27.0301 86.14388 27.0301 85.35818 C  27.0301 84.5725 27.66704 83.93556 28.45273 83.93556 C  29.23842 83.93556 29.87535 84.5725 29.87535 85.35818 Z M  28.45273 85.35818  " /> 
 </g> 
 </g> 
 </g> 
 <g> 
 <g stroke="rgb(33.00018%,33.00018%,33.00018%)"> 
 <g fill="rgb(33.00018%,33.00018%,33.00018%)"> 
 <path d=" M  113.81091 56.90546 M  115.23354 56.90546 C  115.23354 57.69115 114.5966 58.32808 113.81091 58.32808 C  113.02522 58.32808 112.38829 57.69115 112.38829 56.90546 C  112.38829 56.11977 113.02522 55.48283 113.81091 55.48283 C  114.5966 55.48283 115.23354 56.11977 115.23354 56.90546 Z M  113.81091 56.90546  " /> 
 </g> 
 </g> 
 </g> 
 <g> 
 <g stroke="rgb(33.00018%,33.00018%,33.00018%)"> 
 <g fill="rgb(33.00018%,33.00018%,33.00018%)"> 
 <path d=" M  42.6791 85.35818 M  44.10172 85.35818 C  44.10172 86.14388 43.46478 86.7808 42.6791 86.7808 C  41.8934 86.7808 41.25647 86.14388 41.25647 85.35818 C  41.25647 84.5725 41.8934 83.93556 42.6791 83.93556 C  43.46478 83.93556 44.10172 84.5725 44.10172 85.35818 Z M  42.6791 85.35818  " /> 
 </g> 
 </g> 
 </g> 
 <g> 
 <g stroke="rgb(33.00018%,33.00018%,33.00018%)"> 
 <g fill="rgb(33.00018%,33.00018%,33.00018%)"> 
 <path d=" M  99.58455 56.90546 M  101.00717 56.90546 C  101.00717 57.69115 100.37024 58.32808 99.58455 58.32808 C  98.79886 58.32808 98.16193 57.69115 98.16193 56.90546 C  98.16193 56.11977 98.79886 55.48283 99.58455 55.48283 C  100.37024 55.48283 101.00717 56.11977 101.00717 56.90546 Z M  99.58455 56.90546  " /> 
 </g> 
 </g> 
 </g> 
 <g> 
 <g stroke="rgb(33.00018%,33.00018%,33.00018%)"> 
 <g fill="rgb(33.00018%,33.00018%,33.00018%)"> 
 <path d=" M  56.90546 85.35818 M  58.32808 85.35818 C  58.32808 86.14388 57.69115 86.7808 56.90546 86.7808 C  56.11977 86.7808 55.48283 86.14388 55.48283 85.35818 C  55.48283 84.5725 56.11977 83.93556 56.90546 83.93556 C  57.69115 83.93556 58.32808 84.5725 58.32808 85.35818 Z M  56.90546 85.35818  " /> 
 </g> 
 </g> 
 </g> 
 <g> 
 <g stroke="rgb(33.00018%,33.00018%,33.00018%)"> 
 <g fill="rgb(33.00018%,33.00018%,33.00018%)"> 
 <path d=" M  85.35818 56.90546 M  86.7808 56.90546 C  86.7808 57.69115 86.14388 58.32808 85.35818 58.32808 C  84.5725 58.32808 83.93556 57.69115 83.93556 56.90546 C  83.93556 56.11977 84.5725 55.48283 85.35818 55.48283 C  86.14388 55.48283 86.7808 56.11977 86.7808 56.90546 Z M  85.35818 56.90546  " /> 
 </g> 
 </g> 
 </g> 
 <g> 
 <g stroke="rgb(33.00018%,33.00018%,33.00018%)"> 
 <g fill="rgb(33.00018%,33.00018%,33.00018%)"> 
 <path d=" M  71.13182 85.35818 M  72.55444 85.35818 C  72.55444 86.14388 71.91751 86.7808 71.13182 86.7808 C  70.34613 86.7808 69.7092 86.14388 69.7092 85.35818 C  69.7092 84.5725 70.34613 83.93556 71.13182 83.93556 C  71.91751 83.93556 72.55444 84.5725 72.55444 85.35818 Z M  71.13182 85.35818  " /> 
 </g> 
 </g> 
 </g> 
 <g> 
 <g stroke="rgb(33.00018%,33.00018%,33.00018%)"> 
 <g fill="rgb(33.00018%,33.00018%,33.00018%)"> 
 <path d=" M  71.13182 56.90546 M  72.55444 56.90546 C  72.55444 57.69115 71.91751 58.32808 71.13182 58.32808 C  70.34613 58.32808 69.7092 57.69115 69.7092 56.90546 C  69.7092 56.11977 70.34613 55.48283 71.13182 55.48283 C  71.91751 55.48283 72.55444 56.11977 72.55444 56.90546 Z M  71.13182 56.90546  " /> 
 </g> 
 </g> 
 </g> 
 <g> 
 <g stroke="rgb(33.00018%,33.00018%,33.00018%)"> 
 <g fill="rgb(33.00018%,33.00018%,33.00018%)"> 
 <path d=" M  42.6791 71.13182 M  44.10172 71.13182 C  44.10172 71.91751 43.46478 72.55444 42.6791 72.55444 C  41.8934 72.55444 41.25647 71.91751 41.25647 71.13182 C  41.25647 70.34613 41.8934 69.7092 42.6791 69.7092 C  43.46478 69.7092 44.10172 70.34613 44.10172 71.13182 Z M  42.6791 71.13182  " /> 
 </g> 
 </g> 
 </g> 
 <g> 
 <g stroke="rgb(33.00018%,33.00018%,33.00018%)"> 
 <g fill="rgb(33.00018%,33.00018%,33.00018%)"> 
 <path d=" M  99.58455 71.13182 M  101.00717 71.13182 C  101.00717 71.91751 100.37024 72.55444 99.58455 72.55444 C  98.79886 72.55444 98.16193 71.91751 98.16193 71.13182 C  98.16193 70.34613 98.79886 69.7092 99.58455 69.7092 C  100.37024 69.7092 101.00717 70.34613 101.00717 71.13182 Z M  99.58455 71.13182  " /> 
 </g> 
 </g> 
 </g> 
 <g> 
 <g stroke="rgb(33.00018%,33.00018%,33.00018%)"> 
 <g fill="rgb(33.00018%,33.00018%,33.00018%)"> 
 <path d=" M  56.90546 71.13182 M  58.32808 71.13182 C  58.32808 71.91751 57.69115 72.55444 56.90546 72.55444 C  56.11977 72.55444 55.48283 71.91751 55.48283 71.13182 C  55.48283 70.34613 56.11977 69.7092 56.90546 69.7092 C  57.69115 69.7092 58.32808 70.34613 58.32808 71.13182 Z M  56.90546 71.13182  " /> 
 </g> 
 </g> 
 </g> 
 <g> 
 <g stroke="rgb(33.00018%,33.00018%,33.00018%)"> 
 <g fill="rgb(33.00018%,33.00018%,33.00018%)"> 
 <path d=" M  85.35818 71.13182 M  86.7808 71.13182 C  86.7808 71.91751 86.14388 72.55444 85.35818 72.55444 C  84.5725 72.55444 83.93556 71.91751 83.93556 71.13182 C  83.93556 70.34613 84.5725 69.7092 85.35818 69.7092 C  86.14388 69.7092 86.7808 70.34613 86.7808 71.13182 Z M  85.35818 71.13182  " /> 
 </g> 
 </g> 
 </g> 
 <g> 
 <g stroke="rgb(33.00018%,33.00018%,33.00018%)"> 
 <g fill="rgb(33.00018%,33.00018%,33.00018%)"> 
 <path d=" M  71.13182 71.13182 M  72.55444 71.13182 C  72.55444 71.91751 71.91751 72.55444 71.13182 72.55444 C  70.34613 72.55444 69.7092 71.91751 69.7092 71.13182 C  69.7092 70.34613 70.34613 69.7092 71.13182 69.7092 C  71.91751 69.7092 72.55444 70.34613 72.55444 71.13182 Z M  71.13182 71.13182  " /> 
 </g> 
 </g> 
 </g> 
 <g> 
 <g stroke="rgb(33.00018%,33.00018%,33.00018%)"> 
 <g fill="rgb(33.00018%,33.00018%,33.00018%)"> 
 <path d=" M  71.13182 71.13182 M  72.55444 71.13182 C  72.55444 71.91751 71.91751 72.55444 71.13182 72.55444 C  70.34613 72.55444 69.7092 71.91751 69.7092 71.13182 C  69.7092 70.34613 70.34613 69.7092 71.13182 69.7092 C  71.91751 69.7092 72.55444 70.34613 72.55444 71.13182 Z M  71.13182 71.13182  " /> 
 </g> 
 </g> 
 </g> 
 <g> 
 <g> 
 <g transform="matrix(1.0,0.0,0.0,1.0,13.31584,-16.72636)"> 
 <g fill="rgb(0.0%,0.0%,0.0%)"> 
 <text style="stroke:none" transform="scale(1,-1) translate(22.25006,0)" text-anchor="middle"  font-size="10"> 
pointels&#x00A0;&#x00A0;</text> 
</g> 
 </g> 
 </g> 
 </g> 
 <g> 
 <g stroke="rgb(0.0%,0.0%,100.0%)"> 
 <g fill="rgb(0.0%,0.0%,100.0%)"> 
 <path d=" M  64.01863 -14.22636 M  65.44125 -14.22636 C  65.44125 -13.44067 64.80432 -12.80374 64.01863 -12.80374 C  63.23294 -12.80374 62.59601 -13.44067 62.59601 -14.22636 C  62.59601 -15.01205 63.23294 -15.64899 64.01863 -15.64899 C  64.80432 -15.64899 65.44125 -15.01205 65.44125 -14.22636 Z M  64.01863 -14.22636  " /> 
 </g> 
 </g> 
 </g> 
 <g> 
 <g> 
 <g transform="matrix(1.0,0.0,0.0,1.0,88.79085,-16.72636)"> 
 <g fill="rgb(0.0%,0.0%,0.0%)"> 
 <text style="stroke:none" transform="scale(1,-1) translate(13.63892,0)" text-anchor="middle"  font-size="10"> 
lignels</text> 
</g> 
 </g> 
 </g> 
 </g> 
 <g> 
 <g stroke="rgb(0.0%,0.0%,100.0%)"> 
 <g fill="rgb(0.0%,0.0%,100.0%)"> 
 <g stroke-width="0.8pt"> 
 <path d=" M  128.03728 -14.22636 L  138.70705 -14.22636  " style="fill:none"/> 
 </g> 
 </g> 
 </g> 
 </g> 
 <g> 
 <g> 
 <g transform="matrix(1.0,0.0,0.0,1.0,96.90555,-30.95273)"> 
 <g fill="rgb(0.0%,0.0%,0.0%)"> 
 <text style="stroke:none" transform="scale(1,-1) translate(19.75058,0)" text-anchor="middle"  font-size="10"> 
<tspan font-family="cmtt" font-size="10">G</tspan><tspan font-family="cmmi" font-size="7">h</tspan> <img 
src="main7x.png" alt="(X)"  class="left" align="middle">&#x00A0;&#x00A0;</text> 
</g> 
 </g> 
 </g> 
 </g> 
 <g> 
 <g stroke="rgb(33.00018%,33.00018%,33.00018%)"> 
 <g fill="rgb(33.00018%,33.00018%,33.00018%)"> 
 <path d=" M  137.99568 -28.45273 M  139.4183 -28.45273 C  139.4183 -27.66704 138.78137 -27.0301 137.99568 -27.0301 C  137.20999 -27.0301 136.57306 -27.66704 136.57306 -28.45273 C  136.57306 -29.23842 137.20999 -29.87535 137.99568 -29.87535 C  138.78137 -29.87535 139.4183 -29.23842 139.4183 -28.45273 Z M  137.99568 -28.45273  " /> 
 </g> 
 </g> 
 </g> 
 <g> 
 <g> 
 <g transform="matrix(1.0,0.0,0.0,1.0,-0.50212,-30.95273)"> 
 <g fill="rgb(0.0%,0.0%,0.0%)"> 
 <text style="stroke:none" transform="scale(1,-1) translate(33.2228,0)" text-anchor="middle"  font-size="10"> 
<tspan font-family="cmmi" font-size="10">Bd</tspan>(<tspan font-family="cmtt" font-size="10">G</tspan><tspan font-family="cmmi" font-size="7">h</tspan> <img 
src="main8x.png" alt="(X )"  class="left" align="middle">)<tspan font-family="cmmi" font-size="10">&#x00A0;</tspan><tspan font-family="cmmi" font-size="10">&#x00A0;</tspan><tspan font-family="cmsy" font-size="10">{</tspan></text> 
</g> 
 </g> 
 </g> 
 </g> 
 <g> 
 <g> 
 <g transform="matrix(1.0,0.0,0.0,1.0,87.12613,-30.95273)"> 
 <g fill="rgb(0.0%,0.0%,0.0%)"> 
 <text style="stroke:none" transform="scale(1,-1) translate(2.5,0)" text-anchor="middle"  font-size="10"> 
<tspan font-family="cmsy" font-size="10">}</tspan></text> 
</g> 
 </g> 
 </g> 
 </g> 
 <g> 
 <g> 
 <g transform="matrix(1.0,0.0,0.0,1.0,76.85611,-32.27623)"> 
 <g fill="rgb(0.0%,0.0%,0.0%)"> 
 <text style="stroke:none" transform="scale(1,-1) translate(1.38889,0)" text-anchor="middle"  font-size="10"> 
<tspan font-family="cmmi" font-size="10">,</tspan></text> 
</g> 
 </g> 
 </g> 
 </g> 
 <g> 
 <g stroke-width="0.8pt"> 
 <g stroke="rgb(0.0%,0.0%,100.0%)"> 
 <g fill="rgb(0.0%,0.0%,100.0%)"> 
 <path d=" M  66.1525 -28.45273 L  75.39977 -28.45273  " style="fill:none"/> 
 </g> 
 </g> 
 </g> 
 </g> 
 <g> 
 <g stroke="rgb(0.0%,0.0%,100.0%)"> 
 <g fill="rgb(0.0%,0.0%,100.0%)"> 
 <path d=" M  82.51295 -28.45273 M  83.93558 -28.45273 C  83.93558 -27.66704 83.29865 -27.0301 82.51295 -27.0301 C  81.72726 -27.0301 81.09033 -27.66704 81.09033 -28.45273 C  81.09033 -29.23842 81.72726 -29.87535 82.51295 -29.87535 C  83.29865 -29.87535 83.93558 -29.23842 83.93558 -28.45273 Z M  82.51295 -28.45273  " /> 
 </g> 
 </g> 
 </g> 
 <g> 
 <g stroke-dasharray="0.4pt,1.0pt" stroke-dashoffset="0.0pt"> 
 <g stroke="rgb(0.0%,0.0%,0.0%)"> 
 <g fill="rgb(0.0%,0.0%,0.0%)"> 
 <path d=" M  0.0 142.26364 L  0.0 150.79955  " style="fill:none"/> 
 </g> 
 </g> 
 </g> 
 </g> 
 <g> 
 <g stroke-dasharray="0.4pt,1.0pt" stroke-dashoffset="0.0pt"> 
 <g stroke="rgb(0.0%,0.0%,0.0%)"> 
 <g fill="rgb(0.0%,0.0%,0.0%)"> 
 <path d=" M  14.22636 142.26364 L  14.22636 150.79955  " style="fill:none"/> 
 </g> 
 </g> 
 </g> 
 </g> 
 <g> 
 <g stroke="rgb(0.0%,0.0%,0.0%)"> 
 <g fill="rgb(0.0%,0.0%,0.0%)"> 
 <path d=" M  0.45999 145.82022 L  13.76637 145.82022  " style="fill:none"/> 
 <g> 
 <g transform="matrix(-1.0,0.0,0.0,-1.0,0.45999,145.82022)"> 
 <g> 
 <g stroke-width="0.31999pt"> 
 <g stroke-dasharray="none" stroke-dashoffset="0.0pt"> 
 <g stroke-linecap="round"> 
 <g stroke-linejoin="round"> 
 <path d=" M  -1.19998 1.59998 C  -1.09998 0.99998 0.0 0.09999 0.29999 0.0 C  0.0 -0.09999 -1.09998 -0.99998 -1.19998 -1.59998  " style="fill:none"/> 
 </g> 
 </g> 
 </g> 
 </g> 
 </g> 
 </g> 
 </g> 
 <g> 
 <g transform="matrix(1.0,0.0,0.0,1.0,13.76637,145.82022)"> 
 <g> 
 <g stroke-width="0.31999pt"> 
 <g stroke-dasharray="none" stroke-dashoffset="0.0pt"> 
 <g stroke-linecap="round"> 
 <g stroke-linejoin="round"> 
 <path d=" M  -1.19998 1.59998 C  -1.09998 0.99998 0.0 0.09999 0.29999 0.0 C  0.0 -0.09999 -1.09998 -0.99998 -1.19998 -1.59998  " style="fill:none"/> 
 </g> 
 </g> 
 </g> 
 </g> 
 </g> 
 </g> 
 </g> 
 <g> 
 <g> 
 <g transform="matrix(1.0,0.0,0.0,1.0,4.61317,149.3532)"> 
 <g fill="rgb(0.0%,0.0%,0.0%)"> 
 <text style="stroke:none" transform="scale(1,-1) translate(2.5,0)" text-anchor="middle"  font-size="10"> 
1</text> 
</g> 
 </g> 
 </g> 
 </g> 
 </g> 
 </g> 
 </g> 
 </g> 
 </g> 
 </g> 
 </g> 
 </g> 
 
                                            </g> 
</svg> 
