<?xml version="1.0" encoding="iso-8859-1" standalone="no"?> 
<?xml-stylesheet href="main.css" type="text/css"?> 
<svg xmlns="http://www.w3.org/2000/svg" xmlns:xlink="http://www.w3.org/1999/xlink" width="142.46362pt" height="142.46362pt" viewBox="-0.09999 -0.09999 142.46362 142.46362 "> 
<g transform="translate(0, 142.36363 ) scale(1,-1) translate(0,0.09999 )"> 
<g> 
 <g stroke="rgb(0.0%,0.0%,0.0%)"> 
 <g fill="rgb(0.0%,0.0%,0.0%)"> 
 <g stroke-width="0.4pt"> 
 <g> 
 <g> 
 <g stroke="rgb(50.0%,50.0%,50.0%)"> 
 <g fill="rgb(50.0%,50.0%,50.0%)"> 
 <g stroke-width="0.2pt"> 
 <path d=" M  0.0 0.0 M  0.0 0.0 L  142.26364 0.0 M  0.0 14.22636 L  142.26364 14.22636 M  0.0 28.45273 L  142.26364 28.45273 M  0.0 42.6791 L  142.26364 42.6791 M  0.0 56.90546 L  142.26364 56.90546 M  0.0 71.13182 L  142.26364 71.13182 M  0.0 85.35818 L  142.26364 85.35818 M  0.0 99.58455 L  142.26364 99.58455 M  0.0 113.81091 L  142.26364 113.81091 M  0.0 128.03728 L  142.26364 128.03728 M  0.0 142.25365 L  142.26364 142.25365 M  0.0 0.0 L  0.0 142.26364 M  14.22636 0.0 L  14.22636 142.26364 M  28.45273 0.0 L  28.45273 142.26364 M  42.6791 0.0 L  42.6791 142.26364 M  56.90546 0.0 L  56.90546 142.26364 M  71.13182 0.0 L  71.13182 142.26364 M  85.35818 0.0 L  85.35818 142.26364 M  99.58455 0.0 L  99.58455 142.26364 M  113.81091 0.0 L  113.81091 142.26364 M  128.03728 0.0 L  128.03728 142.26364 M  142.25365 0.0 L  142.25365 142.26364  " style="fill:none"/> 
 </g> 
 </g> 
 </g> 
 </g> 
 <g> 
 <g stroke="rgb(100.0%,69.9997%,69.9997%)"> 
 <g fill="rgb(100.0%,69.9997%,69.9997%)"> 
 <path d=" M  64.01863 64.01863 M  64.01863 64.01863 L  64.01863 78.245 L  78.245 78.245 L  78.245 64.01863 Z M  78.245 78.245  " /> 
 </g> 
 </g> 
 </g> 
 <g> 
 <g stroke="rgb(69.9997%,69.9997%,100.0%)"> 
 <g fill="rgb(69.9997%,69.9997%,100.0%)"> 
 <path d=" M  49.79227 49.79227 M  49.79227 49.79227 L  49.79227 64.01863 L  64.01863 64.01863 L  64.01863 49.79227 Z M  64.01863 64.01863  " /> 
 </g> 
 </g> 
 </g> 
 <g> 
 <g stroke="rgb(69.9997%,100.0%,69.9997%)"> 
 <g fill="rgb(69.9997%,100.0%,69.9997%)"> 
 <path d=" M  78.245 78.245 M  78.245 78.245 L  78.245 92.47136 L  92.47136 92.47136 L  92.47136 78.245 Z M  92.47136 92.47136  " /> 
 </g> 
 </g> 
 </g> 
 <g> 
 <g stroke="rgb(33.00018%,33.00018%,33.00018%)"> 
 <g fill="rgb(33.00018%,33.00018%,33.00018%)"> 
 <path d=" M  71.13182 71.13182 M  72.55444 71.13182 C  72.55444 71.91751 71.91751 72.55444 71.13182 72.55444 C  70.34613 72.55444 69.7092 71.91751 69.7092 71.13182 C  69.7092 70.34613 70.34613 69.7092 71.13182 69.7092 C  71.91751 69.7092 72.55444 70.34613 72.55444 71.13182 Z M  71.13182 71.13182  " /> 
 </g> 
 </g> 
 </g> 
 <g> 
 <g stroke="rgb(33.00018%,33.00018%,33.00018%)"> 
 <g fill="rgb(33.00018%,33.00018%,33.00018%)"> 
 <path d=" M  71.13182 71.13182 M  72.55444 71.13182 C  72.55444 71.91751 71.91751 72.55444 71.13182 72.55444 C  70.34613 72.55444 69.7092 71.91751 69.7092 71.13182 C  69.7092 70.34613 70.34613 69.7092 71.13182 69.7092 C  71.91751 69.7092 72.55444 70.34613 72.55444 71.13182 Z M  71.13182 71.13182  " /> 
 </g> 
 </g> 
 </g> 
 <g> 
 <g stroke="rgb(33.00018%,33.00018%,33.00018%)"> 
 <g fill="rgb(33.00018%,33.00018%,33.00018%)"> 
 <path d=" M  56.90546 56.90546 M  58.32808 56.90546 C  58.32808 57.69115 57.69115 58.32808 56.90546 58.32808 C  56.11977 58.32808 55.48283 57.69115 55.48283 56.90546 C  55.48283 56.11977 56.11977 55.48283 56.90546 55.48283 C  57.69115 55.48283 58.32808 56.11977 58.32808 56.90546 Z M  56.90546 56.90546  " /> 
 </g> 
 </g> 
 </g> 
 <g> 
 <g stroke="rgb(33.00018%,33.00018%,33.00018%)"> 
 <g fill="rgb(33.00018%,33.00018%,33.00018%)"> 
 <path d=" M  85.35818 85.35818 M  86.7808 85.35818 C  86.7808 86.14388 86.14388 86.7808 85.35818 86.7808 C  84.5725 86.7808 83.93556 86.14388 83.93556 85.35818 C  83.93556 84.5725 84.5725 83.93556 85.35818 83.93556 C  86.14388 83.93556 86.7808 84.5725 86.7808 85.35818 Z M  85.35818 85.35818  " /> 
 </g> 
 </g> 
 </g> 
 <g> 
 <g stroke="rgb(33.00018%,33.00018%,33.00018%)"> 
 <g fill="rgb(33.00018%,33.00018%,33.00018%)"> 
 <path d=" M  85.35818 85.35818 M  86.7808 85.35818 C  86.7808 86.14388 86.14388 86.7808 85.35818 86.7808 C  84.5725 86.7808 83.93556 86.14388 83.93556 85.35818 C  83.93556 84.5725 84.5725 83.93556 85.35818 83.93556 C  86.14388 83.93556 86.7808 84.5725 86.7808 85.35818 Z M  85.35818 85.35818  " /> 
 </g> 
 </g> 
 </g> 
 <g> 
 <g stroke="rgb(33.00018%,33.00018%,33.00018%)"> 
 <g fill="rgb(33.00018%,33.00018%,33.00018%)"> 
 <path d=" M  56.90546 56.90546 M  58.32808 56.90546 C  58.32808 57.69115 57.69115 58.32808 56.90546 58.32808 C  56.11977 58.32808 55.48283 57.69115 55.48283 56.90546 C  55.48283 56.11977 56.11977 55.48283 56.90546 55.48283 C  57.69115 55.48283 58.32808 56.11977 58.32808 56.90546 Z M  56.90546 56.90546  " /> 
 </g> 
 </g> 
 </g> 
 </g> 
 </g> 
 </g> 
 </g> 
 </g> 
                                      </g> 
</svg> 
