<?xml version="1.0" encoding="iso-8859-1" standalone="no"?> 
<?xml-stylesheet href="main.css" type="text/css"?> 
<svg xmlns="http://www.w3.org/2000/svg" xmlns:xlink="http://www.w3.org/1999/xlink" width="142.46362pt" height="142.46362pt" viewBox="-0.09999 -0.09999 142.46362 142.46362 "> 
<g transform="translate(0, 142.36363 ) scale(1,-1) translate(0,0.09999 )"> 
<g> 
 <g stroke="rgb(0.0%,0.0%,0.0%)"> 
 <g fill="rgb(0.0%,0.0%,0.0%)"> 
 <g stroke-width="0.4pt"> 
 <g> 
 <g> 
 <g stroke="rgb(50.0%,50.0%,50.0%)"> 
 <g fill="rgb(50.0%,50.0%,50.0%)"> 
 <g stroke-width="0.2pt"> 
 <path d=" M  0.0 0.0 M  0.0 0.0 L  142.26364 0.0 M  0.0 14.22636 L  142.26364 14.22636 M  0.0 28.45273 L  142.26364 28.45273 M  0.0 42.6791 L  142.26364 42.6791 M  0.0 56.90546 L  142.26364 56.90546 M  0.0 71.13182 L  142.26364 71.13182 M  0.0 85.35818 L  142.26364 85.35818 M  0.0 99.58455 L  142.26364 99.58455 M  0.0 113.81091 L  142.26364 113.81091 M  0.0 128.03728 L  142.26364 128.03728 M  0.0 142.25365 L  142.26364 142.25365 M  0.0 0.0 L  0.0 142.26364 M  14.22636 0.0 L  14.22636 142.26364 M  28.45273 0.0 L  28.45273 142.26364 M  42.6791 0.0 L  42.6791 142.26364 M  56.90546 0.0 L  56.90546 142.26364 M  71.13182 0.0 L  71.13182 142.26364 M  85.35818 0.0 L  85.35818 142.26364 M  99.58455 0.0 L  99.58455 142.26364 M  113.81091 0.0 L  113.81091 142.26364 M  128.03728 0.0 L  128.03728 142.26364 M  142.25365 0.0 L  142.25365 142.26364  " style="fill:none"/> 
 </g> 
 </g> 
 </g> 
 </g> 
 <g> 
 <g> 
 <g transform="matrix(1.0,0.0,0.0,1.0,71.13182,71.13182)"> 
 <g fill="rgb(0.0%,0.0%,0.0%)"> 
 <text style="stroke:none" transform="scale(1,-1) translate(0.0,0)" text-anchor="middle"  font-size="10"> 
</text> 
</g> 
 </g> 
 </g> 
 </g> 
 <g> 
 <g stroke-width="0.8pt"> 
 <g stroke="rgb(100.0%,58.99963%,0.0%)"> 
 <g fill="rgb(100.0%,58.99963%,0.0%)"> 
 <g stroke-opacity="0.25"> 
 <g fill-opacity="0.25"> 
 <path d=" M  71.13182 71.13182 M  113.81091 71.13182 C  113.81091 94.70313 94.70313 113.81091 71.13182 113.81091 C  47.56052 113.81091 28.45273 94.70313 28.45273 71.13182 C  28.45273 47.56052 47.56052 28.45273 71.13182 28.45273 C  94.70313 28.45273 113.81091 47.56052 113.81091 71.13182 Z M  71.13182 71.13182  " /> 
 </g> 
 </g> 
 </g> 
 </g> 
 </g> 
 </g> 
 <g> 
 <g stroke-width="0.8pt"> 
 <g stroke="rgb(100.0%,58.99963%,0.0%)"> 
 <g fill="rgb(100.0%,58.99963%,0.0%)"> 
 <path d=" M  71.13182 71.13182 M  113.81091 71.13182 C  113.81091 94.70313 94.70313 113.81091 71.13182 113.81091 C  47.56052 113.81091 28.45273 94.70313 28.45273 71.13182 C  28.45273 47.56052 47.56052 28.45273 71.13182 28.45273 C  94.70313 28.45273 113.81091 47.56052 113.81091 71.13182 Z M  71.13182 71.13182  " style="fill:none"/> 
 </g> 
 </g> 
 </g> 
 </g> 
 <g> 
 <g stroke-width="0.8pt"> 
 <g stroke="rgb(33.00018%,33.00018%,33.00018%)"> 
 <g fill="rgb(33.00018%,33.00018%,33.00018%)"> 
 <path d=" M  28.45273 71.13182 M  29.87544 71.13182 C  29.87544 71.91757 29.23848 72.55453 28.45273 72.55453 C  27.66698 72.55453 27.03001 71.91757 27.03001 71.13182 C  27.03001 70.34607 27.66698 69.7091 28.45273 69.7091 C  29.23848 69.7091 29.87544 70.34607 29.87544 71.13182 Z M  28.45273 71.13182  " /> 
 </g> 
 </g> 
 </g> 
 </g> 
 <g> 
 <g stroke-width="0.8pt"> 
 <g stroke="rgb(33.00018%,33.00018%,33.00018%)"> 
 <g fill="rgb(33.00018%,33.00018%,33.00018%)"> 
 <path d=" M  42.6791 42.6791 M  44.1018 42.6791 C  44.1018 43.46484 43.46484 44.1018 42.6791 44.1018 C  41.89334 44.1018 41.25638 43.46484 41.25638 42.6791 C  41.25638 41.89334 41.89334 41.25638 42.6791 41.25638 C  43.46484 41.25638 44.1018 41.89334 44.1018 42.6791 Z M  42.6791 42.6791  " /> 
 </g> 
 </g> 
 </g> 
 </g> 
 <g> 
 <g stroke-width="0.8pt"> 
 <g stroke="rgb(33.00018%,33.00018%,33.00018%)"> 
 <g fill="rgb(33.00018%,33.00018%,33.00018%)"> 
 <path d=" M  42.6791 56.90546 M  44.1018 56.90546 C  44.1018 57.69121 43.46484 58.32817 42.6791 58.32817 C  41.89334 58.32817 41.25638 57.69121 41.25638 56.90546 C  41.25638 56.1197 41.89334 55.48274 42.6791 55.48274 C  43.46484 55.48274 44.1018 56.1197 44.1018 56.90546 Z M  42.6791 56.90546  " /> 
 </g> 
 </g> 
 </g> 
 </g> 
 <g> 
 <g stroke-width="0.8pt"> 
 <g stroke="rgb(33.00018%,33.00018%,33.00018%)"> 
 <g fill="rgb(33.00018%,33.00018%,33.00018%)"> 
 <path d=" M  42.6791 71.13182 M  44.1018 71.13182 C  44.1018 71.91757 43.46484 72.55453 42.6791 72.55453 C  41.89334 72.55453 41.25638 71.91757 41.25638 71.13182 C  41.25638 70.34607 41.89334 69.7091 42.6791 69.7091 C  43.46484 69.7091 44.1018 70.34607 44.1018 71.13182 Z M  42.6791 71.13182  " /> 
 </g> 
 </g> 
 </g> 
 </g> 
 <g> 
 <g stroke-width="0.8pt"> 
 <g stroke="rgb(33.00018%,33.00018%,33.00018%)"> 
 <g fill="rgb(33.00018%,33.00018%,33.00018%)"> 
 <path d=" M  42.6791 85.35818 M  44.1018 85.35818 C  44.1018 86.14394 43.46484 86.7809 42.6791 86.7809 C  41.89334 86.7809 41.25638 86.14394 41.25638 85.35818 C  41.25638 84.57243 41.89334 83.93547 42.6791 83.93547 C  43.46484 83.93547 44.1018 84.57243 44.1018 85.35818 Z M  42.6791 85.35818  " /> 
 </g> 
 </g> 
 </g> 
 </g> 
 <g> 
 <g stroke-width="0.8pt"> 
 <g stroke="rgb(33.00018%,33.00018%,33.00018%)"> 
 <g fill="rgb(33.00018%,33.00018%,33.00018%)"> 
 <path d=" M  42.6791 99.58455 M  44.1018 99.58455 C  44.1018 100.3703 43.46484 101.00726 42.6791 101.00726 C  41.89334 101.00726 41.25638 100.3703 41.25638 99.58455 C  41.25638 98.7988 41.89334 98.16183 42.6791 98.16183 C  43.46484 98.16183 44.1018 98.7988 44.1018 99.58455 Z M  42.6791 99.58455  " /> 
 </g> 
 </g> 
 </g> 
 </g> 
 <g> 
 <g stroke-width="0.8pt"> 
 <g stroke="rgb(33.00018%,33.00018%,33.00018%)"> 
 <g fill="rgb(33.00018%,33.00018%,33.00018%)"> 
 <path d=" M  56.90546 42.6791 M  58.32817 42.6791 C  58.32817 43.46484 57.69121 44.1018 56.90546 44.1018 C  56.1197 44.1018 55.48274 43.46484 55.48274 42.6791 C  55.48274 41.89334 56.1197 41.25638 56.90546 41.25638 C  57.69121 41.25638 58.32817 41.89334 58.32817 42.6791 Z M  56.90546 42.6791  " /> 
 </g> 
 </g> 
 </g> 
 </g> 
 <g> 
 <g stroke-width="0.8pt"> 
 <g stroke="rgb(33.00018%,33.00018%,33.00018%)"> 
 <g fill="rgb(33.00018%,33.00018%,33.00018%)"> 
 <path d=" M  56.90546 56.90546 M  58.32817 56.90546 C  58.32817 57.69121 57.69121 58.32817 56.90546 58.32817 C  56.1197 58.32817 55.48274 57.69121 55.48274 56.90546 C  55.48274 56.1197 56.1197 55.48274 56.90546 55.48274 C  57.69121 55.48274 58.32817 56.1197 58.32817 56.90546 Z M  56.90546 56.90546  " /> 
 </g> 
 </g> 
 </g> 
 </g> 
 <g> 
 <g stroke-width="0.8pt"> 
 <g stroke="rgb(33.00018%,33.00018%,33.00018%)"> 
 <g fill="rgb(33.00018%,33.00018%,33.00018%)"> 
 <path d=" M  56.90546 71.13182 M  58.32817 71.13182 C  58.32817 71.91757 57.69121 72.55453 56.90546 72.55453 C  56.1197 72.55453 55.48274 71.91757 55.48274 71.13182 C  55.48274 70.34607 56.1197 69.7091 56.90546 69.7091 C  57.69121 69.7091 58.32817 70.34607 58.32817 71.13182 Z M  56.90546 71.13182  " /> 
 </g> 
 </g> 
 </g> 
 </g> 
 <g> 
 <g stroke-width="0.8pt"> 
 <g stroke="rgb(33.00018%,33.00018%,33.00018%)"> 
 <g fill="rgb(33.00018%,33.00018%,33.00018%)"> 
 <path d=" M  56.90546 85.35818 M  58.32817 85.35818 C  58.32817 86.14394 57.69121 86.7809 56.90546 86.7809 C  56.1197 86.7809 55.48274 86.14394 55.48274 85.35818 C  55.48274 84.57243 56.1197 83.93547 56.90546 83.93547 C  57.69121 83.93547 58.32817 84.57243 58.32817 85.35818 Z M  56.90546 85.35818  " /> 
 </g> 
 </g> 
 </g> 
 </g> 
 <g> 
 <g stroke-width="0.8pt"> 
 <g stroke="rgb(33.00018%,33.00018%,33.00018%)"> 
 <g fill="rgb(33.00018%,33.00018%,33.00018%)"> 
 <path d=" M  56.90546 99.58455 M  58.32817 99.58455 C  58.32817 100.3703 57.69121 101.00726 56.90546 101.00726 C  56.1197 101.00726 55.48274 100.3703 55.48274 99.58455 C  55.48274 98.7988 56.1197 98.16183 56.90546 98.16183 C  57.69121 98.16183 58.32817 98.7988 58.32817 99.58455 Z M  56.90546 99.58455  " /> 
 </g> 
 </g> 
 </g> 
 </g> 
 <g> 
 <g stroke-width="0.8pt"> 
 <g stroke="rgb(33.00018%,33.00018%,33.00018%)"> 
 <g fill="rgb(33.00018%,33.00018%,33.00018%)"> 
 <path d=" M  71.13182 28.45273 M  72.55453 28.45273 C  72.55453 29.23848 71.91757 29.87544 71.13182 29.87544 C  70.34607 29.87544 69.7091 29.23848 69.7091 28.45273 C  69.7091 27.66698 70.34607 27.03001 71.13182 27.03001 C  71.91757 27.03001 72.55453 27.66698 72.55453 28.45273 Z M  71.13182 28.45273  " /> 
 </g> 
 </g> 
 </g> 
 </g> 
 <g> 
 <g stroke-width="0.8pt"> 
 <g stroke="rgb(33.00018%,33.00018%,33.00018%)"> 
 <g fill="rgb(33.00018%,33.00018%,33.00018%)"> 
 <path d=" M  71.13182 42.6791 M  72.55453 42.6791 C  72.55453 43.46484 71.91757 44.1018 71.13182 44.1018 C  70.34607 44.1018 69.7091 43.46484 69.7091 42.6791 C  69.7091 41.89334 70.34607 41.25638 71.13182 41.25638 C  71.91757 41.25638 72.55453 41.89334 72.55453 42.6791 Z M  71.13182 42.6791  " /> 
 </g> 
 </g> 
 </g> 
 </g> 
 <g> 
 <g stroke-width="0.8pt"> 
 <g stroke="rgb(33.00018%,33.00018%,33.00018%)"> 
 <g fill="rgb(33.00018%,33.00018%,33.00018%)"> 
 <path d=" M  71.13182 56.90546 M  72.55453 56.90546 C  72.55453 57.69121 71.91757 58.32817 71.13182 58.32817 C  70.34607 58.32817 69.7091 57.69121 69.7091 56.90546 C  69.7091 56.1197 70.34607 55.48274 71.13182 55.48274 C  71.91757 55.48274 72.55453 56.1197 72.55453 56.90546 Z M  71.13182 56.90546  " /> 
 </g> 
 </g> 
 </g> 
 </g> 
 <g> 
 <g stroke-width="0.8pt"> 
 <g stroke="rgb(33.00018%,33.00018%,33.00018%)"> 
 <g fill="rgb(33.00018%,33.00018%,33.00018%)"> 
 <path d=" M  71.13182 71.13182 M  72.55453 71.13182 C  72.55453 71.91757 71.91757 72.55453 71.13182 72.55453 C  70.34607 72.55453 69.7091 71.91757 69.7091 71.13182 C  69.7091 70.34607 70.34607 69.7091 71.13182 69.7091 C  71.91757 69.7091 72.55453 70.34607 72.55453 71.13182 Z M  71.13182 71.13182  " /> 
 </g> 
 </g> 
 </g> 
 </g> 
 <g> 
 <g stroke-width="0.8pt"> 
 <g stroke="rgb(33.00018%,33.00018%,33.00018%)"> 
 <g fill="rgb(33.00018%,33.00018%,33.00018%)"> 
 <path d=" M  71.13182 85.35818 M  72.55453 85.35818 C  72.55453 86.14394 71.91757 86.7809 71.13182 86.7809 C  70.34607 86.7809 69.7091 86.14394 69.7091 85.35818 C  69.7091 84.57243 70.34607 83.93547 71.13182 83.93547 C  71.91757 83.93547 72.55453 84.57243 72.55453 85.35818 Z M  71.13182 85.35818  " /> 
 </g> 
 </g> 
 </g> 
 </g> 
 <g> 
 <g stroke-width="0.8pt"> 
 <g stroke="rgb(33.00018%,33.00018%,33.00018%)"> 
 <g fill="rgb(33.00018%,33.00018%,33.00018%)"> 
 <path d=" M  71.13182 99.58455 M  72.55453 99.58455 C  72.55453 100.3703 71.91757 101.00726 71.13182 101.00726 C  70.34607 101.00726 69.7091 100.3703 69.7091 99.58455 C  69.7091 98.7988 70.34607 98.16183 71.13182 98.16183 C  71.91757 98.16183 72.55453 98.7988 72.55453 99.58455 Z M  71.13182 99.58455  " /> 
 </g> 
 </g> 
 </g> 
 </g> 
 <g> 
 <g stroke-width="0.8pt"> 
 <g stroke="rgb(33.00018%,33.00018%,33.00018%)"> 
 <g fill="rgb(33.00018%,33.00018%,33.00018%)"> 
 <path d=" M  71.13182 113.81091 M  72.55453 113.81091 C  72.55453 114.59666 71.91757 115.23363 71.13182 115.23363 C  70.34607 115.23363 69.7091 114.59666 69.7091 113.81091 C  69.7091 113.02516 70.34607 112.3882 71.13182 112.3882 C  71.91757 112.3882 72.55453 113.02516 72.55453 113.81091 Z M  71.13182 113.81091  " /> 
 </g> 
 </g> 
 </g> 
 </g> 
 <g> 
 <g stroke-width="0.8pt"> 
 <g stroke="rgb(33.00018%,33.00018%,33.00018%)"> 
 <g fill="rgb(33.00018%,33.00018%,33.00018%)"> 
 <path d=" M  85.35818 42.6791 M  86.7809 42.6791 C  86.7809 43.46484 86.14394 44.1018 85.35818 44.1018 C  84.57243 44.1018 83.93547 43.46484 83.93547 42.6791 C  83.93547 41.89334 84.57243 41.25638 85.35818 41.25638 C  86.14394 41.25638 86.7809 41.89334 86.7809 42.6791 Z M  85.35818 42.6791  " /> 
 </g> 
 </g> 
 </g> 
 </g> 
 <g> 
 <g stroke-width="0.8pt"> 
 <g stroke="rgb(33.00018%,33.00018%,33.00018%)"> 
 <g fill="rgb(33.00018%,33.00018%,33.00018%)"> 
 <path d=" M  85.35818 56.90546 M  86.7809 56.90546 C  86.7809 57.69121 86.14394 58.32817 85.35818 58.32817 C  84.57243 58.32817 83.93547 57.69121 83.93547 56.90546 C  83.93547 56.1197 84.57243 55.48274 85.35818 55.48274 C  86.14394 55.48274 86.7809 56.1197 86.7809 56.90546 Z M  85.35818 56.90546  " /> 
 </g> 
 </g> 
 </g> 
 </g> 
 <g> 
 <g stroke-width="0.8pt"> 
 <g stroke="rgb(33.00018%,33.00018%,33.00018%)"> 
 <g fill="rgb(33.00018%,33.00018%,33.00018%)"> 
 <path d=" M  85.35818 71.13182 M  86.7809 71.13182 C  86.7809 71.91757 86.14394 72.55453 85.35818 72.55453 C  84.57243 72.55453 83.93547 71.91757 83.93547 71.13182 C  83.93547 70.34607 84.57243 69.7091 85.35818 69.7091 C  86.14394 69.7091 86.7809 70.34607 86.7809 71.13182 Z M  85.35818 71.13182  " /> 
 </g> 
 </g> 
 </g> 
 </g> 
 <g> 
 <g stroke-width="0.8pt"> 
 <g stroke="rgb(33.00018%,33.00018%,33.00018%)"> 
 <g fill="rgb(33.00018%,33.00018%,33.00018%)"> 
 <path d=" M  85.35818 85.35818 M  86.7809 85.35818 C  86.7809 86.14394 86.14394 86.7809 85.35818 86.7809 C  84.57243 86.7809 83.93547 86.14394 83.93547 85.35818 C  83.93547 84.57243 84.57243 83.93547 85.35818 83.93547 C  86.14394 83.93547 86.7809 84.57243 86.7809 85.35818 Z M  85.35818 85.35818  " /> 
 </g> 
 </g> 
 </g> 
 </g> 
 <g> 
 <g stroke-width="0.8pt"> 
 <g stroke="rgb(33.00018%,33.00018%,33.00018%)"> 
 <g fill="rgb(33.00018%,33.00018%,33.00018%)"> 
 <path d=" M  85.35818 99.58455 M  86.7809 99.58455 C  86.7809 100.3703 86.14394 101.00726 85.35818 101.00726 C  84.57243 101.00726 83.93547 100.3703 83.93547 99.58455 C  83.93547 98.7988 84.57243 98.16183 85.35818 98.16183 C  86.14394 98.16183 86.7809 98.7988 86.7809 99.58455 Z M  85.35818 99.58455  " /> 
 </g> 
 </g> 
 </g> 
 </g> 
 <g> 
 <g stroke-width="0.8pt"> 
 <g stroke="rgb(33.00018%,33.00018%,33.00018%)"> 
 <g fill="rgb(33.00018%,33.00018%,33.00018%)"> 
 <path d=" M  99.58455 42.6791 M  101.00726 42.6791 C  101.00726 43.46484 100.3703 44.1018 99.58455 44.1018 C  98.7988 44.1018 98.16183 43.46484 98.16183 42.6791 C  98.16183 41.89334 98.7988 41.25638 99.58455 41.25638 C  100.3703 41.25638 101.00726 41.89334 101.00726 42.6791 Z M  99.58455 42.6791  " /> 
 </g> 
 </g> 
 </g> 
 </g> 
 <g> 
 <g stroke-width="0.8pt"> 
 <g stroke="rgb(33.00018%,33.00018%,33.00018%)"> 
 <g fill="rgb(33.00018%,33.00018%,33.00018%)"> 
 <path d=" M  99.58455 56.90546 M  101.00726 56.90546 C  101.00726 57.69121 100.3703 58.32817 99.58455 58.32817 C  98.7988 58.32817 98.16183 57.69121 98.16183 56.90546 C  98.16183 56.1197 98.7988 55.48274 99.58455 55.48274 C  100.3703 55.48274 101.00726 56.1197 101.00726 56.90546 Z M  99.58455 56.90546  " /> 
 </g> 
 </g> 
 </g> 
 </g> 
 <g> 
 <g stroke-width="0.8pt"> 
 <g stroke="rgb(33.00018%,33.00018%,33.00018%)"> 
 <g fill="rgb(33.00018%,33.00018%,33.00018%)"> 
 <path d=" M  99.58455 71.13182 M  101.00726 71.13182 C  101.00726 71.91757 100.3703 72.55453 99.58455 72.55453 C  98.7988 72.55453 98.16183 71.91757 98.16183 71.13182 C  98.16183 70.34607 98.7988 69.7091 99.58455 69.7091 C  100.3703 69.7091 101.00726 70.34607 101.00726 71.13182 Z M  99.58455 71.13182  " /> 
 </g> 
 </g> 
 </g> 
 </g> 
 <g> 
 <g stroke-width="0.8pt"> 
 <g stroke="rgb(33.00018%,33.00018%,33.00018%)"> 
 <g fill="rgb(33.00018%,33.00018%,33.00018%)"> 
 <path d=" M  99.58455 85.35818 M  101.00726 85.35818 C  101.00726 86.14394 100.3703 86.7809 99.58455 86.7809 C  98.7988 86.7809 98.16183 86.14394 98.16183 85.35818 C  98.16183 84.57243 98.7988 83.93547 99.58455 83.93547 C  100.3703 83.93547 101.00726 84.57243 101.00726 85.35818 Z M  99.58455 85.35818  " /> 
 </g> 
 </g> 
 </g> 
 </g> 
 <g> 
 <g stroke-width="0.8pt"> 
 <g stroke="rgb(33.00018%,33.00018%,33.00018%)"> 
 <g fill="rgb(33.00018%,33.00018%,33.00018%)"> 
 <path d=" M  99.58455 99.58455 M  101.00726 99.58455 C  101.00726 100.3703 100.3703 101.00726 99.58455 101.00726 C  98.7988 101.00726 98.16183 100.3703 98.16183 99.58455 C  98.16183 98.7988 98.7988 98.16183 99.58455 98.16183 C  100.3703 98.16183 101.00726 98.7988 101.00726 99.58455 Z M  99.58455 99.58455  " /> 
 </g> 
 </g> 
 </g> 
 </g> 
 <g> 
 <g stroke-width="0.8pt"> 
 <g stroke="rgb(33.00018%,33.00018%,33.00018%)"> 
 <g fill="rgb(33.00018%,33.00018%,33.00018%)"> 
 <path d=" M  113.81091 71.13182 M  115.23363 71.13182 C  115.23363 71.91757 114.59666 72.55453 113.81091 72.55453 C  113.02516 72.55453 112.3882 71.91757 112.3882 71.13182 C  112.3882 70.34607 113.02516 69.7091 113.81091 69.7091 C  114.59666 69.7091 115.23363 70.34607 115.23363 71.13182 Z M  113.81091 71.13182  " /> 
 </g> 
 </g> 
 </g> 
 </g> 
 </g> 
 </g> 
 </g> 
 </g> 
 </g> 
                                            </g> 
</svg> 
