<?xml version="1.0" encoding="iso-8859-1" standalone="no"?> 
<?xml-stylesheet href="main.css" type="text/css"?> 
<svg xmlns="http://www.w3.org/2000/svg" xmlns:xlink="http://www.w3.org/1999/xlink" width="142.86363pt" height="182.18994pt" viewBox="-0.2 -22.55934 142.86363 182.18994 "> 
<g transform="translate(0, 159.6306 ) scale(1,-1) translate(0,22.55934 )"> 
<g> 
 <g stroke="rgb(0.0%,0.0%,0.0%)"> 
 <g fill="rgb(0.0%,0.0%,0.0%)"> 
 <g stroke-width="0.4pt"> 
 <g> 
 <g> 
 <g stroke="rgb(100.0%,69.9997%,69.9997%)"> 
 <g fill="rgb(100.0%,69.9997%,69.9997%)"> 
 <path d=" M  35.5659 120.92409 M  35.5659 120.92409 L  35.5659 135.15045 L  49.79227 135.15045 L  49.79227 120.92409 Z M  49.79227 135.15045  " /> 
 </g> 
 </g> 
 </g> 
 <g> 
 <g stroke="rgb(100.0%,69.9997%,69.9997%)"> 
 <g fill="rgb(100.0%,69.9997%,69.9997%)"> 
 <path d=" M  92.47136 7.11317 M  92.47136 7.11317 L  92.47136 21.33954 L  106.69772 21.33954 L  106.69772 7.11317 Z M  106.69772 21.33954  " /> 
 </g> 
 </g> 
 </g> 
 <g> 
 <g stroke="rgb(100.0%,69.9997%,69.9997%)"> 
 <g fill="rgb(100.0%,69.9997%,69.9997%)"> 
 <path d=" M  49.79227 120.92409 M  49.79227 120.92409 L  49.79227 135.15045 L  64.01863 135.15045 L  64.01863 120.92409 Z M  64.01863 135.15045  " /> 
 </g> 
 </g> 
 </g> 
 <g> 
 <g stroke="rgb(100.0%,69.9997%,69.9997%)"> 
 <g fill="rgb(100.0%,69.9997%,69.9997%)"> 
 <path d=" M  78.245 7.11317 M  78.245 7.11317 L  78.245 21.33954 L  92.47136 21.33954 L  92.47136 7.11317 Z M  92.47136 21.33954  " /> 
 </g> 
 </g> 
 </g> 
 <g> 
 <g stroke="rgb(100.0%,69.9997%,69.9997%)"> 
 <g fill="rgb(100.0%,69.9997%,69.9997%)"> 
 <path d=" M  64.01863 120.92409 M  64.01863 120.92409 L  64.01863 135.15045 L  78.245 135.15045 L  78.245 120.92409 Z M  78.245 135.15045  " /> 
 </g> 
 </g> 
 </g> 
 <g> 
 <g stroke="rgb(100.0%,69.9997%,69.9997%)"> 
 <g fill="rgb(100.0%,69.9997%,69.9997%)"> 
 <path d=" M  64.01863 7.11317 M  64.01863 7.11317 L  64.01863 21.33954 L  78.245 21.33954 L  78.245 7.11317 Z M  78.245 21.33954  " /> 
 </g> 
 </g> 
 </g> 
 <g> 
 <g stroke="rgb(100.0%,69.9997%,69.9997%)"> 
 <g fill="rgb(100.0%,69.9997%,69.9997%)"> 
 <path d=" M  78.245 120.92409 M  78.245 120.92409 L  78.245 135.15045 L  92.47136 135.15045 L  92.47136 120.92409 Z M  92.47136 135.15045  " /> 
 </g> 
 </g> 
 </g> 
 <g> 
 <g stroke="rgb(100.0%,69.9997%,69.9997%)"> 
 <g fill="rgb(100.0%,69.9997%,69.9997%)"> 
 <path d=" M  49.79227 7.11317 M  49.79227 7.11317 L  49.79227 21.33954 L  64.01863 21.33954 L  64.01863 7.11317 Z M  64.01863 21.33954  " /> 
 </g> 
 </g> 
 </g> 
 <g> 
 <g stroke="rgb(100.0%,69.9997%,69.9997%)"> 
 <g fill="rgb(100.0%,69.9997%,69.9997%)"> 
 <path d=" M  21.33954 106.69772 M  21.33954 106.69772 L  21.33954 120.92409 L  35.5659 120.92409 L  35.5659 106.69772 Z M  35.5659 120.92409  " /> 
 </g> 
 </g> 
 </g> 
 <g> 
 <g stroke="rgb(100.0%,69.9997%,69.9997%)"> 
 <g fill="rgb(100.0%,69.9997%,69.9997%)"> 
 <path d=" M  106.69772 21.33954 M  106.69772 21.33954 L  106.69772 35.5659 L  120.92409 35.5659 L  120.92409 21.33954 Z M  120.92409 35.5659  " /> 
 </g> 
 </g> 
 </g> 
 <g> 
 <g stroke="rgb(100.0%,69.9997%,69.9997%)"> 
 <g fill="rgb(100.0%,69.9997%,69.9997%)"> 
 <path d=" M  35.5659 106.69772 M  35.5659 106.69772 L  35.5659 120.92409 L  49.79227 120.92409 L  49.79227 106.69772 Z M  49.79227 120.92409  " /> 
 </g> 
 </g> 
 </g> 
 <g> 
 <g stroke="rgb(100.0%,69.9997%,69.9997%)"> 
 <g fill="rgb(100.0%,69.9997%,69.9997%)"> 
 <path d=" M  92.47136 21.33954 M  92.47136 21.33954 L  92.47136 35.5659 L  106.69772 35.5659 L  106.69772 21.33954 Z M  106.69772 35.5659  " /> 
 </g> 
 </g> 
 </g> 
 <g> 
 <g stroke="rgb(100.0%,69.9997%,69.9997%)"> 
 <g fill="rgb(100.0%,69.9997%,69.9997%)"> 
 <path d=" M  49.79227 106.69772 M  49.79227 106.69772 L  49.79227 120.92409 L  64.01863 120.92409 L  64.01863 106.69772 Z M  64.01863 120.92409  " /> 
 </g> 
 </g> 
 </g> 
 <g> 
 <g stroke="rgb(100.0%,69.9997%,69.9997%)"> 
 <g fill="rgb(100.0%,69.9997%,69.9997%)"> 
 <path d=" M  78.245 21.33954 M  78.245 21.33954 L  78.245 35.5659 L  92.47136 35.5659 L  92.47136 21.33954 Z M  92.47136 35.5659  " /> 
 </g> 
 </g> 
 </g> 
 <g> 
 <g stroke="rgb(100.0%,69.9997%,69.9997%)"> 
 <g fill="rgb(100.0%,69.9997%,69.9997%)"> 
 <path d=" M  64.01863 106.69772 M  64.01863 106.69772 L  64.01863 120.92409 L  78.245 120.92409 L  78.245 106.69772 Z M  78.245 120.92409  " /> 
 </g> 
 </g> 
 </g> 
 <g> 
 <g stroke="rgb(100.0%,69.9997%,69.9997%)"> 
 <g fill="rgb(100.0%,69.9997%,69.9997%)"> 
 <path d=" M  64.01863 21.33954 M  64.01863 21.33954 L  64.01863 35.5659 L  78.245 35.5659 L  78.245 21.33954 Z M  78.245 35.5659  " /> 
 </g> 
 </g> 
 </g> 
 <g> 
 <g stroke="rgb(100.0%,69.9997%,69.9997%)"> 
 <g fill="rgb(100.0%,69.9997%,69.9997%)"> 
 <path d=" M  78.245 106.69772 M  78.245 106.69772 L  78.245 120.92409 L  92.47136 120.92409 L  92.47136 106.69772 Z M  92.47136 120.92409  " /> 
 </g> 
 </g> 
 </g> 
 <g> 
 <g stroke="rgb(100.0%,69.9997%,69.9997%)"> 
 <g fill="rgb(100.0%,69.9997%,69.9997%)"> 
 <path d=" M  49.79227 21.33954 M  49.79227 21.33954 L  49.79227 35.5659 L  64.01863 35.5659 L  64.01863 21.33954 Z M  64.01863 35.5659  " /> 
 </g> 
 </g> 
 </g> 
 <g> 
 <g stroke="rgb(100.0%,69.9997%,69.9997%)"> 
 <g fill="rgb(100.0%,69.9997%,69.9997%)"> 
 <path d=" M  92.47136 106.69772 M  92.47136 106.69772 L  92.47136 120.92409 L  106.69772 120.92409 L  106.69772 106.69772 Z M  106.69772 120.92409  " /> 
 </g> 
 </g> 
 </g> 
 <g> 
 <g stroke="rgb(100.0%,69.9997%,69.9997%)"> 
 <g fill="rgb(100.0%,69.9997%,69.9997%)"> 
 <path d=" M  35.5659 21.33954 M  35.5659 21.33954 L  35.5659 35.5659 L  49.79227 35.5659 L  49.79227 21.33954 Z M  49.79227 35.5659  " /> 
 </g> 
 </g> 
 </g> 
 <g> 
 <g stroke="rgb(100.0%,69.9997%,69.9997%)"> 
 <g fill="rgb(100.0%,69.9997%,69.9997%)"> 
 <path d=" M  106.69772 106.69772 M  106.69772 106.69772 L  106.69772 120.92409 L  120.92409 120.92409 L  120.92409 106.69772 Z M  120.92409 120.92409  " /> 
 </g> 
 </g> 
 </g> 
 <g> 
 <g stroke="rgb(100.0%,69.9997%,69.9997%)"> 
 <g fill="rgb(100.0%,69.9997%,69.9997%)"> 
 <path d=" M  21.33954 21.33954 M  21.33954 21.33954 L  21.33954 35.5659 L  35.5659 35.5659 L  35.5659 21.33954 Z M  35.5659 35.5659  " /> 
 </g> 
 </g> 
 </g> 
 <g> 
 <g stroke="rgb(100.0%,69.9997%,69.9997%)"> 
 <g fill="rgb(100.0%,69.9997%,69.9997%)"> 
 <path d=" M  21.33954 92.47136 M  21.33954 92.47136 L  21.33954 106.69772 L  35.5659 106.69772 L  35.5659 92.47136 Z M  35.5659 106.69772  " /> 
 </g> 
 </g> 
 </g> 
 <g> 
 <g stroke="rgb(100.0%,69.9997%,69.9997%)"> 
 <g fill="rgb(100.0%,69.9997%,69.9997%)"> 
 <path d=" M  106.69772 35.5659 M  106.69772 35.5659 L  106.69772 49.79227 L  120.92409 49.79227 L  120.92409 35.5659 Z M  120.92409 49.79227  " /> 
 </g> 
 </g> 
 </g> 
 <g> 
 <g stroke="rgb(100.0%,69.9997%,69.9997%)"> 
 <g fill="rgb(100.0%,69.9997%,69.9997%)"> 
 <path d=" M  35.5659 92.47136 M  35.5659 92.47136 L  35.5659 106.69772 L  49.79227 106.69772 L  49.79227 92.47136 Z M  49.79227 106.69772  " /> 
 </g> 
 </g> 
 </g> 
 <g> 
 <g stroke="rgb(100.0%,69.9997%,69.9997%)"> 
 <g fill="rgb(100.0%,69.9997%,69.9997%)"> 
 <path d=" M  92.47136 35.5659 M  92.47136 35.5659 L  92.47136 49.79227 L  106.69772 49.79227 L  106.69772 35.5659 Z M  106.69772 49.79227  " /> 
 </g> 
 </g> 
 </g> 
 <g> 
 <g stroke="rgb(100.0%,69.9997%,69.9997%)"> 
 <g fill="rgb(100.0%,69.9997%,69.9997%)"> 
 <path d=" M  49.79227 92.47136 M  49.79227 92.47136 L  49.79227 106.69772 L  64.01863 106.69772 L  64.01863 92.47136 Z M  64.01863 106.69772  " /> 
 </g> 
 </g> 
 </g> 
 <g> 
 <g stroke="rgb(100.0%,69.9997%,69.9997%)"> 
 <g fill="rgb(100.0%,69.9997%,69.9997%)"> 
 <path d=" M  78.245 35.5659 M  78.245 35.5659 L  78.245 49.79227 L  92.47136 49.79227 L  92.47136 35.5659 Z M  92.47136 49.79227  " /> 
 </g> 
 </g> 
 </g> 
 <g> 
 <g stroke="rgb(100.0%,69.9997%,69.9997%)"> 
 <g fill="rgb(100.0%,69.9997%,69.9997%)"> 
 <path d=" M  92.47136 92.47136 M  92.47136 92.47136 L  92.47136 106.69772 L  106.69772 106.69772 L  106.69772 92.47136 Z M  106.69772 106.69772  " /> 
 </g> 
 </g> 
 </g> 
 <g> 
 <g stroke="rgb(100.0%,69.9997%,69.9997%)"> 
 <g fill="rgb(100.0%,69.9997%,69.9997%)"> 
 <path d=" M  35.5659 35.5659 M  35.5659 35.5659 L  35.5659 49.79227 L  49.79227 49.79227 L  49.79227 35.5659 Z M  49.79227 49.79227  " /> 
 </g> 
 </g> 
 </g> 
 <g> 
 <g stroke="rgb(100.0%,69.9997%,69.9997%)"> 
 <g fill="rgb(100.0%,69.9997%,69.9997%)"> 
 <path d=" M  106.69772 92.47136 M  106.69772 92.47136 L  106.69772 106.69772 L  120.92409 106.69772 L  120.92409 92.47136 Z M  120.92409 106.69772  " /> 
 </g> 
 </g> 
 </g> 
 <g> 
 <g stroke="rgb(100.0%,69.9997%,69.9997%)"> 
 <g fill="rgb(100.0%,69.9997%,69.9997%)"> 
 <path d=" M  21.33954 35.5659 M  21.33954 35.5659 L  21.33954 49.79227 L  35.5659 49.79227 L  35.5659 35.5659 Z M  35.5659 49.79227  " /> 
 </g> 
 </g> 
 </g> 
 <g> 
 <g stroke="rgb(100.0%,69.9997%,69.9997%)"> 
 <g fill="rgb(100.0%,69.9997%,69.9997%)"> 
 <path d=" M  21.33954 78.245 M  21.33954 78.245 L  21.33954 92.47136 L  35.5659 92.47136 L  35.5659 78.245 Z M  35.5659 92.47136  " /> 
 </g> 
 </g> 
 </g> 
 <g> 
 <g stroke="rgb(100.0%,69.9997%,69.9997%)"> 
 <g fill="rgb(100.0%,69.9997%,69.9997%)"> 
 <path d=" M  106.69772 49.79227 M  106.69772 49.79227 L  106.69772 64.01863 L  120.92409 64.01863 L  120.92409 49.79227 Z M  120.92409 64.01863  " /> 
 </g> 
 </g> 
 </g> 
 <g> 
 <g stroke="rgb(100.0%,69.9997%,69.9997%)"> 
 <g fill="rgb(100.0%,69.9997%,69.9997%)"> 
 <path d=" M  35.5659 78.245 M  35.5659 78.245 L  35.5659 92.47136 L  49.79227 92.47136 L  49.79227 78.245 Z M  49.79227 92.47136  " /> 
 </g> 
 </g> 
 </g> 
 <g> 
 <g stroke="rgb(100.0%,69.9997%,69.9997%)"> 
 <g fill="rgb(100.0%,69.9997%,69.9997%)"> 
 <path d=" M  92.47136 49.79227 M  92.47136 49.79227 L  92.47136 64.01863 L  106.69772 64.01863 L  106.69772 49.79227 Z M  106.69772 64.01863  " /> 
 </g> 
 </g> 
 </g> 
 <g> 
 <g stroke="rgb(100.0%,69.9997%,69.9997%)"> 
 <g fill="rgb(100.0%,69.9997%,69.9997%)"> 
 <path d=" M  49.79227 78.245 M  49.79227 78.245 L  49.79227 92.47136 L  64.01863 92.47136 L  64.01863 78.245 Z M  64.01863 92.47136  " /> 
 </g> 
 </g> 
 </g> 
 <g> 
 <g stroke="rgb(100.0%,69.9997%,69.9997%)"> 
 <g fill="rgb(100.0%,69.9997%,69.9997%)"> 
 <path d=" M  78.245 49.79227 M  78.245 49.79227 L  78.245 64.01863 L  92.47136 64.01863 L  92.47136 49.79227 Z M  92.47136 64.01863  " /> 
 </g> 
 </g> 
 </g> 
 <g> 
 <g stroke="rgb(100.0%,69.9997%,69.9997%)"> 
 <g fill="rgb(100.0%,69.9997%,69.9997%)"> 
 <path d=" M  64.01863 78.245 M  64.01863 78.245 L  64.01863 92.47136 L  78.245 92.47136 L  78.245 78.245 Z M  78.245 92.47136  " /> 
 </g> 
 </g> 
 </g> 
 <g> 
 <g stroke="rgb(100.0%,69.9997%,69.9997%)"> 
 <g fill="rgb(100.0%,69.9997%,69.9997%)"> 
 <path d=" M  64.01863 49.79227 M  64.01863 49.79227 L  64.01863 64.01863 L  78.245 64.01863 L  78.245 49.79227 Z M  78.245 64.01863  " /> 
 </g> 
 </g> 
 </g> 
 <g> 
 <g stroke="rgb(100.0%,69.9997%,69.9997%)"> 
 <g fill="rgb(100.0%,69.9997%,69.9997%)"> 
 <path d=" M  35.5659 64.01863 M  35.5659 64.01863 L  35.5659 78.245 L  49.79227 78.245 L  49.79227 64.01863 Z M  49.79227 78.245  " /> 
 </g> 
 </g> 
 </g> 
 <g> 
 <g stroke="rgb(100.0%,69.9997%,69.9997%)"> 
 <g fill="rgb(100.0%,69.9997%,69.9997%)"> 
 <path d=" M  92.47136 64.01863 M  92.47136 64.01863 L  92.47136 78.245 L  106.69772 78.245 L  106.69772 64.01863 Z M  106.69772 78.245  " /> 
 </g> 
 </g> 
 </g> 
 <g> 
 <g stroke="rgb(100.0%,69.9997%,69.9997%)"> 
 <g fill="rgb(100.0%,69.9997%,69.9997%)"> 
 <path d=" M  49.79227 64.01863 M  49.79227 64.01863 L  49.79227 78.245 L  64.01863 78.245 L  64.01863 64.01863 Z M  64.01863 78.245  " /> 
 </g> 
 </g> 
 </g> 
 <g> 
 <g stroke="rgb(100.0%,69.9997%,69.9997%)"> 
 <g fill="rgb(100.0%,69.9997%,69.9997%)"> 
 <path d=" M  78.245 64.01863 M  78.245 64.01863 L  78.245 78.245 L  92.47136 78.245 L  92.47136 64.01863 Z M  92.47136 78.245  " /> 
 </g> 
 </g> 
 </g> 
 <g> 
 <g stroke="rgb(100.0%,69.9997%,69.9997%)"> 
 <g fill="rgb(100.0%,69.9997%,69.9997%)"> 
 <path d=" M  64.01863 64.01863 M  64.01863 64.01863 L  64.01863 78.245 L  78.245 78.245 L  78.245 64.01863 Z M  78.245 78.245  " /> 
 </g> 
 </g> 
 </g> 
 <g> 
 <g stroke="rgb(100.0%,69.9997%,69.9997%)"> 
 <g fill="rgb(100.0%,69.9997%,69.9997%)"> 
 <path d=" M  64.01863 64.01863 M  64.01863 64.01863 L  64.01863 78.245 L  78.245 78.245 L  78.245 64.01863 Z M  78.245 78.245  " /> 
 </g> 
 </g> 
 </g> 
 <g> 
 <g stroke="rgb(100.0%,0.0%,0.0%)"> 
 <g fill="rgb(100.0%,0.0%,0.0%)"> 
 <g stroke-width="0.8pt"> 
 <path d=" M  35.5659 135.15045 L  92.47136 135.15045 L  92.47136 120.92409 L  120.92409 120.92409 L  120.92409 92.47136 L  92.47136 92.47136 L  92.47136 106.69772 L  64.01863 106.69772 L  64.01863 92.47136 L  78.245 92.47136 L  78.245 78.245 L  106.69772 78.245 L  106.69772 64.01863 L  120.92409 64.01863 L  120.92409 21.33954 L  106.69772 21.33954 L  106.69772 7.11317 L  49.79227 7.11317 L  49.79227 21.33954 L  21.33954 21.33954 L  21.33954 49.79227 L  49.79227 49.79227 L  49.79227 35.5659 L  78.245 35.5659 L  78.245 49.79227 L  64.01863 49.79227 L  64.01863 64.01863 L  35.5659 64.01863 L  35.5659 78.245 L  21.33954 78.245 L  21.33954 120.92409 L  35.5659 120.92409 Z  " style="fill:none"/> 
 </g> 
 </g> 
 </g> 
 </g> 
 <g> 
 <g stroke="rgb(50.0%,50.0%,50.0%)"> 
 <g fill="rgb(50.0%,50.0%,50.0%)"> 
 <g stroke-width="0.2pt"> 
 <path d=" M  0.0 0.0 M  0.0 0.0 L  142.26364 0.0 M  0.0 14.22636 L  142.26364 14.22636 M  0.0 28.45273 L  142.26364 28.45273 M  0.0 42.6791 L  142.26364 42.6791 M  0.0 56.90546 L  142.26364 56.90546 M  0.0 71.13182 L  142.26364 71.13182 M  0.0 85.35818 L  142.26364 85.35818 M  0.0 99.58455 L  142.26364 99.58455 M  0.0 113.81091 L  142.26364 113.81091 M  0.0 128.03728 L  142.26364 128.03728 M  0.0 142.25365 L  142.26364 142.25365 M  0.0 0.0 L  0.0 142.26364 M  14.22636 0.0 L  14.22636 142.26364 M  28.45273 0.0 L  28.45273 142.26364 M  42.6791 0.0 L  42.6791 142.26364 M  56.90546 0.0 L  56.90546 142.26364 M  71.13182 0.0 L  71.13182 142.26364 M  85.35818 0.0 L  85.35818 142.26364 M  99.58455 0.0 L  99.58455 142.26364 M  113.81091 0.0 L  113.81091 142.26364 M  128.03728 0.0 L  128.03728 142.26364 M  142.25365 0.0 L  142.25365 142.26364  " style="fill:none"/> 
 </g> 
 </g> 
 </g> 
 </g> 
 <g> 
 <g> 
 <g transform="matrix(1.0,0.0,0.0,1.0,10.44667,-16.72636)"> 
 <g fill="rgb(0.0%,0.0%,0.0%)"> 
 <text style="stroke:none" transform="scale(1,-1) translate(25.11923,0)" text-anchor="middle"  font-size="10"> 
[<tspan font-family="cmtt" font-size="10">G</tspan><tspan font-family="cmmi" font-size="7">h</tspan><img 
src="main5x.png" alt="(X )"  class="left" align="middle">]<tspan font-family="cmmi" font-size="7">h</tspan>&#x00A0;&#x00A0;</text> 
</g> 
 </g> 
 </g> 
 </g> 
 <g> 
 <g stroke="rgb(100.0%,69.9997%,69.9997%)"> 
 <g fill="rgb(100.0%,69.9997%,69.9997%)"> 
 <g> 
 <g stroke="rgb(100.0%,69.9997%,69.9997%)"> 
 <g fill="rgb(100.0%,69.9997%,69.9997%)"> 
 <path d=" M  55.40785 -19.71211 h  17.22156 v  10.9715 h  -17.22156 Z  " style="stroke:none"/> 
 </g> 
 </g> 
 </g> 
 <g> 
 <g transform="matrix(1.0,0.0,0.0,1.0,58.74083,-16.37914)"> 
 <g fill="rgb(100.0%,69.9997%,69.9997%)"> 
 <text style="stroke:none" transform="scale(1,-1) translate(5.2778,0)" text-anchor="middle"  font-size="10"> 
&#x00A0;&#x00A0;</text> 
</g> 
 </g> 
 </g> 
 </g> 
 </g> 
 </g> 
 <g> 
 <g> 
 <g transform="matrix(1.0,0.0,0.0,1.0,79.65604,-16.72636)"> 
 <g fill="rgb(0.0%,0.0%,0.0%)"> 
 <text style="stroke:none" transform="scale(1,-1) translate(22.77373,0)" text-anchor="middle"  font-size="10"> 
<tspan font-family="cmmi" font-size="10">&#x2202;</tspan>[<tspan font-family="cmtt" font-size="10">G</tspan><tspan font-family="cmmi" font-size="7">h</tspan> <img 
src="main6x.png" alt="(X)"  class="left" align="middle">]<tspan font-family="cmmi" font-size="7">h</tspan></text> 
</g> 
 </g> 
 </g> 
 </g> 
 <g> 
 <g stroke="rgb(100.0%,0.0%,0.0%)"> 
 <g fill="rgb(100.0%,0.0%,0.0%)"> 
 <g stroke-width="0.8pt"> 
 <path d=" M  128.03728 -14.22636 L  142.26364 -14.22636  " style="fill:none"/> 
 </g> 
 </g> 
 </g> 
 </g> 
 <g> 
 <g stroke-dasharray="0.4pt,1.0pt" stroke-dashoffset="0.0pt"> 
 <g stroke="rgb(0.0%,0.0%,0.0%)"> 
 <g fill="rgb(0.0%,0.0%,0.0%)"> 
 <path d=" M  0.0 142.26364 L  0.0 150.79955  " style="fill:none"/> 
 </g> 
 </g> 
 </g> 
 </g> 
 <g> 
 <g stroke-dasharray="0.4pt,1.0pt" stroke-dashoffset="0.0pt"> 
 <g stroke="rgb(0.0%,0.0%,0.0%)"> 
 <g fill="rgb(0.0%,0.0%,0.0%)"> 
 <path d=" M  14.22636 142.26364 L  14.22636 150.79955  " style="fill:none"/> 
 </g> 
 </g> 
 </g> 
 </g> 
 <g> 
 <g stroke="rgb(0.0%,0.0%,0.0%)"> 
 <g fill="rgb(0.0%,0.0%,0.0%)"> 
 <path d=" M  0.45999 145.82022 L  13.76637 145.82022  " style="fill:none"/> 
 <g> 
 <g transform="matrix(-1.0,0.0,0.0,-1.0,0.45999,145.82022)"> 
 <g> 
 <g stroke-width="0.31999pt"> 
 <g stroke-dasharray="none" stroke-dashoffset="0.0pt"> 
 <g stroke-linecap="round"> 
 <g stroke-linejoin="round"> 
 <path d=" M  -1.19998 1.59998 C  -1.09998 0.99998 0.0 0.09999 0.29999 0.0 C  0.0 -0.09999 -1.09998 -0.99998 -1.19998 -1.59998  " style="fill:none"/> 
 </g> 
 </g> 
 </g> 
 </g> 
 </g> 
 </g> 
 </g> 
 <g> 
 <g transform="matrix(1.0,0.0,0.0,1.0,13.76637,145.82022)"> 
 <g> 
 <g stroke-width="0.31999pt"> 
 <g stroke-dasharray="none" stroke-dashoffset="0.0pt"> 
 <g stroke-linecap="round"> 
 <g stroke-linejoin="round"> 
 <path d=" M  -1.19998 1.59998 C  -1.09998 0.99998 0.0 0.09999 0.29999 0.0 C  0.0 -0.09999 -1.09998 -0.99998 -1.19998 -1.59998  " style="fill:none"/> 
 </g> 
 </g> 
 </g> 
 </g> 
 </g> 
 </g> 
 </g> 
 <g> 
 <g> 
 <g transform="matrix(1.0,0.0,0.0,1.0,4.23239,149.3532)"> 
 <g fill="rgb(0.0%,0.0%,0.0%)"> 
 <text style="stroke:none" transform="scale(1,-1) translate(2.88078,0)" text-anchor="middle"  font-size="10"> 
<tspan font-family="cmmi" font-size="10">h</tspan></text> 
</g> 
 </g> 
 </g> 
 </g> 
 </g> 
 </g> 
 </g> 
 </g> 
 </g> 
 </g> 
 </g> 
 </g> 
 
                                    </g> 
</svg> 
