<?xml version="1.0" encoding="iso-8859-1" standalone="no"?> 
<?xml-stylesheet href="main.css" type="text/css"?> 
<svg xmlns="http://www.w3.org/2000/svg" xmlns:xlink="http://www.w3.org/1999/xlink" width="142.46362pt" height="142.46362pt" viewBox="-0.09999 -0.09999 142.46362 142.46362 "> 
<g transform="translate(0, 142.36363 ) scale(1,-1) translate(0,0.09999 )"> 
<g> 
 <g stroke="rgb(0.0%,0.0%,0.0%)"> 
 <g fill="rgb(0.0%,0.0%,0.0%)"> 
 <g stroke-width="0.4pt"> 
 <g> 
 <g> 
 <g stroke="rgb(50.0%,50.0%,50.0%)"> 
 <g fill="rgb(50.0%,50.0%,50.0%)"> 
 <g stroke-width="0.2pt"> 
 <path d=" M  0.0 0.0 M  0.0 0.0 L  142.26364 0.0 M  0.0 14.22636 L  142.26364 14.22636 M  0.0 28.45273 L  142.26364 28.45273 M  0.0 42.6791 L  142.26364 42.6791 M  0.0 56.90546 L  142.26364 56.90546 M  0.0 71.13182 L  142.26364 71.13182 M  0.0 85.35818 L  142.26364 85.35818 M  0.0 99.58455 L  142.26364 99.58455 M  0.0 113.81091 L  142.26364 113.81091 M  0.0 128.03728 L  142.26364 128.03728 M  0.0 142.25365 L  142.26364 142.25365 M  0.0 0.0 L  0.0 142.26364 M  14.22636 0.0 L  14.22636 142.26364 M  28.45273 0.0 L  28.45273 142.26364 M  42.6791 0.0 L  42.6791 142.26364 M  56.90546 0.0 L  56.90546 142.26364 M  71.13182 0.0 L  71.13182 142.26364 M  85.35818 0.0 L  85.35818 142.26364 M  99.58455 0.0 L  99.58455 142.26364 M  113.81091 0.0 L  113.81091 142.26364 M  128.03728 0.0 L  128.03728 142.26364 M  142.25365 0.0 L  142.25365 142.26364  " style="fill:none"/> 
 </g> 
 </g> 
 </g> 
 </g> 
 <g> 
 <g> 
 <g transform="matrix(1.0,0.0,0.0,1.0,71.13182,71.13182)"> 
 <g fill="rgb(0.0%,0.0%,0.0%)"> 
 <text style="stroke:none" transform="scale(1,-1) translate(0.0,0)" text-anchor="middle"  font-size="10"> 
</text> 
</g> 
 </g> 
 </g> 
 </g> 
 <g> 
 <g stroke-width="0.8pt"> 
 <g stroke="rgb(100.0%,58.99963%,0.0%)"> 
 <g fill="rgb(100.0%,58.99963%,0.0%)"> 
 <g stroke-opacity="0.25"> 
 <g fill-opacity="0.25"> 
 <path d=" M  71.13182 71.13182 M  92.47136 71.13182 C  92.47136 82.91747 82.91747 92.47136 71.13182 92.47136 C  59.34618 92.47136 49.79228 82.91747 49.79228 71.13182 C  49.79228 59.34618 59.34618 49.79228 71.13182 49.79228 C  82.91747 49.79228 92.47136 59.34618 92.47136 71.13182 Z M  71.13182 71.13182  " /> 
 </g> 
 </g> 
 </g> 
 </g> 
 </g> 
 </g> 
 <g> 
 <g stroke-width="0.8pt"> 
 <g stroke="rgb(100.0%,58.99963%,0.0%)"> 
 <g fill="rgb(100.0%,58.99963%,0.0%)"> 
 <path d=" M  71.13182 71.13182 M  92.47136 71.13182 C  92.47136 82.91747 82.91747 92.47136 71.13182 92.47136 C  59.34618 92.47136 49.79228 82.91747 49.79228 71.13182 C  49.79228 59.34618 59.34618 49.79228 71.13182 49.79228 C  82.91747 49.79228 92.47136 59.34618 92.47136 71.13182 Z M  71.13182 71.13182  " style="fill:none"/> 
 </g> 
 </g> 
 </g> 
 </g> 
 <g> 
 <g stroke-width="0.8pt"> 
 <g stroke="rgb(33.00018%,33.00018%,33.00018%)"> 
 <g fill="rgb(33.00018%,33.00018%,33.00018%)"> 
 <path d=" M  56.90546 56.90546 M  58.32817 56.90546 C  58.32817 57.69121 57.69121 58.32817 56.90546 58.32817 C  56.1197 58.32817 55.48274 57.69121 55.48274 56.90546 C  55.48274 56.1197 56.1197 55.48274 56.90546 55.48274 C  57.69121 55.48274 58.32817 56.1197 58.32817 56.90546 Z M  56.90546 56.90546  " /> 
 </g> 
 </g> 
 </g> 
 </g> 
 <g> 
 <g stroke-width="0.8pt"> 
 <g stroke="rgb(33.00018%,33.00018%,33.00018%)"> 
 <g fill="rgb(33.00018%,33.00018%,33.00018%)"> 
 <path d=" M  56.90546 71.13182 M  58.32817 71.13182 C  58.32817 71.91757 57.69121 72.55453 56.90546 72.55453 C  56.1197 72.55453 55.48274 71.91757 55.48274 71.13182 C  55.48274 70.34607 56.1197 69.7091 56.90546 69.7091 C  57.69121 69.7091 58.32817 70.34607 58.32817 71.13182 Z M  56.90546 71.13182  " /> 
 </g> 
 </g> 
 </g> 
 </g> 
 <g> 
 <g stroke-width="0.8pt"> 
 <g stroke="rgb(33.00018%,33.00018%,33.00018%)"> 
 <g fill="rgb(33.00018%,33.00018%,33.00018%)"> 
 <path d=" M  56.90546 85.35818 M  58.32817 85.35818 C  58.32817 86.14394 57.69121 86.7809 56.90546 86.7809 C  56.1197 86.7809 55.48274 86.14394 55.48274 85.35818 C  55.48274 84.57243 56.1197 83.93547 56.90546 83.93547 C  57.69121 83.93547 58.32817 84.57243 58.32817 85.35818 Z M  56.90546 85.35818  " /> 
 </g> 
 </g> 
 </g> 
 </g> 
 <g> 
 <g stroke-width="0.8pt"> 
 <g stroke="rgb(33.00018%,33.00018%,33.00018%)"> 
 <g fill="rgb(33.00018%,33.00018%,33.00018%)"> 
 <path d=" M  71.13182 56.90546 M  72.55453 56.90546 C  72.55453 57.69121 71.91757 58.32817 71.13182 58.32817 C  70.34607 58.32817 69.7091 57.69121 69.7091 56.90546 C  69.7091 56.1197 70.34607 55.48274 71.13182 55.48274 C  71.91757 55.48274 72.55453 56.1197 72.55453 56.90546 Z M  71.13182 56.90546  " /> 
 </g> 
 </g> 
 </g> 
 </g> 
 <g> 
 <g stroke-width="0.8pt"> 
 <g stroke="rgb(33.00018%,33.00018%,33.00018%)"> 
 <g fill="rgb(33.00018%,33.00018%,33.00018%)"> 
 <path d=" M  71.13182 71.13182 M  72.55453 71.13182 C  72.55453 71.91757 71.91757 72.55453 71.13182 72.55453 C  70.34607 72.55453 69.7091 71.91757 69.7091 71.13182 C  69.7091 70.34607 70.34607 69.7091 71.13182 69.7091 C  71.91757 69.7091 72.55453 70.34607 72.55453 71.13182 Z M  71.13182 71.13182  " /> 
 </g> 
 </g> 
 </g> 
 </g> 
 <g> 
 <g stroke-width="0.8pt"> 
 <g stroke="rgb(33.00018%,33.00018%,33.00018%)"> 
 <g fill="rgb(33.00018%,33.00018%,33.00018%)"> 
 <path d=" M  71.13182 85.35818 M  72.55453 85.35818 C  72.55453 86.14394 71.91757 86.7809 71.13182 86.7809 C  70.34607 86.7809 69.7091 86.14394 69.7091 85.35818 C  69.7091 84.57243 70.34607 83.93547 71.13182 83.93547 C  71.91757 83.93547 72.55453 84.57243 72.55453 85.35818 Z M  71.13182 85.35818  " /> 
 </g> 
 </g> 
 </g> 
 </g> 
 <g> 
 <g stroke-width="0.8pt"> 
 <g stroke="rgb(33.00018%,33.00018%,33.00018%)"> 
 <g fill="rgb(33.00018%,33.00018%,33.00018%)"> 
 <path d=" M  85.35818 56.90546 M  86.7809 56.90546 C  86.7809 57.69121 86.14394 58.32817 85.35818 58.32817 C  84.57243 58.32817 83.93547 57.69121 83.93547 56.90546 C  83.93547 56.1197 84.57243 55.48274 85.35818 55.48274 C  86.14394 55.48274 86.7809 56.1197 86.7809 56.90546 Z M  85.35818 56.90546  " /> 
 </g> 
 </g> 
 </g> 
 </g> 
 <g> 
 <g stroke-width="0.8pt"> 
 <g stroke="rgb(33.00018%,33.00018%,33.00018%)"> 
 <g fill="rgb(33.00018%,33.00018%,33.00018%)"> 
 <path d=" M  85.35818 71.13182 M  86.7809 71.13182 C  86.7809 71.91757 86.14394 72.55453 85.35818 72.55453 C  84.57243 72.55453 83.93547 71.91757 83.93547 71.13182 C  83.93547 70.34607 84.57243 69.7091 85.35818 69.7091 C  86.14394 69.7091 86.7809 70.34607 86.7809 71.13182 Z M  85.35818 71.13182  " /> 
 </g> 
 </g> 
 </g> 
 </g> 
 <g> 
 <g stroke-width="0.8pt"> 
 <g stroke="rgb(33.00018%,33.00018%,33.00018%)"> 
 <g fill="rgb(33.00018%,33.00018%,33.00018%)"> 
 <path d=" M  85.35818 85.35818 M  86.7809 85.35818 C  86.7809 86.14394 86.14394 86.7809 85.35818 86.7809 C  84.57243 86.7809 83.93547 86.14394 83.93547 85.35818 C  83.93547 84.57243 84.57243 83.93547 85.35818 83.93547 C  86.14394 83.93547 86.7809 84.57243 86.7809 85.35818 Z M  85.35818 85.35818  " /> 
 </g> 
 </g> 
 </g> 
 </g> 
 </g> 
 </g> 
 </g> 
 </g> 
 </g> 
                                            </g> 
</svg> 
