<?xml version="1.0" encoding="iso-8859-1" standalone="no"?> 
<?xml-stylesheet href="main.css" type="text/css"?> 
<svg xmlns="http://www.w3.org/2000/svg" xmlns:xlink="http://www.w3.org/1999/xlink" width="143.06363pt" height="143.06363pt" viewBox="-0.4 -0.4 143.06363 143.06363 "> 
<g transform="translate(0, 142.66364 ) scale(1,-1) translate(0,0.4 )"> 
<g> 
 <g stroke="rgb(0.0%,0.0%,0.0%)"> 
 <g fill="rgb(0.0%,0.0%,0.0%)"> 
 <g stroke-width="0.4pt"> 
 <g> 
 <g> 
 <g stroke="rgb(50.0%,50.0%,50.0%)"> 
 <g fill="rgb(50.0%,50.0%,50.0%)"> 
 <g stroke-width="0.2pt"> 
 <path d=" M  0.0 0.0 M  0.0 0.0 L  142.26364 0.0 M  0.0 14.22636 L  142.26364 14.22636 M  0.0 28.45273 L  142.26364 28.45273 M  0.0 42.6791 L  142.26364 42.6791 M  0.0 56.90546 L  142.26364 56.90546 M  0.0 71.13182 L  142.26364 71.13182 M  0.0 85.35818 L  142.26364 85.35818 M  0.0 99.58455 L  142.26364 99.58455 M  0.0 113.81091 L  142.26364 113.81091 M  0.0 128.03728 L  142.26364 128.03728 M  0.0 142.25365 L  142.26364 142.25365 M  0.0 0.0 L  0.0 142.26364 M  14.22636 0.0 L  14.22636 142.26364 M  28.45273 0.0 L  28.45273 142.26364 M  42.6791 0.0 L  42.6791 142.26364 M  56.90546 0.0 L  56.90546 142.26364 M  71.13182 0.0 L  71.13182 142.26364 M  85.35818 0.0 L  85.35818 142.26364 M  99.58455 0.0 L  99.58455 142.26364 M  113.81091 0.0 L  113.81091 142.26364 M  128.03728 0.0 L  128.03728 142.26364 M  142.25365 0.0 L  142.25365 142.26364  " style="fill:none"/> 
 </g> 
 </g> 
 </g> 
 </g> 
 <g> 
 <g stroke="rgb(33.00018%,33.00018%,33.00018%)"> 
 <g fill="rgb(33.00018%,33.00018%,33.00018%)"> 
 <g stroke-width="0.8pt"> 
 <path d=" M  0.0 7.11317 L  14.22636 7.11317  " style="fill:none"/> 
 </g> 
 </g> 
 </g> 
 </g> 
 <g> 
 <g stroke="rgb(33.00018%,33.00018%,33.00018%)"> 
 <g fill="rgb(33.00018%,33.00018%,33.00018%)"> 
 <g stroke-width="0.8pt"> 
 <path d=" M  0.0 21.33954 L  14.22636 21.33954  " style="fill:none"/> 
 </g> 
 </g> 
 </g> 
 </g> 
 <g> 
 <g stroke="rgb(33.00018%,33.00018%,33.00018%)"> 
 <g fill="rgb(33.00018%,33.00018%,33.00018%)"> 
 <g stroke-width="0.8pt"> 
 <path d=" M  7.11317 0.0 L  7.11317 28.45273  " style="fill:none"/> 
 </g> 
 </g> 
 </g> 
 </g> 
 <g> 
 <g stroke="rgb(33.00018%,33.00018%,33.00018%)"> 
 <g fill="rgb(33.00018%,33.00018%,33.00018%)"> 
 <path d=" M  7.11317 7.11317 M  8.5358 7.11317 C  8.5358 7.89886 7.89886 8.5358 7.11317 8.5358 C  6.32748 8.5358 5.69055 7.89886 5.69055 7.11317 C  5.69055 6.32748 6.32748 5.69055 7.11317 5.69055 C  7.89886 5.69055 8.5358 6.32748 8.5358 7.11317 Z M  7.11317 7.11317  " /> 
 </g> 
 </g> 
 </g> 
 <g> 
 <g stroke="rgb(33.00018%,33.00018%,33.00018%)"> 
 <g fill="rgb(33.00018%,33.00018%,33.00018%)"> 
 <path d=" M  7.11317 21.33954 M  8.5358 21.33954 C  8.5358 22.12523 7.89886 22.76216 7.11317 22.76216 C  6.32748 22.76216 5.69055 22.12523 5.69055 21.33954 C  5.69055 20.55385 6.32748 19.91692 7.11317 19.91692 C  7.89886 19.91692 8.5358 20.55385 8.5358 21.33954 Z M  7.11317 21.33954  " /> 
 </g> 
 </g> 
 </g> 
 <g> 
 <g stroke="rgb(33.00018%,33.00018%,33.00018%)"> 
 <g fill="rgb(33.00018%,33.00018%,33.00018%)"> 
 <g stroke-width="0.8pt"> 
 <path d=" M  14.22636 7.11317 L  28.45273 7.11317  " style="fill:none"/> 
 </g> 
 </g> 
 </g> 
 </g> 
 <g> 
 <g stroke="rgb(33.00018%,33.00018%,33.00018%)"> 
 <g fill="rgb(33.00018%,33.00018%,33.00018%)"> 
 <g stroke-width="0.8pt"> 
 <path d=" M  14.22636 21.33954 L  28.45273 21.33954  " style="fill:none"/> 
 </g> 
 </g> 
 </g> 
 </g> 
 <g> 
 <g stroke="rgb(33.00018%,33.00018%,33.00018%)"> 
 <g fill="rgb(33.00018%,33.00018%,33.00018%)"> 
 <g stroke-width="0.8pt"> 
 <path d=" M  21.33954 0.0 L  21.33954 28.45273  " style="fill:none"/> 
 </g> 
 </g> 
 </g> 
 </g> 
 <g> 
 <g stroke="rgb(33.00018%,33.00018%,33.00018%)"> 
 <g fill="rgb(33.00018%,33.00018%,33.00018%)"> 
 <path d=" M  21.33954 7.11317 M  22.76216 7.11317 C  22.76216 7.89886 22.12523 8.5358 21.33954 8.5358 C  20.55385 8.5358 19.91692 7.89886 19.91692 7.11317 C  19.91692 6.32748 20.55385 5.69055 21.33954 5.69055 C  22.12523 5.69055 22.76216 6.32748 22.76216 7.11317 Z M  21.33954 7.11317  " /> 
 </g> 
 </g> 
 </g> 
 <g> 
 <g stroke="rgb(33.00018%,33.00018%,33.00018%)"> 
 <g fill="rgb(33.00018%,33.00018%,33.00018%)"> 
 <path d=" M  21.33954 21.33954 M  22.76216 21.33954 C  22.76216 22.12523 22.12523 22.76216 21.33954 22.76216 C  20.55385 22.76216 19.91692 22.12523 19.91692 21.33954 C  19.91692 20.55385 20.55385 19.91692 21.33954 19.91692 C  22.12523 19.91692 22.76216 20.55385 22.76216 21.33954 Z M  21.33954 21.33954  " /> 
 </g> 
 </g> 
 </g> 
 <g> 
 <g stroke="rgb(33.00018%,33.00018%,33.00018%)"> 
 <g fill="rgb(33.00018%,33.00018%,33.00018%)"> 
 <g stroke-width="0.8pt"> 
 <path d=" M  28.45273 7.11317 L  42.6791 7.11317  " style="fill:none"/> 
 </g> 
 </g> 
 </g> 
 </g> 
 <g> 
 <g stroke="rgb(33.00018%,33.00018%,33.00018%)"> 
 <g fill="rgb(33.00018%,33.00018%,33.00018%)"> 
 <g stroke-width="0.8pt"> 
 <path d=" M  28.45273 21.33954 L  42.6791 21.33954  " style="fill:none"/> 
 </g> 
 </g> 
 </g> 
 </g> 
 <g> 
 <g stroke="rgb(33.00018%,33.00018%,33.00018%)"> 
 <g fill="rgb(33.00018%,33.00018%,33.00018%)"> 
 <g stroke-width="0.8pt"> 
 <path d=" M  35.5659 0.0 L  35.5659 28.45273  " style="fill:none"/> 
 </g> 
 </g> 
 </g> 
 </g> 
 <g> 
 <g stroke="rgb(33.00018%,33.00018%,33.00018%)"> 
 <g fill="rgb(33.00018%,33.00018%,33.00018%)"> 
 <path d=" M  35.5659 7.11317 M  36.98853 7.11317 C  36.98853 7.89886 36.3516 8.5358 35.5659 8.5358 C  34.78021 8.5358 34.14328 7.89886 34.14328 7.11317 C  34.14328 6.32748 34.78021 5.69055 35.5659 5.69055 C  36.3516 5.69055 36.98853 6.32748 36.98853 7.11317 Z M  35.5659 7.11317  " /> 
 </g> 
 </g> 
 </g> 
 <g> 
 <g stroke="rgb(33.00018%,33.00018%,33.00018%)"> 
 <g fill="rgb(33.00018%,33.00018%,33.00018%)"> 
 <path d=" M  35.5659 21.33954 M  36.98853 21.33954 C  36.98853 22.12523 36.3516 22.76216 35.5659 22.76216 C  34.78021 22.76216 34.14328 22.12523 34.14328 21.33954 C  34.14328 20.55385 34.78021 19.91692 35.5659 19.91692 C  36.3516 19.91692 36.98853 20.55385 36.98853 21.33954 Z M  35.5659 21.33954  " /> 
 </g> 
 </g> 
 </g> 
 <g> 
 <g stroke="rgb(33.00018%,33.00018%,33.00018%)"> 
 <g fill="rgb(33.00018%,33.00018%,33.00018%)"> 
 <g stroke-width="0.8pt"> 
 <path d=" M  42.6791 7.11317 L  56.90546 7.11317  " style="fill:none"/> 
 </g> 
 </g> 
 </g> 
 </g> 
 <g> 
 <g stroke="rgb(33.00018%,33.00018%,33.00018%)"> 
 <g fill="rgb(33.00018%,33.00018%,33.00018%)"> 
 <g stroke-width="0.8pt"> 
 <path d=" M  42.6791 21.33954 L  56.90546 21.33954  " style="fill:none"/> 
 </g> 
 </g> 
 </g> 
 </g> 
 <g> 
 <g stroke="rgb(33.00018%,33.00018%,33.00018%)"> 
 <g fill="rgb(33.00018%,33.00018%,33.00018%)"> 
 <g stroke-width="0.8pt"> 
 <path d=" M  49.79227 0.0 L  49.79227 28.45273  " style="fill:none"/> 
 </g> 
 </g> 
 </g> 
 </g> 
 <g> 
 <g stroke="rgb(33.00018%,33.00018%,33.00018%)"> 
 <g fill="rgb(33.00018%,33.00018%,33.00018%)"> 
 <path d=" M  49.79227 7.11317 M  51.21489 7.11317 C  51.21489 7.89886 50.57796 8.5358 49.79227 8.5358 C  49.00658 8.5358 48.36964 7.89886 48.36964 7.11317 C  48.36964 6.32748 49.00658 5.69055 49.79227 5.69055 C  50.57796 5.69055 51.21489 6.32748 51.21489 7.11317 Z M  49.79227 7.11317  " /> 
 </g> 
 </g> 
 </g> 
 <g> 
 <g stroke="rgb(33.00018%,33.00018%,33.00018%)"> 
 <g fill="rgb(33.00018%,33.00018%,33.00018%)"> 
 <path d=" M  49.79227 21.33954 M  51.21489 21.33954 C  51.21489 22.12523 50.57796 22.76216 49.79227 22.76216 C  49.00658 22.76216 48.36964 22.12523 48.36964 21.33954 C  48.36964 20.55385 49.00658 19.91692 49.79227 19.91692 C  50.57796 19.91692 51.21489 20.55385 51.21489 21.33954 Z M  49.79227 21.33954  " /> 
 </g> 
 </g> 
 </g> 
 <g> 
 <g stroke="rgb(33.00018%,33.00018%,33.00018%)"> 
 <g fill="rgb(33.00018%,33.00018%,33.00018%)"> 
 <g stroke-width="0.8pt"> 
 <path d=" M  56.90546 7.11317 L  71.13182 7.11317  " style="fill:none"/> 
 </g> 
 </g> 
 </g> 
 </g> 
 <g> 
 <g stroke="rgb(33.00018%,33.00018%,33.00018%)"> 
 <g fill="rgb(33.00018%,33.00018%,33.00018%)"> 
 <g stroke-width="0.8pt"> 
 <path d=" M  56.90546 21.33954 L  71.13182 21.33954  " style="fill:none"/> 
 </g> 
 </g> 
 </g> 
 </g> 
 <g> 
 <g stroke="rgb(33.00018%,33.00018%,33.00018%)"> 
 <g fill="rgb(33.00018%,33.00018%,33.00018%)"> 
 <g stroke-width="0.8pt"> 
 <path d=" M  64.01863 0.0 L  64.01863 28.45273  " style="fill:none"/> 
 </g> 
 </g> 
 </g> 
 </g> 
 <g> 
 <g stroke="rgb(33.00018%,33.00018%,33.00018%)"> 
 <g fill="rgb(33.00018%,33.00018%,33.00018%)"> 
 <path d=" M  64.01863 7.11317 M  65.44125 7.11317 C  65.44125 7.89886 64.80432 8.5358 64.01863 8.5358 C  63.23294 8.5358 62.59601 7.89886 62.59601 7.11317 C  62.59601 6.32748 63.23294 5.69055 64.01863 5.69055 C  64.80432 5.69055 65.44125 6.32748 65.44125 7.11317 Z M  64.01863 7.11317  " /> 
 </g> 
 </g> 
 </g> 
 <g> 
 <g stroke="rgb(33.00018%,33.00018%,33.00018%)"> 
 <g fill="rgb(33.00018%,33.00018%,33.00018%)"> 
 <path d=" M  64.01863 21.33954 M  65.44125 21.33954 C  65.44125 22.12523 64.80432 22.76216 64.01863 22.76216 C  63.23294 22.76216 62.59601 22.12523 62.59601 21.33954 C  62.59601 20.55385 63.23294 19.91692 64.01863 19.91692 C  64.80432 19.91692 65.44125 20.55385 65.44125 21.33954 Z M  64.01863 21.33954  " /> 
 </g> 
 </g> 
 </g> 
 <g> 
 <g stroke="rgb(33.00018%,33.00018%,33.00018%)"> 
 <g fill="rgb(33.00018%,33.00018%,33.00018%)"> 
 <g stroke-width="0.8pt"> 
 <path d=" M  71.13182 7.11317 L  85.35818 7.11317  " style="fill:none"/> 
 </g> 
 </g> 
 </g> 
 </g> 
 <g> 
 <g stroke="rgb(33.00018%,33.00018%,33.00018%)"> 
 <g fill="rgb(33.00018%,33.00018%,33.00018%)"> 
 <g stroke-width="0.8pt"> 
 <path d=" M  71.13182 21.33954 L  85.35818 21.33954  " style="fill:none"/> 
 </g> 
 </g> 
 </g> 
 </g> 
 <g> 
 <g stroke="rgb(33.00018%,33.00018%,33.00018%)"> 
 <g fill="rgb(33.00018%,33.00018%,33.00018%)"> 
 <g stroke-width="0.8pt"> 
 <path d=" M  78.245 0.0 L  78.245 28.45273  " style="fill:none"/> 
 </g> 
 </g> 
 </g> 
 </g> 
 <g> 
 <g stroke="rgb(33.00018%,33.00018%,33.00018%)"> 
 <g fill="rgb(33.00018%,33.00018%,33.00018%)"> 
 <path d=" M  78.245 7.11317 M  79.66762 7.11317 C  79.66762 7.89886 79.03069 8.5358 78.245 8.5358 C  77.4593 8.5358 76.82237 7.89886 76.82237 7.11317 C  76.82237 6.32748 77.4593 5.69055 78.245 5.69055 C  79.03069 5.69055 79.66762 6.32748 79.66762 7.11317 Z M  78.245 7.11317  " /> 
 </g> 
 </g> 
 </g> 
 <g> 
 <g stroke="rgb(33.00018%,33.00018%,33.00018%)"> 
 <g fill="rgb(33.00018%,33.00018%,33.00018%)"> 
 <path d=" M  78.245 21.33954 M  79.66762 21.33954 C  79.66762 22.12523 79.03069 22.76216 78.245 22.76216 C  77.4593 22.76216 76.82237 22.12523 76.82237 21.33954 C  76.82237 20.55385 77.4593 19.91692 78.245 19.91692 C  79.03069 19.91692 79.66762 20.55385 79.66762 21.33954 Z M  78.245 21.33954  " /> 
 </g> 
 </g> 
 </g> 
 <g> 
 <g stroke="rgb(33.00018%,33.00018%,33.00018%)"> 
 <g fill="rgb(33.00018%,33.00018%,33.00018%)"> 
 <g stroke-width="0.8pt"> 
 <path d=" M  85.35818 7.11317 L  99.58455 7.11317  " style="fill:none"/> 
 </g> 
 </g> 
 </g> 
 </g> 
 <g> 
 <g stroke="rgb(33.00018%,33.00018%,33.00018%)"> 
 <g fill="rgb(33.00018%,33.00018%,33.00018%)"> 
 <g stroke-width="0.8pt"> 
 <path d=" M  85.35818 21.33954 L  99.58455 21.33954  " style="fill:none"/> 
 </g> 
 </g> 
 </g> 
 </g> 
 <g> 
 <g stroke="rgb(33.00018%,33.00018%,33.00018%)"> 
 <g fill="rgb(33.00018%,33.00018%,33.00018%)"> 
 <g stroke-width="0.8pt"> 
 <path d=" M  92.47136 0.0 L  92.47136 28.45273  " style="fill:none"/> 
 </g> 
 </g> 
 </g> 
 </g> 
 <g> 
 <g stroke="rgb(33.00018%,33.00018%,33.00018%)"> 
 <g fill="rgb(33.00018%,33.00018%,33.00018%)"> 
 <path d=" M  92.47136 7.11317 M  93.89398 7.11317 C  93.89398 7.89886 93.25705 8.5358 92.47136 8.5358 C  91.68567 8.5358 91.04874 7.89886 91.04874 7.11317 C  91.04874 6.32748 91.68567 5.69055 92.47136 5.69055 C  93.25705 5.69055 93.89398 6.32748 93.89398 7.11317 Z M  92.47136 7.11317  " /> 
 </g> 
 </g> 
 </g> 
 <g> 
 <g stroke="rgb(33.00018%,33.00018%,33.00018%)"> 
 <g fill="rgb(33.00018%,33.00018%,33.00018%)"> 
 <path d=" M  92.47136 21.33954 M  93.89398 21.33954 C  93.89398 22.12523 93.25705 22.76216 92.47136 22.76216 C  91.68567 22.76216 91.04874 22.12523 91.04874 21.33954 C  91.04874 20.55385 91.68567 19.91692 92.47136 19.91692 C  93.25705 19.91692 93.89398 20.55385 93.89398 21.33954 Z M  92.47136 21.33954  " /> 
 </g> 
 </g> 
 </g> 
 <g> 
 <g stroke="rgb(33.00018%,33.00018%,33.00018%)"> 
 <g fill="rgb(33.00018%,33.00018%,33.00018%)"> 
 <g stroke-width="0.8pt"> 
 <path d=" M  99.58455 7.11317 L  113.81091 7.11317  " style="fill:none"/> 
 </g> 
 </g> 
 </g> 
 </g> 
 <g> 
 <g stroke="rgb(33.00018%,33.00018%,33.00018%)"> 
 <g fill="rgb(33.00018%,33.00018%,33.00018%)"> 
 <g stroke-width="0.8pt"> 
 <path d=" M  99.58455 21.33954 L  113.81091 21.33954  " style="fill:none"/> 
 </g> 
 </g> 
 </g> 
 </g> 
 <g> 
 <g stroke="rgb(33.00018%,33.00018%,33.00018%)"> 
 <g fill="rgb(33.00018%,33.00018%,33.00018%)"> 
 <g stroke-width="0.8pt"> 
 <path d=" M  106.69772 0.0 L  106.69772 28.45273  " style="fill:none"/> 
 </g> 
 </g> 
 </g> 
 </g> 
 <g> 
 <g stroke="rgb(33.00018%,33.00018%,33.00018%)"> 
 <g fill="rgb(33.00018%,33.00018%,33.00018%)"> 
 <path d=" M  106.69772 7.11317 M  108.12035 7.11317 C  108.12035 7.89886 107.48341 8.5358 106.69772 8.5358 C  105.91203 8.5358 105.2751 7.89886 105.2751 7.11317 C  105.2751 6.32748 105.91203 5.69055 106.69772 5.69055 C  107.48341 5.69055 108.12035 6.32748 108.12035 7.11317 Z M  106.69772 7.11317  " /> 
 </g> 
 </g> 
 </g> 
 <g> 
 <g stroke="rgb(33.00018%,33.00018%,33.00018%)"> 
 <g fill="rgb(33.00018%,33.00018%,33.00018%)"> 
 <path d=" M  106.69772 21.33954 M  108.12035 21.33954 C  108.12035 22.12523 107.48341 22.76216 106.69772 22.76216 C  105.91203 22.76216 105.2751 22.12523 105.2751 21.33954 C  105.2751 20.55385 105.91203 19.91692 106.69772 19.91692 C  107.48341 19.91692 108.12035 20.55385 108.12035 21.33954 Z M  106.69772 21.33954  " /> 
 </g> 
 </g> 
 </g> 
 <g> 
 <g stroke="rgb(33.00018%,33.00018%,33.00018%)"> 
 <g fill="rgb(33.00018%,33.00018%,33.00018%)"> 
 <g stroke-width="0.8pt"> 
 <path d=" M  113.81091 7.11317 L  128.03728 7.11317  " style="fill:none"/> 
 </g> 
 </g> 
 </g> 
 </g> 
 <g> 
 <g stroke="rgb(33.00018%,33.00018%,33.00018%)"> 
 <g fill="rgb(33.00018%,33.00018%,33.00018%)"> 
 <g stroke-width="0.8pt"> 
 <path d=" M  113.81091 21.33954 L  128.03728 21.33954  " style="fill:none"/> 
 </g> 
 </g> 
 </g> 
 </g> 
 <g> 
 <g stroke="rgb(33.00018%,33.00018%,33.00018%)"> 
 <g fill="rgb(33.00018%,33.00018%,33.00018%)"> 
 <g stroke-width="0.8pt"> 
 <path d=" M  120.92409 0.0 L  120.92409 28.45273  " style="fill:none"/> 
 </g> 
 </g> 
 </g> 
 </g> 
 <g> 
 <g stroke="rgb(33.00018%,33.00018%,33.00018%)"> 
 <g fill="rgb(33.00018%,33.00018%,33.00018%)"> 
 <path d=" M  120.92409 7.11317 M  122.34671 7.11317 C  122.34671 7.89886 121.70978 8.5358 120.92409 8.5358 C  120.1384 8.5358 119.50146 7.89886 119.50146 7.11317 C  119.50146 6.32748 120.1384 5.69055 120.92409 5.69055 C  121.70978 5.69055 122.34671 6.32748 122.34671 7.11317 Z M  120.92409 7.11317  " /> 
 </g> 
 </g> 
 </g> 
 <g> 
 <g stroke="rgb(33.00018%,33.00018%,33.00018%)"> 
 <g fill="rgb(33.00018%,33.00018%,33.00018%)"> 
 <path d=" M  120.92409 21.33954 M  122.34671 21.33954 C  122.34671 22.12523 121.70978 22.76216 120.92409 22.76216 C  120.1384 22.76216 119.50146 22.12523 119.50146 21.33954 C  119.50146 20.55385 120.1384 19.91692 120.92409 19.91692 C  121.70978 19.91692 122.34671 20.55385 122.34671 21.33954 Z M  120.92409 21.33954  " /> 
 </g> 
 </g> 
 </g> 
 <g> 
 <g stroke="rgb(33.00018%,33.00018%,33.00018%)"> 
 <g fill="rgb(33.00018%,33.00018%,33.00018%)"> 
 <g stroke-width="0.8pt"> 
 <path d=" M  128.03728 7.11317 L  142.26364 7.11317  " style="fill:none"/> 
 </g> 
 </g> 
 </g> 
 </g> 
 <g> 
 <g stroke="rgb(33.00018%,33.00018%,33.00018%)"> 
 <g fill="rgb(33.00018%,33.00018%,33.00018%)"> 
 <g stroke-width="0.8pt"> 
 <path d=" M  128.03728 21.33954 L  142.26364 21.33954  " style="fill:none"/> 
 </g> 
 </g> 
 </g> 
 </g> 
 <g> 
 <g stroke="rgb(33.00018%,33.00018%,33.00018%)"> 
 <g fill="rgb(33.00018%,33.00018%,33.00018%)"> 
 <g stroke-width="0.8pt"> 
 <path d=" M  135.15045 0.0 L  135.15045 28.45273  " style="fill:none"/> 
 </g> 
 </g> 
 </g> 
 </g> 
 <g> 
 <g stroke="rgb(33.00018%,33.00018%,33.00018%)"> 
 <g fill="rgb(33.00018%,33.00018%,33.00018%)"> 
 <path d=" M  135.15045 7.11317 M  136.57307 7.11317 C  136.57307 7.89886 135.93614 8.5358 135.15045 8.5358 C  134.36476 8.5358 133.72783 7.89886 133.72783 7.11317 C  133.72783 6.32748 134.36476 5.69055 135.15045 5.69055 C  135.93614 5.69055 136.57307 6.32748 136.57307 7.11317 Z M  135.15045 7.11317  " /> 
 </g> 
 </g> 
 </g> 
 <g> 
 <g stroke="rgb(33.00018%,33.00018%,33.00018%)"> 
 <g fill="rgb(33.00018%,33.00018%,33.00018%)"> 
 <path d=" M  135.15045 21.33954 M  136.57307 21.33954 C  136.57307 22.12523 135.93614 22.76216 135.15045 22.76216 C  134.36476 22.76216 133.72783 22.12523 133.72783 21.33954 C  133.72783 20.55385 134.36476 19.91692 135.15045 19.91692 C  135.93614 19.91692 136.57307 20.55385 136.57307 21.33954 Z M  135.15045 21.33954  " /> 
 </g> 
 </g> 
 </g> 
 <g> 
 <g stroke="rgb(33.00018%,33.00018%,33.00018%)"> 
 <g fill="rgb(33.00018%,33.00018%,33.00018%)"> 
 <g stroke-width="0.8pt"> 
 <path d=" M  0.0 35.5659 L  14.22636 35.5659  " style="fill:none"/> 
 </g> 
 </g> 
 </g> 
 </g> 
 <g> 
 <g stroke="rgb(33.00018%,33.00018%,33.00018%)"> 
 <g fill="rgb(33.00018%,33.00018%,33.00018%)"> 
 <g stroke-width="0.8pt"> 
 <path d=" M  0.0 49.79227 L  14.22636 49.79227  " style="fill:none"/> 
 </g> 
 </g> 
 </g> 
 </g> 
 <g> 
 <g stroke="rgb(33.00018%,33.00018%,33.00018%)"> 
 <g fill="rgb(33.00018%,33.00018%,33.00018%)"> 
 <g stroke-width="0.8pt"> 
 <path d=" M  7.11317 28.45273 L  7.11317 56.90546  " style="fill:none"/> 
 </g> 
 </g> 
 </g> 
 </g> 
 <g> 
 <g stroke="rgb(33.00018%,33.00018%,33.00018%)"> 
 <g fill="rgb(33.00018%,33.00018%,33.00018%)"> 
 <path d=" M  7.11317 35.5659 M  8.5358 35.5659 C  8.5358 36.3516 7.89886 36.98853 7.11317 36.98853 C  6.32748 36.98853 5.69055 36.3516 5.69055 35.5659 C  5.69055 34.78021 6.32748 34.14328 7.11317 34.14328 C  7.89886 34.14328 8.5358 34.78021 8.5358 35.5659 Z M  7.11317 35.5659  " /> 
 </g> 
 </g> 
 </g> 
 <g> 
 <g stroke="rgb(33.00018%,33.00018%,33.00018%)"> 
 <g fill="rgb(33.00018%,33.00018%,33.00018%)"> 
 <path d=" M  7.11317 49.79227 M  8.5358 49.79227 C  8.5358 50.57796 7.89886 51.21489 7.11317 51.21489 C  6.32748 51.21489 5.69055 50.57796 5.69055 49.79227 C  5.69055 49.00658 6.32748 48.36964 7.11317 48.36964 C  7.89886 48.36964 8.5358 49.00658 8.5358 49.79227 Z M  7.11317 49.79227  " /> 
 </g> 
 </g> 
 </g> 
 <g> 
 <g stroke="rgb(33.00018%,33.00018%,33.00018%)"> 
 <g fill="rgb(33.00018%,33.00018%,33.00018%)"> 
 <g stroke-width="0.8pt"> 
 <path d=" M  14.22636 35.5659 L  28.45273 35.5659  " style="fill:none"/> 
 </g> 
 </g> 
 </g> 
 </g> 
 <g> 
 <g stroke="rgb(33.00018%,33.00018%,33.00018%)"> 
 <g fill="rgb(33.00018%,33.00018%,33.00018%)"> 
 <g stroke-width="0.8pt"> 
 <path d=" M  14.22636 49.79227 L  28.45273 49.79227  " style="fill:none"/> 
 </g> 
 </g> 
 </g> 
 </g> 
 <g> 
 <g stroke="rgb(33.00018%,33.00018%,33.00018%)"> 
 <g fill="rgb(33.00018%,33.00018%,33.00018%)"> 
 <g stroke-width="0.8pt"> 
 <path d=" M  21.33954 28.45273 L  21.33954 56.90546  " style="fill:none"/> 
 </g> 
 </g> 
 </g> 
 </g> 
 <g> 
 <g stroke="rgb(33.00018%,33.00018%,33.00018%)"> 
 <g fill="rgb(33.00018%,33.00018%,33.00018%)"> 
 <path d=" M  21.33954 35.5659 M  22.76216 35.5659 C  22.76216 36.3516 22.12523 36.98853 21.33954 36.98853 C  20.55385 36.98853 19.91692 36.3516 19.91692 35.5659 C  19.91692 34.78021 20.55385 34.14328 21.33954 34.14328 C  22.12523 34.14328 22.76216 34.78021 22.76216 35.5659 Z M  21.33954 35.5659  " /> 
 </g> 
 </g> 
 </g> 
 <g> 
 <g stroke="rgb(33.00018%,33.00018%,33.00018%)"> 
 <g fill="rgb(33.00018%,33.00018%,33.00018%)"> 
 <path d=" M  21.33954 49.79227 M  22.76216 49.79227 C  22.76216 50.57796 22.12523 51.21489 21.33954 51.21489 C  20.55385 51.21489 19.91692 50.57796 19.91692 49.79227 C  19.91692 49.00658 20.55385 48.36964 21.33954 48.36964 C  22.12523 48.36964 22.76216 49.00658 22.76216 49.79227 Z M  21.33954 49.79227  " /> 
 </g> 
 </g> 
 </g> 
 <g> 
 <g stroke="rgb(33.00018%,33.00018%,33.00018%)"> 
 <g fill="rgb(33.00018%,33.00018%,33.00018%)"> 
 <g stroke-width="0.8pt"> 
 <path d=" M  28.45273 35.5659 L  42.6791 35.5659  " style="fill:none"/> 
 </g> 
 </g> 
 </g> 
 </g> 
 <g> 
 <g stroke="rgb(33.00018%,33.00018%,33.00018%)"> 
 <g fill="rgb(33.00018%,33.00018%,33.00018%)"> 
 <g stroke-width="0.8pt"> 
 <path d=" M  28.45273 49.79227 L  42.6791 49.79227  " style="fill:none"/> 
 </g> 
 </g> 
 </g> 
 </g> 
 <g> 
 <g stroke="rgb(33.00018%,33.00018%,33.00018%)"> 
 <g fill="rgb(33.00018%,33.00018%,33.00018%)"> 
 <g stroke-width="0.8pt"> 
 <path d=" M  35.5659 28.45273 L  35.5659 56.90546  " style="fill:none"/> 
 </g> 
 </g> 
 </g> 
 </g> 
 <g> 
 <g stroke="rgb(33.00018%,33.00018%,33.00018%)"> 
 <g fill="rgb(33.00018%,33.00018%,33.00018%)"> 
 <path d=" M  35.5659 35.5659 M  36.98853 35.5659 C  36.98853 36.3516 36.3516 36.98853 35.5659 36.98853 C  34.78021 36.98853 34.14328 36.3516 34.14328 35.5659 C  34.14328 34.78021 34.78021 34.14328 35.5659 34.14328 C  36.3516 34.14328 36.98853 34.78021 36.98853 35.5659 Z M  35.5659 35.5659  " /> 
 </g> 
 </g> 
 </g> 
 <g> 
 <g stroke="rgb(33.00018%,33.00018%,33.00018%)"> 
 <g fill="rgb(33.00018%,33.00018%,33.00018%)"> 
 <path d=" M  35.5659 49.79227 M  36.98853 49.79227 C  36.98853 50.57796 36.3516 51.21489 35.5659 51.21489 C  34.78021 51.21489 34.14328 50.57796 34.14328 49.79227 C  34.14328 49.00658 34.78021 48.36964 35.5659 48.36964 C  36.3516 48.36964 36.98853 49.00658 36.98853 49.79227 Z M  35.5659 49.79227  " /> 
 </g> 
 </g> 
 </g> 
 <g> 
 <g stroke="rgb(33.00018%,33.00018%,33.00018%)"> 
 <g fill="rgb(33.00018%,33.00018%,33.00018%)"> 
 <g stroke-width="0.8pt"> 
 <path d=" M  42.6791 35.5659 L  56.90546 35.5659  " style="fill:none"/> 
 </g> 
 </g> 
 </g> 
 </g> 
 <g> 
 <g stroke="rgb(33.00018%,33.00018%,33.00018%)"> 
 <g fill="rgb(33.00018%,33.00018%,33.00018%)"> 
 <g stroke-width="0.8pt"> 
 <path d=" M  42.6791 49.79227 L  56.90546 49.79227  " style="fill:none"/> 
 </g> 
 </g> 
 </g> 
 </g> 
 <g> 
 <g stroke="rgb(33.00018%,33.00018%,33.00018%)"> 
 <g fill="rgb(33.00018%,33.00018%,33.00018%)"> 
 <g stroke-width="0.8pt"> 
 <path d=" M  49.79227 28.45273 L  49.79227 56.90546  " style="fill:none"/> 
 </g> 
 </g> 
 </g> 
 </g> 
 <g> 
 <g stroke="rgb(33.00018%,33.00018%,33.00018%)"> 
 <g fill="rgb(33.00018%,33.00018%,33.00018%)"> 
 <path d=" M  49.79227 35.5659 M  51.21489 35.5659 C  51.21489 36.3516 50.57796 36.98853 49.79227 36.98853 C  49.00658 36.98853 48.36964 36.3516 48.36964 35.5659 C  48.36964 34.78021 49.00658 34.14328 49.79227 34.14328 C  50.57796 34.14328 51.21489 34.78021 51.21489 35.5659 Z M  49.79227 35.5659  " /> 
 </g> 
 </g> 
 </g> 
 <g> 
 <g stroke="rgb(33.00018%,33.00018%,33.00018%)"> 
 <g fill="rgb(33.00018%,33.00018%,33.00018%)"> 
 <path d=" M  49.79227 49.79227 M  51.21489 49.79227 C  51.21489 50.57796 50.57796 51.21489 49.79227 51.21489 C  49.00658 51.21489 48.36964 50.57796 48.36964 49.79227 C  48.36964 49.00658 49.00658 48.36964 49.79227 48.36964 C  50.57796 48.36964 51.21489 49.00658 51.21489 49.79227 Z M  49.79227 49.79227  " /> 
 </g> 
 </g> 
 </g> 
 <g> 
 <g stroke="rgb(33.00018%,33.00018%,33.00018%)"> 
 <g fill="rgb(33.00018%,33.00018%,33.00018%)"> 
 <g stroke-width="0.8pt"> 
 <path d=" M  56.90546 35.5659 L  71.13182 35.5659  " style="fill:none"/> 
 </g> 
 </g> 
 </g> 
 </g> 
 <g> 
 <g stroke="rgb(33.00018%,33.00018%,33.00018%)"> 
 <g fill="rgb(33.00018%,33.00018%,33.00018%)"> 
 <g stroke-width="0.8pt"> 
 <path d=" M  56.90546 49.79227 L  71.13182 49.79227  " style="fill:none"/> 
 </g> 
 </g> 
 </g> 
 </g> 
 <g> 
 <g stroke="rgb(33.00018%,33.00018%,33.00018%)"> 
 <g fill="rgb(33.00018%,33.00018%,33.00018%)"> 
 <g stroke-width="0.8pt"> 
 <path d=" M  64.01863 28.45273 L  64.01863 56.90546  " style="fill:none"/> 
 </g> 
 </g> 
 </g> 
 </g> 
 <g> 
 <g stroke="rgb(33.00018%,33.00018%,33.00018%)"> 
 <g fill="rgb(33.00018%,33.00018%,33.00018%)"> 
 <path d=" M  64.01863 35.5659 M  65.44125 35.5659 C  65.44125 36.3516 64.80432 36.98853 64.01863 36.98853 C  63.23294 36.98853 62.59601 36.3516 62.59601 35.5659 C  62.59601 34.78021 63.23294 34.14328 64.01863 34.14328 C  64.80432 34.14328 65.44125 34.78021 65.44125 35.5659 Z M  64.01863 35.5659  " /> 
 </g> 
 </g> 
 </g> 
 <g> 
 <g stroke="rgb(33.00018%,33.00018%,33.00018%)"> 
 <g fill="rgb(33.00018%,33.00018%,33.00018%)"> 
 <path d=" M  64.01863 49.79227 M  65.44125 49.79227 C  65.44125 50.57796 64.80432 51.21489 64.01863 51.21489 C  63.23294 51.21489 62.59601 50.57796 62.59601 49.79227 C  62.59601 49.00658 63.23294 48.36964 64.01863 48.36964 C  64.80432 48.36964 65.44125 49.00658 65.44125 49.79227 Z M  64.01863 49.79227  " /> 
 </g> 
 </g> 
 </g> 
 <g> 
 <g stroke="rgb(33.00018%,33.00018%,33.00018%)"> 
 <g fill="rgb(33.00018%,33.00018%,33.00018%)"> 
 <g stroke-width="0.8pt"> 
 <path d=" M  71.13182 35.5659 L  85.35818 35.5659  " style="fill:none"/> 
 </g> 
 </g> 
 </g> 
 </g> 
 <g> 
 <g stroke="rgb(33.00018%,33.00018%,33.00018%)"> 
 <g fill="rgb(33.00018%,33.00018%,33.00018%)"> 
 <g stroke-width="0.8pt"> 
 <path d=" M  71.13182 49.79227 L  85.35818 49.79227  " style="fill:none"/> 
 </g> 
 </g> 
 </g> 
 </g> 
 <g> 
 <g stroke="rgb(33.00018%,33.00018%,33.00018%)"> 
 <g fill="rgb(33.00018%,33.00018%,33.00018%)"> 
 <g stroke-width="0.8pt"> 
 <path d=" M  78.245 28.45273 L  78.245 56.90546  " style="fill:none"/> 
 </g> 
 </g> 
 </g> 
 </g> 
 <g> 
 <g stroke="rgb(33.00018%,33.00018%,33.00018%)"> 
 <g fill="rgb(33.00018%,33.00018%,33.00018%)"> 
 <path d=" M  78.245 35.5659 M  79.66762 35.5659 C  79.66762 36.3516 79.03069 36.98853 78.245 36.98853 C  77.4593 36.98853 76.82237 36.3516 76.82237 35.5659 C  76.82237 34.78021 77.4593 34.14328 78.245 34.14328 C  79.03069 34.14328 79.66762 34.78021 79.66762 35.5659 Z M  78.245 35.5659  " /> 
 </g> 
 </g> 
 </g> 
 <g> 
 <g stroke="rgb(33.00018%,33.00018%,33.00018%)"> 
 <g fill="rgb(33.00018%,33.00018%,33.00018%)"> 
 <path d=" M  78.245 49.79227 M  79.66762 49.79227 C  79.66762 50.57796 79.03069 51.21489 78.245 51.21489 C  77.4593 51.21489 76.82237 50.57796 76.82237 49.79227 C  76.82237 49.00658 77.4593 48.36964 78.245 48.36964 C  79.03069 48.36964 79.66762 49.00658 79.66762 49.79227 Z M  78.245 49.79227  " /> 
 </g> 
 </g> 
 </g> 
 <g> 
 <g stroke="rgb(33.00018%,33.00018%,33.00018%)"> 
 <g fill="rgb(33.00018%,33.00018%,33.00018%)"> 
 <g stroke-width="0.8pt"> 
 <path d=" M  85.35818 35.5659 L  99.58455 35.5659  " style="fill:none"/> 
 </g> 
 </g> 
 </g> 
 </g> 
 <g> 
 <g stroke="rgb(33.00018%,33.00018%,33.00018%)"> 
 <g fill="rgb(33.00018%,33.00018%,33.00018%)"> 
 <g stroke-width="0.8pt"> 
 <path d=" M  85.35818 49.79227 L  99.58455 49.79227  " style="fill:none"/> 
 </g> 
 </g> 
 </g> 
 </g> 
 <g> 
 <g stroke="rgb(33.00018%,33.00018%,33.00018%)"> 
 <g fill="rgb(33.00018%,33.00018%,33.00018%)"> 
 <g stroke-width="0.8pt"> 
 <path d=" M  92.47136 28.45273 L  92.47136 56.90546  " style="fill:none"/> 
 </g> 
 </g> 
 </g> 
 </g> 
 <g> 
 <g stroke="rgb(33.00018%,33.00018%,33.00018%)"> 
 <g fill="rgb(33.00018%,33.00018%,33.00018%)"> 
 <path d=" M  92.47136 35.5659 M  93.89398 35.5659 C  93.89398 36.3516 93.25705 36.98853 92.47136 36.98853 C  91.68567 36.98853 91.04874 36.3516 91.04874 35.5659 C  91.04874 34.78021 91.68567 34.14328 92.47136 34.14328 C  93.25705 34.14328 93.89398 34.78021 93.89398 35.5659 Z M  92.47136 35.5659  " /> 
 </g> 
 </g> 
 </g> 
 <g> 
 <g stroke="rgb(33.00018%,33.00018%,33.00018%)"> 
 <g fill="rgb(33.00018%,33.00018%,33.00018%)"> 
 <path d=" M  92.47136 49.79227 M  93.89398 49.79227 C  93.89398 50.57796 93.25705 51.21489 92.47136 51.21489 C  91.68567 51.21489 91.04874 50.57796 91.04874 49.79227 C  91.04874 49.00658 91.68567 48.36964 92.47136 48.36964 C  93.25705 48.36964 93.89398 49.00658 93.89398 49.79227 Z M  92.47136 49.79227  " /> 
 </g> 
 </g> 
 </g> 
 <g> 
 <g stroke="rgb(33.00018%,33.00018%,33.00018%)"> 
 <g fill="rgb(33.00018%,33.00018%,33.00018%)"> 
 <g stroke-width="0.8pt"> 
 <path d=" M  99.58455 35.5659 L  113.81091 35.5659  " style="fill:none"/> 
 </g> 
 </g> 
 </g> 
 </g> 
 <g> 
 <g stroke="rgb(33.00018%,33.00018%,33.00018%)"> 
 <g fill="rgb(33.00018%,33.00018%,33.00018%)"> 
 <g stroke-width="0.8pt"> 
 <path d=" M  99.58455 49.79227 L  113.81091 49.79227  " style="fill:none"/> 
 </g> 
 </g> 
 </g> 
 </g> 
 <g> 
 <g stroke="rgb(33.00018%,33.00018%,33.00018%)"> 
 <g fill="rgb(33.00018%,33.00018%,33.00018%)"> 
 <g stroke-width="0.8pt"> 
 <path d=" M  106.69772 28.45273 L  106.69772 56.90546  " style="fill:none"/> 
 </g> 
 </g> 
 </g> 
 </g> 
 <g> 
 <g stroke="rgb(33.00018%,33.00018%,33.00018%)"> 
 <g fill="rgb(33.00018%,33.00018%,33.00018%)"> 
 <path d=" M  106.69772 35.5659 M  108.12035 35.5659 C  108.12035 36.3516 107.48341 36.98853 106.69772 36.98853 C  105.91203 36.98853 105.2751 36.3516 105.2751 35.5659 C  105.2751 34.78021 105.91203 34.14328 106.69772 34.14328 C  107.48341 34.14328 108.12035 34.78021 108.12035 35.5659 Z M  106.69772 35.5659  " /> 
 </g> 
 </g> 
 </g> 
 <g> 
 <g stroke="rgb(33.00018%,33.00018%,33.00018%)"> 
 <g fill="rgb(33.00018%,33.00018%,33.00018%)"> 
 <path d=" M  106.69772 49.79227 M  108.12035 49.79227 C  108.12035 50.57796 107.48341 51.21489 106.69772 51.21489 C  105.91203 51.21489 105.2751 50.57796 105.2751 49.79227 C  105.2751 49.00658 105.91203 48.36964 106.69772 48.36964 C  107.48341 48.36964 108.12035 49.00658 108.12035 49.79227 Z M  106.69772 49.79227  " /> 
 </g> 
 </g> 
 </g> 
 <g> 
 <g stroke="rgb(33.00018%,33.00018%,33.00018%)"> 
 <g fill="rgb(33.00018%,33.00018%,33.00018%)"> 
 <g stroke-width="0.8pt"> 
 <path d=" M  113.81091 35.5659 L  128.03728 35.5659  " style="fill:none"/> 
 </g> 
 </g> 
 </g> 
 </g> 
 <g> 
 <g stroke="rgb(33.00018%,33.00018%,33.00018%)"> 
 <g fill="rgb(33.00018%,33.00018%,33.00018%)"> 
 <g stroke-width="0.8pt"> 
 <path d=" M  113.81091 49.79227 L  128.03728 49.79227  " style="fill:none"/> 
 </g> 
 </g> 
 </g> 
 </g> 
 <g> 
 <g stroke="rgb(33.00018%,33.00018%,33.00018%)"> 
 <g fill="rgb(33.00018%,33.00018%,33.00018%)"> 
 <g stroke-width="0.8pt"> 
 <path d=" M  120.92409 28.45273 L  120.92409 56.90546  " style="fill:none"/> 
 </g> 
 </g> 
 </g> 
 </g> 
 <g> 
 <g stroke="rgb(33.00018%,33.00018%,33.00018%)"> 
 <g fill="rgb(33.00018%,33.00018%,33.00018%)"> 
 <path d=" M  120.92409 35.5659 M  122.34671 35.5659 C  122.34671 36.3516 121.70978 36.98853 120.92409 36.98853 C  120.1384 36.98853 119.50146 36.3516 119.50146 35.5659 C  119.50146 34.78021 120.1384 34.14328 120.92409 34.14328 C  121.70978 34.14328 122.34671 34.78021 122.34671 35.5659 Z M  120.92409 35.5659  " /> 
 </g> 
 </g> 
 </g> 
 <g> 
 <g stroke="rgb(33.00018%,33.00018%,33.00018%)"> 
 <g fill="rgb(33.00018%,33.00018%,33.00018%)"> 
 <path d=" M  120.92409 49.79227 M  122.34671 49.79227 C  122.34671 50.57796 121.70978 51.21489 120.92409 51.21489 C  120.1384 51.21489 119.50146 50.57796 119.50146 49.79227 C  119.50146 49.00658 120.1384 48.36964 120.92409 48.36964 C  121.70978 48.36964 122.34671 49.00658 122.34671 49.79227 Z M  120.92409 49.79227  " /> 
 </g> 
 </g> 
 </g> 
 <g> 
 <g stroke="rgb(33.00018%,33.00018%,33.00018%)"> 
 <g fill="rgb(33.00018%,33.00018%,33.00018%)"> 
 <g stroke-width="0.8pt"> 
 <path d=" M  128.03728 35.5659 L  142.26364 35.5659  " style="fill:none"/> 
 </g> 
 </g> 
 </g> 
 </g> 
 <g> 
 <g stroke="rgb(33.00018%,33.00018%,33.00018%)"> 
 <g fill="rgb(33.00018%,33.00018%,33.00018%)"> 
 <g stroke-width="0.8pt"> 
 <path d=" M  128.03728 49.79227 L  142.26364 49.79227  " style="fill:none"/> 
 </g> 
 </g> 
 </g> 
 </g> 
 <g> 
 <g stroke="rgb(33.00018%,33.00018%,33.00018%)"> 
 <g fill="rgb(33.00018%,33.00018%,33.00018%)"> 
 <g stroke-width="0.8pt"> 
 <path d=" M  135.15045 28.45273 L  135.15045 56.90546  " style="fill:none"/> 
 </g> 
 </g> 
 </g> 
 </g> 
 <g> 
 <g stroke="rgb(33.00018%,33.00018%,33.00018%)"> 
 <g fill="rgb(33.00018%,33.00018%,33.00018%)"> 
 <path d=" M  135.15045 35.5659 M  136.57307 35.5659 C  136.57307 36.3516 135.93614 36.98853 135.15045 36.98853 C  134.36476 36.98853 133.72783 36.3516 133.72783 35.5659 C  133.72783 34.78021 134.36476 34.14328 135.15045 34.14328 C  135.93614 34.14328 136.57307 34.78021 136.57307 35.5659 Z M  135.15045 35.5659  " /> 
 </g> 
 </g> 
 </g> 
 <g> 
 <g stroke="rgb(33.00018%,33.00018%,33.00018%)"> 
 <g fill="rgb(33.00018%,33.00018%,33.00018%)"> 
 <path d=" M  135.15045 49.79227 M  136.57307 49.79227 C  136.57307 50.57796 135.93614 51.21489 135.15045 51.21489 C  134.36476 51.21489 133.72783 50.57796 133.72783 49.79227 C  133.72783 49.00658 134.36476 48.36964 135.15045 48.36964 C  135.93614 48.36964 136.57307 49.00658 136.57307 49.79227 Z M  135.15045 49.79227  " /> 
 </g> 
 </g> 
 </g> 
 <g> 
 <g stroke="rgb(33.00018%,33.00018%,33.00018%)"> 
 <g fill="rgb(33.00018%,33.00018%,33.00018%)"> 
 <g stroke-width="0.8pt"> 
 <path d=" M  0.0 64.01863 L  14.22636 64.01863  " style="fill:none"/> 
 </g> 
 </g> 
 </g> 
 </g> 
 <g> 
 <g stroke="rgb(33.00018%,33.00018%,33.00018%)"> 
 <g fill="rgb(33.00018%,33.00018%,33.00018%)"> 
 <g stroke-width="0.8pt"> 
 <path d=" M  0.0 78.245 L  14.22636 78.245  " style="fill:none"/> 
 </g> 
 </g> 
 </g> 
 </g> 
 <g> 
 <g stroke="rgb(33.00018%,33.00018%,33.00018%)"> 
 <g fill="rgb(33.00018%,33.00018%,33.00018%)"> 
 <g stroke-width="0.8pt"> 
 <path d=" M  7.11317 56.90546 L  7.11317 85.35818  " style="fill:none"/> 
 </g> 
 </g> 
 </g> 
 </g> 
 <g> 
 <g stroke="rgb(33.00018%,33.00018%,33.00018%)"> 
 <g fill="rgb(33.00018%,33.00018%,33.00018%)"> 
 <path d=" M  7.11317 64.01863 M  8.5358 64.01863 C  8.5358 64.80432 7.89886 65.44125 7.11317 65.44125 C  6.32748 65.44125 5.69055 64.80432 5.69055 64.01863 C  5.69055 63.23294 6.32748 62.59601 7.11317 62.59601 C  7.89886 62.59601 8.5358 63.23294 8.5358 64.01863 Z M  7.11317 64.01863  " /> 
 </g> 
 </g> 
 </g> 
 <g> 
 <g stroke="rgb(33.00018%,33.00018%,33.00018%)"> 
 <g fill="rgb(33.00018%,33.00018%,33.00018%)"> 
 <path d=" M  7.11317 78.245 M  8.5358 78.245 C  8.5358 79.03069 7.89886 79.66762 7.11317 79.66762 C  6.32748 79.66762 5.69055 79.03069 5.69055 78.245 C  5.69055 77.4593 6.32748 76.82237 7.11317 76.82237 C  7.89886 76.82237 8.5358 77.4593 8.5358 78.245 Z M  7.11317 78.245  " /> 
 </g> 
 </g> 
 </g> 
 <g> 
 <g stroke="rgb(33.00018%,33.00018%,33.00018%)"> 
 <g fill="rgb(33.00018%,33.00018%,33.00018%)"> 
 <g stroke-width="0.8pt"> 
 <path d=" M  14.22636 64.01863 L  28.45273 64.01863  " style="fill:none"/> 
 </g> 
 </g> 
 </g> 
 </g> 
 <g> 
 <g stroke="rgb(33.00018%,33.00018%,33.00018%)"> 
 <g fill="rgb(33.00018%,33.00018%,33.00018%)"> 
 <g stroke-width="0.8pt"> 
 <path d=" M  14.22636 78.245 L  28.45273 78.245  " style="fill:none"/> 
 </g> 
 </g> 
 </g> 
 </g> 
 <g> 
 <g stroke="rgb(33.00018%,33.00018%,33.00018%)"> 
 <g fill="rgb(33.00018%,33.00018%,33.00018%)"> 
 <g stroke-width="0.8pt"> 
 <path d=" M  21.33954 56.90546 L  21.33954 85.35818  " style="fill:none"/> 
 </g> 
 </g> 
 </g> 
 </g> 
 <g> 
 <g stroke="rgb(33.00018%,33.00018%,33.00018%)"> 
 <g fill="rgb(33.00018%,33.00018%,33.00018%)"> 
 <path d=" M  21.33954 64.01863 M  22.76216 64.01863 C  22.76216 64.80432 22.12523 65.44125 21.33954 65.44125 C  20.55385 65.44125 19.91692 64.80432 19.91692 64.01863 C  19.91692 63.23294 20.55385 62.59601 21.33954 62.59601 C  22.12523 62.59601 22.76216 63.23294 22.76216 64.01863 Z M  21.33954 64.01863  " /> 
 </g> 
 </g> 
 </g> 
 <g> 
 <g stroke="rgb(33.00018%,33.00018%,33.00018%)"> 
 <g fill="rgb(33.00018%,33.00018%,33.00018%)"> 
 <path d=" M  21.33954 78.245 M  22.76216 78.245 C  22.76216 79.03069 22.12523 79.66762 21.33954 79.66762 C  20.55385 79.66762 19.91692 79.03069 19.91692 78.245 C  19.91692 77.4593 20.55385 76.82237 21.33954 76.82237 C  22.12523 76.82237 22.76216 77.4593 22.76216 78.245 Z M  21.33954 78.245  " /> 
 </g> 
 </g> 
 </g> 
 <g> 
 <g stroke="rgb(33.00018%,33.00018%,33.00018%)"> 
 <g fill="rgb(33.00018%,33.00018%,33.00018%)"> 
 <g stroke-width="0.8pt"> 
 <path d=" M  28.45273 64.01863 L  42.6791 64.01863  " style="fill:none"/> 
 </g> 
 </g> 
 </g> 
 </g> 
 <g> 
 <g stroke="rgb(33.00018%,33.00018%,33.00018%)"> 
 <g fill="rgb(33.00018%,33.00018%,33.00018%)"> 
 <g stroke-width="0.8pt"> 
 <path d=" M  28.45273 78.245 L  42.6791 78.245  " style="fill:none"/> 
 </g> 
 </g> 
 </g> 
 </g> 
 <g> 
 <g stroke="rgb(33.00018%,33.00018%,33.00018%)"> 
 <g fill="rgb(33.00018%,33.00018%,33.00018%)"> 
 <g stroke-width="0.8pt"> 
 <path d=" M  35.5659 56.90546 L  35.5659 85.35818  " style="fill:none"/> 
 </g> 
 </g> 
 </g> 
 </g> 
 <g> 
 <g stroke="rgb(33.00018%,33.00018%,33.00018%)"> 
 <g fill="rgb(33.00018%,33.00018%,33.00018%)"> 
 <path d=" M  35.5659 64.01863 M  36.98853 64.01863 C  36.98853 64.80432 36.3516 65.44125 35.5659 65.44125 C  34.78021 65.44125 34.14328 64.80432 34.14328 64.01863 C  34.14328 63.23294 34.78021 62.59601 35.5659 62.59601 C  36.3516 62.59601 36.98853 63.23294 36.98853 64.01863 Z M  35.5659 64.01863  " /> 
 </g> 
 </g> 
 </g> 
 <g> 
 <g stroke="rgb(33.00018%,33.00018%,33.00018%)"> 
 <g fill="rgb(33.00018%,33.00018%,33.00018%)"> 
 <path d=" M  35.5659 78.245 M  36.98853 78.245 C  36.98853 79.03069 36.3516 79.66762 35.5659 79.66762 C  34.78021 79.66762 34.14328 79.03069 34.14328 78.245 C  34.14328 77.4593 34.78021 76.82237 35.5659 76.82237 C  36.3516 76.82237 36.98853 77.4593 36.98853 78.245 Z M  35.5659 78.245  " /> 
 </g> 
 </g> 
 </g> 
 <g> 
 <g stroke="rgb(33.00018%,33.00018%,33.00018%)"> 
 <g fill="rgb(33.00018%,33.00018%,33.00018%)"> 
 <g stroke-width="0.8pt"> 
 <path d=" M  42.6791 64.01863 L  56.90546 64.01863  " style="fill:none"/> 
 </g> 
 </g> 
 </g> 
 </g> 
 <g> 
 <g stroke="rgb(33.00018%,33.00018%,33.00018%)"> 
 <g fill="rgb(33.00018%,33.00018%,33.00018%)"> 
 <g stroke-width="0.8pt"> 
 <path d=" M  42.6791 78.245 L  56.90546 78.245  " style="fill:none"/> 
 </g> 
 </g> 
 </g> 
 </g> 
 <g> 
 <g stroke="rgb(33.00018%,33.00018%,33.00018%)"> 
 <g fill="rgb(33.00018%,33.00018%,33.00018%)"> 
 <g stroke-width="0.8pt"> 
 <path d=" M  49.79227 56.90546 L  49.79227 85.35818  " style="fill:none"/> 
 </g> 
 </g> 
 </g> 
 </g> 
 <g> 
 <g stroke="rgb(33.00018%,33.00018%,33.00018%)"> 
 <g fill="rgb(33.00018%,33.00018%,33.00018%)"> 
 <path d=" M  49.79227 64.01863 M  51.21489 64.01863 C  51.21489 64.80432 50.57796 65.44125 49.79227 65.44125 C  49.00658 65.44125 48.36964 64.80432 48.36964 64.01863 C  48.36964 63.23294 49.00658 62.59601 49.79227 62.59601 C  50.57796 62.59601 51.21489 63.23294 51.21489 64.01863 Z M  49.79227 64.01863  " /> 
 </g> 
 </g> 
 </g> 
 <g> 
 <g stroke="rgb(33.00018%,33.00018%,33.00018%)"> 
 <g fill="rgb(33.00018%,33.00018%,33.00018%)"> 
 <path d=" M  49.79227 78.245 M  51.21489 78.245 C  51.21489 79.03069 50.57796 79.66762 49.79227 79.66762 C  49.00658 79.66762 48.36964 79.03069 48.36964 78.245 C  48.36964 77.4593 49.00658 76.82237 49.79227 76.82237 C  50.57796 76.82237 51.21489 77.4593 51.21489 78.245 Z M  49.79227 78.245  " /> 
 </g> 
 </g> 
 </g> 
 <g> 
 <g stroke="rgb(33.00018%,33.00018%,33.00018%)"> 
 <g fill="rgb(33.00018%,33.00018%,33.00018%)"> 
 <g stroke-width="0.8pt"> 
 <path d=" M  56.90546 64.01863 L  71.13182 64.01863  " style="fill:none"/> 
 </g> 
 </g> 
 </g> 
 </g> 
 <g> 
 <g stroke="rgb(33.00018%,33.00018%,33.00018%)"> 
 <g fill="rgb(33.00018%,33.00018%,33.00018%)"> 
 <g stroke-width="0.8pt"> 
 <path d=" M  56.90546 78.245 L  71.13182 78.245  " style="fill:none"/> 
 </g> 
 </g> 
 </g> 
 </g> 
 <g> 
 <g stroke="rgb(33.00018%,33.00018%,33.00018%)"> 
 <g fill="rgb(33.00018%,33.00018%,33.00018%)"> 
 <g stroke-width="0.8pt"> 
 <path d=" M  64.01863 56.90546 L  64.01863 85.35818  " style="fill:none"/> 
 </g> 
 </g> 
 </g> 
 </g> 
 <g> 
 <g stroke="rgb(33.00018%,33.00018%,33.00018%)"> 
 <g fill="rgb(33.00018%,33.00018%,33.00018%)"> 
 <path d=" M  64.01863 64.01863 M  65.44125 64.01863 C  65.44125 64.80432 64.80432 65.44125 64.01863 65.44125 C  63.23294 65.44125 62.59601 64.80432 62.59601 64.01863 C  62.59601 63.23294 63.23294 62.59601 64.01863 62.59601 C  64.80432 62.59601 65.44125 63.23294 65.44125 64.01863 Z M  64.01863 64.01863  " /> 
 </g> 
 </g> 
 </g> 
 <g> 
 <g stroke="rgb(33.00018%,33.00018%,33.00018%)"> 
 <g fill="rgb(33.00018%,33.00018%,33.00018%)"> 
 <path d=" M  64.01863 78.245 M  65.44125 78.245 C  65.44125 79.03069 64.80432 79.66762 64.01863 79.66762 C  63.23294 79.66762 62.59601 79.03069 62.59601 78.245 C  62.59601 77.4593 63.23294 76.82237 64.01863 76.82237 C  64.80432 76.82237 65.44125 77.4593 65.44125 78.245 Z M  64.01863 78.245  " /> 
 </g> 
 </g> 
 </g> 
 <g> 
 <g stroke="rgb(33.00018%,33.00018%,33.00018%)"> 
 <g fill="rgb(33.00018%,33.00018%,33.00018%)"> 
 <g stroke-width="0.8pt"> 
 <path d=" M  71.13182 64.01863 L  85.35818 64.01863  " style="fill:none"/> 
 </g> 
 </g> 
 </g> 
 </g> 
 <g> 
 <g stroke="rgb(33.00018%,33.00018%,33.00018%)"> 
 <g fill="rgb(33.00018%,33.00018%,33.00018%)"> 
 <g stroke-width="0.8pt"> 
 <path d=" M  71.13182 78.245 L  85.35818 78.245  " style="fill:none"/> 
 </g> 
 </g> 
 </g> 
 </g> 
 <g> 
 <g stroke="rgb(33.00018%,33.00018%,33.00018%)"> 
 <g fill="rgb(33.00018%,33.00018%,33.00018%)"> 
 <g stroke-width="0.8pt"> 
 <path d=" M  78.245 56.90546 L  78.245 85.35818  " style="fill:none"/> 
 </g> 
 </g> 
 </g> 
 </g> 
 <g> 
 <g stroke="rgb(33.00018%,33.00018%,33.00018%)"> 
 <g fill="rgb(33.00018%,33.00018%,33.00018%)"> 
 <path d=" M  78.245 64.01863 M  79.66762 64.01863 C  79.66762 64.80432 79.03069 65.44125 78.245 65.44125 C  77.4593 65.44125 76.82237 64.80432 76.82237 64.01863 C  76.82237 63.23294 77.4593 62.59601 78.245 62.59601 C  79.03069 62.59601 79.66762 63.23294 79.66762 64.01863 Z M  78.245 64.01863  " /> 
 </g> 
 </g> 
 </g> 
 <g> 
 <g stroke="rgb(33.00018%,33.00018%,33.00018%)"> 
 <g fill="rgb(33.00018%,33.00018%,33.00018%)"> 
 <path d=" M  78.245 78.245 M  79.66762 78.245 C  79.66762 79.03069 79.03069 79.66762 78.245 79.66762 C  77.4593 79.66762 76.82237 79.03069 76.82237 78.245 C  76.82237 77.4593 77.4593 76.82237 78.245 76.82237 C  79.03069 76.82237 79.66762 77.4593 79.66762 78.245 Z M  78.245 78.245  " /> 
 </g> 
 </g> 
 </g> 
 <g> 
 <g stroke="rgb(33.00018%,33.00018%,33.00018%)"> 
 <g fill="rgb(33.00018%,33.00018%,33.00018%)"> 
 <g stroke-width="0.8pt"> 
 <path d=" M  85.35818 64.01863 L  99.58455 64.01863  " style="fill:none"/> 
 </g> 
 </g> 
 </g> 
 </g> 
 <g> 
 <g stroke="rgb(33.00018%,33.00018%,33.00018%)"> 
 <g fill="rgb(33.00018%,33.00018%,33.00018%)"> 
 <g stroke-width="0.8pt"> 
 <path d=" M  85.35818 78.245 L  99.58455 78.245  " style="fill:none"/> 
 </g> 
 </g> 
 </g> 
 </g> 
 <g> 
 <g stroke="rgb(33.00018%,33.00018%,33.00018%)"> 
 <g fill="rgb(33.00018%,33.00018%,33.00018%)"> 
 <g stroke-width="0.8pt"> 
 <path d=" M  92.47136 56.90546 L  92.47136 85.35818  " style="fill:none"/> 
 </g> 
 </g> 
 </g> 
 </g> 
 <g> 
 <g stroke="rgb(33.00018%,33.00018%,33.00018%)"> 
 <g fill="rgb(33.00018%,33.00018%,33.00018%)"> 
 <path d=" M  92.47136 64.01863 M  93.89398 64.01863 C  93.89398 64.80432 93.25705 65.44125 92.47136 65.44125 C  91.68567 65.44125 91.04874 64.80432 91.04874 64.01863 C  91.04874 63.23294 91.68567 62.59601 92.47136 62.59601 C  93.25705 62.59601 93.89398 63.23294 93.89398 64.01863 Z M  92.47136 64.01863  " /> 
 </g> 
 </g> 
 </g> 
 <g> 
 <g stroke="rgb(33.00018%,33.00018%,33.00018%)"> 
 <g fill="rgb(33.00018%,33.00018%,33.00018%)"> 
 <path d=" M  92.47136 78.245 M  93.89398 78.245 C  93.89398 79.03069 93.25705 79.66762 92.47136 79.66762 C  91.68567 79.66762 91.04874 79.03069 91.04874 78.245 C  91.04874 77.4593 91.68567 76.82237 92.47136 76.82237 C  93.25705 76.82237 93.89398 77.4593 93.89398 78.245 Z M  92.47136 78.245  " /> 
 </g> 
 </g> 
 </g> 
 <g> 
 <g stroke="rgb(33.00018%,33.00018%,33.00018%)"> 
 <g fill="rgb(33.00018%,33.00018%,33.00018%)"> 
 <g stroke-width="0.8pt"> 
 <path d=" M  99.58455 64.01863 L  113.81091 64.01863  " style="fill:none"/> 
 </g> 
 </g> 
 </g> 
 </g> 
 <g> 
 <g stroke="rgb(33.00018%,33.00018%,33.00018%)"> 
 <g fill="rgb(33.00018%,33.00018%,33.00018%)"> 
 <g stroke-width="0.8pt"> 
 <path d=" M  99.58455 78.245 L  113.81091 78.245  " style="fill:none"/> 
 </g> 
 </g> 
 </g> 
 </g> 
 <g> 
 <g stroke="rgb(33.00018%,33.00018%,33.00018%)"> 
 <g fill="rgb(33.00018%,33.00018%,33.00018%)"> 
 <g stroke-width="0.8pt"> 
 <path d=" M  106.69772 56.90546 L  106.69772 85.35818  " style="fill:none"/> 
 </g> 
 </g> 
 </g> 
 </g> 
 <g> 
 <g stroke="rgb(33.00018%,33.00018%,33.00018%)"> 
 <g fill="rgb(33.00018%,33.00018%,33.00018%)"> 
 <path d=" M  106.69772 64.01863 M  108.12035 64.01863 C  108.12035 64.80432 107.48341 65.44125 106.69772 65.44125 C  105.91203 65.44125 105.2751 64.80432 105.2751 64.01863 C  105.2751 63.23294 105.91203 62.59601 106.69772 62.59601 C  107.48341 62.59601 108.12035 63.23294 108.12035 64.01863 Z M  106.69772 64.01863  " /> 
 </g> 
 </g> 
 </g> 
 <g> 
 <g stroke="rgb(33.00018%,33.00018%,33.00018%)"> 
 <g fill="rgb(33.00018%,33.00018%,33.00018%)"> 
 <path d=" M  106.69772 78.245 M  108.12035 78.245 C  108.12035 79.03069 107.48341 79.66762 106.69772 79.66762 C  105.91203 79.66762 105.2751 79.03069 105.2751 78.245 C  105.2751 77.4593 105.91203 76.82237 106.69772 76.82237 C  107.48341 76.82237 108.12035 77.4593 108.12035 78.245 Z M  106.69772 78.245  " /> 
 </g> 
 </g> 
 </g> 
 <g> 
 <g stroke="rgb(33.00018%,33.00018%,33.00018%)"> 
 <g fill="rgb(33.00018%,33.00018%,33.00018%)"> 
 <g stroke-width="0.8pt"> 
 <path d=" M  113.81091 64.01863 L  128.03728 64.01863  " style="fill:none"/> 
 </g> 
 </g> 
 </g> 
 </g> 
 <g> 
 <g stroke="rgb(33.00018%,33.00018%,33.00018%)"> 
 <g fill="rgb(33.00018%,33.00018%,33.00018%)"> 
 <g stroke-width="0.8pt"> 
 <path d=" M  113.81091 78.245 L  128.03728 78.245  " style="fill:none"/> 
 </g> 
 </g> 
 </g> 
 </g> 
 <g> 
 <g stroke="rgb(33.00018%,33.00018%,33.00018%)"> 
 <g fill="rgb(33.00018%,33.00018%,33.00018%)"> 
 <g stroke-width="0.8pt"> 
 <path d=" M  120.92409 56.90546 L  120.92409 85.35818  " style="fill:none"/> 
 </g> 
 </g> 
 </g> 
 </g> 
 <g> 
 <g stroke="rgb(33.00018%,33.00018%,33.00018%)"> 
 <g fill="rgb(33.00018%,33.00018%,33.00018%)"> 
 <path d=" M  120.92409 64.01863 M  122.34671 64.01863 C  122.34671 64.80432 121.70978 65.44125 120.92409 65.44125 C  120.1384 65.44125 119.50146 64.80432 119.50146 64.01863 C  119.50146 63.23294 120.1384 62.59601 120.92409 62.59601 C  121.70978 62.59601 122.34671 63.23294 122.34671 64.01863 Z M  120.92409 64.01863  " /> 
 </g> 
 </g> 
 </g> 
 <g> 
 <g stroke="rgb(33.00018%,33.00018%,33.00018%)"> 
 <g fill="rgb(33.00018%,33.00018%,33.00018%)"> 
 <path d=" M  120.92409 78.245 M  122.34671 78.245 C  122.34671 79.03069 121.70978 79.66762 120.92409 79.66762 C  120.1384 79.66762 119.50146 79.03069 119.50146 78.245 C  119.50146 77.4593 120.1384 76.82237 120.92409 76.82237 C  121.70978 76.82237 122.34671 77.4593 122.34671 78.245 Z M  120.92409 78.245  " /> 
 </g> 
 </g> 
 </g> 
 <g> 
 <g stroke="rgb(33.00018%,33.00018%,33.00018%)"> 
 <g fill="rgb(33.00018%,33.00018%,33.00018%)"> 
 <g stroke-width="0.8pt"> 
 <path d=" M  128.03728 64.01863 L  142.26364 64.01863  " style="fill:none"/> 
 </g> 
 </g> 
 </g> 
 </g> 
 <g> 
 <g stroke="rgb(33.00018%,33.00018%,33.00018%)"> 
 <g fill="rgb(33.00018%,33.00018%,33.00018%)"> 
 <g stroke-width="0.8pt"> 
 <path d=" M  128.03728 78.245 L  142.26364 78.245  " style="fill:none"/> 
 </g> 
 </g> 
 </g> 
 </g> 
 <g> 
 <g stroke="rgb(33.00018%,33.00018%,33.00018%)"> 
 <g fill="rgb(33.00018%,33.00018%,33.00018%)"> 
 <g stroke-width="0.8pt"> 
 <path d=" M  135.15045 56.90546 L  135.15045 85.35818  " style="fill:none"/> 
 </g> 
 </g> 
 </g> 
 </g> 
 <g> 
 <g stroke="rgb(33.00018%,33.00018%,33.00018%)"> 
 <g fill="rgb(33.00018%,33.00018%,33.00018%)"> 
 <path d=" M  135.15045 64.01863 M  136.57307 64.01863 C  136.57307 64.80432 135.93614 65.44125 135.15045 65.44125 C  134.36476 65.44125 133.72783 64.80432 133.72783 64.01863 C  133.72783 63.23294 134.36476 62.59601 135.15045 62.59601 C  135.93614 62.59601 136.57307 63.23294 136.57307 64.01863 Z M  135.15045 64.01863  " /> 
 </g> 
 </g> 
 </g> 
 <g> 
 <g stroke="rgb(33.00018%,33.00018%,33.00018%)"> 
 <g fill="rgb(33.00018%,33.00018%,33.00018%)"> 
 <path d=" M  135.15045 78.245 M  136.57307 78.245 C  136.57307 79.03069 135.93614 79.66762 135.15045 79.66762 C  134.36476 79.66762 133.72783 79.03069 133.72783 78.245 C  133.72783 77.4593 134.36476 76.82237 135.15045 76.82237 C  135.93614 76.82237 136.57307 77.4593 136.57307 78.245 Z M  135.15045 78.245  " /> 
 </g> 
 </g> 
 </g> 
 <g> 
 <g stroke="rgb(33.00018%,33.00018%,33.00018%)"> 
 <g fill="rgb(33.00018%,33.00018%,33.00018%)"> 
 <g stroke-width="0.8pt"> 
 <path d=" M  0.0 92.47136 L  14.22636 92.47136  " style="fill:none"/> 
 </g> 
 </g> 
 </g> 
 </g> 
 <g> 
 <g stroke="rgb(33.00018%,33.00018%,33.00018%)"> 
 <g fill="rgb(33.00018%,33.00018%,33.00018%)"> 
 <g stroke-width="0.8pt"> 
 <path d=" M  0.0 106.69772 L  14.22636 106.69772  " style="fill:none"/> 
 </g> 
 </g> 
 </g> 
 </g> 
 <g> 
 <g stroke="rgb(33.00018%,33.00018%,33.00018%)"> 
 <g fill="rgb(33.00018%,33.00018%,33.00018%)"> 
 <g stroke-width="0.8pt"> 
 <path d=" M  7.11317 85.35818 L  7.11317 113.81091  " style="fill:none"/> 
 </g> 
 </g> 
 </g> 
 </g> 
 <g> 
 <g stroke="rgb(33.00018%,33.00018%,33.00018%)"> 
 <g fill="rgb(33.00018%,33.00018%,33.00018%)"> 
 <path d=" M  7.11317 92.47136 M  8.5358 92.47136 C  8.5358 93.25705 7.89886 93.89398 7.11317 93.89398 C  6.32748 93.89398 5.69055 93.25705 5.69055 92.47136 C  5.69055 91.68567 6.32748 91.04874 7.11317 91.04874 C  7.89886 91.04874 8.5358 91.68567 8.5358 92.47136 Z M  7.11317 92.47136  " /> 
 </g> 
 </g> 
 </g> 
 <g> 
 <g stroke="rgb(33.00018%,33.00018%,33.00018%)"> 
 <g fill="rgb(33.00018%,33.00018%,33.00018%)"> 
 <path d=" M  7.11317 106.69772 M  8.5358 106.69772 C  8.5358 107.48341 7.89886 108.12035 7.11317 108.12035 C  6.32748 108.12035 5.69055 107.48341 5.69055 106.69772 C  5.69055 105.91203 6.32748 105.2751 7.11317 105.2751 C  7.89886 105.2751 8.5358 105.91203 8.5358 106.69772 Z M  7.11317 106.69772  " /> 
 </g> 
 </g> 
 </g> 
 <g> 
 <g stroke="rgb(33.00018%,33.00018%,33.00018%)"> 
 <g fill="rgb(33.00018%,33.00018%,33.00018%)"> 
 <g stroke-width="0.8pt"> 
 <path d=" M  14.22636 92.47136 L  28.45273 92.47136  " style="fill:none"/> 
 </g> 
 </g> 
 </g> 
 </g> 
 <g> 
 <g stroke="rgb(33.00018%,33.00018%,33.00018%)"> 
 <g fill="rgb(33.00018%,33.00018%,33.00018%)"> 
 <g stroke-width="0.8pt"> 
 <path d=" M  14.22636 106.69772 L  28.45273 106.69772  " style="fill:none"/> 
 </g> 
 </g> 
 </g> 
 </g> 
 <g> 
 <g stroke="rgb(33.00018%,33.00018%,33.00018%)"> 
 <g fill="rgb(33.00018%,33.00018%,33.00018%)"> 
 <g stroke-width="0.8pt"> 
 <path d=" M  21.33954 85.35818 L  21.33954 113.81091  " style="fill:none"/> 
 </g> 
 </g> 
 </g> 
 </g> 
 <g> 
 <g stroke="rgb(33.00018%,33.00018%,33.00018%)"> 
 <g fill="rgb(33.00018%,33.00018%,33.00018%)"> 
 <path d=" M  21.33954 92.47136 M  22.76216 92.47136 C  22.76216 93.25705 22.12523 93.89398 21.33954 93.89398 C  20.55385 93.89398 19.91692 93.25705 19.91692 92.47136 C  19.91692 91.68567 20.55385 91.04874 21.33954 91.04874 C  22.12523 91.04874 22.76216 91.68567 22.76216 92.47136 Z M  21.33954 92.47136  " /> 
 </g> 
 </g> 
 </g> 
 <g> 
 <g stroke="rgb(33.00018%,33.00018%,33.00018%)"> 
 <g fill="rgb(33.00018%,33.00018%,33.00018%)"> 
 <path d=" M  21.33954 106.69772 M  22.76216 106.69772 C  22.76216 107.48341 22.12523 108.12035 21.33954 108.12035 C  20.55385 108.12035 19.91692 107.48341 19.91692 106.69772 C  19.91692 105.91203 20.55385 105.2751 21.33954 105.2751 C  22.12523 105.2751 22.76216 105.91203 22.76216 106.69772 Z M  21.33954 106.69772  " /> 
 </g> 
 </g> 
 </g> 
 <g> 
 <g stroke="rgb(33.00018%,33.00018%,33.00018%)"> 
 <g fill="rgb(33.00018%,33.00018%,33.00018%)"> 
 <g stroke-width="0.8pt"> 
 <path d=" M  28.45273 92.47136 L  42.6791 92.47136  " style="fill:none"/> 
 </g> 
 </g> 
 </g> 
 </g> 
 <g> 
 <g stroke="rgb(33.00018%,33.00018%,33.00018%)"> 
 <g fill="rgb(33.00018%,33.00018%,33.00018%)"> 
 <g stroke-width="0.8pt"> 
 <path d=" M  28.45273 106.69772 L  42.6791 106.69772  " style="fill:none"/> 
 </g> 
 </g> 
 </g> 
 </g> 
 <g> 
 <g stroke="rgb(33.00018%,33.00018%,33.00018%)"> 
 <g fill="rgb(33.00018%,33.00018%,33.00018%)"> 
 <g stroke-width="0.8pt"> 
 <path d=" M  35.5659 85.35818 L  35.5659 113.81091  " style="fill:none"/> 
 </g> 
 </g> 
 </g> 
 </g> 
 <g> 
 <g stroke="rgb(33.00018%,33.00018%,33.00018%)"> 
 <g fill="rgb(33.00018%,33.00018%,33.00018%)"> 
 <path d=" M  35.5659 92.47136 M  36.98853 92.47136 C  36.98853 93.25705 36.3516 93.89398 35.5659 93.89398 C  34.78021 93.89398 34.14328 93.25705 34.14328 92.47136 C  34.14328 91.68567 34.78021 91.04874 35.5659 91.04874 C  36.3516 91.04874 36.98853 91.68567 36.98853 92.47136 Z M  35.5659 92.47136  " /> 
 </g> 
 </g> 
 </g> 
 <g> 
 <g stroke="rgb(33.00018%,33.00018%,33.00018%)"> 
 <g fill="rgb(33.00018%,33.00018%,33.00018%)"> 
 <path d=" M  35.5659 106.69772 M  36.98853 106.69772 C  36.98853 107.48341 36.3516 108.12035 35.5659 108.12035 C  34.78021 108.12035 34.14328 107.48341 34.14328 106.69772 C  34.14328 105.91203 34.78021 105.2751 35.5659 105.2751 C  36.3516 105.2751 36.98853 105.91203 36.98853 106.69772 Z M  35.5659 106.69772  " /> 
 </g> 
 </g> 
 </g> 
 <g> 
 <g stroke="rgb(33.00018%,33.00018%,33.00018%)"> 
 <g fill="rgb(33.00018%,33.00018%,33.00018%)"> 
 <g stroke-width="0.8pt"> 
 <path d=" M  42.6791 92.47136 L  56.90546 92.47136  " style="fill:none"/> 
 </g> 
 </g> 
 </g> 
 </g> 
 <g> 
 <g stroke="rgb(33.00018%,33.00018%,33.00018%)"> 
 <g fill="rgb(33.00018%,33.00018%,33.00018%)"> 
 <g stroke-width="0.8pt"> 
 <path d=" M  42.6791 106.69772 L  56.90546 106.69772  " style="fill:none"/> 
 </g> 
 </g> 
 </g> 
 </g> 
 <g> 
 <g stroke="rgb(33.00018%,33.00018%,33.00018%)"> 
 <g fill="rgb(33.00018%,33.00018%,33.00018%)"> 
 <g stroke-width="0.8pt"> 
 <path d=" M  49.79227 85.35818 L  49.79227 113.81091  " style="fill:none"/> 
 </g> 
 </g> 
 </g> 
 </g> 
 <g> 
 <g stroke="rgb(33.00018%,33.00018%,33.00018%)"> 
 <g fill="rgb(33.00018%,33.00018%,33.00018%)"> 
 <path d=" M  49.79227 92.47136 M  51.21489 92.47136 C  51.21489 93.25705 50.57796 93.89398 49.79227 93.89398 C  49.00658 93.89398 48.36964 93.25705 48.36964 92.47136 C  48.36964 91.68567 49.00658 91.04874 49.79227 91.04874 C  50.57796 91.04874 51.21489 91.68567 51.21489 92.47136 Z M  49.79227 92.47136  " /> 
 </g> 
 </g> 
 </g> 
 <g> 
 <g stroke="rgb(33.00018%,33.00018%,33.00018%)"> 
 <g fill="rgb(33.00018%,33.00018%,33.00018%)"> 
 <path d=" M  49.79227 106.69772 M  51.21489 106.69772 C  51.21489 107.48341 50.57796 108.12035 49.79227 108.12035 C  49.00658 108.12035 48.36964 107.48341 48.36964 106.69772 C  48.36964 105.91203 49.00658 105.2751 49.79227 105.2751 C  50.57796 105.2751 51.21489 105.91203 51.21489 106.69772 Z M  49.79227 106.69772  " /> 
 </g> 
 </g> 
 </g> 
 <g> 
 <g stroke="rgb(33.00018%,33.00018%,33.00018%)"> 
 <g fill="rgb(33.00018%,33.00018%,33.00018%)"> 
 <g stroke-width="0.8pt"> 
 <path d=" M  56.90546 92.47136 L  71.13182 92.47136  " style="fill:none"/> 
 </g> 
 </g> 
 </g> 
 </g> 
 <g> 
 <g stroke="rgb(33.00018%,33.00018%,33.00018%)"> 
 <g fill="rgb(33.00018%,33.00018%,33.00018%)"> 
 <g stroke-width="0.8pt"> 
 <path d=" M  56.90546 106.69772 L  71.13182 106.69772  " style="fill:none"/> 
 </g> 
 </g> 
 </g> 
 </g> 
 <g> 
 <g stroke="rgb(33.00018%,33.00018%,33.00018%)"> 
 <g fill="rgb(33.00018%,33.00018%,33.00018%)"> 
 <g stroke-width="0.8pt"> 
 <path d=" M  64.01863 85.35818 L  64.01863 113.81091  " style="fill:none"/> 
 </g> 
 </g> 
 </g> 
 </g> 
 <g> 
 <g stroke="rgb(33.00018%,33.00018%,33.00018%)"> 
 <g fill="rgb(33.00018%,33.00018%,33.00018%)"> 
 <path d=" M  64.01863 92.47136 M  65.44125 92.47136 C  65.44125 93.25705 64.80432 93.89398 64.01863 93.89398 C  63.23294 93.89398 62.59601 93.25705 62.59601 92.47136 C  62.59601 91.68567 63.23294 91.04874 64.01863 91.04874 C  64.80432 91.04874 65.44125 91.68567 65.44125 92.47136 Z M  64.01863 92.47136  " /> 
 </g> 
 </g> 
 </g> 
 <g> 
 <g stroke="rgb(33.00018%,33.00018%,33.00018%)"> 
 <g fill="rgb(33.00018%,33.00018%,33.00018%)"> 
 <path d=" M  64.01863 106.69772 M  65.44125 106.69772 C  65.44125 107.48341 64.80432 108.12035 64.01863 108.12035 C  63.23294 108.12035 62.59601 107.48341 62.59601 106.69772 C  62.59601 105.91203 63.23294 105.2751 64.01863 105.2751 C  64.80432 105.2751 65.44125 105.91203 65.44125 106.69772 Z M  64.01863 106.69772  " /> 
 </g> 
 </g> 
 </g> 
 <g> 
 <g stroke="rgb(33.00018%,33.00018%,33.00018%)"> 
 <g fill="rgb(33.00018%,33.00018%,33.00018%)"> 
 <g stroke-width="0.8pt"> 
 <path d=" M  71.13182 92.47136 L  85.35818 92.47136  " style="fill:none"/> 
 </g> 
 </g> 
 </g> 
 </g> 
 <g> 
 <g stroke="rgb(33.00018%,33.00018%,33.00018%)"> 
 <g fill="rgb(33.00018%,33.00018%,33.00018%)"> 
 <g stroke-width="0.8pt"> 
 <path d=" M  71.13182 106.69772 L  85.35818 106.69772  " style="fill:none"/> 
 </g> 
 </g> 
 </g> 
 </g> 
 <g> 
 <g stroke="rgb(33.00018%,33.00018%,33.00018%)"> 
 <g fill="rgb(33.00018%,33.00018%,33.00018%)"> 
 <g stroke-width="0.8pt"> 
 <path d=" M  78.245 85.35818 L  78.245 113.81091  " style="fill:none"/> 
 </g> 
 </g> 
 </g> 
 </g> 
 <g> 
 <g stroke="rgb(33.00018%,33.00018%,33.00018%)"> 
 <g fill="rgb(33.00018%,33.00018%,33.00018%)"> 
 <path d=" M  78.245 92.47136 M  79.66762 92.47136 C  79.66762 93.25705 79.03069 93.89398 78.245 93.89398 C  77.4593 93.89398 76.82237 93.25705 76.82237 92.47136 C  76.82237 91.68567 77.4593 91.04874 78.245 91.04874 C  79.03069 91.04874 79.66762 91.68567 79.66762 92.47136 Z M  78.245 92.47136  " /> 
 </g> 
 </g> 
 </g> 
 <g> 
 <g stroke="rgb(33.00018%,33.00018%,33.00018%)"> 
 <g fill="rgb(33.00018%,33.00018%,33.00018%)"> 
 <path d=" M  78.245 106.69772 M  79.66762 106.69772 C  79.66762 107.48341 79.03069 108.12035 78.245 108.12035 C  77.4593 108.12035 76.82237 107.48341 76.82237 106.69772 C  76.82237 105.91203 77.4593 105.2751 78.245 105.2751 C  79.03069 105.2751 79.66762 105.91203 79.66762 106.69772 Z M  78.245 106.69772  " /> 
 </g> 
 </g> 
 </g> 
 <g> 
 <g stroke="rgb(33.00018%,33.00018%,33.00018%)"> 
 <g fill="rgb(33.00018%,33.00018%,33.00018%)"> 
 <g stroke-width="0.8pt"> 
 <path d=" M  85.35818 92.47136 L  99.58455 92.47136  " style="fill:none"/> 
 </g> 
 </g> 
 </g> 
 </g> 
 <g> 
 <g stroke="rgb(33.00018%,33.00018%,33.00018%)"> 
 <g fill="rgb(33.00018%,33.00018%,33.00018%)"> 
 <g stroke-width="0.8pt"> 
 <path d=" M  85.35818 106.69772 L  99.58455 106.69772  " style="fill:none"/> 
 </g> 
 </g> 
 </g> 
 </g> 
 <g> 
 <g stroke="rgb(33.00018%,33.00018%,33.00018%)"> 
 <g fill="rgb(33.00018%,33.00018%,33.00018%)"> 
 <g stroke-width="0.8pt"> 
 <path d=" M  92.47136 85.35818 L  92.47136 113.81091  " style="fill:none"/> 
 </g> 
 </g> 
 </g> 
 </g> 
 <g> 
 <g stroke="rgb(33.00018%,33.00018%,33.00018%)"> 
 <g fill="rgb(33.00018%,33.00018%,33.00018%)"> 
 <path d=" M  92.47136 92.47136 M  93.89398 92.47136 C  93.89398 93.25705 93.25705 93.89398 92.47136 93.89398 C  91.68567 93.89398 91.04874 93.25705 91.04874 92.47136 C  91.04874 91.68567 91.68567 91.04874 92.47136 91.04874 C  93.25705 91.04874 93.89398 91.68567 93.89398 92.47136 Z M  92.47136 92.47136  " /> 
 </g> 
 </g> 
 </g> 
 <g> 
 <g stroke="rgb(33.00018%,33.00018%,33.00018%)"> 
 <g fill="rgb(33.00018%,33.00018%,33.00018%)"> 
 <path d=" M  92.47136 106.69772 M  93.89398 106.69772 C  93.89398 107.48341 93.25705 108.12035 92.47136 108.12035 C  91.68567 108.12035 91.04874 107.48341 91.04874 106.69772 C  91.04874 105.91203 91.68567 105.2751 92.47136 105.2751 C  93.25705 105.2751 93.89398 105.91203 93.89398 106.69772 Z M  92.47136 106.69772  " /> 
 </g> 
 </g> 
 </g> 
 <g> 
 <g stroke="rgb(33.00018%,33.00018%,33.00018%)"> 
 <g fill="rgb(33.00018%,33.00018%,33.00018%)"> 
 <g stroke-width="0.8pt"> 
 <path d=" M  99.58455 92.47136 L  113.81091 92.47136  " style="fill:none"/> 
 </g> 
 </g> 
 </g> 
 </g> 
 <g> 
 <g stroke="rgb(33.00018%,33.00018%,33.00018%)"> 
 <g fill="rgb(33.00018%,33.00018%,33.00018%)"> 
 <g stroke-width="0.8pt"> 
 <path d=" M  99.58455 106.69772 L  113.81091 106.69772  " style="fill:none"/> 
 </g> 
 </g> 
 </g> 
 </g> 
 <g> 
 <g stroke="rgb(33.00018%,33.00018%,33.00018%)"> 
 <g fill="rgb(33.00018%,33.00018%,33.00018%)"> 
 <g stroke-width="0.8pt"> 
 <path d=" M  106.69772 85.35818 L  106.69772 113.81091  " style="fill:none"/> 
 </g> 
 </g> 
 </g> 
 </g> 
 <g> 
 <g stroke="rgb(33.00018%,33.00018%,33.00018%)"> 
 <g fill="rgb(33.00018%,33.00018%,33.00018%)"> 
 <path d=" M  106.69772 92.47136 M  108.12035 92.47136 C  108.12035 93.25705 107.48341 93.89398 106.69772 93.89398 C  105.91203 93.89398 105.2751 93.25705 105.2751 92.47136 C  105.2751 91.68567 105.91203 91.04874 106.69772 91.04874 C  107.48341 91.04874 108.12035 91.68567 108.12035 92.47136 Z M  106.69772 92.47136  " /> 
 </g> 
 </g> 
 </g> 
 <g> 
 <g stroke="rgb(33.00018%,33.00018%,33.00018%)"> 
 <g fill="rgb(33.00018%,33.00018%,33.00018%)"> 
 <path d=" M  106.69772 106.69772 M  108.12035 106.69772 C  108.12035 107.48341 107.48341 108.12035 106.69772 108.12035 C  105.91203 108.12035 105.2751 107.48341 105.2751 106.69772 C  105.2751 105.91203 105.91203 105.2751 106.69772 105.2751 C  107.48341 105.2751 108.12035 105.91203 108.12035 106.69772 Z M  106.69772 106.69772  " /> 
 </g> 
 </g> 
 </g> 
 <g> 
 <g stroke="rgb(33.00018%,33.00018%,33.00018%)"> 
 <g fill="rgb(33.00018%,33.00018%,33.00018%)"> 
 <g stroke-width="0.8pt"> 
 <path d=" M  113.81091 92.47136 L  128.03728 92.47136  " style="fill:none"/> 
 </g> 
 </g> 
 </g> 
 </g> 
 <g> 
 <g stroke="rgb(33.00018%,33.00018%,33.00018%)"> 
 <g fill="rgb(33.00018%,33.00018%,33.00018%)"> 
 <g stroke-width="0.8pt"> 
 <path d=" M  113.81091 106.69772 L  128.03728 106.69772  " style="fill:none"/> 
 </g> 
 </g> 
 </g> 
 </g> 
 <g> 
 <g stroke="rgb(33.00018%,33.00018%,33.00018%)"> 
 <g fill="rgb(33.00018%,33.00018%,33.00018%)"> 
 <g stroke-width="0.8pt"> 
 <path d=" M  120.92409 85.35818 L  120.92409 113.81091  " style="fill:none"/> 
 </g> 
 </g> 
 </g> 
 </g> 
 <g> 
 <g stroke="rgb(33.00018%,33.00018%,33.00018%)"> 
 <g fill="rgb(33.00018%,33.00018%,33.00018%)"> 
 <path d=" M  120.92409 92.47136 M  122.34671 92.47136 C  122.34671 93.25705 121.70978 93.89398 120.92409 93.89398 C  120.1384 93.89398 119.50146 93.25705 119.50146 92.47136 C  119.50146 91.68567 120.1384 91.04874 120.92409 91.04874 C  121.70978 91.04874 122.34671 91.68567 122.34671 92.47136 Z M  120.92409 92.47136  " /> 
 </g> 
 </g> 
 </g> 
 <g> 
 <g stroke="rgb(33.00018%,33.00018%,33.00018%)"> 
 <g fill="rgb(33.00018%,33.00018%,33.00018%)"> 
 <path d=" M  120.92409 106.69772 M  122.34671 106.69772 C  122.34671 107.48341 121.70978 108.12035 120.92409 108.12035 C  120.1384 108.12035 119.50146 107.48341 119.50146 106.69772 C  119.50146 105.91203 120.1384 105.2751 120.92409 105.2751 C  121.70978 105.2751 122.34671 105.91203 122.34671 106.69772 Z M  120.92409 106.69772  " /> 
 </g> 
 </g> 
 </g> 
 <g> 
 <g stroke="rgb(33.00018%,33.00018%,33.00018%)"> 
 <g fill="rgb(33.00018%,33.00018%,33.00018%)"> 
 <g stroke-width="0.8pt"> 
 <path d=" M  128.03728 92.47136 L  142.26364 92.47136  " style="fill:none"/> 
 </g> 
 </g> 
 </g> 
 </g> 
 <g> 
 <g stroke="rgb(33.00018%,33.00018%,33.00018%)"> 
 <g fill="rgb(33.00018%,33.00018%,33.00018%)"> 
 <g stroke-width="0.8pt"> 
 <path d=" M  128.03728 106.69772 L  142.26364 106.69772  " style="fill:none"/> 
 </g> 
 </g> 
 </g> 
 </g> 
 <g> 
 <g stroke="rgb(33.00018%,33.00018%,33.00018%)"> 
 <g fill="rgb(33.00018%,33.00018%,33.00018%)"> 
 <g stroke-width="0.8pt"> 
 <path d=" M  135.15045 85.35818 L  135.15045 113.81091  " style="fill:none"/> 
 </g> 
 </g> 
 </g> 
 </g> 
 <g> 
 <g stroke="rgb(33.00018%,33.00018%,33.00018%)"> 
 <g fill="rgb(33.00018%,33.00018%,33.00018%)"> 
 <path d=" M  135.15045 92.47136 M  136.57307 92.47136 C  136.57307 93.25705 135.93614 93.89398 135.15045 93.89398 C  134.36476 93.89398 133.72783 93.25705 133.72783 92.47136 C  133.72783 91.68567 134.36476 91.04874 135.15045 91.04874 C  135.93614 91.04874 136.57307 91.68567 136.57307 92.47136 Z M  135.15045 92.47136  " /> 
 </g> 
 </g> 
 </g> 
 <g> 
 <g stroke="rgb(33.00018%,33.00018%,33.00018%)"> 
 <g fill="rgb(33.00018%,33.00018%,33.00018%)"> 
 <path d=" M  135.15045 106.69772 M  136.57307 106.69772 C  136.57307 107.48341 135.93614 108.12035 135.15045 108.12035 C  134.36476 108.12035 133.72783 107.48341 133.72783 106.69772 C  133.72783 105.91203 134.36476 105.2751 135.15045 105.2751 C  135.93614 105.2751 136.57307 105.91203 136.57307 106.69772 Z M  135.15045 106.69772  " /> 
 </g> 
 </g> 
 </g> 
 <g> 
 <g stroke="rgb(33.00018%,33.00018%,33.00018%)"> 
 <g fill="rgb(33.00018%,33.00018%,33.00018%)"> 
 <g stroke-width="0.8pt"> 
 <path d=" M  0.0 120.92409 L  14.22636 120.92409  " style="fill:none"/> 
 </g> 
 </g> 
 </g> 
 </g> 
 <g> 
 <g stroke="rgb(33.00018%,33.00018%,33.00018%)"> 
 <g fill="rgb(33.00018%,33.00018%,33.00018%)"> 
 <g stroke-width="0.8pt"> 
 <path d=" M  0.0 135.15045 L  14.22636 135.15045  " style="fill:none"/> 
 </g> 
 </g> 
 </g> 
 </g> 
 <g> 
 <g stroke="rgb(33.00018%,33.00018%,33.00018%)"> 
 <g fill="rgb(33.00018%,33.00018%,33.00018%)"> 
 <g stroke-width="0.8pt"> 
 <path d=" M  7.11317 113.81091 L  7.11317 142.26364  " style="fill:none"/> 
 </g> 
 </g> 
 </g> 
 </g> 
 <g> 
 <g stroke="rgb(33.00018%,33.00018%,33.00018%)"> 
 <g fill="rgb(33.00018%,33.00018%,33.00018%)"> 
 <path d=" M  7.11317 120.92409 M  8.5358 120.92409 C  8.5358 121.70978 7.89886 122.34671 7.11317 122.34671 C  6.32748 122.34671 5.69055 121.70978 5.69055 120.92409 C  5.69055 120.1384 6.32748 119.50146 7.11317 119.50146 C  7.89886 119.50146 8.5358 120.1384 8.5358 120.92409 Z M  7.11317 120.92409  " /> 
 </g> 
 </g> 
 </g> 
 <g> 
 <g stroke="rgb(33.00018%,33.00018%,33.00018%)"> 
 <g fill="rgb(33.00018%,33.00018%,33.00018%)"> 
 <path d=" M  7.11317 135.15045 M  8.5358 135.15045 C  8.5358 135.93614 7.89886 136.57307 7.11317 136.57307 C  6.32748 136.57307 5.69055 135.93614 5.69055 135.15045 C  5.69055 134.36476 6.32748 133.72783 7.11317 133.72783 C  7.89886 133.72783 8.5358 134.36476 8.5358 135.15045 Z M  7.11317 135.15045  " /> 
 </g> 
 </g> 
 </g> 
 <g> 
 <g stroke="rgb(33.00018%,33.00018%,33.00018%)"> 
 <g fill="rgb(33.00018%,33.00018%,33.00018%)"> 
 <g stroke-width="0.8pt"> 
 <path d=" M  14.22636 120.92409 L  28.45273 120.92409  " style="fill:none"/> 
 </g> 
 </g> 
 </g> 
 </g> 
 <g> 
 <g stroke="rgb(33.00018%,33.00018%,33.00018%)"> 
 <g fill="rgb(33.00018%,33.00018%,33.00018%)"> 
 <g stroke-width="0.8pt"> 
 <path d=" M  14.22636 135.15045 L  28.45273 135.15045  " style="fill:none"/> 
 </g> 
 </g> 
 </g> 
 </g> 
 <g> 
 <g stroke="rgb(33.00018%,33.00018%,33.00018%)"> 
 <g fill="rgb(33.00018%,33.00018%,33.00018%)"> 
 <g stroke-width="0.8pt"> 
 <path d=" M  21.33954 113.81091 L  21.33954 142.26364  " style="fill:none"/> 
 </g> 
 </g> 
 </g> 
 </g> 
 <g> 
 <g stroke="rgb(33.00018%,33.00018%,33.00018%)"> 
 <g fill="rgb(33.00018%,33.00018%,33.00018%)"> 
 <path d=" M  21.33954 120.92409 M  22.76216 120.92409 C  22.76216 121.70978 22.12523 122.34671 21.33954 122.34671 C  20.55385 122.34671 19.91692 121.70978 19.91692 120.92409 C  19.91692 120.1384 20.55385 119.50146 21.33954 119.50146 C  22.12523 119.50146 22.76216 120.1384 22.76216 120.92409 Z M  21.33954 120.92409  " /> 
 </g> 
 </g> 
 </g> 
 <g> 
 <g stroke="rgb(33.00018%,33.00018%,33.00018%)"> 
 <g fill="rgb(33.00018%,33.00018%,33.00018%)"> 
 <path d=" M  21.33954 135.15045 M  22.76216 135.15045 C  22.76216 135.93614 22.12523 136.57307 21.33954 136.57307 C  20.55385 136.57307 19.91692 135.93614 19.91692 135.15045 C  19.91692 134.36476 20.55385 133.72783 21.33954 133.72783 C  22.12523 133.72783 22.76216 134.36476 22.76216 135.15045 Z M  21.33954 135.15045  " /> 
 </g> 
 </g> 
 </g> 
 <g> 
 <g stroke="rgb(33.00018%,33.00018%,33.00018%)"> 
 <g fill="rgb(33.00018%,33.00018%,33.00018%)"> 
 <g stroke-width="0.8pt"> 
 <path d=" M  28.45273 120.92409 L  42.6791 120.92409  " style="fill:none"/> 
 </g> 
 </g> 
 </g> 
 </g> 
 <g> 
 <g stroke="rgb(33.00018%,33.00018%,33.00018%)"> 
 <g fill="rgb(33.00018%,33.00018%,33.00018%)"> 
 <g stroke-width="0.8pt"> 
 <path d=" M  28.45273 135.15045 L  42.6791 135.15045  " style="fill:none"/> 
 </g> 
 </g> 
 </g> 
 </g> 
 <g> 
 <g stroke="rgb(33.00018%,33.00018%,33.00018%)"> 
 <g fill="rgb(33.00018%,33.00018%,33.00018%)"> 
 <g stroke-width="0.8pt"> 
 <path d=" M  35.5659 113.81091 L  35.5659 142.26364  " style="fill:none"/> 
 </g> 
 </g> 
 </g> 
 </g> 
 <g> 
 <g stroke="rgb(33.00018%,33.00018%,33.00018%)"> 
 <g fill="rgb(33.00018%,33.00018%,33.00018%)"> 
 <path d=" M  35.5659 120.92409 M  36.98853 120.92409 C  36.98853 121.70978 36.3516 122.34671 35.5659 122.34671 C  34.78021 122.34671 34.14328 121.70978 34.14328 120.92409 C  34.14328 120.1384 34.78021 119.50146 35.5659 119.50146 C  36.3516 119.50146 36.98853 120.1384 36.98853 120.92409 Z M  35.5659 120.92409  " /> 
 </g> 
 </g> 
 </g> 
 <g> 
 <g stroke="rgb(33.00018%,33.00018%,33.00018%)"> 
 <g fill="rgb(33.00018%,33.00018%,33.00018%)"> 
 <path d=" M  35.5659 135.15045 M  36.98853 135.15045 C  36.98853 135.93614 36.3516 136.57307 35.5659 136.57307 C  34.78021 136.57307 34.14328 135.93614 34.14328 135.15045 C  34.14328 134.36476 34.78021 133.72783 35.5659 133.72783 C  36.3516 133.72783 36.98853 134.36476 36.98853 135.15045 Z M  35.5659 135.15045  " /> 
 </g> 
 </g> 
 </g> 
 <g> 
 <g stroke="rgb(33.00018%,33.00018%,33.00018%)"> 
 <g fill="rgb(33.00018%,33.00018%,33.00018%)"> 
 <g stroke-width="0.8pt"> 
 <path d=" M  42.6791 120.92409 L  56.90546 120.92409  " style="fill:none"/> 
 </g> 
 </g> 
 </g> 
 </g> 
 <g> 
 <g stroke="rgb(33.00018%,33.00018%,33.00018%)"> 
 <g fill="rgb(33.00018%,33.00018%,33.00018%)"> 
 <g stroke-width="0.8pt"> 
 <path d=" M  42.6791 135.15045 L  56.90546 135.15045  " style="fill:none"/> 
 </g> 
 </g> 
 </g> 
 </g> 
 <g> 
 <g stroke="rgb(33.00018%,33.00018%,33.00018%)"> 
 <g fill="rgb(33.00018%,33.00018%,33.00018%)"> 
 <g stroke-width="0.8pt"> 
 <path d=" M  49.79227 113.81091 L  49.79227 142.26364  " style="fill:none"/> 
 </g> 
 </g> 
 </g> 
 </g> 
 <g> 
 <g stroke="rgb(33.00018%,33.00018%,33.00018%)"> 
 <g fill="rgb(33.00018%,33.00018%,33.00018%)"> 
 <path d=" M  49.79227 120.92409 M  51.21489 120.92409 C  51.21489 121.70978 50.57796 122.34671 49.79227 122.34671 C  49.00658 122.34671 48.36964 121.70978 48.36964 120.92409 C  48.36964 120.1384 49.00658 119.50146 49.79227 119.50146 C  50.57796 119.50146 51.21489 120.1384 51.21489 120.92409 Z M  49.79227 120.92409  " /> 
 </g> 
 </g> 
 </g> 
 <g> 
 <g stroke="rgb(33.00018%,33.00018%,33.00018%)"> 
 <g fill="rgb(33.00018%,33.00018%,33.00018%)"> 
 <path d=" M  49.79227 135.15045 M  51.21489 135.15045 C  51.21489 135.93614 50.57796 136.57307 49.79227 136.57307 C  49.00658 136.57307 48.36964 135.93614 48.36964 135.15045 C  48.36964 134.36476 49.00658 133.72783 49.79227 133.72783 C  50.57796 133.72783 51.21489 134.36476 51.21489 135.15045 Z M  49.79227 135.15045  " /> 
 </g> 
 </g> 
 </g> 
 <g> 
 <g stroke="rgb(33.00018%,33.00018%,33.00018%)"> 
 <g fill="rgb(33.00018%,33.00018%,33.00018%)"> 
 <g stroke-width="0.8pt"> 
 <path d=" M  56.90546 120.92409 L  71.13182 120.92409  " style="fill:none"/> 
 </g> 
 </g> 
 </g> 
 </g> 
 <g> 
 <g stroke="rgb(33.00018%,33.00018%,33.00018%)"> 
 <g fill="rgb(33.00018%,33.00018%,33.00018%)"> 
 <g stroke-width="0.8pt"> 
 <path d=" M  56.90546 135.15045 L  71.13182 135.15045  " style="fill:none"/> 
 </g> 
 </g> 
 </g> 
 </g> 
 <g> 
 <g stroke="rgb(33.00018%,33.00018%,33.00018%)"> 
 <g fill="rgb(33.00018%,33.00018%,33.00018%)"> 
 <g stroke-width="0.8pt"> 
 <path d=" M  64.01863 113.81091 L  64.01863 142.26364  " style="fill:none"/> 
 </g> 
 </g> 
 </g> 
 </g> 
 <g> 
 <g stroke="rgb(33.00018%,33.00018%,33.00018%)"> 
 <g fill="rgb(33.00018%,33.00018%,33.00018%)"> 
 <path d=" M  64.01863 120.92409 M  65.44125 120.92409 C  65.44125 121.70978 64.80432 122.34671 64.01863 122.34671 C  63.23294 122.34671 62.59601 121.70978 62.59601 120.92409 C  62.59601 120.1384 63.23294 119.50146 64.01863 119.50146 C  64.80432 119.50146 65.44125 120.1384 65.44125 120.92409 Z M  64.01863 120.92409  " /> 
 </g> 
 </g> 
 </g> 
 <g> 
 <g stroke="rgb(33.00018%,33.00018%,33.00018%)"> 
 <g fill="rgb(33.00018%,33.00018%,33.00018%)"> 
 <path d=" M  64.01863 135.15045 M  65.44125 135.15045 C  65.44125 135.93614 64.80432 136.57307 64.01863 136.57307 C  63.23294 136.57307 62.59601 135.93614 62.59601 135.15045 C  62.59601 134.36476 63.23294 133.72783 64.01863 133.72783 C  64.80432 133.72783 65.44125 134.36476 65.44125 135.15045 Z M  64.01863 135.15045  " /> 
 </g> 
 </g> 
 </g> 
 <g> 
 <g stroke="rgb(33.00018%,33.00018%,33.00018%)"> 
 <g fill="rgb(33.00018%,33.00018%,33.00018%)"> 
 <g stroke-width="0.8pt"> 
 <path d=" M  71.13182 120.92409 L  85.35818 120.92409  " style="fill:none"/> 
 </g> 
 </g> 
 </g> 
 </g> 
 <g> 
 <g stroke="rgb(33.00018%,33.00018%,33.00018%)"> 
 <g fill="rgb(33.00018%,33.00018%,33.00018%)"> 
 <g stroke-width="0.8pt"> 
 <path d=" M  71.13182 135.15045 L  85.35818 135.15045  " style="fill:none"/> 
 </g> 
 </g> 
 </g> 
 </g> 
 <g> 
 <g stroke="rgb(33.00018%,33.00018%,33.00018%)"> 
 <g fill="rgb(33.00018%,33.00018%,33.00018%)"> 
 <g stroke-width="0.8pt"> 
 <path d=" M  78.245 113.81091 L  78.245 142.26364  " style="fill:none"/> 
 </g> 
 </g> 
 </g> 
 </g> 
 <g> 
 <g stroke="rgb(33.00018%,33.00018%,33.00018%)"> 
 <g fill="rgb(33.00018%,33.00018%,33.00018%)"> 
 <path d=" M  78.245 120.92409 M  79.66762 120.92409 C  79.66762 121.70978 79.03069 122.34671 78.245 122.34671 C  77.4593 122.34671 76.82237 121.70978 76.82237 120.92409 C  76.82237 120.1384 77.4593 119.50146 78.245 119.50146 C  79.03069 119.50146 79.66762 120.1384 79.66762 120.92409 Z M  78.245 120.92409  " /> 
 </g> 
 </g> 
 </g> 
 <g> 
 <g stroke="rgb(33.00018%,33.00018%,33.00018%)"> 
 <g fill="rgb(33.00018%,33.00018%,33.00018%)"> 
 <path d=" M  78.245 135.15045 M  79.66762 135.15045 C  79.66762 135.93614 79.03069 136.57307 78.245 136.57307 C  77.4593 136.57307 76.82237 135.93614 76.82237 135.15045 C  76.82237 134.36476 77.4593 133.72783 78.245 133.72783 C  79.03069 133.72783 79.66762 134.36476 79.66762 135.15045 Z M  78.245 135.15045  " /> 
 </g> 
 </g> 
 </g> 
 <g> 
 <g stroke="rgb(33.00018%,33.00018%,33.00018%)"> 
 <g fill="rgb(33.00018%,33.00018%,33.00018%)"> 
 <g stroke-width="0.8pt"> 
 <path d=" M  85.35818 120.92409 L  99.58455 120.92409  " style="fill:none"/> 
 </g> 
 </g> 
 </g> 
 </g> 
 <g> 
 <g stroke="rgb(33.00018%,33.00018%,33.00018%)"> 
 <g fill="rgb(33.00018%,33.00018%,33.00018%)"> 
 <g stroke-width="0.8pt"> 
 <path d=" M  85.35818 135.15045 L  99.58455 135.15045  " style="fill:none"/> 
 </g> 
 </g> 
 </g> 
 </g> 
 <g> 
 <g stroke="rgb(33.00018%,33.00018%,33.00018%)"> 
 <g fill="rgb(33.00018%,33.00018%,33.00018%)"> 
 <g stroke-width="0.8pt"> 
 <path d=" M  92.47136 113.81091 L  92.47136 142.26364  " style="fill:none"/> 
 </g> 
 </g> 
 </g> 
 </g> 
 <g> 
 <g stroke="rgb(33.00018%,33.00018%,33.00018%)"> 
 <g fill="rgb(33.00018%,33.00018%,33.00018%)"> 
 <path d=" M  92.47136 120.92409 M  93.89398 120.92409 C  93.89398 121.70978 93.25705 122.34671 92.47136 122.34671 C  91.68567 122.34671 91.04874 121.70978 91.04874 120.92409 C  91.04874 120.1384 91.68567 119.50146 92.47136 119.50146 C  93.25705 119.50146 93.89398 120.1384 93.89398 120.92409 Z M  92.47136 120.92409  " /> 
 </g> 
 </g> 
 </g> 
 <g> 
 <g stroke="rgb(33.00018%,33.00018%,33.00018%)"> 
 <g fill="rgb(33.00018%,33.00018%,33.00018%)"> 
 <path d=" M  92.47136 135.15045 M  93.89398 135.15045 C  93.89398 135.93614 93.25705 136.57307 92.47136 136.57307 C  91.68567 136.57307 91.04874 135.93614 91.04874 135.15045 C  91.04874 134.36476 91.68567 133.72783 92.47136 133.72783 C  93.25705 133.72783 93.89398 134.36476 93.89398 135.15045 Z M  92.47136 135.15045  " /> 
 </g> 
 </g> 
 </g> 
 <g> 
 <g stroke="rgb(33.00018%,33.00018%,33.00018%)"> 
 <g fill="rgb(33.00018%,33.00018%,33.00018%)"> 
 <g stroke-width="0.8pt"> 
 <path d=" M  99.58455 120.92409 L  113.81091 120.92409  " style="fill:none"/> 
 </g> 
 </g> 
 </g> 
 </g> 
 <g> 
 <g stroke="rgb(33.00018%,33.00018%,33.00018%)"> 
 <g fill="rgb(33.00018%,33.00018%,33.00018%)"> 
 <g stroke-width="0.8pt"> 
 <path d=" M  99.58455 135.15045 L  113.81091 135.15045  " style="fill:none"/> 
 </g> 
 </g> 
 </g> 
 </g> 
 <g> 
 <g stroke="rgb(33.00018%,33.00018%,33.00018%)"> 
 <g fill="rgb(33.00018%,33.00018%,33.00018%)"> 
 <g stroke-width="0.8pt"> 
 <path d=" M  106.69772 113.81091 L  106.69772 142.26364  " style="fill:none"/> 
 </g> 
 </g> 
 </g> 
 </g> 
 <g> 
 <g stroke="rgb(33.00018%,33.00018%,33.00018%)"> 
 <g fill="rgb(33.00018%,33.00018%,33.00018%)"> 
 <path d=" M  106.69772 120.92409 M  108.12035 120.92409 C  108.12035 121.70978 107.48341 122.34671 106.69772 122.34671 C  105.91203 122.34671 105.2751 121.70978 105.2751 120.92409 C  105.2751 120.1384 105.91203 119.50146 106.69772 119.50146 C  107.48341 119.50146 108.12035 120.1384 108.12035 120.92409 Z M  106.69772 120.92409  " /> 
 </g> 
 </g> 
 </g> 
 <g> 
 <g stroke="rgb(33.00018%,33.00018%,33.00018%)"> 
 <g fill="rgb(33.00018%,33.00018%,33.00018%)"> 
 <path d=" M  106.69772 135.15045 M  108.12035 135.15045 C  108.12035 135.93614 107.48341 136.57307 106.69772 136.57307 C  105.91203 136.57307 105.2751 135.93614 105.2751 135.15045 C  105.2751 134.36476 105.91203 133.72783 106.69772 133.72783 C  107.48341 133.72783 108.12035 134.36476 108.12035 135.15045 Z M  106.69772 135.15045  " /> 
 </g> 
 </g> 
 </g> 
 <g> 
 <g stroke="rgb(33.00018%,33.00018%,33.00018%)"> 
 <g fill="rgb(33.00018%,33.00018%,33.00018%)"> 
 <g stroke-width="0.8pt"> 
 <path d=" M  113.81091 120.92409 L  128.03728 120.92409  " style="fill:none"/> 
 </g> 
 </g> 
 </g> 
 </g> 
 <g> 
 <g stroke="rgb(33.00018%,33.00018%,33.00018%)"> 
 <g fill="rgb(33.00018%,33.00018%,33.00018%)"> 
 <g stroke-width="0.8pt"> 
 <path d=" M  113.81091 135.15045 L  128.03728 135.15045  " style="fill:none"/> 
 </g> 
 </g> 
 </g> 
 </g> 
 <g> 
 <g stroke="rgb(33.00018%,33.00018%,33.00018%)"> 
 <g fill="rgb(33.00018%,33.00018%,33.00018%)"> 
 <g stroke-width="0.8pt"> 
 <path d=" M  120.92409 113.81091 L  120.92409 142.26364  " style="fill:none"/> 
 </g> 
 </g> 
 </g> 
 </g> 
 <g> 
 <g stroke="rgb(33.00018%,33.00018%,33.00018%)"> 
 <g fill="rgb(33.00018%,33.00018%,33.00018%)"> 
 <path d=" M  120.92409 120.92409 M  122.34671 120.92409 C  122.34671 121.70978 121.70978 122.34671 120.92409 122.34671 C  120.1384 122.34671 119.50146 121.70978 119.50146 120.92409 C  119.50146 120.1384 120.1384 119.50146 120.92409 119.50146 C  121.70978 119.50146 122.34671 120.1384 122.34671 120.92409 Z M  120.92409 120.92409  " /> 
 </g> 
 </g> 
 </g> 
 <g> 
 <g stroke="rgb(33.00018%,33.00018%,33.00018%)"> 
 <g fill="rgb(33.00018%,33.00018%,33.00018%)"> 
 <path d=" M  120.92409 135.15045 M  122.34671 135.15045 C  122.34671 135.93614 121.70978 136.57307 120.92409 136.57307 C  120.1384 136.57307 119.50146 135.93614 119.50146 135.15045 C  119.50146 134.36476 120.1384 133.72783 120.92409 133.72783 C  121.70978 133.72783 122.34671 134.36476 122.34671 135.15045 Z M  120.92409 135.15045  " /> 
 </g> 
 </g> 
 </g> 
 <g> 
 <g stroke="rgb(33.00018%,33.00018%,33.00018%)"> 
 <g fill="rgb(33.00018%,33.00018%,33.00018%)"> 
 <g stroke-width="0.8pt"> 
 <path d=" M  128.03728 120.92409 L  142.26364 120.92409  " style="fill:none"/> 
 </g> 
 </g> 
 </g> 
 </g> 
 <g> 
 <g stroke="rgb(33.00018%,33.00018%,33.00018%)"> 
 <g fill="rgb(33.00018%,33.00018%,33.00018%)"> 
 <g stroke-width="0.8pt"> 
 <path d=" M  128.03728 135.15045 L  142.26364 135.15045  " style="fill:none"/> 
 </g> 
 </g> 
 </g> 
 </g> 
 <g> 
 <g stroke="rgb(33.00018%,33.00018%,33.00018%)"> 
 <g fill="rgb(33.00018%,33.00018%,33.00018%)"> 
 <g stroke-width="0.8pt"> 
 <path d=" M  135.15045 113.81091 L  135.15045 142.26364  " style="fill:none"/> 
 </g> 
 </g> 
 </g> 
 </g> 
 <g> 
 <g stroke="rgb(33.00018%,33.00018%,33.00018%)"> 
 <g fill="rgb(33.00018%,33.00018%,33.00018%)"> 
 <path d=" M  135.15045 120.92409 M  136.57307 120.92409 C  136.57307 121.70978 135.93614 122.34671 135.15045 122.34671 C  134.36476 122.34671 133.72783 121.70978 133.72783 120.92409 C  133.72783 120.1384 134.36476 119.50146 135.15045 119.50146 C  135.93614 119.50146 136.57307 120.1384 136.57307 120.92409 Z M  135.15045 120.92409  " /> 
 </g> 
 </g> 
 </g> 
 <g> 
 <g stroke="rgb(33.00018%,33.00018%,33.00018%)"> 
 <g fill="rgb(33.00018%,33.00018%,33.00018%)"> 
 <path d=" M  135.15045 135.15045 M  136.57307 135.15045 C  136.57307 135.93614 135.93614 136.57307 135.15045 136.57307 C  134.36476 136.57307 133.72783 135.93614 133.72783 135.15045 C  133.72783 134.36476 134.36476 133.72783 135.15045 133.72783 C  135.93614 133.72783 136.57307 134.36476 136.57307 135.15045 Z M  135.15045 135.15045  " /> 
 </g> 
 </g> 
 </g> 
 </g> 
 </g> 
 </g> 
 </g> 
 </g> 
                                            </g> 
</svg> 
