<?xml version="1.0" encoding="iso-8859-1" standalone="no"?> 
<?xml-stylesheet href="main.css" type="text/css"?> 
<svg xmlns="http://www.w3.org/2000/svg" xmlns:xlink="http://www.w3.org/1999/xlink" width="138.03267pt" height="158.21634pt" viewBox="-18.33301 -5.89046 138.03267 158.21634 "> 
<g transform="translate(0, 152.32588 ) scale(1,-1) translate(0,5.89046 )"> 
     <g> 
 <g stroke="rgb(0.0%,0.0%,0.0%)"> 
 <g fill="rgb(0.0%,0.0%,0.0%)"> 
 <g stroke-width="0.4pt"> 
 <g> 
 <g> 
 <g stroke="rgb(33.00018%,33.00018%,33.00018%)"> 
 <g fill="rgb(33.00018%,33.00018%,33.00018%)"> 
 <g stroke-opacity="0.25"> 
 <g fill-opacity="0.25"> 
 <path d=" M  11.38092 11.38092 M  11.38092 11.38092 L  11.38092 102.42828 L  102.42828 102.42828 L  102.42828 11.38092 Z M  102.42828 102.42828  " /> 
 </g> 
 </g> 
 </g> 
 </g> 
 </g> 
 <g> 
 <g stroke="rgb(33.00018%,33.00018%,33.00018%)"> 
 <g fill="rgb(33.00018%,33.00018%,33.00018%)"> 
 <path d=" M  0.0 0.0 M  5.69046 0.0 C  5.69046 3.14279 3.14279 5.69046 0.0 5.69046 C  -3.14279 5.69046 -5.69046 3.14279 -5.69046 0.0 C  -5.69046 -3.14279 -3.14279 -5.69046 0.0 -5.69046 C  3.14279 -5.69046 5.69046 -3.14279 5.69046 0.0 Z M  0.0 0.0  " /> 
 </g> 
 </g> 
 </g> 
 <g> 
 <g stroke="rgb(33.00018%,33.00018%,33.00018%)"> 
 <g fill="rgb(33.00018%,33.00018%,33.00018%)"> 
 <path d=" M  113.8092 0.0 M  119.49966 0.0 C  119.49966 3.14279 116.952 5.69046 113.8092 5.69046 C  110.66641 5.69046 108.11874 3.14279 108.11874 0.0 C  108.11874 -3.14279 110.66641 -5.69046 113.8092 -5.69046 C  116.952 -5.69046 119.49966 -3.14279 119.49966 0.0 Z M  113.8092 0.0  " /> 
 </g> 
 </g> 
 </g> 
 <g> 
 <g stroke="rgb(33.00018%,33.00018%,33.00018%)"> 
 <g fill="rgb(33.00018%,33.00018%,33.00018%)"> 
 <path d=" M  0.0 113.8092 M  5.69046 113.8092 C  5.69046 116.952 3.14279 119.49966 0.0 119.49966 C  -3.14279 119.49966 -5.69046 116.952 -5.69046 113.8092 C  -5.69046 110.66641 -3.14279 108.11874 0.0 108.11874 C  3.14279 108.11874 5.69046 110.66641 5.69046 113.8092 Z M  0.0 113.8092  " /> 
 </g> 
 </g> 
 </g> 
 <g> 
 <g stroke="rgb(33.00018%,33.00018%,33.00018%)"> 
 <g fill="rgb(33.00018%,33.00018%,33.00018%)"> 
 <path d=" M  113.8092 113.8092 M  119.49966 113.8092 C  119.49966 116.952 116.952 119.49966 113.8092 119.49966 C  110.66641 119.49966 108.11874 116.952 108.11874 113.8092 C  108.11874 110.66641 110.66641 108.11874 113.8092 108.11874 C  116.952 108.11874 119.49966 110.66641 119.49966 113.8092 Z M  113.8092 113.8092  " /> 
 </g> 
 </g> 
 </g> 
 <g> 
 <g stroke="rgb(33.00018%,33.00018%,33.00018%)"> 
 <g fill="rgb(33.00018%,33.00018%,33.00018%)"> 
 <g stroke-width="0.8pt"> 
 <g stroke-width="1.42262pt"> 
 <path d=" M  11.38092 0.0 L  102.42828 0.0  " style="fill:none"/> 
 </g> 
 </g> 
 </g> 
 </g> 
 </g> 
 <g> 
 <g stroke="rgb(33.00018%,33.00018%,33.00018%)"> 
 <g fill="rgb(33.00018%,33.00018%,33.00018%)"> 
 <g stroke-width="0.8pt"> 
 <g stroke-width="1.42262pt"> 
 <path d=" M  11.38092 113.8092 L  102.42828 113.8092  " style="fill:none"/> 
 </g> 
 </g> 
 </g> 
 </g> 
 </g> 
 <g> 
 <g stroke="rgb(33.00018%,33.00018%,33.00018%)"> 
 <g fill="rgb(33.00018%,33.00018%,33.00018%)"> 
 <g stroke-width="0.8pt"> 
 <g stroke-width="1.42262pt"> 
 <path d=" M  0.0 11.38092 L  0.0 102.42828  " style="fill:none"/> 
 </g> 
 </g> 
 </g> 
 </g> 
 </g> 
 <g> 
 <g stroke="rgb(33.00018%,33.00018%,33.00018%)"> 
 <g fill="rgb(33.00018%,33.00018%,33.00018%)"> 
 <g stroke-width="0.8pt"> 
 <g stroke-width="1.42262pt"> 
 <path d=" M  113.8092 11.38092 L  113.8092 102.42828  " style="fill:none"/> 
 </g> 
 </g> 
 </g> 
 </g> 
 </g> 
 <g> 
 <g stroke="rgb(0.0%,0.0%,0.0%)"> 
 <g fill="rgb(0.0%,0.0%,0.0%)"> 
 <path d=" M  0.0 123.37396 L  0.0 136.57104  " style="fill:none"/> 
 <g> 
 <g transform="matrix(0.0,-1.0,1.0,0.0,0.0,123.37396)"> 
 <g> 
 <g stroke-width="0.31999pt"> 
 <g stroke-dasharray="none" stroke-dashoffset="0.0pt"> 
 <g stroke-linecap="round"> 
 <g stroke-linejoin="round"> 
 <path d=" M  -1.19998 1.59998 C  -1.09998 0.99998 0.0 0.09999 0.29999 0.0 C  0.0 -0.09999 -1.09998 -0.99998 -1.19998 -1.59998  " style="fill:none"/> 
 </g> 
 </g> 
 </g> 
 </g> 
 </g> 
 </g> 
 </g> 
 <g> 
 <g> 
 <g transform="matrix(1.0,0.0,0.0,1.0,-15.00003,142.04846)"> 
 <g fill="rgb(0.0%,0.0%,0.0%)"> 
 <text style="stroke:none" transform="scale(1,-1) translate(15.00003,0)" text-anchor="middle"  font-size="10"> 
pointel</text> 
</g> 
 </g> 
 </g> 
 </g> 
 </g> 
 </g> 
 </g> 
 <g> 
 <g stroke="rgb(0.0%,0.0%,0.0%)"> 
 <g fill="rgb(0.0%,0.0%,0.0%)"> 
 <path d=" M  45.52368 117.6835 L  45.52368 136.57104  " style="fill:none"/> 
 <g> 
 <g transform="matrix(0.0,-1.0,1.0,0.0,45.52368,117.6835)"> 
 <g> 
 <g stroke-width="0.31999pt"> 
 <g stroke-dasharray="none" stroke-dashoffset="0.0pt"> 
 <g stroke-linecap="round"> 
 <g stroke-linejoin="round"> 
 <path d=" M  -1.19998 1.59998 C  -1.09998 0.99998 0.0 0.09999 0.29999 0.0 C  0.0 -0.09999 -1.09998 -0.99998 -1.19998 -1.59998  " style="fill:none"/> 
 </g> 
 </g> 
 </g> 
 </g> 
 </g> 
 </g> 
 </g> 
 <g> 
 <g> 
 <g transform="matrix(1.0,0.0,0.0,1.0,33.857,142.04846)"> 
 <g fill="rgb(0.0%,0.0%,0.0%)"> 
 <text style="stroke:none" transform="scale(1,-1) translate(11.66669,0)" text-anchor="middle"  font-size="10"> 
lignel</text> 
</g> 
 </g> 
 </g> 
 </g> 
 </g> 
 </g> 
 </g> 
 <g> 
 <g stroke="rgb(0.0%,0.0%,0.0%)"> 
 <g fill="rgb(0.0%,0.0%,0.0%)"> 
 <path d=" M  91.04736 106.30258 L  91.04736 136.57104  " style="fill:none"/> 
 <g> 
 <g transform="matrix(0.0,-1.0,1.0,0.0,91.04736,106.30258)"> 
 <g> 
 <g stroke-width="0.31999pt"> 
 <g stroke-dasharray="none" stroke-dashoffset="0.0pt"> 
 <g stroke-linecap="round"> 
 <g stroke-linejoin="round"> 
 <path d=" M  -1.19998 1.59998 C  -1.09998 0.99998 0.0 0.09999 0.29999 0.0 C  0.0 -0.09999 -1.09998 -0.99998 -1.19998 -1.59998  " style="fill:none"/> 
 </g> 
 </g> 
 </g> 
 </g> 
 </g> 
 </g> 
 </g> 
 <g> 
 <g> 
 <g transform="matrix(1.0,0.0,0.0,1.0,80.63068,142.04846)"> 
 <g fill="rgb(0.0%,0.0%,0.0%)"> 
 <text style="stroke:none" transform="scale(1,-1) translate(10.41669,0)" text-anchor="middle"  font-size="10"> 
pixel</text> 
</g> 
 </g> 
 </g> 
 </g> 
 </g> 
 </g> 
 </g> 
 </g> 
 </g> 
 </g> 
 </g> 
 </g> 
                            </g> 
</svg> 
