<?xml version="1.0" encoding="UTF-8" standalone="no"?>
<!-- Created with Inkscape (http://www.inkscape.org/) -->

<svg
   xmlns:dc="http://purl.org/dc/elements/1.1/"
   xmlns:cc="http://creativecommons.org/ns#"
   xmlns:rdf="http://www.w3.org/1999/02/22-rdf-syntax-ns#"
   xmlns:svg="http://www.w3.org/2000/svg"
   xmlns="http://www.w3.org/2000/svg"
   xmlns:sodipodi="http://sodipodi.sourceforge.net/DTD/sodipodi-0.dtd"
   xmlns:inkscape="http://www.inkscape.org/namespaces/inkscape"
   width="397.3912mm"
   height="539.07745mm"
   viewBox="0 0 1408.079 1910.117"
   id="svg2"
   version="1.1"
   inkscape:version="0.91 r"
   sodipodi:docname="curv_all.svg">
  <defs
     id="defs4" />
  <sodipodi:namedview
     id="base"
     pagecolor="#ffffff"
     bordercolor="#666666"
     borderopacity="1.0"
     inkscape:pageopacity="0.0"
     inkscape:pageshadow="2"
     inkscape:zoom="0.175"
     inkscape:cx="1670.3475"
     inkscape:cy="1192.8121"
     inkscape:document-units="px"
     inkscape:current-layer="layer1"
     showgrid="false"
     fit-margin-top="0"
     fit-margin-left="0"
     fit-margin-right="0"
     fit-margin-bottom="0"
     inkscape:window-width="1920"
     inkscape:window-height="1148"
     inkscape:window-x="0"
     inkscape:window-y="0"
     inkscape:window-maximized="1" />
  <metadata
     id="metadata7">
    <rdf:RDF>
      <cc:Work
         rdf:about="">
        <dc:format>image/svg+xml</dc:format>
        <dc:type
           rdf:resource="http://purl.org/dc/dcmitype/StillImage" />
        <dc:title></dc:title>
      </cc:Work>
    </rdf:RDF>
  </metadata>
  <g
     inkscape:label="Layer 1"
     inkscape:groupmode="layer"
     id="layer1"
     transform="translate(322.76608,756.33442)">
    <path
       style="fill:none;fill-rule:evenodd;stroke:#333333;stroke-width:4;stroke-linecap:butt;stroke-linejoin:round;stroke-miterlimit:4;stroke-dasharray:none;stroke-opacity:1"
       d="m -90.408657,-724.49612 -154.048263,192.93913 364.66507,-1.01015 152.53303,-191.92898 z"
       id="path3347"
       inkscape:connector-curvature="0" />
    <path
       style="fill:none;fill-rule:evenodd;stroke:#333333;stroke-width:4;stroke-linecap:butt;stroke-linejoin:miter;stroke-miterlimit:4;stroke-dasharray:none;stroke-opacity:1"
       d="m 523.76409,-666.91743 384.86812,154.55334"
       id="path4149"
       inkscape:connector-curvature="0" />
    <path
       style="fill:none;fill-rule:evenodd;stroke:#333333;stroke-width:4;stroke-linecap:butt;stroke-linejoin:miter;stroke-miterlimit:4;stroke-dasharray:none;stroke-opacity:1"
       d="m 572.75649,-754.29562 396.48487,155.56349"
       id="path4151"
       inkscape:connector-curvature="0" />
    <path
       style="fill:none;fill-rule:evenodd;stroke:#333333;stroke-width:4;stroke-linecap:butt;stroke-linejoin:miter;stroke-miterlimit:4;stroke-dasharray:none;stroke-opacity:1"
       d="m 524.77425,-665.90728 c 0,0 -8.8083,-30.37745 9.35834,-62.71101 15.72381,-27.98573 39.12898,-25.67734 39.12898,-25.67734"
       id="path4153"
       inkscape:connector-curvature="0"
       sodipodi:nodetypes="csc" />
    <path
       style="fill:none;fill-rule:evenodd;stroke:#333333;stroke-width:4;stroke-linecap:butt;stroke-linejoin:miter;stroke-miterlimit:4;stroke-dasharray:none;stroke-opacity:1"
       d="m 907.62206,-512.86917 c 0,0 -10.17808,-78.82346 39.39595,-87.88327 25.74293,-4.7046 41.82526,9.19773 52.33234,25.34039 11.22665,17.24817 6.25655,46.38044 6.25655,46.38044"
       id="path4155"
       inkscape:connector-curvature="0"
       sodipodi:nodetypes="cssc" />
    <path
       style="fill:none;fill-rule:evenodd;stroke:#333333;stroke-width:4;stroke-linecap:butt;stroke-linejoin:miter;stroke-miterlimit:4;stroke-dasharray:12, 4;stroke-dashoffset:0;stroke-opacity:1"
       d="M 588.41386,-695.2017 1006.617,-528.52653"
       id="path4157"
       inkscape:connector-curvature="0"
       sodipodi:nodetypes="cc" />
    <path
       style="fill:none;fill-rule:evenodd;stroke:#333333;stroke-width:4;stroke-linecap:butt;stroke-linejoin:miter;stroke-miterlimit:4;stroke-dasharray:12, 4;stroke-dashoffset:0;stroke-opacity:1"
       d="m 574.27172,-752.7804 c 0,0 12.02988,2.51016 15.15229,25.75889 1.45666,10.84594 0,32.82996 0,32.82996"
       id="path4159"
       inkscape:connector-curvature="0"
       sodipodi:nodetypes="csc" />
    <path
       style="fill:none;fill-rule:evenodd;stroke:#333333;stroke-width:4;stroke-linecap:butt;stroke-linejoin:round;stroke-miterlimit:4;stroke-dasharray:none;stroke-opacity:1"
       d="m -320.3019,-109.42858 c 0,0 9.79528,-34.4524 44.74126,-72.7584 40.48168,-46.5204 70.61588,-42.2416 70.61588,-42.2416 0,0 47.10117,39.4582 115.355003,37.8793 68.25382,-1.5789 114.645,-38.5936 114.645,-38.5936 0,0 3.43589,50.3699 42.22089,81.7199 38.784997,31.35 72.064827,34.3516 72.064827,34.3516 0,0 -104.305527,79.457803 -236.071287,75.889103 -131.765763,-3.5687 -223.571573,-76.246303 -223.571573,-76.246303 z"
       id="path4161"
       inkscape:connector-curvature="0"
       sodipodi:nodetypes="ccczczczc" />
    <path
       style="fill:none;fill-rule:evenodd;stroke:#333333;stroke-width:4;stroke-linecap:butt;stroke-linejoin:miter;stroke-miterlimit:4;stroke-dasharray:none;stroke-opacity:1"
       d="m 26.126673,-215.50008 c 0,0 -6.3694,-12.5814 16.42949,-24.5396 12.19686,-6.3974 31.67313,-9.9936 60.442127,4.9434 25.76704,13.3783 55.98552,48.5249 55.98552,48.5249 0,0 -15.8118,16.2273 -39.79021,31.1406 -23.978407,14.9133 -45.209777,18.6501 -45.209777,18.6501"
       id="path4163"
       inkscape:connector-curvature="0"
       sodipodi:nodetypes="cssczc" />
    <path
       style="fill:none;fill-rule:evenodd;stroke:#333333;stroke-width:4;stroke-linecap:butt;stroke-linejoin:round;stroke-miterlimit:4;stroke-dasharray:12, 4;stroke-dashoffset:0;stroke-opacity:1"
       d="m -205.06097,-224.97568 c 0,0 26.07394,9.0038 19.09523,43.6856 -3.58585,22.8962 -13.63348,42.7722 -13.63348,42.7722 0,0 43.5149,38.831903 130.683423,39.521303 82.88282,-10.739303 144.61287,-38.555403 144.61287,-38.555403"
       id="path4165"
       inkscape:connector-curvature="0"
       sodipodi:nodetypes="ccccc" />
    <path
       style="fill:none;fill-rule:evenodd;stroke:#333333;stroke-width:4;stroke-linecap:butt;stroke-linejoin:round;stroke-miterlimit:4;stroke-dasharray:none;stroke-opacity:1"
       d="m 969.24137,-235.58228 c 0,0 -5.01042,-10.0786 -5.28115,-26.2774 -0.27073,-16.1988 8.89691,-35.9871 8.89691,-35.9871 L 453.05342,-77.998477 c 0,0 -19.6101,56.8216 20.70812,81.3173 53.95528,23.4855 76.26652,-59.0939 76.26652,-59.0939 L 1050.0536,-269.67488 c 0,0 0.1723,13.353 -2.9324,31.0905 -3.1047,17.7375 -22.3214,28.2559 -22.3214,28.2559 L 503.81358,5.844123"
       id="path4167"
       inkscape:connector-curvature="0"
       sodipodi:nodetypes="czccccczcc" />
    <path
       style="fill:none;fill-rule:evenodd;stroke:#333333;stroke-width:4;stroke-linecap:butt;stroke-linejoin:miter;stroke-miterlimit:4;stroke-dasharray:12, 4;stroke-dashoffset:0;stroke-opacity:1"
       d="m 970.25152,-235.58228 c 0,0 -5.54797,8.8654 19.5,17.617 28.07838,9.7618 45.14978,-0.4444 45.14978,-0.4444"
       id="path4169"
       inkscape:connector-curvature="0"
       sodipodi:nodetypes="ccc" />
    <path
       style="fill:none;fill-rule:evenodd;stroke:#333333;stroke-width:4;stroke-linecap:butt;stroke-linejoin:round;stroke-miterlimit:4;stroke-dasharray:none;stroke-opacity:1"
       d="m -297.73621,575.29879 c 0,0 104.72669,-241.94341 237.857138,-231.42853 133.13045,10.51488 222.142862,232.14283 222.142862,232.14283 0,0 -95.556292,-25.34187 -172.857142,4.2857 -77.30085,29.6276 -133.571428,72.1429 -133.571428,72.1429 0,0 2.34131,-41.2323 -28.57143,-70.7143 -30.91274,-29.48198 -125,-6.4286 -125,-6.4286 z"
       id="path4258"
       inkscape:connector-curvature="0"
       sodipodi:nodetypes="czczczc" />
    <path
       style="fill:none;fill-rule:evenodd;stroke:#333333;stroke-width:4;stroke-linecap:butt;stroke-linejoin:round;stroke-miterlimit:4;stroke-dasharray:12, 4;stroke-dashoffset:0;stroke-opacity:1"
       d="m -297.73621,576.01309 c 0,0 45.36354,-60.76137 129.28572,-76.42855 83.922178,-15.66718 136.428568,37.85714 136.428568,37.85714 0,0 45.85131,-39.33402 97.14285,-41.42857 51.291542,-2.09455 82.142862,48.57143 82.142862,48.57143"
       id="path4260"
       inkscape:connector-curvature="0"
       sodipodi:nodetypes="czczc" />
    <path
       style="fill:none;fill-rule:evenodd;stroke:#333333;stroke-width:4;stroke-linecap:butt;stroke-linejoin:round;stroke-miterlimit:4;stroke-dasharray:none;stroke-opacity:1"
       d="m 545.92425,364.40929 c 0,0 89.94392,22.5755 125.76399,-4.54568 35.82007,-27.12118 28.78935,-72.22591 28.78935,-72.22591 0,0 75.2883,64.80136 168.19043,79.29698 92.90213,14.49562 139.40098,-2.02031 139.40098,-2.02031 0,0 -92.21072,220.27212 -226.77921,230.31482 -134.56849,10.0427 -235.36554,-230.8199 -235.36554,-230.8199 z"
       id="path4262"
       inkscape:connector-curvature="0"
       sodipodi:nodetypes="czczczc" />
    <path
       style="fill:none;fill-rule:evenodd;stroke:#333333;stroke-width:4;stroke-linecap:butt;stroke-linejoin:round;stroke-miterlimit:4;stroke-dasharray:none;stroke-opacity:1"
       d="m 547.43948,365.92452 c 0,0 56.83901,66.83587 135.86551,75.76144 79.02649,8.92557 132.83503,-39.39595 132.83503,-39.39595 0,0 55.84644,52.70995 108.5914,39.90103 52.74496,-12.80892 69.1955,-47.98225 69.1955,-47.98225"
       id="path4264"
       inkscape:connector-curvature="0"
       sodipodi:nodetypes="czczc" />
    <path
       style="fill:none;fill-rule:evenodd;stroke:#333333;stroke-width:4;stroke-linecap:butt;stroke-linejoin:round;stroke-miterlimit:4;stroke-dasharray:none;stroke-opacity:1"
       d="m 65.498358,1105.4319 c 0,0 14.48214,4.6432 49.561652,6.797 35.07952,2.1537 47.11181,1.2494 47.11181,1.2494 0.95097,-21.5667 -10.30306,-79.4958 -56.94256,-68.8108 -47.357652,14.3832 -39.332762,107.1151 -39.332762,107.1151 0,0 -88.3357,-11.0147 -185.418418,-43.2695 -97.08272,-32.2548 -197.85715,-129.28571 -197.85715,-129.28571 0,0 -17.14446,-75.7774 25.71429,-93.2143 16.84732,-4.81 24.28571,6.4286 24.28571,6.4286 0,0 74.23601,81.4147 171.071428,127.14291 96.83541963,45.7282 202.142862,25 202.142862,25"
       id="path4266"
       inkscape:connector-curvature="0"
       sodipodi:nodetypes="czccczccczc" />
    <path
       style="fill:none;fill-rule:evenodd;stroke:#333333;stroke-width:4;stroke-linecap:butt;stroke-linejoin:round;stroke-miterlimit:4;stroke-dasharray:12, 4;stroke-dashoffset:0;stroke-opacity:1"
       d="m -268.76378,891.45639 c 0,0 14.54181,3.8743 16.17227,29.0394 1.63045,25.165 -0.51491,31.8223 -0.51491,31.8223 0,0 29.60676,37.8935 74.70165,70.96201 32.11371,23.5494 73.82456,42.9092 110.408808,52.2766 106.39206,29.8449 134.85536,30.0521 134.85536,30.0521"
       id="path4268"
       inkscape:connector-curvature="0"
       sodipodi:nodetypes="czcscc" />
    <path
       style="fill:none;fill-rule:evenodd;stroke:#333333;stroke-width:4;stroke-linecap:butt;stroke-linejoin:round;stroke-miterlimit:4;stroke-dasharray:none;stroke-opacity:1"
       d="m 1000.1209,850.12029 7.6786,-44.6429 c 0,0 -123.7472,17.5429 -278.53257,88.7569 -154.78537,71.214 -241.42645,130.30971 -241.42645,130.30971 0,0 -22.77134,57.0657 26.26396,80.8122 49.0353,23.7465 56.56855,-62.6295 56.56855,-62.6295 0,0 100.77595,-76.74981 239.40613,-133.34011 138.63018,-56.5903 271.61898,-76.6543 271.61898,-76.6543 0,0 3.726,14.2459 -0.1405,30.4399 -3.8665,16.1939 -26.0114,26.0114 -26.0114,26.0114 0,0 -101.25746,13.9703 -211.12188,50.5076 -109.86442,36.5373 -298.50007,164.40231 -298.50007,164.40231"
       id="path4270"
       inkscape:connector-curvature="0"
       sodipodi:nodetypes="cczczczczczc" />
    <path
       style="fill:none;fill-rule:evenodd;stroke:#333333;stroke-width:4;stroke-linecap:butt;stroke-linejoin:round;stroke-miterlimit:4;stroke-dasharray:12, 4;stroke-dashoffset:0;stroke-opacity:1"
       d="m 1000.2995,849.40599 c 0,0 0,22.5522 15,31.6965 14.9989,9.1443 46.0714,4.6428 46.0714,4.6428"
       id="path4272"
       inkscape:connector-curvature="0"
       sodipodi:nodetypes="czc" />
  </g>
</svg>
