<?xml version="1.0" encoding="UTF-8" standalone="no"?>
<!-- Created with Inkscape (http://www.inkscape.org/) -->

<svg
   xmlns:dc="http://purl.org/dc/elements/1.1/"
   xmlns:cc="http://creativecommons.org/ns#"
   xmlns:rdf="http://www.w3.org/1999/02/22-rdf-syntax-ns#"
   xmlns:svg="http://www.w3.org/2000/svg"
   xmlns="http://www.w3.org/2000/svg"
   xmlns:sodipodi="http://sodipodi.sourceforge.net/DTD/sodipodi-0.dtd"
   xmlns:inkscape="http://www.inkscape.org/namespaces/inkscape"
   width="348.4375"
   height="383.4375"
   id="svg2"
   version="1.1"
   inkscape:version="0.48.4 r9939"
   sodipodi:docname="DCA.svg">
  <defs
     id="defs4">
    <marker
       inkscape:stockid="Arrow2Mend"
       orient="auto"
       refY="0"
       refX="0"
       id="Arrow2Mend"
       style="overflow:visible">
      <path
         id="path4229"
         style="fill-rule:evenodd;stroke-width:0.625;stroke-linejoin:round"
         d="M 8.7185878,4.0337352 -2.2072895,0.01601326 8.7185884,-4.0017078 c -1.7454984,2.3720609 -1.7354408,5.6174519 -6e-7,8.035443 z"
         transform="scale(-0.6,-0.6)"
         inkscape:connector-curvature="0" />
    </marker>
    <marker
       inkscape:stockid="Arrow1Lend"
       orient="auto"
       refY="0"
       refX="0"
       id="Arrow1Lend"
       style="overflow:visible">
      <path
         id="path4205"
         d="M 0,0 5,-5 -12.5,0 5,5 0,0 z"
         style="fill-rule:evenodd;stroke:#000000;stroke-width:1pt"
         transform="matrix(-0.8,0,0,-0.8,-10,0)"
         inkscape:connector-curvature="0" />
    </marker>
  </defs>
  <sodipodi:namedview
     id="base"
     pagecolor="#ffffff"
     bordercolor="#666666"
     borderopacity="1.0"
     inkscape:pageopacity="0.0"
     inkscape:pageshadow="2"
     inkscape:zoom="1.979899"
     inkscape:cx="201.86599"
     inkscape:cy="135.51736"
     inkscape:document-units="px"
     inkscape:current-layer="layer1"
     showgrid="false"
     fit-margin-top="0"
     fit-margin-left="0"
     fit-margin-right="0"
     fit-margin-bottom="0"
     inkscape:window-width="1877"
     inkscape:window-height="1176"
     inkscape:window-x="43"
     inkscape:window-y="24"
     inkscape:window-maximized="1" />
  <metadata
     id="metadata7">
    <rdf:RDF>
      <cc:Work
         rdf:about="">
        <dc:format>image/svg+xml</dc:format>
        <dc:type
           rdf:resource="http://purl.org/dc/dcmitype/StillImage" />
        <dc:title></dc:title>
      </cc:Work>
    </rdf:RDF>
  </metadata>
  <g
     inkscape:label="Layer 1"
     inkscape:groupmode="layer"
     id="layer1"
     transform="translate(-209.76576,-360.78666)">
    <path
       sodipodi:type="arc"
       style="fill:#ff9700;fill-opacity:0.23529412000000000;stroke:#ff9700;stroke-width:2.92134633;stroke-miterlimit:4;stroke-opacity:1;stroke-dasharray:none;stroke-dashoffset:0"
       id="path2996"
       sodipodi:cx="369.28571"
       sodipodi:cy="580.2193"
       sodipodi:rx="133.57143"
       sodipodi:ry="133.57143"
       d="m 502.85713,580.2193 a 133.57143,133.57143 0 1 1 -267.14285,0 133.57143,133.57143 0 1 1 267.14285,0 z"
       transform="matrix(1.0053277,0,0,1.0053277,8.7468605,-26.37692)" />
    <path
       style="fill:none;stroke:#333333;stroke-width:3;stroke-linecap:butt;stroke-linejoin:miter;stroke-miterlimit:4;stroke-opacity:1;stroke-dasharray:none"
       d="m 426.92857,699.68361 -125.98214,0 0,-41.96429 -42.85714,0 0,-211.16071 84.77678,0 0,-42.05357 84.01786,0 0,42.09821 42.09821,0 0,41.96429 42.99108,0 0,126.07143"
       id="path3766"
       inkscape:connector-curvature="0" />
    <path
       sodipodi:type="arc"
       style="fill:#666666;fill-opacity:1;stroke:#666666;stroke-width:1.86445798;stroke-miterlimit:4;stroke-opacity:1;stroke-dasharray:none;stroke-dashoffset:0"
       id="path3768"
       sodipodi:cx="347.5"
       sodipodi:cy="509.86218"
       sodipodi:rx="2.5"
       sodipodi:ry="2.5"
       d="m 350,509.86218 a 2.5,2.5 0 1 1 -5,0 2.5,2.5 0 1 1 5,0 z"
       transform="matrix(1.1262691,0,0,1.1262691,-111.79778,-64.790198)" />
    <path
       sodipodi:type="arc"
       style="fill:#666666;fill-opacity:1;stroke:#666666;stroke-width:1.86445798;stroke-miterlimit:4;stroke-opacity:1;stroke-dasharray:none;stroke-dashoffset:0"
       id="path3768-8"
       sodipodi:cx="347.5"
       sodipodi:cy="509.86218"
       sodipodi:rx="2.5"
       sodipodi:ry="2.5"
       d="m 350,509.86218 a 2.5,2.5 0 1 1 -5,0 2.5,2.5 0 1 1 5,0 z"
       transform="matrix(1.1262691,0,0,1.1262691,-111.99472,-22.378859)" />
    <path
       sodipodi:type="arc"
       style="fill:#666666;fill-opacity:1;stroke:#666666;stroke-width:1.86445798;stroke-miterlimit:4;stroke-opacity:1;stroke-dasharray:none;stroke-dashoffset:0"
       id="path3768-3"
       sodipodi:cx="347.5"
       sodipodi:cy="509.86218"
       sodipodi:rx="2.5"
       sodipodi:ry="2.5"
       d="m 350,509.86218 a 2.5,2.5 0 1 1 -5,0 2.5,2.5 0 1 1 5,0 z"
       transform="matrix(1.1262691,0,0,1.1262691,-112.02628,19.858144)" />
    <path
       sodipodi:type="arc"
       style="fill:#666666;fill-opacity:1;stroke:#666666;stroke-width:1.86445798;stroke-miterlimit:4;stroke-opacity:1;stroke-dasharray:none;stroke-dashoffset:0"
       id="path3768-0"
       sodipodi:cx="347.5"
       sodipodi:cy="509.86218"
       sodipodi:rx="2.5"
       sodipodi:ry="2.5"
       d="m 350,509.86218 a 2.5,2.5 0 1 1 -5,0 2.5,2.5 0 1 1 5,0 z"
       transform="matrix(1.1262691,0,0,1.1262691,-111.96315,61.905744)" />
    <path
       sodipodi:type="arc"
       style="fill:#666666;fill-opacity:1;stroke:#666666;stroke-width:1.86445798;stroke-miterlimit:4;stroke-opacity:1;stroke-dasharray:none;stroke-dashoffset:0"
       id="path3768-6"
       sodipodi:cx="347.5"
       sodipodi:cy="509.86218"
       sodipodi:rx="2.5"
       sodipodi:ry="2.5"
       d="m 350,509.86218 a 2.5,2.5 0 1 1 -5,0 2.5,2.5 0 1 1 5,0 z"
       transform="matrix(1.1262691,0,0,1.1262691,-69.947117,-106.85287)" />
    <path
       sodipodi:type="arc"
       style="fill:#666666;fill-opacity:1;stroke:#666666;stroke-width:1.86445798;stroke-miterlimit:4;stroke-opacity:1;stroke-dasharray:none;stroke-dashoffset:0"
       id="path3768-856"
       sodipodi:cx="347.5"
       sodipodi:cy="509.86218"
       sodipodi:rx="2.5"
       sodipodi:ry="2.5"
       d="m 350,509.86218 a 2.5,2.5 0 1 1 -5,0 2.5,2.5 0 1 1 5,0 z"
       transform="matrix(1.1262691,0,0,1.1262691,14.684726,-149.12144)" />
    <path
       sodipodi:type="arc"
       style="fill:#666666;fill-opacity:1;stroke:#666666;stroke-width:1.86445798;stroke-miterlimit:4;stroke-opacity:1;stroke-dasharray:none;stroke-dashoffset:0"
       id="path3768-35"
       sodipodi:cx="347.5"
       sodipodi:cy="509.86218"
       sodipodi:rx="2.5"
       sodipodi:ry="2.5"
       d="m 350,509.86218 a 2.5,2.5 0 1 1 -5,0 2.5,2.5 0 1 1 5,0 z"
       transform="matrix(1.1262691,0,0,1.1262691,-27.615412,-149.02673)" />
    <path
       sodipodi:type="arc"
       style="fill:#666666;fill-opacity:1;stroke:#666666;stroke-width:1.86445798;stroke-miterlimit:4;stroke-opacity:1;stroke-dasharray:none;stroke-dashoffset:0"
       id="path3768-85"
       sodipodi:cx="347.5"
       sodipodi:cy="509.86218"
       sodipodi:rx="2.5"
       sodipodi:ry="2.5"
       d="m 350,509.86218 a 2.5,2.5 0 1 1 -5,0 2.5,2.5 0 1 1 5,0 z"
       transform="matrix(1.1262691,0,0,1.1262691,-112.15255,-106.75816)" />
    <path
       sodipodi:type="arc"
       style="fill:#666666;fill-opacity:1;stroke:#666666;stroke-width:1.86445798;stroke-miterlimit:4;stroke-opacity:1;stroke-dasharray:none;stroke-dashoffset:0"
       id="path3768-7"
       sodipodi:cx="347.5"
       sodipodi:cy="509.86218"
       sodipodi:rx="2.5"
       sodipodi:ry="2.5"
       d="m 350,509.86218 a 2.5,2.5 0 1 1 -5,0 2.5,2.5 0 1 1 5,0 z"
       transform="matrix(1.1262691,0,0,1.1262691,56.669191,-106.8213)" />
    <path
       sodipodi:type="arc"
       style="fill:#666666;fill-opacity:1;stroke:#666666;stroke-width:1.86445798;stroke-miterlimit:4;stroke-opacity:1;stroke-dasharray:none;stroke-dashoffset:0"
       id="path3768-9"
       sodipodi:cx="347.5"
       sodipodi:cy="509.86218"
       sodipodi:rx="2.5"
       sodipodi:ry="2.5"
       d="m 350,509.86218 a 2.5,2.5 0 1 1 -5,0 2.5,2.5 0 1 1 5,0 z"
       transform="matrix(1.1262691,0,0,1.1262691,99.076846,-64.603055)" />
    <path
       sodipodi:type="arc"
       style="fill:#666666;fill-opacity:1;stroke:#666666;stroke-width:1.86445798;stroke-miterlimit:4;stroke-opacity:1;stroke-dasharray:none;stroke-dashoffset:0"
       id="path3768-82"
       sodipodi:cx="347.5"
       sodipodi:cy="509.86218"
       sodipodi:rx="2.5"
       sodipodi:ry="2.5"
       d="m 350,509.86218 a 2.5,2.5 0 1 1 -5,0 2.5,2.5 0 1 1 5,0 z"
       transform="matrix(1.1262691,0,0,1.1262691,98.969329,-22.662964)" />
    <path
       sodipodi:type="arc"
       style="fill:#666666;fill-opacity:1;stroke:#666666;stroke-width:1.86445798;stroke-miterlimit:4;stroke-opacity:1;stroke-dasharray:none;stroke-dashoffset:0"
       id="path3768-05"
       sodipodi:cx="347.5"
       sodipodi:cy="509.86218"
       sodipodi:rx="2.5"
       sodipodi:ry="2.5"
       d="m 350,509.86218 a 2.5,2.5 0 1 1 -5,0 2.5,2.5 0 1 1 5,0 z"
       transform="matrix(1.1262691,0,0,1.1262691,99.095598,19.889712)" />
    <path
       sodipodi:type="arc"
       style="fill:#666666;fill-opacity:1;stroke:#666666;stroke-width:1.86445798;stroke-miterlimit:4;stroke-opacity:1;stroke-dasharray:none;stroke-dashoffset:0"
       id="path3768-5"
       sodipodi:cx="347.5"
       sodipodi:cy="509.86218"
       sodipodi:rx="2.5"
       sodipodi:ry="2.5"
       d="m 350,509.86218 a 2.5,2.5 0 1 1 -5,0 2.5,2.5 0 1 1 5,0 z"
       transform="matrix(1.1262691,0,0,1.1262691,-69.9629,104.12696)" />
    <path
       sodipodi:type="arc"
       style="fill:#666666;fill-opacity:1;stroke:#666666;stroke-width:1.86445798;stroke-miterlimit:4;stroke-opacity:1;stroke-dasharray:none;stroke-dashoffset:0"
       id="path3768-09"
       sodipodi:cx="347.5"
       sodipodi:cy="509.86218"
       sodipodi:rx="2.5"
       sodipodi:ry="2.5"
       d="m 350,509.86218 a 2.5,2.5 0 1 1 -5,0 2.5,2.5 0 1 1 5,0 z"
       transform="matrix(1.1262691,0,0,1.1262691,-27.52071,104.26902)" />
    <path
       sodipodi:type="arc"
       style="fill:#666666;fill-opacity:1;stroke:#666666;stroke-width:1.86445798;stroke-miterlimit:4;stroke-opacity:1;stroke-dasharray:none;stroke-dashoffset:0"
       id="path3768-1"
       sodipodi:cx="347.5"
       sodipodi:cy="509.86218"
       sodipodi:rx="2.5"
       sodipodi:ry="2.5"
       d="m 350,509.86218 a 2.5,2.5 0 1 1 -5,0 2.5,2.5 0 1 1 5,0 z"
       transform="matrix(1.1262691,0,0,1.1262691,14.716294,104.20588)" />
    <path
       sodipodi:type="arc"
       style="fill:none;stroke:#666666;stroke-width:1.86445798;stroke-miterlimit:4;stroke-opacity:1;stroke-dasharray:none;stroke-dashoffset:0"
       id="path3768-67"
       sodipodi:cx="347.5"
       sodipodi:cy="509.86218"
       sodipodi:rx="2.5"
       sodipodi:ry="2.5"
       d="m 350,509.86218 a 2.5,2.5 0 1 1 -5,0 2.5,2.5 0 1 1 5,0 z"
       transform="matrix(1.1262691,0,0,1.1262691,14.478632,146.46837)" />
    <path
       sodipodi:type="arc"
       style="fill:none;stroke:#666666;stroke-width:1.86445798;stroke-miterlimit:4;stroke-opacity:1;stroke-dasharray:none;stroke-dashoffset:0"
       id="path3768-67-6"
       sodipodi:cx="347.5"
       sodipodi:cy="509.86218"
       sodipodi:rx="2.5"
       sodipodi:ry="2.5"
       d="m 350,509.86218 a 2.5,2.5 0 1 1 -5,0 2.5,2.5 0 1 1 5,0 z"
       transform="matrix(1.1262691,0,0,1.1262691,-27.664225,146.46837)" />
    <path
       sodipodi:type="arc"
       style="fill:none;stroke:#666666;stroke-width:1.86445798;stroke-miterlimit:4;stroke-opacity:1;stroke-dasharray:none;stroke-dashoffset:0"
       id="path3768-67-9"
       sodipodi:cx="347.5"
       sodipodi:cy="509.86218"
       sodipodi:rx="2.5"
       sodipodi:ry="2.5"
       d="m 350,509.86218 a 2.5,2.5 0 1 1 -5,0 2.5,2.5 0 1 1 5,0 z"
       transform="matrix(1.1262691,0,0,1.1262691,-69.820848,146.41132)" />
    <path
       sodipodi:type="arc"
       style="fill:none;stroke:#666666;stroke-width:1.86445798;stroke-miterlimit:4;stroke-opacity:1;stroke-dasharray:none;stroke-dashoffset:0"
       id="path3768-67-1"
       sodipodi:cx="347.5"
       sodipodi:cy="509.86218"
       sodipodi:rx="2.5"
       sodipodi:ry="2.5"
       d="m 350,509.86218 a 2.5,2.5 0 1 1 -5,0 2.5,2.5 0 1 1 5,0 z"
       transform="matrix(1.1262691,0,0,1.1262691,-112.02628,104.26902)" />
    <path
       sodipodi:type="arc"
       style="fill:none;stroke:#666666;stroke-width:1.86445798;stroke-miterlimit:4;stroke-opacity:1;stroke-dasharray:none;stroke-dashoffset:0"
       id="path3768-67-2"
       sodipodi:cx="347.5"
       sodipodi:cy="509.86218"
       sodipodi:rx="2.5"
       sodipodi:ry="2.5"
       d="m 350,509.86218 a 2.5,2.5 0 1 1 -5,0 2.5,2.5 0 1 1 5,0 z"
       transform="matrix(1.1262691,0,0,1.1262691,141.22212,19.747659)" />
    <path
       sodipodi:type="arc"
       style="fill:none;stroke:#666666;stroke-width:1.86445798;stroke-miterlimit:4;stroke-opacity:1;stroke-dasharray:none;stroke-dashoffset:0"
       id="path3768-67-0"
       sodipodi:cx="347.5"
       sodipodi:cy="509.86218"
       sodipodi:rx="2.5"
       sodipodi:ry="2.5"
       d="m 350,509.86218 a 2.5,2.5 0 1 1 -5,0 2.5,2.5 0 1 1 5,0 z"
       transform="matrix(1.1262691,0,0,1.1262691,141.28525,-22.284158)" />
    <path
       sodipodi:type="arc"
       style="fill:none;stroke:#666666;stroke-width:1.86445798;stroke-miterlimit:4;stroke-opacity:1;stroke-dasharray:none;stroke-dashoffset:0"
       id="path3768-67-60"
       sodipodi:cx="347.5"
       sodipodi:cy="509.86218"
       sodipodi:rx="2.5"
       sodipodi:ry="2.5"
       d="m 350,509.86218 a 2.5,2.5 0 1 1 -5,0 2.5,2.5 0 1 1 5,0 z"
       transform="matrix(1.1262691,0,0,1.1262691,141.2379,-64.536945)" />
    <path
       sodipodi:type="arc"
       style="fill:none;stroke:#666666;stroke-width:1.86445798;stroke-miterlimit:4;stroke-opacity:1;stroke-dasharray:none;stroke-dashoffset:0"
       id="path3768-67-7"
       sodipodi:cx="347.5"
       sodipodi:cy="509.86218"
       sodipodi:rx="2.5"
       sodipodi:ry="2.5"
       d="m 350,509.86218 a 2.5,2.5 0 1 1 -5,0 2.5,2.5 0 1 1 5,0 z"
       transform="matrix(1.1262691,0,0,1.1262691,99.095598,-106.94757)" />
    <path
       sodipodi:type="arc"
       style="fill:none;stroke:#666666;stroke-width:1.86445798;stroke-miterlimit:4;stroke-opacity:1;stroke-dasharray:none;stroke-dashoffset:0"
       id="path3768-67-64"
       sodipodi:cx="347.5"
       sodipodi:cy="509.86218"
       sodipodi:rx="2.5"
       sodipodi:ry="2.5"
       d="m 350,509.86218 a 2.5,2.5 0 1 1 -5,0 2.5,2.5 0 1 1 5,0 z"
       transform="matrix(1.1262691,0,0,1.1262691,56.874379,-148.99517)" />
    <path
       sodipodi:type="arc"
       style="fill:none;stroke:#666666;stroke-width:1.86445798;stroke-miterlimit:4;stroke-opacity:1;stroke-dasharray:none;stroke-dashoffset:0"
       id="path3768-67-74"
       sodipodi:cx="347.5"
       sodipodi:cy="509.86218"
       sodipodi:rx="2.5"
       sodipodi:ry="2.5"
       d="m 350,509.86218 a 2.5,2.5 0 1 1 -5,0 2.5,2.5 0 1 1 5,0 z"
       transform="matrix(1.1262691,0,0,1.1262691,14.590024,-191.23217)" />
    <path
       sodipodi:type="arc"
       style="fill:none;stroke:#666666;stroke-width:1.86445798;stroke-miterlimit:4;stroke-opacity:1;stroke-dasharray:none;stroke-dashoffset:0"
       id="path3768-67-95"
       sodipodi:cx="347.5"
       sodipodi:cy="509.86218"
       sodipodi:rx="2.5"
       sodipodi:ry="2.5"
       d="m 350,509.86218 a 2.5,2.5 0 1 1 -5,0 2.5,2.5 0 1 1 5,0 z"
       transform="matrix(1.1262691,0,0,1.1262691,-27.678546,-191.16904)" />
    <path
       sodipodi:type="arc"
       style="fill:none;stroke:#666666;stroke-width:1.86445798;stroke-miterlimit:4;stroke-opacity:1;stroke-dasharray:none;stroke-dashoffset:0"
       id="path3768-67-06"
       sodipodi:cx="347.5"
       sodipodi:cy="509.86218"
       sodipodi:rx="2.5"
       sodipodi:ry="2.5"
       d="m 350,509.86218 a 2.5,2.5 0 1 1 -5,0 2.5,2.5 0 1 1 5,0 z"
       transform="matrix(1.1262691,0,0,1.1262691,-69.694579,-148.90047)" />
    <path
       sodipodi:type="arc"
       style="fill:none;stroke:#666666;stroke-width:1.86445798;stroke-miterlimit:4;stroke-opacity:1;stroke-dasharray:none;stroke-dashoffset:0"
       id="path3768-67-65"
       sodipodi:cx="347.5"
       sodipodi:cy="509.86218"
       sodipodi:rx="2.5"
       sodipodi:ry="2.5"
       d="m 350,509.86218 a 2.5,2.5 0 1 1 -5,0 2.5,2.5 0 1 1 5,0 z"
       transform="matrix(1.1262691,0,0,1.1262691,-111.93158,-148.9636)" />
    <path
       sodipodi:type="arc"
       style="fill:none;stroke:#666666;stroke-width:1.86445798;stroke-miterlimit:4;stroke-opacity:1;stroke-dasharray:none;stroke-dashoffset:0"
       id="path3768-67-23"
       sodipodi:cx="347.5"
       sodipodi:cy="509.86218"
       sodipodi:rx="2.5"
       sodipodi:ry="2.5"
       d="m 350,509.86218 a 2.5,2.5 0 1 1 -5,0 2.5,2.5 0 1 1 5,0 z"
       transform="matrix(1.1262691,0,0,1.1262691,-154.38956,-106.85287)" />
    <path
       sodipodi:type="arc"
       style="fill:none;stroke:#666666;stroke-width:1.86445798;stroke-miterlimit:4;stroke-opacity:1;stroke-dasharray:none;stroke-dashoffset:0"
       id="path3768-67-607"
       sodipodi:cx="347.5"
       sodipodi:cy="509.86218"
       sodipodi:rx="2.5"
       sodipodi:ry="2.5"
       d="m 350,509.86218 a 2.5,2.5 0 1 1 -5,0 2.5,2.5 0 1 1 5,0 z"
       transform="matrix(1.1262691,0,0,1.1262691,-154.26329,-64.584295)" />
    <path
       sodipodi:type="arc"
       style="fill:none;stroke:#666666;stroke-width:1.86445798;stroke-miterlimit:4;stroke-opacity:1;stroke-dasharray:none;stroke-dashoffset:0"
       id="path3768-67-8"
       sodipodi:cx="347.5"
       sodipodi:cy="509.86218"
       sodipodi:rx="2.5"
       sodipodi:ry="2.5"
       d="m 350,509.86218 a 2.5,2.5 0 1 1 -5,0 2.5,2.5 0 1 1 5,0 z"
       transform="matrix(1.1262691,0,0,1.1262691,-154.29485,-22.25259)" />
    <path
       sodipodi:type="arc"
       style="fill:none;stroke:#666666;stroke-width:1.86445798;stroke-miterlimit:4;stroke-opacity:1;stroke-dasharray:none;stroke-dashoffset:0"
       id="path3768-67-62"
       sodipodi:cx="347.5"
       sodipodi:cy="509.86218"
       sodipodi:rx="2.5"
       sodipodi:ry="2.5"
       d="m 350,509.86218 a 2.5,2.5 0 1 1 -5,0 2.5,2.5 0 1 1 5,0 z"
       transform="matrix(1.1262691,0,0,1.1262691,-154.32642,19.858144)" />
    <path
       sodipodi:type="arc"
       style="fill:none;stroke:#666666;stroke-width:1.86445798;stroke-miterlimit:4;stroke-opacity:1;stroke-dasharray:none;stroke-dashoffset:0"
       id="path3768-67-87"
       sodipodi:cx="347.5"
       sodipodi:cy="509.86218"
       sodipodi:rx="2.5"
       sodipodi:ry="2.5"
       d="m 350,509.86218 a 2.5,2.5 0 1 1 -5,0 2.5,2.5 0 1 1 5,0 z"
       transform="matrix(1.1262691,0,0,1.1262691,-154.07048,62.02641)" />
    <path
       style="fill:none;stroke:#000000;stroke-width:3;stroke-linecap:butt;stroke-linejoin:miter;stroke-miterlimit:4;stroke-opacity:1;stroke-dasharray:none;marker-end:url(#Arrow2Mend)"
       d="M 278.97342,721.28469 239.32493,681.6362"
       id="path4016"
       inkscape:connector-curvature="0" />
    <path
       sodipodi:type="arc"
       style="fill:#000000;fill-opacity:1;stroke:#000000;stroke-width:3;stroke-miterlimit:4;stroke-opacity:1;stroke-dasharray:none;stroke-dashoffset:0"
       id="path4828"
       sodipodi:cx="377.54465"
       sodipodi:cy="699.63898"
       sodipodi:rx="1.3839285"
       sodipodi:ry="1.3839285"
       d="m 378.92858,699.63898 a 1.3839285,1.3839285 0 1 1 -2.76786,0 1.3839285,1.3839285 0 1 1 2.76786,0 z"
       transform="translate(7.4642857,0)" />
    <path
       sodipodi:type="arc"
       style="fill:#000000;fill-opacity:1;stroke:#000000;stroke-width:3;stroke-miterlimit:4;stroke-opacity:1;stroke-dasharray:none;stroke-dashoffset:0"
       id="path4828-3"
       sodipodi:cx="377.54465"
       sodipodi:cy="699.63898"
       sodipodi:rx="1.3839285"
       sodipodi:ry="1.3839285"
       d="m 378.92858,699.63898 a 1.3839285,1.3839285 0 1 1 -2.76786,0 1.3839285,1.3839285 0 1 1 2.76786,0 z"
       transform="translate(49.830354,-0.13393822)" />
    <path
       sodipodi:type="arc"
       style="fill:#000000;fill-opacity:1;stroke:#000000;stroke-width:3;stroke-miterlimit:4;stroke-opacity:1;stroke-dasharray:none;stroke-dashoffset:0"
       id="path4828-6"
       sodipodi:cx="377.54465"
       sodipodi:cy="699.63898"
       sodipodi:rx="1.3839285"
       sodipodi:ry="1.3839285"
       d="m 378.92858,699.63898 a 1.3839285,1.3839285 0 1 1 -2.76786,0 1.3839285,1.3839285 0 1 1 2.76786,0 z"
       transform="translate(-34.991075,-0.13393822)" />
    <path
       sodipodi:type="arc"
       style="fill:#000000;fill-opacity:1;stroke:#000000;stroke-width:3;stroke-miterlimit:4;stroke-opacity:1;stroke-dasharray:none;stroke-dashoffset:0"
       id="path4828-5"
       sodipodi:cx="377.54465"
       sodipodi:cy="699.63898"
       sodipodi:rx="1.3839285"
       sodipodi:ry="1.3839285"
       d="m 378.92858,699.63898 a 1.3839285,1.3839285 0 1 1 -2.76786,0 1.3839285,1.3839285 0 1 1 2.76786,0 z"
       transform="translate(-76.69965,0.02614135)" />
    <path
       sodipodi:type="arc"
       style="fill:#000000;fill-opacity:1;stroke:#000000;stroke-width:3;stroke-miterlimit:4;stroke-opacity:1;stroke-dasharray:none;stroke-dashoffset:0"
       id="path4828-2"
       sodipodi:cx="377.54465"
       sodipodi:cy="699.63898"
       sodipodi:rx="1.3839285"
       sodipodi:ry="1.3839285"
       d="m 378.92858,699.63898 a 1.3839285,1.3839285 0 1 1 -2.76786,0 1.3839285,1.3839285 0 1 1 2.76786,0 z"
       transform="translate(-76.598218,-42.18751)" />
    <path
       sodipodi:type="arc"
       style="fill:#000000;fill-opacity:1;stroke:#000000;stroke-width:3;stroke-miterlimit:4;stroke-opacity:1;stroke-dasharray:none;stroke-dashoffset:0"
       id="path4828-56"
       sodipodi:cx="377.54465"
       sodipodi:cy="699.63898"
       sodipodi:rx="1.3839285"
       sodipodi:ry="1.3839285"
       d="m 378.92858,699.63898 a 1.3839285,1.3839285 0 1 1 -2.76786,0 1.3839285,1.3839285 0 1 1 2.76786,0 z"
       transform="translate(-119.75286,-41.804499)" />
    <path
       sodipodi:type="arc"
       style="fill:#000000;fill-opacity:1;stroke:#000000;stroke-width:3;stroke-miterlimit:4;stroke-opacity:1;stroke-dasharray:none;stroke-dashoffset:0"
       id="path4828-4"
       sodipodi:cx="377.54465"
       sodipodi:cy="699.63898"
       sodipodi:rx="1.3839285"
       sodipodi:ry="1.3839285"
       d="m 378.92858,699.63898 a 1.3839285,1.3839285 0 1 1 -2.76786,0 1.3839285,1.3839285 0 1 1 2.76786,0 z"
       transform="translate(-119.53189,-84.357175)" />
    <path
       sodipodi:type="arc"
       style="fill:#000000;fill-opacity:1;stroke:#000000;stroke-width:3;stroke-miterlimit:4;stroke-opacity:1;stroke-dasharray:none;stroke-dashoffset:0"
       id="path4828-7"
       sodipodi:cx="377.54465"
       sodipodi:cy="699.63898"
       sodipodi:rx="1.3839285"
       sodipodi:ry="1.3839285"
       d="m 378.92858,699.63898 a 1.3839285,1.3839285 0 1 1 -2.76786,0 1.3839285,1.3839285 0 1 1 2.76786,0 z"
       transform="translate(-119.34249,-126.72045)" />
    <path
       sodipodi:type="arc"
       style="fill:#000000;fill-opacity:1;stroke:#000000;stroke-width:3;stroke-miterlimit:4;stroke-opacity:1;stroke-dasharray:none;stroke-dashoffset:0"
       id="path4828-25"
       sodipodi:cx="377.54465"
       sodipodi:cy="699.63898"
       sodipodi:rx="1.3839285"
       sodipodi:ry="1.3839285"
       d="m 378.92858,699.63898 a 1.3839285,1.3839285 0 1 1 -2.76786,0 1.3839285,1.3839285 0 1 1 2.76786,0 z"
       transform="translate(-119.37406,-168.89432)" />
    <path
       sodipodi:type="arc"
       style="fill:#000000;fill-opacity:1;stroke:#000000;stroke-width:3;stroke-miterlimit:4;stroke-opacity:1;stroke-dasharray:none;stroke-dashoffset:0"
       id="path4828-60"
       sodipodi:cx="377.54465"
       sodipodi:cy="699.63898"
       sodipodi:rx="1.3839285"
       sodipodi:ry="1.3839285"
       d="m 378.92858,699.63898 a 1.3839285,1.3839285 0 1 1 -2.76786,0 1.3839285,1.3839285 0 1 1 2.76786,0 z"
       transform="translate(-119.56346,-211.06819)" />
    <path
       sodipodi:type="arc"
       style="fill:#000000;fill-opacity:1;stroke:#000000;stroke-width:3;stroke-miterlimit:4;stroke-opacity:1;stroke-dasharray:none;stroke-dashoffset:0"
       id="path4828-1"
       sodipodi:cx="377.54465"
       sodipodi:cy="699.63898"
       sodipodi:rx="1.3839285"
       sodipodi:ry="1.3839285"
       d="m 378.92858,699.63898 a 1.3839285,1.3839285 0 1 1 -2.76786,0 1.3839285,1.3839285 0 1 1 2.76786,0 z"
       transform="translate(-119.43719,-252.95795)" />
    <path
       sodipodi:type="arc"
       style="fill:#000000;fill-opacity:1;stroke:#000000;stroke-width:3;stroke-miterlimit:4;stroke-opacity:1;stroke-dasharray:none;stroke-dashoffset:0"
       id="path4828-54"
       sodipodi:cx="377.54465"
       sodipodi:cy="699.63898"
       sodipodi:rx="1.3839285"
       sodipodi:ry="1.3839285"
       d="m 378.92858,699.63898 a 1.3839285,1.3839285 0 1 1 -2.76786,0 1.3839285,1.3839285 0 1 1 2.76786,0 z"
       transform="translate(-76.916081,-252.98952)" />
    <path
       sodipodi:type="arc"
       style="fill:#000000;fill-opacity:1;stroke:#000000;stroke-width:3;stroke-miterlimit:4;stroke-opacity:1;stroke-dasharray:none;stroke-dashoffset:0"
       id="path4828-0"
       sodipodi:cx="377.54465"
       sodipodi:cy="699.63898"
       sodipodi:rx="1.3839285"
       sodipodi:ry="1.3839285"
       d="m 378.92858,699.63898 a 1.3839285,1.3839285 0 1 1 -2.76786,0 1.3839285,1.3839285 0 1 1 2.76786,0 z"
       transform="translate(-34.679078,-253.11579)" />
    <path
       sodipodi:type="arc"
       style="fill:#000000;fill-opacity:1;stroke:#000000;stroke-width:3;stroke-miterlimit:4;stroke-opacity:1;stroke-dasharray:none;stroke-dashoffset:0"
       id="path4828-16"
       sodipodi:cx="377.54465"
       sodipodi:cy="699.63898"
       sodipodi:rx="1.3839285"
       sodipodi:ry="1.3839285"
       d="m 378.92858,699.63898 a 1.3839285,1.3839285 0 1 1 -2.76786,0 1.3839285,1.3839285 0 1 1 2.76786,0 z"
       transform="translate(-34.552808,-295.19495)" />
    <path
       sodipodi:type="arc"
       style="fill:#000000;fill-opacity:1;stroke:#000000;stroke-width:3;stroke-miterlimit:4;stroke-opacity:1;stroke-dasharray:none;stroke-dashoffset:0"
       id="path4828-8"
       sodipodi:cx="377.54465"
       sodipodi:cy="699.63898"
       sodipodi:rx="1.3839285"
       sodipodi:ry="1.3839285"
       d="m 378.92858,699.63898 a 1.3839285,1.3839285 0 1 1 -2.76786,0 1.3839285,1.3839285 0 1 1 2.76786,0 z"
       transform="translate(7.336955,-295.19495)" />
    <path
       sodipodi:type="arc"
       style="fill:#000000;fill-opacity:1;stroke:#000000;stroke-width:3;stroke-miterlimit:4;stroke-opacity:1;stroke-dasharray:none;stroke-dashoffset:0"
       id="path4828-71"
       sodipodi:cx="377.54465"
       sodipodi:cy="699.63898"
       sodipodi:rx="1.3839285"
       sodipodi:ry="1.3839285"
       d="m 378.92858,699.63898 a 1.3839285,1.3839285 0 1 1 -2.76786,0 1.3839285,1.3839285 0 1 1 2.76786,0 z"
       transform="translate(49.226718,-295.00555)" />
    <path
       sodipodi:type="arc"
       style="fill:#000000;fill-opacity:1;stroke:#000000;stroke-width:3;stroke-miterlimit:4;stroke-opacity:1;stroke-dasharray:none;stroke-dashoffset:0"
       id="path4828-22"
       sodipodi:cx="377.54465"
       sodipodi:cy="699.63898"
       sodipodi:rx="1.3839285"
       sodipodi:ry="1.3839285"
       d="m 378.92858,699.63898 a 1.3839285,1.3839285 0 1 1 -2.76786,0 1.3839285,1.3839285 0 1 1 2.76786,0 z"
       transform="translate(49.479257,-253.11579)" />
    <path
       sodipodi:type="arc"
       style="fill:#000000;fill-opacity:1;stroke:#000000;stroke-width:3;stroke-miterlimit:4;stroke-opacity:1;stroke-dasharray:none;stroke-dashoffset:0"
       id="path4828-74"
       sodipodi:cx="377.54465"
       sodipodi:cy="699.63898"
       sodipodi:rx="1.3839285"
       sodipodi:ry="1.3839285"
       d="m 378.92858,699.63898 a 1.3839285,1.3839285 0 1 1 -2.76786,0 1.3839285,1.3839285 0 1 1 2.76786,0 z"
       transform="translate(91.36902,-253.05265)" />
    <path
       sodipodi:type="arc"
       style="fill:#000000;fill-opacity:1;stroke:#000000;stroke-width:3;stroke-miterlimit:4;stroke-opacity:1;stroke-dasharray:none;stroke-dashoffset:0"
       id="path4828-17"
       sodipodi:cx="377.54465"
       sodipodi:cy="699.63898"
       sodipodi:rx="1.3839285"
       sodipodi:ry="1.3839285"
       d="m 378.92858,699.63898 a 1.3839285,1.3839285 0 1 1 -2.76786,0 1.3839285,1.3839285 0 1 1 2.76786,0 z"
       transform="translate(91.684693,-211.09975)" />
    <path
       sodipodi:type="arc"
       style="fill:#000000;fill-opacity:1;stroke:#000000;stroke-width:3;stroke-miterlimit:4;stroke-opacity:1;stroke-dasharray:none;stroke-dashoffset:0"
       id="path4828-04"
       sodipodi:cx="377.54465"
       sodipodi:cy="699.63898"
       sodipodi:rx="1.3839285"
       sodipodi:ry="1.3839285"
       d="m 378.92858,699.63898 a 1.3839285,1.3839285 0 1 1 -2.76786,0 1.3839285,1.3839285 0 1 1 2.76786,0 z"
       transform="translate(134.33207,-211.06819)" />
    <path
       sodipodi:type="arc"
       style="fill:#000000;fill-opacity:1;stroke:#000000;stroke-width:3;stroke-miterlimit:4;stroke-opacity:1;stroke-dasharray:none;stroke-dashoffset:0"
       id="path4828-50"
       sodipodi:cx="377.54465"
       sodipodi:cy="699.63898"
       sodipodi:rx="1.3839285"
       sodipodi:ry="1.3839285"
       d="m 378.92858,699.63898 a 1.3839285,1.3839285 0 1 1 -2.76786,0 1.3839285,1.3839285 0 1 1 2.76786,0 z"
       transform="translate(134.36364,-169.05215)" />
    <path
       sodipodi:type="arc"
       style="fill:#000000;fill-opacity:1;stroke:#000000;stroke-width:3;stroke-miterlimit:4;stroke-opacity:1;stroke-dasharray:none;stroke-dashoffset:0"
       id="path4828-9"
       sodipodi:cx="377.54465"
       sodipodi:cy="699.63898"
       sodipodi:rx="1.3839285"
       sodipodi:ry="1.3839285"
       d="m 378.92858,699.63898 a 1.3839285,1.3839285 0 1 1 -2.76786,0 1.3839285,1.3839285 0 1 1 2.76786,0 z"
       transform="translate(134.3005,-127.00455)" />
    <path
       sodipodi:type="arc"
       style="fill:#000000;fill-opacity:1;stroke:#000000;stroke-width:3;stroke-miterlimit:4;stroke-opacity:1;stroke-dasharray:none;stroke-dashoffset:0"
       id="path4828-253"
       sodipodi:cx="377.54465"
       sodipodi:cy="699.63898"
       sodipodi:rx="1.3839285"
       sodipodi:ry="1.3839285"
       d="m 378.92858,699.63898 a 1.3839285,1.3839285 0 1 1 -2.76786,0 1.3839285,1.3839285 0 1 1 2.76786,0 z"
       transform="translate(134.42677,-85.020088)" />
  </g>
</svg>
