<?xml version="1.0" encoding="UTF-8" standalone="no"?>
<!-- Created with Inkscape (http://www.inkscape.org/) -->

<svg
   xmlns:dc="http://purl.org/dc/elements/1.1/"
   xmlns:cc="http://creativecommons.org/ns#"
   xmlns:rdf="http://www.w3.org/1999/02/22-rdf-syntax-ns#"
   xmlns:svg="http://www.w3.org/2000/svg"
   xmlns="http://www.w3.org/2000/svg"
   xmlns:xlink="http://www.w3.org/1999/xlink"
   xmlns:sodipodi="http://sodipodi.sourceforge.net/DTD/sodipodi-0.dtd"
   xmlns:inkscape="http://www.inkscape.org/namespaces/inkscape"
   width="529.49725"
   height="277.04349"
   id="svg3510"
   version="1.1"
   inkscape:version="0.48.2 r9819"
   sodipodi:docname="proposition1.svg"
   inkscape:export-filename="/Users/davidcoeurjolly/Conf/DGCI2014/Figures/proposition1.png"
   inkscape:export-xdpi="600.12158"
   inkscape:export-ydpi="600.12158">
  <sodipodi:namedview
     id="base"
     pagecolor="#ffffff"
     bordercolor="#666666"
     borderopacity="1.0"
     inkscape:pageopacity="0.0"
     inkscape:pageshadow="2"
     inkscape:zoom="5.4428986"
     inkscape:cx="194.35961"
     inkscape:cy="149.00503"
     inkscape:document-units="px"
     inkscape:current-layer="layer1"
     showgrid="false"
     inkscape:window-width="1920"
     inkscape:window-height="1032"
     inkscape:window-x="0"
     inkscape:window-y="0"
     inkscape:window-maximized="1"
     fit-margin-top="0"
     fit-margin-left="0"
     fit-margin-right="0"
     fit-margin-bottom="0" />
  <defs
     id="defs3512">
    <marker
       inkscape:stockid="Arrow1Send"
       orient="auto"
       refY="0.0"
       refX="0.0"
       id="Arrow1Send"
       style="overflow:visible;">
      <path
         id="path4348"
         d="M 0.0,0.0 L 5.0,-5.0 L -12.5,0.0 L 5.0,5.0 L 0.0,0.0 z "
         style="fill-rule:evenodd;stroke:#000000;stroke-width:1.0pt;marker-start:none;"
         transform="scale(0.2) rotate(180) translate(6,0)" />
    </marker>
    <marker
       inkscape:stockid="Arrow1Mend"
       orient="auto"
       refY="0"
       refX="0"
       id="Arrow1Mend"
       style="overflow:visible">
      <path
         id="path4342"
         d="M 0,0 5,-5 -12.5,0 5,5 0,0 z"
         style="fill-rule:evenodd;stroke:#000000;stroke-width:1pt;marker-start:none"
         transform="matrix(-0.4,0,0,-0.4,-4,0)"
         inkscape:connector-curvature="0" />
    </marker>
    <linearGradient
       id="linearGradient4300">
      <stop
         style="stop-color:#777777;stop-opacity:1;"
         offset="0"
         id="stop4302" />
      <stop
         style="stop-color:#d5d5d5;stop-opacity:0;"
         offset="1"
         id="stop4304" />
    </linearGradient>
    <marker
       inkscape:stockid="Arrow1MendA"
       orient="auto"
       refY="0"
       refX="0"
       id="Arrow1MendA"
       style="overflow:visible">
      <path
         id="path4783"
         d="M 0,0 5,-5 -12.5,0 5,5 0,0 z"
         style="fill:#ff0000;fill-rule:evenodd;stroke:#ff0000;stroke-width:1pt;marker-start:none"
         transform="matrix(-0.4,0,0,-0.4,-4,0)"
         inkscape:connector-curvature="0" />
    </marker>
    <marker
       inkscape:stockid="Arrow1Mend"
       orient="auto"
       refY="0"
       refX="0"
       id="Arrow1Mend-2"
       style="overflow:visible">
      <path
         id="path4342-3"
         d="M 0,0 5,-5 -12.5,0 5,5 0,0 z"
         style="fill-rule:evenodd;stroke:#000000;stroke-width:1pt;marker-start:none"
         transform="matrix(-0.4,0,0,-0.4,-4,0)"
         inkscape:connector-curvature="0" />
    </marker>
    <marker
       inkscape:stockid="Arrow1MendA"
       orient="auto"
       refY="0"
       refX="0"
       id="Arrow1MendA-9"
       style="overflow:visible">
      <path
         id="path4783-7"
         d="M 0,0 5,-5 -12.5,0 5,5 0,0 z"
         style="fill:#ff0000;fill-rule:evenodd;stroke:#ff0000;stroke-width:1pt;marker-start:none"
         transform="matrix(-0.4,0,0,-0.4,-4,0)"
         inkscape:connector-curvature="0" />
    </marker>
    <marker
       inkscape:stockid="Arrow1MendA"
       orient="auto"
       refY="0"
       refX="0"
       id="Arrow1MendA-3"
       style="overflow:visible">
      <path
         id="path4783-9"
         d="M 0,0 5,-5 -12.5,0 5,5 0,0 z"
         style="fill:#ff0000;fill-rule:evenodd;stroke:#ff0000;stroke-width:1pt;marker-start:none"
         transform="matrix(-0.4,0,0,-0.4,-4,0)"
         inkscape:connector-curvature="0" />
    </marker>
    <marker
       inkscape:stockid="Arrow1MendAq"
       orient="auto"
       refY="0"
       refX="0"
       id="Arrow1MendAq"
       style="overflow:visible">
      <path
         id="path5151"
         d="M 0,0 5,-5 -12.5,0 5,5 0,0 z"
         style="fill:#000000;fill-rule:evenodd;stroke:#000000;stroke-width:1pt;marker-start:none"
         transform="matrix(-0.4,0,0,-0.4,-4,0)"
         inkscape:connector-curvature="0" />
    </marker>
    <marker
       inkscape:stockid="Arrow1MendA"
       orient="auto"
       refY="0"
       refX="0"
       id="Arrow1MendA-6"
       style="overflow:visible">
      <path
         inkscape:connector-curvature="0"
         id="path4783-5"
         d="M 0,0 5,-5 -12.5,0 5,5 0,0 z"
         style="fill:#ff0000;fill-rule:evenodd;stroke:#ff0000;stroke-width:1pt;marker-start:none"
         transform="matrix(-0.4,0,0,-0.4,-4,0)" />
    </marker>
    <marker
       inkscape:stockid="Arrow1MendAe"
       orient="auto"
       refY="0"
       refX="0"
       id="Arrow1MendAe"
       style="overflow:visible">
      <path
         id="path5252"
         d="M 0,0 5,-5 -12.5,0 5,5 0,0 z"
         style="fill:#ff8a00;fill-rule:evenodd;stroke:#ff8a00;stroke-width:1pt;marker-start:none"
         transform="matrix(-0.4,0,0,-0.4,-4,0)"
         inkscape:connector-curvature="0" />
    </marker>
    <marker
       inkscape:stockid="Arrow1MendA3"
       orient="auto"
       refY="0"
       refX="0"
       id="Arrow1MendA3"
       style="overflow:visible">
      <path
         id="path5339"
         d="M 0,0 5,-5 -12.5,0 5,5 0,0 z"
         style="fill:#ff8000;fill-rule:evenodd;stroke:#ff8000;stroke-width:1pt;marker-start:none"
         transform="matrix(-0.4,0,0,-0.4,-4,0)"
         inkscape:connector-curvature="0" />
    </marker>
    <radialGradient
       inkscape:collect="always"
       xlink:href="#linearGradient4300"
       id="radialGradient5404"
       gradientUnits="userSpaceOnUse"
       gradientTransform="matrix(0.92511321,-0.6485282,0.54720925,0.78058365,-196.72094,264.51337)"
       cx="291.74277"
       cy="381.41122"
       fx="291.74277"
       fy="381.41122"
       r="155.5" />
    <marker
       inkscape:stockid="Arrow1Mend-23"
       orient="auto"
       refY="0"
       refX="0"
       id="Arrow1Mend-23"
       style="overflow:visible">
      <path
         id="path5956"
         d="M 0,0 5,-5 -12.5,0 5,5 0,0 z"
         style="marker-start:none;stroke:#8d8d8d;stroke-width:1pt;fill:#8d8d8d;fill-rule:evenodd"
         transform="matrix(-0.4,0,0,-0.4,-4,0)"
         inkscape:connector-curvature="0" />
    </marker>
    <marker
       inkscape:stockid="Arrow1Mend-2I"
       orient="auto"
       refY="0"
       refX="0"
       id="Arrow1Mend-2I"
       style="overflow:visible">
      <path
         id="path5959"
         d="M 0,0 5,-5 -12.5,0 5,5 0,0 z"
         style="marker-start:none;stroke:#8d8d8d;stroke-width:1pt;fill:#8d8d8d;fill-rule:evenodd"
         transform="matrix(-0.4,0,0,-0.4,-4,0)"
         inkscape:connector-curvature="0" />
    </marker>
    <marker
       inkscape:stockid="Arrow1Mend-2F"
       orient="auto"
       refY="0"
       refX="0"
       id="Arrow1Mend-2F"
       style="overflow:visible">
      <path
         id="path5962"
         d="M 0,0 5,-5 -12.5,0 5,5 0,0 z"
         style="marker-start:none;stroke:#8d8d8d;stroke-width:1pt;fill:#8d8d8d;fill-rule:evenodd"
         transform="matrix(-0.4,0,0,-0.4,-4,0)"
         inkscape:connector-curvature="0" />
    </marker>
    <marker
       inkscape:stockid="Arrow1Mendl"
       orient="auto"
       refY="0"
       refX="0"
       id="Arrow1Mendl"
       style="overflow:visible">
      <path
         id="path6117"
         d="M 0,0 5,-5 -12.5,0 5,5 0,0 z"
         style="marker-start:none;stroke:#00cd00;stroke-width:1pt;fill:#00cd00;fill-rule:evenodd"
         transform="matrix(-0.4,0,0,-0.4,-4,0)"
         inkscape:connector-curvature="0" />
    </marker>
    <marker
       inkscape:stockid="Arrow1Mendl"
       orient="auto"
       refY="0"
       refX="0"
       id="Arrow1Mendl-1"
       style="overflow:visible">
      <path
         id="path6117-4"
         d="M 0,0 5,-5 -12.5,0 5,5 0,0 z"
         style="fill:#00cd00;fill-rule:evenodd;stroke:#00cd00;stroke-width:1pt;marker-start:none"
         transform="matrix(-0.4,0,0,-0.4,-4,0)"
         inkscape:connector-curvature="0" />
    </marker>
    <marker
       inkscape:stockid="Arrow1Mendld"
       orient="auto"
       refY="0"
       refX="0"
       id="Arrow1Mendld"
       style="overflow:visible">
      <path
         id="path6264"
         d="M 0,0 5,-5 -12.5,0 5,5 0,0 z"
         style="fill-rule:evenodd;marker-start:none;stroke:#00b300;stroke-width:1pt;fill:#00b300"
         transform="matrix(-0.4,0,0,-0.4,-4,0)"
         inkscape:connector-curvature="0" />
    </marker>
    <marker
       inkscape:stockid="Arrow1Mendl9"
       orient="auto"
       refY="0"
       refX="0"
       id="Arrow1Mendl9"
       style="overflow:visible">
      <path
         id="path6395"
         d="M 0,0 5,-5 -12.5,0 5,5 0,0 z"
         style="fill-rule:evenodd;marker-start:none;stroke:#00b300;stroke-width:1pt;fill:#00b300"
         transform="matrix(-0.4,0,0,-0.4,-4,0)"
         inkscape:connector-curvature="0" />
    </marker>
  </defs>
  <metadata
     id="metadata3515">
    <rdf:RDF>
      <cc:Work
         rdf:about="">
        <dc:format>image/svg+xml</dc:format>
        <dc:type
           rdf:resource="http://purl.org/dc/dcmitype/StillImage" />
        <dc:title></dc:title>
      </cc:Work>
    </rdf:RDF>
  </metadata>
  <g
     inkscape:label="Layer 1"
     inkscape:groupmode="layer"
     id="layer1"
     transform="translate(-118.07143,-221.89011)">
    <path
       sodipodi:nodetypes="cc"
       inkscape:connector-curvature="0"
       id="path4875"
       d="m 553.69195,347.11231 55.08338,-2.07861"
       style="stroke-linejoin:miter;marker-end:url(#Arrow1Mendl9);stroke-opacity:1;stroke:#00b300;stroke-linecap:butt;stroke-width:1px;fill:none" />
    <path
       style="fill:url(#radialGradient5404);fill-opacity:1;stroke:none;stroke-width:1px;stroke-linecap:butt;stroke-linejoin:miter;stroke-opacity:1"
       d="m 118.57143,391.29075 c 73.95765,24.18611 135.76002,45.34243 182.85714,107.14286 l 127.14286,-98.57143 c -22.5,-45 -57.85714,-83.21428 -89.28572,-99.28571 -31.42857,-16.07143 -128.92857,10.71429 -128.92857,10.71429 z"
       id="path3518"
       inkscape:connector-curvature="0"
       sodipodi:nodetypes="cccscc" />
    <path
       style="fill:#4089bb;fill-opacity:1;stroke:none"
       d="m 223.32734,348.77276 64.90665,42.61306 52.0926,-35.43252 -60.57068,-38.96625 z"
       id="path3524"
       inkscape:connector-curvature="0"
       sodipodi:nodetypes="ccccc" />
    <path
       style="fill:none;stroke:#949494;stroke-width:1px;stroke-linecap:butt;stroke-linejoin:miter;stroke-opacity:1"
       d="m 351.86786,307.88441 -0.34458,-85.4943 -128.37894,74.11961 0,177.14286 32.87969,-20.86216"
       id="path4294"
       inkscape:connector-curvature="0"
       sodipodi:nodetypes="ccccc" />
    <path
       style="fill:none;stroke:#ff0000;stroke-width:1px;stroke-linecap:butt;stroke-linejoin:miter;stroke-opacity:1;marker-end:url(#Arrow1MendA)"
       d="M 283.93513,352.51721 260.43575,314.84118"
       id="path4328"
       inkscape:connector-curvature="0"
       sodipodi:nodetypes="cc" />
    <path
       style="fill:none;stroke:#000000;stroke-width:1;stroke-linecap:butt;stroke-linejoin:miter;stroke-miterlimit:4;stroke-opacity:1;stroke-dasharray:4, 4;stroke-dashoffset:0"
       d="M 223.97796,431.77095 C 259.46985,363.54382 313.91372,324.26154 350.78394,307.37704"
       id="path4298"
       inkscape:connector-curvature="0"
       sodipodi:nodetypes="cc" />
    <path
       sodipodi:nodetypes="cc"
       inkscape:connector-curvature="0"
       id="path4815"
       d="M 141.41116,398.50553 C 191.40513,374.55957 327.99203,335.0987 384.76045,336.79835"
       style="fill:none;stroke:#00a0cc;stroke-width:1;stroke-linecap:butt;stroke-linejoin:miter;stroke-opacity:1;stroke-miterlimit:4;stroke-dasharray:4,4;stroke-dashoffset:0" />
    <path
       sodipodi:nodetypes="cc"
       inkscape:connector-curvature="0"
       id="path4815-3"
       d="m 240.422,304.07269 c 18.01633,22.09548 72.13083,61.91542 99.86039,163.46441"
       style="fill:none;stroke:#00a0cc;stroke-width:1;stroke-linecap:butt;stroke-linejoin:miter;stroke-opacity:1;stroke-miterlimit:4;stroke-dasharray:4,4;stroke-dashoffset:0" />
    <path
       sodipodi:nodetypes="cc"
       style="fill:none;stroke:#ff8a00;stroke-width:1;stroke-linecap:butt;stroke-linejoin:miter;stroke-miterlimit:4;stroke-opacity:1;stroke-dasharray:2, 2;stroke-dashoffset:0;marker-end:url(#Arrow1MendAe)"
       d="m 284.25151,351.61314 0.20123,-33.77954"
       id="path4328-0-7"
       inkscape:connector-curvature="0" />
    <rect
       y="223.57579"
       x="463.90884"
       height="264.40402"
       width="183.15987"
       id="rect4853"
       style="fill:none;stroke:#949494;stroke-width:1;stroke-linejoin:round;stroke-miterlimit:4;stroke-opacity:1;stroke-dasharray:none;stroke-dashoffset:0" />
    <path
       sodipodi:nodetypes="cc"
       inkscape:connector-curvature="0"
       id="path4855"
       d="m 464.09095,368.68758 c 87.24712,-25.31721 100.68613,-31.06586 181.88838,-1.76974"
       style="fill:none;stroke:#000000;stroke-width:1;stroke-linecap:butt;stroke-linejoin:miter;stroke-miterlimit:4;stroke-opacity:1;stroke-dasharray:4, 4;stroke-dashoffset:0" />
    <path
       sodipodi:nodetypes="cc"
       style="fill:none;stroke:#ff8000;stroke-width:1;stroke-linecap:butt;stroke-linejoin:miter;stroke-miterlimit:4;stroke-opacity:1;stroke-dasharray:3, 3;stroke-dashoffset:0;marker-end:url(#Arrow1MendA3)"
       d="m 555.5641,346.09129 -3.84073,-44.84133"
       id="path4328-0"
       inkscape:connector-curvature="0" />
    <path
       sodipodi:nodetypes="cc"
       style="fill:none;stroke:#000000;stroke-width:1px;stroke-linecap:butt;stroke-linejoin:miter;stroke-opacity:1;marker-end:url(#Arrow1MendAq)"
       d="m 555.99023,347.21133 3.84073,44.84133"
       id="path4328-0-8"
       inkscape:connector-curvature="0" />
    <path
       sodipodi:type="arc"
       style="fill:#48f648;fill-opacity:1;stroke:none"
       id="path3522-0"
       sodipodi:cx="73.39286"
       sodipodi:cy="329.32648"
       sodipodi:rx="3.0357144"
       sodipodi:ry="3.0357144"
       d="m 76.428575,329.32648 c 0,1.67658 -1.359136,3.03571 -3.035715,3.03571 -1.676578,0 -3.035714,-1.35913 -3.035714,-3.03571 0,-1.67658 1.359136,-3.03572 3.035714,-3.03572 1.674945,0 3.033403,1.35659 3.035712,3.03153"
       sodipodi:start="0"
       sodipodi:end="6.2818066"
       sodipodi:open="true"
       transform="translate(482.89735,17.3448)" />
    <path
       sodipodi:nodetypes="cc"
       inkscape:connector-curvature="0"
       id="path5313"
       d="m 259.60432,313.23395 25.12583,3.16158"
       style="fill:none;stroke:#ff9300;stroke-width:0.5;stroke-linecap:butt;stroke-linejoin:miter;stroke-miterlimit:4;stroke-opacity:1;stroke-dasharray:1.5, 0.5;stroke-dashoffset:0" />
    <g
       transform="translate(75.054468,-6.2282062)"
       id="g6041">
      <path
         inkscape:connector-curvature="0"
         id="path5520"
         d="m 293.97449,259.63267 18.70757,-10.65292"
         style="fill:none;stroke:#8d8d8d;stroke-width:1px;stroke-linecap:butt;stroke-linejoin:miter;stroke-opacity:1;marker-end:url(#Arrow1Mend-23)"
         sodipodi:nodetypes="cc" />
      <path
         inkscape:connector-curvature="0"
         id="path5522"
         d="m 293.71467,259.8925 18.18791,9.35378"
         style="fill:none;stroke:#8d8d8d;stroke-width:1px;stroke-linecap:butt;stroke-linejoin:miter;stroke-opacity:1;marker-end:url(#Arrow1Mend-2I)"
         sodipodi:nodetypes="cc" />
      <path
         inkscape:connector-curvature="0"
         id="path5524"
         d="m 294.0506,260.17862 0,-21.82549"
         style="fill:none;stroke:#8d8d8d;stroke-width:1px;stroke-linecap:butt;stroke-linejoin:miter;stroke-opacity:1;marker-end:url(#Arrow1Mend-2F)"
         sodipodi:nodetypes="cc" />
    </g>
    <path
       style="fill:none;stroke:#00b300;stroke-width:1;stroke-linecap:butt;stroke-linejoin:miter;stroke-miterlimit:4;stroke-opacity:1;stroke-dasharray:4, 4;stroke-dashoffset:0"
       d="m 262.64586,458.61164 c 6.70908,-104.45391 18.69371,-109.31486 71.73178,-160.00488"
       id="path4298-5"
       inkscape:connector-curvature="0"
       sodipodi:nodetypes="cc" />
    <path
       style="fill:none;stroke:#00b300;stroke-width:1px;stroke-linecap:butt;stroke-linejoin:miter;stroke-opacity:1"
       d="m 333.25515,298.26386 -30.40172,-57.61482 -112.20289,98.84145 71.1576,119.24801"
       id="path4294-8"
       inkscape:connector-curvature="0"
       sodipodi:nodetypes="cccc" />
    <path
       sodipodi:nodetypes="cc"
       inkscape:connector-curvature="0"
       id="path4875-9"
       d="m 284.29738,351.85303 19.85291,-34.14657"
       style="fill:none;stroke:#00b300;stroke-width:1px;stroke-linecap:butt;stroke-linejoin:miter;stroke-opacity:1;marker-end:url(#Arrow1Mendld)" />
    <path
       sodipodi:type="arc"
       style="fill:#48f648;fill-opacity:1;stroke:none"
       id="path3522"
       sodipodi:cx="73.39286"
       sodipodi:cy="329.32648"
       sodipodi:rx="3.0357144"
       sodipodi:ry="3.0357144"
       d="m 76.428575,329.32648 c 0,1.67658 -1.359136,3.03571 -3.035715,3.03571 -1.676578,0 -3.035714,-1.35913 -3.035714,-3.03571 0,-1.67658 1.359136,-3.03572 3.035714,-3.03572 1.674945,0 3.033403,1.35659 3.035712,3.03153"
       sodipodi:start="0"
       sodipodi:end="6.2818066"
       sodipodi:open="true"
       transform="translate(210.94039,22.832341)"
       inkscape:export-xdpi="600.12158"
       inkscape:export-ydpi="600.12158" />
  </g>
</svg>
