<?xml version="1.0" encoding="UTF-8" standalone="no"?>
<!-- Created with Inkscape (http://www.inkscape.org/) -->

<svg
   xmlns:dc="http://purl.org/dc/elements/1.1/"
   xmlns:cc="http://creativecommons.org/ns#"
   xmlns:rdf="http://www.w3.org/1999/02/22-rdf-syntax-ns#"
   xmlns:svg="http://www.w3.org/2000/svg"
   xmlns="http://www.w3.org/2000/svg"
   xmlns:xlink="http://www.w3.org/1999/xlink"
   xmlns:sodipodi="http://sodipodi.sourceforge.net/DTD/sodipodi-0.dtd"
   xmlns:inkscape="http://www.inkscape.org/namespaces/inkscape"
   width="193.59924mm"
   height="218.4863mm"
   viewBox="0 0 685.98157 774.16404"
   id="svg2"
   version="1.1"
   inkscape:version="0.91 r13725"
   sodipodi:docname="Inkscape_bug.svg">
  <defs
     id="defs4">
    <linearGradient
       inkscape:collect="always"
       id="linearGradient4808">
      <stop
         style="stop-color:#241c1c;stop-opacity:1;"
         offset="0"
         id="stop4810" />
      <stop
         style="stop-color:#241c1c;stop-opacity:0;"
         offset="1"
         id="stop4812" />
    </linearGradient>
    <inkscape:path-effect
       effect="spiro"
       id="path-effect4138"
       is_visible="true" />
    <linearGradient
       inkscape:collect="always"
       xlink:href="#linearGradient4808"
       id="linearGradient4814"
       x1="287.89346"
       y1="252.3214"
       x2="633.36566"
       y2="106.85942"
       gradientUnits="userSpaceOnUse" />
  </defs>
  <sodipodi:namedview
     id="base"
     pagecolor="#ffffff"
     bordercolor="#666666"
     borderopacity="1.0"
     inkscape:pageopacity="0.0"
     inkscape:pageshadow="2"
     inkscape:zoom="0.98994949"
     inkscape:cx="70.542661"
     inkscape:cy="399.06632"
     inkscape:document-units="px"
     inkscape:current-layer="layer1"
     showgrid="false"
     fit-margin-top="0"
     fit-margin-left="0"
     fit-margin-right="0"
     fit-margin-bottom="0"
     inkscape:window-width="1920"
     inkscape:window-height="1021"
     inkscape:window-x="-4"
     inkscape:window-y="0"
     inkscape:window-maximized="1" />
  <metadata
     id="metadata7">
    <rdf:RDF>
      <cc:Work
         rdf:about="">
        <dc:format>image/svg+xml</dc:format>
        <dc:type
           rdf:resource="http://purl.org/dc/dcmitype/StillImage" />
        <dc:title></dc:title>
      </cc:Work>
    </rdf:RDF>
  </metadata>
  <g
     inkscape:label="Layer 1"
     inkscape:groupmode="layer"
     id="layer1"
     transform="translate(-116.21169,103.51947)">
    <path
       style="fill:url(#linearGradient4814);fill-opacity:1;fill-rule:evenodd;stroke:#000000;stroke-width:4;stroke-linecap:butt;stroke-linejoin:round;stroke-miterlimit:4;stroke-dasharray:none;stroke-opacity:1"
       d="m 449.7753,481.04237 c 43.0949,7.46466 88.56607,0.47157 127.42656,-19.59717 38.86049,-20.06874 70.88613,-53.09735 89.74735,-92.55804 18.86122,-39.46069 24.44923,-85.12583 15.6596,-127.97013 C 673.81918,198.07273 650.70262,158.29642 617.8279,129.4495 584.95317,100.60259 542.50993,82.851478 498.88668,79.704515 455.26342,76.557551 410.7118,88.032887 374.03701,111.86253 c -36.67479,23.82964 -65.26117,59.87613 -80.10933,101.01521 -14.84815,41.13908 -15.87243,87.13345 -2.87038,128.89274 0.63975,26.61754 16.01425,52.33193 38.97932,65.80444 22.96507,13.47251 52.7155,14.40093 76.63679,2.71013 23.92129,-11.6908 41.40154,-35.54723 45.70055,-61.8231 4.299,-26.27588 -4.56031,-54.29963 -22.918,-73.58429 -18.35769,-19.28467 -45.72631,-29.49716 -72.26242,-27.32053 -26.53611,2.17663 -51.74759,16.58577 -67.39458,38.12817 -15.64698,21.54239 -21.56079,49.80116 -16.23204,75.88769 5.32876,26.08654 21.72548,49.65239 44.13118,64.03599 22.40567,14.38355 50.49792,19.48996 76.60916,14.28387 26.11125,-5.20609 49.98927,-20.58522 65.83802,-41.97956 15.84875,-21.39433 23.595,-48.56925 21.79271,-75.13336 -1.80228,-26.56412 -13.06569,-52.32826 -31.05758,-71.95457 -17.9919,-19.62632 -42.55265,-33.0416 -68.72021,-37.95681 -26.16756,-4.91522 -53.79948,-1.36692 -78.04084,9.64475 -24.24137,11.01166 -45.01671,29.39039 -59.2373,51.89984 -14.22059,22.50945 -21.88285,49.04858 -22.24411,75.67131 -0.39157,26.67458 6.48734,53.37093 19.3733,76.72983 12.88596,23.35891 31.71706,43.35257 54.04653,57.94987 44.65894,29.19459 102.74538,35.61502 153.66749,19.68759 50.92212,-15.92743 94.22622,-53.19729 120.26754,-99.76546 26.04132,-46.56817 35.17854,-101.83125 28.60451,-154.77959 C 592.02329,196.95835 570.16833,146.39486 538.62336,103.36395 507.07839,60.333033 466.05344,24.679891 420.66545,-3.367838 329.88947,-59.463295 223.60301,-84.814562 118.20894,-101.51994 231.09877,-68.065097 346.81339,-42.820148 455.74978,1.8587307 564.68617,46.537609 668.57407,113.23202 733.39897,211.52277 c 32.41245,49.14538 54.3397,105.65228 60.05488,164.24555 5.71518,58.59328 -5.21602,119.21239 -34.10625,170.50752 -28.89022,51.29512 -76.12571,92.67046 -131.9463,111.37597 -55.8206,18.70551 -119.82262,13.69612 -170.45155,-16.34629 -25.37487,-15.08971 -47.22934,-36.15499 -62.86702,-61.19588 -15.63768,-25.04089 -24.99316,-54.03404 -26.50009,-83.51815 -1.50693,-29.48411 4.88677,-59.39153 18.70757,-85.47925 13.8208,-26.08771 35.075,-48.25169 60.77898,-62.7737 25.70397,-14.52202 55.79062,-21.29494 85.20368,-18.7542 29.41306,2.54074 58.01028,14.44966 80.25045,33.86506 22.24018,19.41541 37.94937,46.2825 43.53934,75.27104 5.58997,28.98855 0.94408,59.91565 -13.29277,85.77866 -14.23682,25.86306 -38.02446,46.40879 -65.82935,56.33216 -27.80488,9.92338 -59.38913,9.03947 -86.42859,-2.81178 -27.03947,-11.85126 -49.18465,-34.6277 -59.88112,-62.14444 -10.69647,-27.51673 -9.69945,-59.44597 3.07029,-86.06399 12.76973,-26.61801 37.21976,-47.46099 65.63837,-55.45899 28.4186,-7.99801 60.33011,-2.88691 84.59744,13.92624 24.26732,16.81315 40.31416,45.0917 41.89496,74.57196 1.5808,29.48027 -11.4836,59.475 -34.40332,78.08337 19.70358,-38.02641 50.4659,-70.23995 87.54433,-91.67425 37.07843,-21.4343 80.34577,-32.01584 123.13151,-30.11326"
       id="path4136"
       inkscape:path-effect="#path-effect4138"
       inkscape:original-d="m 449.7753,481.04237 c 0,0 -285.89313,-144.32578 -158.718,-139.27189 104.95177,7.07419 345.00083,229.6079 300.37127,199.16315 -82.98318,-56.60827 210.67584,-121.78751 210.67584,-121.78751"
       inkscape:connector-curvature="0"
       sodipodi:nodetypes="ccsc" />
  </g>
</svg>
