<?xml version="1.0" encoding="UTF-8" standalone="no"?>
<!-- Created with Inkscape (http://www.inkscape.org/) -->

<svg
   xmlns:dc="http://purl.org/dc/elements/1.1/"
   xmlns:cc="http://creativecommons.org/ns#"
   xmlns:rdf="http://www.w3.org/1999/02/22-rdf-syntax-ns#"
   xmlns:svg="http://www.w3.org/2000/svg"
   xmlns="http://www.w3.org/2000/svg"
   xmlns:sodipodi="http://sodipodi.sourceforge.net/DTD/sodipodi-0.dtd"
   xmlns:inkscape="http://www.inkscape.org/namespaces/inkscape"
   sodipodi:docname="sphere_fitting.svg"
   inkscape:version="0.48.4 r9939"
   version="1.1"
   id="svg3957"
   height="35.726849"
   width="91.678596">
  <sodipodi:namedview
     id="base"
     pagecolor="#ffffff"
     bordercolor="#666666"
     borderopacity="1.0"
     inkscape:pageopacity="0.0"
     inkscape:pageshadow="2"
     inkscape:zoom="5.6"
     inkscape:cx="-26.23814"
     inkscape:cy="-7.849417"
     inkscape:document-units="px"
     inkscape:current-layer="g3976"
     showgrid="false"
     inkscape:window-width="1920"
     inkscape:window-height="1020"
     inkscape:window-x="0"
     inkscape:window-y="0"
     inkscape:window-maximized="1"
     fit-margin-top="0"
     fit-margin-left="0"
     fit-margin-right="0"
     fit-margin-bottom="0" />
  <defs
     id="defs3959">
    <clipPath
       clipPathUnits="userSpaceOnUse"
       id="clipPath3779">
      <rect
         style="fill:#f2a200;fill-opacity:0.6745098;stroke:#000000;stroke-width:0.57140613;stroke-miterlimit:4;stroke-opacity:1;stroke-dasharray:none;stroke-dashoffset:0"
         id="rect3781"
         width="91.678596"
         height="39.535736"
         x="332.14798"
         y="-102.71407" />
    </clipPath>
  </defs>
  <metadata
     id="metadata3962">
    <rdf:RDF>
      <cc:Work
         rdf:about="">
        <dc:format>image/svg+xml</dc:format>
        <dc:type
           rdf:resource="http://purl.org/dc/dcmitype/StillImage" />
        <dc:title />
      </cc:Work>
    </rdf:RDF>
  </metadata>
  <g
     inkscape:label="Calque 1"
     inkscape:groupmode="layer"
     id="layer1"
     transform="translate(-311.43369,-21.809102)">
    <g
       id="g3976"
       transform="translate(-20.714286,120.71429)">
      <g
         id="g3774"
         clip-path="url(#clipPath3779)"
         style="stroke-width:0.5;stroke-miterlimit:4;stroke-dasharray:none">
        <path
           inkscape:connector-curvature="0"
           style="fill:none;stroke:#000000;stroke-width:0.5;stroke-miterlimit:4;stroke-opacity:1;stroke-dasharray:none;stroke-dashoffset:0"
           transform="translate(20.714286,-120.71429)"
           d="m 100.0051,22.309632 c 0.17257,7.3e-5 0.34514,0.07355 0.51772,0.218188 0.17257,0.144639 0.34514,0.360698 0.51771,0.641175 0.17257,0.280478 0.34515,0.625721 0.51772,1.024844 0.17257,0.399123 0.34514,0.852395 0.51771,1.345731 0.17258,0.493336 0.34515,1.026911 0.51772,1.584326 0.17257,0.557415 0.34514,1.138741 0.51772,1.726294 0.17257,0.587553 0.34514,1.181296 0.51771,1.763374 0.17257,0.582077 0.34514,1.152347 0.51772,1.693903 0.17257,0.541556 0.34514,1.05416 0.51771,1.52292 0.17257,0.46876 0.34515,0.893358 0.51772,1.261847 0.17257,0.36849 0.34514,0.680496 0.51771,0.927771 0.17258,0.247275 0.34515,0.429407 0.51772,0.542368 0.17257,0.11296 0.34514,0.156329 0.51772,0.130544 0.17257,-0.02578 0.34514,-0.121122 0.51771,-0.281134 0.17257,-0.160012 0.34515,-0.385053 0.51772,-0.666113 0.17257,-0.28106 0.34514,-0.618425 0.51771,-0.999519 0.17258,-0.381094 0.34515,-0.806118 0.51772,-1.259722 0.17257,-0.453604 0.34514,-0.93589 0.51772,-1.4297 0.17257,-0.49381 0.34514,-0.999139 0.51771,-1.498104 0.17257,-0.498965 0.34514,-0.991454 0.51772,-1.459981 0.17257,-0.468527 0.34514,-0.912879 0.51771,-1.317073 0.17257,-0.404194 0.34515,-0.767927 0.51772,-1.077721 0.17257,-0.309795 0.34514,-0.565279 0.51771,-0.75633 0.17258,-0.191052 0.34515,-0.317252 0.51772,-0.372469 0.17257,-0.05522 0.34514,-0.03901 0.51772,0.05036 0.17257,0.08938 0.34514,0.252361 0.51771,0.486213 0.17257,0.233851 0.34515,0.538972 0.51772,0.908304 0.17257,0.369332 0.34514,0.803219 0.51771,1.290727 0.17258,0.487508 0.34515,1.028903 0.51772,1.61006 0.17257,0.581158 0.34514,1.20225 0.51772,1.84685 0.17257,0.644601 0.34514,1.312777 0.51771,1.986831 0.17257,0.674054 0.34514,1.353946 0.51772,2.02182 0.17257,0.667875 0.34514,1.323586 0.51771,1.950242 0.17257,0.626655 0.34515,1.224015 0.51772,1.777212 0.17257,0.553196 0.34514,1.061909 0.51771,1.514229 0.17258,0.45232 0.34515,0.84787 0.51772,1.178445 0.17257,0.330575 0.34514,0.595765 0.51772,0.791585 0.17257,0.195821 0.34514,0.321853 0.51771,0.378585 0.17257,0.05673 0.34515,0.04376 0.51772,-0.03398 0.17257,-0.07774 0.34514,-0.220615 0.51771,-0.419564 0.17258,-0.198948 0.34515,-0.45426 0.51772,-0.753324 0.17257,-0.299065 0.34514,-0.642083 0.51772,-1.013683 0.17257,-0.371599 0.34514,-0.77188 0.51771,-1.183676 0.17257,-0.411797 0.34514,-0.835102 0.51772,-1.252037 0.17257,-0.416935 0.34514,-0.827387 0.51771,-1.213888 0.17257,-0.386501 0.34515,-0.748838 0.51772,-1.071057 0.17257,-0.322219 0.34514,-0.604019 0.51771,-0.831962 0.17258,-0.227944 0.34515,-0.401661 0.51772,-0.51108 0.17257,-0.109418 0.34514,-0.15412 0.51772,-0.128032 0.17257,0.02609 0.34514,0.123403 0.51771,0.293639 0.17257,0.170235 0.34515,0.413821 0.51772,0.72796 0.17257,0.31414 0.34514,0.699231 0.51771,1.14816 0.17258,0.44893 0.34515,0.962039 0.51772,1.528346 0.17257,0.566306 0.34514,1.186073 0.51772,1.845138 0.17257,0.659064 0.34514,1.357595 0.51771,2.07914 0.17257,0.721545 0.34514,1.466167 0.51772,2.216158 0.17257,0.74999 0.34514,1.505304 0.51771,2.248088 0.17257,0.742784 0.34515,1.472889 0.51772,2.173436 0.17257,0.700548 0.34514,1.371296 0.51771,1.997403 0.17258,0.626107 0.34515,1.207251 0.51772,1.73156 0.17257,0.524309 0.34514,0.991403 0.51772,1.393123 0.17257,0.401721 0.34514,0.737654 0.51771,1.003867 0.17257,0.266214 0.34515,0.462286 0.51772,0.588757 0.17257,0.126472 0.34514,0.18294 0.51771,0.174381 0.17258,-0.0086 0.34515,-0.0825 0.51772,-0.212731 0.17257,-0.130228 0.34514,-0.317031 0.51772,-0.547761 0.17257,-0.230731 0.34514,-0.505591 0.51771,-0.809183 0.17257,-0.303592 0.34514,-0.636018 0.51772,-0.980099 0.17257,-0.34408 0.34514,-0.69981 0.51771,-1.049311 0.17257,-0.349502 0.34515,-0.692662 0.51772,-1.01203 0.17257,-0.319367 0.34514,-0.61473 0.51771,-0.870161 0.17258,-0.255432 0.34515,-0.470632 0.51772,-0.632204 0.17257,-0.161573 0.34514,-0.269148 0.51772,-0.312703 0.17257,-0.04355 0.34514,-0.02267 0.51771,0.06866 0.17257,0.09134 0.34515,0.253563 0.51772,0.488314 0.17257,0.23475 0.34514,0.542455 0.51771,0.920256 0.17258,0.377802 0.34515,0.826098 0.51772,1.33772 0.17257,0.511622 0.34514,1.086909 0.51772,1.714832 0.17257,0.627922 0.34514,1.308741 0.51771,2.028256 0.17257,0.719515 0.34514,1.477892 0.51772,2.258654 0.17257,0.780761 0.34514,1.583968 0.51771,2.391899 0.17257,0.807931 0.34515,1.620539 0.51772,2.419972 0.17257,0.799433 0.34514,1.585539 0.51771,2.341457 0.17258,0.755918 0.34515,1.481402 0.51772,2.16164 0.17257,0.680237 0.34514,1.314903 0.51772,1.892166 0.17257,0.577262 0.34514,1.096738 0.51771,1.550316 0.17257,0.453578 0.34515,0.840842 0.51772,1.157912 0.17257,0.317071 0.34514,0.563523 0.51771,0.739952 0.17258,0.176429 0.34515,0.28243 0.51772,0.323031 0.17257,0.0406 0.34514,0.01544 0.51772,-0.06633 0.17257,-0.08177 0.34514,-0.220448 0.51771,-0.403345 0.17257,-0.182897 0.34514,-0.410217 0.51772,-0.666535 0.17257,-0.256319 0.34514,-0.541739 0.51771,-0.839068 0.17257,-0.297329 0.34515,-0.606562 0.51772,-0.909821 0.17257,-0.303259 0.34514,-0.600433 0.51771,-0.874084 0.17258,-0.273651 0.34515,-0.523567 0.51772,-0.733848 0.17257,-0.210282 0.34514,-0.380631 0.51772,-0.497688 0.17257,-0.117058 0.34514,-0.180456 0.51771,-0.180219 0.17257,2.38e-4 0.34515,0.06453 0.51772,0.198826 0.17257,0.134302 0.34514,0.339051 0.51771,0.615826 0.17258,0.276775 0.34515,0.626002 0.51772,1.04477 0.17257,0.418768 0.34514,0.907469 0.51772,1.458886 0.17257,0.551418 0.34514,1.165885 0.51771,1.832329 0.17257,0.666445 0.34514,1.385122 0.51772,2.1418 0.17257,0.756677 0.34514,1.551516 0.51771,2.368016 0.17257,0.816501 0.34515,1.65472 0.51772,2.496928 0.17257,0.842209 0.34514,1.688355 0.51771,2.520592 0.17258,0.832237 0.34515,1.65041 0.51772,2.437677 0.17257,0.787267 0.34514,1.543377 0.51772,2.25355 0.17257,0.710173 0.34514,1.37408 0.51771,1.979932 0.17257,0.605852 0.34515,1.153261 0.51772,1.634168 0.17257,0.480907 0.34514,0.89489 0.51771,1.238128 0.17258,0.343237 0.34515,0.6153 0.51772,0.816839 0.17257,0.201539 0.34514,0.332147 0.51772,0.396907 0.17257,0.06476 0.34514,0.06331 0.51771,0.0048 0.17257,-0.05847 0.34515,-0.17424 0.51772,-0.334598 0.17257,-0.160359 0.34514,-0.365506 0.51771,-0.599988 0.17257,-0.234483 0.34515,-0.498405 0.51772,-0.774558 0.17257,-0.276152 0.34514,-0.564533 0.51771,-0.84726 0.17258,-0.282728 0.34515,-0.559692 0.51772,-0.813466 0.17257,-0.253775 0.34514,-0.48415 0.51772,-0.67525 0.17257,-0.191099 0.34514,-0.342628 0.51771,-0.441261 0.17257,-0.09863 0.34515,-0.144006 0.51772,-0.126187 0.17257,0.01782 0.34514,0.09924 0.51771,0.250184 0.17258,0.150941 0.34515,0.37183 0.51772,0.664193 0.17257,0.292362 0.34514,0.656621 0.51772,1.089811 0.17257,0.43319 0.34514,0.935702 0.51771,1.500267 0.17257,0.564566 0.34515,1.191516 0.51772,1.869737 0.17257,0.678221 0.34514,1.407964 0.51771,2.174965 0.17257,0.767001 0.34515,1.571417 0.51772,2.396728 0.17257,0.825312 0.34514,1.671576 0.51771,2.521046 0.17258,0.84947 0.34515,1.7021 0.51772,2.54005 0.17257,0.83795 0.34514,1.66106 0.51772,2.4525 0.17257,0.79145 0.34514,1.55098 0.51771,2.26385 0.17257,0.71287 0.34515,1.37874 0.51772,1.98588 0.17257,0.60713 0.34514,1.15514 0.51771,1.63601 0.17258,0.48086 0.34515,0.89417 0.51772,1.23615 0.17257,0.34198 0.34514,0.6122 0.51772,0.81137 0.17257,0.19917 0.34514,0.32688 0.51771,0.38827 0.17257,0.0614 0.34515,0.0561 0.51772,-0.007 0.17257,-0.0627 0.34514,-0.18319 0.51771,-0.34863 0.17257,-0.16543 0.34515,-0.37603 0.51772,-0.61633 0.17257,-0.24029 0.34514,-0.51038 0.51771,-0.79304 0.17258,-0.28266 0.34515,-0.57788 0.51772,-0.86779 0.17257,-0.2899 0.34514,-0.57438 0.51772,-0.83601 0.17257,-0.26163 0.34514,-0.50021 0.51771,-0.69988 0.17257,-0.19967 0.34515,-0.36014 0.51772,-0.46812 0.17257,-0.10797 0.34514,-0.1631 0.51771,-0.15548 0.17258,0.008 0.34515,0.0784 0.51772,0.21819 0.17257,0.13979 0.34514,0.34903 0.51772,0.62919 0.17257,0.28016 0.34514,0.63165 0.51771,1.05148 0.17257,0.41982 0.34515,0.90835 0.51772,1.45828 0.17257,0.54993 0.34514,1.16158 0.51771,1.8238 0.17257,0.66223 0.34515,1.37527 0.51772,2.12483 0.17257,0.74956 0.34514,1.53581 0.51771,2.34219 0.17258,0.80638 0.34515,1.63295 0.51772,2.46197 0.17257,0.82902 0.34514,1.66043 0.51772,2.4764 0.17257,0.81598 0.34514,1.61635 0.51771,2.38432 0.17257,0.76797 0.34515,1.50329 0.51772,2.19123 0.17257,0.68795 0.34514,1.3282 0.51771,1.90905 0.17258,0.58084 0.34515,1.10189 0.51772,1.55519 0.17257,0.45331 0.34514,0.83844 0.51772,1.15168 0.17257,0.31325 0.34514,0.55418 0.51771,0.72357 0.17257,0.16938 0.34515,0.26681 0.51772,0.29748 0.17257,0.0307 0.34514,-0.006 0.51771,-0.10008 0.17257,-0.0943 0.34515,-0.2467 0.51772,-0.44443 0.17257,-0.19773 0.34514,-0.44098 0.51771,-0.71424 0.17258,-0.27326 0.34515,-0.57663 0.51772,-0.89286 0.17257,-0.31624 0.34514,-0.64534 0.51772,-0.96941 0.17257,-0.32407 0.34514,-0.64301 0.51771,-0.93941 0.17257,-0.29639 0.34515,-0.57004 0.51772,-0.8051 0.17257,-0.23506 0.34514,-0.43124 0.51771,-0.57529 0.17258,-0.14405 0.34515,-0.2356 0.51772,-0.26481 0.17257,-0.0292 0.34514,0.004 0.51772,0.10645 0.17257,0.10212 0.34514,0.27323 0.51771,0.51476 0.17257,0.24153 0.34515,0.5539 0.51772,0.93404 0.17257,0.38013 0.34514,0.82843 0.51771,1.33752 0.17257,0.50909 0.34515,1.0793 0.51772,1.69944 0.17257,0.62014 0.34514,1.29046 0.51771,1.99662 0.17258,0.70617 0.34515,1.44834 0.51772,2.20995 0.17257,0.76162 0.34514,1.54273 0.51772,2.32559 0.17257,0.78287 0.34514,1.56742 0.51771,2.33585 0.17257,0.76842 0.34515,1.52056 0.51772,2.23962 0.17257,0.71907 0.34514,1.40481 0.51771,2.04256 0.17258,0.63774 0.34515,1.22714 0.51772,1.75656 0.17257,0.52942 0.34514,0.99845 0.51772,1.39921 0.17257,0.40075 0.34514,0.73279 0.51771,0.99247 0.17257,0.25969 0.34515,0.44658 0.51772,0.56151 0.17257,0.11493 0.34514,0.15749 0.51771,0.13293 0.17257,-0.0246 0.34515,-0.11661 0.51772,-0.26679 0.17257,-0.15019 0.34514,-0.3588 0.51771,-0.61299 0.17258,-0.25419 0.34515,-0.55417 0.51772,-0.88438 0.17257,-0.3302 0.34514,-0.69076 0.51772,-1.06438 0.17257,-0.37362 0.34514,-0.76032 0.51771,-1.14219 0.17257,-0.38187 0.34515,-0.75882 0.51772,-1.11342 0.17257,-0.3546 0.34514,-0.68666 0.51771,-0.98037 0.17258,-0.29371 0.34515,-0.54876 0.51772,-0.75195 0.17257,-0.20318 0.34514,-0.35413 0.51772,-0.44303 0.17257,-0.0889 0.34514,-0.11536 0.51771,-0.0736 0.17257,0.0418 0.34515,0.15218 0.51772,0.33262 0.17257,0.18043 0.34514,0.43131 0.51771,0.7495 0.17257,0.3182 0.34515,0.7041 0.51772,1.1503 0.17257,0.4462 0.34514,0.95303 0.51771,1.50925 0.17258,0.55622 0.34515,1.16208 0.51772,1.80323 0.17257,0.64114 0.34514,1.31773 0.51772,2.01318 0.17257,0.69545 0.34514,1.40981 0.51771,2.12534 0.17257,0.71554 0.34515,1.43217 0.51772,2.1321 0.17257,0.69994 0.34514,1.383 0.51771,2.03245 0.17258,0.64945 0.34515,1.26502 0.51772,1.83208 0.17257,0.56705 0.34514,1.08526 0.51772,1.54301 0.17257,0.45775 0.34514,0.85464 0.51771,1.18285 0.17257,0.3282 0.34515,0.58728 0.51772,0.77365 0.17257,0.18637 0.34514,0.29959 0.51771,0.34057 0.17257,0.041 0.34515,0.009 0.51772,-0.0898 0.17257,-0.099 0.34514,-0.2658 0.51771,-0.49088 0.17258,-0.22507 0.34515,-0.50875 0.51772,-0.83815 0.17257,-0.32939 0.34514,-0.7047 0.51772,-1.11034 0.17257,-0.40564 0.34514,-0.84173 0.51771,-1.29096 0.17257,-0.44923 0.34515,-0.91161 0.51772,-1.36923 0.17257,-0.45762 0.34514,-0.91038 0.51771,-1.34088 0.17258,-0.43049 0.34515,-0.83852 0.51772,-1.20829 0.17257,-0.36976 0.34514,-0.70097 0.51772,-0.98043 0.17257,-0.27946 0.34514,-0.50681 0.51771,-0.67227 0.17257,-0.16547 0.34515,-0.26865 0.51772,-0.30381 0.17257,-0.0352 0.34514,-0.002 0.51771,0.10114 0.17258,0.10303 0.34515,0.27624 0.51772,0.51647 0.17257,0.24023 0.34514,0.54785 0.51771,0.91542 0.17258,0.36758 0.34515,0.79542 0.51772,1.27227 0.17257,0.47685 0.34514,1.00295 0.51772,1.56392 0.17257,0.56097 0.34514,1.15695 0.51771,1.77137 0.17257,0.61442 0.34515,1.24731 0.51772,1.88094 0.17257,0.63363 0.34514,1.26793 0.51771,1.8851 0.17258,0.61717 0.34515,1.21704 0.51772,1.7829 0.17257,0.56586 0.34514,1.09743 0.51772,1.58014 0.17257,0.48271 0.34514,0.91619 0.51771,1.28892 0.17257,0.37272 0.34515,0.68427 0.51772,0.92687 0.17257,0.24261 0.34514,0.41583 0.51771,0.51614 0.17258,0.10032 0.34515,0.12729 0.51772,0.0819 0.17257,-0.0454 0.34514,-0.16363 0.51771,-0.34927 0.17258,-0.18564 0.34515,-0.43907 0.51772,-0.75083 0.17257,-0.31176 0.34514,-0.68215 0.51772,-1.09823 0.17257,-0.41607 0.34514,-0.87803 0.51771,-1.37027 0.17257,-0.49223 0.34515,-1.01484 0.51772,-1.55051 0.17257,-0.53568 0.34514,-1.08442 0.51771,-1.6283 0.17258,-0.54389 0.34515,-1.08282 0.51772,-1.5994 0.17257,-0.51658 0.34514,-1.0106 0.51772,-1.46629 0.17257,-0.45569 0.34514,-0.87276 0.51771,-1.23803 0.17257,-0.36527 0.34515,-0.67839 0.51772,-0.92963 0.17257,-0.25124 0.34514,-0.44019 0.51771,-0.56117 0.17258,-0.12098 0.34515,-0.17358 0.51772,-0.1565 0.17257,0.0171 0.34514,0.10425 0.51771,0.25829 0.17258,0.15404 0.34515,0.37533 0.51772,0.65639 0.17257,0.28106 0.34514,0.6222 0.51772,1.01213 0.17257,0.38993 0.34514,0.82888 0.51771,1.30245 0.17257,0.47358 0.34515,0.98191 0.51772,1.50842 0.17257,0.52651 0.34514,1.07123 0.51771,1.61642 0.17258,0.54519 0.34515,1.09077 0.51772,1.61898 0.17257,0.5282 0.34514,1.03886 0.51772,1.51527 0.17257,0.47641 0.34514,0.91831 0.51771,1.31115 0.17257,0.39284 0.34515,0.73627 0.51772,1.01879 0.17257,0.28252 0.34514,0.50373 0.51771,0.65591 0.17258,0.15217 0.34515,0.23488 0.51772,0.24466 0.17257,0.01 0.34514,-0.0538 0.51771,-0.18974 0.17258,-0.13593 0.34515,-0.34463 0.51772,-0.62064 0.17257,-0.27602 0.34514,-0.61974 0.51772,-1.02162 0.17257,-0.40189 0.34514,-0.86226 0.51771,-1.3681 0.17257,-0.50584 0.34515,-1.05738 0.51772,-1.63894 0.17257,-0.58157 0.34514,-1.19328 0.51771,-1.81779 0.17258,-0.62451 0.34515,-1.26183 0.51772,-1.89403 0.17257,-0.6322 0.34514,-1.25917 0.51772,-1.86353 0.17257,-0.60436 0.34514,-1.1859 0.51771,-1.72886 0.17257,-0.54297 0.34515,-1.04706 0.51772,-1.49915 0.17257,-0.45209 0.34514,-0.85181 0.51771,-1.18948 0.17258,-0.33766 0.34515,-0.61286 0.51772,-0.81997 0.17257,-0.2071 0.34514,-0.34568 0.51771,-0.41451 0.17258,-0.0688 0.34515,-0.0675 0.51772,7.4e-4 0.17257,0.0682 0.34514,0.20377 0.51772,0.39906 0.17257,0.19528 0.34514,0.45064 0.51771,0.75473 0.17257,0.30409 0.34515,0.65716 0.51772,1.04477 0.17257,0.38762 0.34514,0.80992 0.51771,1.2503 0.17258,0.44038 0.34515,0.89889 0.51772,1.35776 0.17257,0.45888 0.34514,0.91806 0.51772,1.35978 0.17257,0.44172 0.34514,0.86581 0.51771,1.2556 0.17257,0.3898 0.34515,0.74502 0.51772,1.05117 0.17257,0.30615 0.34514,0.56287 0.51771,0.75872 0.17258,0.19585 0.34515,0.33041 0.51772,0.39604 0.17257,0.0656 0.34514,0.0619 0.51771,-0.0147 0.17258,-0.0765 0.34515,-0.22629 0.51772,-0.44818 0.17257,-0.22189 0.34514,-0.51633 0.51772,-0.87782 0.17257,-0.36149 0.34514,-0.7904 0.51771,-1.27716 0.17257,-0.48676 0.34515,-1.03166 0.51772,-1.62168 0.17257,-0.59001 0.34514,-1.22535 0.51771,-1.8903 0.17258,-0.66496 0.34515,-1.35965 0.51772,-2.06672 0.17257,-0.70707 0.34514,-1.42651 0.51772,-2.1404 0.17257,-0.71388 0.34514,-1.42211 0.51771,-2.10728 0.17257,-0.68518 0.34515,-1.34711 0.51772,-1.97005 0.17257,-0.62294 0.34514,-1.2066 0.51771,-1.73787 0.17258,-0.53127 0.34515,-1.00979 0.51772,-1.42591 0.17257,-0.41612 0.34514,-0.76944 0.51771,-1.05436 0.17258,-0.28492 0.34515,-0.50103 0.51772,-0.64714 0.17257,-0.14611 0.34514,-0.22181 0.51772,-0.2304 0.17257,-0.009 0.34514,0.0503 0.51771,0.1691 0.17257,0.1188 0.34515,0.29783 0.51772,0.5257 0.17257,0.22788 0.34514,0.50484 0.51771,0.81644 0.17258,0.3116 0.34515,0.65797 0.51772,1.0225 0.17257,0.36453 0.34514,0.74725 0.51772,1.13041 0.17257,0.38316 0.34514,0.76669 0.51771,1.13284 0.17257,0.36616 0.34515,0.71476 0.51772,1.02917 0.17257,0.31441 0.34514,0.59436 0.51771,0.82537 0.17258,0.23102 0.34515,0.41275 0.51772,0.5338 0.17257,0.12104 0.34514,0.181 0.51771,0.17226 0.17258,-0.009 0.34515,-0.0866 0.51772,-0.23696 0.17257,-0.15035 0.34514,-0.37361 0.51772,-0.66863 0.17257,-0.29503 0.34514,-0.66223 0.51771,-1.09607 0.17257,-0.43383 0.34515,-0.93465 0.51772,-1.49285 0.17257,-0.55819 0.34514,-1.17405 0.51771,-1.8345 0.17258,-0.66045 0.34515,-1.36568 0.51772,-2.09999 0.17257,-0.7343 0.34514,-1.49778 0.51772,-2.27306 0.17257,-0.77527 0.34514,-1.56234 0.51771,-2.34328 0.17257,-0.78093 0.34515,-1.55561 0.51772,-2.30667 0.17257,-0.75105 0.34514,-1.47828 0.51771,-2.16596 0.17258,-0.68769 0.34515,-1.33553 0.51772,-1.93046 0.17257,-0.59492 0.34514,-1.13658 0.51771,-1.61535 0.17258,-0.47877 0.34515,-0.89425 0.51772,-1.24089 0.17257,-0.34665 0.34514,-0.62405 0.51772,-0.83106 0.17257,-0.20701 0.34514,-0.34322 0.51771,-0.41199 0.17257,-0.0688 0.34515,-0.0697 0.51772,-0.0105 0.17257,0.0593 0.34514,0.17901 0.51771,0.34788 0.17258,0.16887 0.34515,0.38708 0.51772,0.64014 0.17257,0.25307 0.34514,0.54113 0.51772,0.84755 0.17257,0.30642 0.34514,0.63124 0.51771,0.9567 0.17257,0.32546 0.34515,0.6515 0.51772,0.96036 0.17257,0.30887 0.34514,0.6004 0.51771,0.85797 0.17258,0.25758 0.34515,0.48093 0.51772,0.65561 0.17257,0.17468 0.34514,0.30036 0.51772,0.36566 0.17257,0.0653 0.34514,0.0699 0.51771,0.006 0.17257,-0.0638 0.34514,-0.19634 0.51772,-0.40093 0.17257,-0.20459 0.34514,-0.48166 0.51771,-0.83001 0.17257,-0.34835 0.34515,-0.76839 0.51772,-1.25451 0.17257,-0.48611 0.34514,-1.03867 0.51771,-1.648 0.17258,-0.60933 0.34515,-1.27573 0.51772,-1.98607 0.17257,-0.71034 0.34514,-1.46482 0.51772,-2.2477 0.17257,-0.78288 0.34514,-1.59425 0.51771,-2.41674 0.17257,-0.82248 0.34515,-1.65606 0.51772,-2.48281 0.17257,-0.82674 0.34514,-1.64654 0.51771,-2.44202 0.17258,-0.79549 0.34515,-1.56645 0.51772,-2.2972 0.17257,-0.73075 0.34514,-1.42099 0.51772,-2.05769 0.17257,-0.6367 0.34514,-1.21948 0.51771,-1.7388 0.17257,-0.51931 0.34514,-0.97475 0.51772,-1.36081 0.17257,-0.38606 0.34514,-0.70233 0.51771,-0.94772 0.17257,-0.2454 0.34515,-0.4195 0.51772,-0.52573 0.17257,-0.10623 0.34514,-0.1442 0.51771,-0.12158 0.17258,0.0226 0.34515,0.10613 0.51772,0.23911 0.17257,0.13297 0.34514,0.31563 0.51772,0.53346 0.17257,0.21783 0.34514,0.47098 0.51771,0.74279 0.17257,0.2718 0.34515,0.5623 0.51772,0.85374 0.17257,0.29144 0.34514,0.58374 0.51771,0.85918 0.17258,0.27544 0.34515,0.53384 0.51772,0.75861 0.17257,0.22477 0.34514,0.41564 0.51772,0.5582 0.17257,0.14256 0.34514,0.23647 0.51771,0.27042 0.17257,0.0339 0.34514,0.008 0.51772,-0.0868 0.17257,-0.0943 0.34514,-0.2569 0.51771,-0.49103 0.17257,-0.23413 0.34515,-0.54022 0.51772,-0.91703 0.17257,-0.3768 0.34514,-0.82472 0.51771,-1.3381 0.17258,-0.51338 0.34515,-1.09257 0.51772,-1.72786 0.17257,-0.6353 0.34514,-1.32697 0.51772,-2.06188 0.17257,-0.73491 0.34514,-1.51325 0.51771,-2.31924 0.17257,-0.80599 0.34515,-1.63973 0.51772,-2.48381 0.17257,-0.84409 0.34514,-1.69851 0.51771,-2.54533 0.17258,-0.84682 0.34515,-1.68593 0.51772,-2.499974 0.17257,-0.814045 0.34514,-1.602811 0.51772,-2.35064 0.17257,-0.747829 0.34514,-1.454417 0.51771,-2.10677 0.17257,-0.652353 0.34514,-1.2501 0.51772,-1.783731 0.17257,-0.53363 0.34514,-1.00273 0.51771,-1.401865 0.17257,-0.399135 0.34515,-0.727876 0.51772,-0.985205 0.17257,-0.25733 0.34514,-0.44283 0.51771,-0.559964 0.17258,-0.117134 0.34515,-0.16552 0.51772,-0.152884 0.17257,0.01264 0.34514,0.08662 0.51772,0.210439 0.17257,0.123823 0.34514,0.297731 0.51771,0.507173 0.17257,0.209442 0.34515,0.454564 0.51772,0.718682 0.17257,0.264118 0.34514,0.547272 0.51771,0.831697 0.17258,0.284426 0.34515,0.570054 0.51772,0.839157 0.17257,0.269102 0.34514,0.521508 0.51772,0.74064 0.17257,0.219132 0.34514,0.404727 0.51771,0.542407 0.17257,0.137679 0.34514,0.227102 0.51772,0.256992 0.17257,0.02989 0.34514,-1.46e-4 0.51771,-0.09757 0.17257,-0.09743 0.34515,-0.262669 0.51772,-0.498906 0.17257,-0.236236 0.34514,-0.543894 0.51771,-0.921668 0.17258,-0.377773 0.34515,-0.826066 0.51772,-1.339167 0.17257,-0.513102 0.34514,-1.091365 0.51772,-1.725035 0.17257,-0.63367 0.34514,-1.323028 0.51771,-2.054883 0.17257,-0.731855 0.34515,-1.506399 0.51772,-2.307836 0.17257,-0.801438 0.34514,-1.629858 0.51771,-2.467852 0.17258,-0.837994 0.34515,-1.685543 0.51772,-2.524719 0.17257,-0.839176 0.34514,-1.669855 0.51772,-2.474712 0.17257,-0.804858 0.34514,-1.583672 0.51771,-2.320814 0.17257,-0.737142 0.34514,-1.432304 0.51772,-2.072535 0.17257,-0.640231 0.34514,-1.225157 0.51771,-1.745316 0.17257,-0.520159 0.34515,-0.975136 0.51772,-1.359552 0.17257,-0.384416 0.34514,-0.697839 0.51771,-0.939312 0.17258,-0.241473 0.34515,-0.410574 0.51772,-0.510827 0.17257,-0.100254 0.34514,-0.131273 0.51772,-0.100839 0.17257,0.03043 0.34514,0.122644 0.51771,0.265085 0.17257,0.142441 0.34515,0.335354 0.51772,0.564154 0.17257,0.228799 0.34514,0.493632 0.51771,0.77779 0.17258,0.284158 0.34515,0.587683 0.51772,0.892799 0.17257,0.305115 0.34514,0.611755 0.51772,0.902194 0.17257,0.290438 0.34514,0.564505 0.51771,0.805641 0.17257,0.241136 0.34514,0.44908 0.51772,0.609479 0.17257,0.160399 0.34514,0.272917 0.51771,0.326315 0.17257,0.0534 0.34515,0.04728 0.51772,-0.02576 0.17257,-0.07304 0.34514,-0.213439 0.51771,-0.424316 0.17258,-0.210877 0.34515,-0.492658 0.51772,-0.843989 0.17257,-0.351331 0.34514,-0.772611 0.51772,-1.258083 0.17257,-0.485472 0.34514,-1.035485 0.51771,-1.640242 0.17257,-0.604758 0.34515,-1.264536 0.51772,-1.966114 0.17257,-0.701578 0.34514,-1.445142 0.51771,-2.214876 0.17258,-0.769734 0.34515,-1.565723 0.51772,-2.370551 0.17257,-0.804828 0.34514,-1.618472 0.51772,-2.42301 0.17257,-0.804538 0.34514,-1.59984 0.51771,-2.368604 0.17257,-0.768764 0.34514,-1.510763 0.51772,-2.210402 0.17257,-0.699639 0.34514,-1.356606 0.51771,-1.957994 0.17257,-0.601388 0.34515,-1.146819 0.51772,-1.626885 0.17257,-0.480067 0.34514,-0.894349 0.51771,-1.237528 0.17258,-0.343179 0.34515,-0.61482 0.51772,-0.814027 0.17257,-0.199207 0.34514,-0.325555 0.51772,-0.382629 0.17257,-0.05707 0.34514,-0.04449 0.51771,0.02993 0.17257,0.07441 0.34515,0.210976 0.51772,0.398095 0.17257,0.18712 0.34514,0.425039 0.51771,0.699133 0.17258,0.274094 0.34515,0.584512 0.51772,0.914519 0.17257,0.330007 0.34514,0.679647 0.51772,1.03113 0.17257,0.351483 0.34514,0.704745 0.51771,1.042061 0.17257,0.337316 0.34514,0.658519 0.51772,0.947061 0.17257,0.288543 0.34514,0.544167 0.51771,0.752546 0.17257,0.20838 0.34515,0.36918 0.51772,0.471199 0.17257,0.102019 0.34514,0.144867 0.51771,0.12117 0.17258,-0.0237 0.34515,-0.114359 0.51772,-0.275067 0.17257,-0.160707 0.34514,-0.391882 0.51772,-0.69212 0.17257,-0.300237 0.34514,-0.669934 0.51771,-1.103287 0.17257,-0.433354 0.34515,-0.930709 0.51772,-1.482231 0.17257,-0.551521 0.34514,-1.157482 0.51771,-1.804629 0.17258,-0.647148 0.34515,-1.335665 0.51772,-2.049718 0.17257,-0.714052 0.34514,-1.45372 0.51772,-2.201582 0.17257,-0.747862 0.34514,-1.50389 0.51771,-2.250171 0.17257,-0.746281 0.34515,-1.482681 0.51772,-2.191921 0.17257,-0.709239 0.34514,-1.391086 0.51771,-2.029981 0.17257,-0.638895 0.34515,-1.234522 0.51772,-1.77402 0.17257,-0.539498 0.34514,-1.022486 0.51771,-1.439611 0.17258,-0.417126 0.34515,-0.767965 0.51772,-1.047261 0.17257,-0.279296 0.34514,-0.48661 0.51772,-0.621111 0.17257,-0.1345 0.34514,-0.195759 0.51771,-0.187423 0.17257,0.0083 0.34515,0.08666 0.51772,0.227067 0.17257,0.14041 0.34514,0.343238 0.51771,0.596839 0.17258,0.2536 0.34515,0.558219 0.51772,0.899191 0.17257,0.340972 0.34514,0.718448 0.51772,1.115665 0.17257,0.397218 0.34514,0.814221 0.51771,1.233208 0.17257,0.418987 0.34515,0.839894 0.51772,1.244995 0.17257,0.405102 0.34514,0.794232 0.51771,1.150858 0.17257,0.356626 0.34515,0.680489 0.51772,0.957291 0.17257,0.276803 0.34514,0.506209 0.51771,0.677054 0.17258,0.170845 0.34515,0.28274 0.51772,0.328354 0.17257,0.04561 0.34514,0.02453 0.51772,-0.06629 0.17257,-0.09082 0.34514,-0.251786 0.51771,-0.481455 0.17257,-0.229669 0.34515,-0.528432 0.51772,-0.890441 0.17257,-0.362009 0.34514,-0.787607 0.51771,-1.26692 0.17258,-0.479313 0.34515,-1.01261 0.51772,-1.586611 0.17257,-0.574 0.34514,-1.188883 0.51772,-1.828796 0.17257,-0.639912 0.34514,-1.304932 0.51771,-1.977632 0.17257,-0.6727 0.34515,-1.35305 0.51772,-2.023144 0.17257,-0.670095 0.34514,-1.329797 0.51771,-1.961851 0.17257,-0.632053 0.34515,-1.236222 0.51772,-1.796984 0.17257,-0.560761 0.34514,-1.077796 0.51771,-1.53829 0.17258,-0.460494 0.34515,-0.864064 0.51772,-1.201412 0.17257,-0.337347 0.34514,-0.608048 0.51772,-0.806905 0.17257,-0.198857 0.34514,-0.32543 0.51771,-0.378951 0.17257,-0.05352 0.34515,-0.03356 0.51772,0.05617 0.17257,0.08973 0.34514,0.249628 0.51771,0.471735 0.17258,0.222107 0.34515,0.506753 0.51772,0.842242 0.17257,0.33549 0.34514,0.722069 0.51772,1.145034 0.17257,0.422966 0.34514,0.882467 0.51771,1.361714 0.17257,0.479248 0.34515,0.978288 0.51772,1.479301 0.17257,0.501014 0.34514,1.003939 0.51771,1.491051 0.17257,0.487111 0.34515,0.958242 0.51772,1.396875 0.17257,0.438633 0.34514,0.844509 0.51771,1.203355 0.17258,0.358845 0.34515,0.670327 0.51772,0.923315 0.17257,0.252987 0.34514,0.447092 0.51772,0.575028 0.17257,0.127935 0.34514,0.189284 0.51771,0.181059 0.17257,-0.0082 0.34515,-0.08644 0.51772,-0.233151 0.17257,-0.14671 0.34514,-0.362303 0.51771,-0.64089 0.17258,-0.278586 0.34515,-0.620506 0.51772,-1.015846 0.17257,-0.39534 0.34514,-0.844368 0.51772,-1.333774 0.17257,-0.489405 0.34514,-1.019365 0.51771,-1.574009 0.17257,-0.554644 0.34515,-1.134047 0.51772,-1.720777 0.17257,-0.58673 0.34514,-1.180755 0.51771,-1.764177 0.17257,-0.583422 0.34515,-1.156105 0.51772,-1.700811 0.17257,-0.544706 0.34514,-1.061201 0.51771,-1.533995 0.17258,-0.472794 0.34515,-0.901567 0.51772,-1.273552 0.17257,-0.371984 0.34514,-0.686795 0.51772,-0.93519 0.17257,-0.248395 0.34514,-0.429947 0.51771,-0.539522 0.17257,-0.109575 0.34515,-0.14673 0.51772,-0.110762 0.17257,0.03597 0.34514,0.145491 0.51771,0.324796 0.17258,0.179305 0.34515,0.428783 0.51772,0.740425 0.17257,0.311642 0.34514,0.685777 0.51772,1.110658 0.17257,0.424881 0.34514,0.900755 0.51771,1.412878 0.17257,0.512124 0.34515,1.060645 0.51772,1.62875 0.17257,0.568104 0.34514,1.155835 0.51771,1.745363 0.17257,0.589528 0.34515,1.180787 0.51772,1.756055 0.17257,0.575268 0.34514,1.134377 0.51771,1.660823 0.17258,0.526446 0.34515,1.019969 0.51772,1.466323 0.17257,0.446354 0.34514,0.845204 0.51772,1.185456 0.17257,0.340253 0.34514,0.62152 0.51771,0.836557 0.17257,0.215036 0.34515,0.363427 0.51772,0.442231 0.17257,0.0788 0.34514,0.0876 0.51771,0.02795 0.17258,-0.05966 0.34515,-0.188161 0.51772,-0.379576 0.17257,-0.191415 0.34514,-0.446081 0.51772,-0.754045 0.17257,-0.307965 0.34514,-0.669494 0.51771,-1.071248 0.17257,-0.401753 0.34515,-0.843908 0.51772,-1.310573 0.17257,-0.466665 0.34514,-0.957916 0.51771,-1.456313 0.17257,-0.498397 0.34515,-1.003909 0.51772,-1.498645 0.17257,-0.494736 0.34514,-0.978558 0.51771,-1.434253 0.17258,-0.455695 0.34515,-0.883025 0.51772,-1.266536 0.17257,-0.383511 0.34514,-0.722882 0.51772,-1.005391 0.17257,-0.28251 0.34514,-0.507772 0.51771,-0.666599 0.17257,-0.158827 0.34515,-0.250792 0.51772,-0.27082 0.17257,-0.02003 0.34514,0.03232 0.51771,0.157695 0.17258,0.125371 0.34515,0.324193 0.51772,0.592633 0.17257,0.268439 0.34514,0.606887 0.51772,1.007277 0.17257,0.400391 0.34514,0.86305 0.51771,1.376185 0.17257,0.513135 0.34515,1.07699 0.51772,1.676784 0.17257,0.599793 0.34514,1.235672 0.51771,1.890797 0.17257,0.655124 0.34515,1.329535 0.51772,2.00539 0.17257,0.675856 0.34514,1.35309 0.51771,2.013981 0.17258,0.660891 0.34515,1.305269 0.51772,1.916647 0.17257,0.611378 0.34514,1.189493 0.51772,1.720128 0.17257,0.530635 0.34514,1.013452 0.51771,1.437397 0.17257,0.423944 0.34515,0.788627 0.51772,1.086847 0.17257,0.298219 0.34514,0.529561 0.51771,0.691131 0.17258,0.16157 0.34515,0.252952 0.51772,0.275742 0.17257,0.02279 0.34514,-0.0234 0.51772,-0.132596 0.17257,-0.109193 0.34514,-0.281725 0.51771,-0.507605 0.17257,-0.225879 0.34515,-0.505373 0.51772,-0.825107 0.17257,-0.319735 0.34514,-0.679887 0.51771,-1.064548 0.17257,-0.38466 0.34515,-0.793902 0.51772,-1.210282 0.17257,-0.416379 0.34514,-0.839862 0.51771,-1.252566 0.17258,-0.412704 0.34515,-0.81449 0.51772,-1.188166 0.17257,-0.373676 0.34514,-0.719004 0.51772,-1.020563 0.17257,-0.30156 0.34514,-0.55903 0.51771,-0.759733 0.17257,-0.200703 0.34515,-0.344254 0.51772,-0.421518 0.17257,-0.07726 0.34514,-0.08782 0.51771,-0.02664 0.17258,0.06118 0.34515,0.194527 0.51772,0.400628 0.17257,0.2061 0.34514,0.485379 0.51772,0.833948 0.17257,0.348568 0.34514,0.766812 0.51771,1.246612 0.17257,0.4798 0.34515,1.021481 0.51772,1.613203 0.17257,0.591721 0.34514,1.233725 0.51771,1.911194 0.17257,0.677468 0.34515,1.390546 0.51772,2.122369 0.17257,0.731823 0.34514,1.48243 0.51771,2.233969 0.17258,0.751539 0.34515,1.503941 0.51772,2.239489 0.17257,0.735548 0.34514,1.454068 0.51772,2.139092 0.17257,0.685023 0.34514,1.336285 0.51771,1.939597 0.17257,0.603312 0.34515,1.158334 0.51772,1.654052 0.17257,0.495717 0.34514,0.931737 0.51771,1.300908 0.17258,0.36917 0.34515,0.671072 0.51772,0.902865 0.17257,0.231792 0.34514,0.393056 0.51772,0.485439 0.17257,0.09238 0.34514,0.115493 0.51771,0.07536 0.17257,-0.04013 0.34515,-0.143846 0.51772,-0.301107 0.17257,-0.157261 0.34514,-0.368338 0.51771,-0.619824 0.17258,-0.251486 0.34515,-0.543558 0.51772,-0.860286 0.17257,-0.316727 0.34514,-0.658184 0.51771,-1.006917 0.17258,-0.348732 0.34515,-0.704708 0.51772,-1.05005 0.17257,-0.345342 0.34514,-0.679911 0.51772,-0.986533 0.17257,-0.306623 0.34514,-0.585063 0.51771,-0.81993 0.17257,-0.234867 0.34515,-0.425842 0.51772,-0.56029 0.17257,-0.134447 0.34514,-0.211985 0.51771,-0.223526 0.17258,-0.01154 0.34515,0.04333 0.51772,0.169593 0.17257,0.126257 0.34514,0.324332 0.51772,0.594749 0.17257,0.270417 0.34514,0.6136 0.51771,1.025602 0.17257,0.412002 0.34515,0.893207 0.51772,1.435443 0.17257,0.542237 0.34514,1.145826 0.51771,1.798884 0.17258,0.653058 0.34515,1.355823 0.51772,2.093443 0.17257,0.73762 0.34514,1.510237 0.51771,2.300965 0.17258,0.790728 0.34515,1.599602 0.51772,2.408764 0.17257,0.809162 0.34514,1.618537 0.51772,2.410416 0.17257,0.791879 0.34514,1.566086 0.51771,2.306169 0.17257,0.740084 0.34515,1.445776 0.51772,2.102922 0.17257,0.657145 0.34514,1.265401 0.51771,1.813793 0.17258,0.548393 0.34515,1.036527 0.51772,1.457299 0.17257,0.420772 0.34514,0.773761 0.51772,1.056179 0.17257,0.282418 0.34514,0.493844 0.51771,0.635978 0.17257,0.142135 0.34515,0.214584 0.51772,0.223431 0.17257,0.0088 0.34514,-0.04625 0.51771,-0.155219 0.17258,-0.108965 0.34515,-0.272066 0.51772,-0.475861 0.17257,-0.203795 0.34514,-0.448463 0.51771,-0.718048 0.17258,-0.269585 0.34515,-0.564164 0.51772,-0.866271 0.17257,-0.302106 0.34514,-0.611711 0.51772,-0.910937 0.17257,-0.299227 0.34514,-0.587939 0.51771,-0.84898 0.17257,-0.26104 0.34515,-0.494174 0.51772,-0.684041 0.17257,-0.189866 0.34514,-0.336149 0.51771,-0.42625 0.17258,-0.0901 0.34515,-0.123643 0.51772,-0.09159 0.17257,0.03206 0.34514,0.130131 0.51772,0.299133 0.17257,0.169002 0.34514,0.409363 0.51771,0.721554 0.17257,0.312191 0.34515,0.696632 0.51772,1.149321 0.17257,0.45269 0.34514,0.974008 0.51771,1.555735 0.17258,0.581727 0.34515,1.224179 0.51772,1.91543 0.17257,0.691251 0.34514,1.431536 0.51771,2.205973 0.17258,0.774437 0.34515,1.583161 0.51772,2.40927 0.17257,0.82611 0.34514,1.669634 0.51772,2.512709 0.17257,0.843076 0.34514,1.685625 0.51771,2.509947 0.17257,0.824322 0.34515,1.630236 0.51772,2.401314 0.17257,0.771079 0.34514,1.50705 0.51771,2.193792 0.17258,0.686742 0.34515,1.323908 0.51772,1.90057 0.17257,0.576662 0.34514,1.092422 0.51772,1.540226 0.17257,0.447805 0.34514,0.82723 0.51771,1.135545 0.17257,0.308314 0.34515,0.545092 0.51772,0.712093 0.17257,0.167001 0.34514,0.263826 0.51771,0.296613 0.17258,0.03279 0.34515,0.0012 0.51772,-0.08467 0.17257,-0.08586 0.34514,-0.226241 0.51771,-0.407676 0.17258,-0.181435 0.34515,-0.404101 0.51772,-0.652016 0.17257,-0.247914 0.34514,-0.521156 0.51772,-0.802246 0.17257,-0.28109 0.34514,-0.569999 0.51771,-0.848853 0.17257,-0.278854 0.34515,-0.547519 0.51772,-0.78885 0.17257,-0.24133 0.34514,-0.455095 0.51771,-0.62596 0.17258,-0.170865 0.34515,-0.298515 0.51772,-0.370392 0.17257,-0.07188 0.34514,-0.0876 0.51772,-0.03819 0.17257,0.04942 0.34514,0.164392 0.51771,0.349784 0.17257,0.185392 0.34515,0.441631 0.51772,0.769132 0.17257,0.327502 0.34514,0.726683 0.51771,1.19349 0.17258,0.466808 0.34515,1.001618 0.51772,1.596163 0.17257,0.594546 0.34514,1.249139 0.51771,1.951815 0.17258,0.702677 0.34515,1.453666 0.51772,2.238057 0.17257,0.784392 0.34514,1.602318 0.51772,2.436859 0.17257,0.834545 0.34514,1.685725 0.51771,2.535685 0.17257,0.84995 0.34515,1.6986 0.51772,2.52825 0.17257,0.82966 0.34514,1.64013 0.51771,2.41501 0.17258,0.77489 0.34515,1.51392 0.51772,2.203 0.17257,0.68908 0.34514,1.32787 0.51772,1.90548 0.17257,0.57761 0.34514,1.09364 0.51771,1.54109 0.17257,0.44746 0.34515,0.82591 0.51772,1.13268 0.17257,0.30677 0.34514,0.54144 0.51771,0.70581 0.17258,0.16438 0.34515,0.25806 0.51772,0.28725 0.17257,0.0292 0.34514,-0.006 0.51771,-0.0968 0.17258,-0.0903 0.34515,-0.23559 0.51772,-0.42229 0.17257,-0.1867 0.34514,-0.415 0.51772,-0.6689 0.17257,-0.2539 0.34514,-0.53348 0.51771,-0.82124 0.17257,-0.28776 0.34515,-0.58368 0.51772,-0.86988 0.17257,-0.28619 0.34514,-0.56254 0.51771,-0.8119 0.17258,-0.24936 0.34515,-0.4715 0.51772,-0.65112 0.17257,-0.17962 0.34514,-0.31641 0.51772,-0.39783 0.17257,-0.0814 0.34514,-0.10712 0.51771,-0.0681 0.17257,0.039 0.34515,0.14308 0.51772,0.31707 0.17257,0.174 0.34514,0.41832 0.51771,0.73334 0.17258,0.31502 0.34515,0.70115 0.51772,1.15428 0.17257,0.45314 0.34514,0.97366 0.51771,1.55324 0.17258,0.57958 0.34515,1.21853 0.51772,1.90486 0.17257,0.68633 0.34514,1.42026 0.51772,2.18685 0.17257,0.76659 0.34514,1.56597 0.51771,2.38121 0.17257,0.81524 0.34515,1.64635 0.51772,2.47548 0.17257,0.82913 0.34514,1.65618 0.51771,2.46348 0.17258,0.80731 0.34515,1.59467 0.51772,2.34572 0.17257,0.75105 0.34514,1.46551 0.51772,2.12932 0.17257,0.66382 0.34514,1.27664 0.51771,1.82764 0.17257,0.551 0.34515,1.03976 0.51772,1.45935 0.17257,0.4196 0.34514,0.76958 0.51771,1.04735 0.17258,0.27777 0.34515,0.48289 0.51772,0.61724 0.17257,0.13435 0.34514,0.19752 0.51771,0.19577 0.17258,-0.002 0.34515,-0.0688 0.51772,-0.19085 0.17257,-0.12208 0.34514,-0.29948 0.51772,-0.51864 0.17257,-0.21916 0.34514,-0.48027 0.51771,-0.76729 0.17257,-0.28702 0.34515,-0.60003 0.51772,-0.92151 0.17257,-0.32149 0.34514,-0.65143 0.51771,-0.97194 0.17258,-0.32051 0.34515,-0.63146 0.51772,-0.91574 0.17257,-0.28427 0.34514,-0.54164 0.51772,-0.75681 0.17257,-0.21517 0.34514,-0.38784 0.51771,-0.50551 0.17257,-0.11768 0.34515,-0.17998 0.51772,-0.17802 0.17257,0.002 0.34514,0.0686 0.51771,0.2047 0.17258,0.13609 0.34515,0.34205 0.51772,0.61819 0.17257,0.27615 0.34514,0.62288 0.51772,1.03606 0.17257,0.41317 0.34514,0.89316 0.51771,1.43161 0.17257,0.53844 0.34514,1.13565 0.51772,1.77957 0.17257,0.64393 0.34514,1.33481 0.51771,2.05767 0.17257,0.72286 0.34515,1.47782 0.51772,2.24795 0.17257,0.77013 0.34514,1.55544 0.51771,2.33807 0.17258,0.78263 0.34515,1.56248 0.51772,2.3219 0.17257,0.75942 0.34514,1.49821 0.51772,2.20003 0.17257,0.70181 0.34514,1.36638 0.51771,1.97968 0.17257,0.6133 0.34515,1.17498 0.51772,1.67426 0.17257,0.49929 0.34514,0.93576 0.51771,1.30254 0.17258,0.36678 0.34515,0.66344 0.51772,0.88741 0.17257,0.22398 0.34514,0.37484 0.51772,0.45454 0.17257,0.0797 0.34514,0.0878 0.51771,0.0306 0.17257,-0.0572 0.34514,-0.17993 0.51772,-0.35805 0.17257,-0.17812 0.34514,-0.41185 0.51771,-0.68761 0.17257,-0.27575 0.34515,-0.5937 0.51772,-0.93779 0.17257,-0.34408 0.34514,-0.71437 0.51771,-1.09335 0.17258,-0.37898 0.34515,-0.76661 0.51772,-1.14502 0.17257,-0.37841 0.34514,-0.74747 0.51772,-1.09005 0.17257,-0.34259 0.34514,-0.65848 0.51771,-0.93241 0.17257,-0.27393 0.34515,-0.5056 0.51772,-0.68254 0.17257,-0.17694 0.34514,-0.29878 0.51771,-0.35666 0.17258,-0.0579 0.34515,-0.0514 0.51772,0.0242 0.17257,0.0756 0.34514,0.22064 0.51772,0.43549 0.17257,0.21485 0.34514,0.49987 0.51771,0.85088 0.17257,0.35101 0.34514,0.76837 0.51772,1.24368 0.17257,0.47531 0.34514,1.00887 0.51771,1.58861 0.17257,0.57975 0.34515,1.20589 0.51772,1.86345 0.17257,0.65757 0.34514,1.34666 0.51771,2.05034 0.17258,0.70368 0.34515,1.42195 0.51772,2.13696 0.17257,0.71501 0.34514,1.42665 0.51772,2.1173 0.17257,0.69064 0.34514,1.36009 0.51771,1.99202 0.17257,0.63193 0.34515,1.22605 0.51772,1.76842 0.17257,0.54236 0.34514,1.0326 0.51771,1.45999 0.17258,0.42739 0.34515,0.79151 0.51772,1.08554 0.17257,0.29403 0.34514,0.51754 0.51772,0.66803 0.17257,0.15049 0.34514,0.22753 0.51771,0.23313 0.17257,0.006 0.34514,-0.0607 0.51772,-0.19241 0.17257,-0.13175 0.34514,-0.32934 0.51771,-0.58243 0.17257,-0.2531 0.34515,-0.56198 0.51772,-0.913 0.17257,-0.35101 0.34514,-0.74436 0.51771,-1.16392 0.17258,-0.41956 0.34515,-0.86543 0.51772,-1.32005 0.17257,-0.45462 0.34514,-0.91797 0.51772,-1.37217 0.17257,-0.45419 0.34514,-0.8991 0.51771,-1.31761 0.17257,-0.41852 0.34515,-0.81042 0.51772,-1.16046 0.17257,-0.35004 0.34514,-0.65791 0.51771,-0.91119 0.17258,-0.25327 0.34515,-0.45159 0.51772,-0.58612 0.17257,-0.13453 0.34514,-0.20486 0.51772,-0.20633 0.17257,-0.001 0.34514,0.0663 0.51771,0.20365 0.17257,0.13732 0.34514,0.34454 0.51772,0.61743 0.17257,0.27288 0.34514,0.6118 0.51771,1.0083 0.17257,0.39651 0.34515,0.8509 0.51772,1.35108 0.17257,0.50018 0.34514,1.04636 0.51771,1.62354 0.17258,0.57717 0.34515,1.18546 0.51772,1.80789 0.17257,0.62243 0.34514,1.25902 0.51772,1.89191 0.17257,0.63289 0.34514,1.26199 0.51771,1.86966 0.17257,0.60767 0.34515,1.19372 0.51772,1.74186 0.17257,0.54815 0.34514,1.0581 0.51771,1.51594 0.17258,0.45783 0.34515,0.86319 0.51772,1.2054 0.17257,0.34221 0.34514,0.62085 0.51772,0.82916 0.17257,0.20831 0.34514,0.34585 0.51771,0.41019 0.17257,0.0643 0.34514,0.055 0.51772,-0.0258 0.17257,-0.0809 0.34514,-0.23368 0.51771,-0.45206 0.17257,-0.21837 0.34515,-0.50265 0.51772,-0.84244 0.17257,-0.33979 0.34514,-0.73537 0.51771,-1.17305 0.17258,-0.43769 0.34515,-0.91766 0.51772,-1.42378 0.17257,-0.50612 0.34514,-1.03847 0.51772,-1.5795 0.17257,-0.54102 0.34514,-1.09068 0.51771,-1.6311 0.17257,-0.54041 0.34515,-1.07144 0.51772,-1.576 0.17257,-0.50456 0.34514,-0.98241 0.51771,-1.41835 0.17258,-0.43593 0.34515,-0.82963 0.51772,-1.1687 0.17257,-0.33907 0.34514,-0.62316 0.51772,-0.84346 0.17257,-0.2203 0.34514,-0.37642 0.51771,-0.46373 0.17257,-0.0873 0.34514,-0.1054 0.51772,-0.0541 0.17257,0.0513 0.34514,0.17243 0.51771,0.35905 0.17257,0.18663 0.34515,0.43913 0.51772,0.74903 0.17257,0.30989 0.34514,0.67748 0.51771,1.09063 0.17258,0.41314 0.34515,0.87206 0.51772,1.36171 0.17257,0.48966 0.34514,1.01017 0.51772,1.54456 0.17257,0.5344 0.34514,1.08268 0.51771,1.62699 0.17257,0.54432 0.34515,1.08458 0.51772,1.60316 0.17257,0.51858 0.34514,1.0153 0.51771,1.47388 0.17258,0.45859 0.34515,0.87876 0.51772,1.24664 0.17257,0.36788 0.34514,0.6831 0.51772,0.93504 0.17257,0.25194 0.34514,0.44019 0.51771,0.55803 0.17257,0.11785 0.34514,0.16485 0.51772,0.13865 0.17257,-0.0262 0.34514,-0.12604 0.51771,-0.29739 0.17257,-0.17135 0.34515,-0.41462 0.51772,-0.72333 0.17257,-0.3087 0.34514,-0.68319 0.51771,-1.11303 0.17258,-0.42983 0.34515,-0.9153 0.51772,-1.44265 0.17257,-0.52735 0.34514,-1.09678 0.51772,-1.69212 0.17257,-0.59533 0.34514,-1.21666 0.51771,-1.84639 0.17257,-0.62974 0.34515,-1.26785 0.51772,-1.89644 0.17257,-0.6286 0.34514,-1.24754 0.51771,-1.83975 0.17258,-0.59221 0.34515,-1.15746 0.51772,-1.68055 0.17257,-0.52308 0.34514,-1.0037 0.51772,-1.42949 0.17257,-0.42578 0.34514,-0.79637 0.51771,-1.10302 0.17257,-0.30664 0.34514,-0.54894 0.51772,-0.72231 0.17257,-0.17338 0.34514,-0.27741 0.51771,-0.31197 0.17257,-0.0346 0.34515,7.5e-4 0.51772,0.10159 0.17257,0.10085 0.34514,0.26759 0.51771,0.4917 0.17258,0.22411 0.34515,0.5059 0.51772,0.83318 0.17257,0.32729 0.34514,0.70028 0.51772,1.10394 0.17257,0.40366 0.34514,0.83809 0.51771,1.28631 0.17257,0.44822 0.34515,0.91024 0.51772,1.3682 0.17257,0.45796 0.34514,0.91177 0.51771,1.34383 0.17258,0.43206 0.34515,0.84218 0.51772,1.21412 0.17257,0.37195 0.34514,0.70543 0.51772,0.98661 0.17257,0.28118 0.34514,0.50971 0.51771,0.67499 0.17257,0.16529 0.34515,0.26692 0.51772,0.29826 0.17257,0.0313 0.34514,-0.008 0.51771,-0.1205 0.17257,-0.11244 0.34515,-0.29835 0.51772,-0.55555 0.17257,-0.2572 0.34514,-0.58609 0.51771,-0.98012 0.17258,-0.39404 0.34515,-0.85358 0.51772,-1.36812 0.17257,-0.51455 0.34514,-1.08438 0.51772,-1.69571 0.17257,-0.61134 0.34514,-1.26437 0.51771,-1.9429 0.17257,-0.67853 0.34515,-1.38263 0.51772,-2.09471 0.17257,-0.71207 0.34514,-1.43209 0.51771,-2.14216 0.17258,-0.71006 0.34515,-1.41004 0.51772,-2.08286 0.17257,-0.67282 0.34514,-1.31825 0.51772,-1.92111 0.17257,-0.60286 0.34514,-1.16284 0.51771,-1.66763 0.17257,-0.50478 0.34515,-0.95399 0.51772,-1.33893 0.17257,-0.38493 0.34514,-0.70519 0.51771,-0.95624 0.17257,-0.25105 0.34515,-0.43247 0.51772,-0.5442 0.17257,-0.11172 0.34514,-0.15333 0.51771,-0.12923 0.17258,0.0241 0.34515,0.11429 0.51772,0.26199 0.17257,0.1477 0.34514,0.35322 0.51772,0.60434 0.17257,0.25113 0.34514,0.54807 0.51771,0.87576 0.17257,0.32768 0.34515,0.68622 0.51772,1.05862 0.17257,0.3724 0.34514,0.75867 0.51771,1.14095 0.17258,0.38228 0.34515,0.76048 0.51772,1.11701 0.17257,0.35654 0.34514,0.69121 0.51772,0.98783 0.17257,0.29661 0.34514,0.55488 0.51771,0.761 0.17257,0.20613 0.34515,0.35974 0.51772,0.45032 0.17257,0.0906 0.34514,0.11772 0.51771,0.0748 0.17257,-0.0429 0.34515,-0.15628 0.51772,-0.34237 0.17257,-0.1861 0.34514,-0.44534 0.51771,-0.77549 0.17258,-0.33015 0.34515,-0.73161 0.51772,-1.19778 0.17257,-0.46616 0.34514,-0.99739 0.51772,-1.58313 0.17257,-0.58574 0.34514,-1.22627 0.51771,-1.90778 0.17257,-0.68151 0.34515,-1.40417 0.51772,-2.15177 0.17257,-0.7476 0.34514,-1.5202 0.51771,-2.3002 0.17258,-0.78 0.34515,-1.56736 0.51772,-2.34418 0.17257,-0.77683 0.34514,-1.54297 0.51772,-2.28139 0.17257,-0.73841 0.34514,-1.44886 0.51771,-2.11619 0.17257,-0.66733 0.34515,-1.29123 0.51772,-1.85942 0.17257,-0.56818 0.34514,-1.08027 0.51771,-1.52762 0.17257,-0.44736 0.34515,-0.82955 0.51772,-1.14211 0.17257,-0.31256 0.34514,-0.55507 0.51771,-0.72751 0.17258,-0.17243 0.34515,-0.27439 0.51772,-0.3103 0.17257,-0.0359 0.34514,-0.005 0.51772,0.0829 0.17257,0.0883 0.34514,0.23468 0.51771,0.42692 0.17257,0.19224 0.34515,0.43054 0.51772,0.6998 0.17257,0.26926 0.34514,0.5696 0.51771,0.88399 0.17258,0.3144 0.34515,0.64286 0.51772,0.96754 0.17257,0.32468 0.34514,0.64548 0.51772,0.94484 0.17257,0.29936 0.34514,0.57707 0.51771,0.81697 0.17257,0.23989 0.34515,0.44168 0.51772,0.59161 0.17257,0.14993 0.34514,0.24764 0.51771,0.28264 0.17257,0.035 0.34515,0.007 0.51772,-0.0909 0.17257,-0.0978 0.34514,-0.26562 0.51771,-0.50574 0.17258,-0.24012 0.34515,-0.55295 0.51772,-0.93618 0.17257,-0.38323 0.34514,-0.83726 0.51772,-1.35544 0.17257,-0.51817 0.34514,-1.10084 0.51771,-1.73742 0.17257,-0.63658 0.34515,-1.32733 0.51772,-2.05842 0.17257,-0.73108 0.34514,-1.50266 0.51771,-2.2985 0.17258,-0.79584 0.34515,-1.616 0.51772,-2.44287 0.17257,-0.82686 0.34514,-1.66039 0.51772,-2.48268 0.17257,-0.82229 0.34514,-1.63321 0.51771,-2.41571 0.17257,-0.7825 0.34515,-1.53635 0.51772,-2.24643 0.17257,-0.71007 0.34514,-1.37605 0.51771,-1.98569 0.17257,-0.60965 0.34515,-1.16258 0.51772,-1.65018 0.17257,-0.48761 0.34514,-0.90948 0.51771,-1.2612 0.17258,-0.35171 0.34515,-0.63284 0.51772,-0.84342 0.17257,-0.21058 0.34514,-0.3502 0.51772,-0.42336 0.17257,-0.0732 0.34514,-0.0795 0.51771,-0.0276 0.17257,0.0519 0.34515,0.16218 0.51772,0.31869 0.17257,0.15651 0.34514,0.35942 0.51771,0.59361 0.17258,0.23418 0.34515,0.49975 0.51772,0.77968 0.17257,0.27992 0.34514,0.57422 0.51772,0.86502 0.17257,0.2908 0.34514,0.57802 0.51771,0.8441 0.17257,0.26607 0.34515,0.51081 0.51772,0.71807 0.17257,0.20725 0.34514,0.37674 0.51771,0.49472 0.17257,0.11799 0.34515,0.18412 0.51772,0.18796 0.17257,0.004 0.34514,-0.055 0.51771,-0.18305 0.17258,-0.12804 0.34515,-0.32569 0.51772,-0.5951 0.17257,-0.26941 0.34514,-0.61099 0.51772,-1.02239 0.17257,-0.4114 0.34514,-0.89301 0.51771,-1.43814 0.17257,-0.54512 0.34515,-1.1541 0.51772,-1.81631 0.17257,-0.6622 0.34514,-1.3779 0.51771,-2.13319 0.17258,-0.7553 0.34515,-1.55038 0.51772,-2.36896 0.17257,-0.81858 0.34514,-1.66073 0.51772,-2.50882 0.17257,-0.84809 0.34514,-1.70208 0.51771,-2.54407 0.17257,-0.841997 0.34515,-1.671851 0.51772,-2.472542 0.17257,-0.800691 0.34514,-1.571977 0.51771,-2.298771 0.17257,-0.726793 0.34515,-1.408772 0.51772,-2.033733 0.17257,-0.624961 0.34514,-1.192522 0.51771,-1.694129 0.17258,-0.501607 0.34515,-0.936841 0.51772,-1.301336 0.17257,-0.364495 0.34514,-0.657822 0.51772,-0.880074 0.17257,-0.222253 0.34514,-0.373019 0.51771,-0.456845 0.17257,-0.08383 0.34515,-0.100341 0.51772,-0.05826 0.17257,0.04208 0.34514,0.143064 0.51771,0.29062 0.17258,0.147555 0.34515,0.341902 0.51772,0.567873 0.17257,0.225971 0.34514,0.483685 0.51772,0.756092 0.17257,0.272407 0.34514,0.559519 0.51771,0.843475 0.17257,0.283956 0.34515,0.564662 0.51772,0.824572 0.17257,0.25991 0.34514,0.498827 0.51771,0.700626 0.17257,0.201798 0.34515,0.366194 0.51772,0.479495 0.17257,0.1133 0.34514,0.175151 0.51771,0.175158 0.17258,7e-6 0.34515,-0.06223 0.51772,-0.193162 0.17257,-0.130929 0.34514,-0.330974 0.51772,-0.602215 0.17257,-0.271242 0.34514,-0.614103 0.51771,-1.026175 0.17257,-0.412072 0.34515,-0.893747 0.51772,-1.438273 0.17257,-0.544527 0.34514,-1.152242 0.51771,-1.812478 0.17258,-0.660235 0.34515,-1.373251 0.51772,-2.125131 0.17257,-0.75188 0.34514,-1.54279 0.51772,-2.35644 0.17257,-0.813651 0.34514,-1.650104 0.51771,-2.491719 0.17257,-0.841615 0.34515,-1.688348 0.51772,-2.522313 0.17257,-0.833966 0.34514,-1.655014 0.51771,-2.446144 0.17258,-0.791129 0.34515,-1.552093 0.51772,-2.267839 0.17257,-0.715746 0.34514,-1.385947 0.51771,-1.998444 0.17258,-0.612498 0.34515,-1.166906 0.51772,-1.654724 0.17257,-0.487818 0.34514,-0.908624 0.51772,-1.258109 0.17257,-0.349485 0.34514,-0.627217 0.51771,-0.83335 0.17257,-0.206133 0.34515,-0.340252 0.51772,-0.40696 0.17257,-0.06671 0.34514,-0.06564 0.51771,-0.0055 0.17258,0.06009 0.34515,0.179503 0.51772,0.345865 0.17257,0.166362 0.34514,0.379894 0.51772,0.625396 0.17257,0.245501 0.34514,0.523092 0.51771,0.815701 0.17257,0.292609 0.34515,0.600251 0.51772,0.905056 0.17257,0.304805 0.34514,0.606681 0.51771,0.888088 0.17258,0.281407 0.34515,0.542151 0.51772,0.766125 0.17257,0.223974 0.34514,0.410895 0.51771,0.547103 0.17258,0.136208 0.34515,0.221349 0.51772,0.245071 0.17257,0.02372 0.34514,-0.01438 0.51772,-0.120692 0.17257,-0.106314 0.34514,-0.281268 0.51771,-0.526892 0.17257,-0.245625 0.34515,-0.56234 0.51772,-0.947686 0.17257,-0.385346 0.34514,-0.839712 0.51771,-1.356301 0.17258,-0.516589 0.34515,-1.095734 0.51772,-1.726727 0.17257,-0.630993 0.34514,-1.31409 0.51772,-2.035345 0.17257,-0.721256 0.34514,-1.480832 0.51771,-2.262421 0.17257,-0.781589 0.34515,-1.585249 0.51772,-2.393335 0.17257,-0.808085 0.34514,-1.620548 0.51771,-2.419513 0.17258,-0.798966 0.34515,-1.584279 0.51772,-2.338962 0.17257,-0.754683 0.34514,-1.478486 0.51771,-2.156391 0.17258,-0.677905 0.34515,-1.309581 0.51772,-1.882919 0.17257,-0.573337 0.34514,-1.087944 0.51772,-1.535377 0.17257,-0.447433 0.34514,-0.827265 0.51771,-1.135249 0.17257,-0.307983 0.34515,-0.543682 0.51772,-0.707313 0.17257,-0.163631 0.34514,-0.254775 0.51771,-0.278098 0.17258,-0.02332 0.34515,0.02155 0.51772,0.125801 0.17257,0.10425 0.34514,0.268185 0.51772,0.479384 0.17257,0.2112 0.34514,0.469887 0.51771,0.760824 0.17257,0.290937 0.34515,0.614248 0.51772,0.952836 0.17257,0.338588 0.34514,0.692471 0.51771,1.043769 0.17258,0.351298 0.34515,0.699922 0.51772,1.028334 0.17257,0.328413 0.34514,0.636422 0.51771,0.907939 0.17258,0.271517 0.34515,0.506261 0.51772,0.6906 0.17257,0.184339 0.34514,0.317923 0.51772,0.390436 0.17257,0.07251 0.34514,0.08356 0.51771,0.02678 0.17257,-0.05677 0.34515,-0.181788 0.51772,-0.377025 0.17257,-0.195237 0.34514,-0.461113 0.51771,-0.795122 0.17258,-0.334009 0.34515,-0.736536 0.51772,-1.200739 0.17257,-0.464202 0.34514,-0.990411 0.51772,-1.56788 0.17257,-0.577469 0.34514,-1.206451 0.51771,-1.872972 0.17257,-0.666521 0.34515,-1.37074 0.51772,-2.096332 0.17257,-0.725592 0.34514,-1.472612 0.51771,-2.223413 0.17258,-0.750801 0.34515,-1.505329 0.51772,-2.245722 0.17257,-0.740392 0.34514,-1.466491 0.51771,-2.161343 0.17258,-0.694852 0.34515,-1.358203 0.51772,-1.975073 0.17257,-0.616871 0.34514,-1.186927 0.51772,-1.698105 0.17257,-0.511179 0.34514,-0.963087 0.51771,-1.347336 0.17257,-0.384249 0.34515,-0.700409 0.51772,-0.944295 0.17257,-0.243886 0.34514,-0.415059 0.51771,-0.513799 0.17258,-0.09874 0.34515,-0.124625 0.51772,-0.08238 0.17257,0.04224 0.34514,0.15299 0.51772,0.323367 0.17257,0.170376 0.34514,0.40069 0.51771,0.678476 0.17257,0.277786 0.34515,0.603267 0.51772,0.96117 0.17257,0.357902 0.34514,0.74835 0.51771,1.154223 0.17258,0.405874 0.34515,0.827191 0.51772,1.246062 0.17257,0.418872 0.34514,0.835208 0.51771,1.231477 0.17258,0.396269 0.34515,0.772279 0.51772,1.111958 0.17257,0.339679 0.34514,0.642748 0.51772,0.895602 0.17257,0.252855 0.34514,0.455146 0.51771,0.596597 0.17257,0.141451 0.34515,0.221664 0.51772,0.234335 0.17257,0.01267 0.34514,-0.04262 0.51771,-0.167808 0.17258,-0.125189 0.34515,-0.320689 0.51772,-0.583947 0.17257,-0.263258 0.34514,-0.594656 0.51772,-0.987309 0.17257,-0.392653 0.34514,-0.846888 0.51771,-1.351924 0.17257,-0.505035 0.34515,-1.061119 0.51772,-1.654252 0.17257,-0.593133 0.34514,-1.22347 0.51771,-1.874672 0.17258,-0.651202 0.34515,-1.323321 0.51772,-1.998706 0.17257,-0.675386 0.34514,-1.353982 0.51771,-2.017938 0.17258,-0.663956 0.34515,-1.313111 0.51772,-1.930537 0.17257,-0.617426 0.34514,-1.202867 0.51772,-1.741381 0.17257,-0.538514 0.34514,-1.029766 0.51771,-1.46174 0.17257,-0.431974 0.34515,-0.804275 0.51772,-1.108572 0.17257,-0.304297 0.34514,-0.540159 0.51771,-0.703461 0.17258,-0.163302 0.34515,-0.253605 0.51772,-0.271251 0.17257,-0.01765 0.34514,0.03779 0.51772,0.161511 0.17257,0.123724 0.34514,0.316117 0.51771,0.568246 0.17257,0.252129 0.34515,0.564305 0.51772,0.924013 0.17257,0.359708 0.34514,0.767173 0.51771,1.207083 0.17258,0.43991 0.34515,0.912389 0.51772,1.400295 0.17257,0.487906 0.34514,0.991256 0.51771,1.49215 0.17258,0.500895 0.34515,0.999244 0.51772,1.47752 0.17257,0.478275 0.34514,0.936286 0.51772,1.357977 0.17257,0.42169 0.34514,0.80678 0.51771,1.141696 0.17257,0.334916 0.34515,0.619308 0.51772,0.842938 0.17257,0.223629 0.34514,0.386099 0.51771,0.48115 0.17258,0.09505 0.34515,0.122261 0.51772,0.07975 0.17257,-0.04252 0.34514,-0.15517 0.51772,-0.335362 0.17257,-0.180193 0.34514,-0.428304 0.51771,-0.737407 0.17257,-0.309102 0.34515,-0.67952 0.51772,-1.100435 0.17257,-0.420915 0.34514,-0.892574 0.51771,-1.40095 0.17258,-0.508376 0.34515,-1.053622 0.51772,-1.619383 0.17257,-0.565762 0.34514,-1.15209 0.51771,-1.741331 0.17258,-0.589241 0.34515,-1.181338 0.51772,-1.758452 0.17257,-0.577114 0.34514,-1.139082 0.51772,-1.669002 0.17257,-0.529921 0.34514,-1.027535 0.51771,-1.47794 0.17257,-0.450404 0.34515,-0.853262 0.51772,-1.196608 0.17257,-0.343345 0.34514,-0.626781 0.51771,-0.842033 0.17258,-0.215252 0.34515,-0.361887 0.51772,-0.435845"
           title="cos(x)+0.1*cos(20*x)"
           id="path5179" />
        <path
           transform="matrix(5.3081763,0,0,4.6158057,-939.75585,-419.02352)"
           d="m 253.92857,75.95845 c 0,3.402469 -2.39848,6.160714 -5.35714,6.160714 -2.95867,0 -5.35715,-2.758245 -5.35715,-6.160714 0,-3.402468 2.39848,-6.160714 5.35715,-6.160714 2.95866,0 5.35714,2.758246 5.35714,6.160714 z"
           sodipodi:ry="6.1607141"
           sodipodi:rx="5.3571429"
           sodipodi:cy="75.95845"
           sodipodi:cx="248.57143"
           id="path2984"
           style="fill:#00a200;fill-opacity:0.67450980000000005;stroke:#000000;stroke-width:0.10101214;stroke-miterlimit:4;stroke-opacity:1;stroke-dasharray:none;stroke-dashoffset:0"
           sodipodi:type="arc" />
        <path
           transform="matrix(0.46008672,0,0,0.40007543,265.31926,-124.49604)"
           d="m 253.92857,75.95845 c 0,3.402469 -2.39848,6.160714 -5.35714,6.160714 -2.95867,0 -5.35715,-2.758245 -5.35715,-6.160714 0,-3.402468 2.39848,-6.160714 5.35715,-6.160714 2.95866,0 5.35714,2.758246 5.35714,6.160714 z"
           sodipodi:ry="6.1607141"
           sodipodi:rx="5.3571429"
           sodipodi:cy="75.95845"
           sodipodi:cx="248.57143"
           id="path2984-6"
           style="fill:#f2a200;fill-opacity:0.67450980000000005;stroke:#000000;stroke-width:1.16541127;stroke-miterlimit:4;stroke-opacity:1;stroke-dasharray:none;stroke-dashoffset:0"
           sodipodi:type="arc" />
      </g>
    </g>
  </g>
</svg>
