<?xml version="1.0" encoding="iso-8859-1" standalone="no"?>
<?xml-stylesheet href="2d-curv-estimator.css" type="text/css"?>
<svg xmlns="http://www.w3.org/2000/svg" xmlns:xlink="http://www.w3.org/1999/xlink" width="142.86363pt" height="182.18994pt" viewBox="-0.2 -22.55934 142.86363 182.18994 ">
<g transform="translate(0, 159.6306 ) scale(1,-1) translate(0,22.55934 )">
<g>
 <g stroke="rgb(0.0%,0.0%,0.0%)">
 <g fill="rgb(0.0%,0.0%,0.0%)">
 <g stroke-width="0.4pt">
 <g>
 <g>
 <g stroke="rgb(100.0%,69.9997%,69.9997%)">
 <g fill="rgb(100.0%,69.9997%,69.9997%)">
 <path d=" M  35.5659 120.92409 M  35.5659 120.92409 L  35.5659 135.15045 L  49.79227 135.15045 L  49.79227 120.92409 Z M  49.79227 135.15045  " />
 </g>
 </g>
 </g>
 <g>
 <g stroke="rgb(100.0%,69.9997%,69.9997%)">
 <g fill="rgb(100.0%,69.9997%,69.9997%)">
 <path d=" M  92.47136 7.11317 M  92.47136 7.11317 L  92.47136 21.33954 L  106.69772 21.33954 L  106.69772 7.11317 Z M  106.69772 21.33954  " />
 </g>
 </g>
 </g>
 <g>
 <g stroke="rgb(100.0%,69.9997%,69.9997%)">
 <g fill="rgb(100.0%,69.9997%,69.9997%)">
 <path d=" M  49.79227 120.92409 M  49.79227 120.92409 L  49.79227 135.15045 L  64.01863 135.15045 L  64.01863 120.92409 Z M  64.01863 135.15045  " />
 </g>
 </g>
 </g>
 <g>
 <g stroke="rgb(100.0%,69.9997%,69.9997%)">
 <g fill="rgb(100.0%,69.9997%,69.9997%)">
 <path d=" M  78.245 7.11317 M  78.245 7.11317 L  78.245 21.33954 L  92.47136 21.33954 L  92.47136 7.11317 Z M  92.47136 21.33954  " />
 </g>
 </g>
 </g>
 <g>
 <g stroke="rgb(100.0%,69.9997%,69.9997%)">
 <g fill="rgb(100.0%,69.9997%,69.9997%)">
 <path d=" M  64.01863 120.92409 M  64.01863 120.92409 L  64.01863 135.15045 L  78.245 135.15045 L  78.245 120.92409 Z M  78.245 135.15045  " />
 </g>
 </g>
 </g>
 <g>
 <g stroke="rgb(100.0%,69.9997%,69.9997%)">
 <g fill="rgb(100.0%,69.9997%,69.9997%)">
 <path d=" M  64.01863 7.11317 M  64.01863 7.11317 L  64.01863 21.33954 L  78.245 21.33954 L  78.245 7.11317 Z M  78.245 21.33954  " />
 </g>
 </g>
 </g>
 <g>
 <g stroke="rgb(100.0%,69.9997%,69.9997%)">
 <g fill="rgb(100.0%,69.9997%,69.9997%)">
 <path d=" M  78.245 120.92409 M  78.245 120.92409 L  78.245 135.15045 L  92.47136 135.15045 L  92.47136 120.92409 Z M  92.47136 135.15045  " />
 </g>
 </g>
 </g>
 <g>
 <g stroke="rgb(100.0%,69.9997%,69.9997%)">
 <g fill="rgb(100.0%,69.9997%,69.9997%)">
 <path d=" M  49.79227 7.11317 M  49.79227 7.11317 L  49.79227 21.33954 L  64.01863 21.33954 L  64.01863 7.11317 Z M  64.01863 21.33954  " />
 </g>
 </g>
 </g>
 <g>
 <g stroke="rgb(100.0%,69.9997%,69.9997%)">
 <g fill="rgb(100.0%,69.9997%,69.9997%)">
 <path d=" M  21.33954 106.69772 M  21.33954 106.69772 L  21.33954 120.92409 L  35.5659 120.92409 L  35.5659 106.69772 Z M  35.5659 120.92409  " />
 </g>
 </g>
 </g>
 <g>
 <g stroke="rgb(100.0%,69.9997%,69.9997%)">
 <g fill="rgb(100.0%,69.9997%,69.9997%)">
 <path d=" M  106.69772 21.33954 M  106.69772 21.33954 L  106.69772 35.5659 L  120.92409 35.5659 L  120.92409 21.33954 Z M  120.92409 35.5659  " />
 </g>
 </g>
 </g>
 <g>
 <g stroke="rgb(100.0%,69.9997%,69.9997%)">
 <g fill="rgb(100.0%,69.9997%,69.9997%)">
 <path d=" M  35.5659 106.69772 M  35.5659 106.69772 L  35.5659 120.92409 L  49.79227 120.92409 L  49.79227 106.69772 Z M  49.79227 120.92409  " />
 </g>
 </g>
 </g>
 <g>
 <g stroke="rgb(100.0%,69.9997%,69.9997%)">
 <g fill="rgb(100.0%,69.9997%,69.9997%)">
 <path d=" M  92.47136 21.33954 M  92.47136 21.33954 L  92.47136 35.5659 L  106.69772 35.5659 L  106.69772 21.33954 Z M  106.69772 35.5659  " />
 </g>
 </g>
 </g>
 <g>
 <g stroke="rgb(100.0%,69.9997%,69.9997%)">
 <g fill="rgb(100.0%,69.9997%,69.9997%)">
 <path d=" M  49.79227 106.69772 M  49.79227 106.69772 L  49.79227 120.92409 L  64.01863 120.92409 L  64.01863 106.69772 Z M  64.01863 120.92409  " />
 </g>
 </g>
 </g>
 <g>
 <g stroke="rgb(100.0%,69.9997%,69.9997%)">
 <g fill="rgb(100.0%,69.9997%,69.9997%)">
 <path d=" M  78.245 21.33954 M  78.245 21.33954 L  78.245 35.5659 L  92.47136 35.5659 L  92.47136 21.33954 Z M  92.47136 35.5659  " />
 </g>
 </g>
 </g>
 <g>
 <g stroke="rgb(100.0%,69.9997%,69.9997%)">
 <g fill="rgb(100.0%,69.9997%,69.9997%)">
 <path d=" M  64.01863 106.69772 M  64.01863 106.69772 L  64.01863 120.92409 L  78.245 120.92409 L  78.245 106.69772 Z M  78.245 120.92409  " />
 </g>
 </g>
 </g>
 <g>
 <g stroke="rgb(100.0%,69.9997%,69.9997%)">
 <g fill="rgb(100.0%,69.9997%,69.9997%)">
 <path d=" M  64.01863 21.33954 M  64.01863 21.33954 L  64.01863 35.5659 L  78.245 35.5659 L  78.245 21.33954 Z M  78.245 35.5659  " />
 </g>
 </g>
 </g>
 <g>
 <g stroke="rgb(100.0%,69.9997%,69.9997%)">
 <g fill="rgb(100.0%,69.9997%,69.9997%)">
 <path d=" M  78.245 106.69772 M  78.245 106.69772 L  78.245 120.92409 L  92.47136 120.92409 L  92.47136 106.69772 Z M  92.47136 120.92409  " />
 </g>
 </g>
 </g>
 <g>
 <g stroke="rgb(100.0%,69.9997%,69.9997%)">
 <g fill="rgb(100.0%,69.9997%,69.9997%)">
 <path d=" M  49.79227 21.33954 M  49.79227 21.33954 L  49.79227 35.5659 L  64.01863 35.5659 L  64.01863 21.33954 Z M  64.01863 35.5659  " />
 </g>
 </g>
 </g>
 <g>
 <g stroke="rgb(100.0%,69.9997%,69.9997%)">
 <g fill="rgb(100.0%,69.9997%,69.9997%)">
 <path d=" M  92.47136 106.69772 M  92.47136 106.69772 L  92.47136 120.92409 L  106.69772 120.92409 L  106.69772 106.69772 Z M  106.69772 120.92409  " />
 </g>
 </g>
 </g>
 <g>
 <g stroke="rgb(100.0%,69.9997%,69.9997%)">
 <g fill="rgb(100.0%,69.9997%,69.9997%)">
 <path d=" M  35.5659 21.33954 M  35.5659 21.33954 L  35.5659 35.5659 L  49.79227 35.5659 L  49.79227 21.33954 Z M  49.79227 35.5659  " />
 </g>
 </g>
 </g>
 <g>
 <g stroke="rgb(100.0%,69.9997%,69.9997%)">
 <g fill="rgb(100.0%,69.9997%,69.9997%)">
 <path d=" M  106.69772 106.69772 M  106.69772 106.69772 L  106.69772 120.92409 L  120.92409 120.92409 L  120.92409 106.69772 Z M  120.92409 120.92409  " />
 </g>
 </g>
 </g>
 <g>
 <g stroke="rgb(100.0%,69.9997%,69.9997%)">
 <g fill="rgb(100.0%,69.9997%,69.9997%)">
 <path d=" M  21.33954 21.33954 M  21.33954 21.33954 L  21.33954 35.5659 L  35.5659 35.5659 L  35.5659 21.33954 Z M  35.5659 35.5659  " />
 </g>
 </g>
 </g>
 <g>
 <g stroke="rgb(100.0%,69.9997%,69.9997%)">
 <g fill="rgb(100.0%,69.9997%,69.9997%)">
 <path d=" M  21.33954 92.47136 M  21.33954 92.47136 L  21.33954 106.69772 L  35.5659 106.69772 L  35.5659 92.47136 Z M  35.5659 106.69772  " />
 </g>
 </g>
 </g>
 <g>
 <g stroke="rgb(100.0%,69.9997%,69.9997%)">
 <g fill="rgb(100.0%,69.9997%,69.9997%)">
 <path d=" M  106.69772 35.5659 M  106.69772 35.5659 L  106.69772 49.79227 L  120.92409 49.79227 L  120.92409 35.5659 Z M  120.92409 49.79227  " />
 </g>
 </g>
 </g>
 <g>
 <g stroke="rgb(100.0%,69.9997%,69.9997%)">
 <g fill="rgb(100.0%,69.9997%,69.9997%)">
 <path d=" M  35.5659 92.47136 M  35.5659 92.47136 L  35.5659 106.69772 L  49.79227 106.69772 L  49.79227 92.47136 Z M  49.79227 106.69772  " />
 </g>
 </g>
 </g>
 <g>
 <g stroke="rgb(100.0%,69.9997%,69.9997%)">
 <g fill="rgb(100.0%,69.9997%,69.9997%)">
 <path d=" M  92.47136 35.5659 M  92.47136 35.5659 L  92.47136 49.79227 L  106.69772 49.79227 L  106.69772 35.5659 Z M  106.69772 49.79227  " />
 </g>
 </g>
 </g>
 <g>
 <g stroke="rgb(100.0%,69.9997%,69.9997%)">
 <g fill="rgb(100.0%,69.9997%,69.9997%)">
 <path d=" M  49.79227 92.47136 M  49.79227 92.47136 L  49.79227 106.69772 L  64.01863 106.69772 L  64.01863 92.47136 Z M  64.01863 106.69772  " />
 </g>
 </g>
 </g>
 <g>
 <g stroke="rgb(100.0%,69.9997%,69.9997%)">
 <g fill="rgb(100.0%,69.9997%,69.9997%)">
 <path d=" M  78.245 35.5659 M  78.245 35.5659 L  78.245 49.79227 L  92.47136 49.79227 L  92.47136 35.5659 Z M  92.47136 49.79227  " />
 </g>
 </g>
 </g>
 <g>
 <g stroke="rgb(100.0%,69.9997%,69.9997%)">
 <g fill="rgb(100.0%,69.9997%,69.9997%)">
 <path d=" M  92.47136 92.47136 M  92.47136 92.47136 L  92.47136 106.69772 L  106.69772 106.69772 L  106.69772 92.47136 Z M  106.69772 106.69772  " />
 </g>
 </g>
 </g>
 <g>
 <g stroke="rgb(100.0%,69.9997%,69.9997%)">
 <g fill="rgb(100.0%,69.9997%,69.9997%)">
 <path d=" M  35.5659 35.5659 M  35.5659 35.5659 L  35.5659 49.79227 L  49.79227 49.79227 L  49.79227 35.5659 Z M  49.79227 49.79227  " />
 </g>
 </g>
 </g>
 <g>
 <g stroke="rgb(100.0%,69.9997%,69.9997%)">
 <g fill="rgb(100.0%,69.9997%,69.9997%)">
 <path d=" M  106.69772 92.47136 M  106.69772 92.47136 L  106.69772 106.69772 L  120.92409 106.69772 L  120.92409 92.47136 Z M  120.92409 106.69772  " />
 </g>
 </g>
 </g>
 <g>
 <g stroke="rgb(100.0%,69.9997%,69.9997%)">
 <g fill="rgb(100.0%,69.9997%,69.9997%)">
 <path d=" M  21.33954 35.5659 M  21.33954 35.5659 L  21.33954 49.79227 L  35.5659 49.79227 L  35.5659 35.5659 Z M  35.5659 49.79227  " />
 </g>
 </g>
 </g>
 <g>
 <g stroke="rgb(100.0%,69.9997%,69.9997%)">
 <g fill="rgb(100.0%,69.9997%,69.9997%)">
 <path d=" M  21.33954 78.245 M  21.33954 78.245 L  21.33954 92.47136 L  35.5659 92.47136 L  35.5659 78.245 Z M  35.5659 92.47136  " />
 </g>
 </g>
 </g>
 <g>
 <g stroke="rgb(100.0%,69.9997%,69.9997%)">
 <g fill="rgb(100.0%,69.9997%,69.9997%)">
 <path d=" M  106.69772 49.79227 M  106.69772 49.79227 L  106.69772 64.01863 L  120.92409 64.01863 L  120.92409 49.79227 Z M  120.92409 64.01863  " />
 </g>
 </g>
 </g>
 <g>
 <g stroke="rgb(100.0%,69.9997%,69.9997%)">
 <g fill="rgb(100.0%,69.9997%,69.9997%)">
 <path d=" M  35.5659 78.245 M  35.5659 78.245 L  35.5659 92.47136 L  49.79227 92.47136 L  49.79227 78.245 Z M  49.79227 92.47136  " />
 </g>
 </g>
 </g>
 <g>
 <g stroke="rgb(100.0%,69.9997%,69.9997%)">
 <g fill="rgb(100.0%,69.9997%,69.9997%)">
 <path d=" M  92.47136 49.79227 M  92.47136 49.79227 L  92.47136 64.01863 L  106.69772 64.01863 L  106.69772 49.79227 Z M  106.69772 64.01863  " />
 </g>
 </g>
 </g>
 <g>
 <g stroke="rgb(100.0%,69.9997%,69.9997%)">
 <g fill="rgb(100.0%,69.9997%,69.9997%)">
 <path d=" M  49.79227 78.245 M  49.79227 78.245 L  49.79227 92.47136 L  64.01863 92.47136 L  64.01863 78.245 Z M  64.01863 92.47136  " />
 </g>
 </g>
 </g>
 <g>
 <g stroke="rgb(100.0%,69.9997%,69.9997%)">
 <g fill="rgb(100.0%,69.9997%,69.9997%)">
 <path d=" M  78.245 49.79227 M  78.245 49.79227 L  78.245 64.01863 L  92.47136 64.01863 L  92.47136 49.79227 Z M  92.47136 64.01863  " />
 </g>
 </g>
 </g>
 <g>
 <g stroke="rgb(100.0%,69.9997%,69.9997%)">
 <g fill="rgb(100.0%,69.9997%,69.9997%)">
 <path d=" M  64.01863 78.245 M  64.01863 78.245 L  64.01863 92.47136 L  78.245 92.47136 L  78.245 78.245 Z M  78.245 92.47136  " />
 </g>
 </g>
 </g>
 <g>
 <g stroke="rgb(100.0%,69.9997%,69.9997%)">
 <g fill="rgb(100.0%,69.9997%,69.9997%)">
 <path d=" M  64.01863 49.79227 M  64.01863 49.79227 L  64.01863 64.01863 L  78.245 64.01863 L  78.245 49.79227 Z M  78.245 64.01863  " />
 </g>
 </g>
 </g>
 <g>
 <g stroke="rgb(100.0%,69.9997%,69.9997%)">
 <g fill="rgb(100.0%,69.9997%,69.9997%)">
 <path d=" M  35.5659 64.01863 M  35.5659 64.01863 L  35.5659 78.245 L  49.79227 78.245 L  49.79227 64.01863 Z M  49.79227 78.245  " />
 </g>
 </g>
 </g>
 <g>
 <g stroke="rgb(100.0%,69.9997%,69.9997%)">
 <g fill="rgb(100.0%,69.9997%,69.9997%)">
 <path d=" M  92.47136 64.01863 M  92.47136 64.01863 L  92.47136 78.245 L  106.69772 78.245 L  106.69772 64.01863 Z M  106.69772 78.245  " />
 </g>
 </g>
 </g>
 <g>
 <g stroke="rgb(100.0%,69.9997%,69.9997%)">
 <g fill="rgb(100.0%,69.9997%,69.9997%)">
 <path d=" M  49.79227 64.01863 M  49.79227 64.01863 L  49.79227 78.245 L  64.01863 78.245 L  64.01863 64.01863 Z M  64.01863 78.245  " />
 </g>
 </g>
 </g>
 <g>
 <g stroke="rgb(100.0%,69.9997%,69.9997%)">
 <g fill="rgb(100.0%,69.9997%,69.9997%)">
 <path d=" M  78.245 64.01863 M  78.245 64.01863 L  78.245 78.245 L  92.47136 78.245 L  92.47136 64.01863 Z M  92.47136 78.245  " />
 </g>
 </g>
 </g>
 <g>
 <g stroke="rgb(100.0%,69.9997%,69.9997%)">
 <g fill="rgb(100.0%,69.9997%,69.9997%)">
 <path d=" M  64.01863 64.01863 M  64.01863 64.01863 L  64.01863 78.245 L  78.245 78.245 L  78.245 64.01863 Z M  78.245 78.245  " />
 </g>
 </g>
 </g>
 <g>
 <g stroke="rgb(100.0%,69.9997%,69.9997%)">
 <g fill="rgb(100.0%,69.9997%,69.9997%)">
 <path d=" M  64.01863 64.01863 M  64.01863 64.01863 L  64.01863 78.245 L  78.245 78.245 L  78.245 64.01863 Z M  78.245 78.245  " />
 </g>
 </g>
 </g>
 <g>
 <g stroke="rgb(100.0%,0.0%,0.0%)">
 <g fill="rgb(100.0%,0.0%,0.0%)">
 <g stroke-width="0.8pt">
 <path d=" M  35.5659 135.15045 L  92.47136 135.15045 L  92.47136 120.92409 L  120.92409 120.92409 L  120.92409 92.47136 L  92.47136 92.47136 L  92.47136 106.69772 L  64.01863 106.69772 L  64.01863 92.47136 L  78.245 92.47136 L  78.245 78.245 L  106.69772 78.245 L  106.69772 64.01863 L  120.92409 64.01863 L  120.92409 21.33954 L  106.69772 21.33954 L  106.69772 7.11317 L  49.79227 7.11317 L  49.79227 21.33954 L  21.33954 21.33954 L  21.33954 49.79227 L  49.79227 49.79227 L  49.79227 35.5659 L  78.245 35.5659 L  78.245 49.79227 L  64.01863 49.79227 L  64.01863 64.01863 L  35.5659 64.01863 L  35.5659 78.245 L  21.33954 78.245 L  21.33954 120.92409 L  35.5659 120.92409 Z  " style="fill:none"/>
 </g>
 </g>
 </g>
 </g>
 <g>
 <g stroke="rgb(50.0%,50.0%,50.0%)">
 <g fill="rgb(50.0%,50.0%,50.0%)">
 <g stroke-width="0.2pt">
 <path d=" M  0.0 0.0 M  0.0 0.0 L  142.26364 0.0 M  0.0 14.22636 L  142.26364 14.22636 M  0.0 28.45273 L  142.26364 28.45273 M  0.0 42.6791 L  142.26364 42.6791 M  0.0 56.90546 L  142.26364 56.90546 M  0.0 71.13182 L  142.26364 71.13182 M  0.0 85.35818 L  142.26364 85.35818 M  0.0 99.58455 L  142.26364 99.58455 M  0.0 113.81091 L  142.26364 113.81091 M  0.0 128.03728 L  142.26364 128.03728 M  0.0 142.25365 L  142.26364 142.25365 M  0.0 0.0 L  0.0 142.26364 M  14.22636 0.0 L  14.22636 142.26364 M  28.45273 0.0 L  28.45273 142.26364 M  42.6791 0.0 L  42.6791 142.26364 M  56.90546 0.0 L  56.90546 142.26364 M  71.13182 0.0 L  71.13182 142.26364 M  85.35818 0.0 L  85.35818 142.26364 M  99.58455 0.0 L  99.58455 142.26364 M  113.81091 0.0 L  113.81091 142.26364 M  128.03728 0.0 L  128.03728 142.26364 M  142.25365 0.0 L  142.25365 142.26364  " style="fill:none"/>
 </g>
 </g>
 </g>
 </g>

 <!--- points -->

<g>
<g stroke="rgb(33.00018%,33.00018%,33.00018%)">
<g fill="rgb(33.00018%,33.00018%,33.00018%)">
<path d=" M  42.6791 128.03728 M  44.10172 128.03728 C  44.10172 128.82297 43.46478 129.4599 42.6791 129.4599 C  41.8934 129.4599 41.25647 128.82297 41.25647 128.03728 C  41.25647 127.25159 41.8934 126.61465 42.6791 126.61465 C  43.46478 126.61465 44.10172 127.25159 44.10172 128.03728 Z M  42.6791 128.03728  " />
</g>
</g>
</g>
<g>
<g stroke="rgb(33.00018%,33.00018%,33.00018%)">
<g fill="rgb(33.00018%,33.00018%,33.00018%)">
<path d=" M  99.58455 14.22636 M  101.00717 14.22636 C  101.00717 15.01205 100.37024 15.64899 99.58455 15.64899 C  98.79886 15.64899 98.16193 15.01205 98.16193 14.22636 C  98.16193 13.44067 98.79886 12.80374 99.58455 12.80374 C  100.37024 12.80374 101.00717 13.44067 101.00717 14.22636 Z M  99.58455 14.22636  " />
</g>
</g>
</g>
<g>
<g stroke="rgb(33.00018%,33.00018%,33.00018%)">
<g fill="rgb(33.00018%,33.00018%,33.00018%)">
<path d=" M  56.90546 128.03728 M  58.32808 128.03728 C  58.32808 128.82297 57.69115 129.4599 56.90546 129.4599 C  56.11977 129.4599 55.48283 128.82297 55.48283 128.03728 C  55.48283 127.25159 56.11977 126.61465 56.90546 126.61465 C  57.69115 126.61465 58.32808 127.25159 58.32808 128.03728 Z M  56.90546 128.03728  " />
</g>
</g>
</g>
<g>
<g stroke="rgb(33.00018%,33.00018%,33.00018%)">
<g fill="rgb(33.00018%,33.00018%,33.00018%)">
<path d=" M  85.35818 14.22636 M  86.7808 14.22636 C  86.7808 15.01205 86.14388 15.64899 85.35818 15.64899 C  84.5725 15.64899 83.93556 15.01205 83.93556 14.22636 C  83.93556 13.44067 84.5725 12.80374 85.35818 12.80374 C  86.14388 12.80374 86.7808 13.44067 86.7808 14.22636 Z M  85.35818 14.22636  " />
</g>
</g>
</g>
<g>
<g stroke="rgb(33.00018%,33.00018%,33.00018%)">
<g fill="rgb(33.00018%,33.00018%,33.00018%)">
<path d=" M  71.13182 128.03728 M  72.55444 128.03728 C  72.55444 128.82297 71.91751 129.4599 71.13182 129.4599 C  70.34613 129.4599 69.7092 128.82297 69.7092 128.03728 C  69.7092 127.25159 70.34613 126.61465 71.13182 126.61465 C  71.91751 126.61465 72.55444 127.25159 72.55444 128.03728 Z M  71.13182 128.03728  " />
</g>
</g>
</g>
<g>
<g stroke="rgb(33.00018%,33.00018%,33.00018%)">
<g fill="rgb(33.00018%,33.00018%,33.00018%)">
<path d=" M  71.13182 14.22636 M  72.55444 14.22636 C  72.55444 15.01205 71.91751 15.64899 71.13182 15.64899 C  70.34613 15.64899 69.7092 15.01205 69.7092 14.22636 C  69.7092 13.44067 70.34613 12.80374 71.13182 12.80374 C  71.91751 12.80374 72.55444 13.44067 72.55444 14.22636 Z M  71.13182 14.22636  " />
</g>
</g>
</g>
<g>
<g stroke="rgb(33.00018%,33.00018%,33.00018%)">
<g fill="rgb(33.00018%,33.00018%,33.00018%)">
<path d=" M  85.35818 128.03728 M  86.7808 128.03728 C  86.7808 128.82297 86.14388 129.4599 85.35818 129.4599 C  84.5725 129.4599 83.93556 128.82297 83.93556 128.03728 C  83.93556 127.25159 84.5725 126.61465 85.35818 126.61465 C  86.14388 126.61465 86.7808 127.25159 86.7808 128.03728 Z M  85.35818 128.03728  " />
</g>
</g>
</g>
<g>
<g stroke="rgb(33.00018%,33.00018%,33.00018%)">
<g fill="rgb(33.00018%,33.00018%,33.00018%)">
<path d=" M  56.90546 14.22636 M  58.32808 14.22636 C  58.32808 15.01205 57.69115 15.64899 56.90546 15.64899 C  56.11977 15.64899 55.48283 15.01205 55.48283 14.22636 C  55.48283 13.44067 56.11977 12.80374 56.90546 12.80374 C  57.69115 12.80374 58.32808 13.44067 58.32808 14.22636 Z M  56.90546 14.22636  " />
</g>
</g>
</g>
<g>
<g stroke="rgb(33.00018%,33.00018%,33.00018%)">
<g fill="rgb(33.00018%,33.00018%,33.00018%)">
<path d=" M  28.45273 113.81091 M  29.87535 113.81091 C  29.87535 114.5966 29.23842 115.23354 28.45273 115.23354 C  27.66704 115.23354 27.0301 114.5966 27.0301 113.81091 C  27.0301 113.02522 27.66704 112.38829 28.45273 112.38829 C  29.23842 112.38829 29.87535 113.02522 29.87535 113.81091 Z M  28.45273 113.81091  " />
</g>
</g>
</g>
<g>
<g stroke="rgb(33.00018%,33.00018%,33.00018%)">
<g fill="rgb(33.00018%,33.00018%,33.00018%)">
<path d=" M  113.81091 28.45273 M  115.23354 28.45273 C  115.23354 29.23842 114.5966 29.87535 113.81091 29.87535 C  113.02522 29.87535 112.38829 29.23842 112.38829 28.45273 C  112.38829 27.66704 113.02522 27.0301 113.81091 27.0301 C  114.5966 27.0301 115.23354 27.66704 115.23354 28.45273 Z M  113.81091 28.45273  " />
</g>
</g>
</g>
<g>
<g stroke="rgb(33.00018%,33.00018%,33.00018%)">
<g fill="rgb(33.00018%,33.00018%,33.00018%)">
<path d=" M  42.6791 113.81091 M  44.10172 113.81091 C  44.10172 114.5966 43.46478 115.23354 42.6791 115.23354 C  41.8934 115.23354 41.25647 114.5966 41.25647 113.81091 C  41.25647 113.02522 41.8934 112.38829 42.6791 112.38829 C  43.46478 112.38829 44.10172 113.02522 44.10172 113.81091 Z M  42.6791 113.81091  " />
</g>
</g>
</g>
<g>
<g stroke="rgb(33.00018%,33.00018%,33.00018%)">
<g fill="rgb(33.00018%,33.00018%,33.00018%)">
<path d=" M  99.58455 28.45273 M  101.00717 28.45273 C  101.00717 29.23842 100.37024 29.87535 99.58455 29.87535 C  98.79886 29.87535 98.16193 29.23842 98.16193 28.45273 C  98.16193 27.66704 98.79886 27.0301 99.58455 27.0301 C  100.37024 27.0301 101.00717 27.66704 101.00717 28.45273 Z M  99.58455 28.45273  " />
</g>
</g>
</g>
<g>
<g stroke="rgb(33.00018%,33.00018%,33.00018%)">
<g fill="rgb(33.00018%,33.00018%,33.00018%)">
<path d=" M  56.90546 113.81091 M  58.32808 113.81091 C  58.32808 114.5966 57.69115 115.23354 56.90546 115.23354 C  56.11977 115.23354 55.48283 114.5966 55.48283 113.81091 C  55.48283 113.02522 56.11977 112.38829 56.90546 112.38829 C  57.69115 112.38829 58.32808 113.02522 58.32808 113.81091 Z M  56.90546 113.81091  " />
</g>
</g>
</g>
<g>
<g stroke="rgb(33.00018%,33.00018%,33.00018%)">
<g fill="rgb(33.00018%,33.00018%,33.00018%)">
<path d=" M  85.35818 28.45273 M  86.7808 28.45273 C  86.7808 29.23842 86.14388 29.87535 85.35818 29.87535 C  84.5725 29.87535 83.93556 29.23842 83.93556 28.45273 C  83.93556 27.66704 84.5725 27.0301 85.35818 27.0301 C  86.14388 27.0301 86.7808 27.66704 86.7808 28.45273 Z M  85.35818 28.45273  " />
</g>
</g>
</g>
<g>
<g stroke="rgb(33.00018%,33.00018%,33.00018%)">
<g fill="rgb(33.00018%,33.00018%,33.00018%)">
<path d=" M  71.13182 113.81091 M  72.55444 113.81091 C  72.55444 114.5966 71.91751 115.23354 71.13182 115.23354 C  70.34613 115.23354 69.7092 114.5966 69.7092 113.81091 C  69.7092 113.02522 70.34613 112.38829 71.13182 112.38829 C  71.91751 112.38829 72.55444 113.02522 72.55444 113.81091 Z M  71.13182 113.81091  " />
</g>
</g>
</g>
<g>
<g stroke="rgb(33.00018%,33.00018%,33.00018%)">
<g fill="rgb(33.00018%,33.00018%,33.00018%)">
<path d=" M  71.13182 28.45273 M  72.55444 28.45273 C  72.55444 29.23842 71.91751 29.87535 71.13182 29.87535 C  70.34613 29.87535 69.7092 29.23842 69.7092 28.45273 C  69.7092 27.66704 70.34613 27.0301 71.13182 27.0301 C  71.91751 27.0301 72.55444 27.66704 72.55444 28.45273 Z M  71.13182 28.45273  " />
</g>
</g>
</g>
<g>
<g stroke="rgb(33.00018%,33.00018%,33.00018%)">
<g fill="rgb(33.00018%,33.00018%,33.00018%)">
<path d=" M  85.35818 113.81091 M  86.7808 113.81091 C  86.7808 114.5966 86.14388 115.23354 85.35818 115.23354 C  84.5725 115.23354 83.93556 114.5966 83.93556 113.81091 C  83.93556 113.02522 84.5725 112.38829 85.35818 112.38829 C  86.14388 112.38829 86.7808 113.02522 86.7808 113.81091 Z M  85.35818 113.81091  " />
</g>
</g>
</g>
<g>
<g stroke="rgb(33.00018%,33.00018%,33.00018%)">
<g fill="rgb(33.00018%,33.00018%,33.00018%)">
<path d=" M  56.90546 28.45273 M  58.32808 28.45273 C  58.32808 29.23842 57.69115 29.87535 56.90546 29.87535 C  56.11977 29.87535 55.48283 29.23842 55.48283 28.45273 C  55.48283 27.66704 56.11977 27.0301 56.90546 27.0301 C  57.69115 27.0301 58.32808 27.66704 58.32808 28.45273 Z M  56.90546 28.45273  " />
</g>
</g>
</g>
<g>
<g stroke="rgb(33.00018%,33.00018%,33.00018%)">
<g fill="rgb(33.00018%,33.00018%,33.00018%)">
<path d=" M  99.58455 113.81091 M  101.00717 113.81091 C  101.00717 114.5966 100.37024 115.23354 99.58455 115.23354 C  98.79886 115.23354 98.16193 114.5966 98.16193 113.81091 C  98.16193 113.02522 98.79886 112.38829 99.58455 112.38829 C  100.37024 112.38829 101.00717 113.02522 101.00717 113.81091 Z M  99.58455 113.81091  " />
</g>
</g>
</g>
<g>
<g stroke="rgb(33.00018%,33.00018%,33.00018%)">
<g fill="rgb(33.00018%,33.00018%,33.00018%)">
<path d=" M  42.6791 28.45273 M  44.10172 28.45273 C  44.10172 29.23842 43.46478 29.87535 42.6791 29.87535 C  41.8934 29.87535 41.25647 29.23842 41.25647 28.45273 C  41.25647 27.66704 41.8934 27.0301 42.6791 27.0301 C  43.46478 27.0301 44.10172 27.66704 44.10172 28.45273 Z M  42.6791 28.45273  " />
</g>
</g>
</g>
<g>
<g stroke="rgb(33.00018%,33.00018%,33.00018%)">
<g fill="rgb(33.00018%,33.00018%,33.00018%)">
<path d=" M  113.81091 113.81091 M  115.23354 113.81091 C  115.23354 114.5966 114.5966 115.23354 113.81091 115.23354 C  113.02522 115.23354 112.38829 114.5966 112.38829 113.81091 C  112.38829 113.02522 113.02522 112.38829 113.81091 112.38829 C  114.5966 112.38829 115.23354 113.02522 115.23354 113.81091 Z M  113.81091 113.81091  " />
</g>
</g>
</g>
<g>
<g stroke="rgb(33.00018%,33.00018%,33.00018%)">
<g fill="rgb(33.00018%,33.00018%,33.00018%)">
<path d=" M  28.45273 28.45273 M  29.87535 28.45273 C  29.87535 29.23842 29.23842 29.87535 28.45273 29.87535 C  27.66704 29.87535 27.0301 29.23842 27.0301 28.45273 C  27.0301 27.66704 27.66704 27.0301 28.45273 27.0301 C  29.23842 27.0301 29.87535 27.66704 29.87535 28.45273 Z M  28.45273 28.45273  " />
</g>
</g>
</g>
<g>
<g stroke="rgb(33.00018%,33.00018%,33.00018%)">
<g fill="rgb(33.00018%,33.00018%,33.00018%)">
<path d=" M  28.45273 99.58455 M  29.87535 99.58455 C  29.87535 100.37024 29.23842 101.00717 28.45273 101.00717 C  27.66704 101.00717 27.0301 100.37024 27.0301 99.58455 C  27.0301 98.79886 27.66704 98.16193 28.45273 98.16193 C  29.23842 98.16193 29.87535 98.79886 29.87535 99.58455 Z M  28.45273 99.58455  " />
</g>
</g>
</g>
<g>
<g stroke="rgb(33.00018%,33.00018%,33.00018%)">
<g fill="rgb(33.00018%,33.00018%,33.00018%)">
<path d=" M  113.81091 42.6791 M  115.23354 42.6791 C  115.23354 43.46478 114.5966 44.10172 113.81091 44.10172 C  113.02522 44.10172 112.38829 43.46478 112.38829 42.6791 C  112.38829 41.8934 113.02522 41.25647 113.81091 41.25647 C  114.5966 41.25647 115.23354 41.8934 115.23354 42.6791 Z M  113.81091 42.6791  " />
</g>
</g>
</g>
<g>
<g stroke="rgb(33.00018%,33.00018%,33.00018%)">
<g fill="rgb(33.00018%,33.00018%,33.00018%)">
<path d=" M  42.6791 99.58455 M  44.10172 99.58455 C  44.10172 100.37024 43.46478 101.00717 42.6791 101.00717 C  41.8934 101.00717 41.25647 100.37024 41.25647 99.58455 C  41.25647 98.79886 41.8934 98.16193 42.6791 98.16193 C  43.46478 98.16193 44.10172 98.79886 44.10172 99.58455 Z M  42.6791 99.58455  " />
</g>
</g>
</g>
<g>
<g stroke="rgb(33.00018%,33.00018%,33.00018%)">
<g fill="rgb(33.00018%,33.00018%,33.00018%)">
<path d=" M  99.58455 42.6791 M  101.00717 42.6791 C  101.00717 43.46478 100.37024 44.10172 99.58455 44.10172 C  98.79886 44.10172 98.16193 43.46478 98.16193 42.6791 C  98.16193 41.8934 98.79886 41.25647 99.58455 41.25647 C  100.37024 41.25647 101.00717 41.8934 101.00717 42.6791 Z M  99.58455 42.6791  " />
</g>
</g>
</g>
<g>
<g stroke="rgb(33.00018%,33.00018%,33.00018%)">
<g fill="rgb(33.00018%,33.00018%,33.00018%)">
<path d=" M  56.90546 99.58455 M  58.32808 99.58455 C  58.32808 100.37024 57.69115 101.00717 56.90546 101.00717 C  56.11977 101.00717 55.48283 100.37024 55.48283 99.58455 C  55.48283 98.79886 56.11977 98.16193 56.90546 98.16193 C  57.69115 98.16193 58.32808 98.79886 58.32808 99.58455 Z M  56.90546 99.58455  " />
</g>
</g>
</g>
<g>
<g stroke="rgb(33.00018%,33.00018%,33.00018%)">
<g fill="rgb(33.00018%,33.00018%,33.00018%)">
<path d=" M  85.35818 42.6791 M  86.7808 42.6791 C  86.7808 43.46478 86.14388 44.10172 85.35818 44.10172 C  84.5725 44.10172 83.93556 43.46478 83.93556 42.6791 C  83.93556 41.8934 84.5725 41.25647 85.35818 41.25647 C  86.14388 41.25647 86.7808 41.8934 86.7808 42.6791 Z M  85.35818 42.6791  " />
</g>
</g>
</g>
<g>
<g stroke="rgb(33.00018%,33.00018%,33.00018%)">
<g fill="rgb(33.00018%,33.00018%,33.00018%)">
<path d=" M  99.58455 99.58455 M  101.00717 99.58455 C  101.00717 100.37024 100.37024 101.00717 99.58455 101.00717 C  98.79886 101.00717 98.16193 100.37024 98.16193 99.58455 C  98.16193 98.79886 98.79886 98.16193 99.58455 98.16193 C  100.37024 98.16193 101.00717 98.79886 101.00717 99.58455 Z M  99.58455 99.58455  " />
</g>
</g>
</g>
<g>
<g stroke="rgb(33.00018%,33.00018%,33.00018%)">
<g fill="rgb(33.00018%,33.00018%,33.00018%)">
<path d=" M  42.6791 42.6791 M  44.10172 42.6791 C  44.10172 43.46478 43.46478 44.10172 42.6791 44.10172 C  41.8934 44.10172 41.25647 43.46478 41.25647 42.6791 C  41.25647 41.8934 41.8934 41.25647 42.6791 41.25647 C  43.46478 41.25647 44.10172 41.8934 44.10172 42.6791 Z M  42.6791 42.6791  " />
</g>
</g>
</g>
<g>
<g stroke="rgb(33.00018%,33.00018%,33.00018%)">
<g fill="rgb(33.00018%,33.00018%,33.00018%)">
<path d=" M  113.81091 99.58455 M  115.23354 99.58455 C  115.23354 100.37024 114.5966 101.00717 113.81091 101.00717 C  113.02522 101.00717 112.38829 100.37024 112.38829 99.58455 C  112.38829 98.79886 113.02522 98.16193 113.81091 98.16193 C  114.5966 98.16193 115.23354 98.79886 115.23354 99.58455 Z M  113.81091 99.58455  " />
</g>
</g>
</g>
<g>
<g stroke="rgb(33.00018%,33.00018%,33.00018%)">
<g fill="rgb(33.00018%,33.00018%,33.00018%)">
<path d=" M  28.45273 42.6791 M  29.87535 42.6791 C  29.87535 43.46478 29.23842 44.10172 28.45273 44.10172 C  27.66704 44.10172 27.0301 43.46478 27.0301 42.6791 C  27.0301 41.8934 27.66704 41.25647 28.45273 41.25647 C  29.23842 41.25647 29.87535 41.8934 29.87535 42.6791 Z M  28.45273 42.6791  " />
</g>
</g>
</g>
<g>
<g stroke="rgb(33.00018%,33.00018%,33.00018%)">
<g fill="rgb(33.00018%,33.00018%,33.00018%)">
<path d=" M  28.45273 85.35818 M  29.87535 85.35818 C  29.87535 86.14388 29.23842 86.7808 28.45273 86.7808 C  27.66704 86.7808 27.0301 86.14388 27.0301 85.35818 C  27.0301 84.5725 27.66704 83.93556 28.45273 83.93556 C  29.23842 83.93556 29.87535 84.5725 29.87535 85.35818 Z M  28.45273 85.35818  " />
</g>
</g>
</g>
<g>
<g stroke="rgb(33.00018%,33.00018%,33.00018%)">
<g fill="rgb(33.00018%,33.00018%,33.00018%)">
<path d=" M  113.81091 56.90546 M  115.23354 56.90546 C  115.23354 57.69115 114.5966 58.32808 113.81091 58.32808 C  113.02522 58.32808 112.38829 57.69115 112.38829 56.90546 C  112.38829 56.11977 113.02522 55.48283 113.81091 55.48283 C  114.5966 55.48283 115.23354 56.11977 115.23354 56.90546 Z M  113.81091 56.90546  " />
</g>
</g>
</g>
<g>
<g stroke="rgb(33.00018%,33.00018%,33.00018%)">
<g fill="rgb(33.00018%,33.00018%,33.00018%)">
<path d=" M  42.6791 85.35818 M  44.10172 85.35818 C  44.10172 86.14388 43.46478 86.7808 42.6791 86.7808 C  41.8934 86.7808 41.25647 86.14388 41.25647 85.35818 C  41.25647 84.5725 41.8934 83.93556 42.6791 83.93556 C  43.46478 83.93556 44.10172 84.5725 44.10172 85.35818 Z M  42.6791 85.35818  " />
</g>
</g>
</g>
<g>
<g stroke="rgb(33.00018%,33.00018%,33.00018%)">
<g fill="rgb(33.00018%,33.00018%,33.00018%)">
<path d=" M  99.58455 56.90546 M  101.00717 56.90546 C  101.00717 57.69115 100.37024 58.32808 99.58455 58.32808 C  98.79886 58.32808 98.16193 57.69115 98.16193 56.90546 C  98.16193 56.11977 98.79886 55.48283 99.58455 55.48283 C  100.37024 55.48283 101.00717 56.11977 101.00717 56.90546 Z M  99.58455 56.90546  " />
</g>
</g>
</g>
<g>
<g stroke="rgb(33.00018%,33.00018%,33.00018%)">
<g fill="rgb(33.00018%,33.00018%,33.00018%)">
<path d=" M  56.90546 85.35818 M  58.32808 85.35818 C  58.32808 86.14388 57.69115 86.7808 56.90546 86.7808 C  56.11977 86.7808 55.48283 86.14388 55.48283 85.35818 C  55.48283 84.5725 56.11977 83.93556 56.90546 83.93556 C  57.69115 83.93556 58.32808 84.5725 58.32808 85.35818 Z M  56.90546 85.35818  " />
</g>
</g>
</g>
<g>
<g stroke="rgb(33.00018%,33.00018%,33.00018%)">
<g fill="rgb(33.00018%,33.00018%,33.00018%)">
<path d=" M  85.35818 56.90546 M  86.7808 56.90546 C  86.7808 57.69115 86.14388 58.32808 85.35818 58.32808 C  84.5725 58.32808 83.93556 57.69115 83.93556 56.90546 C  83.93556 56.11977 84.5725 55.48283 85.35818 55.48283 C  86.14388 55.48283 86.7808 56.11977 86.7808 56.90546 Z M  85.35818 56.90546  " />
</g>
</g>
</g>
<g>
<g stroke="rgb(33.00018%,33.00018%,33.00018%)">
<g fill="rgb(33.00018%,33.00018%,33.00018%)">
<path d=" M  71.13182 85.35818 M  72.55444 85.35818 C  72.55444 86.14388 71.91751 86.7808 71.13182 86.7808 C  70.34613 86.7808 69.7092 86.14388 69.7092 85.35818 C  69.7092 84.5725 70.34613 83.93556 71.13182 83.93556 C  71.91751 83.93556 72.55444 84.5725 72.55444 85.35818 Z M  71.13182 85.35818  " />
</g>
</g>
</g>
<g>
<g stroke="rgb(33.00018%,33.00018%,33.00018%)">
<g fill="rgb(33.00018%,33.00018%,33.00018%)">
<path d=" M  71.13182 56.90546 M  72.55444 56.90546 C  72.55444 57.69115 71.91751 58.32808 71.13182 58.32808 C  70.34613 58.32808 69.7092 57.69115 69.7092 56.90546 C  69.7092 56.11977 70.34613 55.48283 71.13182 55.48283 C  71.91751 55.48283 72.55444 56.11977 72.55444 56.90546 Z M  71.13182 56.90546  " />
</g>
</g>
</g>
<g>
<g stroke="rgb(33.00018%,33.00018%,33.00018%)">
<g fill="rgb(33.00018%,33.00018%,33.00018%)">
<path d=" M  42.6791 71.13182 M  44.10172 71.13182 C  44.10172 71.91751 43.46478 72.55444 42.6791 72.55444 C  41.8934 72.55444 41.25647 71.91751 41.25647 71.13182 C  41.25647 70.34613 41.8934 69.7092 42.6791 69.7092 C  43.46478 69.7092 44.10172 70.34613 44.10172 71.13182 Z M  42.6791 71.13182  " />
</g>
</g>
</g>
<g>
<g stroke="rgb(33.00018%,33.00018%,33.00018%)">
<g fill="rgb(33.00018%,33.00018%,33.00018%)">
<path d=" M  99.58455 71.13182 M  101.00717 71.13182 C  101.00717 71.91751 100.37024 72.55444 99.58455 72.55444 C  98.79886 72.55444 98.16193 71.91751 98.16193 71.13182 C  98.16193 70.34613 98.79886 69.7092 99.58455 69.7092 C  100.37024 69.7092 101.00717 70.34613 101.00717 71.13182 Z M  99.58455 71.13182  " />
</g>
</g>
</g>
<g>
<g stroke="rgb(33.00018%,33.00018%,33.00018%)">
<g fill="rgb(33.00018%,33.00018%,33.00018%)">
<path d=" M  56.90546 71.13182 M  58.32808 71.13182 C  58.32808 71.91751 57.69115 72.55444 56.90546 72.55444 C  56.11977 72.55444 55.48283 71.91751 55.48283 71.13182 C  55.48283 70.34613 56.11977 69.7092 56.90546 69.7092 C  57.69115 69.7092 58.32808 70.34613 58.32808 71.13182 Z M  56.90546 71.13182  " />
</g>
</g>
</g>
<g>
<g stroke="rgb(33.00018%,33.00018%,33.00018%)">
<g fill="rgb(33.00018%,33.00018%,33.00018%)">
<path d=" M  85.35818 71.13182 M  86.7808 71.13182 C  86.7808 71.91751 86.14388 72.55444 85.35818 72.55444 C  84.5725 72.55444 83.93556 71.91751 83.93556 71.13182 C  83.93556 70.34613 84.5725 69.7092 85.35818 69.7092 C  86.14388 69.7092 86.7808 70.34613 86.7808 71.13182 Z M  85.35818 71.13182  " />
</g>
</g>
</g>
<g>
<g stroke="rgb(33.00018%,33.00018%,33.00018%)">
<g fill="rgb(33.00018%,33.00018%,33.00018%)">
<path d=" M  71.13182 71.13182 M  72.55444 71.13182 C  72.55444 71.91751 71.91751 72.55444 71.13182 72.55444 C  70.34613 72.55444 69.7092 71.91751 69.7092 71.13182 C  69.7092 70.34613 70.34613 69.7092 71.13182 69.7092 C  71.91751 69.7092 72.55444 70.34613 72.55444 71.13182 Z M  71.13182 71.13182  " />
</g>
</g>
</g>
<g>
<g stroke="rgb(33.00018%,33.00018%,33.00018%)">
<g fill="rgb(33.00018%,33.00018%,33.00018%)">
<path d=" M  71.13182 71.13182 M  72.55444 71.13182 C  72.55444 71.91751 71.91751 72.55444 71.13182 72.55444 C  70.34613 72.55444 69.7092 71.91751 69.7092 71.13182 C  69.7092 70.34613 70.34613 69.7092 71.13182 69.7092 C  71.91751 69.7092 72.55444 70.34613 72.55444 71.13182 Z M  71.13182 71.13182  " />
</g>
</g>
</g>
 <!--- end points -->


 <!-- <g>
 <g stroke="rgb(100.0%,69.9997%,69.9997%)">
 <g fill="rgb(100.0%,69.9997%,69.9997%)">
 <g>
 <g stroke="rgb(100.0%,69.9997%,69.9997%)">
 <g fill="rgb(100.0%,69.9997%,69.9997%)">
 <path d=" M  55.40785 -19.71211 h  17.22156 v  10.9715 h  -17.22156 Z  " style="stroke:none"/>
 </g>
 </g>
 </g>

 </g>
 </g>
 </g> -->

 <!-- <g>
 <g stroke="rgb(100.0%,0.0%,0.0%)">
 <g fill="rgb(100.0%,0.0%,0.0%)">
 <g stroke-width="0.8pt">
 <path d=" M  128.03728 -14.22636 L  142.26364 -14.22636  " style="fill:none"/>
 </g>
 </g>
 </g>
 </g> -->
 <g>
 <g stroke-dasharray="0.4pt,1.0pt" stroke-dashoffset="0.0pt">
 <g stroke="rgb(0.0%,0.0%,0.0%)">
 <g fill="rgb(0.0%,0.0%,0.0%)">
 <path d=" M  0.0 142.26364 L  0.0 150.79955  " style="fill:none"/>
 </g>
 </g>
 </g>
 </g>
 <g>
 <g stroke-dasharray="0.4pt,1.0pt" stroke-dashoffset="0.0pt">
 <g stroke="rgb(0.0%,0.0%,0.0%)">
 <g fill="rgb(0.0%,0.0%,0.0%)">
 <path d=" M  14.22636 142.26364 L  14.22636 150.79955  " style="fill:none"/>
 </g>
 </g>
 </g>
 </g>
 <g>
 <g stroke="rgb(0.0%,0.0%,0.0%)">
 <g fill="rgb(0.0%,0.0%,0.0%)">
 <path d=" M  0.45999 145.82022 L  13.76637 145.82022  " style="fill:none"/>
 <g>
 <g transform="matrix(-1.0,0.0,0.0,-1.0,0.45999,145.82022)">
 <g>
 <g stroke-width="0.31999pt">
 <g stroke-dasharray="none" stroke-dashoffset="0.0pt">
 <g stroke-linecap="round">
 <g stroke-linejoin="round">
 <path d=" M  -1.19998 1.59998 C  -1.09998 0.99998 0.0 0.09999 0.29999 0.0 C  0.0 -0.09999 -1.09998 -0.99998 -1.19998 -1.59998  " style="fill:none"/>
 </g>
 </g>
 </g>
 </g>
 </g>
 </g>
 </g>
 <g>
 <g transform="matrix(1.0,0.0,0.0,1.0,13.76637,145.82022)">
 <g>
 <g stroke-width="0.31999pt">
 <g stroke-dasharray="none" stroke-dashoffset="0.0pt">
 <g stroke-linecap="round">
 <g stroke-linejoin="round">
 <path d=" M  -1.19998 1.59998 C  -1.09998 0.99998 0.0 0.09999 0.29999 0.0 C  0.0 -0.09999 -1.09998 -0.99998 -1.19998 -1.59998  " style="fill:none"/>
 </g>
 </g>
 </g>
 </g>
 </g>
 </g>
 </g>
 <g>
 <g>
 <g transform="matrix(1.0,0.0,0.0,1.0,4.23239,149.3532)">
 <g fill="rgb(0.0%,0.0%,0.0%)">
 <text style="stroke:none" transform="scale(1,-1) translate(2.88078,0)" text-anchor="middle"  font-size="10">
<tspan font-family="cmmi" font-size="10">h</tspan></text>
</g>
 </g>
 </g>
 </g>
 </g>
 </g>
 </g>
 </g>
 </g>
 </g>
 </g>
 </g>

                                    </g>
</svg>
