<?xml version="1.0" encoding="UTF-8" standalone="no"?>
<?xml-stylesheet href="2d-curv-estimator.css" type="text/css"?><svg
   xmlns:dc="http://purl.org/dc/elements/1.1/"
   xmlns:cc="http://creativecommons.org/ns#"
   xmlns:rdf="http://www.w3.org/1999/02/22-rdf-syntax-ns#"
   xmlns:svg="http://www.w3.org/2000/svg"
   xmlns="http://www.w3.org/2000/svg"
   xmlns:sodipodi="http://sodipodi.sourceforge.net/DTD/sodipodi-0.dtd"
   xmlns:inkscape="http://www.inkscape.org/namespaces/inkscape"
   width="159.57472pt"
   height="79.907349pt"
   viewBox="-0.09999 -0.4 159.57472 79.907346"
   id="svg2"
   version="1.1"
   inkscape:version="0.91 r"
   sodipodi:docname="2d-curv-estimator-2.svg">
  <metadata
     id="metadata602">
    <rdf:RDF>
      <cc:Work
         rdf:about="">
        <dc:format>image/svg+xml</dc:format>
        <dc:type
           rdf:resource="http://purl.org/dc/dcmitype/StillImage" />
        <dc:title></dc:title>
      </cc:Work>
    </rdf:RDF>
  </metadata>
  <defs
     id="defs600" />
  <sodipodi:namedview
     pagecolor="#ffffff"
     bordercolor="#666666"
     borderopacity="1"
     objecttolerance="10"
     gridtolerance="10"
     guidetolerance="10"
     inkscape:pageopacity="0"
     inkscape:pageshadow="2"
     inkscape:window-width="1200"
     inkscape:window-height="1868"
     id="namedview598"
     showgrid="false"
     fit-margin-top="0"
     fit-margin-left="0"
     fit-margin-right="0"
     fit-margin-bottom="0"
     inkscape:zoom="4.8541164"
     inkscape:cx="73.04771"
     inkscape:cy="38.641344"
     inkscape:window-x="0"
     inkscape:window-y="0"
     inkscape:window-maximized="1"
     inkscape:current-layer="g14" />
  <g
     id="g6"
     transform="matrix(1,0,0,-1,0.02501,79.382354)">
    <g
       style="stroke:#000000"
       id="g8">
      <g
         style="fill:#000000;stroke-width:0.4pt"
         id="g14">
        <g
           id="g16">
          <g
             style="stroke:#7f7f7f"
             id="g18">
            <g
               style="fill:#7f7f7f"
               id="g20">
              <g
                 style="stroke-width:0.2pt"
                 id="g22">
                <path
                   inkscape:connector-curvature="0"
                   id="path24"
                   style="fill:none"
                   d="M 0,0 M 0,0 159.33472,0 M 0,3.98337 l 159.33472,0 M 0,7.96674 l 159.33472,0 M 0,11.9501 l 159.33472,0 M 0,15.93347 l 159.33472,0 M 0,19.91684 l 159.33472,0 M 0,23.9002 l 159.33472,0 M 0,27.88358 l 159.33472,0 M 0,31.86694 l 159.33472,0 M 0,35.85031 l 159.33472,0 M 0,39.83368 l 159.33472,0 M 0,43.81705 l 159.33472,0 M 0,47.80042 l 159.33472,0 M 0,51.78378 l 159.33472,0 M 0,55.76715 l 159.33472,0 M 0,59.75052 l 159.33472,0 M 0,63.73389 l 159.33472,0 M 0,67.71725 l 159.33472,0 M 0,71.70062 l 159.33472,0 M 0,75.68399 l 159.33472,0 M 0,79.65736 l 159.33472,0 M 0,0 0,79.66736 M 3.98337,0 l 0,79.66736 M 7.96674,0 l 0,79.66736 M 11.9501,0 l 0,79.66736 M 15.93347,0 l 0,79.66736 M 19.91684,0 l 0,79.66736 M 23.9002,0 l 0,79.66736 M 27.88358,0 l 0,79.66736 M 31.86694,0 l 0,79.66736 M 35.85031,0 l 0,79.66736 M 39.83368,0 l 0,79.66736 M 43.81705,0 l 0,79.66736 M 47.80042,0 l 0,79.66736 M 51.78378,0 l 0,79.66736 M 55.76715,0 l 0,79.66736 M 59.75052,0 l 0,79.66736 M 63.73389,0 l 0,79.66736 M 67.71725,0 l 0,79.66736 M 71.70062,0 l 0,79.66736 M 75.68399,0 l 0,79.66736 M 79.66736,0 l 0,79.66736 M 83.65073,0 l 0,79.66736 M 87.6341,0 l 0,79.66736 M 91.61746,0 l 0,79.66736 M 95.60083,0 l 0,79.66736 M 99.5842,0 l 0,79.66736 M 103.56757,0 l 0,79.66736 M 107.55093,0 l 0,79.66736 M 111.5343,0 l 0,79.66736 M 115.51767,0 l 0,79.66736 M 119.50104,0 l 0,79.66736 M 123.4844,0 l 0,79.66736 M 127.46777,0 l 0,79.66736 M 131.45114,0 l 0,79.66736 M 135.43451,0 l 0,79.66736 M 139.41788,0 l 0,79.66736 M 143.40125,0 l 0,79.66736 M 147.38461,0 l 0,79.66736 M 151.36798,0 l 0,79.66736 M 155.35135,0 l 0,79.66736 M 159.32472,0 l 0,79.66736" />
              </g>
            </g>
          </g>
        </g>
        <g
           id="g26">
          <g
             style="stroke-width:0.8pt"
             id="g28">
            <g
               style="stroke:#009700"
               id="g30">
              <g
                 style="fill:#009700"
                 id="g32">
                <g
                   style="stroke-opacity:0.25"
                   id="g34">
                  <g
                     style="fill-opacity:0.25"
                     id="g36">
                    <path
                       inkscape:connector-curvature="0"
                       id="path38"
                       d="m 19.91684,0 c 0,32.99973 26.75079,59.75052 59.75052,59.75052 32.99972,0 59.75052,-26.75079 59.75052,-59.75052" />
                  </g>
                </g>
              </g>
            </g>
          </g>
        </g>
        <g
           id="g40">
          <g
             style="stroke-width:0.8pt"
             id="g42">
            <g
               style="stroke:#545454"
               id="g44">
              <g
                 style="fill:#545454"
                 id="g46">
                <path
                   inkscape:connector-curvature="0"
                   id="path48"
                   style="fill:none"
                   d="m 19.91684,0 c 0,32.99973 26.75079,59.75052 59.75052,59.75052 32.99972,0 59.75052,-26.75079 59.75052,-59.75052" />
              </g>
            </g>
          </g>
        </g>
        <g
           id="g50">
          <g
             id="g52">
            <g
               id="g54"
               transform="translate(43.81705,47.80042)">
              <g
                 style="fill:#000000"
                 id="g56">
                <text
                   id="text58"
                   font-size="10"
                   transform="scale(1,-1)"
                   style="font-size:10px;text-anchor:middle;stroke:none" />
              </g>
            </g>
          </g>
        </g>
        <g
           id="g60">
          <g
             style="stroke-width:0.8pt"
             id="g62">
            <g
               style="stroke:#000000"
               id="g64">
              <g
                 style="fill:#000000"
                 id="g66">
                <path
                   inkscape:connector-curvature="0"
                   id="path68"
                   d="m 43.81705,47.80042 m 0.7967,0 c 0,0.44 -0.3567,0.7967 -0.7967,0.7967 -0.44001,0 -0.79671,-0.3567 -0.79671,-0.7967 0,-0.44001 0.3567,-0.79671 0.79671,-0.79671 0.44,0 0.7967,0.3567 0.7967,0.79671 z m -0.7967,0" />
              </g>
            </g>
          </g>
        </g>
        <g
           id="g70">
          <g
             style="stroke-width:0.8pt"
             id="g72">
            <g
               style="stroke:#ff9700"
               id="g74">
              <g
                 style="fill:#ff9700"
                 id="g76">
                <g
                   style="stroke-opacity:0.25"
                   id="g78">
                  <g
                     style="fill-opacity:0.25"
                     id="g80">
                    <path
                       inkscape:connector-curvature="0"
                       id="path82"
                       d="m 43.81705,47.80042 m 23.9002,0 c 0,13.19988 -10.70031,23.9002 -23.9002,23.9002 -13.19989,0 -23.90021,-10.70032 -23.90021,-23.9002 0,-13.1999 10.70032,-23.90022 23.90021,-23.90022 13.19989,0 23.9002,10.70032 23.9002,23.90022 z m -23.9002,0" />
                  </g>
                </g>
              </g>
            </g>
          </g>
        </g>
        <g
           id="g84">
          <g
             style="stroke-width:0.8pt"
             id="g86">
            <g
               style="stroke:#ff9700"
               id="g88">
              <g
                 style="fill:#ff9700"
                 id="g90">
                <path
                   inkscape:connector-curvature="0"
                   id="path92"
                   style="fill:none"
                   d="m 43.81705,47.80042 m 23.9002,0 c 0,13.19988 -10.70031,23.9002 -23.9002,23.9002 -13.19989,0 -23.90021,-10.70032 -23.90021,-23.9002 0,-13.1999 10.70032,-23.90022 23.90021,-23.90022 13.19989,0 23.9002,10.70032 23.9002,23.90022 z m -23.9002,0" />
              </g>
            </g>
          </g>
        </g>
        <path
           inkscape:connector-curvature="0"
           id="path94"
           style="fill:none"
           d="" />
        <g
           id="g108">
          <g
             style="stroke-width:0.8pt"
             id="g110">
            <g
               style="stroke:#176eb3"
               id="g112">
              <g
                 style="fill:#176eb3"
                 id="g114">
                <path
                   inkscape:connector-curvature="0"
                   id="path116"
                   d="m 31.86694,27.88358 m 0.79671,0 c 0,0.44 -0.3567,0.7967 -0.79671,0.7967 -0.44,0 -0.7967,-0.3567 -0.7967,-0.7967 0,-0.44001 0.3567,-0.79671 0.7967,-0.79671 0.44001,0 0.79671,0.3567 0.79671,0.79671 z m -0.79671,0" />
              </g>
            </g>
          </g>
        </g>
        <g
           id="g118">
          <g
             style="stroke-width:0.8pt"
             id="g120">
            <g
               style="stroke:#176eb3"
               id="g122">
              <g
                 style="fill:#176eb3"
                 id="g124">
                <path
                   inkscape:connector-curvature="0"
                   id="path126"
                   d="m 35.85031,27.88358 m 0.79671,0 c 0,0.44 -0.35671,0.7967 -0.79671,0.7967 -0.44,0 -0.79671,-0.3567 -0.79671,-0.7967 0,-0.44001 0.35671,-0.79671 0.79671,-0.79671 0.44,0 0.79671,0.3567 0.79671,0.79671 z m -0.79671,0" />
              </g>
            </g>
          </g>
        </g>
        <g
           id="g128">
          <g
             style="stroke-width:0.8pt"
             id="g130">
            <g
               style="stroke:#176eb3"
               id="g132">
              <g
                 style="fill:#176eb3"
                 id="g134">
                <path
                   inkscape:connector-curvature="0"
                   id="path136"
                   d="m 39.83368,27.88358 m 0.79671,0 c 0,0.44 -0.35671,0.7967 -0.79671,0.7967 -0.44,0 -0.79671,-0.3567 -0.79671,-0.7967 0,-0.44001 0.35671,-0.79671 0.79671,-0.79671 0.44,0 0.79671,0.3567 0.79671,0.79671 z m -0.79671,0" />
              </g>
            </g>
          </g>
        </g>
        <g
           id="g138">
          <g
             style="stroke-width:0.8pt"
             id="g140">
            <g
               style="stroke:#176eb3"
               id="g142">
              <g
                 style="fill:#176eb3"
                 id="g144">
                <path
                   inkscape:connector-curvature="0"
                   id="path146"
                   d="m 43.81705,27.88358 m 0.7967,0 c 0,0.44 -0.3567,0.7967 -0.7967,0.7967 -0.44001,0 -0.79671,-0.3567 -0.79671,-0.7967 0,-0.44001 0.3567,-0.79671 0.79671,-0.79671 0.44,0 0.7967,0.3567 0.7967,0.79671 z m -0.7967,0" />
              </g>
            </g>
          </g>
        </g>
        <g
           id="g148">
          <g
             style="stroke-width:0.8pt"
             id="g150">
            <g
               style="stroke:#176eb3"
               id="g152">
              <g
                 style="fill:#176eb3"
                 id="g154">
                <path
                   inkscape:connector-curvature="0"
                   id="path156"
                   d="m 47.80042,27.88358 m 0.7967,0 c 0,0.44 -0.3567,0.7967 -0.7967,0.7967 -0.44001,0 -0.79671,-0.3567 -0.79671,-0.7967 0,-0.44001 0.3567,-0.79671 0.79671,-0.79671 0.44,0 0.7967,0.3567 0.7967,0.79671 z m -0.7967,0" />
              </g>
            </g>
          </g>
        </g>
        <g
           id="g158">
          <g
             style="stroke-width:0.8pt"
             id="g160">
            <g
               style="stroke:#176eb3"
               id="g162">
              <g
                 style="fill:#176eb3"
                 id="g164">
                <path
                   inkscape:connector-curvature="0"
                   id="path166"
                   d="m 51.78378,27.88358 m 0.79671,0 c 0,0.44 -0.3567,0.7967 -0.79671,0.7967 -0.44,0 -0.7967,-0.3567 -0.7967,-0.7967 0,-0.44001 0.3567,-0.79671 0.7967,-0.79671 0.44001,0 0.79671,0.3567 0.79671,0.79671 z m -0.79671,0" />
              </g>
            </g>
          </g>
        </g>
        <g
           id="g168">
          <g
             style="stroke-width:0.8pt"
             id="g170">
            <g
               style="stroke:#176eb3"
               id="g172">
              <g
                 style="fill:#176eb3"
                 id="g174">
                <path
                   inkscape:connector-curvature="0"
                   id="path176"
                   d="m 55.76715,27.88358 m 0.79671,0 c 0,0.44 -0.35671,0.7967 -0.79671,0.7967 -0.44,0 -0.79671,-0.3567 -0.79671,-0.7967 0,-0.44001 0.35671,-0.79671 0.79671,-0.79671 0.44,0 0.79671,0.3567 0.79671,0.79671 z m -0.79671,0" />
              </g>
            </g>
          </g>
        </g>
        <g
           id="g178">
          <g
             style="stroke-width:0.8pt"
             id="g180">
            <g
               style="stroke:#176eb3"
               id="g182">
              <g
                 style="fill:#176eb3"
                 id="g184">
                <path
                   inkscape:connector-curvature="0"
                   id="path186"
                   d="m 31.86694,31.86694 m 0.79671,0 c 0,0.44001 -0.3567,0.79671 -0.79671,0.79671 -0.44,0 -0.7967,-0.3567 -0.7967,-0.79671 0,-0.44 0.3567,-0.7967 0.7967,-0.7967 0.44001,0 0.79671,0.3567 0.79671,0.7967 z m -0.79671,0" />
              </g>
            </g>
          </g>
        </g>
        <g
           id="g188">
          <g
             style="stroke-width:0.8pt"
             id="g190">
            <g
               style="stroke:#176eb3"
               id="g192">
              <g
                 style="fill:#176eb3"
                 id="g194">
                <path
                   inkscape:connector-curvature="0"
                   id="path196"
                   d="m 35.85031,31.86694 m 0.79671,0 c 0,0.44001 -0.35671,0.79671 -0.79671,0.79671 -0.44,0 -0.79671,-0.3567 -0.79671,-0.79671 0,-0.44 0.35671,-0.7967 0.79671,-0.7967 0.44,0 0.79671,0.3567 0.79671,0.7967 z m -0.79671,0" />
              </g>
            </g>
          </g>
        </g>
        <g
           id="g198">
          <g
             style="stroke-width:0.8pt"
             id="g200">
            <g
               style="stroke:#176eb3"
               id="g202">
              <g
                 style="fill:#176eb3"
                 id="g204">
                <path
                   inkscape:connector-curvature="0"
                   id="path206"
                   d="m 39.83368,31.86694 m 0.79671,0 c 0,0.44001 -0.35671,0.79671 -0.79671,0.79671 -0.44,0 -0.79671,-0.3567 -0.79671,-0.79671 0,-0.44 0.35671,-0.7967 0.79671,-0.7967 0.44,0 0.79671,0.3567 0.79671,0.7967 z m -0.79671,0" />
              </g>
            </g>
          </g>
        </g>
        <g
           id="g208">
          <g
             style="stroke-width:0.8pt"
             id="g210">
            <g
               style="stroke:#176eb3"
               id="g212">
              <g
                 style="fill:#176eb3"
                 id="g214">
                <path
                   inkscape:connector-curvature="0"
                   id="path216"
                   d="m 43.81705,31.86694 m 0.7967,0 c 0,0.44001 -0.3567,0.79671 -0.7967,0.79671 -0.44001,0 -0.79671,-0.3567 -0.79671,-0.79671 0,-0.44 0.3567,-0.7967 0.79671,-0.7967 0.44,0 0.7967,0.3567 0.7967,0.7967 z m -0.7967,0" />
              </g>
            </g>
          </g>
        </g>
        <g
           id="g218">
          <g
             style="stroke-width:0.8pt"
             id="g220">
            <g
               style="stroke:#176eb3"
               id="g222">
              <g
                 style="fill:#176eb3"
                 id="g224">
                <path
                   inkscape:connector-curvature="0"
                   id="path226"
                   d="m 47.80042,31.86694 m 0.7967,0 c 0,0.44001 -0.3567,0.79671 -0.7967,0.79671 -0.44001,0 -0.79671,-0.3567 -0.79671,-0.79671 0,-0.44 0.3567,-0.7967 0.79671,-0.7967 0.44,0 0.7967,0.3567 0.7967,0.7967 z m -0.7967,0" />
              </g>
            </g>
          </g>
        </g>
        <g
           id="g228">
          <g
             style="stroke-width:0.8pt"
             id="g230">
            <g
               style="stroke:#176eb3"
               id="g232">
              <g
                 style="fill:#176eb3"
                 id="g234">
                <path
                   inkscape:connector-curvature="0"
                   id="path236"
                   d="m 51.78378,31.86694 m 0.79671,0 c 0,0.44001 -0.3567,0.79671 -0.79671,0.79671 -0.44,0 -0.7967,-0.3567 -0.7967,-0.79671 0,-0.44 0.3567,-0.7967 0.7967,-0.7967 0.44001,0 0.79671,0.3567 0.79671,0.7967 z m -0.79671,0" />
              </g>
            </g>
          </g>
        </g>
        <g
           id="g238">
          <g
             style="stroke-width:0.8pt"
             id="g240">
            <g
               style="stroke:#176eb3"
               id="g242">
              <g
                 style="fill:#176eb3"
                 id="g244">
                <path
                   inkscape:connector-curvature="0"
                   id="path246"
                   d="m 55.76715,31.86694 m 0.79671,0 c 0,0.44001 -0.35671,0.79671 -0.79671,0.79671 -0.44,0 -0.79671,-0.3567 -0.79671,-0.79671 0,-0.44 0.35671,-0.7967 0.79671,-0.7967 0.44,0 0.79671,0.3567 0.79671,0.7967 z m -0.79671,0" />
              </g>
            </g>
          </g>
        </g>
        <g
           id="g248">
          <g
             style="stroke-width:0.8pt"
             id="g250">
            <g
               style="stroke:#176eb3"
               id="g252">
              <g
                 style="fill:#176eb3"
                 id="g254">
                <path
                   inkscape:connector-curvature="0"
                   id="path256"
                   d="m 59.75052,31.86694 m 0.79671,0 c 0,0.44001 -0.35671,0.79671 -0.79671,0.79671 -0.44,0 -0.79671,-0.3567 -0.79671,-0.79671 0,-0.44 0.35671,-0.7967 0.79671,-0.7967 0.44,0 0.79671,0.3567 0.79671,0.7967 z m -0.79671,0" />
              </g>
            </g>
          </g>
        </g>
        <g
           id="g258">
          <g
             style="stroke-width:0.8pt"
             id="g260">
            <g
               style="stroke:#176eb3"
               id="g262">
              <g
                 style="fill:#176eb3"
                 id="g264">
                <path
                   inkscape:connector-curvature="0"
                   id="path266"
                   d="m 35.85031,35.85031 m 0.79671,0 c 0,0.44 -0.35671,0.79671 -0.79671,0.79671 -0.44,0 -0.79671,-0.35671 -0.79671,-0.79671 0,-0.44 0.35671,-0.79671 0.79671,-0.79671 0.44,0 0.79671,0.35671 0.79671,0.79671 z m -0.79671,0" />
              </g>
            </g>
          </g>
        </g>
        <g
           id="g268">
          <g
             style="stroke-width:0.8pt"
             id="g270">
            <g
               style="stroke:#176eb3"
               id="g272">
              <g
                 style="fill:#176eb3"
                 id="g274">
                <path
                   inkscape:connector-curvature="0"
                   id="path276"
                   d="m 39.83368,35.85031 m 0.79671,0 c 0,0.44 -0.35671,0.79671 -0.79671,0.79671 -0.44,0 -0.79671,-0.35671 -0.79671,-0.79671 0,-0.44 0.35671,-0.79671 0.79671,-0.79671 0.44,0 0.79671,0.35671 0.79671,0.79671 z m -0.79671,0" />
              </g>
            </g>
          </g>
        </g>
        <g
           id="g278">
          <g
             style="stroke-width:0.8pt"
             id="g280">
            <g
               style="stroke:#176eb3"
               id="g282">
              <g
                 style="fill:#176eb3"
                 id="g284">
                <path
                   inkscape:connector-curvature="0"
                   id="path286"
                   d="m 43.81705,35.85031 m 0.7967,0 c 0,0.44 -0.3567,0.79671 -0.7967,0.79671 -0.44001,0 -0.79671,-0.35671 -0.79671,-0.79671 0,-0.44 0.3567,-0.79671 0.79671,-0.79671 0.44,0 0.7967,0.35671 0.7967,0.79671 z m -0.7967,0" />
              </g>
            </g>
          </g>
        </g>
        <g
           id="g288">
          <g
             style="stroke-width:0.8pt"
             id="g290">
            <g
               style="stroke:#176eb3"
               id="g292">
              <g
                 style="fill:#176eb3"
                 id="g294">
                <path
                   inkscape:connector-curvature="0"
                   id="path296"
                   d="m 47.80042,35.85031 m 0.7967,0 c 0,0.44 -0.3567,0.79671 -0.7967,0.79671 -0.44001,0 -0.79671,-0.35671 -0.79671,-0.79671 0,-0.44 0.3567,-0.79671 0.79671,-0.79671 0.44,0 0.7967,0.35671 0.7967,0.79671 z m -0.7967,0" />
              </g>
            </g>
          </g>
        </g>
        <g
           id="g298">
          <g
             style="stroke-width:0.8pt"
             id="g300">
            <g
               style="stroke:#176eb3"
               id="g302">
              <g
                 style="fill:#176eb3"
                 id="g304">
                <path
                   inkscape:connector-curvature="0"
                   id="path306"
                   d="m 51.78378,35.85031 m 0.79671,0 c 0,0.44 -0.3567,0.79671 -0.79671,0.79671 -0.44,0 -0.7967,-0.35671 -0.7967,-0.79671 0,-0.44 0.3567,-0.79671 0.7967,-0.79671 0.44001,0 0.79671,0.35671 0.79671,0.79671 z m -0.79671,0" />
              </g>
            </g>
          </g>
        </g>
        <g
           id="g308">
          <g
             style="stroke-width:0.8pt"
             id="g310">
            <g
               style="stroke:#176eb3"
               id="g312">
              <g
                 style="fill:#176eb3"
                 id="g314">
                <path
                   inkscape:connector-curvature="0"
                   id="path316"
                   d="m 55.76715,35.85031 m 0.79671,0 c 0,0.44 -0.35671,0.79671 -0.79671,0.79671 -0.44,0 -0.79671,-0.35671 -0.79671,-0.79671 0,-0.44 0.35671,-0.79671 0.79671,-0.79671 0.44,0 0.79671,0.35671 0.79671,0.79671 z m -0.79671,0" />
              </g>
            </g>
          </g>
        </g>
        <g
           id="g318">
          <g
             style="stroke-width:0.8pt"
             id="g320">
            <g
               style="stroke:#176eb3"
               id="g322">
              <g
                 style="fill:#176eb3"
                 id="g324">
                <path
                   inkscape:connector-curvature="0"
                   id="path326"
                   d="m 59.75052,35.85031 m 0.79671,0 c 0,0.44 -0.35671,0.79671 -0.79671,0.79671 -0.44,0 -0.79671,-0.35671 -0.79671,-0.79671 0,-0.44 0.35671,-0.79671 0.79671,-0.79671 0.44,0 0.79671,0.35671 0.79671,0.79671 z m -0.79671,0" />
              </g>
            </g>
          </g>
        </g>
        <g
           id="g328">
          <g
             style="stroke-width:0.8pt"
             id="g330">
            <g
               style="stroke:#176eb3"
               id="g332">
              <g
                 style="fill:#176eb3"
                 id="g334">
                <path
                   inkscape:connector-curvature="0"
                   id="path336"
                   d="m 63.73389,35.85031 m 0.79671,0 c 0,0.44 -0.35671,0.79671 -0.79671,0.79671 -0.44001,0 -0.79671,-0.35671 -0.79671,-0.79671 0,-0.44 0.3567,-0.79671 0.79671,-0.79671 0.44,0 0.79671,0.35671 0.79671,0.79671 z m -0.79671,0" />
              </g>
            </g>
          </g>
        </g>
        <g
           id="g338">
          <g
             style="stroke-width:0.8pt"
             id="g340">
            <g
               style="stroke:#176eb3"
               id="g342">
              <g
                 style="fill:#176eb3"
                 id="g344">
                <path
                   inkscape:connector-curvature="0"
                   id="path346"
                   d="m 35.85031,39.83368 m 0.79671,0 c 0,0.44 -0.35671,0.79671 -0.79671,0.79671 -0.44,0 -0.79671,-0.35671 -0.79671,-0.79671 0,-0.44 0.35671,-0.79671 0.79671,-0.79671 0.44,0 0.79671,0.35671 0.79671,0.79671 z m -0.79671,0" />
              </g>
            </g>
          </g>
        </g>
        <g
           id="g348">
          <g
             style="stroke-width:0.8pt"
             id="g350">
            <g
               style="stroke:#176eb3"
               id="g352">
              <g
                 style="fill:#176eb3"
                 id="g354">
                <path
                   inkscape:connector-curvature="0"
                   id="path356"
                   d="m 39.83368,39.83368 m 0.79671,0 c 0,0.44 -0.35671,0.79671 -0.79671,0.79671 -0.44,0 -0.79671,-0.35671 -0.79671,-0.79671 0,-0.44 0.35671,-0.79671 0.79671,-0.79671 0.44,0 0.79671,0.35671 0.79671,0.79671 z m -0.79671,0" />
              </g>
            </g>
          </g>
        </g>
        <g
           id="g358">
          <g
             style="stroke-width:0.8pt"
             id="g360">
            <g
               style="stroke:#176eb3"
               id="g362">
              <g
                 style="fill:#176eb3"
                 id="g364">
                <path
                   inkscape:connector-curvature="0"
                   id="path366"
                   d="m 43.81705,39.83368 m 0.7967,0 c 0,0.44 -0.3567,0.79671 -0.7967,0.79671 -0.44001,0 -0.79671,-0.35671 -0.79671,-0.79671 0,-0.44 0.3567,-0.79671 0.79671,-0.79671 0.44,0 0.7967,0.35671 0.7967,0.79671 z m -0.7967,0" />
              </g>
            </g>
          </g>
        </g>
        <g
           id="g368">
          <g
             style="stroke-width:0.8pt"
             id="g370">
            <g
               style="stroke:#176eb3"
               id="g372">
              <g
                 style="fill:#176eb3"
                 id="g374">
                <path
                   inkscape:connector-curvature="0"
                   id="path376"
                   d="m 47.80042,39.83368 m 0.7967,0 c 0,0.44 -0.3567,0.79671 -0.7967,0.79671 -0.44001,0 -0.79671,-0.35671 -0.79671,-0.79671 0,-0.44 0.3567,-0.79671 0.79671,-0.79671 0.44,0 0.7967,0.35671 0.7967,0.79671 z m -0.7967,0" />
              </g>
            </g>
          </g>
        </g>
        <g
           id="g378">
          <g
             style="stroke-width:0.8pt"
             id="g380">
            <g
               style="stroke:#176eb3"
               id="g382">
              <g
                 style="fill:#176eb3"
                 id="g384">
                <path
                   inkscape:connector-curvature="0"
                   id="path386"
                   d="m 51.78378,39.83368 m 0.79671,0 c 0,0.44 -0.3567,0.79671 -0.79671,0.79671 -0.44,0 -0.7967,-0.35671 -0.7967,-0.79671 0,-0.44 0.3567,-0.79671 0.7967,-0.79671 0.44001,0 0.79671,0.35671 0.79671,0.79671 z m -0.79671,0" />
              </g>
            </g>
          </g>
        </g>
        <g
           id="g388">
          <g
             style="stroke-width:0.8pt"
             id="g390">
            <g
               style="stroke:#176eb3"
               id="g392">
              <g
                 style="fill:#176eb3"
                 id="g394">
                <path
                   inkscape:connector-curvature="0"
                   id="path396"
                   d="m 55.76715,39.83368 m 0.79671,0 c 0,0.44 -0.35671,0.79671 -0.79671,0.79671 -0.44,0 -0.79671,-0.35671 -0.79671,-0.79671 0,-0.44 0.35671,-0.79671 0.79671,-0.79671 0.44,0 0.79671,0.35671 0.79671,0.79671 z m -0.79671,0" />
              </g>
            </g>
          </g>
        </g>
        <g
           id="g398">
          <g
             style="stroke-width:0.8pt"
             id="g400">
            <g
               style="stroke:#176eb3"
               id="g402">
              <g
                 style="fill:#176eb3"
                 id="g404">
                <path
                   inkscape:connector-curvature="0"
                   id="path406"
                   d="m 59.75052,39.83368 m 0.79671,0 c 0,0.44 -0.35671,0.79671 -0.79671,0.79671 -0.44,0 -0.79671,-0.35671 -0.79671,-0.79671 0,-0.44 0.35671,-0.79671 0.79671,-0.79671 0.44,0 0.79671,0.35671 0.79671,0.79671 z m -0.79671,0" />
              </g>
            </g>
          </g>
        </g>
        <g
           id="g408">
          <g
             style="stroke-width:0.8pt"
             id="g410">
            <g
               style="stroke:#176eb3"
               id="g412">
              <g
                 style="fill:#176eb3"
                 id="g414">
                <path
                   inkscape:connector-curvature="0"
                   id="path416"
                   d="m 63.73389,39.83368 m 0.79671,0 c 0,0.44 -0.35671,0.79671 -0.79671,0.79671 -0.44001,0 -0.79671,-0.35671 -0.79671,-0.79671 0,-0.44 0.3567,-0.79671 0.79671,-0.79671 0.44,0 0.79671,0.35671 0.79671,0.79671 z m -0.79671,0" />
              </g>
            </g>
          </g>
        </g>
        <g
           id="g418">
          <g
             style="stroke-width:0.8pt"
             id="g420">
            <g
               style="stroke:#176eb3"
               id="g422">
              <g
                 style="fill:#176eb3"
                 id="g424">
                <path
                   inkscape:connector-curvature="0"
                   id="path426"
                   d="m 39.83368,43.81705 m 0.79671,0 c 0,0.44 -0.35671,0.7967 -0.79671,0.7967 -0.44,0 -0.79671,-0.3567 -0.79671,-0.7967 0,-0.44001 0.35671,-0.79671 0.79671,-0.79671 0.44,0 0.79671,0.3567 0.79671,0.79671 z m -0.79671,0" />
              </g>
            </g>
          </g>
        </g>
        <g
           id="g428">
          <g
             style="stroke-width:0.8pt"
             id="g430">
            <g
               style="stroke:#176eb3"
               id="g432">
              <g
                 style="fill:#176eb3"
                 id="g434">
                <path
                   inkscape:connector-curvature="0"
                   id="path436"
                   d="m 43.81705,43.81705 m 0.7967,0 c 0,0.44 -0.3567,0.7967 -0.7967,0.7967 -0.44001,0 -0.79671,-0.3567 -0.79671,-0.7967 0,-0.44001 0.3567,-0.79671 0.79671,-0.79671 0.44,0 0.7967,0.3567 0.7967,0.79671 z m -0.7967,0" />
              </g>
            </g>
          </g>
        </g>
        <g
           id="g438">
          <g
             style="stroke-width:0.8pt"
             id="g440">
            <g
               style="stroke:#176eb3"
               id="g442">
              <g
                 style="fill:#176eb3"
                 id="g444">
                <path
                   inkscape:connector-curvature="0"
                   id="path446"
                   d="m 47.80042,43.81705 m 0.7967,0 c 0,0.44 -0.3567,0.7967 -0.7967,0.7967 -0.44001,0 -0.79671,-0.3567 -0.79671,-0.7967 0,-0.44001 0.3567,-0.79671 0.79671,-0.79671 0.44,0 0.7967,0.3567 0.7967,0.79671 z m -0.7967,0" />
              </g>
            </g>
          </g>
        </g>
        <g
           id="g448">
          <g
             style="stroke-width:0.8pt"
             id="g450">
            <g
               style="stroke:#176eb3"
               id="g452">
              <g
                 style="fill:#176eb3"
                 id="g454">
                <path
                   inkscape:connector-curvature="0"
                   id="path456"
                   d="m 51.78378,43.81705 m 0.79671,0 c 0,0.44 -0.3567,0.7967 -0.79671,0.7967 -0.44,0 -0.7967,-0.3567 -0.7967,-0.7967 0,-0.44001 0.3567,-0.79671 0.7967,-0.79671 0.44001,0 0.79671,0.3567 0.79671,0.79671 z m -0.79671,0" />
              </g>
            </g>
          </g>
        </g>
        <g
           id="g458">
          <g
             style="stroke-width:0.8pt"
             id="g460">
            <g
               style="stroke:#176eb3"
               id="g462">
              <g
                 style="fill:#176eb3"
                 id="g464">
                <path
                   inkscape:connector-curvature="0"
                   id="path466"
                   d="m 55.76715,43.81705 m 0.79671,0 c 0,0.44 -0.35671,0.7967 -0.79671,0.7967 -0.44,0 -0.79671,-0.3567 -0.79671,-0.7967 0,-0.44001 0.35671,-0.79671 0.79671,-0.79671 0.44,0 0.79671,0.3567 0.79671,0.79671 z m -0.79671,0" />
              </g>
            </g>
          </g>
        </g>
        <g
           id="g468">
          <g
             style="stroke-width:0.8pt"
             id="g470">
            <g
               style="stroke:#176eb3"
               id="g472">
              <g
                 style="fill:#176eb3"
                 id="g474">
                <path
                   inkscape:connector-curvature="0"
                   id="path476"
                   d="m 59.75052,43.81705 m 0.79671,0 c 0,0.44 -0.35671,0.7967 -0.79671,0.7967 -0.44,0 -0.79671,-0.3567 -0.79671,-0.7967 0,-0.44001 0.35671,-0.79671 0.79671,-0.79671 0.44,0 0.79671,0.3567 0.79671,0.79671 z m -0.79671,0" />
              </g>
            </g>
          </g>
        </g>
        <g
           id="g478">
          <g
             style="stroke-width:0.8pt"
             id="g480">
            <g
               style="stroke:#176eb3"
               id="g482">
              <g
                 style="fill:#176eb3"
                 id="g484">
                <path
                   inkscape:connector-curvature="0"
                   id="path486"
                   d="m 63.73389,43.81705 m 0.79671,0 c 0,0.44 -0.35671,0.7967 -0.79671,0.7967 -0.44001,0 -0.79671,-0.3567 -0.79671,-0.7967 0,-0.44001 0.3567,-0.79671 0.79671,-0.79671 0.44,0 0.79671,0.3567 0.79671,0.79671 z m -0.79671,0" />
              </g>
            </g>
          </g>
        </g>
        <g
           id="g488">
          <g
             style="stroke-width:0.8pt"
             id="g490">
            <g
               style="stroke:#176eb3"
               id="g492">
              <g
                 style="fill:#176eb3"
                 id="g494">
                <path
                   inkscape:connector-curvature="0"
                   id="path496"
                   d="m 47.80042,47.80042 m 0.7967,0 c 0,0.44 -0.3567,0.7967 -0.7967,0.7967 -0.44001,0 -0.79671,-0.3567 -0.79671,-0.7967 0,-0.44001 0.3567,-0.79671 0.79671,-0.79671 0.44,0 0.7967,0.3567 0.7967,0.79671 z m -0.7967,0" />
              </g>
            </g>
          </g>
        </g>
        <g
           id="g498">
          <g
             style="stroke-width:0.8pt"
             id="g500">
            <g
               style="stroke:#176eb3"
               id="g502">
              <g
                 style="fill:#176eb3"
                 id="g504">
                <path
                   inkscape:connector-curvature="0"
                   id="path506"
                   d="m 51.78378,47.80042 m 0.79671,0 c 0,0.44 -0.3567,0.7967 -0.79671,0.7967 -0.44,0 -0.7967,-0.3567 -0.7967,-0.7967 0,-0.44001 0.3567,-0.79671 0.7967,-0.79671 0.44001,0 0.79671,0.3567 0.79671,0.79671 z m -0.79671,0" />
              </g>
            </g>
          </g>
        </g>
        <g
           id="g508">
          <g
             style="stroke-width:0.8pt"
             id="g510">
            <g
               style="stroke:#176eb3"
               id="g512">
              <g
                 style="fill:#176eb3"
                 id="g514">
                <path
                   inkscape:connector-curvature="0"
                   id="path516"
                   d="m 55.76715,47.80042 m 0.79671,0 c 0,0.44 -0.35671,0.7967 -0.79671,0.7967 -0.44,0 -0.79671,-0.3567 -0.79671,-0.7967 0,-0.44001 0.35671,-0.79671 0.79671,-0.79671 0.44,0 0.79671,0.3567 0.79671,0.79671 z m -0.79671,0" />
              </g>
            </g>
          </g>
        </g>
        <g
           id="g518">
          <g
             style="stroke-width:0.8pt"
             id="g520">
            <g
               style="stroke:#176eb3"
               id="g522">
              <g
                 style="fill:#176eb3"
                 id="g524">
                <path
                   inkscape:connector-curvature="0"
                   id="path526"
                   d="m 59.75052,47.80042 m 0.79671,0 c 0,0.44 -0.35671,0.7967 -0.79671,0.7967 -0.44,0 -0.79671,-0.3567 -0.79671,-0.7967 0,-0.44001 0.35671,-0.79671 0.79671,-0.79671 0.44,0 0.79671,0.3567 0.79671,0.79671 z m -0.79671,0" />
              </g>
            </g>
          </g>
        </g>
        <g
           id="g528">
          <g
             style="stroke-width:0.8pt"
             id="g530">
            <g
               style="stroke:#176eb3"
               id="g532">
              <g
                 style="fill:#176eb3"
                 id="g534">
                <path
                   inkscape:connector-curvature="0"
                   id="path536"
                   d="m 63.73389,47.80042 m 0.79671,0 c 0,0.44 -0.35671,0.7967 -0.79671,0.7967 -0.44001,0 -0.79671,-0.3567 -0.79671,-0.7967 0,-0.44001 0.3567,-0.79671 0.79671,-0.79671 0.44,0 0.79671,0.3567 0.79671,0.79671 z m -0.79671,0" />
              </g>
            </g>
          </g>
        </g>
        <g
           id="g538">
          <g
             style="stroke-width:0.8pt"
             id="g540">
            <g
               style="stroke:#176eb3"
               id="g542">
              <g
                 style="fill:#176eb3"
                 id="g544">
                <path
                   inkscape:connector-curvature="0"
                   id="path546"
                   d="m 51.78378,51.78378 m 0.79671,0 c 0,0.44001 -0.3567,0.79671 -0.79671,0.79671 -0.44,0 -0.7967,-0.3567 -0.7967,-0.79671 0,-0.44 0.3567,-0.7967 0.7967,-0.7967 0.44001,0 0.79671,0.3567 0.79671,0.7967 z m -0.79671,0" />
              </g>
            </g>
          </g>
        </g>
        <g
           id="g548">
          <g
             style="stroke-width:0.8pt"
             id="g550">
            <g
               style="stroke:#176eb3"
               id="g552">
              <g
                 style="fill:#176eb3"
                 id="g554">
                <path
                   inkscape:connector-curvature="0"
                   id="path556"
                   d="m 55.76715,51.78378 m 0.79671,0 c 0,0.44001 -0.35671,0.79671 -0.79671,0.79671 -0.44,0 -0.79671,-0.3567 -0.79671,-0.79671 0,-0.44 0.35671,-0.7967 0.79671,-0.7967 0.44,0 0.79671,0.3567 0.79671,0.7967 z m -0.79671,0" />
              </g>
            </g>
          </g>
        </g>
        <g
           id="g558">
          <g
             style="stroke-width:0.8pt"
             id="g560">
            <g
               style="stroke:#176eb3"
               id="g562">
              <g
                 style="fill:#176eb3"
                 id="g564">
                <path
                   inkscape:connector-curvature="0"
                   id="path566"
                   d="m 59.75052,51.78378 m 0.79671,0 c 0,0.44001 -0.35671,0.79671 -0.79671,0.79671 -0.44,0 -0.79671,-0.3567 -0.79671,-0.79671 0,-0.44 0.35671,-0.7967 0.79671,-0.7967 0.44,0 0.79671,0.3567 0.79671,0.7967 z m -0.79671,0" />
              </g>
            </g>
          </g>
        </g>
        <g
           id="g568">
          <g
             style="stroke-width:0.8pt"
             id="g570">
            <g
               style="stroke:#176eb3"
               id="g572">
              <g
                 style="fill:#176eb3"
                 id="g574">
                <path
                   inkscape:connector-curvature="0"
                   id="path576"
                   d="m 63.73389,51.78378 m 0.79671,0 c 0,0.44001 -0.35671,0.79671 -0.79671,0.79671 -0.44001,0 -0.79671,-0.3567 -0.79671,-0.79671 0,-0.44 0.3567,-0.7967 0.79671,-0.7967 0.44,0 0.79671,0.3567 0.79671,0.7967 z m -0.79671,0" />
              </g>
            </g>
          </g>
        </g>
        <g
           id="g578">
          <g
             style="stroke-width:0.8pt"
             id="g580">
            <g
               style="stroke:#176eb3"
               id="g582">
              <g
                 style="fill:#176eb3"
                 id="g584">
                <path
                   inkscape:connector-curvature="0"
                   id="path586"
                   d="m 59.75052,55.76715 m 0.79671,0 c 0,0.44 -0.35671,0.79671 -0.79671,0.79671 -0.44,0 -0.79671,-0.35671 -0.79671,-0.79671 0,-0.44 0.35671,-0.79671 0.79671,-0.79671 0.44,0 0.79671,0.35671 0.79671,0.79671 z m -0.79671,0" />
              </g>
            </g>
          </g>
        </g>
        <g
           id="g588">
          <g
             style="stroke-width:0.8pt"
             id="g590">
            <g
               style="stroke:#176eb3"
               id="g592">
              <g
                 style="fill:#176eb3"
                 id="g594">
                <path
                   inkscape:connector-curvature="0"
                   id="path596"
                   d="m 63.73389,55.76715 m 0.79671,0 c 0,0.44 -0.35671,0.79671 -0.79671,0.79671 -0.44001,0 -0.79671,-0.35671 -0.79671,-0.79671 0,-0.44 0.3567,-0.79671 0.79671,-0.79671 0.44,0 0.79671,0.35671 0.79671,0.79671 z m -0.79671,0" />
              </g>
            </g>
          </g>
        </g>
      </g>
    </g>
  </g>
</svg>
