<?xml version="1.0" encoding="iso-8859-1" standalone="no"?> 
<?xml-stylesheet href="2d-curv-estimator.css" type="text/css"?> 
<svg xmlns="http://www.w3.org/2000/svg" xmlns:xlink="http://www.w3.org/1999/xlink" width="154.04639pt" height="72.1861pt" viewBox="-8.7359 -25.80772 154.04639 72.1861 "> 
<g transform="translate(0, 46.37837 ) scale(1,-1) translate(0,25.80772 )"> 
   <g> 
 <g stroke="rgb(0.0%,0.0%,0.0%)"> 
 <g fill="rgb(0.0%,0.0%,0.0%)"> 
 <g stroke-width="0.4pt"> 
 <g> 
 <g> 
 <g stroke="rgb(33.00018%,33.00018%,33.00018%)"> 
 <g fill="rgb(33.00018%,33.00018%,33.00018%)"> 
 <g stroke-opacity="0.25"> 
 <g fill-opacity="0.25"> 
 <path d=" M  -8.5359 -8.5359 M  -8.5359 -8.5359 L  -8.5359 8.5359 L  8.5359 8.5359 L  8.5359 -8.5359 Z M  8.5359 8.5359  " /> 
 </g> 
 </g> 
 </g> 
 </g> 
 </g> 
 <g> 
 <g stroke="rgb(33.00018%,33.00018%,33.00018%)"> 
 <g fill="rgb(33.00018%,33.00018%,33.00018%)"> 
 <path d=" M  0.0 0.0 M  1.70728 0.0 C  1.70728 0.9429 0.9429 1.70728 0.0 1.70728 C  -0.9429 1.70728 -1.70728 0.9429 -1.70728 0.0 C  -1.70728 -0.9429 -0.9429 -1.70728 0.0 -1.70728 C  0.9429 -1.70728 1.70728 -0.9429 1.70728 0.0 Z M  0.0 0.0  " /> 
 </g> 
 </g> 
 </g> 
 <g> 
 <g stroke="rgb(33.00018%,33.00018%,33.00018%)"> 
 <g fill="rgb(33.00018%,33.00018%,33.00018%)"> 
 <g stroke-opacity="0.25"> 
 <g fill-opacity="0.25"> 
 <path d=" M  8.5359 -8.5359 M  8.5359 -8.5359 L  8.5359 8.5359 L  25.60773 8.5359 L  25.60773 -8.5359 Z M  25.60773 8.5359  " /> 
 </g> 
 </g> 
 </g> 
 </g> 
 </g> 
 <g> 
 <g stroke="rgb(33.00018%,33.00018%,33.00018%)"> 
 <g fill="rgb(33.00018%,33.00018%,33.00018%)"> 
 <path d=" M  17.07182 0.0 M  18.7791 0.0 C  18.7791 0.9429 18.01472 1.70728 17.07182 1.70728 C  16.12892 1.70728 15.36455 0.9429 15.36455 0.0 C  15.36455 -0.9429 16.12892 -1.70728 17.07182 -1.70728 C  18.01472 -1.70728 18.7791 -0.9429 18.7791 0.0 Z M  17.07182 0.0  " /> 
 </g> 
 </g> 
 </g> 
 <g> 
 <g stroke="rgb(33.00018%,33.00018%,33.00018%)"> 
 <g fill="rgb(33.00018%,33.00018%,33.00018%)"> 
 <g stroke-opacity="0.25"> 
 <g fill-opacity="0.25"> 
 <path d=" M  25.60773 -8.5359 M  25.60773 -8.5359 L  25.60773 8.5359 L  42.67955 8.5359 L  42.67955 -8.5359 Z M  42.67955 8.5359  " /> 
 </g> 
 </g> 
 </g> 
 </g> 
 </g> 
 <g> 
 <g stroke="rgb(33.00018%,33.00018%,33.00018%)"> 
 <g fill="rgb(33.00018%,33.00018%,33.00018%)"> 
 <path d=" M  34.14365 0.0 M  35.85092 0.0 C  35.85092 0.9429 35.08655 1.70728 34.14365 1.70728 C  33.20074 1.70728 32.43637 0.9429 32.43637 0.0 C  32.43637 -0.9429 33.20074 -1.70728 34.14365 -1.70728 C  35.08655 -1.70728 35.85092 -0.9429 35.85092 0.0 Z M  34.14365 0.0  " /> 
 </g> 
 </g> 
 </g> 
 <g> 
 <g stroke="rgb(33.00018%,33.00018%,33.00018%)"> 
 <g fill="rgb(33.00018%,33.00018%,33.00018%)"> 
 <g stroke-opacity="0.25"> 
 <g fill-opacity="0.25"> 
 <path d=" M  42.67955 -8.5359 M  42.67955 -8.5359 L  42.67955 8.5359 L  59.75137 8.5359 L  59.75137 -8.5359 Z M  59.75137 8.5359  " /> 
 </g> 
 </g> 
 </g> 
 </g> 
 </g> 
 <g> 
 <g stroke="rgb(33.00018%,33.00018%,33.00018%)"> 
 <g fill="rgb(33.00018%,33.00018%,33.00018%)"> 
 <path d=" M  51.21547 0.0 M  52.92274 0.0 C  52.92274 0.9429 52.15837 1.70728 51.21547 1.70728 C  50.27257 1.70728 49.5082 0.9429 49.5082 0.0 C  49.5082 -0.9429 50.27257 -1.70728 51.21547 -1.70728 C  52.15837 -1.70728 52.92274 -0.9429 52.92274 0.0 Z M  51.21547 0.0  " /> 
 </g> 
 </g> 
 </g> 
 <g> 
 <g stroke="rgb(33.00018%,33.00018%,33.00018%)"> 
 <g fill="rgb(33.00018%,33.00018%,33.00018%)"> 
 <g stroke-opacity="0.25"> 
 <g fill-opacity="0.25"> 
 <path d=" M  42.67955 8.5359 M  42.67955 8.5359 L  42.67955 25.60773 L  59.75137 25.60773 L  59.75137 8.5359 Z M  59.75137 25.60773  " /> 
 </g> 
 </g> 
 </g> 
 </g> 
 </g> 
 <g> 
 <g stroke="rgb(33.00018%,33.00018%,33.00018%)"> 
 <g fill="rgb(33.00018%,33.00018%,33.00018%)"> 
 <path d=" M  51.21547 17.07182 M  52.92274 17.07182 C  52.92274 18.01472 52.15837 18.7791 51.21547 18.7791 C  50.27257 18.7791 49.5082 18.01472 49.5082 17.07182 C  49.5082 16.12892 50.27257 15.36455 51.21547 15.36455 C  52.15837 15.36455 52.92274 16.12892 52.92274 17.07182 Z M  51.21547 17.07182  " /> 
 </g> 
 </g> 
 </g> 
 <g> 
 <g stroke="rgb(33.00018%,33.00018%,33.00018%)"> 
 <g fill="rgb(33.00018%,33.00018%,33.00018%)"> 
 <g stroke-opacity="0.25"> 
 <g fill-opacity="0.25"> 
 <path d=" M  59.75137 8.5359 M  59.75137 8.5359 L  59.75137 25.60773 L  76.8232 25.60773 L  76.8232 8.5359 Z M  76.8232 25.60773  " /> 
 </g> 
 </g> 
 </g> 
 </g> 
 </g> 
 <g> 
 <g stroke="rgb(33.00018%,33.00018%,33.00018%)"> 
 <g fill="rgb(33.00018%,33.00018%,33.00018%)"> 
 <path d=" M  68.2873 17.07182 M  69.99457 17.07182 C  69.99457 18.01472 69.2302 18.7791 68.2873 18.7791 C  67.34439 18.7791 66.58002 18.01472 66.58002 17.07182 C  66.58002 16.12892 67.34439 15.36455 68.2873 15.36455 C  69.2302 15.36455 69.99457 16.12892 69.99457 17.07182 Z M  68.2873 17.07182  " /> 
 </g> 
 </g> 
 </g> 
 <g> 
 <g stroke="rgb(33.00018%,33.00018%,33.00018%)"> 
 <g fill="rgb(33.00018%,33.00018%,33.00018%)"> 
 <g stroke-opacity="0.25"> 
 <g fill-opacity="0.25"> 
 <path d=" M  76.8232 8.5359 M  76.8232 8.5359 L  76.8232 25.60773 L  93.89502 25.60773 L  93.89502 8.5359 Z M  93.89502 25.60773  " /> 
 </g> 
 </g> 
 </g> 
 </g> 
 </g> 
 <g> 
 <g stroke="rgb(33.00018%,33.00018%,33.00018%)"> 
 <g fill="rgb(33.00018%,33.00018%,33.00018%)"> 
 <path d=" M  85.35912 17.07182 M  87.06639 17.07182 C  87.06639 18.01472 86.30202 18.7791 85.35912 18.7791 C  84.41621 18.7791 83.65184 18.01472 83.65184 17.07182 C  83.65184 16.12892 84.41621 15.36455 85.35912 15.36455 C  86.30202 15.36455 87.06639 16.12892 87.06639 17.07182 Z M  85.35912 17.07182  " /> 
 </g> 
 </g> 
 </g> 
 <g> 
 <g stroke="rgb(33.00018%,33.00018%,33.00018%)"> 
 <g fill="rgb(33.00018%,33.00018%,33.00018%)"> 
 <g stroke-opacity="0.25"> 
 <g fill-opacity="0.25"> 
 <path d=" M  76.8232 25.60773 M  76.8232 25.60773 L  76.8232 42.67955 L  93.89502 42.67955 L  93.89502 25.60773 Z M  93.89502 42.67955  " /> 
 </g> 
 </g> 
 </g> 
 </g> 
 </g> 
 <g> 
 <g stroke="rgb(33.00018%,33.00018%,33.00018%)"> 
 <g fill="rgb(33.00018%,33.00018%,33.00018%)"> 
 <path d=" M  85.35912 34.14365 M  87.06639 34.14365 C  87.06639 35.08655 86.30202 35.85092 85.35912 35.85092 C  84.41621 35.85092 83.65184 35.08655 83.65184 34.14365 C  83.65184 33.20074 84.41621 32.43637 85.35912 32.43637 C  86.30202 32.43637 87.06639 33.20074 87.06639 34.14365 Z M  85.35912 34.14365  " /> 
 </g> 
 </g> 
 </g> 
 <g> 
 <g stroke="rgb(33.00018%,33.00018%,33.00018%)"> 
 <g fill="rgb(33.00018%,33.00018%,33.00018%)"> 
 <g stroke-opacity="0.25"> 
 <g fill-opacity="0.25"> 
 <path d=" M  93.89502 25.60773 M  93.89502 25.60773 L  93.89502 42.67955 L  110.96684 42.67955 L  110.96684 25.60773 Z M  110.96684 42.67955  " /> 
 </g> 
 </g> 
 </g> 
 </g> 
 </g> 
 <g> 
 <g stroke="rgb(33.00018%,33.00018%,33.00018%)"> 
 <g fill="rgb(33.00018%,33.00018%,33.00018%)"> 
 <path d=" M  102.43094 34.14365 M  104.13821 34.14365 C  104.13821 35.08655 103.37384 35.85092 102.43094 35.85092 C  101.48804 35.85092 100.72366 35.08655 100.72366 34.14365 C  100.72366 33.20074 101.48804 32.43637 102.43094 32.43637 C  103.37384 32.43637 104.13821 33.20074 104.13821 34.14365 Z M  102.43094 34.14365  " /> 
 </g> 
 </g> 
 </g> 
 <g> 
 <g stroke="rgb(33.00018%,33.00018%,33.00018%)"> 
 <g fill="rgb(33.00018%,33.00018%,33.00018%)"> 
 <g stroke-opacity="0.25"> 
 <g fill-opacity="0.25"> 
 <path d=" M  110.96684 25.60773 M  110.96684 25.60773 L  110.96684 42.67955 L  128.03867 42.67955 L  128.03867 25.60773 Z M  128.03867 42.67955  " /> 
 </g> 
 </g> 
 </g> 
 </g> 
 </g> 
 <g> 
 <g stroke="rgb(33.00018%,33.00018%,33.00018%)"> 
 <g fill="rgb(33.00018%,33.00018%,33.00018%)"> 
 <path d=" M  119.50276 34.14365 M  121.21004 34.14365 C  121.21004 35.08655 120.44566 35.85092 119.50276 35.85092 C  118.55986 35.85092 117.79549 35.08655 117.79549 34.14365 C  117.79549 33.20074 118.55986 32.43637 119.50276 32.43637 C  120.44566 32.43637 121.21004 33.20074 121.21004 34.14365 Z M  119.50276 34.14365  " /> 
 </g> 
 </g> 
 </g> 
 <g> 
 <g stroke="rgb(33.00018%,33.00018%,33.00018%)"> 
 <g fill="rgb(33.00018%,33.00018%,33.00018%)"> 
 <g stroke-opacity="0.25"> 
 <g fill-opacity="0.25"> 
 <path d=" M  110.96684 8.5359 M  110.96684 8.5359 L  110.96684 25.60773 L  128.03867 25.60773 L  128.03867 8.5359 Z M  128.03867 25.60773  " /> 
 </g> 
 </g> 
 </g> 
 </g> 
 </g> 
 <g> 
 <g stroke="rgb(33.00018%,33.00018%,33.00018%)"> 
 <g fill="rgb(33.00018%,33.00018%,33.00018%)"> 
 <path d=" M  119.50276 17.07182 M  121.21004 17.07182 C  121.21004 18.01472 120.44566 18.7791 119.50276 18.7791 C  118.55986 18.7791 117.79549 18.01472 117.79549 17.07182 C  117.79549 16.12892 118.55986 15.36455 119.50276 15.36455 C  120.44566 15.36455 121.21004 16.12892 121.21004 17.07182 Z M  119.50276 17.07182  " /> 
 </g> 
 </g> 
 </g> 
 <g> 
 <g stroke="rgb(33.00018%,33.00018%,33.00018%)"> 
 <g fill="rgb(33.00018%,33.00018%,33.00018%)"> 
 <g stroke-opacity="0.25"> 
 <g fill-opacity="0.25"> 
 <path d=" M  110.96684 -8.5359 M  110.96684 -8.5359 L  110.96684 8.5359 L  128.03867 8.5359 L  128.03867 -8.5359 Z M  128.03867 8.5359  " /> 
 </g> 
 </g> 
 </g> 
 </g> 
 </g> 
 <g> 
 <g stroke="rgb(33.00018%,33.00018%,33.00018%)"> 
 <g fill="rgb(33.00018%,33.00018%,33.00018%)"> 
 <path d=" M  119.50276 0.0 M  121.21004 0.0 C  121.21004 0.9429 120.44566 1.70728 119.50276 1.70728 C  118.55986 1.70728 117.79549 0.9429 117.79549 0.0 C  117.79549 -0.9429 118.55986 -1.70728 119.50276 -1.70728 C  120.44566 -1.70728 121.21004 -0.9429 121.21004 0.0 Z M  119.50276 0.0  " /> 
 </g> 
 </g> 
 </g> 
 <g> 
 <g stroke="rgb(33.00018%,33.00018%,33.00018%)"> 
 <g fill="rgb(33.00018%,33.00018%,33.00018%)"> 
 <g stroke-opacity="0.25"> 
 <g fill-opacity="0.25"> 
 <path d=" M  128.03867 -8.5359 M  128.03867 -8.5359 L  128.03867 8.5359 L  145.11049 8.5359 L  145.11049 -8.5359 Z M  145.11049 8.5359  " /> 
 </g> 
 </g> 
 </g> 
 </g> 
 </g> 
 <g> 
 <g stroke="rgb(33.00018%,33.00018%,33.00018%)"> 
 <g fill="rgb(33.00018%,33.00018%,33.00018%)"> 
 <path d=" M  136.57458 0.0 M  138.28186 0.0 C  138.28186 0.9429 137.51749 1.70728 136.57458 1.70728 C  135.63168 1.70728 134.86731 0.9429 134.86731 0.0 C  134.86731 -0.9429 135.63168 -1.70728 136.57458 -1.70728 C  137.51749 -1.70728 138.28186 -0.9429 138.28186 0.0 Z M  136.57458 0.0  " /> 
 </g> 
 </g> 
 </g> 
 <g> 
 <g stroke="rgb(33.00018%,33.00018%,33.00018%)"> 
 <g fill="rgb(33.00018%,33.00018%,33.00018%)"> 
 <g stroke-opacity="0.25"> 
 <g fill-opacity="0.25"> 
 <path d=" M  128.03867 -25.60773 M  128.03867 -25.60773 L  128.03867 -8.5359 L  145.11049 -8.5359 L  145.11049 -25.60773 Z M  145.11049 -8.5359  " /> 
 </g> 
 </g> 
 </g> 
 </g> 
 </g> 
 <g> 
 <g stroke="rgb(33.00018%,33.00018%,33.00018%)"> 
 <g fill="rgb(33.00018%,33.00018%,33.00018%)"> 
 <path d=" M  136.57458 -17.07182 M  138.28186 -17.07182 C  138.28186 -16.12892 137.51749 -15.36455 136.57458 -15.36455 C  135.63168 -15.36455 134.86731 -16.12892 134.86731 -17.07182 C  134.86731 -18.01472 135.63168 -18.7791 136.57458 -18.7791 C  137.51749 -18.7791 138.28186 -18.01472 138.28186 -17.07182 Z M  136.57458 -17.07182  " /> 
 </g> 
 </g> 
 </g> 
 <g> 
 <g stroke="rgb(33.00018%,33.00018%,33.00018%)"> 
 <g fill="rgb(33.00018%,33.00018%,33.00018%)"> 
 <g stroke-width="0.8pt"> 
 <path d=" M  0.0 0.0 L  51.21547 0.0 L  51.21547 17.07182 L  85.35912 17.07182 L  85.35912 34.14365 L  119.50276 34.14365 L  119.50276 0.0 L  136.57458 0.0 L  136.57458 -17.07182  " style="fill:none"/> 
 </g> 
 </g> 
 </g> 
 </g> 
 <g> 
 <g stroke="rgb(100.0%,0.0%,0.0%)"> 
 <g fill="rgb(100.0%,0.0%,0.0%)"> 
 <g stroke-width="0.56905pt"> 
 <path d=" M  0.0 0.0 L  114.38115 46.09386 L  122.91707 28.1684 L  8.5359 -17.07182 Z  " style="fill:none"/> 
 </g> 
 </g> 
 </g> 
 </g> 
 <g> 
 <g stroke="rgb(100.0%,0.0%,0.0%)"> 
 <g fill="rgb(100.0%,0.0%,0.0%)"> 
 <g stroke-width="0.56905pt"> 
 <path d=" M  119.50276 34.14365 L  143.4032 -13.6575 L  129.74596 -20.48613 L  105.84525 28.1684 Z  " style="fill:none"/> 
 </g> 
 </g> 
 </g> 
 </g> 
 </g> 
 </g> 
 </g> 
 </g> 
 </g> 
 
                                               </g> 
</svg> 
