<?xml version="1.0" encoding="UTF-8" standalone="no"?>
<?xml-stylesheet href="2d-curv-estimator.css" type="text/css"?><svg
   xmlns:dc="http://purl.org/dc/elements/1.1/"
   xmlns:cc="http://creativecommons.org/ns#"
   xmlns:rdf="http://www.w3.org/1999/02/22-rdf-syntax-ns#"
   xmlns:svg="http://www.w3.org/2000/svg"
   xmlns="http://www.w3.org/2000/svg"
   xmlns:sodipodi="http://sodipodi.sourceforge.net/DTD/sodipodi-0.dtd"
   xmlns:inkscape="http://www.inkscape.org/namespaces/inkscape"
   width="159.57472pt"
   height="79.907349pt"
   viewBox="-0.09999 -0.4 159.57472 79.907346"
   id="svg2"
   version="1.1"
   inkscape:version="0.91 r"
   sodipodi:docname="2d-curv-estimator-1.svg">
  <metadata
     id="metadata232">
    <rdf:RDF>
      <cc:Work
         rdf:about="">
        <dc:format>image/svg+xml</dc:format>
        <dc:type
           rdf:resource="http://purl.org/dc/dcmitype/StillImage" />
        <dc:title></dc:title>
      </cc:Work>
    </rdf:RDF>
  </metadata>
  <defs
     id="defs230" />
  <sodipodi:namedview
     pagecolor="#ffffff"
     bordercolor="#666666"
     borderopacity="1"
     objecttolerance="10"
     gridtolerance="10"
     guidetolerance="10"
     inkscape:pageopacity="0"
     inkscape:pageshadow="2"
     inkscape:window-width="1200"
     inkscape:window-height="1868"
     id="namedview228"
     showgrid="false"
     fit-margin-top="0"
     fit-margin-left="0"
     fit-margin-right="0"
     fit-margin-bottom="0"
     inkscape:zoom="3.4323786"
     inkscape:cx="44.102754"
     inkscape:cy="110.75158"
     inkscape:window-x="0"
     inkscape:window-y="0"
     inkscape:window-maximized="1"
     inkscape:current-layer="g12" />
  <g
     transform="matrix(1,0,0,-1,0.02501,79.382354)"
     id="g4">
    <g
       id="g6">
      <g
         id="g8"
         style="stroke:#000000">
        <g
           id="g10"
           style="fill:#000000">
          <g
             id="g12"
             style="stroke-width:0.4pt">
            <g
               id="g16">
              <g
                 style="stroke:#7f7f7f"
                 id="g18">
                <g
                   style="fill:#7f7f7f"
                   id="g20">
                  <g
                     style="stroke-width:0.2pt"
                     id="g22">
                    <path
                       inkscape:connector-curvature="0"
                       id="path24"
                       style="fill:none"
                       d="M 0,0 M 0,0 159.33472,0 M 0,7.96674 l 159.33472,0 M 0,15.93347 l 159.33472,0 M 0,23.9002 l 159.33472,0 M 0,31.86694 l 159.33472,0 M 0,39.83368 l 159.33472,0 M 0,47.80042 l 159.33472,0 M 0,55.76715 l 159.33472,0 M 0,63.73389 l 159.33472,0 M 0,71.70062 l 159.33472,0 M 0,79.65736 l 159.33472,0 M 0,0 0,79.66736 M 7.96674,0 l 0,79.66736 M 15.93347,0 l 0,79.66736 M 23.9002,0 l 0,79.66736 M 31.86694,0 l 0,79.66736 M 39.83368,0 l 0,79.66736 M 47.80042,0 l 0,79.66736 M 55.76715,0 l 0,79.66736 M 63.73389,0 l 0,79.66736 M 71.70062,0 l 0,79.66736 M 79.66736,0 l 0,79.66736 M 87.6341,0 l 0,79.66736 M 95.60083,0 l 0,79.66736 M 103.56757,0 l 0,79.66736 M 111.5343,0 l 0,79.66736 M 119.50104,0 l 0,79.66736 M 127.46777,0 l 0,79.66736 M 135.43451,0 l 0,79.66736 M 143.40125,0 l 0,79.66736 M 151.36798,0 l 0,79.66736 M 159.32472,0 l 0,79.66736" />
                  </g>
                </g>
              </g>
            </g>
            <g
               id="g26">
              <g
                 style="stroke-width:0.8pt"
                 id="g28">
                <g
                   style="stroke:#009700"
                   id="g30">
                  <g
                     style="fill:#009700"
                     id="g32">
                    <g
                       style="stroke-opacity:0.25"
                       id="g34">
                      <g
                         style="fill-opacity:0.25"
                         id="g36">
                        <path
                           inkscape:connector-curvature="0"
                           id="path38"
                           d="m 19.91684,0 c 0,32.99973 26.75079,59.75052 59.75052,59.75052 32.99972,0 59.75052,-26.75079 59.75052,-59.75052" />
                      </g>
                    </g>
                  </g>
                </g>
              </g>
            </g>
            <g
               id="g40">
              <g
                 style="stroke-width:0.8pt"
                 id="g42">
                <g
                   style="stroke:#545454"
                   id="g44">
                  <g
                     style="fill:#545454"
                     id="g46">
                    <path
                       inkscape:connector-curvature="0"
                       id="path48"
                       style="fill:none"
                       d="m 19.91684,0 c 0,32.99973 26.75079,59.75052 59.75052,59.75052 32.99972,0 59.75052,-26.75079 59.75052,-59.75052" />
                  </g>
                </g>
              </g>
            </g>
            <g
               id="g50">
              <g
                 id="g52">
                <g
                   id="g54"
                   transform="translate(43.81705,47.80042)">
                  <g
                     style="fill:#000000"
                     id="g56">
                    <text
                       id="text58"
                       font-size="10"
                       transform="scale(1,-1)"
                       style="font-size:10px;text-anchor:middle;stroke:none" />
                  </g>
                </g>
              </g>
            </g>
            <g
               id="g60">
              <g
                 style="stroke-width:0.8pt"
                 id="g62">
                <g
                   style="stroke:#000000"
                   id="g64">
                  <g
                     style="fill:#000000"
                     id="g66">
                    <path
                       inkscape:connector-curvature="0"
                       id="path68"
                       d="m 43.81705,47.80042 m 0.7967,0 c 0,0.44 -0.3567,0.7967 -0.7967,0.7967 -0.44001,0 -0.79671,-0.3567 -0.79671,-0.7967 0,-0.44001 0.3567,-0.79671 0.79671,-0.79671 0.44,0 0.7967,0.3567 0.7967,0.79671 z m -0.7967,0" />
                  </g>
                </g>
              </g>
            </g>
            <g
               id="g70">
              <g
                 style="stroke-width:0.8pt"
                 id="g72">
                <g
                   style="stroke:#ff9700"
                   id="g74">
                  <g
                     style="fill:#ff9700"
                     id="g76">
                    <g
                       style="stroke-opacity:0.25"
                       id="g78">
                      <g
                         style="fill-opacity:0.25"
                         id="g80">
                        <path
                           inkscape:connector-curvature="0"
                           id="path82"
                           d="m 43.81705,47.80042 m 23.9002,0 c 0,13.19988 -10.70031,23.9002 -23.9002,23.9002 -13.19989,0 -23.90021,-10.70032 -23.90021,-23.9002 0,-13.1999 10.70032,-23.90022 23.90021,-23.90022 13.19989,0 23.9002,10.70032 23.9002,23.90022 z m -23.9002,0" />
                      </g>
                    </g>
                  </g>
                </g>
              </g>
            </g>
            <g
               id="g84">
              <g
                 style="stroke-width:0.8pt"
                 id="g86">
                <g
                   style="stroke:#ff9700"
                   id="g88">
                  <g
                     style="fill:#ff9700"
                     id="g90">
                    <path
                       inkscape:connector-curvature="0"
                       id="path92"
                       style="fill:none"
                       d="m 43.81705,47.80042 m 23.9002,0 c 0,13.19988 -10.70031,23.9002 -23.9002,23.9002 -13.19989,0 -23.90021,-10.70032 -23.90021,-23.9002 0,-13.1999 10.70032,-23.90022 23.90021,-23.90022 13.19989,0 23.9002,10.70032 23.9002,23.90022 z m -23.9002,0" />
                  </g>
                </g>
              </g>
            </g>
            <path
               inkscape:connector-curvature="0"
               id="path94"
               style="fill:none"
               d="" />
            <g
               id="g108">
              <g
                 style="stroke-width:0.8pt"
                 id="g110">
                <g
                   style="stroke:#176eb3"
                   id="g112">
                  <g
                     style="fill:#176eb3"
                     id="g114">
                    <path
                       inkscape:connector-curvature="0"
                       id="path116"
                       d="m 31.86694,31.86694 m 0.79671,0 c 0,0.44001 -0.3567,0.79671 -0.79671,0.79671 -0.44,0 -0.7967,-0.3567 -0.7967,-0.79671 0,-0.44 0.3567,-0.7967 0.7967,-0.7967 0.44001,0 0.79671,0.3567 0.79671,0.7967 z m -0.79671,0" />
                  </g>
                </g>
              </g>
            </g>
            <g
               id="g118">
              <g
                 style="stroke-width:0.8pt"
                 id="g120">
                <g
                   style="stroke:#176eb3"
                   id="g122">
                  <g
                     style="fill:#176eb3"
                     id="g124">
                    <path
                       inkscape:connector-curvature="0"
                       id="path126"
                       d="m 39.83368,31.86694 m 0.79671,0 c 0,0.44001 -0.35671,0.79671 -0.79671,0.79671 -0.44,0 -0.79671,-0.3567 -0.79671,-0.79671 0,-0.44 0.35671,-0.7967 0.79671,-0.7967 0.44,0 0.79671,0.3567 0.79671,0.7967 z m -0.79671,0" />
                  </g>
                </g>
              </g>
            </g>
            <g
               id="g128">
              <g
                 style="stroke-width:0.8pt"
                 id="g130">
                <g
                   style="stroke:#176eb3"
                   id="g132">
                  <g
                     style="fill:#176eb3"
                     id="g134">
                    <path
                       inkscape:connector-curvature="0"
                       id="path136"
                       d="m 47.80042,31.86694 m 0.7967,0 c 0,0.44001 -0.3567,0.79671 -0.7967,0.79671 -0.44001,0 -0.79671,-0.3567 -0.79671,-0.79671 0,-0.44 0.3567,-0.7967 0.79671,-0.7967 0.44,0 0.7967,0.3567 0.7967,0.7967 z m -0.7967,0" />
                  </g>
                </g>
              </g>
            </g>
            <g
               id="g138">
              <g
                 style="stroke-width:0.8pt"
                 id="g140">
                <g
                   style="stroke:#176eb3"
                   id="g142">
                  <g
                     style="fill:#176eb3"
                     id="g144">
                    <path
                       inkscape:connector-curvature="0"
                       id="path146"
                       d="m 55.76715,31.86694 m 0.79671,0 c 0,0.44001 -0.35671,0.79671 -0.79671,0.79671 -0.44,0 -0.79671,-0.3567 -0.79671,-0.79671 0,-0.44 0.35671,-0.7967 0.79671,-0.7967 0.44,0 0.79671,0.3567 0.79671,0.7967 z m -0.79671,0" />
                  </g>
                </g>
              </g>
            </g>
            <g
               id="g148">
              <g
                 style="stroke-width:0.8pt"
                 id="g150">
                <g
                   style="stroke:#176eb3"
                   id="g152">
                  <g
                     style="fill:#176eb3"
                     id="g154">
                    <path
                       inkscape:connector-curvature="0"
                       id="path156"
                       d="m 39.83368,39.83368 m 0.79671,0 c 0,0.44 -0.35671,0.79671 -0.79671,0.79671 -0.44,0 -0.79671,-0.35671 -0.79671,-0.79671 0,-0.44 0.35671,-0.79671 0.79671,-0.79671 0.44,0 0.79671,0.35671 0.79671,0.79671 z m -0.79671,0" />
                  </g>
                </g>
              </g>
            </g>
            <g
               id="g158">
              <g
                 style="stroke-width:0.8pt"
                 id="g160">
                <g
                   style="stroke:#176eb3"
                   id="g162">
                  <g
                     style="fill:#176eb3"
                     id="g164">
                    <path
                       inkscape:connector-curvature="0"
                       id="path166"
                       d="m 47.80042,39.83368 m 0.7967,0 c 0,0.44 -0.3567,0.79671 -0.7967,0.79671 -0.44001,0 -0.79671,-0.35671 -0.79671,-0.79671 0,-0.44 0.3567,-0.79671 0.79671,-0.79671 0.44,0 0.7967,0.35671 0.7967,0.79671 z m -0.7967,0" />
                  </g>
                </g>
              </g>
            </g>
            <g
               id="g168">
              <g
                 style="stroke-width:0.8pt"
                 id="g170">
                <g
                   style="stroke:#176eb3"
                   id="g172">
                  <g
                     style="fill:#176eb3"
                     id="g174">
                    <path
                       inkscape:connector-curvature="0"
                       id="path176"
                       d="m 55.76715,39.83368 m 0.79671,0 c 0,0.44 -0.35671,0.79671 -0.79671,0.79671 -0.44,0 -0.79671,-0.35671 -0.79671,-0.79671 0,-0.44 0.35671,-0.79671 0.79671,-0.79671 0.44,0 0.79671,0.35671 0.79671,0.79671 z m -0.79671,0" />
                  </g>
                </g>
              </g>
            </g>
            <g
               id="g178">
              <g
                 style="stroke-width:0.8pt"
                 id="g180">
                <g
                   style="stroke:#176eb3"
                   id="g182">
                  <g
                     style="fill:#176eb3"
                     id="g184">
                    <path
                       inkscape:connector-curvature="0"
                       id="path186"
                       d="m 63.73389,39.83368 m 0.79671,0 c 0,0.44 -0.35671,0.79671 -0.79671,0.79671 -0.44001,0 -0.79671,-0.35671 -0.79671,-0.79671 0,-0.44 0.3567,-0.79671 0.79671,-0.79671 0.44,0 0.79671,0.35671 0.79671,0.79671 z m -0.79671,0" />
                  </g>
                </g>
              </g>
            </g>
            <g
               id="g188">
              <g
                 style="stroke-width:0.8pt"
                 id="g190">
                <g
                   style="stroke:#176eb3"
                   id="g192">
                  <g
                     style="fill:#176eb3"
                     id="g194">
                    <path
                       inkscape:connector-curvature="0"
                       id="path196"
                       d="m 47.80042,47.80042 m 0.7967,0 c 0,0.44 -0.3567,0.7967 -0.7967,0.7967 -0.44001,0 -0.79671,-0.3567 -0.79671,-0.7967 0,-0.44001 0.3567,-0.79671 0.79671,-0.79671 0.44,0 0.7967,0.3567 0.7967,0.79671 z m -0.7967,0" />
                  </g>
                </g>
              </g>
            </g>
            <g
               id="g198">
              <g
                 style="stroke-width:0.8pt"
                 id="g200">
                <g
                   style="stroke:#176eb3"
                   id="g202">
                  <g
                     style="fill:#176eb3"
                     id="g204">
                    <path
                       inkscape:connector-curvature="0"
                       id="path206"
                       d="m 55.76715,47.80042 m 0.79671,0 c 0,0.44 -0.35671,0.7967 -0.79671,0.7967 -0.44,0 -0.79671,-0.3567 -0.79671,-0.7967 0,-0.44001 0.35671,-0.79671 0.79671,-0.79671 0.44,0 0.79671,0.3567 0.79671,0.79671 z m -0.79671,0" />
                  </g>
                </g>
              </g>
            </g>
            <g
               id="g208">
              <g
                 style="stroke-width:0.8pt"
                 id="g210">
                <g
                   style="stroke:#176eb3"
                   id="g212">
                  <g
                     style="fill:#176eb3"
                     id="g214">
                    <path
                       inkscape:connector-curvature="0"
                       id="path216"
                       d="m 63.73389,47.80042 m 0.79671,0 c 0,0.44 -0.35671,0.7967 -0.79671,0.7967 -0.44001,0 -0.79671,-0.3567 -0.79671,-0.7967 0,-0.44001 0.3567,-0.79671 0.79671,-0.79671 0.44,0 0.79671,0.3567 0.79671,0.79671 z m -0.79671,0" />
                  </g>
                </g>
              </g>
            </g>
            <g
               id="g218">
              <g
                 style="stroke-width:0.8pt"
                 id="g220">
                <g
                   style="stroke:#176eb3"
                   id="g222">
                  <g
                     style="fill:#176eb3"
                     id="g224">
                    <path
                       inkscape:connector-curvature="0"
                       id="path226"
                       d="m 63.73389,55.76715 m 0.79671,0 c 0,0.44 -0.35671,0.79671 -0.79671,0.79671 -0.44001,0 -0.79671,-0.35671 -0.79671,-0.79671 0,-0.44 0.3567,-0.79671 0.79671,-0.79671 0.44,0 0.79671,0.35671 0.79671,0.79671 z m -0.79671,0" />
                  </g>
                </g>
              </g>
            </g>
          </g>
        </g>
      </g>
    </g>
  </g>
</svg>
