<?xml version="1.0" encoding="iso-8859-1" standalone="no"?> 
<?xml-stylesheet href="2d-curv-estimator.css" type="text/css"?> 
<svg xmlns="http://www.w3.org/2000/svg" xmlns:xlink="http://www.w3.org/1999/xlink" width="142.46362pt" height="142.46362pt" viewBox="-0.09999 -0.09999 142.46362 142.46362 "> 
<g transform="translate(0, 142.36363 ) scale(1,-1) translate(0,0.09999 )"> 
<g> 
 <g stroke="rgb(0.0%,0.0%,0.0%)"> 
 <g fill="rgb(0.0%,0.0%,0.0%)"> 
 <g stroke-width="0.4pt"> 
 <g> 
 <g> 
 <g stroke="rgb(50.0%,50.0%,50.0%)"> 
 <g fill="rgb(50.0%,50.0%,50.0%)"> 
 <g stroke-width="0.2pt"> 
 <path d=" M  0.0 0.0 M  0.0 0.0 L  142.26364 0.0 M  0.0 7.11317 L  142.26364 7.11317 M  0.0 14.22635 L  142.26364 14.22635 M  0.0 21.33952 L  142.26364 21.33952 M  0.0 28.4527 L  142.26364 28.4527 M  0.0 35.56587 L  142.26364 35.56587 M  0.0 42.67905 L  142.26364 42.67905 M  0.0 49.79222 L  142.26364 49.79222 M  0.0 56.9054 L  142.26364 56.9054 M  0.0 64.01857 L  142.26364 64.01857 M  0.0 71.13174 L  142.26364 71.13174 M  0.0 78.24492 L  142.26364 78.24492 M  0.0 85.3581 L  142.26364 85.3581 M  0.0 92.47127 L  142.26364 92.47127 M  0.0 99.58444 L  142.26364 99.58444 M  0.0 106.69762 L  142.26364 106.69762 M  0.0 113.81079 L  142.26364 113.81079 M  0.0 120.92397 L  142.26364 120.92397 M  0.0 128.03714 L  142.26364 128.03714 M  0.0 135.15031 L  142.26364 135.15031 M  0.0 142.26349 L  142.26364 142.26349 M  0.0 0.0 L  0.0 142.26364 M  7.11317 0.0 L  7.11317 142.26364 M  14.22635 0.0 L  14.22635 142.26364 M  21.33952 0.0 L  21.33952 142.26364 M  28.4527 0.0 L  28.4527 142.26364 M  35.56587 0.0 L  35.56587 142.26364 M  42.67905 0.0 L  42.67905 142.26364 M  49.79222 0.0 L  49.79222 142.26364 M  56.9054 0.0 L  56.9054 142.26364 M  64.01857 0.0 L  64.01857 142.26364 M  71.13174 0.0 L  71.13174 142.26364 M  78.24492 0.0 L  78.24492 142.26364 M  85.3581 0.0 L  85.3581 142.26364 M  92.47127 0.0 L  92.47127 142.26364 M  99.58444 0.0 L  99.58444 142.26364 M  106.69762 0.0 L  106.69762 142.26364 M  113.81079 0.0 L  113.81079 142.26364 M  120.92397 0.0 L  120.92397 142.26364 M  128.03714 0.0 L  128.03714 142.26364 M  135.15031 0.0 L  135.15031 142.26364 M  142.26349 0.0 L  142.26349 142.26364  " style="fill:none"/> 
 </g> 
 </g> 
 </g> 
 </g> 
 <g> 
 <g> 
 <g transform="matrix(1.0,0.0,0.0,1.0,71.13182,71.13182)"> 
 <g fill="rgb(0.0%,0.0%,0.0%)"> 
 <text style="stroke:none" transform="scale(1,-1) translate(0.0,0)" text-anchor="middle"  font-size="10"> 
</text> 
</g> 
 </g> 
 </g> 
 </g> 
 <g> 
 <g stroke-width="0.8pt"> 
 <g stroke="rgb(100.0%,58.99963%,0.0%)"> 
 <g fill="rgb(100.0%,58.99963%,0.0%)"> 
 <g stroke-opacity="0.25"> 
 <g fill-opacity="0.25"> 
 <path d=" M  71.13182 71.13182 M  92.47136 71.13182 C  92.47136 82.91747 82.91747 92.47136 71.13182 92.47136 C  59.34618 92.47136 49.79228 82.91747 49.79228 71.13182 C  49.79228 59.34618 59.34618 49.79228 71.13182 49.79228 C  82.91747 49.79228 92.47136 59.34618 92.47136 71.13182 Z M  71.13182 71.13182  " /> 
 </g> 
 </g> 
 </g> 
 </g> 
 </g> 
 </g> 
 <g> 
 <g stroke-width="0.8pt"> 
 <g stroke="rgb(100.0%,58.99963%,0.0%)"> 
 <g fill="rgb(100.0%,58.99963%,0.0%)"> 
 <path d=" M  71.13182 71.13182 M  92.47136 71.13182 C  92.47136 82.91747 82.91747 92.47136 71.13182 92.47136 C  59.34618 92.47136 49.79228 82.91747 49.79228 71.13182 C  49.79228 59.34618 59.34618 49.79228 71.13182 49.79228 C  82.91747 49.79228 92.47136 59.34618 92.47136 71.13182 Z M  71.13182 71.13182  " style="fill:none"/> 
 </g> 
 </g> 
 </g> 
 </g> 
 <g> 
 <g stroke-width="0.8pt"> 
 <g stroke="rgb(33.00018%,33.00018%,33.00018%)"> 
 <g fill="rgb(33.00018%,33.00018%,33.00018%)"> 
 <path d=" M  49.79227 71.13182 M  50.50362 71.13182 C  50.50362 71.52469 50.18513 71.84317 49.79227 71.84317 C  49.3994 71.84317 49.08092 71.52469 49.08092 71.13182 C  49.08092 70.73895 49.3994 70.42047 49.79227 70.42047 C  50.18513 70.42047 50.50362 70.73895 50.50362 71.13182 Z M  49.79227 71.13182  " /> 
 </g> 
 </g> 
 </g> 
 </g> 
 <g> 
 <g stroke-width="0.8pt"> 
 <g stroke="rgb(33.00018%,33.00018%,33.00018%)"> 
 <g fill="rgb(33.00018%,33.00018%,33.00018%)"> 
 <path d=" M  56.90546 56.90546 M  57.6168 56.90546 C  57.6168 57.29832 57.29832 57.6168 56.90546 57.6168 C  56.51259 57.6168 56.1941 57.29832 56.1941 56.90546 C  56.1941 56.51259 56.51259 56.1941 56.90546 56.1941 C  57.29832 56.1941 57.6168 56.51259 57.6168 56.90546 Z M  56.90546 56.90546  " /> 
 </g> 
 </g> 
 </g> 
 </g> 
 <g> 
 <g stroke-width="0.8pt"> 
 <g stroke="rgb(33.00018%,33.00018%,33.00018%)"> 
 <g fill="rgb(33.00018%,33.00018%,33.00018%)"> 
 <path d=" M  56.90546 64.01863 M  57.6168 64.01863 C  57.6168 64.4115 57.29832 64.72998 56.90546 64.72998 C  56.51259 64.72998 56.1941 64.4115 56.1941 64.01863 C  56.1941 63.62576 56.51259 63.30728 56.90546 63.30728 C  57.29832 63.30728 57.6168 63.62576 57.6168 64.01863 Z M  56.90546 64.01863  " /> 
 </g> 
 </g> 
 </g> 
 </g> 
 <g> 
 <g stroke-width="0.8pt"> 
 <g stroke="rgb(33.00018%,33.00018%,33.00018%)"> 
 <g fill="rgb(33.00018%,33.00018%,33.00018%)"> 
 <path d=" M  56.90546 71.13182 M  57.6168 71.13182 C  57.6168 71.52469 57.29832 71.84317 56.90546 71.84317 C  56.51259 71.84317 56.1941 71.52469 56.1941 71.13182 C  56.1941 70.73895 56.51259 70.42047 56.90546 70.42047 C  57.29832 70.42047 57.6168 70.73895 57.6168 71.13182 Z M  56.90546 71.13182  " /> 
 </g> 
 </g> 
 </g> 
 </g> 
 <g> 
 <g stroke-width="0.8pt"> 
 <g stroke="rgb(33.00018%,33.00018%,33.00018%)"> 
 <g fill="rgb(33.00018%,33.00018%,33.00018%)"> 
 <path d=" M  56.90546 78.245 M  57.6168 78.245 C  57.6168 78.63786 57.29832 78.95634 56.90546 78.95634 C  56.51259 78.95634 56.1941 78.63786 56.1941 78.245 C  56.1941 77.85213 56.51259 77.53365 56.90546 77.53365 C  57.29832 77.53365 57.6168 77.85213 57.6168 78.245 Z M  56.90546 78.245  " /> 
 </g> 
 </g> 
 </g> 
 </g> 
 <g> 
 <g stroke-width="0.8pt"> 
 <g stroke="rgb(33.00018%,33.00018%,33.00018%)"> 
 <g fill="rgb(33.00018%,33.00018%,33.00018%)"> 
 <path d=" M  56.90546 85.35818 M  57.6168 85.35818 C  57.6168 85.75105 57.29832 86.06953 56.90546 86.06953 C  56.51259 86.06953 56.1941 85.75105 56.1941 85.35818 C  56.1941 84.96532 56.51259 84.64684 56.90546 84.64684 C  57.29832 84.64684 57.6168 84.96532 57.6168 85.35818 Z M  56.90546 85.35818  " /> 
 </g> 
 </g> 
 </g> 
 </g> 
 <g> 
 <g stroke-width="0.8pt"> 
 <g stroke="rgb(33.00018%,33.00018%,33.00018%)"> 
 <g fill="rgb(33.00018%,33.00018%,33.00018%)"> 
 <path d=" M  64.01863 56.90546 M  64.72998 56.90546 C  64.72998 57.29832 64.4115 57.6168 64.01863 57.6168 C  63.62576 57.6168 63.30728 57.29832 63.30728 56.90546 C  63.30728 56.51259 63.62576 56.1941 64.01863 56.1941 C  64.4115 56.1941 64.72998 56.51259 64.72998 56.90546 Z M  64.01863 56.90546  " /> 
 </g> 
 </g> 
 </g> 
 </g> 
 <g> 
 <g stroke-width="0.8pt"> 
 <g stroke="rgb(33.00018%,33.00018%,33.00018%)"> 
 <g fill="rgb(33.00018%,33.00018%,33.00018%)"> 
 <path d=" M  64.01863 64.01863 M  64.72998 64.01863 C  64.72998 64.4115 64.4115 64.72998 64.01863 64.72998 C  63.62576 64.72998 63.30728 64.4115 63.30728 64.01863 C  63.30728 63.62576 63.62576 63.30728 64.01863 63.30728 C  64.4115 63.30728 64.72998 63.62576 64.72998 64.01863 Z M  64.01863 64.01863  " /> 
 </g> 
 </g> 
 </g> 
 </g> 
 <g> 
 <g stroke-width="0.8pt"> 
 <g stroke="rgb(33.00018%,33.00018%,33.00018%)"> 
 <g fill="rgb(33.00018%,33.00018%,33.00018%)"> 
 <path d=" M  64.01863 71.13182 M  64.72998 71.13182 C  64.72998 71.52469 64.4115 71.84317 64.01863 71.84317 C  63.62576 71.84317 63.30728 71.52469 63.30728 71.13182 C  63.30728 70.73895 63.62576 70.42047 64.01863 70.42047 C  64.4115 70.42047 64.72998 70.73895 64.72998 71.13182 Z M  64.01863 71.13182  " /> 
 </g> 
 </g> 
 </g> 
 </g> 
 <g> 
 <g stroke-width="0.8pt"> 
 <g stroke="rgb(33.00018%,33.00018%,33.00018%)"> 
 <g fill="rgb(33.00018%,33.00018%,33.00018%)"> 
 <path d=" M  64.01863 78.245 M  64.72998 78.245 C  64.72998 78.63786 64.4115 78.95634 64.01863 78.95634 C  63.62576 78.95634 63.30728 78.63786 63.30728 78.245 C  63.30728 77.85213 63.62576 77.53365 64.01863 77.53365 C  64.4115 77.53365 64.72998 77.85213 64.72998 78.245 Z M  64.01863 78.245  " /> 
 </g> 
 </g> 
 </g> 
 </g> 
 <g> 
 <g stroke-width="0.8pt"> 
 <g stroke="rgb(33.00018%,33.00018%,33.00018%)"> 
 <g fill="rgb(33.00018%,33.00018%,33.00018%)"> 
 <path d=" M  64.01863 85.35818 M  64.72998 85.35818 C  64.72998 85.75105 64.4115 86.06953 64.01863 86.06953 C  63.62576 86.06953 63.30728 85.75105 63.30728 85.35818 C  63.30728 84.96532 63.62576 84.64684 64.01863 84.64684 C  64.4115 84.64684 64.72998 84.96532 64.72998 85.35818 Z M  64.01863 85.35818  " /> 
 </g> 
 </g> 
 </g> 
 </g> 
 <g> 
 <g stroke-width="0.8pt"> 
 <g stroke="rgb(33.00018%,33.00018%,33.00018%)"> 
 <g fill="rgb(33.00018%,33.00018%,33.00018%)"> 
 <path d=" M  71.13182 49.79227 M  71.84317 49.79227 C  71.84317 50.18513 71.52469 50.50362 71.13182 50.50362 C  70.73895 50.50362 70.42047 50.18513 70.42047 49.79227 C  70.42047 49.3994 70.73895 49.08092 71.13182 49.08092 C  71.52469 49.08092 71.84317 49.3994 71.84317 49.79227 Z M  71.13182 49.79227  " /> 
 </g> 
 </g> 
 </g> 
 </g> 
 <g> 
 <g stroke-width="0.8pt"> 
 <g stroke="rgb(33.00018%,33.00018%,33.00018%)"> 
 <g fill="rgb(33.00018%,33.00018%,33.00018%)"> 
 <path d=" M  71.13182 56.90546 M  71.84317 56.90546 C  71.84317 57.29832 71.52469 57.6168 71.13182 57.6168 C  70.73895 57.6168 70.42047 57.29832 70.42047 56.90546 C  70.42047 56.51259 70.73895 56.1941 71.13182 56.1941 C  71.52469 56.1941 71.84317 56.51259 71.84317 56.90546 Z M  71.13182 56.90546  " /> 
 </g> 
 </g> 
 </g> 
 </g> 
 <g> 
 <g stroke-width="0.8pt"> 
 <g stroke="rgb(33.00018%,33.00018%,33.00018%)"> 
 <g fill="rgb(33.00018%,33.00018%,33.00018%)"> 
 <path d=" M  71.13182 64.01863 M  71.84317 64.01863 C  71.84317 64.4115 71.52469 64.72998 71.13182 64.72998 C  70.73895 64.72998 70.42047 64.4115 70.42047 64.01863 C  70.42047 63.62576 70.73895 63.30728 71.13182 63.30728 C  71.52469 63.30728 71.84317 63.62576 71.84317 64.01863 Z M  71.13182 64.01863  " /> 
 </g> 
 </g> 
 </g> 
 </g> 
 <g> 
 <g stroke-width="0.8pt"> 
 <g stroke="rgb(33.00018%,33.00018%,33.00018%)"> 
 <g fill="rgb(33.00018%,33.00018%,33.00018%)"> 
 <path d=" M  71.13182 71.13182 M  71.84317 71.13182 C  71.84317 71.52469 71.52469 71.84317 71.13182 71.84317 C  70.73895 71.84317 70.42047 71.52469 70.42047 71.13182 C  70.42047 70.73895 70.73895 70.42047 71.13182 70.42047 C  71.52469 70.42047 71.84317 70.73895 71.84317 71.13182 Z M  71.13182 71.13182  " /> 
 </g> 
 </g> 
 </g> 
 </g> 
 <g> 
 <g stroke-width="0.8pt"> 
 <g stroke="rgb(33.00018%,33.00018%,33.00018%)"> 
 <g fill="rgb(33.00018%,33.00018%,33.00018%)"> 
 <path d=" M  71.13182 78.245 M  71.84317 78.245 C  71.84317 78.63786 71.52469 78.95634 71.13182 78.95634 C  70.73895 78.95634 70.42047 78.63786 70.42047 78.245 C  70.42047 77.85213 70.73895 77.53365 71.13182 77.53365 C  71.52469 77.53365 71.84317 77.85213 71.84317 78.245 Z M  71.13182 78.245  " /> 
 </g> 
 </g> 
 </g> 
 </g> 
 <g> 
 <g stroke-width="0.8pt"> 
 <g stroke="rgb(33.00018%,33.00018%,33.00018%)"> 
 <g fill="rgb(33.00018%,33.00018%,33.00018%)"> 
 <path d=" M  71.13182 85.35818 M  71.84317 85.35818 C  71.84317 85.75105 71.52469 86.06953 71.13182 86.06953 C  70.73895 86.06953 70.42047 85.75105 70.42047 85.35818 C  70.42047 84.96532 70.73895 84.64684 71.13182 84.64684 C  71.52469 84.64684 71.84317 84.96532 71.84317 85.35818 Z M  71.13182 85.35818  " /> 
 </g> 
 </g> 
 </g> 
 </g> 
 <g> 
 <g stroke-width="0.8pt"> 
 <g stroke="rgb(33.00018%,33.00018%,33.00018%)"> 
 <g fill="rgb(33.00018%,33.00018%,33.00018%)"> 
 <path d=" M  71.13182 92.47136 M  71.84317 92.47136 C  71.84317 92.86423 71.52469 93.18271 71.13182 93.18271 C  70.73895 93.18271 70.42047 92.86423 70.42047 92.47136 C  70.42047 92.07849 70.73895 91.76001 71.13182 91.76001 C  71.52469 91.76001 71.84317 92.07849 71.84317 92.47136 Z M  71.13182 92.47136  " /> 
 </g> 
 </g> 
 </g> 
 </g> 
 <g> 
 <g stroke-width="0.8pt"> 
 <g stroke="rgb(33.00018%,33.00018%,33.00018%)"> 
 <g fill="rgb(33.00018%,33.00018%,33.00018%)"> 
 <path d=" M  78.245 56.90546 M  78.95634 56.90546 C  78.95634 57.29832 78.63786 57.6168 78.245 57.6168 C  77.85213 57.6168 77.53365 57.29832 77.53365 56.90546 C  77.53365 56.51259 77.85213 56.1941 78.245 56.1941 C  78.63786 56.1941 78.95634 56.51259 78.95634 56.90546 Z M  78.245 56.90546  " /> 
 </g> 
 </g> 
 </g> 
 </g> 
 <g> 
 <g stroke-width="0.8pt"> 
 <g stroke="rgb(33.00018%,33.00018%,33.00018%)"> 
 <g fill="rgb(33.00018%,33.00018%,33.00018%)"> 
 <path d=" M  78.245 64.01863 M  78.95634 64.01863 C  78.95634 64.4115 78.63786 64.72998 78.245 64.72998 C  77.85213 64.72998 77.53365 64.4115 77.53365 64.01863 C  77.53365 63.62576 77.85213 63.30728 78.245 63.30728 C  78.63786 63.30728 78.95634 63.62576 78.95634 64.01863 Z M  78.245 64.01863  " /> 
 </g> 
 </g> 
 </g> 
 </g> 
 <g> 
 <g stroke-width="0.8pt"> 
 <g stroke="rgb(33.00018%,33.00018%,33.00018%)"> 
 <g fill="rgb(33.00018%,33.00018%,33.00018%)"> 
 <path d=" M  78.245 71.13182 M  78.95634 71.13182 C  78.95634 71.52469 78.63786 71.84317 78.245 71.84317 C  77.85213 71.84317 77.53365 71.52469 77.53365 71.13182 C  77.53365 70.73895 77.85213 70.42047 78.245 70.42047 C  78.63786 70.42047 78.95634 70.73895 78.95634 71.13182 Z M  78.245 71.13182  " /> 
 </g> 
 </g> 
 </g> 
 </g> 
 <g> 
 <g stroke-width="0.8pt"> 
 <g stroke="rgb(33.00018%,33.00018%,33.00018%)"> 
 <g fill="rgb(33.00018%,33.00018%,33.00018%)"> 
 <path d=" M  78.245 78.245 M  78.95634 78.245 C  78.95634 78.63786 78.63786 78.95634 78.245 78.95634 C  77.85213 78.95634 77.53365 78.63786 77.53365 78.245 C  77.53365 77.85213 77.85213 77.53365 78.245 77.53365 C  78.63786 77.53365 78.95634 77.85213 78.95634 78.245 Z M  78.245 78.245  " /> 
 </g> 
 </g> 
 </g> 
 </g> 
 <g> 
 <g stroke-width="0.8pt"> 
 <g stroke="rgb(33.00018%,33.00018%,33.00018%)"> 
 <g fill="rgb(33.00018%,33.00018%,33.00018%)"> 
 <path d=" M  78.245 85.35818 M  78.95634 85.35818 C  78.95634 85.75105 78.63786 86.06953 78.245 86.06953 C  77.85213 86.06953 77.53365 85.75105 77.53365 85.35818 C  77.53365 84.96532 77.85213 84.64684 78.245 84.64684 C  78.63786 84.64684 78.95634 84.96532 78.95634 85.35818 Z M  78.245 85.35818  " /> 
 </g> 
 </g> 
 </g> 
 </g> 
 <g> 
 <g stroke-width="0.8pt"> 
 <g stroke="rgb(33.00018%,33.00018%,33.00018%)"> 
 <g fill="rgb(33.00018%,33.00018%,33.00018%)"> 
 <path d=" M  85.35818 56.90546 M  86.06953 56.90546 C  86.06953 57.29832 85.75105 57.6168 85.35818 57.6168 C  84.96532 57.6168 84.64684 57.29832 84.64684 56.90546 C  84.64684 56.51259 84.96532 56.1941 85.35818 56.1941 C  85.75105 56.1941 86.06953 56.51259 86.06953 56.90546 Z M  85.35818 56.90546  " /> 
 </g> 
 </g> 
 </g> 
 </g> 
 <g> 
 <g stroke-width="0.8pt"> 
 <g stroke="rgb(33.00018%,33.00018%,33.00018%)"> 
 <g fill="rgb(33.00018%,33.00018%,33.00018%)"> 
 <path d=" M  85.35818 64.01863 M  86.06953 64.01863 C  86.06953 64.4115 85.75105 64.72998 85.35818 64.72998 C  84.96532 64.72998 84.64684 64.4115 84.64684 64.01863 C  84.64684 63.62576 84.96532 63.30728 85.35818 63.30728 C  85.75105 63.30728 86.06953 63.62576 86.06953 64.01863 Z M  85.35818 64.01863  " /> 
 </g> 
 </g> 
 </g> 
 </g> 
 <g> 
 <g stroke-width="0.8pt"> 
 <g stroke="rgb(33.00018%,33.00018%,33.00018%)"> 
 <g fill="rgb(33.00018%,33.00018%,33.00018%)"> 
 <path d=" M  85.35818 71.13182 M  86.06953 71.13182 C  86.06953 71.52469 85.75105 71.84317 85.35818 71.84317 C  84.96532 71.84317 84.64684 71.52469 84.64684 71.13182 C  84.64684 70.73895 84.96532 70.42047 85.35818 70.42047 C  85.75105 70.42047 86.06953 70.73895 86.06953 71.13182 Z M  85.35818 71.13182  " /> 
 </g> 
 </g> 
 </g> 
 </g> 
 <g> 
 <g stroke-width="0.8pt"> 
 <g stroke="rgb(33.00018%,33.00018%,33.00018%)"> 
 <g fill="rgb(33.00018%,33.00018%,33.00018%)"> 
 <path d=" M  85.35818 78.245 M  86.06953 78.245 C  86.06953 78.63786 85.75105 78.95634 85.35818 78.95634 C  84.96532 78.95634 84.64684 78.63786 84.64684 78.245 C  84.64684 77.85213 84.96532 77.53365 85.35818 77.53365 C  85.75105 77.53365 86.06953 77.85213 86.06953 78.245 Z M  85.35818 78.245  " /> 
 </g> 
 </g> 
 </g> 
 </g> 
 <g> 
 <g stroke-width="0.8pt"> 
 <g stroke="rgb(33.00018%,33.00018%,33.00018%)"> 
 <g fill="rgb(33.00018%,33.00018%,33.00018%)"> 
 <path d=" M  85.35818 85.35818 M  86.06953 85.35818 C  86.06953 85.75105 85.75105 86.06953 85.35818 86.06953 C  84.96532 86.06953 84.64684 85.75105 84.64684 85.35818 C  84.64684 84.96532 84.96532 84.64684 85.35818 84.64684 C  85.75105 84.64684 86.06953 84.96532 86.06953 85.35818 Z M  85.35818 85.35818  " /> 
 </g> 
 </g> 
 </g> 
 </g> 
 <g> 
 <g stroke-width="0.8pt"> 
 <g stroke="rgb(33.00018%,33.00018%,33.00018%)"> 
 <g fill="rgb(33.00018%,33.00018%,33.00018%)"> 
 <path d=" M  92.47136 71.13182 M  93.18271 71.13182 C  93.18271 71.52469 92.86423 71.84317 92.47136 71.84317 C  92.07849 71.84317 91.76001 71.52469 91.76001 71.13182 C  91.76001 70.73895 92.07849 70.42047 92.47136 70.42047 C  92.86423 70.42047 93.18271 70.73895 93.18271 71.13182 Z M  92.47136 71.13182  " /> 
 </g> 
 </g> 
 </g> 
 </g> 
 </g> 
 </g> 
 </g> 
 </g> 
 </g> 
                                      </g> 
</svg> 
