<?xml version="1.0" encoding="iso-8859-1" standalone="no"?>
<?xml-stylesheet href="2d-curv-estimator.css" type="text/css"?>
<svg xmlns="http://www.w3.org/2000/svg" xmlns:xlink="http://www.w3.org/1999/xlink" width="159.5347pt" height="80.16734pt" viewBox="-0.09999 -0.4 159.5347 80.16734 ">
<g transform="translate(0, 79.76735 ) scale(1,-1) translate(0,0.4 )">
<g>
 <g stroke="rgb(0.0%,0.0%,0.0%)">
 <g fill="rgb(0.0%,0.0%,0.0%)">
 <g stroke-width="0.4pt">
 <g>

 <g>
 <g stroke-width="0.8pt">
 <g stroke="rgb(0.0%,58.99963%,0.0%)">
 <g fill="rgb(0.0%,58.99963%,0.0%)">
 <g stroke-opacity="0.25">
 <g fill-opacity="0.25">
 <path d=" M  19.91684 0.0 C  19.91684 32.99973 46.66763 59.75052 79.66736 59.75052 C  112.66708 59.75052 139.41788 32.99973 139.41788 0.0  " />
 </g>
 </g>
 </g>
 </g>
 </g>
 </g>
 <g>
 <g stroke-width="0.8pt">
 <g stroke="rgb(33.00018%,33.00018%,33.00018%)">
 <g fill="rgb(33.00018%,33.00018%,33.00018%)">
 <path d=" M  19.91684 0.0 C  19.91684 32.99973 46.66763 59.75052 79.66736 59.75052 C  112.66708 59.75052 139.41788 32.99973 139.41788 0.0  " style="fill:none"/>
 </g>
 </g>
 </g>
 </g>
 <g>
 <g>
 <g transform="matrix(1.0,0.0,0.0,1.0,43.81705,47.80042)">
 <g fill="rgb(0.0%,0.0%,0.0%)">
 <text style="stroke:none" transform="scale(1,-1) translate(0.0,0)" text-anchor="middle"  font-size="10">
</text>
</g>
 </g>
 </g>
 </g>
 <g>
 <g stroke-width="0.8pt">
 <g stroke="rgb(0.0%,0.0%,0.0%)">
 <g fill="rgb(0.0%,0.0%,0.0%)">
 <path d=" M  43.81705 47.80042 M  44.61375 47.80042 C  44.61375 48.24042 44.25705 48.59712 43.81705 48.59712 C  43.37704 48.59712 43.02034 48.24042 43.02034 47.80042 C  43.02034 47.36041 43.37704 47.00371 43.81705 47.00371 C  44.25705 47.00371 44.61375 47.36041 44.61375 47.80042 Z M  43.81705 47.80042  " />
 </g>
 </g>
 </g>
 </g>
 <g>
 <g stroke-width="0.8pt">
 <g stroke="rgb(100.0%,58.99963%,0.0%)">
 <g fill="rgb(100.0%,58.99963%,0.0%)">
 <g stroke-opacity="0.25">
 <g fill-opacity="0.25">
 <path d=" M  43.81705 47.80042 M  67.71725 47.80042 C  67.71725 61.0003 57.01694 71.70062 43.81705 71.70062 C  30.61716 71.70062 19.91684 61.0003 19.91684 47.80042 C  19.91684 34.60052 30.61716 23.9002 43.81705 23.9002 C  57.01694 23.9002 67.71725 34.60052 67.71725 47.80042 Z M  43.81705 47.80042  " />
 </g>
 </g>
 </g>
 </g>
 </g>
 </g>
 <g>
 <g stroke-width="0.8pt">
 <g stroke="rgb(100.0%,58.99963%,0.0%)">
 <g fill="rgb(100.0%,58.99963%,0.0%)">
 <path d=" M  43.81705 47.80042 M  67.71725 47.80042 C  67.71725 61.0003 57.01694 71.70062 43.81705 71.70062 C  30.61716 71.70062 19.91684 61.0003 19.91684 47.80042 C  19.91684 34.60052 30.61716 23.9002 43.81705 23.9002 C  57.01694 23.9002 67.71725 34.60052 67.71725 47.80042 Z M  43.81705 47.80042  " style="fill:none"/>
 </g>
 </g>
 </g>
 </g>
 <path d="  " style="fill:none"/>
 <g>
 <g>
 <g transform="matrix(1.0,0.0,0.0,1.0,40.78235,51.33339)">
 <g fill="rgb(0.0%,0.0%,0.0%)">
 <text style="stroke:none" transform="scale(1,-1) translate(3.0347,0)" text-anchor="middle"  font-size="10">
<tspan font-family="cmbx" font-size="10">\(x\)</tspan></text>
</g>
 </g>
 </g>
 </g>
 
 </g>
 </g>
 </g>
 </g>
 </g>
                                         </g>
</svg>
