<?xml version="1.0" encoding="iso-8859-1" standalone="no"?> 
<?xml-stylesheet href="2d-curv-estimator.css" type="text/css"?> 
<svg xmlns="http://www.w3.org/2000/svg" xmlns:xlink="http://www.w3.org/1999/xlink" width="161.6651pt" height="111.76913pt" viewBox="-2.2304 -16.29971 161.6651 111.76913 "> 
<g transform="translate(0, 95.46942 ) scale(1,-1) translate(0,16.29971 )"> 
 <g> 
 <g stroke="rgb(0.0%,0.0%,0.0%)"> 
 <g fill="rgb(0.0%,0.0%,0.0%)"> 
 <g stroke-width="0.4pt"> 
 <g> 
 <g> 
 <g stroke="rgb(100.0%,69.9997%,69.9997%)"> 
 <g fill="rgb(100.0%,69.9997%,69.9997%)"> 
 <path d=" M  19.91684 0.0 M  19.91684 0.0 L  19.91684 3.98337 L  27.88358 3.98337 L  27.88358 0.0 Z M  27.88358 3.98337  " /> 
 </g> 
 </g> 
 </g> 
 <g> 
 <g stroke="rgb(100.0%,69.9997%,69.9997%)"> 
 <g fill="rgb(100.0%,69.9997%,69.9997%)"> 
 <path d=" M  131.45114 0.0 M  131.45114 0.0 L  131.45114 3.98337 L  139.41788 3.98337 L  139.41788 0.0 Z M  139.41788 3.98337  " /> 
 </g> 
 </g> 
 </g> 
 <g> 
 <g stroke="rgb(100.0%,69.9997%,69.9997%)"> 
 <g fill="rgb(100.0%,69.9997%,69.9997%)"> 
 <path d=" M  27.88358 0.0 M  27.88358 0.0 L  27.88358 3.98337 L  35.85031 3.98337 L  35.85031 0.0 Z M  35.85031 3.98337  " /> 
 </g> 
 </g> 
 </g> 
 <g> 
 <g stroke="rgb(100.0%,69.9997%,69.9997%)"> 
 <g fill="rgb(100.0%,69.9997%,69.9997%)"> 
 <path d=" M  123.4844 0.0 M  123.4844 0.0 L  123.4844 3.98337 L  131.45114 3.98337 L  131.45114 0.0 Z M  131.45114 3.98337  " /> 
 </g> 
 </g> 
 </g> 
 <g> 
 <g stroke="rgb(100.0%,69.9997%,69.9997%)"> 
 <g fill="rgb(100.0%,69.9997%,69.9997%)"> 
 <path d=" M  35.85031 0.0 M  35.85031 0.0 L  35.85031 3.98337 L  43.81705 3.98337 L  43.81705 0.0 Z M  43.81705 3.98337  " /> 
 </g> 
 </g> 
 </g> 
 <g> 
 <g stroke="rgb(100.0%,69.9997%,69.9997%)"> 
 <g fill="rgb(100.0%,69.9997%,69.9997%)"> 
 <path d=" M  115.51767 0.0 M  115.51767 0.0 L  115.51767 3.98337 L  123.4844 3.98337 L  123.4844 0.0 Z M  123.4844 3.98337  " /> 
 </g> 
 </g> 
 </g> 
 <g> 
 <g stroke="rgb(100.0%,69.9997%,69.9997%)"> 
 <g fill="rgb(100.0%,69.9997%,69.9997%)"> 
 <path d=" M  43.81705 0.0 M  43.81705 0.0 L  43.81705 3.98337 L  51.78378 3.98337 L  51.78378 0.0 Z M  51.78378 3.98337  " /> 
 </g> 
 </g> 
 </g> 
 <g> 
 <g stroke="rgb(100.0%,69.9997%,69.9997%)"> 
 <g fill="rgb(100.0%,69.9997%,69.9997%)"> 
 <path d=" M  107.55093 0.0 M  107.55093 0.0 L  107.55093 3.98337 L  115.51767 3.98337 L  115.51767 0.0 Z M  115.51767 3.98337  " /> 
 </g> 
 </g> 
 </g> 
 <g> 
 <g stroke="rgb(100.0%,69.9997%,69.9997%)"> 
 <g fill="rgb(100.0%,69.9997%,69.9997%)"> 
 <path d=" M  51.78378 0.0 M  51.78378 0.0 L  51.78378 3.98337 L  59.75052 3.98337 L  59.75052 0.0 Z M  59.75052 3.98337  " /> 
 </g> 
 </g> 
 </g> 
 <g> 
 <g stroke="rgb(100.0%,69.9997%,69.9997%)"> 
 <g fill="rgb(100.0%,69.9997%,69.9997%)"> 
 <path d=" M  99.5842 0.0 M  99.5842 0.0 L  99.5842 3.98337 L  107.55093 3.98337 L  107.55093 0.0 Z M  107.55093 3.98337  " /> 
 </g> 
 </g> 
 </g> 
 <g> 
 <g stroke="rgb(100.0%,69.9997%,69.9997%)"> 
 <g fill="rgb(100.0%,69.9997%,69.9997%)"> 
 <path d=" M  59.75052 0.0 M  59.75052 0.0 L  59.75052 3.98337 L  67.71725 3.98337 L  67.71725 0.0 Z M  67.71725 3.98337  " /> 
 </g> 
 </g> 
 </g> 
 <g> 
 <g stroke="rgb(100.0%,69.9997%,69.9997%)"> 
 <g fill="rgb(100.0%,69.9997%,69.9997%)"> 
 <path d=" M  91.61746 0.0 M  91.61746 0.0 L  91.61746 3.98337 L  99.5842 3.98337 L  99.5842 0.0 Z M  99.5842 3.98337  " /> 
 </g> 
 </g> 
 </g> 
 <g> 
 <g stroke="rgb(100.0%,69.9997%,69.9997%)"> 
 <g fill="rgb(100.0%,69.9997%,69.9997%)"> 
 <path d=" M  67.71725 0.0 M  67.71725 0.0 L  67.71725 3.98337 L  75.68399 3.98337 L  75.68399 0.0 Z M  75.68399 3.98337  " /> 
 </g> 
 </g> 
 </g> 
 <g> 
 <g stroke="rgb(100.0%,69.9997%,69.9997%)"> 
 <g fill="rgb(100.0%,69.9997%,69.9997%)"> 
 <path d=" M  83.65073 0.0 M  83.65073 0.0 L  83.65073 3.98337 L  91.61746 3.98337 L  91.61746 0.0 Z M  91.61746 3.98337  " /> 
 </g> 
 </g> 
 </g> 
 <g> 
 <g stroke="rgb(100.0%,69.9997%,69.9997%)"> 
 <g fill="rgb(100.0%,69.9997%,69.9997%)"> 
 <path d=" M  75.68399 0.0 M  75.68399 0.0 L  75.68399 3.98337 L  83.65073 3.98337 L  83.65073 0.0 Z M  83.65073 3.98337  " /> 
 </g> 
 </g> 
 </g> 
 <g> 
 <g stroke="rgb(100.0%,69.9997%,69.9997%)"> 
 <g fill="rgb(100.0%,69.9997%,69.9997%)"> 
 <path d=" M  75.68399 0.0 M  75.68399 0.0 L  75.68399 3.98337 L  83.65073 3.98337 L  83.65073 0.0 Z M  83.65073 3.98337  " /> 
 </g> 
 </g> 
 </g> 
 <g> 
 <g stroke="rgb(100.0%,69.9997%,69.9997%)"> 
 <g fill="rgb(100.0%,69.9997%,69.9997%)"> 
 <path d=" M  19.91684 3.98337 M  19.91684 3.98337 L  19.91684 11.9501 L  27.88358 11.9501 L  27.88358 3.98337 Z M  27.88358 11.9501  " /> 
 </g> 
 </g> 
 </g> 
 <g> 
 <g stroke="rgb(100.0%,69.9997%,69.9997%)"> 
 <g fill="rgb(100.0%,69.9997%,69.9997%)"> 
 <path d=" M  131.45114 3.98337 M  131.45114 3.98337 L  131.45114 11.9501 L  139.41788 11.9501 L  139.41788 3.98337 Z M  139.41788 11.9501  " /> 
 </g> 
 </g> 
 </g> 
 <g> 
 <g stroke="rgb(100.0%,69.9997%,69.9997%)"> 
 <g fill="rgb(100.0%,69.9997%,69.9997%)"> 
 <path d=" M  27.88358 3.98337 M  27.88358 3.98337 L  27.88358 11.9501 L  35.85031 11.9501 L  35.85031 3.98337 Z M  35.85031 11.9501  " /> 
 </g> 
 </g> 
 </g> 
 <g> 
 <g stroke="rgb(100.0%,69.9997%,69.9997%)"> 
 <g fill="rgb(100.0%,69.9997%,69.9997%)"> 
 <path d=" M  123.4844 3.98337 M  123.4844 3.98337 L  123.4844 11.9501 L  131.45114 11.9501 L  131.45114 3.98337 Z M  131.45114 11.9501  " /> 
 </g> 
 </g> 
 </g> 
 <g> 
 <g stroke="rgb(100.0%,69.9997%,69.9997%)"> 
 <g fill="rgb(100.0%,69.9997%,69.9997%)"> 
 <path d=" M  35.85031 3.98337 M  35.85031 3.98337 L  35.85031 11.9501 L  43.81705 11.9501 L  43.81705 3.98337 Z M  43.81705 11.9501  " /> 
 </g> 
 </g> 
 </g> 
 <g> 
 <g stroke="rgb(100.0%,69.9997%,69.9997%)"> 
 <g fill="rgb(100.0%,69.9997%,69.9997%)"> 
 <path d=" M  115.51767 3.98337 M  115.51767 3.98337 L  115.51767 11.9501 L  123.4844 11.9501 L  123.4844 3.98337 Z M  123.4844 11.9501  " /> 
 </g> 
 </g> 
 </g> 
 <g> 
 <g stroke="rgb(100.0%,69.9997%,69.9997%)"> 
 <g fill="rgb(100.0%,69.9997%,69.9997%)"> 
 <path d=" M  43.81705 3.98337 M  43.81705 3.98337 L  43.81705 11.9501 L  51.78378 11.9501 L  51.78378 3.98337 Z M  51.78378 11.9501  " /> 
 </g> 
 </g> 
 </g> 
 <g> 
 <g stroke="rgb(100.0%,69.9997%,69.9997%)"> 
 <g fill="rgb(100.0%,69.9997%,69.9997%)"> 
 <path d=" M  107.55093 3.98337 M  107.55093 3.98337 L  107.55093 11.9501 L  115.51767 11.9501 L  115.51767 3.98337 Z M  115.51767 11.9501  " /> 
 </g> 
 </g> 
 </g> 
 <g> 
 <g stroke="rgb(100.0%,69.9997%,69.9997%)"> 
 <g fill="rgb(100.0%,69.9997%,69.9997%)"> 
 <path d=" M  51.78378 3.98337 M  51.78378 3.98337 L  51.78378 11.9501 L  59.75052 11.9501 L  59.75052 3.98337 Z M  59.75052 11.9501  " /> 
 </g> 
 </g> 
 </g> 
 <g> 
 <g stroke="rgb(100.0%,69.9997%,69.9997%)"> 
 <g fill="rgb(100.0%,69.9997%,69.9997%)"> 
 <path d=" M  99.5842 3.98337 M  99.5842 3.98337 L  99.5842 11.9501 L  107.55093 11.9501 L  107.55093 3.98337 Z M  107.55093 11.9501  " /> 
 </g> 
 </g> 
 </g> 
 <g> 
 <g stroke="rgb(100.0%,69.9997%,69.9997%)"> 
 <g fill="rgb(100.0%,69.9997%,69.9997%)"> 
 <path d=" M  59.75052 3.98337 M  59.75052 3.98337 L  59.75052 11.9501 L  67.71725 11.9501 L  67.71725 3.98337 Z M  67.71725 11.9501  " /> 
 </g> 
 </g> 
 </g> 
 <g> 
 <g stroke="rgb(100.0%,69.9997%,69.9997%)"> 
 <g fill="rgb(100.0%,69.9997%,69.9997%)"> 
 <path d=" M  91.61746 3.98337 M  91.61746 3.98337 L  91.61746 11.9501 L  99.5842 11.9501 L  99.5842 3.98337 Z M  99.5842 11.9501  " /> 
 </g> 
 </g> 
 </g> 
 <g> 
 <g stroke="rgb(100.0%,69.9997%,69.9997%)"> 
 <g fill="rgb(100.0%,69.9997%,69.9997%)"> 
 <path d=" M  67.71725 3.98337 M  67.71725 3.98337 L  67.71725 11.9501 L  75.68399 11.9501 L  75.68399 3.98337 Z M  75.68399 11.9501  " /> 
 </g> 
 </g> 
 </g> 
 <g> 
 <g stroke="rgb(100.0%,69.9997%,69.9997%)"> 
 <g fill="rgb(100.0%,69.9997%,69.9997%)"> 
 <path d=" M  83.65073 3.98337 M  83.65073 3.98337 L  83.65073 11.9501 L  91.61746 11.9501 L  91.61746 3.98337 Z M  91.61746 11.9501  " /> 
 </g> 
 </g> 
 </g> 
 <g> 
 <g stroke="rgb(100.0%,69.9997%,69.9997%)"> 
 <g fill="rgb(100.0%,69.9997%,69.9997%)"> 
 <path d=" M  75.68399 3.98337 M  75.68399 3.98337 L  75.68399 11.9501 L  83.65073 11.9501 L  83.65073 3.98337 Z M  83.65073 11.9501  " /> 
 </g> 
 </g> 
 </g> 
 <g> 
 <g stroke="rgb(100.0%,69.9997%,69.9997%)"> 
 <g fill="rgb(100.0%,69.9997%,69.9997%)"> 
 <path d=" M  75.68399 3.98337 M  75.68399 3.98337 L  75.68399 11.9501 L  83.65073 11.9501 L  83.65073 3.98337 Z M  83.65073 11.9501  " /> 
 </g> 
 </g> 
 </g> 
 <g> 
 <g stroke="rgb(100.0%,69.9997%,69.9997%)"> 
 <g fill="rgb(100.0%,69.9997%,69.9997%)"> 
 <path d=" M  19.91684 11.9501 M  19.91684 11.9501 L  19.91684 19.91684 L  27.88358 19.91684 L  27.88358 11.9501 Z M  27.88358 19.91684  " /> 
 </g> 
 </g> 
 </g> 
 <g> 
 <g stroke="rgb(100.0%,69.9997%,69.9997%)"> 
 <g fill="rgb(100.0%,69.9997%,69.9997%)"> 
 <path d=" M  131.45114 11.9501 M  131.45114 11.9501 L  131.45114 19.91684 L  139.41788 19.91684 L  139.41788 11.9501 Z M  139.41788 19.91684  " /> 
 </g> 
 </g> 
 </g> 
 <g> 
 <g stroke="rgb(100.0%,69.9997%,69.9997%)"> 
 <g fill="rgb(100.0%,69.9997%,69.9997%)"> 
 <path d=" M  27.88358 11.9501 M  27.88358 11.9501 L  27.88358 19.91684 L  35.85031 19.91684 L  35.85031 11.9501 Z M  35.85031 19.91684  " /> 
 </g> 
 </g> 
 </g> 
 <g> 
 <g stroke="rgb(100.0%,69.9997%,69.9997%)"> 
 <g fill="rgb(100.0%,69.9997%,69.9997%)"> 
 <path d=" M  123.4844 11.9501 M  123.4844 11.9501 L  123.4844 19.91684 L  131.45114 19.91684 L  131.45114 11.9501 Z M  131.45114 19.91684  " /> 
 </g> 
 </g> 
 </g> 
 <g> 
 <g stroke="rgb(100.0%,69.9997%,69.9997%)"> 
 <g fill="rgb(100.0%,69.9997%,69.9997%)"> 
 <path d=" M  35.85031 11.9501 M  35.85031 11.9501 L  35.85031 19.91684 L  43.81705 19.91684 L  43.81705 11.9501 Z M  43.81705 19.91684  " /> 
 </g> 
 </g> 
 </g> 
 <g> 
 <g stroke="rgb(100.0%,69.9997%,69.9997%)"> 
 <g fill="rgb(100.0%,69.9997%,69.9997%)"> 
 <path d=" M  115.51767 11.9501 M  115.51767 11.9501 L  115.51767 19.91684 L  123.4844 19.91684 L  123.4844 11.9501 Z M  123.4844 19.91684  " /> 
 </g> 
 </g> 
 </g> 
 <g> 
 <g stroke="rgb(100.0%,69.9997%,69.9997%)"> 
 <g fill="rgb(100.0%,69.9997%,69.9997%)"> 
 <path d=" M  43.81705 11.9501 M  43.81705 11.9501 L  43.81705 19.91684 L  51.78378 19.91684 L  51.78378 11.9501 Z M  51.78378 19.91684  " /> 
 </g> 
 </g> 
 </g> 
 <g> 
 <g stroke="rgb(100.0%,69.9997%,69.9997%)"> 
 <g fill="rgb(100.0%,69.9997%,69.9997%)"> 
 <path d=" M  107.55093 11.9501 M  107.55093 11.9501 L  107.55093 19.91684 L  115.51767 19.91684 L  115.51767 11.9501 Z M  115.51767 19.91684  " /> 
 </g> 
 </g> 
 </g> 
 <g> 
 <g stroke="rgb(100.0%,69.9997%,69.9997%)"> 
 <g fill="rgb(100.0%,69.9997%,69.9997%)"> 
 <path d=" M  51.78378 11.9501 M  51.78378 11.9501 L  51.78378 19.91684 L  59.75052 19.91684 L  59.75052 11.9501 Z M  59.75052 19.91684  " /> 
 </g> 
 </g> 
 </g> 
 <g> 
 <g stroke="rgb(100.0%,69.9997%,69.9997%)"> 
 <g fill="rgb(100.0%,69.9997%,69.9997%)"> 
 <path d=" M  99.5842 11.9501 M  99.5842 11.9501 L  99.5842 19.91684 L  107.55093 19.91684 L  107.55093 11.9501 Z M  107.55093 19.91684  " /> 
 </g> 
 </g> 
 </g> 
 <g> 
 <g stroke="rgb(100.0%,69.9997%,69.9997%)"> 
 <g fill="rgb(100.0%,69.9997%,69.9997%)"> 
 <path d=" M  59.75052 11.9501 M  59.75052 11.9501 L  59.75052 19.91684 L  67.71725 19.91684 L  67.71725 11.9501 Z M  67.71725 19.91684  " /> 
 </g> 
 </g> 
 </g> 
 <g> 
 <g stroke="rgb(100.0%,69.9997%,69.9997%)"> 
 <g fill="rgb(100.0%,69.9997%,69.9997%)"> 
 <path d=" M  91.61746 11.9501 M  91.61746 11.9501 L  91.61746 19.91684 L  99.5842 19.91684 L  99.5842 11.9501 Z M  99.5842 19.91684  " /> 
 </g> 
 </g> 
 </g> 
 <g> 
 <g stroke="rgb(100.0%,69.9997%,69.9997%)"> 
 <g fill="rgb(100.0%,69.9997%,69.9997%)"> 
 <path d=" M  67.71725 11.9501 M  67.71725 11.9501 L  67.71725 19.91684 L  75.68399 19.91684 L  75.68399 11.9501 Z M  75.68399 19.91684  " /> 
 </g> 
 </g> 
 </g> 
 <g> 
 <g stroke="rgb(100.0%,69.9997%,69.9997%)"> 
 <g fill="rgb(100.0%,69.9997%,69.9997%)"> 
 <path d=" M  83.65073 11.9501 M  83.65073 11.9501 L  83.65073 19.91684 L  91.61746 19.91684 L  91.61746 11.9501 Z M  91.61746 19.91684  " /> 
 </g> 
 </g> 
 </g> 
 <g> 
 <g stroke="rgb(100.0%,69.9997%,69.9997%)"> 
 <g fill="rgb(100.0%,69.9997%,69.9997%)"> 
 <path d=" M  75.68399 11.9501 M  75.68399 11.9501 L  75.68399 19.91684 L  83.65073 19.91684 L  83.65073 11.9501 Z M  83.65073 19.91684  " /> 
 </g> 
 </g> 
 </g> 
 <g> 
 <g stroke="rgb(100.0%,69.9997%,69.9997%)"> 
 <g fill="rgb(100.0%,69.9997%,69.9997%)"> 
 <path d=" M  75.68399 11.9501 M  75.68399 11.9501 L  75.68399 19.91684 L  83.65073 19.91684 L  83.65073 11.9501 Z M  83.65073 19.91684  " /> 
 </g> 
 </g> 
 </g> 
 <g> 
 <g stroke="rgb(100.0%,69.9997%,69.9997%)"> 
 <g fill="rgb(100.0%,69.9997%,69.9997%)"> 
 <path d=" M  27.88358 19.91684 M  27.88358 19.91684 L  27.88358 27.88358 L  35.85031 27.88358 L  35.85031 19.91684 Z M  35.85031 27.88358  " /> 
 </g> 
 </g> 
 </g> 
 <g> 
 <g stroke="rgb(100.0%,69.9997%,69.9997%)"> 
 <g fill="rgb(100.0%,69.9997%,69.9997%)"> 
 <path d=" M  123.4844 19.91684 M  123.4844 19.91684 L  123.4844 27.88358 L  131.45114 27.88358 L  131.45114 19.91684 Z M  131.45114 27.88358  " /> 
 </g> 
 </g> 
 </g> 
 <g> 
 <g stroke="rgb(100.0%,69.9997%,69.9997%)"> 
 <g fill="rgb(100.0%,69.9997%,69.9997%)"> 
 <path d=" M  35.85031 19.91684 M  35.85031 19.91684 L  35.85031 27.88358 L  43.81705 27.88358 L  43.81705 19.91684 Z M  43.81705 27.88358  " /> 
 </g> 
 </g> 
 </g> 
 <g> 
 <g stroke="rgb(100.0%,69.9997%,69.9997%)"> 
 <g fill="rgb(100.0%,69.9997%,69.9997%)"> 
 <path d=" M  115.51767 19.91684 M  115.51767 19.91684 L  115.51767 27.88358 L  123.4844 27.88358 L  123.4844 19.91684 Z M  123.4844 27.88358  " /> 
 </g> 
 </g> 
 </g> 
 <g> 
 <g stroke="rgb(100.0%,69.9997%,69.9997%)"> 
 <g fill="rgb(100.0%,69.9997%,69.9997%)"> 
 <path d=" M  43.81705 19.91684 M  43.81705 19.91684 L  43.81705 27.88358 L  51.78378 27.88358 L  51.78378 19.91684 Z M  51.78378 27.88358  " /> 
 </g> 
 </g> 
 </g> 
 <g> 
 <g stroke="rgb(100.0%,69.9997%,69.9997%)"> 
 <g fill="rgb(100.0%,69.9997%,69.9997%)"> 
 <path d=" M  107.55093 19.91684 M  107.55093 19.91684 L  107.55093 27.88358 L  115.51767 27.88358 L  115.51767 19.91684 Z M  115.51767 27.88358  " /> 
 </g> 
 </g> 
 </g> 
 <g> 
 <g stroke="rgb(100.0%,69.9997%,69.9997%)"> 
 <g fill="rgb(100.0%,69.9997%,69.9997%)"> 
 <path d=" M  51.78378 19.91684 M  51.78378 19.91684 L  51.78378 27.88358 L  59.75052 27.88358 L  59.75052 19.91684 Z M  59.75052 27.88358  " /> 
 </g> 
 </g> 
 </g> 
 <g> 
 <g stroke="rgb(100.0%,69.9997%,69.9997%)"> 
 <g fill="rgb(100.0%,69.9997%,69.9997%)"> 
 <path d=" M  99.5842 19.91684 M  99.5842 19.91684 L  99.5842 27.88358 L  107.55093 27.88358 L  107.55093 19.91684 Z M  107.55093 27.88358  " /> 
 </g> 
 </g> 
 </g> 
 <g> 
 <g stroke="rgb(100.0%,69.9997%,69.9997%)"> 
 <g fill="rgb(100.0%,69.9997%,69.9997%)"> 
 <path d=" M  59.75052 19.91684 M  59.75052 19.91684 L  59.75052 27.88358 L  67.71725 27.88358 L  67.71725 19.91684 Z M  67.71725 27.88358  " /> 
 </g> 
 </g> 
 </g> 
 <g> 
 <g stroke="rgb(100.0%,69.9997%,69.9997%)"> 
 <g fill="rgb(100.0%,69.9997%,69.9997%)"> 
 <path d=" M  91.61746 19.91684 M  91.61746 19.91684 L  91.61746 27.88358 L  99.5842 27.88358 L  99.5842 19.91684 Z M  99.5842 27.88358  " /> 
 </g> 
 </g> 
 </g> 
 <g> 
 <g stroke="rgb(100.0%,69.9997%,69.9997%)"> 
 <g fill="rgb(100.0%,69.9997%,69.9997%)"> 
 <path d=" M  67.71725 19.91684 M  67.71725 19.91684 L  67.71725 27.88358 L  75.68399 27.88358 L  75.68399 19.91684 Z M  75.68399 27.88358  " /> 
 </g> 
 </g> 
 </g> 
 <g> 
 <g stroke="rgb(100.0%,69.9997%,69.9997%)"> 
 <g fill="rgb(100.0%,69.9997%,69.9997%)"> 
 <path d=" M  83.65073 19.91684 M  83.65073 19.91684 L  83.65073 27.88358 L  91.61746 27.88358 L  91.61746 19.91684 Z M  91.61746 27.88358  " /> 
 </g> 
 </g> 
 </g> 
 <g> 
 <g stroke="rgb(100.0%,69.9997%,69.9997%)"> 
 <g fill="rgb(100.0%,69.9997%,69.9997%)"> 
 <path d=" M  75.68399 19.91684 M  75.68399 19.91684 L  75.68399 27.88358 L  83.65073 27.88358 L  83.65073 19.91684 Z M  83.65073 27.88358  " /> 
 </g> 
 </g> 
 </g> 
 <g> 
 <g stroke="rgb(100.0%,69.9997%,69.9997%)"> 
 <g fill="rgb(100.0%,69.9997%,69.9997%)"> 
 <path d=" M  75.68399 19.91684 M  75.68399 19.91684 L  75.68399 27.88358 L  83.65073 27.88358 L  83.65073 19.91684 Z M  83.65073 27.88358  " /> 
 </g> 
 </g> 
 </g> 
 <g> 
 <g stroke="rgb(100.0%,69.9997%,69.9997%)"> 
 <g fill="rgb(100.0%,69.9997%,69.9997%)"> 
 <path d=" M  27.88358 27.88358 M  27.88358 27.88358 L  27.88358 35.85031 L  35.85031 35.85031 L  35.85031 27.88358 Z M  35.85031 35.85031  " /> 
 </g> 
 </g> 
 </g> 
 <g> 
 <g stroke="rgb(100.0%,69.9997%,69.9997%)"> 
 <g fill="rgb(100.0%,69.9997%,69.9997%)"> 
 <path d=" M  123.4844 27.88358 M  123.4844 27.88358 L  123.4844 35.85031 L  131.45114 35.85031 L  131.45114 27.88358 Z M  131.45114 35.85031  " /> 
 </g> 
 </g> 
 </g> 
 <g> 
 <g stroke="rgb(100.0%,69.9997%,69.9997%)"> 
 <g fill="rgb(100.0%,69.9997%,69.9997%)"> 
 <path d=" M  35.85031 27.88358 M  35.85031 27.88358 L  35.85031 35.85031 L  43.81705 35.85031 L  43.81705 27.88358 Z M  43.81705 35.85031  " /> 
 </g> 
 </g> 
 </g> 
 <g> 
 <g stroke="rgb(100.0%,69.9997%,69.9997%)"> 
 <g fill="rgb(100.0%,69.9997%,69.9997%)"> 
 <path d=" M  115.51767 27.88358 M  115.51767 27.88358 L  115.51767 35.85031 L  123.4844 35.85031 L  123.4844 27.88358 Z M  123.4844 35.85031  " /> 
 </g> 
 </g> 
 </g> 
 <g> 
 <g stroke="rgb(100.0%,69.9997%,69.9997%)"> 
 <g fill="rgb(100.0%,69.9997%,69.9997%)"> 
 <path d=" M  43.81705 27.88358 M  43.81705 27.88358 L  43.81705 35.85031 L  51.78378 35.85031 L  51.78378 27.88358 Z M  51.78378 35.85031  " /> 
 </g> 
 </g> 
 </g> 
 <g> 
 <g stroke="rgb(100.0%,69.9997%,69.9997%)"> 
 <g fill="rgb(100.0%,69.9997%,69.9997%)"> 
 <path d=" M  107.55093 27.88358 M  107.55093 27.88358 L  107.55093 35.85031 L  115.51767 35.85031 L  115.51767 27.88358 Z M  115.51767 35.85031  " /> 
 </g> 
 </g> 
 </g> 
 <g> 
 <g stroke="rgb(100.0%,69.9997%,69.9997%)"> 
 <g fill="rgb(100.0%,69.9997%,69.9997%)"> 
 <path d=" M  51.78378 27.88358 M  51.78378 27.88358 L  51.78378 35.85031 L  59.75052 35.85031 L  59.75052 27.88358 Z M  59.75052 35.85031  " /> 
 </g> 
 </g> 
 </g> 
 <g> 
 <g stroke="rgb(100.0%,69.9997%,69.9997%)"> 
 <g fill="rgb(100.0%,69.9997%,69.9997%)"> 
 <path d=" M  99.5842 27.88358 M  99.5842 27.88358 L  99.5842 35.85031 L  107.55093 35.85031 L  107.55093 27.88358 Z M  107.55093 35.85031  " /> 
 </g> 
 </g> 
 </g> 
 <g> 
 <g stroke="rgb(100.0%,69.9997%,69.9997%)"> 
 <g fill="rgb(100.0%,69.9997%,69.9997%)"> 
 <path d=" M  59.75052 27.88358 M  59.75052 27.88358 L  59.75052 35.85031 L  67.71725 35.85031 L  67.71725 27.88358 Z M  67.71725 35.85031  " /> 
 </g> 
 </g> 
 </g> 
 <g> 
 <g stroke="rgb(100.0%,69.9997%,69.9997%)"> 
 <g fill="rgb(100.0%,69.9997%,69.9997%)"> 
 <path d=" M  91.61746 27.88358 M  91.61746 27.88358 L  91.61746 35.85031 L  99.5842 35.85031 L  99.5842 27.88358 Z M  99.5842 35.85031  " /> 
 </g> 
 </g> 
 </g> 
 <g> 
 <g stroke="rgb(100.0%,69.9997%,69.9997%)"> 
 <g fill="rgb(100.0%,69.9997%,69.9997%)"> 
 <path d=" M  67.71725 27.88358 M  67.71725 27.88358 L  67.71725 35.85031 L  75.68399 35.85031 L  75.68399 27.88358 Z M  75.68399 35.85031  " /> 
 </g> 
 </g> 
 </g> 
 <g> 
 <g stroke="rgb(100.0%,69.9997%,69.9997%)"> 
 <g fill="rgb(100.0%,69.9997%,69.9997%)"> 
 <path d=" M  83.65073 27.88358 M  83.65073 27.88358 L  83.65073 35.85031 L  91.61746 35.85031 L  91.61746 27.88358 Z M  91.61746 35.85031  " /> 
 </g> 
 </g> 
 </g> 
 <g> 
 <g stroke="rgb(100.0%,69.9997%,69.9997%)"> 
 <g fill="rgb(100.0%,69.9997%,69.9997%)"> 
 <path d=" M  75.68399 27.88358 M  75.68399 27.88358 L  75.68399 35.85031 L  83.65073 35.85031 L  83.65073 27.88358 Z M  83.65073 35.85031  " /> 
 </g> 
 </g> 
 </g> 
 <g> 
 <g stroke="rgb(100.0%,69.9997%,69.9997%)"> 
 <g fill="rgb(100.0%,69.9997%,69.9997%)"> 
 <path d=" M  75.68399 27.88358 M  75.68399 27.88358 L  75.68399 35.85031 L  83.65073 35.85031 L  83.65073 27.88358 Z M  83.65073 35.85031  " /> 
 </g> 
 </g> 
 </g> 
 <g> 
 <g stroke="rgb(100.0%,69.9997%,69.9997%)"> 
 <g fill="rgb(100.0%,69.9997%,69.9997%)"> 
 <path d=" M  35.85031 35.85031 M  35.85031 35.85031 L  35.85031 43.81705 L  43.81705 43.81705 L  43.81705 35.85031 Z M  43.81705 43.81705  " /> 
 </g> 
 </g> 
 </g> 
 <g> 
 <g stroke="rgb(100.0%,69.9997%,69.9997%)"> 
 <g fill="rgb(100.0%,69.9997%,69.9997%)"> 
 <path d=" M  115.51767 35.85031 M  115.51767 35.85031 L  115.51767 43.81705 L  123.4844 43.81705 L  123.4844 35.85031 Z M  123.4844 43.81705  " /> 
 </g> 
 </g> 
 </g> 
 <g> 
 <g stroke="rgb(100.0%,69.9997%,69.9997%)"> 
 <g fill="rgb(100.0%,69.9997%,69.9997%)"> 
 <path d=" M  43.81705 35.85031 M  43.81705 35.85031 L  43.81705 43.81705 L  51.78378 43.81705 L  51.78378 35.85031 Z M  51.78378 43.81705  " /> 
 </g> 
 </g> 
 </g> 
 <g> 
 <g stroke="rgb(100.0%,69.9997%,69.9997%)"> 
 <g fill="rgb(100.0%,69.9997%,69.9997%)"> 
 <path d=" M  107.55093 35.85031 M  107.55093 35.85031 L  107.55093 43.81705 L  115.51767 43.81705 L  115.51767 35.85031 Z M  115.51767 43.81705  " /> 
 </g> 
 </g> 
 </g> 
 <g> 
 <g stroke="rgb(100.0%,69.9997%,69.9997%)"> 
 <g fill="rgb(100.0%,69.9997%,69.9997%)"> 
 <path d=" M  51.78378 35.85031 M  51.78378 35.85031 L  51.78378 43.81705 L  59.75052 43.81705 L  59.75052 35.85031 Z M  59.75052 43.81705  " /> 
 </g> 
 </g> 
 </g> 
 <g> 
 <g stroke="rgb(100.0%,69.9997%,69.9997%)"> 
 <g fill="rgb(100.0%,69.9997%,69.9997%)"> 
 <path d=" M  99.5842 35.85031 M  99.5842 35.85031 L  99.5842 43.81705 L  107.55093 43.81705 L  107.55093 35.85031 Z M  107.55093 43.81705  " /> 
 </g> 
 </g> 
 </g> 
 <g> 
 <g stroke="rgb(100.0%,69.9997%,69.9997%)"> 
 <g fill="rgb(100.0%,69.9997%,69.9997%)"> 
 <path d=" M  59.75052 35.85031 M  59.75052 35.85031 L  59.75052 43.81705 L  67.71725 43.81705 L  67.71725 35.85031 Z M  67.71725 43.81705  " /> 
 </g> 
 </g> 
 </g> 
 <g> 
 <g stroke="rgb(100.0%,69.9997%,69.9997%)"> 
 <g fill="rgb(100.0%,69.9997%,69.9997%)"> 
 <path d=" M  91.61746 35.85031 M  91.61746 35.85031 L  91.61746 43.81705 L  99.5842 43.81705 L  99.5842 35.85031 Z M  99.5842 43.81705  " /> 
 </g> 
 </g> 
 </g> 
 <g> 
 <g stroke="rgb(100.0%,69.9997%,69.9997%)"> 
 <g fill="rgb(100.0%,69.9997%,69.9997%)"> 
 <path d=" M  67.71725 35.85031 M  67.71725 35.85031 L  67.71725 43.81705 L  75.68399 43.81705 L  75.68399 35.85031 Z M  75.68399 43.81705  " /> 
 </g> 
 </g> 
 </g> 
 <g> 
 <g stroke="rgb(100.0%,69.9997%,69.9997%)"> 
 <g fill="rgb(100.0%,69.9997%,69.9997%)"> 
 <path d=" M  83.65073 35.85031 M  83.65073 35.85031 L  83.65073 43.81705 L  91.61746 43.81705 L  91.61746 35.85031 Z M  91.61746 43.81705  " /> 
 </g> 
 </g> 
 </g> 
 <g> 
 <g stroke="rgb(100.0%,69.9997%,69.9997%)"> 
 <g fill="rgb(100.0%,69.9997%,69.9997%)"> 
 <path d=" M  75.68399 35.85031 M  75.68399 35.85031 L  75.68399 43.81705 L  83.65073 43.81705 L  83.65073 35.85031 Z M  83.65073 43.81705  " /> 
 </g> 
 </g> 
 </g> 
 <g> 
 <g stroke="rgb(100.0%,69.9997%,69.9997%)"> 
 <g fill="rgb(100.0%,69.9997%,69.9997%)"> 
 <path d=" M  75.68399 35.85031 M  75.68399 35.85031 L  75.68399 43.81705 L  83.65073 43.81705 L  83.65073 35.85031 Z M  83.65073 43.81705  " /> 
 </g> 
 </g> 
 </g> 
 <g> 
 <g stroke="rgb(100.0%,69.9997%,69.9997%)"> 
 <g fill="rgb(100.0%,69.9997%,69.9997%)"> 
 <path d=" M  43.81705 43.81705 M  43.81705 43.81705 L  43.81705 51.78378 L  51.78378 51.78378 L  51.78378 43.81705 Z M  51.78378 51.78378  " /> 
 </g> 
 </g> 
 </g> 
 <g> 
 <g stroke="rgb(100.0%,69.9997%,69.9997%)"> 
 <g fill="rgb(100.0%,69.9997%,69.9997%)"> 
 <path d=" M  107.55093 43.81705 M  107.55093 43.81705 L  107.55093 51.78378 L  115.51767 51.78378 L  115.51767 43.81705 Z M  115.51767 51.78378  " /> 
 </g> 
 </g> 
 </g> 
 <g> 
 <g stroke="rgb(100.0%,69.9997%,69.9997%)"> 
 <g fill="rgb(100.0%,69.9997%,69.9997%)"> 
 <path d=" M  51.78378 43.81705 M  51.78378 43.81705 L  51.78378 51.78378 L  59.75052 51.78378 L  59.75052 43.81705 Z M  59.75052 51.78378  " /> 
 </g> 
 </g> 
 </g> 
 <g> 
 <g stroke="rgb(100.0%,69.9997%,69.9997%)"> 
 <g fill="rgb(100.0%,69.9997%,69.9997%)"> 
 <path d=" M  99.5842 43.81705 M  99.5842 43.81705 L  99.5842 51.78378 L  107.55093 51.78378 L  107.55093 43.81705 Z M  107.55093 51.78378  " /> 
 </g> 
 </g> 
 </g> 
 <g> 
 <g stroke="rgb(100.0%,69.9997%,69.9997%)"> 
 <g fill="rgb(100.0%,69.9997%,69.9997%)"> 
 <path d=" M  59.75052 43.81705 M  59.75052 43.81705 L  59.75052 51.78378 L  67.71725 51.78378 L  67.71725 43.81705 Z M  67.71725 51.78378  " /> 
 </g> 
 </g> 
 </g> 
 <g> 
 <g stroke="rgb(100.0%,69.9997%,69.9997%)"> 
 <g fill="rgb(100.0%,69.9997%,69.9997%)"> 
 <path d=" M  91.61746 43.81705 M  91.61746 43.81705 L  91.61746 51.78378 L  99.5842 51.78378 L  99.5842 43.81705 Z M  99.5842 51.78378  " /> 
 </g> 
 </g> 
 </g> 
 <g> 
 <g stroke="rgb(100.0%,69.9997%,69.9997%)"> 
 <g fill="rgb(100.0%,69.9997%,69.9997%)"> 
 <path d=" M  67.71725 43.81705 M  67.71725 43.81705 L  67.71725 51.78378 L  75.68399 51.78378 L  75.68399 43.81705 Z M  75.68399 51.78378  " /> 
 </g> 
 </g> 
 </g> 
 <g> 
 <g stroke="rgb(100.0%,69.9997%,69.9997%)"> 
 <g fill="rgb(100.0%,69.9997%,69.9997%)"> 
 <path d=" M  83.65073 43.81705 M  83.65073 43.81705 L  83.65073 51.78378 L  91.61746 51.78378 L  91.61746 43.81705 Z M  91.61746 51.78378  " /> 
 </g> 
 </g> 
 </g> 
 <g> 
 <g stroke="rgb(100.0%,69.9997%,69.9997%)"> 
 <g fill="rgb(100.0%,69.9997%,69.9997%)"> 
 <path d=" M  75.68399 43.81705 M  75.68399 43.81705 L  75.68399 51.78378 L  83.65073 51.78378 L  83.65073 43.81705 Z M  83.65073 51.78378  " /> 
 </g> 
 </g> 
 </g> 
 <g> 
 <g stroke="rgb(100.0%,69.9997%,69.9997%)"> 
 <g fill="rgb(100.0%,69.9997%,69.9997%)"> 
 <path d=" M  75.68399 43.81705 M  75.68399 43.81705 L  75.68399 51.78378 L  83.65073 51.78378 L  83.65073 43.81705 Z M  83.65073 51.78378  " /> 
 </g> 
 </g> 
 </g> 
 <g> 
 <g stroke="rgb(100.0%,69.9997%,69.9997%)"> 
 <g fill="rgb(100.0%,69.9997%,69.9997%)"> 
 <path d=" M  59.75052 51.78378 M  59.75052 51.78378 L  59.75052 59.75052 L  67.71725 59.75052 L  67.71725 51.78378 Z M  67.71725 59.75052  " /> 
 </g> 
 </g> 
 </g> 
 <g> 
 <g stroke="rgb(100.0%,69.9997%,69.9997%)"> 
 <g fill="rgb(100.0%,69.9997%,69.9997%)"> 
 <path d=" M  91.61746 51.78378 M  91.61746 51.78378 L  91.61746 59.75052 L  99.5842 59.75052 L  99.5842 51.78378 Z M  99.5842 59.75052  " /> 
 </g> 
 </g> 
 </g> 
 <g> 
 <g stroke="rgb(100.0%,69.9997%,69.9997%)"> 
 <g fill="rgb(100.0%,69.9997%,69.9997%)"> 
 <path d=" M  67.71725 51.78378 M  67.71725 51.78378 L  67.71725 59.75052 L  75.68399 59.75052 L  75.68399 51.78378 Z M  75.68399 59.75052  " /> 
 </g> 
 </g> 
 </g> 
 <g> 
 <g stroke="rgb(100.0%,69.9997%,69.9997%)"> 
 <g fill="rgb(100.0%,69.9997%,69.9997%)"> 
 <path d=" M  83.65073 51.78378 M  83.65073 51.78378 L  83.65073 59.75052 L  91.61746 59.75052 L  91.61746 51.78378 Z M  91.61746 59.75052  " /> 
 </g> 
 </g> 
 </g> 
 <g> 
 <g stroke="rgb(100.0%,69.9997%,69.9997%)"> 
 <g fill="rgb(100.0%,69.9997%,69.9997%)"> 
 <path d=" M  75.68399 51.78378 M  75.68399 51.78378 L  75.68399 59.75052 L  83.65073 59.75052 L  83.65073 51.78378 Z M  83.65073 59.75052  " /> 
 </g> 
 </g> 
 </g> 
 <g> 
 <g stroke="rgb(100.0%,69.9997%,69.9997%)"> 
 <g fill="rgb(100.0%,69.9997%,69.9997%)"> 
 <path d=" M  75.68399 51.78378 M  75.68399 51.78378 L  75.68399 59.75052 L  83.65073 59.75052 L  83.65073 51.78378 Z M  83.65073 59.75052  " /> 
 </g> 
 </g> 
 </g> 
 <g> 
 <g stroke="rgb(50.0%,50.0%,50.0%)"> 
 <g fill="rgb(50.0%,50.0%,50.0%)"> 
 <g stroke-width="0.2pt"> 
 <path d=" M  0.0 0.0 M  0.0 0.0 L  159.33472 0.0 M  0.0 7.96674 L  159.33472 7.96674 M  0.0 15.93347 L  159.33472 15.93347 M  0.0 23.9002 L  159.33472 23.9002 M  0.0 31.86694 L  159.33472 31.86694 M  0.0 39.83368 L  159.33472 39.83368 M  0.0 47.80042 L  159.33472 47.80042 M  0.0 55.76715 L  159.33472 55.76715 M  0.0 63.73389 L  159.33472 63.73389 M  0.0 71.70062 L  159.33472 71.70062 M  0.0 79.65736 L  159.33472 79.65736 M  0.0 0.0 L  0.0 79.66736 M  7.96674 0.0 L  7.96674 79.66736 M  15.93347 0.0 L  15.93347 79.66736 M  23.9002 0.0 L  23.9002 79.66736 M  31.86694 0.0 L  31.86694 79.66736 M  39.83368 0.0 L  39.83368 79.66736 M  47.80042 0.0 L  47.80042 79.66736 M  55.76715 0.0 L  55.76715 79.66736 M  63.73389 0.0 L  63.73389 79.66736 M  71.70062 0.0 L  71.70062 79.66736 M  79.66736 0.0 L  79.66736 79.66736 M  87.6341 0.0 L  87.6341 79.66736 M  95.60083 0.0 L  95.60083 79.66736 M  103.56757 0.0 L  103.56757 79.66736 M  111.5343 0.0 L  111.5343 79.66736 M  119.50104 0.0 L  119.50104 79.66736 M  127.46777 0.0 L  127.46777 79.66736 M  135.43451 0.0 L  135.43451 79.66736 M  143.40125 0.0 L  143.40125 79.66736 M  151.36798 0.0 L  151.36798 79.66736 M  159.32472 0.0 L  159.32472 79.66736  " style="fill:none"/> 
 </g> 
 </g> 
 </g> 
 </g> 
 <g> 
 <g stroke-width="0.8pt"> 
 <g stroke="rgb(33.00018%,33.00018%,33.00018%)"> 
 <g fill="rgb(33.00018%,33.00018%,33.00018%)"> 
 <path d=" M  23.10349 0.0 C  23.10349 0.44 23.46019 0.7967 23.90019 0.7967 C  24.3402 0.7967 24.6969 0.44 24.6969 0.0  " /> 
 </g> 
 </g> 
 </g> 
 </g> 
 <g> 
 <g stroke-width="0.8pt"> 
 <g stroke="rgb(33.00018%,33.00018%,33.00018%)"> 
 <g fill="rgb(33.00018%,33.00018%,33.00018%)"> 
 <path d=" M  134.63779 0.0 C  134.63779 0.44 134.99449 0.7967 135.4345 0.7967 C  135.8745 0.7967 136.2312 0.44 136.2312 0.0  " /> 
 </g> 
 </g> 
 </g> 
 </g> 
 <g> 
 <g stroke-width="0.8pt"> 
 <g stroke="rgb(33.00018%,33.00018%,33.00018%)"> 
 <g fill="rgb(33.00018%,33.00018%,33.00018%)"> 
 <path d=" M  31.07022 0.0 C  31.07022 0.44 31.42693 0.7967 31.86693 0.7967 C  32.30693 0.7967 32.66364 0.44 32.66364 0.0  " /> 
 </g> 
 </g> 
 </g> 
 </g> 
 <g> 
 <g stroke-width="0.8pt"> 
 <g stroke="rgb(33.00018%,33.00018%,33.00018%)"> 
 <g fill="rgb(33.00018%,33.00018%,33.00018%)"> 
 <path d=" M  126.67105 0.0 C  126.67105 0.44 127.02776 0.7967 127.46776 0.7967 C  127.90776 0.7967 128.26447 0.44 128.26447 0.0  " /> 
 </g> 
 </g> 
 </g> 
 </g> 
 <g> 
 <g stroke-width="0.8pt"> 
 <g stroke="rgb(33.00018%,33.00018%,33.00018%)"> 
 <g fill="rgb(33.00018%,33.00018%,33.00018%)"> 
 <path d=" M  39.03696 0.0 C  39.03696 0.44 39.39366 0.7967 39.83366 0.7967 C  40.27367 0.7967 40.63037 0.44 40.63037 0.0  " /> 
 </g> 
 </g> 
 </g> 
 </g> 
 <g> 
 <g stroke-width="0.8pt"> 
 <g stroke="rgb(33.00018%,33.00018%,33.00018%)"> 
 <g fill="rgb(33.00018%,33.00018%,33.00018%)"> 
 <path d=" M  118.70432 0.0 C  118.70432 0.44 119.06102 0.7967 119.50102 0.7967 C  119.94102 0.7967 120.29773 0.44 120.29773 0.0  " /> 
 </g> 
 </g> 
 </g> 
 </g> 
 <g> 
 <g stroke-width="0.8pt"> 
 <g stroke="rgb(33.00018%,33.00018%,33.00018%)"> 
 <g fill="rgb(33.00018%,33.00018%,33.00018%)"> 
 <path d=" M  47.0037 0.0 C  47.0037 0.44 47.3604 0.7967 47.8004 0.7967 C  48.2404 0.7967 48.5971 0.44 48.5971 0.0  " /> 
 </g> 
 </g> 
 </g> 
 </g> 
 <g> 
 <g stroke-width="0.8pt"> 
 <g stroke="rgb(33.00018%,33.00018%,33.00018%)"> 
 <g fill="rgb(33.00018%,33.00018%,33.00018%)"> 
 <path d=" M  110.73758 0.0 C  110.73758 0.44 111.09428 0.7967 111.53429 0.7967 C  111.97429 0.7967 112.331 0.44 112.331 0.0  " /> 
 </g> 
 </g> 
 </g> 
 </g> 
 <g> 
 <g stroke-width="0.8pt"> 
 <g stroke="rgb(33.00018%,33.00018%,33.00018%)"> 
 <g fill="rgb(33.00018%,33.00018%,33.00018%)"> 
 <path d=" M  54.97043 0.0 C  54.97043 0.44 55.32713 0.7967 55.76714 0.7967 C  56.20714 0.7967 56.56384 0.44 56.56384 0.0  " /> 
 </g> 
 </g> 
 </g> 
 </g> 
 <g> 
 <g stroke-width="0.8pt"> 
 <g stroke="rgb(33.00018%,33.00018%,33.00018%)"> 
 <g fill="rgb(33.00018%,33.00018%,33.00018%)"> 
 <path d=" M  102.77084 0.0 C  102.77084 0.44 103.12755 0.7967 103.56755 0.7967 C  104.00755 0.7967 104.36426 0.44 104.36426 0.0  " /> 
 </g> 
 </g> 
 </g> 
 </g> 
 <g> 
 <g stroke-width="0.8pt"> 
 <g stroke="rgb(33.00018%,33.00018%,33.00018%)"> 
 <g fill="rgb(33.00018%,33.00018%,33.00018%)"> 
 <path d=" M  62.93716 0.0 C  62.93716 0.44 63.29387 0.7967 63.73387 0.7967 C  64.17387 0.7967 64.53058 0.44 64.53058 0.0  " /> 
 </g> 
 </g> 
 </g> 
 </g> 
 <g> 
 <g stroke-width="0.8pt"> 
 <g stroke="rgb(33.00018%,33.00018%,33.00018%)"> 
 <g fill="rgb(33.00018%,33.00018%,33.00018%)"> 
 <path d=" M  94.80411 0.0 C  94.80411 0.44 95.16081 0.7967 95.60081 0.7967 C  96.04082 0.7967 96.39752 0.44 96.39752 0.0  " /> 
 </g> 
 </g> 
 </g> 
 </g> 
 <g> 
 <g stroke-width="0.8pt"> 
 <g stroke="rgb(33.00018%,33.00018%,33.00018%)"> 
 <g fill="rgb(33.00018%,33.00018%,33.00018%)"> 
 <path d=" M  70.9039 0.0 C  70.9039 0.44 71.2606 0.7967 71.7006 0.7967 C  72.14061 0.7967 72.49731 0.44 72.49731 0.0  " /> 
 </g> 
 </g> 
 </g> 
 </g> 
 <g> 
 <g stroke-width="0.8pt"> 
 <g stroke="rgb(33.00018%,33.00018%,33.00018%)"> 
 <g fill="rgb(33.00018%,33.00018%,33.00018%)"> 
 <path d=" M  86.83737 0.0 C  86.83737 0.44 87.19408 0.7967 87.63408 0.7967 C  88.07408 0.7967 88.43079 0.44 88.43079 0.0  " /> 
 </g> 
 </g> 
 </g> 
 </g> 
 <g> 
 <g stroke-width="0.8pt"> 
 <g stroke="rgb(33.00018%,33.00018%,33.00018%)"> 
 <g fill="rgb(33.00018%,33.00018%,33.00018%)"> 
 <path d=" M  78.87064 0.0 C  78.87064 0.44 79.22734 0.7967 79.66734 0.7967 C  80.10735 0.7967 80.46405 0.44 80.46405 0.0  " /> 
 </g> 
 </g> 
 </g> 
 </g> 
 <g> 
 <g stroke-width="0.8pt"> 
 <g stroke="rgb(33.00018%,33.00018%,33.00018%)"> 
 <g fill="rgb(33.00018%,33.00018%,33.00018%)"> 
 <path d=" M  78.87064 0.0 C  78.87064 0.44 79.22734 0.7967 79.66734 0.7967 C  80.10735 0.7967 80.46405 0.44 80.46405 0.0  " /> 
 </g> 
 </g> 
 </g> 
 </g> 
 <g> 
 <g stroke-width="0.8pt"> 
 <g stroke="rgb(33.00018%,33.00018%,33.00018%)"> 
 <g fill="rgb(33.00018%,33.00018%,33.00018%)"> 
 <path d=" M  23.9002 7.96674 M  24.69691 7.96674 C  24.69691 8.40674 24.34021 8.76344 23.9002 8.76344 C  23.4602 8.76344 23.1035 8.40674 23.1035 7.96674 C  23.1035 7.52673 23.4602 7.17003 23.9002 7.17003 C  24.34021 7.17003 24.69691 7.52673 24.69691 7.96674 Z M  23.9002 7.96674  " /> 
 </g> 
 </g> 
 </g> 
 </g> 
 <g> 
 <g stroke-width="0.8pt"> 
 <g stroke="rgb(33.00018%,33.00018%,33.00018%)"> 
 <g fill="rgb(33.00018%,33.00018%,33.00018%)"> 
 <path d=" M  135.43451 7.96674 M  136.23122 7.96674 C  136.23122 8.40674 135.87451 8.76344 135.43451 8.76344 C  134.9945 8.76344 134.6378 8.40674 134.6378 7.96674 C  134.6378 7.52673 134.9945 7.17003 135.43451 7.17003 C  135.87451 7.17003 136.23122 7.52673 136.23122 7.96674 Z M  135.43451 7.96674  " /> 
 </g> 
 </g> 
 </g> 
 </g> 
 <g> 
 <g stroke-width="0.8pt"> 
 <g stroke="rgb(33.00018%,33.00018%,33.00018%)"> 
 <g fill="rgb(33.00018%,33.00018%,33.00018%)"> 
 <path d=" M  31.86694 7.96674 M  32.66365 7.96674 C  32.66365 8.40674 32.30695 8.76344 31.86694 8.76344 C  31.42694 8.76344 31.07024 8.40674 31.07024 7.96674 C  31.07024 7.52673 31.42694 7.17003 31.86694 7.17003 C  32.30695 7.17003 32.66365 7.52673 32.66365 7.96674 Z M  31.86694 7.96674  " /> 
 </g> 
 </g> 
 </g> 
 </g> 
 <g> 
 <g stroke-width="0.8pt"> 
 <g stroke="rgb(33.00018%,33.00018%,33.00018%)"> 
 <g fill="rgb(33.00018%,33.00018%,33.00018%)"> 
 <path d=" M  127.46777 7.96674 M  128.26448 7.96674 C  128.26448 8.40674 127.90778 8.76344 127.46777 8.76344 C  127.02777 8.76344 126.67107 8.40674 126.67107 7.96674 C  126.67107 7.52673 127.02777 7.17003 127.46777 7.17003 C  127.90778 7.17003 128.26448 7.52673 128.26448 7.96674 Z M  127.46777 7.96674  " /> 
 </g> 
 </g> 
 </g> 
 </g> 
 <g> 
 <g stroke-width="0.8pt"> 
 <g stroke="rgb(33.00018%,33.00018%,33.00018%)"> 
 <g fill="rgb(33.00018%,33.00018%,33.00018%)"> 
 <path d=" M  39.83368 7.96674 M  40.63039 7.96674 C  40.63039 8.40674 40.27368 8.76344 39.83368 8.76344 C  39.39368 8.76344 39.03697 8.40674 39.03697 7.96674 C  39.03697 7.52673 39.39368 7.17003 39.83368 7.17003 C  40.27368 7.17003 40.63039 7.52673 40.63039 7.96674 Z M  39.83368 7.96674  " /> 
 </g> 
 </g> 
 </g> 
 </g> 
 <g> 
 <g stroke-width="0.8pt"> 
 <g stroke="rgb(33.00018%,33.00018%,33.00018%)"> 
 <g fill="rgb(33.00018%,33.00018%,33.00018%)"> 
 <path d=" M  119.50104 7.96674 M  120.29774 7.96674 C  120.29774 8.40674 119.94104 8.76344 119.50104 8.76344 C  119.06104 8.76344 118.70433 8.40674 118.70433 7.96674 C  118.70433 7.52673 119.06104 7.17003 119.50104 7.17003 C  119.94104 7.17003 120.29774 7.52673 120.29774 7.96674 Z M  119.50104 7.96674  " /> 
 </g> 
 </g> 
 </g> 
 </g> 
 <g> 
 <g stroke-width="0.8pt"> 
 <g stroke="rgb(33.00018%,33.00018%,33.00018%)"> 
 <g fill="rgb(33.00018%,33.00018%,33.00018%)"> 
 <path d=" M  47.80042 7.96674 M  48.59712 7.96674 C  48.59712 8.40674 48.24042 8.76344 47.80042 8.76344 C  47.36041 8.76344 47.00371 8.40674 47.00371 7.96674 C  47.00371 7.52673 47.36041 7.17003 47.80042 7.17003 C  48.24042 7.17003 48.59712 7.52673 48.59712 7.96674 Z M  47.80042 7.96674  " /> 
 </g> 
 </g> 
 </g> 
 </g> 
 <g> 
 <g stroke-width="0.8pt"> 
 <g stroke="rgb(33.00018%,33.00018%,33.00018%)"> 
 <g fill="rgb(33.00018%,33.00018%,33.00018%)"> 
 <path d=" M  111.5343 7.96674 M  112.33101 7.96674 C  112.33101 8.40674 111.9743 8.76344 111.5343 8.76344 C  111.0943 8.76344 110.7376 8.40674 110.7376 7.96674 C  110.7376 7.52673 111.0943 7.17003 111.5343 7.17003 C  111.9743 7.17003 112.33101 7.52673 112.33101 7.96674 Z M  111.5343 7.96674  " /> 
 </g> 
 </g> 
 </g> 
 </g> 
 <g> 
 <g stroke-width="0.8pt"> 
 <g stroke="rgb(33.00018%,33.00018%,33.00018%)"> 
 <g fill="rgb(33.00018%,33.00018%,33.00018%)"> 
 <path d=" M  55.76715 7.96674 M  56.56386 7.96674 C  56.56386 8.40674 56.20715 8.76344 55.76715 8.76344 C  55.32715 8.76344 54.97044 8.40674 54.97044 7.96674 C  54.97044 7.52673 55.32715 7.17003 55.76715 7.17003 C  56.20715 7.17003 56.56386 7.52673 56.56386 7.96674 Z M  55.76715 7.96674  " /> 
 </g> 
 </g> 
 </g> 
 </g> 
 <g> 
 <g stroke-width="0.8pt"> 
 <g stroke="rgb(33.00018%,33.00018%,33.00018%)"> 
 <g fill="rgb(33.00018%,33.00018%,33.00018%)"> 
 <path d=" M  103.56757 7.96674 M  104.36427 7.96674 C  104.36427 8.40674 104.00757 8.76344 103.56757 8.76344 C  103.12756 8.76344 102.77086 8.40674 102.77086 7.96674 C  102.77086 7.52673 103.12756 7.17003 103.56757 7.17003 C  104.00757 7.17003 104.36427 7.52673 104.36427 7.96674 Z M  103.56757 7.96674  " /> 
 </g> 
 </g> 
 </g> 
 </g> 
 <g> 
 <g stroke-width="0.8pt"> 
 <g stroke="rgb(33.00018%,33.00018%,33.00018%)"> 
 <g fill="rgb(33.00018%,33.00018%,33.00018%)"> 
 <path d=" M  63.73389 7.96674 M  64.5306 7.96674 C  64.5306 8.40674 64.17389 8.76344 63.73389 8.76344 C  63.29388 8.76344 62.93718 8.40674 62.93718 7.96674 C  62.93718 7.52673 63.29388 7.17003 63.73389 7.17003 C  64.17389 7.17003 64.5306 7.52673 64.5306 7.96674 Z M  63.73389 7.96674  " /> 
 </g> 
 </g> 
 </g> 
 </g> 
 <g> 
 <g stroke-width="0.8pt"> 
 <g stroke="rgb(33.00018%,33.00018%,33.00018%)"> 
 <g fill="rgb(33.00018%,33.00018%,33.00018%)"> 
 <path d=" M  95.60083 7.96674 M  96.39754 7.96674 C  96.39754 8.40674 96.04083 8.76344 95.60083 8.76344 C  95.16083 8.76344 94.80412 8.40674 94.80412 7.96674 C  94.80412 7.52673 95.16083 7.17003 95.60083 7.17003 C  96.04083 7.17003 96.39754 7.52673 96.39754 7.96674 Z M  95.60083 7.96674  " /> 
 </g> 
 </g> 
 </g> 
 </g> 
 <g> 
 <g stroke-width="0.8pt"> 
 <g stroke="rgb(33.00018%,33.00018%,33.00018%)"> 
 <g fill="rgb(33.00018%,33.00018%,33.00018%)"> 
 <path d=" M  71.70062 7.96674 M  72.49733 7.96674 C  72.49733 8.40674 72.14063 8.76344 71.70062 8.76344 C  71.26062 8.76344 70.90392 8.40674 70.90392 7.96674 C  70.90392 7.52673 71.26062 7.17003 71.70062 7.17003 C  72.14063 7.17003 72.49733 7.52673 72.49733 7.96674 Z M  71.70062 7.96674  " /> 
 </g> 
 </g> 
 </g> 
 </g> 
 <g> 
 <g stroke-width="0.8pt"> 
 <g stroke="rgb(33.00018%,33.00018%,33.00018%)"> 
 <g fill="rgb(33.00018%,33.00018%,33.00018%)"> 
 <path d=" M  87.6341 7.96674 M  88.4308 7.96674 C  88.4308 8.40674 88.0741 8.76344 87.6341 8.76344 C  87.19409 8.76344 86.83739 8.40674 86.83739 7.96674 C  86.83739 7.52673 87.19409 7.17003 87.6341 7.17003 C  88.0741 7.17003 88.4308 7.52673 88.4308 7.96674 Z M  87.6341 7.96674  " /> 
 </g> 
 </g> 
 </g> 
 </g> 
 <g> 
 <g stroke-width="0.8pt"> 
 <g stroke="rgb(33.00018%,33.00018%,33.00018%)"> 
 <g fill="rgb(33.00018%,33.00018%,33.00018%)"> 
 <path d=" M  79.66736 7.96674 M  80.46407 7.96674 C  80.46407 8.40674 80.10736 8.76344 79.66736 8.76344 C  79.22736 8.76344 78.87065 8.40674 78.87065 7.96674 C  78.87065 7.52673 79.22736 7.17003 79.66736 7.17003 C  80.10736 7.17003 80.46407 7.52673 80.46407 7.96674 Z M  79.66736 7.96674  " /> 
 </g> 
 </g> 
 </g> 
 </g> 
 <g> 
 <g stroke-width="0.8pt"> 
 <g stroke="rgb(33.00018%,33.00018%,33.00018%)"> 
 <g fill="rgb(33.00018%,33.00018%,33.00018%)"> 
 <path d=" M  79.66736 7.96674 M  80.46407 7.96674 C  80.46407 8.40674 80.10736 8.76344 79.66736 8.76344 C  79.22736 8.76344 78.87065 8.40674 78.87065 7.96674 C  78.87065 7.52673 79.22736 7.17003 79.66736 7.17003 C  80.10736 7.17003 80.46407 7.52673 80.46407 7.96674 Z M  79.66736 7.96674  " /> 
 </g> 
 </g> 
 </g> 
 </g> 
 <g> 
 <g stroke-width="0.8pt"> 
 <g stroke="rgb(33.00018%,33.00018%,33.00018%)"> 
 <g fill="rgb(33.00018%,33.00018%,33.00018%)"> 
 <path d=" M  23.9002 15.93347 M  24.69691 15.93347 C  24.69691 16.37347 24.34021 16.73018 23.9002 16.73018 C  23.4602 16.73018 23.1035 16.37347 23.1035 15.93347 C  23.1035 15.49347 23.4602 15.13676 23.9002 15.13676 C  24.34021 15.13676 24.69691 15.49347 24.69691 15.93347 Z M  23.9002 15.93347  " /> 
 </g> 
 </g> 
 </g> 
 </g> 
 <g> 
 <g stroke-width="0.8pt"> 
 <g stroke="rgb(33.00018%,33.00018%,33.00018%)"> 
 <g fill="rgb(33.00018%,33.00018%,33.00018%)"> 
 <path d=" M  135.43451 15.93347 M  136.23122 15.93347 C  136.23122 16.37347 135.87451 16.73018 135.43451 16.73018 C  134.9945 16.73018 134.6378 16.37347 134.6378 15.93347 C  134.6378 15.49347 134.9945 15.13676 135.43451 15.13676 C  135.87451 15.13676 136.23122 15.49347 136.23122 15.93347 Z M  135.43451 15.93347  " /> 
 </g> 
 </g> 
 </g> 
 </g> 
 <g> 
 <g stroke-width="0.8pt"> 
 <g stroke="rgb(33.00018%,33.00018%,33.00018%)"> 
 <g fill="rgb(33.00018%,33.00018%,33.00018%)"> 
 <path d=" M  31.86694 15.93347 M  32.66365 15.93347 C  32.66365 16.37347 32.30695 16.73018 31.86694 16.73018 C  31.42694 16.73018 31.07024 16.37347 31.07024 15.93347 C  31.07024 15.49347 31.42694 15.13676 31.86694 15.13676 C  32.30695 15.13676 32.66365 15.49347 32.66365 15.93347 Z M  31.86694 15.93347  " /> 
 </g> 
 </g> 
 </g> 
 </g> 
 <g> 
 <g stroke-width="0.8pt"> 
 <g stroke="rgb(33.00018%,33.00018%,33.00018%)"> 
 <g fill="rgb(33.00018%,33.00018%,33.00018%)"> 
 <path d=" M  127.46777 15.93347 M  128.26448 15.93347 C  128.26448 16.37347 127.90778 16.73018 127.46777 16.73018 C  127.02777 16.73018 126.67107 16.37347 126.67107 15.93347 C  126.67107 15.49347 127.02777 15.13676 127.46777 15.13676 C  127.90778 15.13676 128.26448 15.49347 128.26448 15.93347 Z M  127.46777 15.93347  " /> 
 </g> 
 </g> 
 </g> 
 </g> 
 <g> 
 <g stroke-width="0.8pt"> 
 <g stroke="rgb(33.00018%,33.00018%,33.00018%)"> 
 <g fill="rgb(33.00018%,33.00018%,33.00018%)"> 
 <path d=" M  39.83368 15.93347 M  40.63039 15.93347 C  40.63039 16.37347 40.27368 16.73018 39.83368 16.73018 C  39.39368 16.73018 39.03697 16.37347 39.03697 15.93347 C  39.03697 15.49347 39.39368 15.13676 39.83368 15.13676 C  40.27368 15.13676 40.63039 15.49347 40.63039 15.93347 Z M  39.83368 15.93347  " /> 
 </g> 
 </g> 
 </g> 
 </g> 
 <g> 
 <g stroke-width="0.8pt"> 
 <g stroke="rgb(33.00018%,33.00018%,33.00018%)"> 
 <g fill="rgb(33.00018%,33.00018%,33.00018%)"> 
 <path d=" M  119.50104 15.93347 M  120.29774 15.93347 C  120.29774 16.37347 119.94104 16.73018 119.50104 16.73018 C  119.06104 16.73018 118.70433 16.37347 118.70433 15.93347 C  118.70433 15.49347 119.06104 15.13676 119.50104 15.13676 C  119.94104 15.13676 120.29774 15.49347 120.29774 15.93347 Z M  119.50104 15.93347  " /> 
 </g> 
 </g> 
 </g> 
 </g> 
 <g> 
 <g stroke-width="0.8pt"> 
 <g stroke="rgb(33.00018%,33.00018%,33.00018%)"> 
 <g fill="rgb(33.00018%,33.00018%,33.00018%)"> 
 <path d=" M  47.80042 15.93347 M  48.59712 15.93347 C  48.59712 16.37347 48.24042 16.73018 47.80042 16.73018 C  47.36041 16.73018 47.00371 16.37347 47.00371 15.93347 C  47.00371 15.49347 47.36041 15.13676 47.80042 15.13676 C  48.24042 15.13676 48.59712 15.49347 48.59712 15.93347 Z M  47.80042 15.93347  " /> 
 </g> 
 </g> 
 </g> 
 </g> 
 <g> 
 <g stroke-width="0.8pt"> 
 <g stroke="rgb(33.00018%,33.00018%,33.00018%)"> 
 <g fill="rgb(33.00018%,33.00018%,33.00018%)"> 
 <path d=" M  111.5343 15.93347 M  112.33101 15.93347 C  112.33101 16.37347 111.9743 16.73018 111.5343 16.73018 C  111.0943 16.73018 110.7376 16.37347 110.7376 15.93347 C  110.7376 15.49347 111.0943 15.13676 111.5343 15.13676 C  111.9743 15.13676 112.33101 15.49347 112.33101 15.93347 Z M  111.5343 15.93347  " /> 
 </g> 
 </g> 
 </g> 
 </g> 
 <g> 
 <g stroke-width="0.8pt"> 
 <g stroke="rgb(33.00018%,33.00018%,33.00018%)"> 
 <g fill="rgb(33.00018%,33.00018%,33.00018%)"> 
 <path d=" M  55.76715 15.93347 M  56.56386 15.93347 C  56.56386 16.37347 56.20715 16.73018 55.76715 16.73018 C  55.32715 16.73018 54.97044 16.37347 54.97044 15.93347 C  54.97044 15.49347 55.32715 15.13676 55.76715 15.13676 C  56.20715 15.13676 56.56386 15.49347 56.56386 15.93347 Z M  55.76715 15.93347  " /> 
 </g> 
 </g> 
 </g> 
 </g> 
 <g> 
 <g stroke-width="0.8pt"> 
 <g stroke="rgb(33.00018%,33.00018%,33.00018%)"> 
 <g fill="rgb(33.00018%,33.00018%,33.00018%)"> 
 <path d=" M  103.56757 15.93347 M  104.36427 15.93347 C  104.36427 16.37347 104.00757 16.73018 103.56757 16.73018 C  103.12756 16.73018 102.77086 16.37347 102.77086 15.93347 C  102.77086 15.49347 103.12756 15.13676 103.56757 15.13676 C  104.00757 15.13676 104.36427 15.49347 104.36427 15.93347 Z M  103.56757 15.93347  " /> 
 </g> 
 </g> 
 </g> 
 </g> 
 <g> 
 <g stroke-width="0.8pt"> 
 <g stroke="rgb(33.00018%,33.00018%,33.00018%)"> 
 <g fill="rgb(33.00018%,33.00018%,33.00018%)"> 
 <path d=" M  63.73389 15.93347 M  64.5306 15.93347 C  64.5306 16.37347 64.17389 16.73018 63.73389 16.73018 C  63.29388 16.73018 62.93718 16.37347 62.93718 15.93347 C  62.93718 15.49347 63.29388 15.13676 63.73389 15.13676 C  64.17389 15.13676 64.5306 15.49347 64.5306 15.93347 Z M  63.73389 15.93347  " /> 
 </g> 
 </g> 
 </g> 
 </g> 
 <g> 
 <g stroke-width="0.8pt"> 
 <g stroke="rgb(33.00018%,33.00018%,33.00018%)"> 
 <g fill="rgb(33.00018%,33.00018%,33.00018%)"> 
 <path d=" M  95.60083 15.93347 M  96.39754 15.93347 C  96.39754 16.37347 96.04083 16.73018 95.60083 16.73018 C  95.16083 16.73018 94.80412 16.37347 94.80412 15.93347 C  94.80412 15.49347 95.16083 15.13676 95.60083 15.13676 C  96.04083 15.13676 96.39754 15.49347 96.39754 15.93347 Z M  95.60083 15.93347  " /> 
 </g> 
 </g> 
 </g> 
 </g> 
 <g> 
 <g stroke-width="0.8pt"> 
 <g stroke="rgb(33.00018%,33.00018%,33.00018%)"> 
 <g fill="rgb(33.00018%,33.00018%,33.00018%)"> 
 <path d=" M  71.70062 15.93347 M  72.49733 15.93347 C  72.49733 16.37347 72.14063 16.73018 71.70062 16.73018 C  71.26062 16.73018 70.90392 16.37347 70.90392 15.93347 C  70.90392 15.49347 71.26062 15.13676 71.70062 15.13676 C  72.14063 15.13676 72.49733 15.49347 72.49733 15.93347 Z M  71.70062 15.93347  " /> 
 </g> 
 </g> 
 </g> 
 </g> 
 <g> 
 <g stroke-width="0.8pt"> 
 <g stroke="rgb(33.00018%,33.00018%,33.00018%)"> 
 <g fill="rgb(33.00018%,33.00018%,33.00018%)"> 
 <path d=" M  87.6341 15.93347 M  88.4308 15.93347 C  88.4308 16.37347 88.0741 16.73018 87.6341 16.73018 C  87.19409 16.73018 86.83739 16.37347 86.83739 15.93347 C  86.83739 15.49347 87.19409 15.13676 87.6341 15.13676 C  88.0741 15.13676 88.4308 15.49347 88.4308 15.93347 Z M  87.6341 15.93347  " /> 
 </g> 
 </g> 
 </g> 
 </g> 
 <g> 
 <g stroke-width="0.8pt"> 
 <g stroke="rgb(33.00018%,33.00018%,33.00018%)"> 
 <g fill="rgb(33.00018%,33.00018%,33.00018%)"> 
 <path d=" M  79.66736 15.93347 M  80.46407 15.93347 C  80.46407 16.37347 80.10736 16.73018 79.66736 16.73018 C  79.22736 16.73018 78.87065 16.37347 78.87065 15.93347 C  78.87065 15.49347 79.22736 15.13676 79.66736 15.13676 C  80.10736 15.13676 80.46407 15.49347 80.46407 15.93347 Z M  79.66736 15.93347  " /> 
 </g> 
 </g> 
 </g> 
 </g> 
 <g> 
 <g stroke-width="0.8pt"> 
 <g stroke="rgb(33.00018%,33.00018%,33.00018%)"> 
 <g fill="rgb(33.00018%,33.00018%,33.00018%)"> 
 <path d=" M  79.66736 15.93347 M  80.46407 15.93347 C  80.46407 16.37347 80.10736 16.73018 79.66736 16.73018 C  79.22736 16.73018 78.87065 16.37347 78.87065 15.93347 C  78.87065 15.49347 79.22736 15.13676 79.66736 15.13676 C  80.10736 15.13676 80.46407 15.49347 80.46407 15.93347 Z M  79.66736 15.93347  " /> 
 </g> 
 </g> 
 </g> 
 </g> 
 <g> 
 <g stroke-width="0.8pt"> 
 <g stroke="rgb(33.00018%,33.00018%,33.00018%)"> 
 <g fill="rgb(33.00018%,33.00018%,33.00018%)"> 
 <path d=" M  31.86694 23.9002 M  32.66365 23.9002 C  32.66365 24.34021 32.30695 24.69691 31.86694 24.69691 C  31.42694 24.69691 31.07024 24.34021 31.07024 23.9002 C  31.07024 23.4602 31.42694 23.1035 31.86694 23.1035 C  32.30695 23.1035 32.66365 23.4602 32.66365 23.9002 Z M  31.86694 23.9002  " /> 
 </g> 
 </g> 
 </g> 
 </g> 
 <g> 
 <g stroke-width="0.8pt"> 
 <g stroke="rgb(33.00018%,33.00018%,33.00018%)"> 
 <g fill="rgb(33.00018%,33.00018%,33.00018%)"> 
 <path d=" M  127.46777 23.9002 M  128.26448 23.9002 C  128.26448 24.34021 127.90778 24.69691 127.46777 24.69691 C  127.02777 24.69691 126.67107 24.34021 126.67107 23.9002 C  126.67107 23.4602 127.02777 23.1035 127.46777 23.1035 C  127.90778 23.1035 128.26448 23.4602 128.26448 23.9002 Z M  127.46777 23.9002  " /> 
 </g> 
 </g> 
 </g> 
 </g> 
 <g> 
 <g stroke-width="0.8pt"> 
 <g stroke="rgb(33.00018%,33.00018%,33.00018%)"> 
 <g fill="rgb(33.00018%,33.00018%,33.00018%)"> 
 <path d=" M  39.83368 23.9002 M  40.63039 23.9002 C  40.63039 24.34021 40.27368 24.69691 39.83368 24.69691 C  39.39368 24.69691 39.03697 24.34021 39.03697 23.9002 C  39.03697 23.4602 39.39368 23.1035 39.83368 23.1035 C  40.27368 23.1035 40.63039 23.4602 40.63039 23.9002 Z M  39.83368 23.9002  " /> 
 </g> 
 </g> 
 </g> 
 </g> 
 <g> 
 <g stroke-width="0.8pt"> 
 <g stroke="rgb(33.00018%,33.00018%,33.00018%)"> 
 <g fill="rgb(33.00018%,33.00018%,33.00018%)"> 
 <path d=" M  119.50104 23.9002 M  120.29774 23.9002 C  120.29774 24.34021 119.94104 24.69691 119.50104 24.69691 C  119.06104 24.69691 118.70433 24.34021 118.70433 23.9002 C  118.70433 23.4602 119.06104 23.1035 119.50104 23.1035 C  119.94104 23.1035 120.29774 23.4602 120.29774 23.9002 Z M  119.50104 23.9002  " /> 
 </g> 
 </g> 
 </g> 
 </g> 
 <g> 
 <g stroke-width="0.8pt"> 
 <g stroke="rgb(33.00018%,33.00018%,33.00018%)"> 
 <g fill="rgb(33.00018%,33.00018%,33.00018%)"> 
 <path d=" M  47.80042 23.9002 M  48.59712 23.9002 C  48.59712 24.34021 48.24042 24.69691 47.80042 24.69691 C  47.36041 24.69691 47.00371 24.34021 47.00371 23.9002 C  47.00371 23.4602 47.36041 23.1035 47.80042 23.1035 C  48.24042 23.1035 48.59712 23.4602 48.59712 23.9002 Z M  47.80042 23.9002  " /> 
 </g> 
 </g> 
 </g> 
 </g> 
 <g> 
 <g stroke-width="0.8pt"> 
 <g stroke="rgb(33.00018%,33.00018%,33.00018%)"> 
 <g fill="rgb(33.00018%,33.00018%,33.00018%)"> 
 <path d=" M  111.5343 23.9002 M  112.33101 23.9002 C  112.33101 24.34021 111.9743 24.69691 111.5343 24.69691 C  111.0943 24.69691 110.7376 24.34021 110.7376 23.9002 C  110.7376 23.4602 111.0943 23.1035 111.5343 23.1035 C  111.9743 23.1035 112.33101 23.4602 112.33101 23.9002 Z M  111.5343 23.9002  " /> 
 </g> 
 </g> 
 </g> 
 </g> 
 <g> 
 <g stroke-width="0.8pt"> 
 <g stroke="rgb(33.00018%,33.00018%,33.00018%)"> 
 <g fill="rgb(33.00018%,33.00018%,33.00018%)"> 
 <path d=" M  55.76715 23.9002 M  56.56386 23.9002 C  56.56386 24.34021 56.20715 24.69691 55.76715 24.69691 C  55.32715 24.69691 54.97044 24.34021 54.97044 23.9002 C  54.97044 23.4602 55.32715 23.1035 55.76715 23.1035 C  56.20715 23.1035 56.56386 23.4602 56.56386 23.9002 Z M  55.76715 23.9002  " /> 
 </g> 
 </g> 
 </g> 
 </g> 
 <g> 
 <g stroke-width="0.8pt"> 
 <g stroke="rgb(33.00018%,33.00018%,33.00018%)"> 
 <g fill="rgb(33.00018%,33.00018%,33.00018%)"> 
 <path d=" M  103.56757 23.9002 M  104.36427 23.9002 C  104.36427 24.34021 104.00757 24.69691 103.56757 24.69691 C  103.12756 24.69691 102.77086 24.34021 102.77086 23.9002 C  102.77086 23.4602 103.12756 23.1035 103.56757 23.1035 C  104.00757 23.1035 104.36427 23.4602 104.36427 23.9002 Z M  103.56757 23.9002  " /> 
 </g> 
 </g> 
 </g> 
 </g> 
 <g> 
 <g stroke-width="0.8pt"> 
 <g stroke="rgb(33.00018%,33.00018%,33.00018%)"> 
 <g fill="rgb(33.00018%,33.00018%,33.00018%)"> 
 <path d=" M  63.73389 23.9002 M  64.5306 23.9002 C  64.5306 24.34021 64.17389 24.69691 63.73389 24.69691 C  63.29388 24.69691 62.93718 24.34021 62.93718 23.9002 C  62.93718 23.4602 63.29388 23.1035 63.73389 23.1035 C  64.17389 23.1035 64.5306 23.4602 64.5306 23.9002 Z M  63.73389 23.9002  " /> 
 </g> 
 </g> 
 </g> 
 </g> 
 <g> 
 <g stroke-width="0.8pt"> 
 <g stroke="rgb(33.00018%,33.00018%,33.00018%)"> 
 <g fill="rgb(33.00018%,33.00018%,33.00018%)"> 
 <path d=" M  95.60083 23.9002 M  96.39754 23.9002 C  96.39754 24.34021 96.04083 24.69691 95.60083 24.69691 C  95.16083 24.69691 94.80412 24.34021 94.80412 23.9002 C  94.80412 23.4602 95.16083 23.1035 95.60083 23.1035 C  96.04083 23.1035 96.39754 23.4602 96.39754 23.9002 Z M  95.60083 23.9002  " /> 
 </g> 
 </g> 
 </g> 
 </g> 
 <g> 
 <g stroke-width="0.8pt"> 
 <g stroke="rgb(33.00018%,33.00018%,33.00018%)"> 
 <g fill="rgb(33.00018%,33.00018%,33.00018%)"> 
 <path d=" M  71.70062 23.9002 M  72.49733 23.9002 C  72.49733 24.34021 72.14063 24.69691 71.70062 24.69691 C  71.26062 24.69691 70.90392 24.34021 70.90392 23.9002 C  70.90392 23.4602 71.26062 23.1035 71.70062 23.1035 C  72.14063 23.1035 72.49733 23.4602 72.49733 23.9002 Z M  71.70062 23.9002  " /> 
 </g> 
 </g> 
 </g> 
 </g> 
 <g> 
 <g stroke-width="0.8pt"> 
 <g stroke="rgb(33.00018%,33.00018%,33.00018%)"> 
 <g fill="rgb(33.00018%,33.00018%,33.00018%)"> 
 <path d=" M  87.6341 23.9002 M  88.4308 23.9002 C  88.4308 24.34021 88.0741 24.69691 87.6341 24.69691 C  87.19409 24.69691 86.83739 24.34021 86.83739 23.9002 C  86.83739 23.4602 87.19409 23.1035 87.6341 23.1035 C  88.0741 23.1035 88.4308 23.4602 88.4308 23.9002 Z M  87.6341 23.9002  " /> 
 </g> 
 </g> 
 </g> 
 </g> 
 <g> 
 <g stroke-width="0.8pt"> 
 <g stroke="rgb(33.00018%,33.00018%,33.00018%)"> 
 <g fill="rgb(33.00018%,33.00018%,33.00018%)"> 
 <path d=" M  79.66736 23.9002 M  80.46407 23.9002 C  80.46407 24.34021 80.10736 24.69691 79.66736 24.69691 C  79.22736 24.69691 78.87065 24.34021 78.87065 23.9002 C  78.87065 23.4602 79.22736 23.1035 79.66736 23.1035 C  80.10736 23.1035 80.46407 23.4602 80.46407 23.9002 Z M  79.66736 23.9002  " /> 
 </g> 
 </g> 
 </g> 
 </g> 
 <g> 
 <g stroke-width="0.8pt"> 
 <g stroke="rgb(33.00018%,33.00018%,33.00018%)"> 
 <g fill="rgb(33.00018%,33.00018%,33.00018%)"> 
 <path d=" M  79.66736 23.9002 M  80.46407 23.9002 C  80.46407 24.34021 80.10736 24.69691 79.66736 24.69691 C  79.22736 24.69691 78.87065 24.34021 78.87065 23.9002 C  78.87065 23.4602 79.22736 23.1035 79.66736 23.1035 C  80.10736 23.1035 80.46407 23.4602 80.46407 23.9002 Z M  79.66736 23.9002  " /> 
 </g> 
 </g> 
 </g> 
 </g> 
 <g> 
 <g stroke-width="0.8pt"> 
 <g stroke="rgb(33.00018%,33.00018%,33.00018%)"> 
 <g fill="rgb(33.00018%,33.00018%,33.00018%)"> 
 <path d=" M  31.86694 31.86694 M  32.66365 31.86694 C  32.66365 32.30695 32.30695 32.66365 31.86694 32.66365 C  31.42694 32.66365 31.07024 32.30695 31.07024 31.86694 C  31.07024 31.42694 31.42694 31.07024 31.86694 31.07024 C  32.30695 31.07024 32.66365 31.42694 32.66365 31.86694 Z M  31.86694 31.86694  " /> 
 </g> 
 </g> 
 </g> 
 </g> 
 <g> 
 <g stroke-width="0.8pt"> 
 <g stroke="rgb(33.00018%,33.00018%,33.00018%)"> 
 <g fill="rgb(33.00018%,33.00018%,33.00018%)"> 
 <path d=" M  127.46777 31.86694 M  128.26448 31.86694 C  128.26448 32.30695 127.90778 32.66365 127.46777 32.66365 C  127.02777 32.66365 126.67107 32.30695 126.67107 31.86694 C  126.67107 31.42694 127.02777 31.07024 127.46777 31.07024 C  127.90778 31.07024 128.26448 31.42694 128.26448 31.86694 Z M  127.46777 31.86694  " /> 
 </g> 
 </g> 
 </g> 
 </g> 
 <g> 
 <g stroke-width="0.8pt"> 
 <g stroke="rgb(33.00018%,33.00018%,33.00018%)"> 
 <g fill="rgb(33.00018%,33.00018%,33.00018%)"> 
 <path d=" M  39.83368 31.86694 M  40.63039 31.86694 C  40.63039 32.30695 40.27368 32.66365 39.83368 32.66365 C  39.39368 32.66365 39.03697 32.30695 39.03697 31.86694 C  39.03697 31.42694 39.39368 31.07024 39.83368 31.07024 C  40.27368 31.07024 40.63039 31.42694 40.63039 31.86694 Z M  39.83368 31.86694  " /> 
 </g> 
 </g> 
 </g> 
 </g> 
 <g> 
 <g stroke-width="0.8pt"> 
 <g stroke="rgb(33.00018%,33.00018%,33.00018%)"> 
 <g fill="rgb(33.00018%,33.00018%,33.00018%)"> 
 <path d=" M  119.50104 31.86694 M  120.29774 31.86694 C  120.29774 32.30695 119.94104 32.66365 119.50104 32.66365 C  119.06104 32.66365 118.70433 32.30695 118.70433 31.86694 C  118.70433 31.42694 119.06104 31.07024 119.50104 31.07024 C  119.94104 31.07024 120.29774 31.42694 120.29774 31.86694 Z M  119.50104 31.86694  " /> 
 </g> 
 </g> 
 </g> 
 </g> 
 <g> 
 <g stroke-width="0.8pt"> 
 <g stroke="rgb(33.00018%,33.00018%,33.00018%)"> 
 <g fill="rgb(33.00018%,33.00018%,33.00018%)"> 
 <path d=" M  47.80042 31.86694 M  48.59712 31.86694 C  48.59712 32.30695 48.24042 32.66365 47.80042 32.66365 C  47.36041 32.66365 47.00371 32.30695 47.00371 31.86694 C  47.00371 31.42694 47.36041 31.07024 47.80042 31.07024 C  48.24042 31.07024 48.59712 31.42694 48.59712 31.86694 Z M  47.80042 31.86694  " /> 
 </g> 
 </g> 
 </g> 
 </g> 
 <g> 
 <g stroke-width="0.8pt"> 
 <g stroke="rgb(33.00018%,33.00018%,33.00018%)"> 
 <g fill="rgb(33.00018%,33.00018%,33.00018%)"> 
 <path d=" M  111.5343 31.86694 M  112.33101 31.86694 C  112.33101 32.30695 111.9743 32.66365 111.5343 32.66365 C  111.0943 32.66365 110.7376 32.30695 110.7376 31.86694 C  110.7376 31.42694 111.0943 31.07024 111.5343 31.07024 C  111.9743 31.07024 112.33101 31.42694 112.33101 31.86694 Z M  111.5343 31.86694  " /> 
 </g> 
 </g> 
 </g> 
 </g> 
 <g> 
 <g stroke-width="0.8pt"> 
 <g stroke="rgb(33.00018%,33.00018%,33.00018%)"> 
 <g fill="rgb(33.00018%,33.00018%,33.00018%)"> 
 <path d=" M  55.76715 31.86694 M  56.56386 31.86694 C  56.56386 32.30695 56.20715 32.66365 55.76715 32.66365 C  55.32715 32.66365 54.97044 32.30695 54.97044 31.86694 C  54.97044 31.42694 55.32715 31.07024 55.76715 31.07024 C  56.20715 31.07024 56.56386 31.42694 56.56386 31.86694 Z M  55.76715 31.86694  " /> 
 </g> 
 </g> 
 </g> 
 </g> 
 <g> 
 <g stroke-width="0.8pt"> 
 <g stroke="rgb(33.00018%,33.00018%,33.00018%)"> 
 <g fill="rgb(33.00018%,33.00018%,33.00018%)"> 
 <path d=" M  103.56757 31.86694 M  104.36427 31.86694 C  104.36427 32.30695 104.00757 32.66365 103.56757 32.66365 C  103.12756 32.66365 102.77086 32.30695 102.77086 31.86694 C  102.77086 31.42694 103.12756 31.07024 103.56757 31.07024 C  104.00757 31.07024 104.36427 31.42694 104.36427 31.86694 Z M  103.56757 31.86694  " /> 
 </g> 
 </g> 
 </g> 
 </g> 
 <g> 
 <g stroke-width="0.8pt"> 
 <g stroke="rgb(33.00018%,33.00018%,33.00018%)"> 
 <g fill="rgb(33.00018%,33.00018%,33.00018%)"> 
 <path d=" M  63.73389 31.86694 M  64.5306 31.86694 C  64.5306 32.30695 64.17389 32.66365 63.73389 32.66365 C  63.29388 32.66365 62.93718 32.30695 62.93718 31.86694 C  62.93718 31.42694 63.29388 31.07024 63.73389 31.07024 C  64.17389 31.07024 64.5306 31.42694 64.5306 31.86694 Z M  63.73389 31.86694  " /> 
 </g> 
 </g> 
 </g> 
 </g> 
 <g> 
 <g stroke-width="0.8pt"> 
 <g stroke="rgb(33.00018%,33.00018%,33.00018%)"> 
 <g fill="rgb(33.00018%,33.00018%,33.00018%)"> 
 <path d=" M  95.60083 31.86694 M  96.39754 31.86694 C  96.39754 32.30695 96.04083 32.66365 95.60083 32.66365 C  95.16083 32.66365 94.80412 32.30695 94.80412 31.86694 C  94.80412 31.42694 95.16083 31.07024 95.60083 31.07024 C  96.04083 31.07024 96.39754 31.42694 96.39754 31.86694 Z M  95.60083 31.86694  " /> 
 </g> 
 </g> 
 </g> 
 </g> 
 <g> 
 <g stroke-width="0.8pt"> 
 <g stroke="rgb(33.00018%,33.00018%,33.00018%)"> 
 <g fill="rgb(33.00018%,33.00018%,33.00018%)"> 
 <path d=" M  71.70062 31.86694 M  72.49733 31.86694 C  72.49733 32.30695 72.14063 32.66365 71.70062 32.66365 C  71.26062 32.66365 70.90392 32.30695 70.90392 31.86694 C  70.90392 31.42694 71.26062 31.07024 71.70062 31.07024 C  72.14063 31.07024 72.49733 31.42694 72.49733 31.86694 Z M  71.70062 31.86694  " /> 
 </g> 
 </g> 
 </g> 
 </g> 
 <g> 
 <g stroke-width="0.8pt"> 
 <g stroke="rgb(33.00018%,33.00018%,33.00018%)"> 
 <g fill="rgb(33.00018%,33.00018%,33.00018%)"> 
 <path d=" M  87.6341 31.86694 M  88.4308 31.86694 C  88.4308 32.30695 88.0741 32.66365 87.6341 32.66365 C  87.19409 32.66365 86.83739 32.30695 86.83739 31.86694 C  86.83739 31.42694 87.19409 31.07024 87.6341 31.07024 C  88.0741 31.07024 88.4308 31.42694 88.4308 31.86694 Z M  87.6341 31.86694  " /> 
 </g> 
 </g> 
 </g> 
 </g> 
 <g> 
 <g stroke-width="0.8pt"> 
 <g stroke="rgb(33.00018%,33.00018%,33.00018%)"> 
 <g fill="rgb(33.00018%,33.00018%,33.00018%)"> 
 <path d=" M  79.66736 31.86694 M  80.46407 31.86694 C  80.46407 32.30695 80.10736 32.66365 79.66736 32.66365 C  79.22736 32.66365 78.87065 32.30695 78.87065 31.86694 C  78.87065 31.42694 79.22736 31.07024 79.66736 31.07024 C  80.10736 31.07024 80.46407 31.42694 80.46407 31.86694 Z M  79.66736 31.86694  " /> 
 </g> 
 </g> 
 </g> 
 </g> 
 <g> 
 <g stroke-width="0.8pt"> 
 <g stroke="rgb(33.00018%,33.00018%,33.00018%)"> 
 <g fill="rgb(33.00018%,33.00018%,33.00018%)"> 
 <path d=" M  79.66736 31.86694 M  80.46407 31.86694 C  80.46407 32.30695 80.10736 32.66365 79.66736 32.66365 C  79.22736 32.66365 78.87065 32.30695 78.87065 31.86694 C  78.87065 31.42694 79.22736 31.07024 79.66736 31.07024 C  80.10736 31.07024 80.46407 31.42694 80.46407 31.86694 Z M  79.66736 31.86694  " /> 
 </g> 
 </g> 
 </g> 
 </g> 
 <g> 
 <g stroke-width="0.8pt"> 
 <g stroke="rgb(33.00018%,33.00018%,33.00018%)"> 
 <g fill="rgb(33.00018%,33.00018%,33.00018%)"> 
 <path d=" M  39.83368 39.83368 M  40.63039 39.83368 C  40.63039 40.27368 40.27368 40.63039 39.83368 40.63039 C  39.39368 40.63039 39.03697 40.27368 39.03697 39.83368 C  39.03697 39.39368 39.39368 39.03697 39.83368 39.03697 C  40.27368 39.03697 40.63039 39.39368 40.63039 39.83368 Z M  39.83368 39.83368  " /> 
 </g> 
 </g> 
 </g> 
 </g> 
 <g> 
 <g stroke-width="0.8pt"> 
 <g stroke="rgb(33.00018%,33.00018%,33.00018%)"> 
 <g fill="rgb(33.00018%,33.00018%,33.00018%)"> 
 <path d=" M  119.50104 39.83368 M  120.29774 39.83368 C  120.29774 40.27368 119.94104 40.63039 119.50104 40.63039 C  119.06104 40.63039 118.70433 40.27368 118.70433 39.83368 C  118.70433 39.39368 119.06104 39.03697 119.50104 39.03697 C  119.94104 39.03697 120.29774 39.39368 120.29774 39.83368 Z M  119.50104 39.83368  " /> 
 </g> 
 </g> 
 </g> 
 </g> 
 <g> 
 <g stroke-width="0.8pt"> 
 <g stroke="rgb(33.00018%,33.00018%,33.00018%)"> 
 <g fill="rgb(33.00018%,33.00018%,33.00018%)"> 
 <path d=" M  47.80042 39.83368 M  48.59712 39.83368 C  48.59712 40.27368 48.24042 40.63039 47.80042 40.63039 C  47.36041 40.63039 47.00371 40.27368 47.00371 39.83368 C  47.00371 39.39368 47.36041 39.03697 47.80042 39.03697 C  48.24042 39.03697 48.59712 39.39368 48.59712 39.83368 Z M  47.80042 39.83368  " /> 
 </g> 
 </g> 
 </g> 
 </g> 
 <g> 
 <g stroke-width="0.8pt"> 
 <g stroke="rgb(33.00018%,33.00018%,33.00018%)"> 
 <g fill="rgb(33.00018%,33.00018%,33.00018%)"> 
 <path d=" M  111.5343 39.83368 M  112.33101 39.83368 C  112.33101 40.27368 111.9743 40.63039 111.5343 40.63039 C  111.0943 40.63039 110.7376 40.27368 110.7376 39.83368 C  110.7376 39.39368 111.0943 39.03697 111.5343 39.03697 C  111.9743 39.03697 112.33101 39.39368 112.33101 39.83368 Z M  111.5343 39.83368  " /> 
 </g> 
 </g> 
 </g> 
 </g> 
 <g> 
 <g stroke-width="0.8pt"> 
 <g stroke="rgb(33.00018%,33.00018%,33.00018%)"> 
 <g fill="rgb(33.00018%,33.00018%,33.00018%)"> 
 <path d=" M  55.76715 39.83368 M  56.56386 39.83368 C  56.56386 40.27368 56.20715 40.63039 55.76715 40.63039 C  55.32715 40.63039 54.97044 40.27368 54.97044 39.83368 C  54.97044 39.39368 55.32715 39.03697 55.76715 39.03697 C  56.20715 39.03697 56.56386 39.39368 56.56386 39.83368 Z M  55.76715 39.83368  " /> 
 </g> 
 </g> 
 </g> 
 </g> 
 <g> 
 <g stroke-width="0.8pt"> 
 <g stroke="rgb(33.00018%,33.00018%,33.00018%)"> 
 <g fill="rgb(33.00018%,33.00018%,33.00018%)"> 
 <path d=" M  103.56757 39.83368 M  104.36427 39.83368 C  104.36427 40.27368 104.00757 40.63039 103.56757 40.63039 C  103.12756 40.63039 102.77086 40.27368 102.77086 39.83368 C  102.77086 39.39368 103.12756 39.03697 103.56757 39.03697 C  104.00757 39.03697 104.36427 39.39368 104.36427 39.83368 Z M  103.56757 39.83368  " /> 
 </g> 
 </g> 
 </g> 
 </g> 
 <g> 
 <g stroke-width="0.8pt"> 
 <g stroke="rgb(33.00018%,33.00018%,33.00018%)"> 
 <g fill="rgb(33.00018%,33.00018%,33.00018%)"> 
 <path d=" M  63.73389 39.83368 M  64.5306 39.83368 C  64.5306 40.27368 64.17389 40.63039 63.73389 40.63039 C  63.29388 40.63039 62.93718 40.27368 62.93718 39.83368 C  62.93718 39.39368 63.29388 39.03697 63.73389 39.03697 C  64.17389 39.03697 64.5306 39.39368 64.5306 39.83368 Z M  63.73389 39.83368  " /> 
 </g> 
 </g> 
 </g> 
 </g> 
 <g> 
 <g stroke-width="0.8pt"> 
 <g stroke="rgb(33.00018%,33.00018%,33.00018%)"> 
 <g fill="rgb(33.00018%,33.00018%,33.00018%)"> 
 <path d=" M  95.60083 39.83368 M  96.39754 39.83368 C  96.39754 40.27368 96.04083 40.63039 95.60083 40.63039 C  95.16083 40.63039 94.80412 40.27368 94.80412 39.83368 C  94.80412 39.39368 95.16083 39.03697 95.60083 39.03697 C  96.04083 39.03697 96.39754 39.39368 96.39754 39.83368 Z M  95.60083 39.83368  " /> 
 </g> 
 </g> 
 </g> 
 </g> 
 <g> 
 <g stroke-width="0.8pt"> 
 <g stroke="rgb(33.00018%,33.00018%,33.00018%)"> 
 <g fill="rgb(33.00018%,33.00018%,33.00018%)"> 
 <path d=" M  71.70062 39.83368 M  72.49733 39.83368 C  72.49733 40.27368 72.14063 40.63039 71.70062 40.63039 C  71.26062 40.63039 70.90392 40.27368 70.90392 39.83368 C  70.90392 39.39368 71.26062 39.03697 71.70062 39.03697 C  72.14063 39.03697 72.49733 39.39368 72.49733 39.83368 Z M  71.70062 39.83368  " /> 
 </g> 
 </g> 
 </g> 
 </g> 
 <g> 
 <g stroke-width="0.8pt"> 
 <g stroke="rgb(33.00018%,33.00018%,33.00018%)"> 
 <g fill="rgb(33.00018%,33.00018%,33.00018%)"> 
 <path d=" M  87.6341 39.83368 M  88.4308 39.83368 C  88.4308 40.27368 88.0741 40.63039 87.6341 40.63039 C  87.19409 40.63039 86.83739 40.27368 86.83739 39.83368 C  86.83739 39.39368 87.19409 39.03697 87.6341 39.03697 C  88.0741 39.03697 88.4308 39.39368 88.4308 39.83368 Z M  87.6341 39.83368  " /> 
 </g> 
 </g> 
 </g> 
 </g> 
 <g> 
 <g stroke-width="0.8pt"> 
 <g stroke="rgb(33.00018%,33.00018%,33.00018%)"> 
 <g fill="rgb(33.00018%,33.00018%,33.00018%)"> 
 <path d=" M  79.66736 39.83368 M  80.46407 39.83368 C  80.46407 40.27368 80.10736 40.63039 79.66736 40.63039 C  79.22736 40.63039 78.87065 40.27368 78.87065 39.83368 C  78.87065 39.39368 79.22736 39.03697 79.66736 39.03697 C  80.10736 39.03697 80.46407 39.39368 80.46407 39.83368 Z M  79.66736 39.83368  " /> 
 </g> 
 </g> 
 </g> 
 </g> 
 <g> 
 <g stroke-width="0.8pt"> 
 <g stroke="rgb(33.00018%,33.00018%,33.00018%)"> 
 <g fill="rgb(33.00018%,33.00018%,33.00018%)"> 
 <path d=" M  79.66736 39.83368 M  80.46407 39.83368 C  80.46407 40.27368 80.10736 40.63039 79.66736 40.63039 C  79.22736 40.63039 78.87065 40.27368 78.87065 39.83368 C  78.87065 39.39368 79.22736 39.03697 79.66736 39.03697 C  80.10736 39.03697 80.46407 39.39368 80.46407 39.83368 Z M  79.66736 39.83368  " /> 
 </g> 
 </g> 
 </g> 
 </g> 
 <g> 
 <g stroke-width="0.8pt"> 
 <g stroke="rgb(33.00018%,33.00018%,33.00018%)"> 
 <g fill="rgb(33.00018%,33.00018%,33.00018%)"> 
 <path d=" M  47.80042 47.80042 M  48.59712 47.80042 C  48.59712 48.24042 48.24042 48.59712 47.80042 48.59712 C  47.36041 48.59712 47.00371 48.24042 47.00371 47.80042 C  47.00371 47.36041 47.36041 47.00371 47.80042 47.00371 C  48.24042 47.00371 48.59712 47.36041 48.59712 47.80042 Z M  47.80042 47.80042  " /> 
 </g> 
 </g> 
 </g> 
 </g> 
 <g> 
 <g stroke-width="0.8pt"> 
 <g stroke="rgb(33.00018%,33.00018%,33.00018%)"> 
 <g fill="rgb(33.00018%,33.00018%,33.00018%)"> 
 <path d=" M  111.5343 47.80042 M  112.33101 47.80042 C  112.33101 48.24042 111.9743 48.59712 111.5343 48.59712 C  111.0943 48.59712 110.7376 48.24042 110.7376 47.80042 C  110.7376 47.36041 111.0943 47.00371 111.5343 47.00371 C  111.9743 47.00371 112.33101 47.36041 112.33101 47.80042 Z M  111.5343 47.80042  " /> 
 </g> 
 </g> 
 </g> 
 </g> 
 <g> 
 <g stroke-width="0.8pt"> 
 <g stroke="rgb(33.00018%,33.00018%,33.00018%)"> 
 <g fill="rgb(33.00018%,33.00018%,33.00018%)"> 
 <path d=" M  55.76715 47.80042 M  56.56386 47.80042 C  56.56386 48.24042 56.20715 48.59712 55.76715 48.59712 C  55.32715 48.59712 54.97044 48.24042 54.97044 47.80042 C  54.97044 47.36041 55.32715 47.00371 55.76715 47.00371 C  56.20715 47.00371 56.56386 47.36041 56.56386 47.80042 Z M  55.76715 47.80042  " /> 
 </g> 
 </g> 
 </g> 
 </g> 
 <g> 
 <g stroke-width="0.8pt"> 
 <g stroke="rgb(33.00018%,33.00018%,33.00018%)"> 
 <g fill="rgb(33.00018%,33.00018%,33.00018%)"> 
 <path d=" M  103.56757 47.80042 M  104.36427 47.80042 C  104.36427 48.24042 104.00757 48.59712 103.56757 48.59712 C  103.12756 48.59712 102.77086 48.24042 102.77086 47.80042 C  102.77086 47.36041 103.12756 47.00371 103.56757 47.00371 C  104.00757 47.00371 104.36427 47.36041 104.36427 47.80042 Z M  103.56757 47.80042  " /> 
 </g> 
 </g> 
 </g> 
 </g> 
 <g> 
 <g stroke-width="0.8pt"> 
 <g stroke="rgb(33.00018%,33.00018%,33.00018%)"> 
 <g fill="rgb(33.00018%,33.00018%,33.00018%)"> 
 <path d=" M  63.73389 47.80042 M  64.5306 47.80042 C  64.5306 48.24042 64.17389 48.59712 63.73389 48.59712 C  63.29388 48.59712 62.93718 48.24042 62.93718 47.80042 C  62.93718 47.36041 63.29388 47.00371 63.73389 47.00371 C  64.17389 47.00371 64.5306 47.36041 64.5306 47.80042 Z M  63.73389 47.80042  " /> 
 </g> 
 </g> 
 </g> 
 </g> 
 <g> 
 <g stroke-width="0.8pt"> 
 <g stroke="rgb(33.00018%,33.00018%,33.00018%)"> 
 <g fill="rgb(33.00018%,33.00018%,33.00018%)"> 
 <path d=" M  95.60083 47.80042 M  96.39754 47.80042 C  96.39754 48.24042 96.04083 48.59712 95.60083 48.59712 C  95.16083 48.59712 94.80412 48.24042 94.80412 47.80042 C  94.80412 47.36041 95.16083 47.00371 95.60083 47.00371 C  96.04083 47.00371 96.39754 47.36041 96.39754 47.80042 Z M  95.60083 47.80042  " /> 
 </g> 
 </g> 
 </g> 
 </g> 
 <g> 
 <g stroke-width="0.8pt"> 
 <g stroke="rgb(33.00018%,33.00018%,33.00018%)"> 
 <g fill="rgb(33.00018%,33.00018%,33.00018%)"> 
 <path d=" M  71.70062 47.80042 M  72.49733 47.80042 C  72.49733 48.24042 72.14063 48.59712 71.70062 48.59712 C  71.26062 48.59712 70.90392 48.24042 70.90392 47.80042 C  70.90392 47.36041 71.26062 47.00371 71.70062 47.00371 C  72.14063 47.00371 72.49733 47.36041 72.49733 47.80042 Z M  71.70062 47.80042  " /> 
 </g> 
 </g> 
 </g> 
 </g> 
 <g> 
 <g stroke-width="0.8pt"> 
 <g stroke="rgb(33.00018%,33.00018%,33.00018%)"> 
 <g fill="rgb(33.00018%,33.00018%,33.00018%)"> 
 <path d=" M  87.6341 47.80042 M  88.4308 47.80042 C  88.4308 48.24042 88.0741 48.59712 87.6341 48.59712 C  87.19409 48.59712 86.83739 48.24042 86.83739 47.80042 C  86.83739 47.36041 87.19409 47.00371 87.6341 47.00371 C  88.0741 47.00371 88.4308 47.36041 88.4308 47.80042 Z M  87.6341 47.80042  " /> 
 </g> 
 </g> 
 </g> 
 </g> 
 <g> 
 <g stroke-width="0.8pt"> 
 <g stroke="rgb(33.00018%,33.00018%,33.00018%)"> 
 <g fill="rgb(33.00018%,33.00018%,33.00018%)"> 
 <path d=" M  79.66736 47.80042 M  80.46407 47.80042 C  80.46407 48.24042 80.10736 48.59712 79.66736 48.59712 C  79.22736 48.59712 78.87065 48.24042 78.87065 47.80042 C  78.87065 47.36041 79.22736 47.00371 79.66736 47.00371 C  80.10736 47.00371 80.46407 47.36041 80.46407 47.80042 Z M  79.66736 47.80042  " /> 
 </g> 
 </g> 
 </g> 
 </g> 
 <g> 
 <g stroke-width="0.8pt"> 
 <g stroke="rgb(33.00018%,33.00018%,33.00018%)"> 
 <g fill="rgb(33.00018%,33.00018%,33.00018%)"> 
 <path d=" M  79.66736 47.80042 M  80.46407 47.80042 C  80.46407 48.24042 80.10736 48.59712 79.66736 48.59712 C  79.22736 48.59712 78.87065 48.24042 78.87065 47.80042 C  78.87065 47.36041 79.22736 47.00371 79.66736 47.00371 C  80.10736 47.00371 80.46407 47.36041 80.46407 47.80042 Z M  79.66736 47.80042  " /> 
 </g> 
 </g> 
 </g> 
 </g> 
 <g> 
 <g stroke-width="0.8pt"> 
 <g stroke="rgb(33.00018%,33.00018%,33.00018%)"> 
 <g fill="rgb(33.00018%,33.00018%,33.00018%)"> 
 <path d=" M  63.73389 55.76715 M  64.5306 55.76715 C  64.5306 56.20715 64.17389 56.56386 63.73389 56.56386 C  63.29388 56.56386 62.93718 56.20715 62.93718 55.76715 C  62.93718 55.32715 63.29388 54.97044 63.73389 54.97044 C  64.17389 54.97044 64.5306 55.32715 64.5306 55.76715 Z M  63.73389 55.76715  " /> 
 </g> 
 </g> 
 </g> 
 </g> 
 <g> 
 <g stroke-width="0.8pt"> 
 <g stroke="rgb(33.00018%,33.00018%,33.00018%)"> 
 <g fill="rgb(33.00018%,33.00018%,33.00018%)"> 
 <path d=" M  95.60083 55.76715 M  96.39754 55.76715 C  96.39754 56.20715 96.04083 56.56386 95.60083 56.56386 C  95.16083 56.56386 94.80412 56.20715 94.80412 55.76715 C  94.80412 55.32715 95.16083 54.97044 95.60083 54.97044 C  96.04083 54.97044 96.39754 55.32715 96.39754 55.76715 Z M  95.60083 55.76715  " /> 
 </g> 
 </g> 
 </g> 
 </g> 
 <g> 
 <g stroke-width="0.8pt"> 
 <g stroke="rgb(33.00018%,33.00018%,33.00018%)"> 
 <g fill="rgb(33.00018%,33.00018%,33.00018%)"> 
 <path d=" M  71.70062 55.76715 M  72.49733 55.76715 C  72.49733 56.20715 72.14063 56.56386 71.70062 56.56386 C  71.26062 56.56386 70.90392 56.20715 70.90392 55.76715 C  70.90392 55.32715 71.26062 54.97044 71.70062 54.97044 C  72.14063 54.97044 72.49733 55.32715 72.49733 55.76715 Z M  71.70062 55.76715  " /> 
 </g> 
 </g> 
 </g> 
 </g> 
 <g> 
 <g stroke-width="0.8pt"> 
 <g stroke="rgb(33.00018%,33.00018%,33.00018%)"> 
 <g fill="rgb(33.00018%,33.00018%,33.00018%)"> 
 <path d=" M  87.6341 55.76715 M  88.4308 55.76715 C  88.4308 56.20715 88.0741 56.56386 87.6341 56.56386 C  87.19409 56.56386 86.83739 56.20715 86.83739 55.76715 C  86.83739 55.32715 87.19409 54.97044 87.6341 54.97044 C  88.0741 54.97044 88.4308 55.32715 88.4308 55.76715 Z M  87.6341 55.76715  " /> 
 </g> 
 </g> 
 </g> 
 </g> 
 <g> 
 <g stroke-width="0.8pt"> 
 <g stroke="rgb(33.00018%,33.00018%,33.00018%)"> 
 <g fill="rgb(33.00018%,33.00018%,33.00018%)"> 
 <path d=" M  79.66736 55.76715 M  80.46407 55.76715 C  80.46407 56.20715 80.10736 56.56386 79.66736 56.56386 C  79.22736 56.56386 78.87065 56.20715 78.87065 55.76715 C  78.87065 55.32715 79.22736 54.97044 79.66736 54.97044 C  80.10736 54.97044 80.46407 55.32715 80.46407 55.76715 Z M  79.66736 55.76715  " /> 
 </g> 
 </g> 
 </g> 
 </g> 
 <g> 
 <g stroke-width="0.8pt"> 
 <g stroke="rgb(33.00018%,33.00018%,33.00018%)"> 
 <g fill="rgb(33.00018%,33.00018%,33.00018%)"> 
 <path d=" M  79.66736 55.76715 M  80.46407 55.76715 C  80.46407 56.20715 80.10736 56.56386 79.66736 56.56386 C  79.22736 56.56386 78.87065 56.20715 78.87065 55.76715 C  78.87065 55.32715 79.22736 54.97044 79.66736 54.97044 C  80.10736 54.97044 80.46407 55.32715 80.46407 55.76715 Z M  79.66736 55.76715  " /> 
 </g> 
 </g> 
 </g> 
 </g> 
 <g> 
 <g stroke="rgb(33.00018%,33.00018%,33.00018%)"> 
 <g fill="rgb(33.00018%,33.00018%,33.00018%)"> 
 <g stroke-width="0.8pt"> 
 <path d=" M  19.91684 0.0 L  19.91684 19.91684 L  27.88358 19.91684 L  27.88358 35.85031 L  35.85031 35.85031 L  35.85031 43.81705 L  43.81705 43.81705 L  43.81705 51.78378 L  59.75052 51.78378 L  59.75052 59.75052 L  99.5842 59.75052 L  99.5842 51.78378 L  115.51767 51.78378 L  115.51767 43.81705 L  123.4844 43.81705 L  123.4844 35.85031 L  131.45114 35.85031 L  131.45114 19.91684 L  139.41788 19.91684 L  139.41788 0.0  " style="fill:none"/> 
 </g> 
 </g> 
 </g> 
 </g> 
 <g> 
 <g> 
 <g transform="matrix(1.0,0.0,0.0,1.0,55.76715,51.78378)"> 
 <g fill="rgb(0.0%,0.0%,0.0%)"> 
 <text style="stroke:none" transform="scale(1,-1) translate(0.0,0)" text-anchor="middle"  font-size="10"> 
</text> 
</g> 
 </g> 
 </g> 
 </g> 
 <g> 
 <g stroke-width="0.8pt"> 
 <g stroke="rgb(0.0%,0.0%,0.0%)"> 
 <g fill="rgb(0.0%,0.0%,0.0%)"> 
 <path d=" M  55.76715 51.78378 M  56.56386 51.78378 C  56.56386 52.22379 56.20715 52.58049 55.76715 52.58049 C  55.32715 52.58049 54.97044 52.22379 54.97044 51.78378 C  54.97044 51.34378 55.32715 50.98708 55.76715 50.98708 C  56.20715 50.98708 56.56386 51.34378 56.56386 51.78378 Z M  55.76715 51.78378  " /> 
 </g> 
 </g> 
 </g> 
 </g> 
 <path d="  " style="fill:none"/> 
 <g> 
 <g> 
 <g transform="matrix(1.0,0.0,0.0,1.0,52.73245,55.31676)"> 
 <g fill="rgb(0.0%,0.0%,0.0%)"> 
 <text style="stroke:none" transform="scale(1,-1) translate(3.0347,0)" text-anchor="middle"  font-size="10"> 
<img 
src="2d-curv-estimator1x.png" alt="&#x02C6;x"  class="circ" ></text> 
</g> 
 </g> 
 </g> 
 </g> 
 <g> 
 <g stroke-width="0.8pt"> 
 <g stroke="rgb(100.0%,58.99963%,0.0%)"> 
 <g fill="rgb(100.0%,58.99963%,0.0%)"> 
 <g stroke-opacity="0.25"> 
 <g fill-opacity="0.25"> 
 <path d=" M  55.76715 51.78378 M  79.66736 51.78378 C  79.66736 64.98367 68.96704 75.68399 55.76715 75.68399 C  42.56726 75.68399 31.86694 64.98367 31.86694 51.78378 C  31.86694 38.5839 42.56726 27.88358 55.76715 27.88358 C  68.96704 27.88358 79.66736 38.5839 79.66736 51.78378 Z M  55.76715 51.78378  " /> 
 </g> 
 </g> 
 </g> 
 </g> 
 </g> 
 </g> 
 <g> 
 <g stroke-width="0.8pt"> 
 <g stroke="rgb(100.0%,58.99963%,0.0%)"> 
 <g fill="rgb(100.0%,58.99963%,0.0%)"> 
 <path d=" M  55.76715 51.78378 M  79.66736 51.78378 C  79.66736 64.98367 68.96704 75.68399 55.76715 75.68399 C  42.56726 75.68399 31.86694 64.98367 31.86694 51.78378 C  31.86694 38.5839 42.56726 27.88358 55.76715 27.88358 C  68.96704 27.88358 79.66736 38.5839 79.66736 51.78378 Z M  55.76715 51.78378  " style="fill:none"/> 
 </g> 
 </g> 
 </g> 
 </g> 
 <g> 
 <g stroke-width="0.8pt"> 
 <g stroke="rgb(8.99963%,42.99927%,69.9997%)"> 
 <g fill="rgb(8.99963%,42.99927%,69.9997%)"> 
 <path d=" M  39.83368 39.83368 M  40.71002 39.83368 C  40.71002 40.31767 40.31767 40.71002 39.83368 40.71002 C  39.34969 40.71002 38.95734 40.31767 38.95734 39.83368 C  38.95734 39.34969 39.34969 38.95734 39.83368 38.95734 C  40.31767 38.95734 40.71002 39.34969 40.71002 39.83368 Z M  39.83368 39.83368  " /> 
 </g> 
 </g> 
 </g> 
 </g> 
 <g> 
 <g stroke-width="0.8pt"> 
 <g stroke="rgb(8.99963%,42.99927%,69.9997%)"> 
 <g fill="rgb(8.99963%,42.99927%,69.9997%)"> 
 <path d=" M  47.80042 31.86694 M  48.67676 31.86694 C  48.67676 32.35094 48.28441 32.74329 47.80042 32.74329 C  47.31642 32.74329 46.92407 32.35094 46.92407 31.86694 C  46.92407 31.38295 47.31642 30.9906 47.80042 30.9906 C  48.28441 30.9906 48.67676 31.38295 48.67676 31.86694 Z M  47.80042 31.86694  " /> 
 </g> 
 </g> 
 </g> 
 </g> 
 <g> 
 <g stroke-width="0.8pt"> 
 <g stroke="rgb(8.99963%,42.99927%,69.9997%)"> 
 <g fill="rgb(8.99963%,42.99927%,69.9997%)"> 
 <path d=" M  47.80042 39.83368 M  48.67676 39.83368 C  48.67676 40.31767 48.28441 40.71002 47.80042 40.71002 C  47.31642 40.71002 46.92407 40.31767 46.92407 39.83368 C  46.92407 39.34969 47.31642 38.95734 47.80042 38.95734 C  48.28441 38.95734 48.67676 39.34969 48.67676 39.83368 Z M  47.80042 39.83368  " /> 
 </g> 
 </g> 
 </g> 
 </g> 
 <g> 
 <g stroke-width="0.8pt"> 
 <g stroke="rgb(8.99963%,42.99927%,69.9997%)"> 
 <g fill="rgb(8.99963%,42.99927%,69.9997%)"> 
 <path d=" M  47.80042 47.80042 M  48.67676 47.80042 C  48.67676 48.28441 48.28441 48.67676 47.80042 48.67676 C  47.31642 48.67676 46.92407 48.28441 46.92407 47.80042 C  46.92407 47.31642 47.31642 46.92407 47.80042 46.92407 C  48.28441 46.92407 48.67676 47.31642 48.67676 47.80042 Z M  47.80042 47.80042  " /> 
 </g> 
 </g> 
 </g> 
 </g> 
 <g> 
 <g stroke-width="0.8pt"> 
 <g stroke="rgb(8.99963%,42.99927%,69.9997%)"> 
 <g fill="rgb(8.99963%,42.99927%,69.9997%)"> 
 <path d=" M  55.76715 31.86694 M  56.6435 31.86694 C  56.6435 32.35094 56.25114 32.74329 55.76715 32.74329 C  55.28316 32.74329 54.89081 32.35094 54.89081 31.86694 C  54.89081 31.38295 55.28316 30.9906 55.76715 30.9906 C  56.25114 30.9906 56.6435 31.38295 56.6435 31.86694 Z M  55.76715 31.86694  " /> 
 </g> 
 </g> 
 </g> 
 </g> 
 <g> 
 <g stroke-width="0.8pt"> 
 <g stroke="rgb(8.99963%,42.99927%,69.9997%)"> 
 <g fill="rgb(8.99963%,42.99927%,69.9997%)"> 
 <path d=" M  55.76715 39.83368 M  56.6435 39.83368 C  56.6435 40.31767 56.25114 40.71002 55.76715 40.71002 C  55.28316 40.71002 54.89081 40.31767 54.89081 39.83368 C  54.89081 39.34969 55.28316 38.95734 55.76715 38.95734 C  56.25114 38.95734 56.6435 39.34969 56.6435 39.83368 Z M  55.76715 39.83368  " /> 
 </g> 
 </g> 
 </g> 
 </g> 
 <g> 
 <g stroke-width="0.8pt"> 
 <g stroke="rgb(8.99963%,42.99927%,69.9997%)"> 
 <g fill="rgb(8.99963%,42.99927%,69.9997%)"> 
 <path d=" M  55.76715 47.80042 M  56.6435 47.80042 C  56.6435 48.28441 56.25114 48.67676 55.76715 48.67676 C  55.28316 48.67676 54.89081 48.28441 54.89081 47.80042 C  54.89081 47.31642 55.28316 46.92407 55.76715 46.92407 C  56.25114 46.92407 56.6435 47.31642 56.6435 47.80042 Z M  55.76715 47.80042  " /> 
 </g> 
 </g> 
 </g> 
 </g> 
 <g> 
 <g stroke-width="0.8pt"> 
 <g stroke="rgb(8.99963%,42.99927%,69.9997%)"> 
 <g fill="rgb(8.99963%,42.99927%,69.9997%)"> 
 <path d=" M  63.73389 31.86694 M  64.61023 31.86694 C  64.61023 32.35094 64.21788 32.74329 63.73389 32.74329 C  63.2499 32.74329 62.85754 32.35094 62.85754 31.86694 C  62.85754 31.38295 63.2499 30.9906 63.73389 30.9906 C  64.21788 30.9906 64.61023 31.38295 64.61023 31.86694 Z M  63.73389 31.86694  " /> 
 </g> 
 </g> 
 </g> 
 </g> 
 <g> 
 <g stroke-width="0.8pt"> 
 <g stroke="rgb(8.99963%,42.99927%,69.9997%)"> 
 <g fill="rgb(8.99963%,42.99927%,69.9997%)"> 
 <path d=" M  63.73389 39.83368 M  64.61023 39.83368 C  64.61023 40.31767 64.21788 40.71002 63.73389 40.71002 C  63.2499 40.71002 62.85754 40.31767 62.85754 39.83368 C  62.85754 39.34969 63.2499 38.95734 63.73389 38.95734 C  64.21788 38.95734 64.61023 39.34969 64.61023 39.83368 Z M  63.73389 39.83368  " /> 
 </g> 
 </g> 
 </g> 
 </g> 
 <g> 
 <g stroke-width="0.8pt"> 
 <g stroke="rgb(8.99963%,42.99927%,69.9997%)"> 
 <g fill="rgb(8.99963%,42.99927%,69.9997%)"> 
 <path d=" M  63.73389 47.80042 M  64.61023 47.80042 C  64.61023 48.28441 64.21788 48.67676 63.73389 48.67676 C  63.2499 48.67676 62.85754 48.28441 62.85754 47.80042 C  62.85754 47.31642 63.2499 46.92407 63.73389 46.92407 C  64.21788 46.92407 64.61023 47.31642 64.61023 47.80042 Z M  63.73389 47.80042  " /> 
 </g> 
 </g> 
 </g> 
 </g> 
 <g> 
 <g stroke-width="0.8pt"> 
 <g stroke="rgb(8.99963%,42.99927%,69.9997%)"> 
 <g fill="rgb(8.99963%,42.99927%,69.9997%)"> 
 <path d=" M  63.73389 55.76715 M  64.61023 55.76715 C  64.61023 56.25114 64.21788 56.6435 63.73389 56.6435 C  63.2499 56.6435 62.85754 56.25114 62.85754 55.76715 C  62.85754 55.28316 63.2499 54.89081 63.73389 54.89081 C  64.21788 54.89081 64.61023 55.28316 64.61023 55.76715 Z M  63.73389 55.76715  " /> 
 </g> 
 </g> 
 </g> 
 </g> 
 <g> 
 <g stroke-width="0.8pt"> 
 <g stroke="rgb(8.99963%,42.99927%,69.9997%)"> 
 <g fill="rgb(8.99963%,42.99927%,69.9997%)"> 
 <path d=" M  71.70062 39.83368 M  72.57697 39.83368 C  72.57697 40.31767 72.18462 40.71002 71.70062 40.71002 C  71.21663 40.71002 70.82428 40.31767 70.82428 39.83368 C  70.82428 39.34969 71.21663 38.95734 71.70062 38.95734 C  72.18462 38.95734 72.57697 39.34969 72.57697 39.83368 Z M  71.70062 39.83368  " /> 
 </g> 
 </g> 
 </g> 
 </g> 
 <g> 
 <g stroke-width="0.8pt"> 
 <g stroke="rgb(8.99963%,42.99927%,69.9997%)"> 
 <g fill="rgb(8.99963%,42.99927%,69.9997%)"> 
 <path d=" M  71.70062 47.80042 M  72.57697 47.80042 C  72.57697 48.28441 72.18462 48.67676 71.70062 48.67676 C  71.21663 48.67676 70.82428 48.28441 70.82428 47.80042 C  70.82428 47.31642 71.21663 46.92407 71.70062 46.92407 C  72.18462 46.92407 72.57697 47.31642 72.57697 47.80042 Z M  71.70062 47.80042  " /> 
 </g> 
 </g> 
 </g> 
 </g> 
 <g> 
 <g stroke-width="0.8pt"> 
 <g stroke="rgb(8.99963%,42.99927%,69.9997%)"> 
 <g fill="rgb(8.99963%,42.99927%,69.9997%)"> 
 <path d=" M  71.70062 55.76715 M  72.57697 55.76715 C  72.57697 56.25114 72.18462 56.6435 71.70062 56.6435 C  71.21663 56.6435 70.82428 56.25114 70.82428 55.76715 C  70.82428 55.28316 71.21663 54.89081 71.70062 54.89081 C  72.18462 54.89081 72.57697 55.28316 72.57697 55.76715 Z M  71.70062 55.76715  " /> 
 </g> 
 </g> 
 </g> 
 </g> 
 <g> 
 <g> 
 <g transform="matrix(1.0,0.0,0.0,1.0,10.73108,-10.46674)"> 
 <g fill="rgb(0.0%,0.0%,0.0%)"> 
 <text style="stroke:none" transform="scale(1,-1) translate(25.11923,0)" text-anchor="middle"  font-size="10"> 
[<tspan font-family="cmtt" font-size="10">G</tspan><tspan font-family="cmmi" font-size="7">h</tspan><img 
src="2d-curv-estimator2x.png" alt="(X )"  class="left" align="middle">]<tspan font-family="cmmi" font-size="7">h</tspan>&#x00A0;&#x00A0;</text> 
</g> 
 </g> 
 </g> 
 </g> 
 <g> 
 <g stroke="rgb(100.0%,69.9997%,69.9997%)"> 
 <g fill="rgb(100.0%,69.9997%,69.9997%)"> 
 <g> 
 <g stroke="rgb(100.0%,69.9997%,69.9997%)"> 
 <g fill="rgb(100.0%,69.9997%,69.9997%)"> 
 <path d=" M  59.10648 -13.45248 h  17.22156 v  10.9715 h  -17.22156 Z  " style="stroke:none"/> 
 </g> 
 </g> 
 </g> 
 <g> 
 <g transform="matrix(1.0,0.0,0.0,1.0,62.43945,-10.1195)"> 
 <g fill="rgb(100.0%,69.9997%,69.9997%)"> 
 <text style="stroke:none" transform="scale(1,-1) translate(5.2778,0)" text-anchor="middle"  font-size="10"> 
&#x00A0;&#x00A0;</text> 
</g> 
 </g> 
 </g> 
 </g> 
 </g> 
 </g> 
 <g> 
 <g> 
 <g transform="matrix(1.0,0.0,0.0,1.0,88.76057,-10.46674)"> 
 <g fill="rgb(0.0%,0.0%,0.0%)"> 
 <text style="stroke:none" transform="scale(1,-1) translate(22.77373,0)" text-anchor="middle"  font-size="10"> 
<tspan font-family="cmmi" font-size="10">&#x2202;</tspan>[<tspan font-family="cmtt" font-size="10">G</tspan><tspan font-family="cmmi" font-size="7">h</tspan> <img 
src="2d-curv-estimator3x.png" alt="(X )"  class="left" align="middle">]<tspan font-family="cmmi" font-size="7">h</tspan></text> 
</g> 
 </g> 
 </g> 
 </g> 
 <g> 
 <g stroke="rgb(33.00018%,33.00018%,33.00018%)"> 
 <g fill="rgb(33.00018%,33.00018%,33.00018%)"> 
 <g stroke-width="0.8pt"> 
 <path d=" M  143.40125 -7.96674 L  151.36798 -7.96674  " style="fill:none"/> 
 </g> 
 </g> 
 </g> 
 </g> 
 <g> 
 <g stroke-dasharray="0.4pt,1.0pt" stroke-dashoffset="0.0pt"> 
 <g stroke="rgb(0.0%,0.0%,0.0%)"> 
 <g fill="rgb(0.0%,0.0%,0.0%)"> 
 <path d=" M  0.0 79.66736 L  0.0 84.44743  " style="fill:none"/> 
 </g> 
 </g> 
 </g> 
 </g> 
 <g> 
 <g stroke-dasharray="0.4pt,1.0pt" stroke-dashoffset="0.0pt"> 
 <g stroke="rgb(0.0%,0.0%,0.0%)"> 
 <g fill="rgb(0.0%,0.0%,0.0%)"> 
 <path d=" M  7.96674 79.66736 L  7.96674 84.44743  " style="fill:none"/> 
 </g> 
 </g> 
 </g> 
 </g> 
 <g> 
 <g stroke="rgb(0.0%,0.0%,0.0%)"> 
 <g fill="rgb(0.0%,0.0%,0.0%)"> 
 <path d=" M  0.45999 81.65904 L  7.50674 81.65904  " style="fill:none"/> 
 <g> 
 <g transform="matrix(-1.0,0.0,0.0,-1.0,0.45999,81.65904)"> 
 <g> 
 <g stroke-width="0.31999pt"> 
 <g stroke-dasharray="none" stroke-dashoffset="0.0pt"> 
 <g stroke-linecap="round"> 
 <g stroke-linejoin="round"> 
 <path d=" M  -1.19998 1.59998 C  -1.09998 0.99998 0.0 0.09999 0.29999 0.0 C  0.0 -0.09999 -1.09998 -0.99998 -1.19998 -1.59998  " style="fill:none"/> 
 </g> 
 </g> 
 </g> 
 </g> 
 </g> 
 </g> 
 </g> 
 <g> 
 <g transform="matrix(1.0,0.0,0.0,1.0,7.50674,81.65904)"> 
 <g> 
 <g stroke-width="0.31999pt"> 
 <g stroke-dasharray="none" stroke-dashoffset="0.0pt"> 
 <g stroke-linecap="round"> 
 <g stroke-linejoin="round"> 
 <path d=" M  -1.19998 1.59998 C  -1.09998 0.99998 0.0 0.09999 0.29999 0.0 C  0.0 -0.09999 -1.09998 -0.99998 -1.19998 -1.59998  " style="fill:none"/> 
 </g> 
 </g> 
 </g> 
 </g> 
 </g> 
 </g> 
 </g> 
 <g> 
 <g> 
 <g transform="matrix(1.0,0.0,0.0,1.0,1.10258,85.19202)"> 
 <g fill="rgb(0.0%,0.0%,0.0%)"> 
 <text style="stroke:none" transform="scale(1,-1) translate(2.88078,0)" text-anchor="middle"  font-size="10"> 
<tspan font-family="cmmi" font-size="10">h</tspan></text> 
</g> 
 </g> 
 </g> 
 </g> 
 </g> 
 </g> 
 </g> 
 </g> 
 </g> 
 </g> 
 </g> 
 </g> 
 
                                         </g> 
</svg> 
