<?xml version="1.0" encoding="iso-8859-1" standalone="no"?>
<?xml-stylesheet href="2d-curv-estimator.css" type="text/css"?>
<svg xmlns="http://www.w3.org/2000/svg" xmlns:xlink="http://www.w3.org/1999/xlink" width="159.5347pt" height="80.16734pt" viewBox="-0.09999 -0.4 159.5347 80.16734 ">
<g transform="translate(0, 79.76735 ) scale(1,-1) translate(0,0.4 )">
<g>
 <g stroke="rgb(0.0%,0.0%,0.0%)">
 <g fill="rgb(0.0%,0.0%,0.0%)">
 <g stroke-width="0.4pt">
 <g>
 <g>
 <g stroke="rgb(50.0%,50.0%,50.0%)">
 <g fill="rgb(50.0%,50.0%,50.0%)">
 <g stroke-width="0.2pt">
 <path d=" M  0.0 0.0 M  0.0 0.0 L  159.33472 0.0 M  0.0 7.96674 L  159.33472 7.96674 M  0.0 15.93347 L  159.33472 15.93347 M  0.0 23.9002 L  159.33472 23.9002 M  0.0 31.86694 L  159.33472 31.86694 M  0.0 39.83368 L  159.33472 39.83368 M  0.0 47.80042 L  159.33472 47.80042 M  0.0 55.76715 L  159.33472 55.76715 M  0.0 63.73389 L  159.33472 63.73389 M  0.0 71.70062 L  159.33472 71.70062 M  0.0 79.65736 L  159.33472 79.65736 M  0.0 0.0 L  0.0 79.66736 M  7.96674 0.0 L  7.96674 79.66736 M  15.93347 0.0 L  15.93347 79.66736 M  23.9002 0.0 L  23.9002 79.66736 M  31.86694 0.0 L  31.86694 79.66736 M  39.83368 0.0 L  39.83368 79.66736 M  47.80042 0.0 L  47.80042 79.66736 M  55.76715 0.0 L  55.76715 79.66736 M  63.73389 0.0 L  63.73389 79.66736 M  71.70062 0.0 L  71.70062 79.66736 M  79.66736 0.0 L  79.66736 79.66736 M  87.6341 0.0 L  87.6341 79.66736 M  95.60083 0.0 L  95.60083 79.66736 M  103.56757 0.0 L  103.56757 79.66736 M  111.5343 0.0 L  111.5343 79.66736 M  119.50104 0.0 L  119.50104 79.66736 M  127.46777 0.0 L  127.46777 79.66736 M  135.43451 0.0 L  135.43451 79.66736 M  143.40125 0.0 L  143.40125 79.66736 M  151.36798 0.0 L  151.36798 79.66736 M  159.32472 0.0 L  159.32472 79.66736  " style="fill:none"/>
 </g>
 </g>
 </g>
 </g>
 <g>
 <g stroke-width="0.8pt">
 <g stroke="rgb(0.0%,58.99963%,0.0%)">
 <g fill="rgb(0.0%,58.99963%,0.0%)">
 <g stroke-opacity="0.25">
 <g fill-opacity="0.25">
 <path d=" M  19.91684 0.0 C  19.91684 32.99973 46.66763 59.75052 79.66736 59.75052 C  112.66708 59.75052 139.41788 32.99973 139.41788 0.0  " />
 </g>
 </g>
 </g>
 </g>
 </g>
 </g>
 <g>
 <g stroke-width="0.8pt">
 <g stroke="rgb(33.00018%,33.00018%,33.00018%)">
 <g fill="rgb(33.00018%,33.00018%,33.00018%)">
 <path d=" M  19.91684 0.0 C  19.91684 32.99973 46.66763 59.75052 79.66736 59.75052 C  112.66708 59.75052 139.41788 32.99973 139.41788 0.0  " style="fill:none"/>
 </g>
 </g>
 </g>
 </g>
 <g>
 <g>
 <g transform="matrix(1.0,0.0,0.0,1.0,43.81705,47.80042)">
 <g fill="rgb(0.0%,0.0%,0.0%)">
 <text style="stroke:none" transform="scale(1,-1) translate(0.0,0)" text-anchor="middle"  font-size="10">
</text>
</g>
 </g>
 </g>
 </g>
 <g>
 <g stroke-width="0.8pt">
 <g stroke="rgb(0.0%,0.0%,0.0%)">
 <g fill="rgb(0.0%,0.0%,0.0%)">
 <path d=" M  43.81705 47.80042 M  44.61375 47.80042 C  44.61375 48.24042 44.25705 48.59712 43.81705 48.59712 C  43.37704 48.59712 43.02034 48.24042 43.02034 47.80042 C  43.02034 47.36041 43.37704 47.00371 43.81705 47.00371 C  44.25705 47.00371 44.61375 47.36041 44.61375 47.80042 Z M  43.81705 47.80042  " />
 </g>
 </g>
 </g>
 </g>
 <g>
 <g stroke-width="0.8pt">
 <g stroke="rgb(100.0%,58.99963%,0.0%)">
 <g fill="rgb(100.0%,58.99963%,0.0%)">
 <g stroke-opacity="0.25">
 <g fill-opacity="0.25">
 <path d=" M  43.81705 47.80042 M  67.71725 47.80042 C  67.71725 61.0003 57.01694 71.70062 43.81705 71.70062 C  30.61716 71.70062 19.91684 61.0003 19.91684 47.80042 C  19.91684 34.60052 30.61716 23.9002 43.81705 23.9002 C  57.01694 23.9002 67.71725 34.60052 67.71725 47.80042 Z M  43.81705 47.80042  " />
 </g>
 </g>
 </g>
 </g>
 </g>
 </g>
 <g>
 <g stroke-width="0.8pt">
 <g stroke="rgb(100.0%,58.99963%,0.0%)">
 <g fill="rgb(100.0%,58.99963%,0.0%)">
 <path d=" M  43.81705 47.80042 M  67.71725 47.80042 C  67.71725 61.0003 57.01694 71.70062 43.81705 71.70062 C  30.61716 71.70062 19.91684 61.0003 19.91684 47.80042 C  19.91684 34.60052 30.61716 23.9002 43.81705 23.9002 C  57.01694 23.9002 67.71725 34.60052 67.71725 47.80042 Z M  43.81705 47.80042  " style="fill:none"/>
 </g>
 </g>
 </g>
 </g>
 <path d="  " style="fill:none"/>
 <g>
 <g>
 <g transform="matrix(1.0,0.0,0.0,1.0,40.78235,51.33339)">
 <g fill="rgb(0.0%,0.0%,0.0%)">
 <text style="stroke:none" transform="scale(1,-1) translate(3.0347,0)" text-anchor="middle"  font-size="10">
<tspan font-family="cmbx" font-size="10">\(x\)</tspan></text>
</g>
 </g>
 </g>
 </g>
 <g>
 <g stroke-width="0.8pt">
 <g stroke="rgb(9.0%,43.137%,70.2%)">
 <g fill="rgb(9.0%,43.137%,70.2%)">
 <path d=" M  31.86694 31.86694 M  32.66365 31.86694 C  32.66365 32.30695 32.30695 32.66365 31.86694 32.66365 C  31.42694 32.66365 31.07024 32.30695 31.07024 31.86694 C  31.07024 31.42694 31.42694 31.07024 31.86694 31.07024 C  32.30695 31.07024 32.66365 31.42694 32.66365 31.86694 Z M  31.86694 31.86694  " />
 </g>
 </g>
 </g>
 </g>
 <g>
 <g stroke-width="0.8pt">
 <g stroke="rgb(9.0%,43.137%,70.2%)">
 <g fill="rgb(9.0%,43.137%,70.2%)">
 <path d=" M  39.83368 31.86694 M  40.63039 31.86694 C  40.63039 32.30695 40.27368 32.66365 39.83368 32.66365 C  39.39368 32.66365 39.03697 32.30695 39.03697 31.86694 C  39.03697 31.42694 39.39368 31.07024 39.83368 31.07024 C  40.27368 31.07024 40.63039 31.42694 40.63039 31.86694 Z M  39.83368 31.86694  " />
 </g>
 </g>
 </g>
 </g>
 <g>
 <g stroke-width="0.8pt">
 <g stroke="rgb(9.0%,43.137%,70.2%)">
 <g fill="rgb(9.0%,43.137%,70.2%)">
 <path d=" M  47.80042 31.86694 M  48.59712 31.86694 C  48.59712 32.30695 48.24042 32.66365 47.80042 32.66365 C  47.36041 32.66365 47.00371 32.30695 47.00371 31.86694 C  47.00371 31.42694 47.36041 31.07024 47.80042 31.07024 C  48.24042 31.07024 48.59712 31.42694 48.59712 31.86694 Z M  47.80042 31.86694  " />
 </g>
 </g>
 </g>
 </g>
 <g>
 <g stroke-width="0.8pt">
 <g stroke="rgb(9.0%,43.137%,70.2%)">
 <g fill="rgb(9.0%,43.137%,70.2%)">
 <path d=" M  55.76715 31.86694 M  56.56386 31.86694 C  56.56386 32.30695 56.20715 32.66365 55.76715 32.66365 C  55.32715 32.66365 54.97044 32.30695 54.97044 31.86694 C  54.97044 31.42694 55.32715 31.07024 55.76715 31.07024 C  56.20715 31.07024 56.56386 31.42694 56.56386 31.86694 Z M  55.76715 31.86694  " />
 </g>
 </g>
 </g>
 </g>
 <g>
 <g stroke-width="0.8pt">
 <g stroke="rgb(9.0%,43.137%,70.2%)">
 <g fill="rgb(9.0%,43.137%,70.2%)">
 <path d=" M  39.83368 39.83368 M  40.63039 39.83368 C  40.63039 40.27368 40.27368 40.63039 39.83368 40.63039 C  39.39368 40.63039 39.03697 40.27368 39.03697 39.83368 C  39.03697 39.39368 39.39368 39.03697 39.83368 39.03697 C  40.27368 39.03697 40.63039 39.39368 40.63039 39.83368 Z M  39.83368 39.83368  " />
 </g>
 </g>
 </g>
 </g>
 <g>
 <g stroke-width="0.8pt">
 <g stroke="rgb(9.0%,43.137%,70.2%)">
 <g fill="rgb(9.0%,43.137%,70.2%)">
 <path d=" M  47.80042 39.83368 M  48.59712 39.83368 C  48.59712 40.27368 48.24042 40.63039 47.80042 40.63039 C  47.36041 40.63039 47.00371 40.27368 47.00371 39.83368 C  47.00371 39.39368 47.36041 39.03697 47.80042 39.03697 C  48.24042 39.03697 48.59712 39.39368 48.59712 39.83368 Z M  47.80042 39.83368  " />
 </g>
 </g>
 </g>
 </g>
 <g>
 <g stroke-width="0.8pt">
 <g stroke="rgb(9.0%,43.137%,70.2%)">
 <g fill="rgb(9.0%,43.137%,70.2%)">
 <path d=" M  55.76715 39.83368 M  56.56386 39.83368 C  56.56386 40.27368 56.20715 40.63039 55.76715 40.63039 C  55.32715 40.63039 54.97044 40.27368 54.97044 39.83368 C  54.97044 39.39368 55.32715 39.03697 55.76715 39.03697 C  56.20715 39.03697 56.56386 39.39368 56.56386 39.83368 Z M  55.76715 39.83368  " />
 </g>
 </g>
 </g>
 </g>
 <g>
 <g stroke-width="0.8pt">
 <g stroke="rgb(9.0%,43.137%,70.2%)">
 <g fill="rgb(9.0%,43.137%,70.2%)">
 <path d=" M  63.73389 39.83368 M  64.5306 39.83368 C  64.5306 40.27368 64.17389 40.63039 63.73389 40.63039 C  63.29388 40.63039 62.93718 40.27368 62.93718 39.83368 C  62.93718 39.39368 63.29388 39.03697 63.73389 39.03697 C  64.17389 39.03697 64.5306 39.39368 64.5306 39.83368 Z M  63.73389 39.83368  " />
 </g>
 </g>
 </g>
 </g>
 <g>
 <g stroke-width="0.8pt">
 <g stroke="rgb(9.0%,43.137%,70.2%)">
 <g fill="rgb(9.0%,43.137%,70.2%)">
 <path d=" M  47.80042 47.80042 M  48.59712 47.80042 C  48.59712 48.24042 48.24042 48.59712 47.80042 48.59712 C  47.36041 48.59712 47.00371 48.24042 47.00371 47.80042 C  47.00371 47.36041 47.36041 47.00371 47.80042 47.00371 C  48.24042 47.00371 48.59712 47.36041 48.59712 47.80042 Z M  47.80042 47.80042  " />
 </g>
 </g>
 </g>
 </g>
 <g>
 <g stroke-width="0.8pt">
 <g stroke="rgb(9.0%,43.137%,70.2%)">
 <g fill="rgb(9.0%,43.137%,70.2%)">
 <path d=" M  55.76715 47.80042 M  56.56386 47.80042 C  56.56386 48.24042 56.20715 48.59712 55.76715 48.59712 C  55.32715 48.59712 54.97044 48.24042 54.97044 47.80042 C  54.97044 47.36041 55.32715 47.00371 55.76715 47.00371 C  56.20715 47.00371 56.56386 47.36041 56.56386 47.80042 Z M  55.76715 47.80042  " />
 </g>
 </g>
 </g>
 </g>
 <g>
 <g stroke-width="0.8pt">
 <g stroke="rgb(9.0%,43.137%,70.2%)">
 <g fill="rgb(9.0%,43.137%,70.2%)">
 <path d=" M  63.73389 47.80042 M  64.5306 47.80042 C  64.5306 48.24042 64.17389 48.59712 63.73389 48.59712 C  63.29388 48.59712 62.93718 48.24042 62.93718 47.80042 C  62.93718 47.36041 63.29388 47.00371 63.73389 47.00371 C  64.17389 47.00371 64.5306 47.36041 64.5306 47.80042 Z M  63.73389 47.80042  " />
 </g>
 </g>
 </g>
 </g>
 <g>
 <g stroke-width="0.8pt">
 <g stroke="rgb(9.0%,43.137%,70.2%)">
 <g fill="rgb(9.0%,43.137%,70.2%)">
 <path d=" M  63.73389 55.76715 M  64.5306 55.76715 C  64.5306 56.20715 64.17389 56.56386 63.73389 56.56386 C  63.29388 56.56386 62.93718 56.20715 62.93718 55.76715 C  62.93718 55.32715 63.29388 54.97044 63.73389 54.97044 C  64.17389 54.97044 64.5306 55.32715 64.5306 55.76715 Z M  63.73389 55.76715  " />
 </g>
 </g>
 </g>
 </g>
 </g>
 </g>
 </g>
 </g>
 </g>
                                         </g>
</svg>
