<svg xmlns="http://www.w3.org/2000/svg" xmlns:xlink="http://www.w3.org/1999/xlink" width="145.18451pt" height="182.18994pt" viewBox="-0.75452 -22.55934 145.18451 182.18994 ">
<g transform="translate(0, 159.6306 ) scale(1,-1) translate(0,22.55934 )">
<g>
 <g stroke="rgb(0.0%,0.0%,0.0%)">
 <g fill="rgb(0.0%,0.0%,0.0%)">
 <g stroke-width="0.4pt">
 <g>
 <!-- <g>
 <g stroke="rgb(50.0%,50.0%,50.0%)">
 <g fill="rgb(50.0%,50.0%,50.0%)">
 <g stroke-width="0.2pt">
 <path d=" M  0.0 0.0 M  0.0 0.0 L  142.26364 0.0 M  0.0 14.22636 L  142.26364 14.22636 M  0.0 28.45273 L  142.26364 28.45273 M  0.0 42.6791 L  142.26364 42.6791 M  0.0 56.90546 L  142.26364 56.90546 M  0.0 71.13182 L  142.26364 71.13182 M  0.0 85.35818 L  142.26364 85.35818 M  0.0 99.58455 L  142.26364 99.58455 M  0.0 113.81091 L  142.26364 113.81091 M  0.0 128.03728 L  142.26364 128.03728 M  0.0 142.25365 L  142.26364 142.25365 M  0.0 0.0 L  0.0 142.26364 M  14.22636 0.0 L  14.22636 142.26364 M  28.45273 0.0 L  28.45273 142.26364 M  42.6791 0.0 L  42.6791 142.26364 M  56.90546 0.0 L  56.90546 142.26364 M  71.13182 0.0 L  71.13182 142.26364 M  85.35818 0.0 L  85.35818 142.26364 M  99.58455 0.0 L  99.58455 142.26364 M  113.81091 0.0 L  113.81091 142.26364 M  128.03728 0.0 L  128.03728 142.26364 M  142.25365 0.0 L  142.25365 142.26364  " style="fill:none"/>
 </g>
 </g>
 </g>
 </g> -->
<g>
 <g stroke-width="0.8pt">
 <g stroke="rgb(100.0%,58.99963%,0.0%)">
 <g fill="rgb(100.0%,58.99963%,0.0%)">
 <g stroke-opacity="0.25">
 <g fill-opacity="0.25">
 <path d=" M  113.81091 120.92409 C  120.7195 117.37111 121.91103 110.64548 120.92409 106.69772 C  119.93715 102.74997 113.60631 92.47136 106.69772 92.47136 C  99.78914 92.47136 78.0404 105.71078 71.13182 106.69772 C  64.22324 107.68466 56.90546 102.54536 56.90546 99.58455 C  56.90546 96.62373 63.2363 90.29288 71.13182 85.35818 C  79.02734 80.4235 106.90233 70.92722 113.81091 64.01863 C  120.7195 57.11005 122.89796 42.47449 120.92409 35.5659 C  118.95021 28.65732 106.49313 17.77934 99.58455 14.22636 C  92.67596 10.67339 81.00122 8.97147 71.13182 9.9584 C  61.26242 10.94534 35.36131 17.78656 28.45273 21.33954 C  21.54414 24.89252 20.3526 31.61815 21.33954 35.5659 C  22.32648 39.51366 28.65732 49.79227 35.5659 49.79227 C  42.47449 49.79227 64.22324 36.55284 71.13182 35.5659 C  78.0404 34.57896 85.35818 39.71828 85.35818 42.6791 C  85.35818 45.63991 79.02734 51.97076 71.13182 56.90546 C  63.2363 61.84015 35.36131 71.33641 28.45273 78.245 C  21.54414 85.15358 19.36566 99.78914 21.33954 106.69772 C  23.31342 113.60631 35.77051 124.4843 42.6791 128.03728 C  49.58768 131.59026 61.26242 133.29216 71.13182 132.30522 C  81.00122 131.31828 106.90233 124.47707 113.81091 120.92409 Z Z  "/>
 </g>
 </g>
 </g>
 </g>
 </g>
 </g>
 <g>
 <g stroke-width="0.8pt">
 <g stroke="rgb(100.0%,58.99963%,0.0%)">
 <g fill="rgb(100.0%,58.99963%,0.0%)">
 <path d=" M  113.81091 120.92409 C  120.7195 117.37111 121.91103 110.64548 120.92409 106.69772 C  119.93715 102.74997 113.60631 92.47136 106.69772 92.47136 C  99.78914 92.47136 78.0404 105.71078 71.13182 106.69772 C  64.22324 107.68466 56.90546 102.54536 56.90546 99.58455 C  56.90546 96.62373 63.2363 90.29288 71.13182 85.35818 C  79.02734 80.4235 106.90233 70.92722 113.81091 64.01863 C  120.7195 57.11005 122.89796 42.47449 120.92409 35.5659 C  118.95021 28.65732 106.49313 17.77934 99.58455 14.22636 C  92.67596 10.67339 81.00122 8.97147 71.13182 9.9584 C  61.26242 10.94534 35.36131 17.78656 28.45273 21.33954 C  21.54414 24.89252 20.3526 31.61815 21.33954 35.5659 C  22.32648 39.51366 28.65732 49.79227 35.5659 49.79227 C  42.47449 49.79227 64.22324 36.55284 71.13182 35.5659 C  78.0404 34.57896 85.35818 39.71828 85.35818 42.6791 C  85.35818 45.63991 79.02734 51.97076 71.13182 56.90546 C  63.2363 61.84015 35.36131 71.33641 28.45273 78.245 C  21.54414 85.15358 19.36566 99.78914 21.33954 106.69772 C  23.31342 113.60631 35.77051 124.4843 42.6791 128.03728 C  49.58768 131.59026 61.26242 133.29216 71.13182 132.30522 C  81.00122 131.31828 106.90233 124.47707 113.81091 120.92409 Z Z  " style="fill:none"/>
 </g>
 </g>
 </g>
 </g>

 <!-- <g>
 <g>
 <g transform="matrix(1.0,0.0,0.0,1.0,2.57846,-17.64302)">
 <g fill="rgb(0.0%,0.0%,0.0%)">
 <text style="stroke:none" transform="scale(1,-1) translate(4.53471,0)" text-anchor="middle" font-size="10">
<tspan font-family="cmmi" font-size="10">X</tspan></text>
</g>
 </g>
 </g>
 </g> -->
 <g>
 <g stroke="rgb(100.0%,58.99963%,0.0%)">
 <g fill="rgb(100.0%,58.99963%,0.0%)">
 <g stroke-opacity="0.25">
 <g fill-opacity="0.25">
 <!-- <g>
 <g stroke="rgb(100.0%,58.99963%,0.0%)">
 <g fill="rgb(100.0%,58.99963%,0.0%)">
 <g stroke-opacity="0.25">
 <g fill-opacity="0.25">
 <path d=" M  15.57399 -19.71211 h  17.22156 v  10.9715 h  -17.22156 Z  " style="stroke:none"/>
 </g>
 </g>
 </g>
 </g>
 </g> -->
 <!-- <g>
 <g transform="matrix(1.0,0.0,0.0,1.0,18.90697,-16.37914)">
 <g fill="rgb(100.0%,58.99963%,0.0%)">
 <text style="stroke:none" transform="scale(1,-1) translate(5.2778,0)" text-anchor="middle" font-size="10">
  </text>
</g>
 </g>
 </g> -->
 </g>
 </g>
 </g>
 </g>
 </g>
 <!-- <g>
 <g>
 <g transform="matrix(1.0,0.0,0.0,1.0,45.1705,-17.69858)">
 <g fill="rgb(0.0%,0.0%,0.0%)">
 <text style="stroke:none" transform="scale(1,-1) translate(7.467,0)" text-anchor="middle" font-size="10">
<tspan font-family="cmmi" font-size="10">∂X</tspan></text>
</g>
 </g>
 </g>
 </g> -->
 <!-- <g>
 <g stroke-width="0.8pt">
 <g stroke="rgb(100.0%,58.99963%,0.0%)">
 <g fill="rgb(100.0%,58.99963%,0.0%)">
 <path d=" M  59.75067 -14.22636 L  75.39977 -14.22636  " style="fill:none"/>
 </g>
 </g>
 </g>
 </g> -->
 <!-- <g>
 <g>
 <g transform="matrix(1.0,0.0,0.0,1.0,80.83435,-16.72636)">
 <g fill="rgb(0.0%,0.0%,0.0%)">
 <text style="stroke:none" transform="scale(1,-1) translate(30.13133,0)" text-anchor="middle" font-size="10">
(<tspan font-family="cmmi" font-size="10">h </tspan><tspan font-family="cmsy" font-size="10">⋅</tspan><tspan font-family="cmtt" font-size="10">G</tspan><tspan font-family="cmmi" font-size="7">h</tspan><tspan font-family="cmtt" font-size="10">(X))</tspan></text></g></g>
</g></g> -->
</g></g></g></g></g></g></svg>
