<?xml version="1.0" encoding="UTF-8" standalone="no"?>
<svg
   xmlns:dc="http://purl.org/dc/elements/1.1/"
   xmlns:cc="http://creativecommons.org/ns#"
   xmlns:rdf="http://www.w3.org/1999/02/22-rdf-syntax-ns#"
   xmlns:svg="http://www.w3.org/2000/svg"
   xmlns="http://www.w3.org/2000/svg"
   xmlns:sodipodi="http://sodipodi.sourceforge.net/DTD/sodipodi-0.dtd"
   xmlns:inkscape="http://www.inkscape.org/namespaces/inkscape"
   width="1453.2019"
   height="608.31982"
   viewBox="0 0 1162.5601 486.65627"
   version="1.1"
   id="svg2"
   inkscape:version="0.48.4 r9939"
   sodipodi:docname="MDSS_ellipse_rotated.svg">
  <metadata
     id="metadata114">
    <rdf:RDF>
      <cc:Work
         rdf:about="">
        <dc:format>image/svg+xml</dc:format>
        <dc:type
           rdf:resource="http://purl.org/dc/dcmitype/StillImage" />
        <dc:title />
      </cc:Work>
    </rdf:RDF>
  </metadata>
  <defs
     id="defs112" />
  <sodipodi:namedview
     pagecolor="#ffffff"
     bordercolor="#666666"
     borderopacity="1"
     objecttolerance="10"
     gridtolerance="10"
     guidetolerance="10"
     inkscape:pageopacity="0"
     inkscape:pageshadow="2"
     inkscape:window-width="1877"
     inkscape:window-height="1176"
     id="namedview110"
     showgrid="false"
     fit-margin-top="0"
     fit-margin-left="0"
     fit-margin-right="0"
     fit-margin-bottom="0"
     inkscape:zoom="0.38317696"
     inkscape:cx="970.55839"
     inkscape:cy="474.07672"
     inkscape:window-x="43"
     inkscape:window-y="24"
     inkscape:window-maximized="1"
     inkscape:current-layer="g3859" />
  <desc
     id="desc4">output.svg, created with the Board library (Copyleft) 2007 Sebastien Fourey</desc>
  <g
     id="g3859"
     transform="matrix(0,1,-1,0,824.45239,-337.70921)">
    <g
       id="g3036"
       transform="matrix(0,1,-1,0,824.2096,-337.85881)">
      <polyline
         style="fill:none;stroke:#000000;stroke-width:2.400002;stroke-linecap:butt;stroke-linejoin:miter;stroke-miterlimit:4;stroke-dasharray:none"
         points="254.43,455.15 282.77,455.15 311.12,455.15 339.47,455.15 367.81,455.15 396.16,455.15 424.51,455.15                    452.85,455.15 481.2,455.15 509.54,455.15 537.89,455.15 566.24,455.15 594.58,455.15                    594.58,426.8 622.93,426.8 651.28,426.8 679.62,426.8 707.97,426.8 736.32,426.8                    736.32,398.45 764.66,398.45 793.01,398.45 821.36,398.45 821.36,370.11 849.7,370.11                    878.05,370.11 878.05,341.76 906.4,341.76 934.74,341.76 963.09,341.76 963.09,313.42                    991.43,313.42 991.43,285.07 1019.78,285.07 1048.13,285.07 1048.13,256.72 1076.47,256.72                    1076.47,228.38 1104.82,228.38 1104.82,200.03 1133.17,200.03 1133.17,171.68 1133.17,143.34                    1133.17,114.99 1133.17,86.64 1104.82,86.64 1104.82,58.3 1076.47,58.3 1048.13,58.3                    1019.78,58.3 1019.78,29.95 991.43,29.95 963.09,29.95 934.74,29.95 906.4,29.95                    878.05,29.95 849.7,29.95 821.36,29.95 793.01,29.95 764.66,29.95 736.32,29.95                    707.97,29.95 679.62,29.95 651.28,29.95 622.93,29.95 594.58,29.95 566.24,29.95                    566.24,58.3 537.89,58.3 509.54,58.3 481.2,58.3 452.85,58.3 424.51,58.3                    424.51,86.64 396.16,86.64 367.81,86.64 339.47,86.64 339.47,114.99 311.12,114.99                    282.77,114.99 282.77,143.34 254.43,143.34 226.08,143.34 197.73,143.34 197.73,171.68                    169.39,171.68 169.39,200.03 141.04,200.03 112.69,200.03 112.69,228.38 84.35,228.38                    84.35,256.72 56,256.72 56,285.07 27.66,285.07 27.66,313.42 27.66,341.76                    27.66,370.11 27.66,398.45 56,398.45 56,426.8 84.35,426.8 112.69,426.8                    141.04,426.8 141.04,455.15 169.39,455.15 197.73,455.15 226.08,455.15 254.43,455.15                    282.77,455.15 311.12,455.15 339.47,455.15 367.81,455.15 396.16,455.15 424.51,455.15                    452.85,455.15 481.2,455.15 509.54,455.15 537.89,455.15 566.24,455.15 594.58,455.15                    594.58,426.8 622.93,426.8 651.28,426.8 679.62,426.8 707.97,426.8 736.32,426.8                    736.32,398.45 764.66,398.45 793.01,398.45 821.36,398.45 821.36,370.11 849.7,370.11                    878.05,370.11 878.05,341.76 906.4,341.76 934.74,341.76 963.09,341.76 963.09,313.42                    991.43,313.42 991.43,285.07 1019.78,285.07 1048.13,285.07 1048.13,256.72 1076.47,256.72                    1076.47,228.38 1104.82,228.38 1104.82,200.03 1133.17,200.03 1133.17,171.68 1133.17,143.34                    1133.17,114.99 1133.17,86.64 1104.82,86.64 1104.82,58.3 1076.47,58.3 1048.13,58.3                    1019.78,58.3 1019.78,29.95 991.43,29.95 963.09,29.95 934.74,29.95 906.4,29.95                    878.05,29.95 849.7,29.95 821.36,29.95 793.01,29.95 764.66,29.95 736.32,29.95                    707.97,29.95 679.62,29.95 651.28,29.95 622.93,29.95 594.58,29.95 566.24,29.95                    566.24,58.3 537.89,58.3 509.54,58.3 481.2,58.3 452.85,58.3 424.51,58.3                    424.51,86.64 396.16,86.64 367.81,86.64 339.47,86.64 339.47,114.99 311.12,114.99                    282.77,114.99 282.77,143.34 254.43,143.34 226.08,143.34 197.73,143.34 197.73,171.68                    169.39,171.68 169.39,200.03 141.04,200.03 112.69,200.03 112.69,228.38 84.35,228.38                    84.35,256.72 56,256.72 56,285.07 27.66,285.07 27.66,313.42 27.66,341.76                    27.66,370.11 27.66,398.45 56,398.45 56,426.8 84.35,426.8 112.69,426.8                    141.04,426.8 141.04,455.15 169.39,455.15 197.73,455.15 226.08,455.15 254.43,455.15                   "
         id="polyline6"
         transform="translate(0.62420257,0.62539369)" />
      <polygon
         style="fill:none;stroke:#00ff00;stroke-width:0.35299999mm;stroke-linecap:butt;stroke-linejoin:miter;stroke-opacity:1"
         points="735.34,415.07 254.43,455.15 256.77,483.3 737.68,443.22 "
         id="polygon8"
         transform="translate(0.62420257,0.62539369)" />
      <polygon
         style="fill:none;stroke:#ff0000;stroke-width:0.35299999mm;stroke-linecap:butt;stroke-linejoin:miter"
         points="818.63,383.49 424.51,455.15 429.95,485.08 824.08,413.42 "
         id="polygon10"
         transform="translate(0.62420257,0.62539369)" />
      <polygon
         style="fill:none;stroke:#ff0000;stroke-width:0.35299999mm;stroke-linecap:butt;stroke-linejoin:miter"
         points="873.77,355.13 622.93,426.8 631.49,456.75 882.33,385.08 "
         id="polygon12"
         transform="translate(0.62420257,0.62539369)" />
      <polygon
         style="fill:none;stroke:#ff0000;stroke-width:0.35299999mm;stroke-linecap:butt;stroke-linejoin:miter"
         points="986.77,300.99 651.28,426.8 662.93,457.87 998.42,332.05 "
         id="polygon14"
         transform="translate(0.62420257,0.62539369)" />
      <polygon
         style="fill:none;stroke:#ff0000;stroke-width:0.35299999mm;stroke-linecap:butt;stroke-linejoin:miter"
         points="1123.59,186.62 906.4,341.76 927.46,371.26 1144.66,216.12 "
         id="polygon16"
         transform="translate(0.62420257,0.62539369)" />
      <polygon
         style="fill:none;stroke:#ff0000;stroke-width:0.35299999mm;stroke-linecap:butt;stroke-linejoin:miter"
         points="1133.17,171.68 929.21,334.85 951.33,362.5 1155.29,199.34 "
         id="polygon18"
         transform="translate(0.62420257,0.62539369)" />
      <polygon
         style="fill:none;stroke:#ff0000;stroke-width:0.35299999mm;stroke-linecap:butt;stroke-linejoin:miter"
         points="1133.17,143.34 1019.78,285.07 1047.44,307.19 1160.82,165.46 "
         id="polygon20"
         transform="translate(0.62420257,0.62539369)" />
      <polygon
         style="fill:none;stroke:#ff0000;stroke-width:0.35299999mm;stroke-linecap:butt;stroke-linejoin:miter"
         points="1133.17,86.64 1098.15,226.71 1124.83,233.38 1159.85,93.31 "
         id="polygon22"
         transform="translate(0.62420257,0.62539369)" />
      <polygon
         style="fill:none;stroke:#ff0000;stroke-width:0.35299999mm;stroke-linecap:butt;stroke-linejoin:miter"
         points="1098.15,59.96 1133.17,200.03 1159.85,193.36 1124.83,53.3 "
         id="polygon24"
         transform="translate(0.62420257,0.62539369)" />
      <polygon
         style="fill:none;stroke:#ff0000;stroke-width:0.35299999mm;stroke-linecap:butt;stroke-linejoin:miter"
         points="1076.47,58.3 1133.17,143.34 1159.33,125.89 1102.64,40.85 "
         id="polygon26"
         transform="translate(0.62420257,0.62539369)" />
      <polygon
         style="fill:none;stroke:#ff0000;stroke-width:0.35299999mm;stroke-linecap:butt;stroke-linejoin:miter"
         points="1048.13,58.3 1133.17,114.99 1150.61,88.82 1065.57,32.13 "
         id="polygon28"
         transform="translate(0.62420257,0.62539369)" />
      <polygon
         style="fill:none;stroke:#ff0000;stroke-width:0.35299999mm;stroke-linecap:butt;stroke-linejoin:miter"
         points="906.4,29.95 1131.03,94.13 1139.59,64.18 914.95,0 "
         id="polygon30"
         transform="translate(0.62420257,0.62539369)" />
      <polygon
         style="fill:none;stroke:#ff0000;stroke-width:0.35299999mm;stroke-linecap:butt;stroke-linejoin:miter"
         points="566.24,29.95 1104.49,63.59 1106.25,35.36 568,1.71 "
         id="polygon32"
         transform="translate(0.62420257,0.62539369)" />
      <polygon
         style="fill:none;stroke:#ff0000;stroke-width:0.35299999mm;stroke-linecap:butt;stroke-linejoin:miter"
         points="425.06,67.12 1019.78,29.95 1018.02,1.71 423.29,38.89 "
         id="polygon34"
         transform="translate(0.62420257,0.62539369)" />
      <polygon
         style="fill:none;stroke:#ff0000;stroke-width:0.35299999mm;stroke-linecap:butt;stroke-linejoin:miter"
         points="342.19,101.61 736.32,29.95 730.87,0.02 336.74,71.68 "
         id="polygon36"
         transform="translate(0.62420257,0.62539369)" />
      <polygon
         style="fill:none;stroke:#ff0000;stroke-width:0.35299999mm;stroke-linecap:butt;stroke-linejoin:miter"
         points="287.05,129.97 537.89,58.3 529.33,28.35 278.49,100.01 "
         id="polygon38"
         transform="translate(0.62420257,0.62539369)" />
      <polygon
         style="fill:none;stroke:#ff0000;stroke-width:0.35299999mm;stroke-linecap:butt;stroke-linejoin:miter"
         points="174.05,184.11 509.54,58.3 497.9,27.23 162.4,153.04 "
         id="polygon40"
         transform="translate(0.62420257,0.62539369)" />
      <polygon
         style="fill:none;stroke:#ff0000;stroke-width:0.35299999mm;stroke-linecap:butt;stroke-linejoin:miter"
         points="37.23,298.48 254.43,143.34 233.36,113.84 16.16,268.98 "
         id="polygon42"
         transform="translate(0.62420257,0.62539369)" />
      <polygon
         style="fill:none;stroke:#ff0000;stroke-width:0.35299999mm;stroke-linecap:butt;stroke-linejoin:miter"
         points="27.66,313.42 231.61,150.25 209.49,122.6 5.53,285.76 "
         id="polygon44"
         transform="translate(0.62420257,0.62539369)" />
      <polygon
         style="fill:none;stroke:#ff0000;stroke-width:0.35299999mm;stroke-linecap:butt;stroke-linejoin:miter"
         points="27.66,341.76 141.04,200.03 113.39,177.91 0,319.64 "
         id="polygon46"
         transform="translate(0.62420257,0.62539369)" />
      <polygon
         style="fill:none;stroke:#ff0000;stroke-width:0.35299999mm;stroke-linecap:butt;stroke-linejoin:miter"
         points="27.66,398.45 62.67,258.39 35.99,251.72 0.98,391.79 "
         id="polygon48"
         transform="translate(0.62420257,0.62539369)" />
      <polygon
         style="fill:none;stroke:#ff0000;stroke-width:0.35299999mm;stroke-linecap:butt;stroke-linejoin:miter"
         points="62.67,425.13 27.66,285.07 0.98,291.74 35.99,431.8 "
         id="polygon50"
         transform="translate(0.62420257,0.62539369)" />
      <polygon
         style="fill:none;stroke:#ff0000;stroke-width:0.35299999mm;stroke-linecap:butt;stroke-linejoin:miter"
         points="84.35,426.8 27.66,341.76 1.49,359.21 58.18,444.25 "
         id="polygon52"
         transform="translate(0.62420257,0.62539369)" />
      <polygon
         style="fill:none;stroke:#ff0000;stroke-width:0.35299999mm;stroke-linecap:butt;stroke-linejoin:miter"
         points="112.69,426.8 27.66,370.11 10.21,396.27 95.25,452.97 "
         id="polygon54"
         transform="translate(0.62420257,0.62539369)" />
      <polygon
         style="fill:none;stroke:#ff0000;stroke-width:0.35299999mm;stroke-linecap:butt;stroke-linejoin:miter"
         points="254.43,455.15 29.79,390.97 21.24,420.92 245.87,485.1 "
         id="polygon56"
         transform="translate(0.62420257,0.62539369)" />
      <polygon
         style="fill:none;stroke:#00ff00;stroke-width:0.35299999mm;stroke-linecap:butt;stroke-linejoin:miter;stroke-opacity:1"
         points="594.58,455.15 56.33,421.51 54.57,449.74 592.82,483.38 "
         id="polygon58"
         transform="translate(0.62420257,0.62539369)" />
      <polygon
         style="fill:none;stroke:#00ff00;stroke-width:0.35299999mm;stroke-linecap:butt;stroke-linejoin:miter;stroke-opacity:1"
         points="735.77,417.98 141.04,455.15 142.81,483.38 737.53,446.21 "
         id="polygon60"
         transform="translate(0.62420257,0.62539369)" />
      <polygon
         style="fill:none;stroke:#ff0000;stroke-width:0.35299999mm;stroke-linecap:butt;stroke-linejoin:miter"
         points="818.63,383.49 424.51,455.15 429.95,485.08 824.08,413.42 "
         id="polygon62"
         transform="translate(0.62420257,0.62539369)" />
      <polygon
         style="fill:none;stroke:#ff0000;stroke-width:0.35299999mm;stroke-linecap:butt;stroke-linejoin:miter"
         points="873.77,355.13 622.93,426.8 631.49,456.75 882.33,385.08 "
         id="polygon64"
         transform="translate(0.62420257,0.62539369)" />
      <polygon
         style="fill:none;stroke:#ff0000;stroke-width:0.35299999mm;stroke-linecap:butt;stroke-linejoin:miter"
         points="986.77,300.99 651.28,426.8 662.93,457.87 998.42,332.05 "
         id="polygon66"
         transform="translate(0.62420257,0.62539369)" />
      <polygon
         style="fill:none;stroke:#ff0000;stroke-width:0.35299999mm;stroke-linecap:butt;stroke-linejoin:miter"
         points="1123.59,186.62 906.4,341.76 927.46,371.26 1144.66,216.12 "
         id="polygon68"
         transform="translate(0.62420257,0.62539369)" />
      <polygon
         style="fill:none;stroke:#ff0000;stroke-width:0.35299999mm;stroke-linecap:butt;stroke-linejoin:miter"
         points="1133.17,171.68 929.21,334.85 951.33,362.5 1155.29,199.34 "
         id="polygon70"
         transform="translate(0.62420257,0.62539369)" />
      <polygon
         style="fill:none;stroke:#ff0000;stroke-width:0.35299999mm;stroke-linecap:butt;stroke-linejoin:miter"
         points="1133.17,143.34 1019.78,285.07 1047.44,307.19 1160.82,165.46 "
         id="polygon72"
         transform="translate(0.62420257,0.62539369)" />
      <polygon
         style="fill:none;stroke:#ff0000;stroke-width:0.35299999mm;stroke-linecap:butt;stroke-linejoin:miter"
         points="1133.17,86.64 1098.15,226.71 1124.83,233.38 1159.85,93.31 "
         id="polygon74"
         transform="translate(0.62420257,0.62539369)" />
      <polygon
         style="fill:none;stroke:#ff0000;stroke-width:0.35299999mm;stroke-linecap:butt;stroke-linejoin:miter"
         points="1098.15,59.96 1133.17,200.03 1159.85,193.36 1124.83,53.3 "
         id="polygon76"
         transform="translate(0.62420257,0.62539369)" />
      <polygon
         style="fill:none;stroke:#ff0000;stroke-width:0.35299999mm;stroke-linecap:butt;stroke-linejoin:miter"
         points="1076.47,58.3 1133.17,143.34 1159.33,125.89 1102.64,40.85 "
         id="polygon78"
         transform="translate(0.62420257,0.62539369)" />
      <polygon
         style="fill:none;stroke:#ff0000;stroke-width:0.35299999mm;stroke-linecap:butt;stroke-linejoin:miter"
         points="1048.13,58.3 1133.17,114.99 1150.61,88.82 1065.57,32.13 "
         id="polygon80"
         transform="translate(0.62420257,0.62539369)" />
      <polygon
         style="fill:none;stroke:#ff0000;stroke-width:0.35299999mm;stroke-linecap:butt;stroke-linejoin:miter"
         points="906.4,29.95 1131.03,94.13 1139.59,64.18 914.95,0 "
         id="polygon82"
         transform="translate(0.62420257,0.62539369)" />
      <polygon
         style="fill:none;stroke:#ff0000;stroke-width:0.35299999mm;stroke-linecap:butt;stroke-linejoin:miter"
         points="566.24,29.95 1104.49,63.59 1106.25,35.36 568,1.71 "
         id="polygon84"
         transform="translate(0.62420257,0.62539369)" />
      <polygon
         style="fill:none;stroke:#ff0000;stroke-width:0.35299999mm;stroke-linecap:butt;stroke-linejoin:miter"
         points="425.06,67.12 1019.78,29.95 1018.02,1.71 423.29,38.89 "
         id="polygon86"
         transform="translate(0.62420257,0.62539369)" />
      <polygon
         style="fill:none;stroke:#ff0000;stroke-width:0.35299999mm;stroke-linecap:butt;stroke-linejoin:miter"
         points="342.19,101.61 736.32,29.95 730.87,0.02 336.74,71.68 "
         id="polygon88"
         transform="translate(0.62420257,0.62539369)" />
      <polygon
         style="fill:none;stroke:#ff0000;stroke-width:0.35299999mm;stroke-linecap:butt;stroke-linejoin:miter"
         points="287.05,129.97 537.89,58.3 529.33,28.35 278.49,100.01 "
         id="polygon90"
         transform="translate(0.62420257,0.62539369)" />
      <polygon
         style="fill:none;stroke:#ff0000;stroke-width:0.35299999mm;stroke-linecap:butt;stroke-linejoin:miter"
         points="174.05,184.11 509.54,58.3 497.9,27.23 162.4,153.04 "
         id="polygon92"
         transform="translate(0.62420257,0.62539369)" />
      <polygon
         style="fill:none;stroke:#ff0000;stroke-width:0.35299999mm;stroke-linecap:butt;stroke-linejoin:miter"
         points="37.23,298.48 254.43,143.34 233.36,113.84 16.16,268.98 "
         id="polygon94"
         transform="translate(0.62420257,0.62539369)" />
      <polygon
         style="fill:none;stroke:#ff0000;stroke-width:0.35299999mm;stroke-linecap:butt;stroke-linejoin:miter"
         points="27.66,313.42 231.61,150.25 209.49,122.6 5.53,285.76 "
         id="polygon96"
         transform="translate(0.62420257,0.62539369)" />
      <polygon
         style="fill:none;stroke:#ff0000;stroke-width:0.35299999mm;stroke-linecap:butt;stroke-linejoin:miter"
         points="27.66,341.76 141.04,200.03 113.39,177.91 0,319.64 "
         id="polygon98"
         transform="translate(0.62420257,0.62539369)" />
      <polygon
         style="fill:none;stroke:#ff0000;stroke-width:0.35299999mm;stroke-linecap:butt;stroke-linejoin:miter"
         points="27.66,398.45 62.67,258.39 35.99,251.72 0.98,391.79 "
         id="polygon100"
         transform="translate(0.62420257,0.62539369)" />
      <polygon
         style="fill:none;stroke:#ff0000;stroke-width:0.35299999mm;stroke-linecap:butt;stroke-linejoin:miter"
         points="62.67,425.13 27.66,285.07 0.98,291.74 35.99,431.8 "
         id="polygon102"
         transform="translate(0.62420257,0.62539369)" />
      <polygon
         style="fill:none;stroke:#ff0000;stroke-width:0.35299999mm;stroke-linecap:butt;stroke-linejoin:miter"
         points="84.35,426.8 27.66,341.76 1.49,359.21 58.18,444.25 "
         id="polygon104"
         transform="translate(0.62420257,0.62539369)" />
      <polygon
         style="fill:none;stroke:#ff0000;stroke-width:0.35299999mm;stroke-linecap:butt;stroke-linejoin:miter"
         points="112.69,426.8 27.66,370.11 10.21,396.27 95.25,452.97 "
         id="polygon106"
         transform="translate(0.62420257,0.62539369)" />
      <polygon
         style="fill:none;stroke:#ff0000;stroke-width:0.35299999mm;stroke-linecap:butt;stroke-linejoin:miter"
         points="254.43,455.15 29.79,390.97 21.24,420.92 245.87,485.1 "
         id="polygon108"
         transform="translate(0.62420257,0.62539369)" />
      <rect
         transform="matrix(0,-0.80000067,0.80000067,0,-0.25079743,486.49968)"
         y="377.98068"
         x="37.841522"
         height="59.372047"
         width="0.97866011"
         id="rect3803"
         style="fill:none;stroke:#0000ff;stroke-width:3;stroke-miterlimit:4;stroke-opacity:1;stroke-dasharray:none" />
    </g>
  </g>
</svg>
