<?xml version="1.0" encoding="UTF-8" standalone="no"?>
<!-- Created with Inkscape (http://www.inkscape.org/) -->

<svg
   xmlns:dc="http://purl.org/dc/elements/1.1/"
   xmlns:cc="http://creativecommons.org/ns#"
   xmlns:rdf="http://www.w3.org/1999/02/22-rdf-syntax-ns#"
   xmlns:svg="http://www.w3.org/2000/svg"
   xmlns="http://www.w3.org/2000/svg"
   xmlns:sodipodi="http://sodipodi.sourceforge.net/DTD/sodipodi-0.dtd"
   xmlns:inkscape="http://www.inkscape.org/namespaces/inkscape"
   width="387.46829"
   height="185.87888"
   id="svg2"
   version="1.1"
   inkscape:version="0.48.2 r9819"
   sodipodi:docname="notation.pdf">
  <defs
     id="defs4">
    <marker
       inkscape:stockid="TriangleOutM"
       orient="auto"
       refY="0.0"
       refX="0.0"
       id="TriangleOutM"
       style="overflow:visible">
      <path
         id="path4666"
         d="M 5.77,0.0 L -2.88,5.0 L -2.88,-5.0 L 5.77,0.0 z "
         style="fill-rule:evenodd;stroke:#000000;stroke-width:1.0pt"
         transform="scale(0.4)" />
    </marker>
    <marker
       inkscape:stockid="TriangleInM"
       orient="auto"
       refY="0.0"
       refX="0.0"
       id="TriangleInM"
       style="overflow:visible">
      <path
         id="path4657"
         d="M 5.77,0.0 L -2.88,5.0 L -2.88,-5.0 L 5.77,0.0 z "
         style="fill-rule:evenodd;stroke:#000000;stroke-width:1.0pt"
         transform="scale(-0.4)" />
    </marker>
    <marker
       inkscape:stockid="Arrow2Mstart"
       orient="auto"
       refY="0.0"
       refX="0.0"
       id="Arrow2Mstart"
       style="overflow:visible">
      <path
         id="path4545"
         style="fill-rule:evenodd;stroke-width:0.62500000;stroke-linejoin:round"
         d="M 8.7185878,4.0337352 L -2.2072895,0.016013256 L 8.7185884,-4.0017078 C 6.9730900,-1.6296469 6.9831476,1.6157441 8.7185878,4.0337352 z "
         transform="scale(0.6) translate(0,0)" />
    </marker>
    <marker
       inkscape:stockid="Arrow1Lstart"
       orient="auto"
       refY="0.0"
       refX="0.0"
       id="Arrow1Lstart"
       style="overflow:visible">
      <path
         id="path4521"
         d="M 0.0,0.0 L 5.0,-5.0 L -12.5,0.0 L 5.0,5.0 L 0.0,0.0 z "
         style="fill-rule:evenodd;stroke:#000000;stroke-width:1.0pt"
         transform="scale(0.8) translate(12.5,0)" />
    </marker>
  </defs>
  <sodipodi:namedview
     id="base"
     pagecolor="#ffffff"
     bordercolor="#666666"
     borderopacity="1.0"
     inkscape:pageopacity="0.0"
     inkscape:pageshadow="2"
     inkscape:zoom="4.2713299"
     inkscape:cx="170.7899"
     inkscape:cy="83.998174"
     inkscape:document-units="px"
     inkscape:current-layer="layer1"
     showgrid="false"
     fit-margin-top="0"
     fit-margin-left="0"
     fit-margin-right="0"
     fit-margin-bottom="0"
     inkscape:window-width="1920"
     inkscape:window-height="1152"
     inkscape:window-x="0"
     inkscape:window-y="0"
     inkscape:window-maximized="1"
     showguides="true"
     inkscape:guide-bbox="true">
    <inkscape:grid
       type="xygrid"
       id="grid2997"
       empspacing="5"
       visible="true"
       enabled="true"
       snapvisiblegridlinesonly="true"
       originx="0.5px"
       originy="-0.44059939px" />
  </sodipodi:namedview>
  <metadata
     id="metadata7">
    <rdf:RDF>
      <cc:Work
         rdf:about="">
        <dc:format>image/svg+xml</dc:format>
        <dc:type
           rdf:resource="http://purl.org/dc/dcmitype/StillImage" />
        <dc:title></dc:title>
      </cc:Work>
    </rdf:RDF>
  </metadata>
  <g
     inkscape:label="Calque 1"
     inkscape:groupmode="layer"
     id="layer1"
     transform="translate(-136.85715,-315.82841)">
    <path
       transform="translate(0.0798032,-0.4406105)"
       style="fill:none;stroke:#000000;stroke-width:1;stroke-linecap:butt;stroke-linejoin:miter;stroke-miterlimit:4;stroke-opacity:1;stroke-dasharray:3, 1;stroke-dashoffset:0"
       d="m 137.85715,501.64789 c 48.6564,-71.54963 119.55301,-102.47096 176.42856,-109.99999 63.73811,-7.70818 72.48927,36.82665 163.57143,72.85714"
       id="path2985-0"
       inkscape:connector-curvature="0"
       sodipodi:nodetypes="ccc" />
    <text
       id="text3096"
       transform="matrix(1.25,0,0,1.25,311.18636,383.79094)">
      <tspan
         id="tspan3098"
         y="0"
         x="0"
         style="font-size:19.20000076px;font-variant:normal;writing-mode:lr-tb;fill:#000000;fill-opacity:1;fill-rule:nonzero;stroke:none;font-family:jsMath-cmmi10;-inkscape-font-specification:jsMath-cmmi10" />
    </text>
    <path
       style="fill:none;stroke:#000000;stroke-width:1px;stroke-linecap:butt;stroke-linejoin:miter;stroke-opacity:1"
       d="m 0,180.49286 20,0 0,-20 20,0 0,-20 20,0 0,-20 20,0 0,-20 20,0 20,0 0,-20.000001 20,0 30,0 20,0 25,0 20,0 0,20.000001 20,0 0,20 20,0 20,0 0,20 20,0 20,0"
       id="path2999"
       inkscape:connector-curvature="0"
       transform="translate(137.35715,316.65502)" />
    <path
       sodipodi:type="arc"
       style="opacity:0.98999999;fill:none;stroke:none"
       id="path3908"
       sodipodi:cx="40"
       sodipodi:cy="55.492859"
       sodipodi:rx="10"
       sodipodi:ry="10"
       d="m 50,55.492859 c 0,5.522847 -4.477153,10 -10,10 -5.522847,0 -10,-4.477153 -10,-10 0,-5.522848 4.477153,-10 10,-10 5.517464,0 9.992384,4.468754 9.99999,9.986213"
       transform="translate(137.35715,316.65502)"
       sodipodi:start="0"
       sodipodi:end="6.2818066"
       sodipodi:open="true" />
    <path
       style="fill:none;stroke:#000000;stroke-width:1px;stroke-linecap:butt;stroke-linejoin:miter;stroke-opacity:1"
       d="m 100,38.492859 0,4"
       id="path4332-0"
       inkscape:connector-curvature="0"
       transform="translate(173.35715,356.65502)" />
    <path
       style="fill:none;stroke:#000000;stroke-width:1px;stroke-linecap:butt;stroke-linejoin:miter;stroke-opacity:1"
       d="m 100,38.492859 0,4"
       id="path4332-9"
       inkscape:connector-curvature="0"
       transform="translate(192.35715,356.65502)" />
    <path
       style="fill:none;stroke:#000000;stroke-width:1px;stroke-linecap:butt;stroke-linejoin:miter;stroke-opacity:1"
       d="m 100,38.492859 0,4"
       id="path4332-7"
       inkscape:connector-curvature="0"
       transform="translate(212.35715,356.65502)" />
    <path
       style="fill:none;stroke:#000000;stroke-width:1px;stroke-linecap:butt;stroke-linejoin:miter;stroke-opacity:1"
       d="m 100,38.492859 0,4"
       id="path4332-8"
       inkscape:connector-curvature="0"
       transform="translate(232.35715,356.65502)" />
    <path
       style="fill:none;stroke:#000000;stroke-width:1px;stroke-linecap:butt;stroke-linejoin:miter;stroke-opacity:1"
       d="m 100,38.492859 0,4"
       id="path4332-2"
       inkscape:connector-curvature="0"
       transform="translate(252.35715,356.65502)" />
    <path
       style="fill:none;stroke:#000000;stroke-width:1px;stroke-linecap:butt;stroke-linejoin:miter;stroke-opacity:1"
       d="m 100,38.492859 0,4"
       id="path4332-04"
       inkscape:connector-curvature="0"
       transform="translate(137.35715,376.65502)" />
    <path
       style="fill:none;stroke:#000000;stroke-width:1px;stroke-linecap:butt;stroke-linejoin:miter;stroke-opacity:1"
       d="m 100,38.492859 0,4"
       id="path4332-03"
       inkscape:connector-curvature="0"
       transform="translate(312.35715,396.65502)" />
    <path
       style="fill:none;stroke:#000000;stroke-width:1px;stroke-linecap:butt;stroke-linejoin:miter;stroke-opacity:1"
       d="m 100,38.492859 0,4"
       id="path4332-06"
       inkscape:connector-curvature="0"
       transform="translate(352.35715,416.65502)" />
    <path
       style="fill:none;stroke:#ff0000;stroke-width:1px;stroke-linecap:butt;stroke-linejoin:miter;stroke-opacity:1"
       d="m 182.83335,73.617494 1.72647,7.251181"
       id="path4433"
       inkscape:connector-curvature="0"
       transform="translate(137.35715,316.65502)" />
    <path
       style="fill:none;stroke:#ff0000;stroke-width:1px;stroke-linecap:butt;stroke-linejoin:miter;stroke-opacity:1"
       d="m 165.39599,80.696028 -1.38118,-4.143532"
       id="path4435"
       inkscape:connector-curvature="0"
       transform="translate(137.35715,316.65502)"
       sodipodi:nodetypes="cc" />
    <path
       style="fill:none;stroke:#ff0000;stroke-width:1px;stroke-linecap:butt;stroke-linejoin:miter;stroke-opacity:1"
       d="m 204.58689,80.350734 1.20853,-5.52471"
       id="path4437"
       inkscape:connector-curvature="0"
       transform="translate(137.35715,316.65502)"
       sodipodi:nodetypes="cc" />
    <path
       style="fill:none;stroke:#ff0000;stroke-width:1px;stroke-linecap:butt;stroke-linejoin:miter;stroke-opacity:1"
       d="M 234.80015,91.400152 237.9078,87.25662"
       id="path4439"
       inkscape:connector-curvature="0"
       transform="translate(137.35715,316.65502)" />
    <path
       style="fill:none;stroke:#ff0000;stroke-width:1px;stroke-linecap:butt;stroke-linejoin:miter;stroke-opacity:1"
       d="m 244.81368,100.89575 3.2803,-6.215302"
       id="path4441"
       inkscape:connector-curvature="0"
       transform="translate(137.35715,316.65502)"
       sodipodi:nodetypes="cc" />
    <path
       style="fill:none;stroke:#ff0000;stroke-width:1px;stroke-linecap:butt;stroke-linejoin:miter;stroke-opacity:1"
       d="m 255.17251,110.21869 5.35207,-6.73324"
       id="path4443"
       inkscape:connector-curvature="0"
       transform="translate(137.35715,316.65502)" />
    <path
       style="fill:none;stroke:#ff0000;stroke-width:1px;stroke-linecap:butt;stroke-linejoin:miter;stroke-opacity:1"
       d="m 265.70399,120.57752 6.73324,-9.49559"
       id="path4445"
       inkscape:connector-curvature="0"
       transform="translate(137.35715,316.65502)"
       sodipodi:nodetypes="cc" />
    <path
       style="fill:none;stroke:#ff0000;stroke-width:1px;stroke-linecap:butt;stroke-linejoin:miter;stroke-opacity:1"
       d="m 127.24096,80.696028 2.07177,5.006768"
       id="path4447"
       inkscape:connector-curvature="0"
       transform="translate(137.35715,316.65502)" />
    <path
       style="fill:none;stroke:#ff0000;stroke-width:1px;stroke-linecap:butt;stroke-linejoin:miter;stroke-opacity:1"
       d="m 110.83948,100.37781 c -0.86323,-1.208535 -2.935,-6.38795 -2.935,-6.38795"
       id="path4449"
       inkscape:connector-curvature="0"
       transform="translate(137.35715,316.65502)"
       sodipodi:nodetypes="cc" />
    <path
       style="fill:none;stroke:#fc0000;stroke-width:1px;stroke-linecap:butt;stroke-linejoin:miter;stroke-opacity:1"
       d="m 71.993869,120.57752 -3.798238,-4.31618"
       id="path4451"
       inkscape:connector-curvature="0"
       transform="translate(137.35715,316.65502)" />
    <path
       style="fill:none;stroke:#ff0000;stroke-width:1px;stroke-linecap:butt;stroke-linejoin:miter;stroke-opacity:1"
       d="m 88.39535,100.20516 1.553825,2.58971"
       id="path4453"
       inkscape:connector-curvature="0"
       transform="translate(137.35715,316.65502)" />
    <path
       style="fill:none;stroke:#ff0000;stroke-width:1px;stroke-linecap:butt;stroke-linejoin:miter;stroke-opacity:1"
       d="M 59.330872,131.53351 54.90637,126.75144"
       id="path4455"
       inkscape:connector-curvature="0"
       transform="translate(137.35715,316.65502)"
       sodipodi:nodetypes="cc" />
    <path
       style="fill:none;stroke:#ff0000;stroke-width:1px;stroke-linecap:butt;stroke-linejoin:miter;stroke-opacity:1"
       d="m 51.761913,140.32327 -6.592319,-6.59232"
       id="path4457"
       inkscape:connector-curvature="0"
       transform="translate(137.35715,316.65502)" />
    <path
       style="fill:none;stroke:#ff0000;stroke-width:1px;stroke-linecap:butt;stroke-linejoin:miter;stroke-opacity:1"
       d="M 39.798075,150.57798 34.027101,145.0757"
       id="path4459"
       inkscape:connector-curvature="0"
       transform="translate(137.35715,316.65502)"
       sodipodi:nodetypes="cc" />
    <path
       style="fill:#ff0000;stroke:#ff0000;stroke-width:1px;stroke-linecap:butt;stroke-linejoin:miter;stroke-opacity:1"
       d="M 30.764156,159.85606 25,153.93905"
       id="path4461"
       inkscape:connector-curvature="0"
       transform="translate(137.35715,316.65502)"
       sodipodi:nodetypes="cc" />
    <path
       style="fill:none;stroke:#f70000;stroke-width:1px;stroke-linecap:butt;stroke-linejoin:miter;stroke-opacity:1"
       d="M 20.021117,171.08742 14.893758,165.7159"
       id="path4463"
       inkscape:connector-curvature="0"
       transform="translate(137.35715,316.65502)" />
    <path
       style="fill:none;stroke:#ff0000;stroke-width:1px;stroke-linecap:butt;stroke-linejoin:miter;stroke-opacity:1"
       d="m 8.9776527,179.96815 -3.107649,-2.76236"
       id="path4465"
       inkscape:connector-curvature="0"
       transform="translate(137.35715,316.65502)" />
    <path
       style="fill:none;stroke:#ff0000;stroke-width:1px;stroke-linecap:butt;stroke-linejoin:miter;stroke-opacity:1"
       d="m 295.22666,130.93635 2.41706,-3.79824"
       id="path4467"
       inkscape:connector-curvature="0"
       transform="translate(137.35715,316.65502)"
       sodipodi:nodetypes="cc" />
    <path
       style="fill:none;stroke:#ff0000;stroke-width:1px;stroke-linecap:butt;stroke-linejoin:miter;stroke-opacity:1"
       d="m 304.20431,140.6046 4.14353,-8.28707"
       id="path4469"
       inkscape:connector-curvature="0"
       transform="translate(137.35715,316.65502)"
       sodipodi:nodetypes="cc" />
    <path
       style="fill:none;stroke:#ff0000;stroke-width:1px;stroke-linecap:butt;stroke-linejoin:miter;stroke-opacity:1"
       d="m 337.00727,49.832907 13.12119,0"
       id="path4492"
       inkscape:connector-curvature="0"
       transform="translate(74.901844,295.11075)" />
    <path
       sodipodi:type="arc"
       style="fill:none;fill-opacity:0.70353986000000002;stroke:#ea5e00;stroke-width:2;stroke-linejoin:round;stroke-miterlimit:4;stroke-opacity:1;stroke-dasharray:none;stroke-dashoffset:0"
       id="path4948"
       sodipodi:cx="343.9726"
       sodipodi:cy="206.4444"
       sodipodi:rx="55.205482"
       sodipodi:ry="55.205482"
       d="m 399.17808,206.4444 a 55.205482,55.205482 0 1 1 -3.3e-4,-0.189"
       sodipodi:start="0"
       sodipodi:end="6.2797618"
       sodipodi:open="true"
       transform="translate(-54.89861,183.47203)" />
    <path
       sodipodi:type="arc"
       style="fill:#787878;fill-opacity:1;stroke:none"
       id="path6086"
       sodipodi:cx="51.857384"
       sodipodi:cy="38.032654"
       sodipodi:rx="1.5217743"
       sodipodi:ry="1.5217743"
       d="m 53.379158,38.032654 a 1.5217743,1.5217743 0 1 1 -10e-7,-0.0021"
       transform="matrix(1.5591421,0,0,1.5591421,241.8947,348.29309)"
       sodipodi:start="0"
       sodipodi:end="6.2818066"
       sodipodi:open="true" />
    <path
       sodipodi:type="arc"
       style="fill:#787878;fill-opacity:1;stroke:none"
       id="path6086-0"
       sodipodi:cx="51.857384"
       sodipodi:cy="38.032654"
       sodipodi:rx="1.5217743"
       sodipodi:ry="1.5217743"
       d="m 53.379158,38.032654 a 1.5217743,1.5217743 0 1 1 -10e-7,-0.0021"
       transform="matrix(1.5591421,0,0,1.5591421,221.60438,348.29309)"
       sodipodi:start="0"
       sodipodi:end="6.2818066"
       sodipodi:open="true" />
    <path
       sodipodi:type="arc"
       style="fill:#787878;fill-opacity:1;stroke:none"
       id="path6086-4"
       sodipodi:cx="51.857384"
       sodipodi:cy="38.032654"
       sodipodi:rx="1.5217743"
       sodipodi:ry="1.5217743"
       d="m 53.379158,38.032654 a 1.5217743,1.5217743 0 1 1 -10e-7,-0.0021"
       transform="matrix(1.5591421,0,0,1.5591421,201.54817,348.29309)"
       sodipodi:start="0"
       sodipodi:end="6.2818066"
       sodipodi:open="true" />
    <path
       sodipodi:type="arc"
       style="fill:#787878;fill-opacity:1;stroke:none"
       id="path6086-9"
       sodipodi:cx="51.857384"
       sodipodi:cy="38.032654"
       sodipodi:rx="1.5217743"
       sodipodi:ry="1.5217743"
       d="m 53.379158,38.032654 a 1.5217743,1.5217743 0 1 1 -10e-7,-0.0021"
       transform="matrix(1.5591421,0,0,1.5591421,184.53552,348.29309)"
       sodipodi:start="0"
       sodipodi:end="6.2818066"
       sodipodi:open="true" />
    <g
       id="g6175"
       transform="translate(-69.299259,-16.856576)">
      <path
         sodipodi:open="true"
         sodipodi:end="6.2818066"
         sodipodi:start="0"
         transform="matrix(1.5591421,0,0,1.5591421,311.31102,384.58155)"
         d="m 53.379158,38.032654 c 0,0.840453 -0.681322,1.521774 -1.521774,1.521774 -0.840453,0 -1.521775,-0.681321 -1.521775,-1.521774 0,-0.840453 0.681322,-1.521774 1.521775,-1.521774 0.839633,0 1.520615,0.680043 1.521773,1.519676"
         sodipodi:ry="1.5217743"
         sodipodi:rx="1.5217743"
         sodipodi:cy="38.032654"
         sodipodi:cx="51.857384"
         id="path6086-8"
         style="fill:#787878;fill-opacity:1;stroke:none"
         sodipodi:type="arc" />
      <path
         sodipodi:open="true"
         sodipodi:end="6.2818066"
         sodipodi:start="0"
         transform="matrix(1.5591421,0,0,1.5591421,291.0207,384.58155)"
         d="m 53.379158,38.032654 c 0,0.840453 -0.681322,1.521774 -1.521774,1.521774 -0.840453,0 -1.521775,-0.681321 -1.521775,-1.521774 0,-0.840453 0.681322,-1.521774 1.521775,-1.521774 0.839633,0 1.520615,0.680043 1.521773,1.519676"
         sodipodi:ry="1.5217743"
         sodipodi:rx="1.5217743"
         sodipodi:cy="38.032654"
         sodipodi:cx="51.857384"
         id="path6086-0-8"
         style="fill:#787878;fill-opacity:1;stroke:none"
         sodipodi:type="arc" />
      <path
         sodipodi:open="true"
         sodipodi:end="6.2818066"
         sodipodi:start="0"
         transform="matrix(1.5591421,0,0,1.5591421,270.96449,384.58155)"
         d="m 53.379158,38.032654 c 0,0.840453 -0.681322,1.521774 -1.521774,1.521774 -0.840453,0 -1.521775,-0.681321 -1.521775,-1.521774 0,-0.840453 0.681322,-1.521774 1.521775,-1.521774 0.839633,0 1.520615,0.680043 1.521773,1.519676"
         sodipodi:ry="1.5217743"
         sodipodi:rx="1.5217743"
         sodipodi:cy="38.032654"
         sodipodi:cx="51.857384"
         id="path6086-4-2"
         style="fill:#787878;fill-opacity:1;stroke:none"
         sodipodi:type="arc" />
      <path
         sodipodi:open="true"
         sodipodi:end="6.2818066"
         sodipodi:start="0"
         transform="matrix(1.5591421,0,0,1.5591421,253.95184,384.58155)"
         d="m 53.379158,38.032654 c 0,0.840453 -0.681322,1.521774 -1.521774,1.521774 -0.840453,0 -1.521775,-0.681321 -1.521775,-1.521774 0,-0.840453 0.681322,-1.521774 1.521775,-1.521774 0.839633,0 1.520615,0.680043 1.521773,1.519676"
         sodipodi:ry="1.5217743"
         sodipodi:rx="1.5217743"
         sodipodi:cy="38.032654"
         sodipodi:cx="51.857384"
         id="path6086-9-8"
         style="fill:#787878;fill-opacity:1;stroke:none"
         sodipodi:type="arc" />
    </g>
    <path
       style="fill:none;stroke:#000000;stroke-width:1px;stroke-linecap:butt;stroke-linejoin:miter;stroke-opacity:1;marker-start:url(#TriangleInM);marker-end:url(#TriangleOutM)"
       d="m 284.62107,427.35436 15.13791,0"
       id="path4515"
       inkscape:connector-curvature="0"
       sodipodi:nodetypes="cc" />
  </g>
</svg>
