<?xml version="1.0" encoding="UTF-8"?>
<!-- Generator: Adobe Illustrator 16.0.0, SVG Export Plug-In . SVG Version: 6.00 Build 0)  -->
<!DOCTYPE svg PUBLIC "-//W3C//DTD SVG 1.1//EN" "http://www.w3.org/Graphics/SVG/1.1/DTD/svg11.dtd">
<svg version="1.1" id="Calque_1" xmlns="http://www.w3.org/2000/svg" xmlns:xlink="http://www.w3.org/1999/xlink" x="0px" y="0px" width="425.197px" height="92.135px" viewBox="0 0 425.197 92.135" enable-background="new 0 0 425.197 92.135" xml:space="preserve">
<g>
	<g>
		<path fill="#5F6062" d="M262.714,1.714h1.935v15.7h-1.935V1.714z"/>
		<path fill="#5F6062" d="M267.214,1.714h2.506l5.189,13.104h0.044V1.714h1.935v15.7h-2.661l-5.036-12.709h-0.043v12.709h-1.935    V1.714z"/>
		<path fill="#5F6062" d="M286.158,5.782c0-1.649-0.594-2.793-2.441-2.793c-1.627,0-2.595,0.879-2.595,2.551    c0,4.419,7.41,1.781,7.41,7.52c0,3.628-2.661,4.662-4.882,4.662c-3.671,0-4.75-1.891-4.75-5.233h1.935    c0,1.759,0.11,3.65,2.947,3.65c1.54,0,2.728-1.1,2.728-2.771c0-4.441-7.411-1.869-7.411-7.63c0-1.451,0.615-4.332,4.596-4.332    c2.99,0,4.353,1.496,4.398,4.376H286.158z"/>
		<path fill="#5F6062" d="M295.344,17.414h-1.935V3.429h-3.936V1.714h9.829v1.714h-3.958V17.414z"/>
		<path fill="#5F6062" d="M300.951,1.714h1.935v15.7h-1.935V1.714z"/>
		<path fill="#5F6062" d="M310.384,17.414h-1.935V3.429h-3.937V1.714h9.829v1.714h-3.957V17.414z"/>
		<path fill="#5F6062" d="M315.905,1.714h1.935v11.038c0,2.309,0.748,3.387,2.661,3.387c2.066,0,2.683-1.188,2.683-3.387V1.714    h1.935v11.038c0,3.012-1.539,4.97-4.617,4.97c-3.145,0-4.596-1.737-4.596-4.97V1.714z"/>
		<path fill="#5F6062" d="M332.553,17.414h-1.936V3.429h-3.937V1.714h9.829v1.714h-3.957V17.414z"/>
		<path fill="#5F6062" d="M343.242,1.714h2.507l5.189,13.104h0.044V1.714h1.935v15.7h-2.66l-5.035-12.709h-0.045v12.709h-1.935    V1.714z"/>
		<path fill="#5F6062" d="M358.938,1.714h2.595l4.222,15.7h-2.022l-1.122-4.31h-5.013l-1.166,4.31h-2.022L358.938,1.714z     M357.993,11.521h4.222l-2.001-7.586h-0.044L357.993,11.521z"/>
		<path fill="#5F6062" d="M370.656,17.414h-1.936V3.429h-3.936V1.714h9.829v1.714h-3.958V17.414z"/>
		<path fill="#5F6062" d="M376.263,1.714h1.935v15.7h-1.935V1.714z"/>
		<path fill="#5F6062" d="M390.598,9.564c0,3.958-0.726,8.158-5.058,8.158s-5.058-4.2-5.058-8.158s0.726-8.158,5.058-8.158    S390.598,5.606,390.598,9.564z M382.505,9.564c0,3.628,0.353,6.575,3.035,6.575s3.035-2.947,3.035-6.575    c0-3.628-0.353-6.575-3.035-6.575S382.505,5.936,382.505,9.564z"/>
		<path fill="#5F6062" d="M392.891,1.714h2.508l5.189,13.104h0.043V1.714h1.936v15.7h-2.661l-5.035-12.709h-0.044v12.709h-1.936    V1.714z"/>
		<path fill="#5F6062" d="M408.588,1.714h2.594l4.223,15.7h-2.022l-1.123-4.31h-5.013l-1.166,4.31h-2.022L408.588,1.714z     M407.642,11.521h4.222l-2-7.586h-0.044L407.642,11.521z"/>
		<path fill="#5F6062" d="M416.884,1.714h1.936v13.984h6.377v1.715h-8.313V1.714z"/>
		<path fill="#5F6062" d="M262.912,26.151h4.2c4.882,0,5.497,3.518,5.497,7.85c0,3.958-0.989,7.85-5.299,7.85h-4.397V26.151z     M264.846,40.268h2.024c3.342,0,3.716-3.431,3.716-6.245c0-3.035-0.198-6.289-3.716-6.289h-2.024V40.268z"/>
		<path fill="#5F6062" d="M274.872,26.151h8.114v1.715h-6.179v4.925h5.827v1.715h-5.827v5.629h6.442v1.715h-8.377V26.151z"/>
		<path fill="#5F6062" d="M291.801,30.219c0-1.649-0.593-2.793-2.441-2.793c-1.627,0-2.594,0.879-2.594,2.551    c0,4.419,7.411,1.781,7.411,7.52c0,3.628-2.661,4.662-4.882,4.662c-3.672,0-4.75-1.891-4.75-5.233h1.935    c0,1.759,0.109,3.65,2.947,3.65c1.538,0,2.726-1.1,2.726-2.771c0-4.441-7.41-1.869-7.41-7.63c0-1.451,0.615-4.332,4.595-4.332    c2.991,0,4.354,1.496,4.398,4.376H291.801z"/>
		<path fill="#5F6062" d="M308.076,30.219c0-1.649-0.594-2.793-2.441-2.793c-1.627,0-2.595,0.879-2.595,2.551    c0,4.419,7.411,1.781,7.411,7.52c0,3.628-2.661,4.662-4.882,4.662c-3.671,0-4.75-1.891-4.75-5.233h1.935    c0,1.759,0.11,3.65,2.947,3.65c1.54,0,2.728-1.1,2.728-2.771c0-4.441-7.411-1.869-7.411-7.63c0-1.451,0.616-4.332,4.596-4.332    c2.991,0,4.353,1.496,4.398,4.376H308.076z"/>
		<path fill="#5F6062" d="M322,36.464c-0.176,2.968-1.342,5.695-4.771,5.695c-4.465,0-5.058-4.2-5.058-8.158    c0-3.958,0.726-8.158,5.058-8.158c3.21,0,4.552,1.803,4.639,4.882h-2.021c-0.046-1.782-0.617-3.299-2.617-3.299    c-2.683,0-3.035,2.947-3.035,6.575c0,3.628,0.352,6.575,3.035,6.575c2.353,0,2.683-2.2,2.748-4.112H322z"/>
		<path fill="#5F6062" d="M323.848,26.151h1.936v15.7h-1.936V26.151z"/>
		<path fill="#5F6062" d="M328.348,26.151h8.114v1.715h-6.18v4.925h5.828v1.715h-5.828v5.629h6.443v1.715h-8.378V26.151z"/>
		<path fill="#5F6062" d="M338.544,26.151h2.507l5.188,13.104h0.045V26.151h1.935v15.7h-2.661l-5.034-12.709h-0.045v12.709h-1.935    V26.151z"/>
		<path fill="#5F6062" d="M360.342,36.464c-0.177,2.968-1.341,5.695-4.771,5.695c-4.464,0-5.058-4.2-5.058-8.158    c0-3.958,0.727-8.158,5.058-8.158c3.21,0,4.552,1.803,4.641,4.882h-2.024c-0.043-1.782-0.615-3.299-2.616-3.299    c-2.683,0-3.034,2.947-3.034,6.575c0,3.628,0.352,6.575,3.034,6.575c2.354,0,2.683-2.2,2.749-4.112H360.342z"/>
		<path fill="#5F6062" d="M362.203,26.151h8.114v1.715h-6.18v4.925h5.828v1.715h-5.828v5.629h6.443v1.715h-8.378V26.151z"/>
		<path fill="#5F6062" d="M379.132,30.219c0-1.649-0.595-2.793-2.441-2.793c-1.627,0-2.595,0.879-2.595,2.551    c0,4.419,7.41,1.781,7.41,7.52c0,3.628-2.661,4.662-4.881,4.662c-3.672,0-4.75-1.891-4.75-5.233h1.936    c0,1.759,0.109,3.65,2.945,3.65c1.54,0,2.728-1.1,2.728-2.771c0-4.441-7.41-1.869-7.41-7.63c0-1.451,0.615-4.332,4.596-4.332    c2.99,0,4.354,1.496,4.397,4.376H379.132z"/>
		<path fill="#5F6062" d="M265.792,50.588h2.595l4.222,15.7h-2.022l-1.122-4.31h-5.013l-1.166,4.31h-2.022L265.792,50.588z     M264.846,60.395h4.222l-2-7.586h-0.044L264.846,60.395z"/>
		<path fill="#5F6062" d="M274.089,50.588h4.001c1.364,0,4.86,0,4.86,4.507c0,2.925-1.87,4.551-4.53,4.551h-2.396v6.641h-1.935    V50.588z M276.024,58.064h2.309c1.408,0,2.594-0.967,2.594-3.056c0-1.715-0.813-2.836-2.726-2.836h-2.177V58.064z"/>
		<path fill="#5F6062" d="M284.726,50.588h4.002c1.364,0,4.86,0,4.86,4.507c0,2.925-1.869,4.551-4.53,4.551h-2.397v6.641h-1.935    V50.588z M286.661,58.064h2.309c1.407,0,2.595-0.967,2.595-3.056c0-1.715-0.813-2.836-2.726-2.836h-2.178V58.064z"/>
		<path fill="#5F6062" d="M295.364,50.588h1.935v13.984h6.376v1.715h-8.312V50.588z"/>
		<path fill="#5F6062" d="M305.324,50.588h1.935v15.7h-1.935V50.588z"/>
		<path fill="#5F6062" d="M317.307,65.804c-0.682,0.506-1.583,0.792-2.704,0.792c-4.333,0-5.058-4.2-5.058-8.158    c0-3.958,0.726-8.158,5.058-8.158c4.331,0,5.057,4.2,5.057,8.158c0,2.264-0.241,4.617-1.275,6.2l1.583,1.452l-1.077,1.144    L317.307,65.804z M314.514,63.276l1.077-1.188l1.452,1.319c0.483-1.187,0.594-2.968,0.594-4.969c0-3.628-0.352-6.575-3.034-6.575    c-2.683,0-3.035,2.947-3.035,6.575c0,3.628,0.352,6.575,3.035,6.575c0.571,0,1.056-0.132,1.429-0.375L314.514,63.276z"/>
		<path fill="#5F6062" d="M321.808,50.588h1.936v11.038c0,2.309,0.747,3.387,2.66,3.387c2.067,0,2.683-1.188,2.683-3.387V50.588    h1.936v11.038c0,3.012-1.539,4.97-4.618,4.97c-3.145,0-4.596-1.737-4.596-4.97V50.588z"/>
		<path fill="#5F6062" d="M333.509,50.588h8.113v1.715h-6.179v4.925h5.827v1.715h-5.827v5.629h6.443v1.715h-8.378V50.588z     M338.039,46.608h2.155l-2.375,3.123H336.5L338.039,46.608z"/>
		<path fill="#5F6062" d="M343.705,50.588h8.114v1.715h-6.179v4.925h5.827v1.715h-5.827v5.629h6.443v1.715h-8.379V50.588z"/>
		<path fill="#5F6062" d="M360.633,54.656c0-1.649-0.593-2.793-2.439-2.793c-1.628,0-2.595,0.879-2.595,2.551    c0,4.419,7.41,1.781,7.41,7.52c0,3.629-2.66,4.662-4.882,4.662c-3.673,0-4.75-1.891-4.75-5.233h1.936    c0,1.759,0.11,3.65,2.946,3.65c1.54,0,2.727-1.1,2.727-2.771c0-4.441-7.41-1.869-7.41-7.63c0-1.451,0.616-4.332,4.595-4.332    c2.991,0,4.354,1.495,4.398,4.376H360.633z"/>
		<path fill="#5F6062" d="M262.582,75.025h3.694v12.709h5.344v2.991h-9.038V75.025z"/>
		<path fill="#5F6062" d="M274.915,84.547l-3.98-9.521h4.09l1.759,5.827h0.043l1.804-5.827h3.958l-3.98,9.521v6.179h-3.694V84.547z"/>
		<path fill="#5F6062" d="M289.091,91.033c-4.859,0-5.519-3.166-5.519-8.158c0-4.991,0.66-8.158,5.519-8.158    c5.234,0,5.52,3.805,5.52,8.158S294.325,91.033,289.091,91.033z M289.069,88.57c1.495,0,1.715-1.385,1.715-5.695    c0-4.31-0.22-5.695-1.715-5.695c-1.451,0-1.671,1.386-1.671,5.695C287.398,87.186,287.619,88.57,289.069,88.57z"/>
		<path fill="#5F6062" d="M297.09,75.025h4.244l3.035,10.203h0.044V75.025h3.43v15.7h-4.177l-3.233-10.819h-0.044v10.819h-3.299    V75.025z"/>
	</g>
</g>
<g>
	<g>
		<line fill="#5F6062" x1="245.956" y1="1.709" x2="245.956" y2="90.738"/>
		<rect x="245.083" y="1.709" fill="#5F6062" width="1.746" height="89.029"/>
	</g>
</g>
<g>
	<rect y="1.751" fill="#EE3524" width="23.29" height="89.012"/>
	<polygon fill="#EE3524" points="55.725,1.751 70.754,56.604 71.005,56.604 71.005,1.751 92.792,1.751 92.792,90.763 67.248,90.763    51.721,35.79 51.471,35.79 51.471,90.763 29.68,90.763 29.68,1.751  "/>
	<path fill="#EE3524" d="M134.878,25.311c0-2.657-0.552-4.924-1.635-6.79c-1.088-1.877-2.758-2.808-5.005-2.808   c-2.509,0-4.346,0.81-5.509,2.432c-1.175,1.619-1.755,3.423-1.755,5.425c0,2.905,0.94,5.215,2.816,6.916   c1.88,1.705,4.235,3.176,7.071,4.423c2.842,1.247,5.888,2.514,9.148,3.803c3.253,1.293,6.302,2.972,9.142,5.053   c2.836,2.077,5.196,4.799,7.073,8.162c1.881,3.366,2.82,7.75,2.82,13.154c0,9.475-2.713,16.356-8.138,20.631   c-5.431,4.29-13.279,6.422-23.548,6.422c-4.842,0-9.121-0.397-12.84-1.183c-3.708-0.791-6.846-2.162-9.388-4.118   c-2.548-1.948-4.491-4.505-5.82-7.671c-1.335-3.155-2.002-7.063-2.002-11.715v-3.123h22.537v2.127c0,3.829,0.709,6.504,2.127,8.041   c1.423,1.543,3.255,2.313,5.511,2.313c2.425,0,4.271-0.839,5.577-2.497c1.289-1.661,1.941-3.691,1.941-6.113   c0-2.9-0.906-5.214-2.698-6.912c-1.797-1.705-4.048-3.163-6.758-4.37c-2.717-1.199-5.657-2.431-8.826-3.678   c-3.181-1.246-6.125-2.865-8.837-4.859c-2.713-1.999-4.966-4.613-6.76-7.862c-1.801-3.23-2.693-7.478-2.693-12.71   c0-9.057,2.422-15.958,7.267-20.698C110.536,2.374,117.882,0,127.734,0c10.182,0,17.548,2.185,22.103,6.55   c4.549,4.362,6.827,11.326,6.827,20.885h-21.787V25.311z"/>
	<path fill="#EE3524" d="M207.508,1.748l21.79,89.015h-24.79l-2.385-15.578h-18.535l-2.381,15.578h-24.42l21.418-89.015H207.508z    M192.731,19.953l-6.387,37.769h13.025l-6.397-37.769H192.731z"/>
</g>
<polygon fill="#5F6062" points="213.525,1.708 229.304,1.708 229.304,68.551 "/>
<g>
</g>
<g>
</g>
<g>
</g>
<g>
</g>
<g>
</g>
<g>
</g>
</svg>