<?xml version="1.0" encoding="UTF-8" standalone="no"?>
<!-- Created with Inkscape (http://www.inkscape.org/) -->
<svg
   xmlns:dc="http://purl.org/dc/elements/1.1/"
   xmlns:cc="http://creativecommons.org/ns#"
   xmlns:rdf="http://www.w3.org/1999/02/22-rdf-syntax-ns#"
   xmlns:svg="http://www.w3.org/2000/svg"
   xmlns="http://www.w3.org/2000/svg"
   xmlns:sodipodi="http://sodipodi.sourceforge.net/DTD/sodipodi-0.dtd"
   xmlns:inkscape="http://www.inkscape.org/namespaces/inkscape"
   id="svg2403"
   sodipodi:version="0.32"
   inkscape:version="0.46"
   width="375"
   height="167.5"
   xml:space="preserve"
   sodipodi:docname="Lyon.svg"
   inkscape:output_extension="org.inkscape.output.svg.inkscape"><metadata
     id="metadata2408"><rdf:RDF><cc:Work
         rdf:about=""><dc:format>image/svg+xml</dc:format><dc:type
           rdf:resource="http://purl.org/dc/dcmitype/StillImage" /></cc:Work></rdf:RDF></metadata><defs
     id="defs2406"><inkscape:perspective
       sodipodi:type="inkscape:persp3d"
       inkscape:vp_x="0 : 526.18109 : 1"
       inkscape:vp_y="0 : 1000 : 0"
       inkscape:vp_z="744.09448 : 526.18109 : 1"
       inkscape:persp3d-origin="372.04724 : 350.78739 : 1"
       id="perspective2410" /><clipPath
       clipPathUnits="userSpaceOnUse"
       id="clipPath2420"><path
         d="M 0,1338.43 L 0,0 L 2993.4,0 L 2993.4,1338.43 L 0,1338.43 z"
         id="path2422" /></clipPath></defs><sodipodi:namedview
     inkscape:window-height="726"
     inkscape:window-width="645"
     inkscape:pageshadow="2"
     inkscape:pageopacity="0.0"
     guidetolerance="10.0"
     gridtolerance="10.0"
     objecttolerance="10.0"
     borderopacity="1.0"
     bordercolor="#666666"
     pagecolor="#ffffff"
     id="base"
     showgrid="false"
     inkscape:zoom="1.4853333"
     inkscape:cx="187.5"
     inkscape:cy="83.75"
     inkscape:window-x="369"
     inkscape:window-y="25"
     inkscape:current-layer="g2412" /><g
     id="g2412"
     inkscape:groupmode="layer"
     inkscape:label="Logo_UDL_quadri"
     transform="matrix(1.25,0,0,-1.25,0,167.5)"><g
       id="g2414"
       transform="scale(0.1,0.1)"><g
         id="g2416"><g
           id="g2418"
           clip-path="url(#clipPath2420)"><path
             d="M 1988.88,650.59 L 2138.853,650.59 L 2138.853,678.6408 L 1988.88,678.6408 L 1988.88,650.59 z"
             style="fill:#1f4fa2;fill-opacity:1;fill-rule:nonzero;stroke:none"
             id="path2424" /><path
             d="M 1594.75,761.273 L 1621.78,761.273 L 1648.73,781.164 L 1607.79,778.547 L 1594.75,761.273"
             style="fill:#231f20;fill-opacity:1;fill-rule:nonzero;stroke:none"
             id="path2426" /><path
             d="M 1498.07,1338.43 L 1513.11,1315.34 L 1385.04,1231.99 L 1370.02,1255.08 L 1498.07,1338.43"
             style="fill:#d12a9e;fill-opacity:1;fill-rule:nonzero;stroke:none"
             id="path2428" /><path
             d="M 1539,1272.64 L 1552.52,1248.64 L 1419.41,1173.62 L 1405.88,1197.62 L 1539,1272.64"
             style="fill:#8c2b99;fill-opacity:1;fill-rule:nonzero;stroke:none"
             id="path2430" /><path
             d="M 1575.53,1204.61 L 1587.5,1179.81 L 1449.88,1113.4 L 1437.91,1138.2 L 1575.53,1204.61"
             style="fill:#3163b8;fill-opacity:1;fill-rule:nonzero;stroke:none"
             id="path2432" /><path
             d="M 1607.66,1134.4 L 1618.05,1108.88 L 1476.48,1051.34 L 1466.11,1076.85 L 1607.66,1134.4"
             style="fill:#19b5f1;fill-opacity:1;fill-rule:nonzero;stroke:none"
             id="path2434" /><path
             d="M 1635.35,1062.04 L 1644.08,1035.91 L 1499.14,987.523 L 1490.43,1013.66 L 1635.35,1062.04"
             style="fill:#f68712;fill-opacity:1;fill-rule:nonzero;stroke:none"
             id="path2436" /><path
             d="M 1658.28,988.402 L 1665.31,961.77 L 1517.6,922.699 L 1510.57,949.32 L 1658.28,988.402"
             style="fill:#abdc56;fill-opacity:1;fill-rule:nonzero;stroke:none"
             id="path2438" /><path
             d="M 1676.5,913.293 L 1681.82,886.273 L 1531.91,856.73 L 1526.58,883.754 L 1676.5,913.293"
             style="fill:#f46717;fill-opacity:1;fill-rule:nonzero;stroke:none"
             id="path2440" /><path
             d="M 1689.86,837.191 L 1693.44,809.875 L 1541.93,790.012 L 1538.36,817.324 L 1689.86,837.191"
             style="fill:#fcc707;fill-opacity:1;fill-rule:nonzero;stroke:none"
             id="path2442" /><path
             d="M 1693.89,529.34 L 1690.39,502.023 L 1538.83,521.438 L 1542.32,548.773 L 1693.89,529.34"
             style="fill:#91d222;fill-opacity:1;fill-rule:nonzero;stroke:none"
             id="path2444" /><path
             d="M 1682.46,452.902 L 1677.23,425.863 L 1527.23,454.984 L 1532.48,482.035 L 1682.46,452.902"
             style="fill:#ec008c;fill-opacity:1;fill-rule:nonzero;stroke:none"
             id="path2446" /><path
             d="M 1666.17,377.355 L 1659.22,350.707 L 1511.39,389.348 L 1518.34,416 L 1666.17,377.355"
             style="fill:#6aabe1;fill-opacity:1;fill-rule:nonzero;stroke:none"
             id="path2448" /><path
             d="M 1645.08,302.879 L 1636.43,276.719 L 1491.35,324.629 L 1499.98,350.785 L 1645.08,302.879"
             style="fill:#bb472d;fill-opacity:1;fill-rule:nonzero;stroke:none"
             id="path2450" /><path
             d="M 1619.3,229.809 L 1609.04,204.238 L 1467.25,261.172 L 1477.5,286.738 L 1619.3,229.809"
             style="fill:#f68624;fill-opacity:1;fill-rule:nonzero;stroke:none"
             id="path2452" /><path
             d="M 1589.1,158.809 L 1577.23,133.949 L 1439.34,199.75 L 1451.19,224.609 L 1589.1,158.809"
             style="fill:#59c594;fill-opacity:1;fill-rule:nonzero;stroke:none"
             id="path2454" /><path
             d="M 1554.38,89.7305 L 1540.94,65.6797 L 1407.54,140.191 L 1420.98,164.238 L 1554.38,89.7305"
             style="fill:#3c90d5;fill-opacity:1;fill-rule:nonzero;stroke:none"
             id="path2456" /><path
             d="M 1515.35,23.1484 L 1500.39,0 L 1372.07,82.9297 L 1387.01,106.082 L 1515.35,23.1484"
             style="fill:#414da8;fill-opacity:1;fill-rule:nonzero;stroke:none"
             id="path2458" /><path
             d="M 1545.58,581.867 L 1695.541,581.867 L 1695.541,609.9256 L 1545.58,609.9256 L 1545.58,581.867 z"
             style="fill:#231f20;fill-opacity:1;fill-rule:nonzero;stroke:none"
             id="path2460" /><path
             d="M 741.445,720.496 L 891.425,720.496 L 891.425,748.5507 L 741.445,748.5507 L 741.445,720.496 z"
             style="fill:#231f20;fill-opacity:1;fill-rule:nonzero;stroke:none"
             id="path2462" /><path
             d="M 741.445,650.59 L 891.425,650.59 L 891.425,678.6486 L 741.445,678.6486 L 741.445,650.59 z"
             style="fill:#231f20;fill-opacity:1;fill-rule:nonzero;stroke:none"
             id="path2464" /><path
             d="M 741.445,650.59 L 891.425,650.59 L 891.425,678.6486 L 741.445,678.6486 L 741.445,650.59 z"
             style="fill:#231f20;fill-opacity:1;fill-rule:nonzero;stroke:none"
             id="path2466" /><path
             d="M 741.445,581.035 L 891.425,581.035 L 891.425,609.0858 L 741.445,609.0858 L 741.445,581.035 z"
             style="fill:#231f20;fill-opacity:1;fill-rule:nonzero;stroke:none"
             id="path2468" /><path
             d="M 1545.59,720.496 L 1695.551,720.496 L 1695.551,748.5507 L 1545.59,748.5507 L 1545.59,720.496 z"
             style="fill:#231f20;fill-opacity:1;fill-rule:nonzero;stroke:none"
             id="path2470" /><path
             d="M 1545.59,650.59 L 1695.551,650.59 L 1695.551,678.6486 L 1545.59,678.6486 L 1545.59,650.59 z"
             style="fill:#231f20;fill-opacity:1;fill-rule:nonzero;stroke:none"
             id="path2472" /><path
             d="M 1545.59,650.59 L 1695.551,650.59 L 1695.551,678.6486 L 1545.59,678.6486 L 1545.59,650.59 z"
             style="fill:#231f20;fill-opacity:1;fill-rule:nonzero;stroke:none"
             id="path2474" /><path
             d="M 1988.03,581.867 L 2138.01,581.867 L 2138.01,609.9256 L 1988.03,609.9256 L 1988.03,581.867 z"
             style="fill:#1f4fa2;fill-opacity:1;fill-rule:nonzero;stroke:none"
             id="path2476" /><path
             d="M 1988.55,720.496 L 2138.538,720.496 L 2138.538,748.5507 L 1988.55,748.5507 L 1988.55,720.496 z"
             style="fill:#1f4fa2;fill-opacity:1;fill-rule:nonzero;stroke:none"
             id="path2478" /><path
             d="M 231.602,674.672 C 231.602,604.465 186.895,575.668 115.801,575.668 C 44.6875,575.668 0,604.465 0,674.672 L 0,799.172 L 42.5977,799.172 L 42.5977,677.668 C 42.5977,641.66 55.4883,612.27 115.801,612.27 C 176.094,612.27 188.984,641.66 188.984,677.668 L 188.984,799.172 L 231.602,799.172 L 231.602,674.672"
             style="fill:#231f20;fill-opacity:1;fill-rule:nonzero;stroke:none"
             id="path2480" /><path
             d="M 266.973,748.273 L 301.465,748.273 L 413.242,627.531 L 413.242,748.273 L 444.531,748.273 L 444.531,581.066 L 414.629,581.066 L 298.242,706.184 L 298.242,581.066 L 266.973,581.066 L 266.973,748.273"
             style="fill:#231f20;fill-opacity:1;fill-rule:nonzero;stroke:none"
             id="path2482" /><path
             d="M 478.34,581.066 L 510.9962,581.066 L 510.9962,748.273 L 478.34,748.273 L 478.34,581.066 z"
             style="fill:#231f20;fill-opacity:1;fill-rule:nonzero;stroke:none"
             id="path2484" /><path
             d="M 528.926,748.273 L 563.887,748.273 L 626.68,614.875 L 690.625,748.273 L 725.586,748.273 L 643.711,581.066 L 609.668,581.066 L 528.926,748.273"
             style="fill:#231f20;fill-opacity:1;fill-rule:nonzero;stroke:none"
             id="path2486" /><path
             d="M 1008.24,673.988 C 1034.94,673.988 1048.5,677.902 1048.5,697.68 C 1048.5,717.23 1034.94,721.137 1008.24,721.137 L 945.234,721.137 L 945.234,673.988 L 1008.24,673.988 z M 912.578,748.273 L 1013.09,748.273 C 1052.64,748.273 1081.17,739.309 1081.17,698.371 C 1081.17,667.551 1059.08,650.531 1034.47,649.145 L 1085.76,581.066 L 1045.51,581.066 L 996.973,646.848 L 945.234,646.848 L 945.234,581.066 L 912.578,581.066 L 912.578,748.273"
             style="fill:#231f20;fill-opacity:1;fill-rule:nonzero;stroke:none"
             id="path2488" /><path
             d="M 1239.39,697.445 C 1234.1,712.395 1220.55,725.277 1180.74,725.277 C 1158.67,725.277 1136.35,719.758 1136.35,704.348 C 1136.35,697.219 1140.49,689.633 1173.85,685.492 L 1213.4,679.504 C 1250.9,673.762 1272.97,659.27 1272.97,631.203 C 1272.97,591.645 1235.25,576.926 1190.64,576.926 C 1118.87,576.926 1101.39,612.348 1097.48,624.992 L 1129,634.887 C 1134.98,622.699 1147.4,604.984 1191.56,604.984 C 1218.24,604.984 1240.31,613.723 1240.31,628.215 C 1240.31,639.027 1227.89,646.156 1203.98,649.145 L 1163.96,654.672 C 1125.31,659.953 1103.69,676.75 1103.69,702.277 C 1103.69,752.414 1168.79,752.414 1181.66,752.414 C 1253.65,752.414 1266.07,719.066 1270.21,707.57 L 1239.39,697.445"
             style="fill:#231f20;fill-opacity:1;fill-rule:nonzero;stroke:none"
             id="path2490" /><path
             d="M 1295.06,581.066 L 1327.7123,581.066 L 1327.7123,748.273 L 1295.06,748.273 L 1295.06,581.066 z"
             style="fill:#231f20;fill-opacity:1;fill-rule:nonzero;stroke:none"
             id="path2492" /><path
             d="M 1421.09,720.219 L 1346.35,720.219 L 1346.35,748.273 L 1528.5,748.273 L 1528.5,720.219 L 1453.75,720.219 L 1453.75,581.066 L 1421.09,581.066 L 1421.09,720.219"
             style="fill:#231f20;fill-opacity:1;fill-rule:nonzero;stroke:none"
             id="path2494" /><path
             d="M 1857.17,609.125 C 1912.83,609.125 1934.45,626.145 1934.45,665.246 C 1934.45,706.184 1911.91,720.219 1857.17,720.219 L 1824.04,720.219 L 1824.04,609.125 L 1857.17,609.125 z M 1791.39,748.273 L 1871.89,748.273 C 1924.79,748.273 1967.11,725.969 1967.11,665.707 C 1967.11,608.664 1928.48,581.066 1873.26,581.066 L 1791.39,581.066 L 1791.39,748.273"
             style="fill:#1f4fa2;fill-opacity:1;fill-rule:nonzero;stroke:none"
             id="path2496" /><path
             d="M 2240.39,799.172 L 2282.99,799.172 L 2282.99,618.867 L 2441.09,618.867 L 2441.09,581.066 L 2240.39,581.066 L 2240.39,799.172"
             style="fill:#1f4fa2;fill-opacity:1;fill-rule:nonzero;stroke:none"
             id="path2498" /><path
             d="M 2488.77,648 L 2407.13,748.273 L 2447.15,748.273 L 2505.1,677.434 L 2562.83,748.273 L 2603.09,748.273 L 2521.43,648 L 2521.43,581.066 L 2488.77,581.066 L 2488.77,648"
             style="fill:#1f4fa2;fill-opacity:1;fill-rule:nonzero;stroke:none"
             id="path2500" /><path
             d="M 2762.25,665.246 C 2762.25,705.5 2733.5,724.359 2695.33,724.359 C 2657.15,724.359 2628.4,705.5 2628.4,665.246 C 2628.4,617.863 2664.04,604.984 2695.33,604.984 C 2726.6,604.984 2762.25,617.863 2762.25,665.246 z M 2695.33,752.414 C 2768.93,752.414 2794.92,709.184 2794.92,663.41 C 2794.92,628.676 2774.45,576.926 2695.33,576.926 C 2616.21,576.926 2595.74,628.676 2595.74,663.41 C 2595.74,709.184 2621.72,752.414 2695.33,752.414"
             style="fill:#1f4fa2;fill-opacity:1;fill-rule:nonzero;stroke:none"
             id="path2502" /><path
             d="M 2815.84,748.273 L 2850.33,748.273 L 2962.13,627.531 L 2962.13,748.273 L 2993.4,748.273 L 2993.4,581.066 L 2963.5,581.066 L 2847.13,706.184 L 2847.13,581.066 L 2815.84,581.066 L 2815.84,748.273"
             style="fill:#1f4fa2;fill-opacity:1;fill-rule:nonzero;stroke:none"
             id="path2504" /></g></g></g></g></svg>