<?xml version="1.0" encoding="UTF-8" standalone="no"?>
<!-- Generator: Adobe Illustrator 16.0.0, SVG Export Plug-In . SVG Version: 6.00 Build 0)  -->

<svg
   xmlns:dc="http://purl.org/dc/elements/1.1/"
   xmlns:cc="http://creativecommons.org/ns#"
   xmlns:rdf="http://www.w3.org/1999/02/22-rdf-syntax-ns#"
   xmlns:svg="http://www.w3.org/2000/svg"
   xmlns="http://www.w3.org/2000/svg"
   xmlns:sodipodi="http://sodipodi.sourceforge.net/DTD/sodipodi-0.dtd"
   xmlns:inkscape="http://www.inkscape.org/namespaces/inkscape"
   version="1.1"
   id="Capa_1"
   x="0px"
   y="0px"
   width="490.434px"
   height="490.433px"
   viewBox="0 0 490.434 490.433"
   style="enable-background:new 0 0 490.434 490.433;"
   xml:space="preserve"
   inkscape:version="0.91 r13725"
   sodipodi:docname="basic14.svg"><metadata
     id="metadata41"><rdf:RDF><cc:Work
         rdf:about=""><dc:format>image/svg+xml</dc:format><dc:type
           rdf:resource="http://purl.org/dc/dcmitype/StillImage" /></cc:Work></rdf:RDF></metadata><defs
     id="defs39" /><sodipodi:namedview
     pagecolor="#ffffff"
     bordercolor="#666666"
     borderopacity="1"
     objecttolerance="10"
     gridtolerance="10"
     guidetolerance="10"
     inkscape:pageopacity="0"
     inkscape:pageshadow="2"
     inkscape:window-width="1920"
     inkscape:window-height="1041"
     id="namedview37"
     showgrid="false"
     inkscape:zoom="0.48120741"
     inkscape:cx="249.37321"
     inkscape:cy="245.21651"
     inkscape:window-x="0"
     inkscape:window-y="0"
     inkscape:window-maximized="1"
     inkscape:current-layer="g3" /><g
     id="g3"><path
       d="M472.003,58.36l-13.132-11.282c-21.798-18.732-54.554-16.644-73.799,4.697L165.39,295.359l-66.312-57.112   c-21.775-18.753-54.536-16.707-73.804,4.611l-11.611,12.848c-9.416,10.413-14.305,24.149-13.595,38.18   c0.717,14.023,6.973,27.188,17.402,36.6l121.553,111.311c10.524,9.883,24.628,15.037,39.044,14.272   c14.416-0.763,27.894-7.386,37.311-18.329l262.245-304.71c9.162-10.646,13.717-24.494,12.661-38.496   C489.229,80.522,482.655,67.512,472.003,58.36z"
       id="path5"
       style="fill:#1d660a;fill-opacity:1" /></g><g
     id="g7" /><g
     id="g9" /><g
     id="g11" /><g
     id="g13" /><g
     id="g15" /><g
     id="g17" /><g
     id="g19" /><g
     id="g21" /><g
     id="g23" /><g
     id="g25" /><g
     id="g27" /><g
     id="g29" /><g
     id="g31" /><g
     id="g33" /><g
     id="g35" /></svg>