<?xml version="1.0" encoding="UTF-8" standalone="no"?>
<!-- Generator: Adobe Illustrator 18.0.0, SVG Export Plug-In . SVG Version: 6.00 Build 0)  -->

<svg
   xmlns:dc="http://purl.org/dc/elements/1.1/"
   xmlns:cc="http://creativecommons.org/ns#"
   xmlns:rdf="http://www.w3.org/1999/02/22-rdf-syntax-ns#"
   xmlns:svg="http://www.w3.org/2000/svg"
   xmlns="http://www.w3.org/2000/svg"
   xmlns:sodipodi="http://sodipodi.sourceforge.net/DTD/sodipodi-0.dtd"
   xmlns:inkscape="http://www.inkscape.org/namespaces/inkscape"
   version="1.1"
   id="Artwork"
   x="0px"
   y="0px"
   viewBox="0 0 800 800"
   enable-background="new 0 0 800 800"
   xml:space="preserve"
   inkscape:version="0.91 r13725"
   sodipodi:docname="delete85.svg"><metadata
     id="metadata9"><rdf:RDF><cc:Work
         rdf:about=""><dc:format>image/svg+xml</dc:format><dc:type
           rdf:resource="http://purl.org/dc/dcmitype/StillImage" /></cc:Work></rdf:RDF></metadata><defs
     id="defs7" /><sodipodi:namedview
     pagecolor="#ffffff"
     bordercolor="#666666"
     borderopacity="1"
     objecttolerance="10"
     gridtolerance="10"
     guidetolerance="10"
     inkscape:pageopacity="0"
     inkscape:pageshadow="2"
     inkscape:window-width="1920"
     inkscape:window-height="1041"
     id="namedview5"
     showgrid="false"
     inkscape:zoom="0.295"
     inkscape:cx="406.77966"
     inkscape:cy="400"
     inkscape:window-x="0"
     inkscape:window-y="0"
     inkscape:window-maximized="1"
     inkscape:current-layer="Artwork" /><path
     d="M498.7,400.5L694.1,205c16.4-16.4,16.4-43.1,0-59.7l-39.8-39.8c-16.4-16.4-43.1-16.4-59.7,0L399.2,301L204.9,106.7  c-16.4-16.4-43.1-16.4-59.7,0l-39.8,39.8c-16.4,16.4-16.4,43.1,0,59.7l194.3,194.3L105.6,594.5c-16.4,16.4-16.4,43.1,0,59.7  l39.8,39.8c16.4,16.4,43.1,16.4,59.7,0L399.2,500l194.5,194.5c16.4,16.4,43.1,16.4,59.7,0l39.8-39.8c16.4-16.4,16.4-43.1,0-59.7  L498.7,400.5z"
     id="path3"
     style="fill:#660a10;fill-opacity:1" /></svg>